<svg width="512" height="512" viewBox="0 0 512 512" fill="none" xmlns="http://www.w3.org/2000/svg">
<path d="M385.382 330V331.764H383V342H395V330H385.382ZM354.604 330V342H373.84V330H354.604ZM323.826 330V342H343.062V330H323.826ZM293.049 330V342H312.285V330H293.049ZM262.271 330V342H281.507V330H262.271ZM231.493 330V342H250.729V330H231.493ZM200.715 330V342H219.951V330H200.715ZM169.938 330V342H189.174V330H169.938ZM139.16 330V342H158.396V330H139.16ZM118 330V342H130V331.764H127.618V330H118ZM383 299.008V319.48H395V299.008H383ZM118 299.008V319.48H130V299.008H118ZM383 266.252V286.725H395V266.252H383ZM118 266.252V286.725H130V266.252H118ZM383 233.496V253.969H395V233.496H383ZM118 233.496V253.969H130V233.496H118ZM383 200.74V221.213H395V200.74H383ZM118 200.74V221.213H130V200.74H118ZM383 167.984V188.457H395V167.984H383ZM118 167.984V188.457H130V167.984H118ZM386.344 139.061L379.207 148.708L383 151.514V155.701H395V145.465L386.344 139.061ZM126.657 139.061L118 145.465V155.701H130V151.514L133.793 148.708L126.657 139.061ZM358.644 118.567L351.507 128.215L368.819 141.022L375.956 131.376L375.957 131.375L358.644 118.567ZM154.357 118.567L137.044 131.375L144.181 141.022L161.493 128.215L154.357 118.567ZM330.943 98.0752L323.807 107.722L341.119 120.53L348.256 110.883L348.257 110.882L330.944 98.0742L330.943 98.0752ZM164.744 110.882L171.881 120.53L189.193 107.722L182.057 98.0752L164.744 110.882ZM303.244 77.582L296.106 87.2285L313.419 100.037L320.557 90.3896L303.244 77.582ZM209.757 77.582L192.444 90.3896L199.581 100.037L216.894 87.2285L209.757 77.582ZM275.544 57.0889L268.407 66.7363L285.72 79.5439L292.856 69.8975L292.857 69.8965L275.544 57.0889ZM237.457 57.0889L220.144 69.8965L227.28 79.5439L244.593 66.7363L237.457 57.0889ZM247.844 49.4033L254.98 59.0508L256.5 57.9258L258.02 59.0508L265.156 49.4043L265.157 49.4033L256.5 43L247.844 49.4033Z" fill="#65820A"/>
<path d="M88.8152 348.706H109.536C109.306 347.645 109.07 346.62 108.816 345.596C105.745 332.922 101.359 322.531 96.5221 314.225C83.7145 292.13 67.4383 286.058 65.2919 288.265C63.1455 290.471 73.3887 309.441 77.9462 339.5C78.7767 344.98 83.1601 348.706 88.8152 348.706Z" fill="#B8EC13"/>
<path d="M115.969 348.706H137.73C142.712 348.706 146.533 345.388 147.074 340.612C150.774 307.935 163.605 287.893 160.528 285.761C157.45 283.628 141.76 289.815 128.999 312.098C123.739 321.296 119.057 333.01 116.209 347.513C116.122 347.9 116.039 348.303 115.969 348.706Z" fill="#B8EC13"/>
<path d="M92.7114 348.706H132.175C130.388 335.098 130.217 322.919 130.894 312.14C133.107 276.75 142.439 252.674 138.948 250.442C135.458 248.209 111.39 263.663 99.501 304.532C96.0353 316.412 93.5625 330.274 92.8169 346.13C92.7758 346.979 92.7348 347.828 92.7114 348.706Z" fill="#B8EC13"/>
<path d="M41 342H471V476H41V342Z" fill="#B8EC13"/>
</svg>
