<svg width="512" height="512" viewBox="0 0 512 512" fill="none" xmlns="http://www.w3.org/2000/svg">
<path d="M41 342H471V476H41V342Z" fill="#B8EC13"/>
<path d="M385.382 330V331.764H383V342H395V330H385.382ZM354.604 330V342H373.84V330H354.604ZM323.826 330V342H343.062V330H323.826ZM293.049 330V342H312.285V330H293.049ZM262.271 330V342H281.507V330H262.271ZM231.493 330V342H250.729V330H231.493ZM200.715 330V342H219.951V330H200.715ZM169.938 330V342H189.174V330H169.938ZM139.16 330V342H158.396V330H139.16ZM118 330V342H130V331.764H127.618V330H118ZM383 299.008V319.48H395V299.008H383ZM118 299.008V319.48H130V299.008H118ZM383 266.252V286.725H395V266.252H383ZM118 266.252V286.725H130V266.252H118ZM383 233.496V253.969H395V233.496H383ZM118 233.496V253.969H130V233.496H118ZM383 200.74V221.213H395V200.74H383ZM118 200.74V221.213H130V200.74H118ZM383 167.984V188.457H395V167.984H383ZM118 167.984V188.457H130V167.984H118ZM386.344 139.061L379.207 148.708L383 151.514V155.701H395V145.465L386.344 139.061ZM126.657 139.061L118 145.465V155.701H130V151.514L133.793 148.708L126.657 139.061ZM358.644 118.567L351.507 128.215L368.819 141.022L375.956 131.376L375.957 131.375L358.644 118.567ZM154.357 118.567L137.044 131.375L144.181 141.022L161.493 128.215L154.357 118.567ZM330.943 98.0752L323.807 107.722L341.119 120.53L348.256 110.883L348.257 110.882L330.944 98.0742L330.943 98.0752ZM164.744 110.882L171.881 120.53L189.193 107.722L182.057 98.0752L164.744 110.882ZM303.244 77.582L296.106 87.2285L313.419 100.037L320.557 90.3896L303.244 77.582ZM209.757 77.582L192.444 90.3896L199.581 100.037L216.894 87.2285L209.757 77.582ZM275.544 57.0889L268.407 66.7363L285.72 79.5439L292.856 69.8975L292.857 69.8965L275.544 57.0889ZM237.457 57.0889L220.144 69.8965L227.28 79.5439L244.593 66.7363L237.457 57.0889ZM247.844 49.4033L254.98 59.0508L256.5 57.9258L258.02 59.0508L265.156 49.4043L265.157 49.4033L256.5 43L247.844 49.4033Z" fill="#65820A"/>
<path d="M242 394C242 420.467 263.533 442 290 442H471V410H290C281.178 410 274 402.822 274 394V352H242V394Z" fill="#81A50D"/>
<path d="M274 374H242C233.163 374 226 366.837 226 358V342H290V358C290 366.837 282.837 374 274 374Z" fill="#81A50D"/>
</svg>
