<svg width="512" height="512" viewBox="0 0 512 512" fill="none" xmlns="http://www.w3.org/2000/svg">
<path d="M453.244 210.748V453.51H58.7558V210.748L216.399 104.54L243.634 65.546C246.418 61.4512 251.049 59 256 59C260.952 59 265.582 61.4512 268.366 65.546L295.601 104.54L453.244 210.748Z" fill="#E5EDFF"/>
<path d="M256 332.129V453.51H195.309V362.474C195.309 345.715 208.895 332.129 225.655 332.129H256Z" fill="#CFDFFF"/>
<path d="M316.691 362.474V453.51H256V332.129H286.345C303.104 332.129 316.691 345.715 316.691 362.474Z" fill="#CFDFFF"/>
<path d="M256 271.438C289.518 271.438 316.691 244.266 316.691 210.747C316.691 177.229 289.518 150.057 256 150.057C222.482 150.057 195.309 177.229 195.309 210.747C195.309 244.266 222.482 271.438 256 271.438Z" fill="white"/>
<path d="M240.827 233.508C237.759 233.507 234.994 231.659 233.82 228.824C232.646 225.99 233.295 222.727 235.464 220.558L248.414 207.608V187.99C248.414 183.8 251.81 180.403 256 180.403C260.19 180.403 263.586 183.8 263.586 187.99V210.749C263.586 212.76 262.786 214.69 261.364 216.112L246.191 231.285C244.769 232.708 242.839 233.507 240.827 233.508Z" fill="#475167"/>
<path d="M127.033 347.301C139.602 347.301 149.792 357.49 149.792 370.06V400.405C149.792 404.595 146.395 407.991 142.205 407.991H111.86C107.67 407.991 104.274 404.595 104.274 400.405V370.06C104.274 357.49 114.463 347.301 127.033 347.301Z" fill="#CFDFFF"/>
<path d="M127.033 256.266C139.602 256.266 149.792 266.455 149.792 279.025V309.37C149.792 313.56 146.395 316.956 142.205 316.956H111.86C107.67 316.956 104.274 313.56 104.274 309.37V279.025C104.274 266.455 114.463 256.266 127.033 256.266Z" fill="#CFDFFF"/>
<path d="M384.967 347.301C397.537 347.301 407.726 357.49 407.726 370.06V400.405C407.726 404.595 404.33 407.991 400.14 407.991H369.795C365.605 407.991 362.208 404.595 362.208 400.405V370.06C362.208 357.49 372.398 347.301 384.967 347.301Z" fill="#CFDFFF"/>
<path d="M384.967 256.266C397.537 256.266 407.726 266.455 407.726 279.025V309.37C407.726 313.56 404.33 316.956 400.14 316.956H369.795C365.605 316.956 362.208 313.56 362.208 309.37V279.025C362.208 266.455 372.398 256.266 384.967 256.266Z" fill="#CFDFFF"/>
<path d="M256 279.024C218.292 279.024 187.723 248.456 187.723 210.748C187.723 173.039 218.292 142.471 256 142.471C293.708 142.471 324.277 173.039 324.277 210.748C324.235 248.438 293.691 278.983 256 279.024ZM256 157.643C226.671 157.643 202.896 181.419 202.896 210.748C202.896 240.076 226.671 263.852 256 263.852C285.329 263.852 309.104 240.076 309.104 210.748C309.071 181.433 285.315 157.677 256 157.643Z" fill="#B0BED9"/>
<path d="M216.399 104.54L142.205 210.748H43.5831C41.1114 210.747 38.7952 209.542 37.3758 207.519C35.9563 205.495 35.6116 202.907 36.452 200.583L63.5352 124.644C67.8631 112.573 79.3119 104.525 92.1356 104.54L216.399 104.54Z" fill="#919CB3"/>
<path d="M468.417 210.748H369.795L295.601 104.54L419.864 104.54C432.688 104.525 444.137 112.573 448.465 124.644L475.548 200.583C476.388 202.907 476.044 205.495 474.624 207.519C473.205 209.542 470.889 210.747 468.417 210.748Z" fill="#919CB3"/>
<path fill-rule="evenodd" clip-rule="evenodd" d="M324.269 453.923H309.119C309.111 453.787 309.108 453.65 309.108 453.511V362.476C309.108 349.906 298.918 339.717 286.349 339.717H225.658C213.089 339.717 202.899 349.906 202.899 362.476V453.511C202.899 453.65 202.895 453.787 202.888 453.923H187.738C187.73 453.787 187.727 453.65 187.727 453.511V362.476C187.752 341.537 204.72 324.569 225.658 324.544H286.349C307.287 324.569 324.255 341.537 324.28 362.476V453.511C324.28 453.65 324.277 453.787 324.269 453.923Z" fill="#B0BED9"/>
</svg>
