<svg width="512" height="512" viewBox="0 0 512 512" fill="none" xmlns="http://www.w3.org/2000/svg">
<path d="M56 95H456V353H56V95Z" fill="#FDF5EC"/>
<path d="M56 262.549V94.8066H146.323C142.022 176.527 111.914 232.441 56 262.549Z" fill="#EB7F14"/>
<path d="M456 262.549V94.8066H365.677C369.979 176.527 400.086 232.441 456 262.549Z" fill="#EB7F14"/>
<path d="M107.613 352.871H56V262.549C86.3226 275.917 105.935 293.581 107.613 352.871Z" fill="#EB7F14"/>
<path d="M404.387 352.871H456V262.549C425.677 275.917 406.065 293.581 404.387 352.871Z" fill="#EB7F14"/>
<path d="M210.839 414.289H120.516V349.773C120.516 342.929 123.235 336.365 128.075 331.525C132.914 326.685 139.478 323.966 146.323 323.966H185.032C191.877 323.966 198.441 326.685 203.28 331.525C208.12 336.365 210.839 342.929 210.839 349.773V414.289Z" fill="#C86C11"/>
<path d="M301.161 414.289H210.839V349.773C210.839 342.929 213.558 336.365 218.397 331.525C223.237 326.685 229.801 323.966 236.645 323.966H275.355C282.199 323.966 288.763 326.685 293.603 331.525C298.442 336.365 301.161 342.929 301.161 349.773V414.289Z" fill="#C86C11"/>
<path d="M391.484 414.289H301.161V349.773C301.161 342.929 303.88 336.365 308.72 331.525C313.559 326.685 320.123 323.966 326.968 323.966H365.677C372.522 323.966 379.086 326.685 383.925 331.525C388.765 336.365 391.484 342.929 391.484 349.773V414.289Z" fill="#C86C11"/>
<path d="M165.677 443H75.3549V378.484C75.3549 371.64 78.0738 365.076 82.9135 360.236C87.7531 355.396 94.3171 352.677 101.161 352.677H139.871C146.715 352.677 153.279 355.396 158.119 360.236C162.959 365.076 165.677 371.64 165.677 378.484V443Z" fill="#F1A55A"/>
<path d="M256 443H165.677V378.484C165.677 371.64 168.396 365.076 173.236 360.236C178.076 355.396 184.64 352.677 191.484 352.677H230.194C237.038 352.677 243.602 355.396 248.441 360.236C253.281 365.076 256 371.64 256 378.484V443Z" fill="#F1A55A"/>
<path d="M346.323 443H256V378.484C256 371.64 258.719 365.076 263.558 360.236C268.398 355.396 274.962 352.677 281.806 352.677H320.516C327.36 352.677 333.924 355.396 338.764 360.236C343.604 365.076 346.323 371.64 346.323 378.484V443Z" fill="#F1A55A"/>
<path d="M436.645 443H346.323V378.484C346.323 371.64 349.041 365.076 353.881 360.236C358.721 355.396 365.285 352.677 372.129 352.677H410.839C417.683 352.677 424.247 355.396 429.087 360.236C433.926 365.076 436.645 371.64 436.645 378.484V443Z" fill="#F1A55A"/>
<path d="M65.6774 391.387C68.244 391.387 70.7055 392.406 72.5204 394.221C74.3353 396.036 75.3548 398.498 75.3548 401.064V443H56V401.064C56 398.498 57.0196 396.036 58.8345 394.221C60.6493 392.406 63.1108 391.387 65.6774 391.387Z" fill="#F1A55A"/>
<path d="M456 443H436.645V401.065C436.645 398.498 437.665 396.036 439.48 394.222C441.294 392.407 443.756 391.387 446.323 391.387C448.889 391.387 451.351 392.407 453.166 394.222C454.98 396.036 456 398.498 456 401.065V443Z" fill="#F1A55A"/>
</svg>
