<svg width="512" height="512" viewBox="0 0 512 512" fill="none" xmlns="http://www.w3.org/2000/svg">
<path d="M438.78 216.272V474.231H73.2092V216.272L255.994 61.4043L438.78 216.272Z" fill="#E5EDFF"/>
<path fill-rule="evenodd" clip-rule="evenodd" d="M256.45 38L486 233.282L462.89 260.447L256.43 84.8088L49.0874 260.903L26 233.718L256.45 38Z" fill="#F80338"/>
<path d="M202.734 474.647V292.04C202.734 288.005 204.337 284.134 207.191 281.28C210.045 278.426 213.916 276.823 217.951 276.823H294.038C298.073 276.823 301.944 278.426 304.798 281.28C307.652 284.134 309.255 288.005 309.255 292.04V474.647H202.734Z" fill="#B0BED9"/>
<path d="M240.777 398.561H233.169C231.151 398.561 229.215 397.759 227.789 396.332C226.362 394.906 225.56 392.97 225.56 390.952C225.56 388.934 226.362 386.999 227.789 385.572C229.215 384.145 231.151 383.344 233.169 383.344H240.777C242.795 383.344 244.731 384.145 246.157 385.572C247.584 386.999 248.386 388.934 248.386 390.952C248.386 392.97 247.584 394.906 246.157 396.332C244.731 397.759 242.795 398.561 240.777 398.561Z" fill="#137FEB"/>
<path d="M400.558 276.823H347.298C343.096 276.823 339.689 280.23 339.689 284.432V368.127C339.689 372.329 343.096 375.735 347.298 375.735H400.558C404.761 375.735 408.167 372.329 408.167 368.127V284.432C408.167 280.23 404.761 276.823 400.558 276.823Z" fill="#CFDFFF"/>
<path d="M164.691 276.823H111.43C107.228 276.823 103.822 280.23 103.822 284.432V368.127C103.822 372.329 107.228 375.735 111.43 375.735H164.691C168.893 375.735 172.299 372.329 172.299 368.127V284.432C172.299 280.23 168.893 276.823 164.691 276.823Z" fill="#CFDFFF"/>
<path d="M413.113 398.562C417.683 398.612 422.142 399.981 425.953 402.506C429.763 405.03 432.763 408.601 434.592 412.791C436.9 411.867 439.364 411.394 441.85 411.398C447.309 411.516 452.502 413.783 456.299 417.706C460.097 421.629 462.194 426.892 462.135 432.352C466.411 433.842 470.112 436.636 472.715 440.341C475.318 444.046 476.693 448.474 476.645 453.002C476.751 458.626 474.623 464.062 470.728 468.119C466.833 472.177 461.488 474.525 455.865 474.649H375.686C370.334 474.417 365.258 472.216 361.43 468.468C357.603 464.721 355.295 459.692 354.95 454.347C354.604 449.002 356.246 443.718 359.559 439.509C362.873 435.301 367.624 432.465 372.901 431.546C374.105 428.028 376.363 424.966 379.366 422.774C382.37 420.583 385.976 419.369 389.693 419.296C390.489 413.618 393.285 408.41 397.578 404.609C401.871 400.809 407.38 398.665 413.113 398.562Z" fill="#59C939"/>
</svg>
