<svg width="512" height="512" viewBox="0 0 512 512" fill="none" xmlns="http://www.w3.org/2000/svg">
<path d="M56 214.539H456V242.111H56V214.539Z" fill="#BFD5D5"/>
<path d="M97.3793 242.111V448.901C97.3793 452.708 94.2916 455.794 90.4828 455.794H76.6897C72.8808 455.794 69.7931 452.708 69.7931 448.901V242.111H97.3793Z" fill="#A8C5C5"/>
<path d="M442.207 242.111V448.901C442.207 452.708 439.119 455.794 435.311 455.794H421.517C417.709 455.794 414.621 452.708 414.621 448.901V242.111H442.207Z" fill="#A8C5C5"/>
<path d="M152.552 193.86C156.361 193.86 159.448 190.774 159.448 186.967C159.448 183.16 156.361 180.074 152.552 180.074C148.743 180.074 145.655 183.16 145.655 186.967C145.655 190.774 148.743 193.86 152.552 193.86Z" fill="black"/>
<path d="M345.655 193.86C349.464 193.86 352.552 190.774 352.552 186.967C352.552 183.16 349.464 180.074 345.655 180.074C341.847 180.074 338.759 183.16 338.759 186.967C338.759 190.774 341.847 193.86 345.655 193.86Z" fill="black"/>
<path d="M180.138 186.966C180.175 196.817 174.951 205.939 166.435 210.896C157.918 215.853 147.402 215.893 138.848 211C130.295 206.106 125.003 197.024 124.966 187.173V186.966C124.966 171.739 137.316 159.395 152.552 159.395C167.787 159.395 180.138 171.739 180.138 186.966Z" fill="#3E6162"/>
<path d="M373.242 186.967V187.173C373.185 202.438 360.773 214.774 345.5 214.745C330.228 214.717 317.862 202.334 317.862 187.07C317.862 171.805 330.228 159.423 345.5 159.395C360.773 159.366 373.185 171.702 373.242 186.967Z" fill="#3E6162"/>
<path d="M359.448 186.967V187.071C359.42 194.705 353.212 200.874 345.574 200.86C337.936 200.846 331.752 194.653 331.752 187.019C331.752 179.385 337.936 173.192 345.574 173.178C353.212 173.164 359.42 179.333 359.448 186.967Z" fill="#A8C5C5"/>
<path d="M166.345 186.967V187.071C166.316 194.705 160.109 200.874 152.471 200.86C144.833 200.846 138.648 194.653 138.648 187.019C138.648 179.385 144.833 173.192 152.471 173.178C160.109 173.164 166.316 179.333 166.345 186.967Z" fill="#A8C5C5"/>
<path d="M414.621 145.609V166.288C414.579 177.805 405.248 187.132 393.724 187.174H373.242V186.967C373.242 171.739 360.891 159.395 345.655 159.395C330.42 159.395 318.069 171.739 318.069 186.967H180.138C180.138 171.739 167.787 159.395 152.552 159.395C137.316 159.395 124.966 171.739 124.966 186.967V187.174H118.276C106.741 187.158 97.3945 177.816 97.3794 166.288V126.653C97.3358 109.497 106.46 93.6233 121.31 85.0195C150.345 68.3385 174.207 56 207.379 56H260.828C275.702 56.0164 290.09 61.2903 301.448 70.8889L350.483 112.385C351.384 113.151 352.411 113.757 353.517 114.177C379.104 124.241 403.517 131.065 403.517 131.065C409.977 133.001 414.458 138.87 414.621 145.609Z" fill="#609596"/>
<path d="M414.621 145.609V159.395H393.931C390.122 159.395 387.035 156.309 387.035 152.502C387.035 148.695 390.122 145.609 393.931 145.609H414.621Z" fill="#D7E4E5"/>
<path d="M117.719 117.688H323.969L290.011 86.3179C283.023 79.8484 274.158 76.2991 264.997 76.3027H206.252C177.373 76.3027 155.997 88.3871 126.739 106.762C122.767 109.294 119.615 113.112 117.719 117.688Z" fill="#D7E4E5"/>
<path d="M214.594 124.715C210.711 124.715 207.563 121.069 207.563 116.572V75.856C207.563 71.3587 210.711 67.7129 214.594 67.7129C218.477 67.7129 221.625 71.3587 221.625 75.856V116.572C221.625 121.069 218.477 124.715 214.594 124.715Z" fill="#609596"/>
<path d="M249.104 152.501H221.517C217.708 152.501 214.621 149.415 214.621 145.608C214.621 141.801 217.708 138.715 221.517 138.715H249.104C252.912 138.715 256 141.801 256 145.608C256 149.415 252.912 152.501 249.104 152.501Z" fill="#A8C5C5"/>
<path d="M152.552 435.114C156.361 435.114 159.448 432.028 159.448 428.221C159.448 424.414 156.361 421.328 152.552 421.328C148.743 421.328 145.655 424.414 145.655 428.221C145.655 432.028 148.743 435.114 152.552 435.114Z" fill="black"/>
<path d="M345.655 435.114C349.464 435.114 352.552 432.028 352.552 428.221C352.552 424.414 349.464 421.328 345.655 421.328C341.847 421.328 338.759 424.414 338.759 428.221C338.759 432.028 341.847 435.114 345.655 435.114Z" fill="black"/>
<path d="M180.138 428.22C180.195 443.448 167.891 455.839 152.655 455.896C137.42 455.953 125.023 443.655 124.966 428.427V428.22C124.966 412.993 137.316 400.648 152.552 400.648C167.787 400.648 180.138 412.993 180.138 428.22Z" fill="#3E6162"/>
<path d="M373.242 428.22V428.427C373.185 443.692 360.773 456.028 345.5 455.999C330.228 455.971 317.862 443.588 317.862 428.324C317.862 413.059 330.228 400.677 345.5 400.648C360.773 400.62 373.185 412.956 373.242 428.22Z" fill="#3E6162"/>
<path d="M359.448 428.221V428.324C359.42 435.959 353.212 442.128 345.574 442.114C337.936 442.1 331.752 435.907 331.752 428.273C331.752 420.639 337.936 414.446 345.574 414.432C353.212 414.417 359.42 420.587 359.448 428.221Z" fill="#A8C5C5"/>
<path d="M166.345 428.221V428.324C166.316 435.959 160.109 442.128 152.471 442.114C144.833 442.1 138.648 435.907 138.648 428.273C138.648 420.639 144.833 414.446 152.471 414.432C160.109 414.417 166.316 420.587 166.345 428.221Z" fill="#A8C5C5"/>
<path d="M414.621 386.863V407.542C414.579 419.059 405.248 428.386 393.724 428.428H373.242V428.221C373.242 412.993 360.891 400.649 345.655 400.649C330.42 400.649 318.069 412.993 318.069 428.221H180.138C180.138 412.993 167.787 400.649 152.552 400.649C137.316 400.649 124.966 412.993 124.966 428.221V428.428H118.276C106.741 428.412 97.3945 419.07 97.3794 407.542V367.907C97.3358 350.751 106.46 334.877 121.31 326.273C150.345 309.592 174.207 297.254 207.379 297.254H260.828C275.702 297.27 290.09 302.544 301.448 312.143L350.483 353.639C351.384 354.405 352.411 355.011 353.517 355.431C379.104 365.495 403.517 372.319 403.517 372.319C409.977 374.255 414.458 380.124 414.621 386.863Z" fill="#609596"/>
<path d="M414.621 386.863V400.649H393.931C390.122 400.649 387.035 397.563 387.035 393.756C387.035 389.949 390.122 386.863 393.931 386.863H414.621Z" fill="#D7E4E5"/>
<path d="M117.719 358.969H323.969L290.011 327.599C283.023 321.13 274.158 317.58 264.997 317.584H206.252C177.373 317.584 155.997 329.668 126.739 348.043C122.767 350.575 119.615 354.394 117.719 358.969Z" fill="#D7E4E5"/>
<path d="M214.594 365.997C210.711 365.997 207.563 362.501 207.563 358.189V319.146C207.563 314.834 210.711 311.338 214.594 311.338C218.477 311.338 221.625 314.834 221.625 319.146V358.189C221.625 362.501 218.477 365.997 214.594 365.997Z" fill="#609596"/>
<path d="M249.104 393.757H221.517C217.708 393.757 214.621 390.671 214.621 386.864C214.621 383.057 217.708 379.971 221.517 379.971H249.104C252.912 379.971 256 383.057 256 386.864C256 390.671 252.912 393.757 249.104 393.757Z" fill="#A8C5C5"/>
</svg>
