<svg width="512" height="512" viewBox="0 0 512 512" fill="none" xmlns="http://www.w3.org/2000/svg">
<path d="M56 214.539H456V242.111H56V214.539Z" fill="#B0BED9"/>
<path d="M97.3793 242.11V448.9C97.3793 452.707 94.2916 455.793 90.4828 455.793H76.6896C72.8808 455.793 69.7931 452.707 69.7931 448.9V242.11H97.3793Z" fill="#919CB3"/>
<path d="M442.207 242.11V448.9C442.207 452.707 439.119 455.793 435.311 455.793H421.517C417.709 455.793 414.621 452.707 414.621 448.9V242.11H442.207Z" fill="#919CB3"/>
<path d="M152.552 193.86C156.361 193.86 159.448 190.774 159.448 186.967C159.448 183.16 156.361 180.074 152.552 180.074C148.743 180.074 145.655 183.16 145.655 186.967C145.655 190.774 148.743 193.86 152.552 193.86Z" fill="black"/>
<path d="M345.655 193.86C349.464 193.86 352.552 190.774 352.552 186.967C352.552 183.16 349.464 180.074 345.655 180.074C341.846 180.074 338.759 183.16 338.759 186.967C338.759 190.774 341.846 193.86 345.655 193.86Z" fill="black"/>
<path d="M180.138 186.967C180.175 196.818 174.951 205.94 166.435 210.897C157.918 215.854 147.402 215.894 138.848 211.001C130.295 206.107 125.003 197.025 124.966 187.174V186.967C124.966 171.74 137.316 159.396 152.552 159.396C167.787 159.396 180.138 171.74 180.138 186.967Z" fill="#475167"/>
<path d="M373.242 186.967V187.174C373.185 202.439 360.773 214.775 345.5 214.746C330.228 214.718 317.862 202.335 317.862 187.071C317.862 171.806 330.228 159.424 345.5 159.396C360.773 159.367 373.185 171.703 373.242 186.967Z" fill="#475167"/>
<path d="M359.448 186.967V187.071C359.42 194.705 353.212 200.874 345.574 200.86C337.936 200.846 331.752 194.653 331.752 187.019C331.752 179.385 337.936 173.192 345.574 173.178C353.212 173.164 359.42 179.333 359.448 186.967Z" fill="#ECF0F1"/>
<path d="M166.345 186.967V187.071C166.316 194.705 160.109 200.874 152.471 200.86C144.833 200.846 138.648 194.653 138.648 187.019C138.648 179.385 144.833 173.192 152.471 173.178C160.109 173.164 166.316 179.333 166.345 186.967Z" fill="#ECF0F1"/>
<path d="M414.621 145.609V166.288C414.579 177.805 405.248 187.132 393.724 187.174H373.242V186.967C373.242 171.739 360.891 159.395 345.655 159.395C330.42 159.395 318.069 171.739 318.069 186.967H180.138C180.138 171.739 167.787 159.395 152.552 159.395C137.316 159.395 124.966 171.739 124.966 186.967V187.174H118.276C106.741 187.158 97.3945 177.816 97.3793 166.288V126.653C97.3358 109.497 106.46 93.6233 121.31 85.0195C150.345 68.3385 174.207 56 207.379 56H260.828C275.702 56.0164 290.09 61.2903 301.448 70.8889L350.483 112.385C351.384 113.151 352.411 113.757 353.517 114.177C379.104 124.241 403.517 131.065 403.517 131.065C409.977 133.001 414.458 138.87 414.621 145.609Z" fill="#59C939"/>
<path d="M414.621 145.608V159.394H393.931C390.122 159.394 387.035 156.308 387.035 152.501C387.035 148.694 390.122 145.608 393.931 145.608H414.621Z" fill="#FDCA05"/>
<path d="M117.719 117.687H323.969L290.011 86.3169C283.023 79.8475 274.158 76.2982 264.997 76.3018H206.252C177.373 76.3018 155.997 88.3861 126.739 106.761C122.767 109.293 119.615 113.111 117.719 117.687Z" fill="#CFDFFF"/>
<path d="M214.594 124.715C210.711 124.715 207.563 121.069 207.563 116.572V75.856C207.563 71.3587 210.711 67.7129 214.594 67.7129C218.477 67.7129 221.625 71.3587 221.625 75.856V116.572C221.625 121.069 218.477 124.715 214.594 124.715Z" fill="#59C939"/>
<path d="M249.104 152.502H221.517C217.708 152.502 214.621 149.416 214.621 145.609C214.621 141.802 217.708 138.716 221.517 138.716H249.104C252.912 138.716 256 141.802 256 145.609C256 149.416 252.912 152.502 249.104 152.502Z" fill="#B0BED9"/>
<path d="M152.552 435.114C156.361 435.114 159.448 432.028 159.448 428.221C159.448 424.414 156.361 421.328 152.552 421.328C148.743 421.328 145.655 424.414 145.655 428.221C145.655 432.028 148.743 435.114 152.552 435.114Z" fill="black"/>
<path d="M345.655 435.114C349.464 435.114 352.552 432.028 352.552 428.221C352.552 424.414 349.464 421.328 345.655 421.328C341.846 421.328 338.759 424.414 338.759 428.221C338.759 432.028 341.846 435.114 345.655 435.114Z" fill="black"/>
<path d="M180.138 428.221C180.195 443.449 167.891 455.84 152.655 455.897C137.42 455.954 125.023 443.656 124.966 428.428V428.221C124.966 412.994 137.316 400.649 152.552 400.649C167.787 400.649 180.138 412.994 180.138 428.221Z" fill="#475167"/>
<path d="M373.242 428.221V428.428C373.185 443.693 360.773 456.029 345.5 456C330.228 455.972 317.862 443.589 317.862 428.325C317.862 413.06 330.228 400.678 345.5 400.649C360.773 400.621 373.185 412.957 373.242 428.221Z" fill="#475167"/>
<path d="M359.448 428.222V428.325C359.42 435.96 353.212 442.129 345.574 442.115C337.936 442.101 331.752 435.908 331.752 428.274C331.752 420.64 337.936 414.447 345.574 414.433C353.212 414.418 359.42 420.588 359.448 428.222Z" fill="#ECF0F1"/>
<path d="M166.345 428.222V428.325C166.316 435.96 160.109 442.129 152.471 442.115C144.833 442.101 138.648 435.908 138.648 428.274C138.648 420.64 144.833 414.447 152.471 414.433C160.109 414.418 166.316 420.588 166.345 428.222Z" fill="#ECF0F1"/>
<path d="M414.621 386.864V407.543C414.579 419.06 405.248 428.387 393.724 428.429H373.242V428.222C373.242 412.994 360.891 400.65 345.655 400.65C330.42 400.65 318.069 412.994 318.069 428.222H180.138C180.138 412.994 167.787 400.65 152.552 400.65C137.316 400.65 124.966 412.994 124.966 428.222V428.429H118.276C106.741 428.413 97.3945 419.071 97.3793 407.543V367.908C97.3358 350.752 106.46 334.878 121.31 326.274C150.345 309.593 174.207 297.255 207.379 297.255H260.828C275.702 297.271 290.09 302.545 301.448 312.144L350.483 353.64C351.384 354.406 352.411 355.012 353.517 355.432C379.104 365.495 403.517 372.32 403.517 372.32C409.977 374.256 414.458 380.125 414.621 386.864Z" fill="#137FEB"/>
<path d="M414.621 386.864V400.65H393.931C390.122 400.65 387.035 397.564 387.035 393.757C387.035 389.95 390.122 386.864 393.931 386.864H414.621Z" fill="#FDCA05"/>
<path d="M117.719 358.969H323.969L290.011 327.599C283.023 321.13 274.158 317.58 264.997 317.584H206.252C177.373 317.584 155.997 329.668 126.739 348.043C122.767 350.575 119.615 354.394 117.719 358.969Z" fill="#CFDFFF"/>
<path d="M214.594 365.996C210.711 365.996 207.563 362.5 207.563 358.188V319.145C207.563 314.833 210.711 311.337 214.594 311.337C218.477 311.337 221.625 314.833 221.625 319.145V358.188C221.625 362.5 218.477 365.996 214.594 365.996Z" fill="#137FEB"/>
<path d="M249.104 393.757H221.517C217.708 393.757 214.621 390.671 214.621 386.864C214.621 383.057 217.708 379.971 221.517 379.971H249.104C252.912 379.971 256 383.057 256 386.864C256 390.671 252.912 393.757 249.104 393.757Z" fill="#B0BED9"/>
</svg>
