<svg width="512" height="512" viewBox="0 0 512 512" fill="none" xmlns="http://www.w3.org/2000/svg">
<path fill-rule="evenodd" clip-rule="evenodd" d="M264 30H324.375C329.138 30 333 33.8802 333 38.6667V73.3333C333 78.1198 329.138 82 324.375 82H264V30Z" fill="#F80338"/>
<rect x="264" y="30" width="23" height="52" fill="#137FEB"/>
<rect x="287" y="30" width="23" height="52" fill="white"/>
<path fill-rule="evenodd" clip-rule="evenodd" d="M255.678 152.018C250.885 152.018 247 148.133 247 143.34V28.678C247 23.8853 250.885 20 255.678 20C260.471 20 264.356 23.8853 264.356 28.678V143.34C264.356 148.133 260.471 152.018 255.678 152.018Z" fill="#C3C3D8"/>
<path d="M83.5893 436.83H428.41C432.218 436.83 435.307 439.918 435.307 443.727V464.417H76.6925V443.727C76.6925 439.918 79.7808 436.83 83.5893 436.83Z" fill="#68699E"/>
<path d="M76.6925 181.658H435.307V216.142C435.307 219.951 432.218 223.036 428.41 223.036H83.5893C79.7808 223.036 76.6925 219.951 76.6925 216.142V181.658Z" fill="#9596BB"/>
<path d="M83.5893 223.037H124.967C128.776 223.037 131.864 226.125 131.864 229.934V243.728C131.864 247.536 128.776 250.624 124.967 250.624H83.5893C79.7808 250.624 76.6925 247.536 76.6925 243.728V229.934C76.6925 226.125 79.7808 223.037 83.5893 223.037Z" fill="#68699E"/>
<path d="M387.032 223.037H428.41C432.218 223.037 435.307 226.125 435.307 229.934V243.728C435.307 247.536 432.218 250.624 428.41 250.624H387.032C383.223 250.624 380.135 247.536 380.135 243.728V229.934C380.135 226.125 383.223 223.037 387.032 223.037Z" fill="#68699E"/>
<path d="M283.585 223.037H324.963C328.772 223.037 331.86 226.125 331.86 229.934V243.728C331.86 247.536 328.772 250.624 324.963 250.624H283.585C279.777 250.624 276.688 247.536 276.688 243.728V229.934C276.688 226.125 279.777 223.037 283.585 223.037Z" fill="#68699E"/>
<path d="M187.036 223.037H228.414C232.222 223.037 235.311 226.125 235.311 229.934V243.728C235.311 247.536 232.222 250.624 228.414 250.624H187.036C183.227 250.624 180.139 247.536 180.139 243.728V229.934C180.139 226.125 183.227 223.037 187.036 223.037Z" fill="#68699E"/>
<path d="M62.8988 464.416H449.1C452.909 464.416 455.997 467.501 455.997 471.31V485.103C455.997 488.912 452.909 492 449.1 492H62.8988C59.0903 492 56.005 488.912 56.005 485.103V471.31C56.005 467.501 59.0903 464.416 62.8988 464.416Z" fill="#C3C3D8"/>
<path d="M452.948 171.557L267.033 94.211C259.974 91.263 252.025 91.263 244.966 94.211L59.0506 171.557C56.8259 172.598 55.6114 175.033 56.1118 177.438C56.6123 179.846 58.6997 181.591 61.1563 181.658H450.843C453.299 181.591 455.387 179.846 455.887 177.438C456.391 175.033 455.173 172.598 452.948 171.557Z" fill="#C3C3D8"/>
<path d="M172.897 154.074L255.565 119.688H256.428L339.102 154.074H172.897Z" fill="#9596BB"/>
<path d="M124.967 436.829C124.967 278.21 118.07 250.625 118.07 250.625H90.4861C90.4861 250.625 83.5892 278.21 83.5892 436.829H124.967Z" fill="#9596BB"/>
<path d="M228.414 436.829C228.414 278.21 221.517 250.625 221.517 250.625H193.932C193.932 250.625 187.036 278.21 187.036 436.829H228.414Z" fill="#9596BB"/>
<path d="M324.963 436.829C324.963 278.21 318.066 250.625 318.066 250.625H290.482C290.482 250.625 283.585 278.21 283.585 436.829H324.963Z" fill="#9596BB"/>
<path d="M428.41 436.829C428.41 278.21 421.513 250.625 421.513 250.625H393.928C393.928 250.625 387.032 278.21 387.032 436.829H428.41Z" fill="#9596BB"/>
</svg>
