<svg width="512" height="512" viewBox="0 0 512 512" fill="none" xmlns="http://www.w3.org/2000/svg">
<path d="M438.78 216.273V474.232H73.2094V216.273L255.995 61.4053L438.78 216.273Z" fill="#FAC4D1"/>
<path fill-rule="evenodd" clip-rule="evenodd" d="M251.267 42.4023C254.255 39.8643 258.643 39.8661 261.629 42.4066L479.907 228.099C483.272 230.962 483.679 236.01 480.816 239.376L468.074 254.354C465.211 257.72 460.162 258.127 456.797 255.264L261.61 89.2154C258.624 86.6748 254.236 86.673 251.248 89.2111L55.1851 255.724C51.8175 258.584 46.7689 258.173 43.9088 254.805L31.1788 239.816C28.3187 236.449 28.7301 231.4 32.0977 228.54L251.267 42.4023Z" fill="#EA1447"/>
<path d="M202.734 474.648V292.041C202.734 288.006 204.337 284.135 207.191 281.281C210.045 278.427 213.916 276.824 217.951 276.824H294.038C298.073 276.824 301.944 278.427 304.798 281.281C307.652 284.135 309.255 288.006 309.255 292.041V474.648H202.734Z" fill="#F37E9A"/>
<path d="M240.777 398.562H233.169C231.151 398.562 229.215 397.76 227.789 396.333C226.362 394.907 225.56 392.971 225.56 390.953C225.56 388.935 226.362 387 227.789 385.573C229.215 384.146 231.151 383.345 233.169 383.345H240.777C242.795 383.345 244.731 384.146 246.157 385.573C247.584 387 248.386 388.935 248.386 390.953C248.386 392.971 247.584 394.907 246.157 396.333C244.731 397.76 242.795 398.562 240.777 398.562Z" fill="#C7113C"/>
<path d="M400.558 276.824H347.298C343.096 276.824 339.689 280.231 339.689 284.433V368.128C339.689 372.33 343.096 375.736 347.298 375.736H400.558C404.761 375.736 408.167 372.33 408.167 368.128V284.433C408.167 280.231 404.761 276.824 400.558 276.824Z" fill="#F7A1B5"/>
<path d="M164.691 276.824H111.43C107.228 276.824 103.822 280.231 103.822 284.433V368.128C103.822 372.33 107.228 375.736 111.43 375.736H164.691C168.893 375.736 172.299 372.33 172.299 368.128V284.433C172.299 280.231 168.893 276.824 164.691 276.824Z" fill="#F7A1B5"/>
</svg>
