<svg width="512" height="512" viewBox="0 0 512 512" fill="none" xmlns="http://www.w3.org/2000/svg">
<g clip-path="url(#clip0_3948_1364)">
<path d="M109.333 43.334H402.667C406.717 43.334 410 46.6172 410 50.6673V241.334H102V50.6673C102 46.6172 105.283 43.334 109.333 43.334Z" fill="#689E6A"/>
<path d="M102 270.666H410V461.333C410 465.383 406.717 468.666 402.667 468.666H109.333C105.283 468.666 102 465.383 102 461.333V270.666Z" fill="#689E6A"/>
<path d="M402.667 36H109.333C101.233 36 94.6667 42.5665 94.6667 50.6667V241.333C94.6667 245.383 97.95 248.667 102 248.667C106.05 248.667 109.333 245.383 109.333 241.333V50.6667H153.333V241.333C153.333 245.383 156.617 248.667 160.667 248.667C164.717 248.667 168 245.383 168 241.333V116.667H248.667V241.333C248.667 245.383 251.95 248.667 256 248.667C260.05 248.667 263.333 245.383 263.333 241.333V116.667H344V241.333C344 245.383 347.283 248.667 351.333 248.667C355.383 248.667 358.667 245.383 358.667 241.333V50.6667H402.667V241.333C402.667 245.383 405.95 248.667 410 248.667C414.05 248.667 417.333 245.383 417.333 241.333V50.6667C417.333 42.5665 410.767 36 402.667 36ZM344 102H168V50.6667H344V102Z" fill="#95BB97"/>
<path d="M410 263.334C405.95 263.334 402.667 266.617 402.667 270.667V461.334H358.667V270.667C358.667 266.617 355.383 263.334 351.333 263.334C347.283 263.334 344 266.617 344 270.667V395.334H263.333V270.667C263.333 266.617 260.05 263.334 256 263.334C251.95 263.334 248.667 266.617 248.667 270.667V395.334H168V270.667C168 266.617 164.717 263.334 160.667 263.334C156.617 263.334 153.333 266.617 153.333 270.667V461.334H109.333V270.667C109.333 266.617 106.05 263.334 102 263.334C97.95 263.334 94.6667 266.617 94.6667 270.667V461.334C94.6667 469.434 101.233 476.001 109.333 476.001H402.667C410.767 476.001 417.333 469.434 417.333 461.334V270.667C417.333 266.617 414.05 263.334 410 263.334ZM168 461.334V410.001H344V461.334H168Z" fill="#95BB97"/>
<path d="M433.393 256.001C433.402 261.474 435.531 266.731 439.333 270.667H72.6667C80.5873 262.494 80.5873 249.508 72.6667 241.334H439.333C435.531 245.27 433.402 250.527 433.393 256.001Z" fill="#C3D8C3"/>
<path d="M87.3334 256C87.2891 268.132 77.4653 277.956 65.3334 278C53.1831 278 43.3334 268.15 43.3334 256C43.3334 243.85 53.1831 234 65.3334 234C77.4653 234.044 87.2891 243.868 87.3334 256Z" fill="#ACCAAD"/>
<path d="M468.667 256C468.667 268.15 458.817 278 446.667 278C434.516 278 424.667 268.15 424.667 256C424.667 243.85 434.516 234 446.667 234C458.817 234 468.667 243.85 468.667 256Z" fill="#ACCAAD"/>
</g>
<defs>
<clipPath id="clip0_3948_1364">
<rect width="440" height="440" fill="white" transform="translate(36 36)"/>
</clipPath>
</defs>
</svg>
