<svg width="512" height="512" viewBox="0 0 512 512" fill="none" xmlns="http://www.w3.org/2000/svg">
<rect width="27.0173" height="160.415" rx="8" transform="matrix(-1 0 0 1 318.872 230.391)" fill="#59C939"/>
<rect width="20.263" height="160.415" rx="8" transform="matrix(-1 0 0 1 407.522 221.948)" fill="#4CAB30"/>
<path d="M339.218 210.254C341.479 207.108 342.021 203.073 340.788 199.397C338.759 193.351 337.657 186.877 337.657 180.145C337.657 164.289 343.756 149.862 353.728 139.093C356.375 136.235 357.375 132.24 356.583 128.421C355.875 125.004 355.579 121.436 355.752 117.77C356.792 95.7236 374.923 78.038 396.923 77.5834C420.586 77.0938 439.922 96.1866 439.922 119.81C439.922 122.836 439.603 125.787 438.998 128.632C438.203 132.374 439.304 136.294 441.9 139.097C451.871 149.865 457.969 164.291 457.969 180.146C457.969 186.878 456.868 193.352 454.839 199.398C453.601 203.083 454.159 207.124 456.425 210.279C464.963 222.167 469.995 236.757 470 252.526C470.012 291.925 438.16 324.374 398.882 324.944C358.525 325.529 325.626 292.892 325.626 252.548C325.626 236.76 330.665 222.152 339.218 210.254Z" fill="#59C939"/>
<path d="M240.863 203.001C243.336 199.587 243.928 195.208 242.579 191.219C240.36 184.657 239.156 177.63 239.156 170.323C239.156 153.114 245.825 137.456 256.731 125.769C259.626 122.667 260.719 118.331 259.853 114.185C259.079 110.477 258.755 106.605 258.944 102.626C260.082 78.698 279.909 59.5039 303.968 59.01C329.845 58.4791 350.99 79.2004 350.99 104.839C350.99 108.123 350.641 111.326 349.98 114.415C349.11 118.475 350.314 122.73 353.153 125.772C364.057 137.459 370.726 153.115 370.726 170.323C370.726 177.63 369.522 184.657 367.302 191.219C365.95 195.219 366.56 199.603 369.038 203.028C378.374 215.93 383.877 231.765 383.882 248.879C383.895 291.641 349.063 326.858 306.11 327.476C261.977 328.111 226 292.69 226 248.903C225.999 231.769 231.51 215.915 240.863 203.001Z" fill="#A4E192"/>
<rect x="40" y="378" width="430" height="94" fill="#A4E192"/>
<path d="M106.611 228H96.2994C94.414 228 92.8854 229.529 92.8854 231.414V319.59C92.8854 321.475 94.414 323.004 96.2994 323.004H106.611C108.496 323.004 110.025 321.475 110.025 319.59V231.414C110.025 229.529 108.497 228 106.611 228Z" fill="#9D7465"/>
<path d="M246.067 319.59V231.414C246.067 229.529 244.539 228 242.653 228H232.342C230.457 228 228.928 229.529 228.928 231.414V319.59C228.928 321.475 230.457 323.004 232.342 323.004H242.653C244.539 323.004 246.067 321.475 246.067 319.59Z" fill="#9D7465"/>
<path d="M92.3893 330.319H79.7452C77.8598 330.319 76.3312 331.848 76.3312 333.733V375.156C76.3312 377.041 77.8598 378.57 79.7452 378.57H92.3893C94.2747 378.57 95.8033 377.041 95.8033 375.156V333.733C95.8033 331.848 94.2751 330.319 92.3893 330.319Z" fill="#9D7465"/>
<path d="M259.208 330.319H246.564C244.679 330.319 243.15 331.848 243.15 333.733V375.156C243.15 377.041 244.679 378.57 246.564 378.57H259.208C261.093 378.57 262.622 377.041 262.622 375.156V333.733C262.622 331.848 261.093 330.319 259.208 330.319Z" fill="#9D7465"/>
<path d="M83.636 269.56H255.317C257.203 269.56 258.731 268.032 258.731 266.147V243.171C258.731 241.285 257.203 239.757 255.317 239.757H83.636C81.7507 239.757 80.222 241.285 80.222 243.171V266.147C80.222 268.032 81.7502 269.56 83.636 269.56Z" fill="#BA9E93"/>
<path d="M83.636 308.666H255.317C257.203 308.666 258.731 307.137 258.731 305.252V282.276C258.731 280.391 257.203 278.862 255.317 278.862H83.636C81.7507 278.862 80.222 280.391 80.222 282.276V305.252C80.222 307.137 81.7502 308.666 83.636 308.666Z" fill="#BA9E93"/>
<path d="M265.54 316.176H73.4141C71.5287 316.176 70.0001 317.704 70.0001 319.59V333.733C70.0001 335.619 71.5287 337.147 73.4141 337.147H265.54C267.425 337.147 268.954 335.619 268.954 333.733V319.59C268.954 317.704 267.425 316.176 265.54 316.176Z" fill="#BA9E93"/>
</svg>
