<svg width="512" height="512" viewBox="0 0 512 512" fill="none" xmlns="http://www.w3.org/2000/svg">
<path d="M267.789 144.687H351.759V414.576H267.789V144.687Z" fill="#CFDFFF"/>
<rect x="261" y="126" width="99" height="19" fill="#35C6A3"/>
<rect x="269" y="114" width="83" height="12" fill="#35C6A3"/>
<path d="M295.611 226.239C291.407 226.239 288 222.831 288 218.628V179.381C288 169.54 303.223 169.54 303.223 179.381V218.628C303.223 222.831 299.815 226.239 295.611 226.239Z" fill="#F3F7FF"/>
<path d="M295.611 308.239C291.407 308.239 288 304.831 288 300.628V261.381C288 251.54 303.223 251.54 303.223 261.381V300.628C303.223 304.831 299.815 308.239 295.611 308.239Z" fill="#F3F7FF"/>
<path d="M325.611 226.239C321.407 226.239 318 222.831 318 218.628V179.381C318 169.54 333.223 169.54 333.223 179.381V218.628C333.223 222.831 329.815 226.239 325.611 226.239Z" fill="#F3F7FF"/>
<path d="M325.611 308.239C321.407 308.239 318 304.831 318 300.628V261.381C318 251.54 333.223 251.54 333.223 261.381V300.628C333.223 304.831 329.815 308.239 325.611 308.239Z" fill="#F3F7FF"/>
<path d="M117.675 414.577H17.1929V311.332L67.4338 259.838L117.675 311.332V414.577Z" fill="#CFDFFF"/>
<path d="M351.768 414.576V207.712L422.809 146.447L493.85 207.712V414.576H351.768Z" fill="#ECF2FF"/>
<path d="M117.49 218.143L192.701 160.593L267.911 218.143V414.576H117.49V218.143Z" fill="#ECF2FF"/>
<path d="M267.911 218.143H117.49L192.701 160.593L267.911 218.143Z" fill="#B8EC13"/>
<path d="M192.701 300.997C188.496 300.997 185.089 297.589 185.089 293.386V254.139C185.089 244.298 200.312 244.298 200.312 254.139V293.386C200.312 297.589 196.905 300.997 192.701 300.997Z" fill="#CFDFFF"/>
<path d="M230.209 300.997C226.005 300.997 222.598 297.589 222.598 293.386V254.139C222.598 244.298 237.821 244.298 237.821 254.139V293.386C237.821 297.589 234.413 300.997 230.209 300.997Z" fill="#CFDFFF"/>
<path d="M192.701 376.057C188.496 376.057 185.089 372.649 185.089 368.445V329.198C185.089 319.357 200.312 319.357 200.312 329.198V368.445C200.312 372.649 196.905 376.057 192.701 376.057Z" fill="#CFDFFF"/>
<path d="M230.209 376.057C226.005 376.057 222.598 372.649 222.598 368.445V329.198C222.598 319.357 237.821 319.357 237.821 329.198V368.445C237.821 372.649 234.413 376.057 230.209 376.057Z" fill="#CFDFFF"/>
<path d="M155.191 300.997C150.987 300.997 147.58 297.589 147.58 293.386V254.139C147.58 244.298 162.803 244.298 162.803 254.139V293.386C162.803 297.589 159.396 300.997 155.191 300.997Z" fill="#CFDFFF"/>
<path d="M155.191 376.057C150.987 376.057 147.58 372.649 147.58 368.445V329.198C147.58 319.357 162.803 319.357 162.803 329.198V368.445C162.803 372.649 159.396 376.057 155.191 376.057Z" fill="#CFDFFF"/>
<path d="M440.563 414.576H267.912V311.227L311.074 278.456L354.237 311.227H440.563V414.576Z" fill="#ECF2FF"/>
<path d="M440.563 311.227L395.824 278.456H311.074L354.237 311.227H440.563Z" fill="#1243EB"/>
<path d="M354.237 311.227H440.563V414.574H354.237V311.227Z" fill="#CFDFFF"/>
<path d="M310.695 330.034C320.491 330.034 320.507 314.811 310.695 314.811C300.9 314.811 300.884 330.034 310.695 330.034Z" fill="#CFDFFF"/>
<path d="M326.309 414.576H295.082V373.53C295.082 364.906 302.072 357.916 310.695 357.916C319.319 357.916 326.309 364.906 326.309 373.53V414.576Z" fill="#CFDFFF"/>
<path d="M382.519 361.305C378.315 361.305 374.908 357.897 374.908 353.694V340.93C374.908 331.089 390.131 331.089 390.131 340.93V353.694C390.131 357.897 386.724 361.305 382.519 361.305Z" fill="#F3F7FF"/>
<path d="M412.194 361.305C407.989 361.305 404.583 357.897 404.583 353.694V340.93C404.583 331.089 419.806 331.089 419.806 340.93V353.694C419.806 357.897 416.399 361.305 412.194 361.305Z" fill="#F3F7FF"/>
<path d="M351.768 207.712H493.85L422.809 146.447L351.768 207.712Z" fill="#ECBB13"/>
<path d="M85.8556 376.873C81.651 376.873 78.2441 373.465 78.2441 369.262V347.916C78.2441 338.075 93.4671 338.075 93.4671 347.916V369.262C93.4671 373.465 90.0592 376.873 85.8556 376.873Z" fill="#F3F7FF"/>
<path d="M67.4338 311.332H17.1929L67.4338 259.838L117.675 311.332H67.4338Z" fill="#F80338"/>
<path d="M49.0119 376.873C44.8073 376.873 41.4004 373.465 41.4004 369.262V347.916C41.4004 338.075 56.6234 338.075 56.6234 347.916V369.262C56.6234 373.465 53.2165 376.873 49.0119 376.873Z" fill="#F3F7FF"/>
<path d="M384.014 260.99C379.81 260.99 376.403 257.582 376.403 253.379V236.385C376.403 226.544 391.626 226.544 391.626 236.385V253.379C391.626 257.582 388.218 260.99 384.014 260.99Z" fill="#CFDFFF"/>
<path d="M461.085 260.99C456.881 260.99 453.474 257.582 453.474 253.379V236.385C453.474 226.544 468.697 226.544 468.697 236.385V253.379C468.697 257.582 465.29 260.99 461.085 260.99Z" fill="#CFDFFF"/>
<path d="M422.175 260.99C417.971 260.99 414.564 257.582 414.564 253.379V236.385C414.564 226.544 429.787 226.544 429.787 236.385V253.379C429.787 257.582 426.38 260.99 422.175 260.99Z" fill="#CFDFFF"/>
</svg>
