<svg width="512" height="512" viewBox="0 0 512 512" fill="none" xmlns="http://www.w3.org/2000/svg">
<path d="M468.414 445.586V225.586C468.414 223.574 467.615 221.645 466.192 220.222C464.769 218.799 462.84 218 460.828 218H51.1725C49.1605 218 47.2309 218.799 45.8083 220.222C44.3856 221.645 43.5863 223.574 43.5863 225.586V445.586H468.414Z" fill="#A5EFEF"/>
<path d="M369.793 127.035C371.805 127.035 373.735 127.834 375.158 129.257C376.58 130.68 377.379 132.609 377.379 134.621V445.656H134.621V134.621C134.621 132.609 135.42 130.68 136.843 129.257C138.265 127.834 140.195 127.035 142.207 127.035H369.793Z" fill="#C7F5F5"/>
<path d="M173 332H339V446H173V332Z" fill="#1DD7D8"/>
<path d="M202.897 339.448H309.104V445.655H202.897V339.448Z" fill="#C7F5F5"/>
<path d="M96.6897 248.344H81.5172C77.3275 248.344 73.931 251.74 73.931 255.93V271.102C73.931 275.292 77.3275 278.689 81.5172 278.689H96.6897C100.879 278.689 104.276 275.292 104.276 271.102V255.93C104.276 251.74 100.879 248.344 96.6897 248.344Z" fill="#C7F5F5"/>
<path d="M195.311 210.482H172.552C168.362 210.482 164.966 213.879 164.966 218.069V233.241C164.966 237.431 168.362 240.827 172.552 240.827H195.311C199.5 240.827 202.897 237.431 202.897 233.241V218.069C202.897 213.879 199.5 210.482 195.311 210.482Z" fill="#EDFCFC"/>
<path d="M271.173 210.482H240.828C236.638 210.482 233.241 213.879 233.241 218.069V233.241C233.241 237.431 236.638 240.827 240.828 240.827H271.173C275.362 240.827 278.759 237.431 278.759 233.241V218.069C278.759 213.879 275.362 210.482 271.173 210.482Z" fill="#EDFCFC"/>
<path d="M339.449 210.482H316.69C312.5 210.482 309.104 213.879 309.104 218.069V233.241C309.104 237.431 312.5 240.827 316.69 240.827H339.449C343.638 240.827 347.035 237.431 347.035 233.241V218.069C347.035 213.879 343.638 210.482 339.449 210.482Z" fill="#EDFCFC"/>
<path d="M96.6897 369.724H81.5172C77.3275 369.724 73.931 373.12 73.931 377.31V392.482C73.931 396.672 77.3275 400.068 81.5172 400.068H96.6897C100.879 400.068 104.276 396.672 104.276 392.482V377.31C104.276 373.12 100.879 369.724 96.6897 369.724Z" fill="#C7F5F5"/>
<path d="M96.6897 309.034H81.5172C77.3275 309.034 73.931 312.431 73.931 316.62V331.793C73.931 335.983 77.3275 339.379 81.5172 339.379H96.6897C100.879 339.379 104.276 335.983 104.276 331.793V316.62C104.276 312.431 100.879 309.034 96.6897 309.034Z" fill="#C7F5F5"/>
<path d="M415.311 278.689H430.483C434.673 278.689 438.069 275.293 438.069 271.103V255.931C438.069 251.741 434.673 248.345 430.483 248.345H415.311C411.121 248.345 407.724 251.741 407.724 255.931V271.103C407.724 275.293 411.121 278.689 415.311 278.689Z" fill="#C7F5F5"/>
<path d="M415.311 400.068H430.483C434.673 400.068 438.069 396.672 438.069 392.482V377.31C438.069 373.12 434.673 369.724 430.483 369.724H415.311C411.121 369.724 407.724 373.12 407.724 377.31V392.482C407.724 396.672 411.121 400.068 415.311 400.068Z" fill="#C7F5F5"/>
<path d="M415.311 339.379H430.483C434.673 339.379 438.069 335.982 438.069 331.793V316.62C438.069 312.431 434.673 309.034 430.483 309.034H415.311C411.121 309.034 407.724 312.431 407.724 316.62V331.793C407.724 335.982 411.121 339.379 415.311 339.379Z" fill="#C7F5F5"/>
<path d="M331.862 36H180.138C171.759 36 164.966 42.7929 164.966 51.1724V157.379C164.966 165.759 171.759 172.552 180.138 172.552H331.862C340.242 172.552 347.035 165.759 347.035 157.379V51.1724C347.035 42.7929 340.242 36 331.862 36Z" fill="#1DD7D8"/>
<path d="M293.931 96.6905V111.863C293.931 113.875 293.132 115.805 291.709 117.227C290.287 118.65 288.357 119.449 286.345 119.449H271.173V134.622C271.173 136.634 270.373 138.563 268.951 139.986C267.528 141.409 265.598 142.208 263.586 142.208H248.414C246.402 142.208 244.472 141.409 243.05 139.986C241.627 138.563 240.828 136.634 240.828 134.622V119.449H225.655C223.643 119.449 221.714 118.65 220.291 117.227C218.868 115.805 218.069 113.875 218.069 111.863V96.6905C218.069 94.6786 218.868 92.749 220.291 91.3263C221.714 89.9036 223.643 89.1043 225.655 89.1043H240.828V73.9319C240.828 71.9199 241.627 69.9903 243.05 68.5677C244.472 67.145 246.402 66.3457 248.414 66.3457H263.586C265.598 66.3457 267.528 67.145 268.951 68.5677C270.373 69.9903 271.173 71.9199 271.173 73.9319V89.1043H286.345C288.357 89.1043 290.287 89.9036 291.709 91.3263C293.132 92.749 293.931 94.6786 293.931 96.6905Z" fill="white"/>
<path d="M339.449 278.759H172.552C168.362 278.759 164.966 282.155 164.966 286.345V331.862C164.966 336.052 168.362 339.448 172.552 339.448H339.449C343.638 339.448 347.035 336.052 347.035 331.862V286.345C347.035 282.155 343.638 278.759 339.449 278.759Z" fill="#19B7B8"/>
<path d="M248.414 339.448H263.586V445.655H248.414V339.448Z" fill="#EDFCFC"/>
</svg>
