<svg width="512" height="512" viewBox="0 0 512 512" fill="none" xmlns="http://www.w3.org/2000/svg">
<path d="M482.712 152.651V190.976C482.712 196.058 480.694 200.932 477.1 204.525C473.506 208.119 468.632 210.138 463.55 210.138H425.225V248.463C425.225 253.545 423.206 258.419 419.613 262.013C416.019 265.606 411.145 267.625 406.063 267.625H367.738C362.656 267.625 357.782 265.606 354.188 262.013C350.594 258.419 348.575 253.545 348.575 248.463V210.138H310.251C305.168 210.138 300.294 208.119 296.701 204.525C293.107 200.932 291.088 196.058 291.088 190.976V152.651C291.088 147.568 293.107 142.694 296.701 139.101C300.294 135.507 305.168 133.488 310.251 133.488H348.575V95.1634C348.575 90.0812 350.594 85.2072 354.188 81.6135C357.782 78.0199 362.656 76.001 367.738 76.001H406.063C411.145 76.001 416.019 78.0199 419.613 81.6135C423.206 85.2072 425.225 90.0812 425.225 95.1634V133.488H463.55C468.632 133.488 473.506 135.507 477.1 139.101C480.694 142.694 482.712 147.568 482.712 152.651Z" fill="#C4FAEF"/>
<path fill-rule="evenodd" clip-rule="evenodd" d="M319.598 170.199C262.193 170.199 204.761 170.199 147.358 170.199V141.019C147.358 53.1769 291.21 41.4014 291.21 80.5538V90.1435H298.751C310.227 90.1435 319.598 99.5425 319.598 110.99V170.199Z" fill="#0C997B"/>
<path fill-rule="evenodd" clip-rule="evenodd" d="M358.201 343.398V394.493H109.464V343.398C109.464 325.499 118.399 310.174 133.917 301.315C134.785 300.852 135.634 300.36 136.539 299.869C144.289 295.714 152.135 291.83 160.058 288.139C164.53 286.066 169.032 284.042 173.562 282.076C193.158 273.526 213.264 265.864 233.834 257.902C254.412 265.864 274.519 273.526 294.104 282.067C298.634 284.043 303.136 286.057 307.608 288.14C315.541 291.831 323.377 295.715 331.126 299.87C332.033 300.361 332.9 300.853 333.748 301.316C349.296 310.173 358.201 325.499 358.201 343.398Z" fill="#13ECBD"/>
<path fill-rule="evenodd" clip-rule="evenodd" d="M233.833 227.386H261.264L279.515 275.993L233.833 322.74L188.149 275.993L206.428 227.386H233.833Z" fill="#FADFC4"/>
<path fill-rule="evenodd" clip-rule="evenodd" d="M156.674 194.625C163.04 234.871 195.171 265.473 233.833 265.473C272.521 265.473 304.625 234.872 310.991 194.625C320.063 193.396 327.057 185.09 327.057 175.035C327.057 164.133 318.806 155.281 308.614 155.281C304.652 155.281 300.964 156.62 297.958 158.915L290.937 130.554C288.505 120.746 279.133 114.461 269.161 115.909L230.828 121.537L196.265 122.521C181.511 122.958 169.735 135.062 169.735 149.843V158.915C166.729 156.62 163.042 155.281 159.052 155.281C148.861 155.281 140.609 164.133 140.609 175.035C140.608 185.089 147.63 193.396 156.674 194.625Z" fill="#FADFC4"/>
<path d="M166.811 322.548C155.331 322.548 145.992 331.889 145.992 343.368C145.992 354.848 155.331 364.189 166.811 364.189C178.291 364.189 187.63 354.848 187.63 343.368C187.63 331.889 178.291 322.548 166.811 322.548Z" fill="#0C997B"/>
<path d="M166.811 331.624C160.335 331.624 155.068 336.893 155.068 343.369C155.068 349.844 160.336 355.113 166.811 355.113C173.287 355.113 178.555 349.844 178.555 343.369C178.555 336.893 173.286 331.624 166.811 331.624Z" fill="#ECFDFA"/>
<path d="M326.837 343.04V358.337C326.837 362.067 323.82 365.093 320.09 365.093C316.36 365.093 313.343 362.067 313.343 358.337V343.04C313.343 333.922 306.614 330.693 300.85 330.693C295.096 330.693 288.369 333.922 288.369 343.04V358.337C288.369 362.067 285.342 365.093 281.621 365.093C277.891 365.093 274.874 362.067 274.874 358.337V343.04C274.874 329.055 283.752 320.573 294.103 318.018V282.066C298.634 284.043 303.135 286.057 307.607 288.139V318.019C317.959 320.573 326.837 329.055 326.837 343.04Z" fill="#0C997B"/>
<path d="M173.562 282.076V323.513C173.562 327.243 170.536 330.26 166.815 330.26C163.085 330.26 160.058 327.243 160.058 323.513V288.139C164.53 286.066 169.032 284.042 173.562 282.076Z" fill="#0C997B"/>
<path fill-rule="evenodd" clip-rule="evenodd" d="M16 394.488H496V431.291H16V394.488Z" fill="#0DA584"/>
<path fill-rule="evenodd" clip-rule="evenodd" d="M42.9946 431.293H469.005V468.069H42.9946V431.293Z" fill="#0C997B"/>
</svg>
