<svg width="512" height="512" viewBox="0 0 512 512" fill="none" xmlns="http://www.w3.org/2000/svg">
<path d="M476 153.965V460.827C475.975 469.196 469.197 475.975 460.828 476H51.1724C42.8033 475.975 36.025 469.196 36 460.827V153.965C36.0036 145.207 41.013 137.222 48.8966 133.407L246.138 38.2756C252.363 35.2415 259.637 35.2415 265.862 38.2756L463.103 133.407C470.987 137.222 475.996 145.207 476 153.965Z" fill="#C4EEFA"/>
<path d="M142.207 240.827L81.5172 248.413L96.6896 210.482H127.034C135.414 210.482 142.207 217.275 142.207 225.655V240.827Z" fill="white"/>
<path d="M81.5172 240.827H225.655V278.758H81.5172V240.827Z" fill="#13BAEC"/>
<path d="M96.6897 309.103H66.3448V187.724C66.3448 179.345 73.1378 172.552 81.5173 172.552C89.8968 172.552 96.6897 179.345 96.6897 187.724V309.103Z" fill="#7DD9F5"/>
<path d="M240.828 309.104H210.483V202.897C210.483 194.518 217.276 187.725 225.655 187.725C234.035 187.725 240.828 194.518 240.828 202.897V309.104Z" fill="#7DD9F5"/>
<path d="M347.034 240.827L286.345 248.413L301.517 210.482H331.862C340.242 210.482 347.034 217.275 347.034 225.655V240.827Z" fill="white"/>
<path d="M286.345 240.827H430.483V278.758H286.345V240.827Z" fill="#13BAEC"/>
<path d="M301.517 309.103H271.172V187.724C271.172 179.345 277.965 172.552 286.345 172.552C294.724 172.552 301.517 179.345 301.517 187.724V309.103Z" fill="#7DD9F5"/>
<path d="M445.655 309.104H415.31V202.897C415.31 194.518 422.103 187.725 430.483 187.725C438.862 187.725 445.655 194.518 445.655 202.897V309.104Z" fill="#7DD9F5"/>
<path d="M142.207 407.724L81.5172 415.31L96.6896 377.379H127.034C135.414 377.379 142.207 384.172 142.207 392.551V407.724Z" fill="white"/>
<path d="M81.5172 407.725H225.655V445.656H81.5172V407.725Z" fill="#13BAEC"/>
<path d="M96.6897 476H66.3448V354.621C66.3448 346.241 73.1378 339.448 81.5173 339.448C89.8968 339.448 96.6897 346.241 96.6897 354.621V476Z" fill="#7DD9F5"/>
<path d="M240.828 476H210.483V369.794C210.483 361.414 217.276 354.621 225.655 354.621C234.035 354.621 240.828 361.414 240.828 369.794V476Z" fill="#7DD9F5"/>
<path d="M347.034 407.724L286.345 415.31L301.517 377.379H331.862C340.242 377.379 347.034 384.172 347.034 392.551V407.724Z" fill="white"/>
<path d="M286.345 407.725H430.483V445.656H286.345V407.725Z" fill="#13BAEC"/>
<path d="M301.517 476H271.172V354.621C271.172 346.241 277.965 339.448 286.345 339.448C294.724 339.448 301.517 346.241 301.517 354.621V476Z" fill="#7DD9F5"/>
<path d="M445.655 476H415.31V369.794C415.31 361.414 422.103 354.621 430.483 354.621C438.862 354.621 445.655 361.414 445.655 369.794V476Z" fill="#7DD9F5"/>
<path d="M36 301.518H476V316.69H36V301.518Z" fill="#A1E3F7"/>
</svg>
