<svg width="100" height="100" viewBox="0 0 100 100" fill="none" xmlns="http://www.w3.org/2000/svg">
<path d="M52.3027 28.2598H68.7031V80.9725H52.3027V28.2598Z" fill="#CFDFFF"/>
<rect x="50.9766" y="24.6094" width="19.3359" height="3.71094" fill="#35C6A3"/>
<rect x="52.5391" y="22.2656" width="16.2109" height="2.34375" fill="#35C6A3"/>
<path d="M57.7366 44.1874C56.9154 44.1874 56.25 43.5217 56.25 42.7007V35.0353C56.25 33.1132 59.2232 33.1132 59.2232 35.0353V42.7007C59.2232 43.5217 58.5576 44.1874 57.7366 44.1874Z" fill="#F3F7FF"/>
<path d="M57.7366 60.203C56.9154 60.203 56.25 59.5374 56.25 58.7164V51.051C56.25 49.1288 59.2232 49.1288 59.2232 51.051V58.7164C59.2232 59.5374 58.5576 60.203 57.7366 60.203Z" fill="#F3F7FF"/>
<path d="M63.596 44.1874C62.7748 44.1874 62.1094 43.5217 62.1094 42.7007V35.0353C62.1094 33.1132 65.0826 33.1132 65.0826 35.0353V42.7007C65.0826 43.5217 64.417 44.1874 63.596 44.1874Z" fill="#F3F7FF"/>
<path d="M63.596 60.203C62.7748 60.203 62.1094 59.5374 62.1094 58.7164V51.051C62.1094 49.1288 65.0826 49.1288 65.0826 51.051V58.7164C65.0826 59.5374 64.417 60.203 63.596 60.203Z" fill="#F3F7FF"/>
<path d="M22.9838 80.9724H3.3584V60.8075L13.1711 50.75L22.9838 60.8075V80.9724Z" fill="#CFDFFF"/>
<path d="M68.7051 80.9724V40.5692L82.5804 28.6035L96.4555 40.5692V80.9724H68.7051Z" fill="#ECF2FF"/>
<path d="M22.9473 42.6055L37.6369 31.3652L52.3265 42.6055V80.9714H22.9473V42.6055Z" fill="#ECF2FF"/>
<path d="M52.3265 42.6055H22.9473L37.6369 31.3652L52.3265 42.6055Z" fill="#B8EC13"/>
<path d="M37.637 58.7889C36.8158 58.7889 36.1504 58.1233 36.1504 57.3023V49.6369C36.1504 47.7148 39.1236 47.7148 39.1236 49.6369V57.3023C39.1236 58.1233 38.4582 58.7889 37.637 58.7889Z" fill="#CFDFFF"/>
<path d="M44.9632 58.7889C44.142 58.7889 43.4766 58.1233 43.4766 57.3023V49.6369C43.4766 47.7148 46.4498 47.7148 46.4498 49.6369V57.3023C46.4498 58.1233 45.7842 58.7889 44.9632 58.7889Z" fill="#CFDFFF"/>
<path d="M37.637 73.4491C36.8158 73.4491 36.1504 72.7835 36.1504 71.9625V64.297C36.1504 62.3749 39.1236 62.3749 39.1236 64.297V71.9625C39.1236 72.7835 38.4582 73.4491 37.637 73.4491Z" fill="#CFDFFF"/>
<path d="M44.9632 73.4491C44.142 73.4491 43.4766 72.7835 43.4766 71.9625V64.297C43.4766 62.3749 46.4498 62.3749 46.4498 64.297V71.9625C46.4498 72.7835 45.7842 73.4491 44.9632 73.4491Z" fill="#CFDFFF"/>
<path d="M30.3108 58.7889C29.4896 58.7889 28.8242 58.1233 28.8242 57.3023V49.6369C28.8242 47.7148 31.7975 47.7148 31.7975 49.6369V57.3023C31.7975 58.1233 31.132 58.7889 30.3108 58.7889Z" fill="#CFDFFF"/>
<path d="M30.3108 73.4491C29.4896 73.4491 28.8242 72.7835 28.8242 71.9625V64.297C28.8242 62.3749 31.7975 62.3749 31.7975 64.297V71.9625C31.7975 72.7835 31.132 73.4491 30.3108 73.4491Z" fill="#CFDFFF"/>
<path d="M86.0481 80.9726H52.3271V60.7873L60.7573 54.3867L69.1876 60.7873H86.0481V80.9726Z" fill="#ECF2FF"/>
<path d="M86.0476 60.7873L77.3097 54.3867H60.7568L69.1872 60.7873H86.0476Z" fill="#1243EB"/>
<path d="M69.1875 60.7871H86.048V80.9722H69.1875V60.7871Z" fill="#CFDFFF"/>
<path d="M60.6831 64.4596C62.5963 64.4596 62.5995 61.4863 60.6831 61.4863C58.77 61.4863 58.7668 64.4596 60.6831 64.4596Z" fill="#CFDFFF"/>
<path d="M63.7329 80.9726H57.6338V72.9558C57.6338 71.2716 58.9991 69.9062 60.6833 69.9062C62.3676 69.9062 63.7329 71.2716 63.7329 72.9558V80.9726Z" fill="#CFDFFF"/>
<path d="M74.7112 70.5676C73.89 70.5676 73.2246 69.902 73.2246 69.081V66.5881C73.2246 64.666 76.1978 64.666 76.1978 66.5881V69.081C76.1978 69.902 75.5324 70.5676 74.7112 70.5676Z" fill="#F3F7FF"/>
<path d="M80.5071 70.5676C79.6859 70.5676 79.0205 69.902 79.0205 69.081V66.5881C79.0205 64.666 81.9938 64.666 81.9938 66.5881V69.081C81.9938 69.902 81.3283 70.5676 80.5071 70.5676Z" fill="#F3F7FF"/>
<path d="M68.7051 40.5692H96.4555L82.5804 28.6035L68.7051 40.5692Z" fill="#ECBB13"/>
<path d="M16.7688 73.609C15.9476 73.609 15.2822 72.9434 15.2822 72.1224V67.9533C15.2822 66.0312 18.2555 66.0312 18.2555 67.9533V72.1224C18.2555 72.9434 17.5899 73.609 16.7688 73.609Z" fill="#F3F7FF"/>
<path d="M13.1711 60.8075H3.3584L13.1711 50.75L22.9838 60.8075H13.1711Z" fill="#F80338"/>
<path d="M9.57353 73.609C8.75233 73.609 8.08691 72.9434 8.08691 72.1224V67.9533C8.08691 66.0312 11.0602 66.0312 11.0602 67.9533V72.1224C11.0602 72.9434 10.3947 73.609 9.57353 73.609Z" fill="#F3F7FF"/>
<path d="M75.0032 50.9739C74.182 50.9739 73.5166 50.3083 73.5166 49.4873V46.1681C73.5166 44.246 76.4898 44.246 76.4898 46.1681V49.4873C76.4898 50.3083 75.8242 50.9739 75.0032 50.9739Z" fill="#CFDFFF"/>
<path d="M90.056 50.9739C89.2347 50.9739 88.5693 50.3083 88.5693 49.4873V46.1681C88.5693 44.246 91.5426 44.246 91.5426 46.1681V49.4873C91.5426 50.3083 90.8772 50.9739 90.056 50.9739Z" fill="#CFDFFF"/>
<path d="M82.4563 50.9739C81.6351 50.9739 80.9697 50.3083 80.9697 49.4873V46.1681C80.9697 44.246 83.943 44.246 83.943 46.1681V49.4873C83.943 50.3083 83.2776 50.9739 82.4563 50.9739Z" fill="#CFDFFF"/>
</svg>
