<svg width="100" height="100" viewBox="0 0 100 100" fill="none" xmlns="http://www.w3.org/2000/svg">
<path d="M35.0498 31.8454L54.7163 16.7969L74.3829 31.8454V83.2099H35.0498V31.8454Z" fill="#ECF2FF"/>
<path d="M74.3829 31.8454H35.0498L54.7163 16.7969L74.3829 31.8454Z" fill="#F80338"/>
<path d="M54.7169 53.5109C53.6174 53.5109 52.7266 52.6198 52.7266 51.5206V41.2581C52.7266 38.6848 56.7072 38.6848 56.7072 41.2581V51.5206C56.7072 52.6198 55.8163 53.5109 54.7169 53.5109Z" fill="#CFDFFF"/>
<path d="M64.5245 53.5109C63.425 53.5109 62.5342 52.6198 62.5342 51.5206V41.2581C62.5342 38.6848 66.5148 38.6848 66.5148 41.2581V51.5206C66.5148 52.6198 65.6237 53.5109 64.5245 53.5109Z" fill="#CFDFFF"/>
<path d="M54.7169 73.1379C53.6174 73.1379 52.7266 72.2468 52.7266 71.1476V60.8851C52.7266 58.3117 56.7072 58.3117 56.7072 60.8851V71.1476C56.7072 72.2468 55.8163 73.1379 54.7169 73.1379Z" fill="#CFDFFF"/>
<path d="M64.5245 73.1379C63.425 73.1379 62.5342 72.2468 62.5342 71.1476V60.8851C62.5342 58.3117 66.5148 58.3117 66.5148 60.8851V71.1476C66.5148 72.2468 65.6237 73.1379 64.5245 73.1379Z" fill="#CFDFFF"/>
<path d="M44.9083 53.5109C43.8088 53.5109 42.918 52.6198 42.918 51.5206V41.2581C42.918 38.6848 46.8986 38.6848 46.8986 41.2581V51.5206C46.8986 52.6198 46.0077 53.5109 44.9083 53.5109Z" fill="#CFDFFF"/>
<path d="M44.9083 73.1379C43.8088 73.1379 42.918 72.2468 42.918 71.1476V60.8851C42.918 58.3117 46.8986 58.3117 46.8986 60.8851V71.1476C46.8986 72.2468 46.0077 73.1379 44.9083 73.1379Z" fill="#CFDFFF"/>
<rect width="3.32524" height="19.7436" rx="1.66262" transform="matrix(-1 0 0 1 81.3994 63.3926)" fill="#59C939"/>
<rect width="2.49393" height="19.7436" rx="1.24696" transform="matrix(-1 0 0 1 92.3105 63.502)" fill="#4CAB30"/>
<path d="M83.9036 62.0624C84.1819 61.6752 84.2486 61.1786 84.0968 60.7262C83.8471 59.982 83.7115 59.1852 83.7115 58.3566C83.7115 56.4051 84.4622 54.6294 85.6895 53.3041C86.0153 52.9522 86.1383 52.4605 86.0409 51.9905C85.9538 51.5699 85.9173 51.1308 85.9385 50.6796C86.0666 47.9662 88.2981 45.7895 91.0059 45.7336C93.9183 45.6733 96.298 48.0232 96.298 50.9307C96.298 51.3031 96.2588 51.6664 96.1843 52.0166C96.0865 52.4771 96.222 52.9595 96.5415 53.3045C97.7687 54.6298 98.5193 56.4053 98.5193 58.3567C98.5193 59.1853 98.3838 59.9822 98.134 60.7263C97.9817 61.1798 98.0504 61.6771 98.3293 62.0654C99.3801 63.5286 99.9994 65.3243 100 67.2651C100.002 72.1143 96.0811 76.1081 91.2469 76.1782C86.2798 76.2502 82.2308 72.2333 82.2308 67.2678C82.2308 65.3247 82.851 63.5268 83.9036 62.0624Z" fill="#59C939"/>
<path d="M71.7978 60.0222C72.1022 59.602 72.1751 59.063 72.0091 58.5721C71.736 57.7644 71.5878 56.8996 71.5878 56.0002C71.5878 53.8822 72.4086 51.955 73.7509 50.5166C74.1072 50.1348 74.2417 49.6011 74.1351 49.0909C74.0398 48.6345 73.9999 48.1579 74.0233 47.6682C74.1633 44.7232 76.6036 42.3609 79.5647 42.3001C82.7496 42.2347 85.352 44.7851 85.352 47.9406C85.352 48.3448 85.3091 48.7391 85.2277 49.1192C85.1207 49.6189 85.2689 50.1426 85.6183 50.517C86.9603 51.9554 87.7811 53.8823 87.7811 56.0002C87.7811 56.8996 87.6329 57.7644 87.3597 58.5721C87.1933 59.0643 87.2684 59.604 87.5733 60.0255C88.7225 61.6135 89.3997 63.5624 89.4004 65.6688C89.402 70.9318 85.1149 75.2663 79.8283 75.3423C74.3965 75.4205 69.9686 71.0609 69.9686 65.6718C69.9684 63.5629 70.6467 61.6116 71.7978 60.0222Z" fill="#A4E192"/>
<path d="M30.1706 83.1949H9.83984L12.2795 79.7793H27.7309L30.1706 83.1949Z" fill="#919CB3"/>
<path d="M17.9727 76.5254H22.0388V81.4047H17.9727V76.5254Z" fill="#B0BED9"/>
<path d="M40.0109 76.5253H0L5.04202 50.502H34.9688L40.0109 76.5253Z" fill="#919CB3"/>
<path d="M1.99219 74.8993L6.39891 52.1289H33.6115L38.0182 74.8993H1.99219Z" fill="#B0BED9"/>
<path d="M36.6019 67.5803L36.2872 65.9538H29.4241L28.8142 59.448H35.0283L34.7136 57.8215H28.6618L28.1281 52.1289H26.5016L27.0353 57.8215H20.8188V52.1289H19.1923V57.8215H12.9766L13.5103 52.1289H11.8838L11.3501 57.8215H5.2975L4.98278 59.448H11.1976L10.5877 65.9538H3.7239L3.40918 67.5803H10.4352L9.74903 74.8993H11.3755L12.0617 67.5803H19.1923V74.8993H20.8188V67.5803H27.9501L28.6363 74.8993H30.2628L29.5766 67.5803H36.6019ZM12.2142 65.9538L12.8241 59.448H19.1923V65.9538H12.2142ZM20.8188 65.9538V59.448H27.1877L27.7977 65.9538H20.8188Z" fill="#919CB3"/>
</svg>
