<svg width="100" height="100" viewBox="0 0 100 100" fill="none" xmlns="http://www.w3.org/2000/svg">
<g clip-path="url(#clip0_720_11365)">
<path d="M43.6003 54.1823L33.2193 48.6172H16.0961L5.71506 54.1823C2.18338 56.0016 0.0429688 59.6403 0.0429688 63.6001V81.7936H49.2724V63.6001C49.2724 59.6403 47.025 56.0016 43.6003 54.1823Z" fill="#919CB3"/>
<path d="M16.0956 62.5299V48.6172L9.46033 59.9614C8.92523 60.8175 9.13927 61.9948 9.88841 62.6369L20.3764 72.1617H21.4466L16.0956 62.5299Z" fill="#677591"/>
<path d="M33.2192 62.5299V48.6172L39.8545 59.9614C40.3896 60.8175 40.1755 61.9948 39.4264 62.6369L28.9384 72.1617H27.8682L33.2192 62.5299Z" fill="#677591"/>
<path d="M27.868 74.3021L33.0049 62.9579C33.112 62.6369 33.219 62.4228 33.219 62.1018V48.6172H16.0957V62.1018C16.0957 62.4228 16.2027 62.7439 16.3097 62.9579L21.4467 74.3021H27.868Z" fill="#ECF2FF"/>
<path d="M10.7451 73.2324H12.8855V81.7941H10.7451V73.2324Z" fill="#677591"/>
<path d="M36.9647 35.8824L35.3594 36.2035V42.6247L38.784 40.0562C39.3191 39.6281 39.6402 38.986 39.6402 38.3439V37.9158C39.6402 36.7386 38.677 35.7754 37.4998 35.7754C37.2857 35.7754 37.1787 35.7754 36.9647 35.8824Z" fill="#D8B4AD"/>
<path d="M12.3503 35.348C11.1731 35.0269 9.99587 35.7761 9.78183 36.9533C9.78183 37.1674 9.6748 37.2744 9.6748 37.4884V37.9165C9.6748 38.5586 9.99587 39.2007 10.531 39.6288L13.9556 42.1973V35.7761L12.3503 35.348Z" fill="#D8B4AD"/>
<path d="M32.3626 19.7227H16.9516C13.955 19.7227 11.6006 22.0771 11.6006 25.0737C11.6006 25.3947 11.6006 25.6088 11.7076 25.9298L12.8848 34.7055H36.4294L37.6066 25.9298C38.0347 23.0403 36.0013 20.2578 33.1117 19.8297C32.8977 19.7227 32.5766 19.7227 32.3626 19.7227Z" fill="#856356"/>
<path d="M34.2899 31.4941H31.9354C31.4003 31.4941 30.8652 31.7082 30.4371 32.1363L28.6178 33.9556C28.1897 34.3837 27.5476 34.3837 27.1195 33.9556L25.3001 32.1363C24.872 31.7082 24.3369 31.4941 23.8018 31.4941H15.0262C13.8489 31.4941 12.8857 32.4573 12.8857 33.6346V41.8751C12.8857 45.4068 14.8121 48.6174 17.9157 50.3298L21.1263 52.0421C23.3738 53.2193 26.0493 53.2193 28.2967 52.0421L31.5073 50.3298C34.5039 48.6174 36.4303 45.4068 36.4303 41.8751V33.6346C36.4303 32.4573 35.4671 31.4941 34.2899 31.4941Z" fill="#E8C5BC"/>
<path d="M28.0824 73.875L28.9386 71.9486L26.7982 58.25H22.5174L20.377 72.0557L21.2331 73.982C21.3401 74.3031 21.4472 74.5171 21.4472 74.8382V81.7945H27.8684V74.7312C27.8684 74.4101 27.9754 74.1961 28.0824 73.875Z" fill="#F80338"/>
<path d="M21.8745 55.6803L23.1588 54.396C24.015 53.5399 25.2992 53.5399 26.1554 54.396L27.4396 55.6803C28.2958 56.5364 28.2958 57.8207 27.4396 58.6769L26.1554 59.9611C25.2992 60.8173 24.015 60.8173 23.1588 59.9611L21.8745 58.6769C21.0184 57.8207 21.0184 56.5364 21.8745 55.6803Z" fill="#102E42"/>
</g>
<g clip-path="url(#clip1_720_11365)">
<path d="M86.4382 46.5106C85.4793 45.2777 84.9313 43.7709 84.9313 42.127V32.264C84.9313 21.7161 76.3012 13.0859 65.7532 13.0859C55.2053 13.0859 46.5752 21.7161 46.5752 32.264V42.127C46.5752 43.7709 46.0272 45.2777 45.0683 46.5106C42.8765 49.2503 43.0135 53.3599 45.6163 55.8257L65.7532 76.0996L85.8902 55.9627C88.493 53.3599 88.7669 49.3873 86.4382 46.5106Z" fill="#6E5147"/>
<path d="M88.7666 58.8045L65.7529 49.9004L42.7392 58.8045C37.5338 60.8593 34.2461 65.7908 34.2461 71.4072V86.8867H97.2598V71.4072C97.2598 65.7908 93.9721 60.8593 88.7666 58.8045Z" fill="#137FEB"/>
<path d="M64.3828 70.4492H67.1225V86.8876H64.3828V70.4492Z" fill="#ECF2FF"/>
<path d="M41.0957 59.4891L54.6573 69.3521C55.6162 70.0371 56.7121 70.448 57.945 70.448H64.3834L63.5615 67.0234C63.2875 65.7905 62.1916 64.9686 60.9587 64.9686H59.0409C57.2601 64.9686 55.6162 64.1466 54.5204 62.6398L49.7258 56.0645L42.7395 58.8042C42.1916 58.9412 41.6436 59.2151 41.0957 59.4891Z" fill="#5AA5F1"/>
<path d="M90.4107 59.4891L76.8491 69.3521C75.8902 70.0371 74.7943 70.448 73.5614 70.448H67.123L67.945 67.0234C68.2189 65.7905 69.3148 64.9686 70.5477 64.9686H72.6025C74.3833 64.9686 76.0272 64.1466 77.123 62.6398L81.9176 56.0645L88.9039 58.8042C89.3148 58.9412 89.8628 59.2151 90.4107 59.4891Z" fill="#5AA5F1"/>
<path d="M65.753 49.9004L49.7256 56.0648L50.6845 57.4346L54.3831 62.6401C55.479 64.147 57.1228 64.9689 58.9037 64.9689H60.8215C62.0544 64.9689 63.1502 65.7908 63.4242 67.0237L64.3831 70.4483H67.1228L67.9448 67.0237C68.2187 65.7908 69.3146 64.9689 70.5475 64.9689H72.6023C74.3831 64.9689 76.027 64.147 77.1228 62.6401L81.9174 56.0648L65.753 49.9004Z" fill="#ECF2FF"/>
<path d="M46.6514 70.791L49.3089 70.1253L52.0385 81.0212L49.381 81.6869L46.6514 70.791Z" fill="#ECF2FF"/>
<path d="M46.5752 75.9277H58.904V86.8866H46.5752V75.9277Z" fill="#137FEB"/>
<path d="M46.5752 75.9277H58.904V81.4072H46.5752V75.9277Z" fill="#5AA5F1"/>
<path d="M86.3008 51.2715H94.52V81.4085H86.3008V51.2715Z" fill="#ECF2FF"/>
<path d="M90.4104 54.0107C92.68 54.0107 94.52 52.7841 94.52 51.271C94.52 49.7579 92.68 48.5312 90.4104 48.5312C88.1407 48.5312 86.3008 49.7579 86.3008 51.271C86.3008 52.7841 88.1407 54.0107 90.4104 54.0107Z" fill="#CFDFFF"/>
<path d="M75.3418 86.8872H99.9993V52.6406L75.3418 86.8872ZM94.5199 81.4077H86.3007L94.5199 69.079V81.4077Z" fill="#CFDFFF"/>
<path d="M76.7118 30.5856V42.5034C76.7118 46.613 74.383 50.4486 70.6844 52.3664C67.5337 53.8733 63.972 53.8733 60.8213 52.3664C57.1227 50.4486 54.7939 46.75 54.7939 42.5034V30.5856C54.7939 29.4897 55.4789 28.3938 56.5748 27.9828L64.7939 24.9692C65.4789 24.6952 66.1638 24.6952 66.7118 24.9692L74.9309 27.9828C76.0268 28.3938 76.7118 29.4897 76.7118 30.5856Z" fill="#D8B4AD"/>
</g>
<defs>
<clipPath id="clip0_720_11365">
<rect width="49.3151" height="62.3288" fill="white" transform="translate(0 19.5938)"/>
</clipPath>
<clipPath id="clip1_720_11365">
<rect width="65.7534" height="73.8014" fill="white" transform="translate(34.2461 13.0859)"/>
</clipPath>
</defs>
</svg>
