<svg width="100" height="100" viewBox="0 0 100 100" fill="none" xmlns="http://www.w3.org/2000/svg">
<path d="M85.9375 92.1875H11.875C7.04688 92.1875 3.125 89.5469 3.125 84.375C3.125 79.2031 7.32812 76.5625 12.5 76.5625H14.0625V17.1875H85.9375V92.1875Z" fill="white"/>
<path d="M3.125 17.1875C3.125 10.4531 7.32812 6.25 12.5 6.25H14.0625V76.5625H12.5C7.32812 76.5625 3.125 79.2031 3.125 84.375V17.1875Z" fill="#919CB3"/>
<path d="M82.8125 92.1875V20.3125H17.1875V79.6875H10.9375C9.64062 79.6875 8.46875 80.2188 7.625 81.0625C6.78125 81.9062 6.25 83.0781 6.25 84.375C6.25 86.9688 8.34375 89.0625 10.9375 89.0625H85.9375V92.1875H11.875C7.04688 92.1875 3.125 89.5469 3.125 84.375C3.125 79.2031 7.32812 76.5625 12.5 76.5625H14.0625V17.1875H85.9375V92.1875H82.8125Z" fill="#ECF2FF"/>
<path d="M53.125 51.875V60.625C53.125 60.7969 52.9844 60.9375 52.8125 60.9375H45.625C45.4531 60.9375 45.3125 60.7969 45.3125 60.625V45.625C45.3125 45.4531 45.4531 45.3125 45.625 45.3125H60.625C60.7969 45.3125 60.9375 45.4531 60.9375 45.625V51.25C60.9375 51.4219 60.7969 51.5625 60.625 51.5625H53.4375C53.2656 51.5625 53.125 51.7031 53.125 51.875Z" fill="#F80338"/>
<path d="M70 23.4375H55C54.8274 23.4375 54.6875 23.5774 54.6875 23.75V35.625C54.6875 35.7976 54.8274 35.9375 55 35.9375H70C70.1726 35.9375 70.3125 35.7976 70.3125 35.625V23.75C70.3125 23.5774 70.1726 23.4375 70 23.4375Z" fill="#137FEB"/>
<path d="M39.0625 39.375V45C39.0625 45.1719 38.9219 45.3125 38.75 45.3125H22.1875C22.0156 45.3125 21.875 45.1719 21.875 45V23.75C21.875 23.5781 22.0156 23.4375 22.1875 23.4375H46.5625C46.7344 23.4375 46.875 23.5781 46.875 23.75V38.75C46.875 38.9219 46.7344 39.0625 46.5625 39.0625H39.375C39.2031 39.0625 39.0625 39.2031 39.0625 39.375Z" fill="#59C939"/>
<path d="M25.0154 76.9375C24.781 79.2656 26.6247 81.25 28.906 81.25H40.6247V84.375H29.2185C25.5466 84.375 22.2654 81.7031 21.906 78.0469C21.4997 73.8594 24.7966 70.3125 28.906 70.3125H52.9529L51.2341 73.4375H29.1404C27.0935 73.4375 25.2341 74.9063 25.0154 76.9375Z" fill="#919CB3"/>
<path d="M43.75 81.25H46.875V84.375H43.75V81.25Z" fill="#919CB3"/>
<path d="M38.75 53.125H22.1875C22.0149 53.125 21.875 53.2649 21.875 53.4375V60.625C21.875 60.7976 22.0149 60.9375 22.1875 60.9375H38.75C38.9226 60.9375 39.0625 60.7976 39.0625 60.625V53.4375C39.0625 53.2649 38.9226 53.125 38.75 53.125Z" fill="#5AA5F1"/>
<path d="M70.3125 79.375V72.1875C70.3125 72.0156 70.4531 71.875 70.625 71.875H77.8125C77.9844 71.875 78.125 72.0156 78.125 72.1875V85.625C78.125 85.7969 77.9844 85.9375 77.8125 85.9375H62.8125C62.6406 85.9375 62.5 85.7969 62.5 85.625V80C62.5 79.8281 62.6406 79.6875 62.8125 79.6875H70C70.1719 79.6875 70.3125 79.5469 70.3125 79.375Z" fill="#A4E192"/>
<path d="M63.7659 67.5625L54.0784 72.9219C53.7971 73.0781 53.5002 72.7656 53.6565 72.5L59.0159 62.8125L91.1409 30.6875C92.4534 29.375 94.5784 29.375 95.9065 30.6875C97.219 32 97.219 34.125 95.9065 35.4531L63.7815 67.5781L63.7659 67.5625Z" fill="#ECF2FF"/>
<path d="M89.9374 41.375L85.1717 36.6094L58.9842 62.7969L53.6405 72.4844C53.4842 72.7656 53.7967 73.0625 54.0624 72.9062L63.7499 67.5625L89.9374 41.375Z" fill="#919CB3"/>
</svg>
