<svg width="164" height="164" viewBox="0 0 164 164" fill="none" xmlns="http://www.w3.org/2000/svg">
<g clip-path="url(#clip0_3973_4427)">
<path fill-rule="evenodd" clip-rule="evenodd" d="M143.776 129.101L119.238 13.5777C118.455 9.87372 114.794 7.52521 111.1 8.3059L24.8309 26.66C21.1375 27.4415 18.7473 31.0803 19.5339 34.7795L44.1225 150.303C44.903 153.996 48.5171 156.355 52.2107 155.575L138.505 137.251C142.199 136.407 144.553 132.801 143.776 129.101ZM110.565 36.5312C110.958 38.3749 109.762 40.1676 107.908 40.5619L40.8337 54.8391C38.9848 55.2265 37.1711 54.0684 36.7768 52.214L34.286 40.5914C33.8977 38.7418 35.1134 36.9229 36.9631 36.5345L104.037 22.2572C105.891 21.863 107.688 23.0587 108.073 24.9078L110.565 36.5312Z" fill="#0D536E"/>
<path fill-rule="evenodd" clip-rule="evenodd" d="M41.604 67.2024L53.1653 64.7752C54.2232 64.5497 55.2149 65.2087 55.4637 66.2239L57.8378 77.4932C58.0876 78.5091 57.3985 79.5379 56.352 79.7614L44.7801 82.1897C43.7641 82.4395 42.7364 81.761 42.4863 80.7334L40.118 69.4689C39.8987 68.4793 40.5462 67.428 41.604 67.2024Z" fill="#F6F6F6"/>
<path fill-rule="evenodd" clip-rule="evenodd" d="M61.2023 63.0596L72.7937 60.5953C73.8148 60.3513 74.8423 61.0281 75.0668 62.0753L77.4662 73.3133C77.6594 74.3352 77.0347 75.3644 75.9796 75.5825L64.3902 78.0484C63.3674 78.2927 62.3406 77.6149 62.1152 76.5669L59.7175 65.3287C59.4968 64.2749 60.1744 63.2463 61.2023 63.0596Z" fill="#F6F6F6"/>
<path fill-rule="evenodd" clip-rule="evenodd" d="M80.8279 58.8778L92.4193 56.4135C93.4168 56.2005 94.4435 56.8782 94.6982 57.8981L97.0674 69.1634C97.2804 70.1609 96.634 71.213 95.5817 71.4317L84.0148 73.8658C82.9625 74.0845 81.9653 73.4323 81.7164 72.4171L79.3423 61.1478C79.0981 60.125 79.7756 59.0965 80.8279 58.8778Z" fill="#F6F6F6"/>
<path fill-rule="evenodd" clip-rule="evenodd" d="M100.431 54.7262L111.995 52.2398C113.041 52.0163 114.07 52.6938 114.262 53.7265L116.656 64.9616C116.879 66.008 116.228 67.0043 115.201 67.2544L103.616 69.7144C102.561 69.9326 101.566 69.2809 101.342 68.2337L98.9482 57.0004C98.7168 55.9477 99.401 54.9131 100.431 54.7262Z" fill="#F6F6F6"/>
<path fill-rule="evenodd" clip-rule="evenodd" d="M45.6967 87.3756L57.294 84.916C58.3082 84.6664 59.3435 85.3495 59.567 86.396L61.9616 97.63C62.1795 98.6833 61.5281 99.6796 60.4809 99.904L48.8836 102.364C47.8667 102.613 46.8341 101.93 46.6106 100.884L44.216 89.6496C44.022 88.6287 44.6748 87.5688 45.6967 87.3756Z" fill="#F6F6F6"/>
<path fill-rule="evenodd" clip-rule="evenodd" d="M65.32 83.1915L76.9172 80.732C77.908 80.5152 78.9668 81.1655 79.1857 82.2196L81.5793 93.4528C81.7725 94.4747 81.1205 95.5336 80.0732 95.7581L68.5013 98.1864C67.4541 98.4109 66.4565 97.747 66.233 96.7006L63.8385 85.4665C63.6158 84.4191 64.2735 83.415 65.32 83.1915Z" fill="#F6F6F6"/>
<path fill-rule="evenodd" clip-rule="evenodd" d="M84.9254 79.0418L96.4895 76.5554C97.5359 76.3319 98.5665 77.0209 98.7589 78.0437L101.184 89.3023C101.377 90.3242 100.72 91.3273 99.7039 91.5754L88.1066 94.0349C87.0847 94.2281 86.0571 93.6014 85.8383 92.5491L83.4457 81.3166C83.2195 80.2696 83.9026 79.2343 84.9254 79.0418Z" fill="#F6F6F6"/>
<path fill-rule="evenodd" clip-rule="evenodd" d="M104.546 74.8678L116.111 72.3822C117.133 72.189 118.193 72.8418 118.386 73.8637L120.779 85.0962C121.003 86.1434 120.321 87.1777 119.33 87.3945L107.734 89.8548C106.687 90.0793 105.652 89.3962 105.458 88.3743L103.065 77.1401C102.846 76.0887 103.498 75.0915 104.546 74.8678Z" fill="#F6F6F6"/>
<path fill-rule="evenodd" clip-rule="evenodd" d="M49.8225 107.516L61.4072 105.056C62.4047 104.843 63.4568 105.489 63.6822 106.537L66.0748 117.77C66.2739 118.797 65.616 119.851 64.5949 120.043L52.9986 122.503C51.9514 122.728 50.9483 122.071 50.7303 121.017L48.3358 109.783C48.1105 108.737 48.7647 107.742 49.8225 107.516Z" fill="#F6F6F6"/>
<path fill-rule="evenodd" clip-rule="evenodd" d="M69.4427 103.336L80.9765 100.876C82.0296 100.657 83.0573 101.335 83.2818 102.382L85.6746 113.617C85.8746 114.644 85.2108 115.642 84.1956 115.891L72.5983 118.35C71.5764 118.543 70.5557 117.922 70.3234 116.869L67.9315 105.635C67.712 104.584 68.3896 103.555 69.4427 103.336Z" fill="#F6F6F6"/>
<path fill-rule="evenodd" clip-rule="evenodd" d="M89.0438 99.1871L100.604 96.6975C101.656 96.4788 102.686 97.1571 102.877 98.1775L105.277 109.416C105.495 110.469 104.812 111.492 103.821 111.71L92.2239 114.17C91.1766 114.394 90.1743 113.736 89.9508 112.69L87.5571 101.455C87.3337 100.41 87.9907 99.4069 89.0438 99.1871Z" fill="#F6F6F6"/>
<path fill-rule="evenodd" clip-rule="evenodd" d="M108.671 95.0064L120.173 92.5219C121.258 92.3275 122.285 93.0061 122.505 94.0591L129.025 124.67C129.256 125.722 128.542 126.782 127.496 127.006L116.012 129.454C114.964 129.678 113.899 128.97 113.68 127.916L107.16 97.3059C106.934 96.2597 107.617 95.2253 108.671 95.0064Z" fill="#4FB848"/>
<path fill-rule="evenodd" clip-rule="evenodd" d="M53.939 127.656L65.4777 125.2C66.525 124.976 67.5595 125.66 67.8028 126.682L70.1768 137.941C70.3898 138.939 69.7433 139.991 68.6913 140.221L57.0996 142.674C56.0729 142.873 55.0746 142.21 54.8256 141.193L52.4573 129.929C52.2095 128.914 52.8918 127.88 53.939 127.656Z" fill="#F6F6F6"/>
<path fill-rule="evenodd" clip-rule="evenodd" d="M73.5359 123.502L85.1018 121.017C86.1483 120.793 87.1826 121.476 87.3693 122.503L89.7639 133.738C89.9874 134.784 89.3051 135.818 88.3144 136.037L76.7219 138.491C75.67 138.721 74.6724 138.057 74.4469 137.009L72.0543 125.777C71.8316 124.729 72.4887 123.726 73.5359 123.502Z" fill="#F6F6F6"/>
<path fill-rule="evenodd" clip-rule="evenodd" d="M93.1656 119.322L104.701 116.873C105.747 116.65 106.782 117.333 106.998 118.323L109.367 129.588C109.617 130.604 108.934 131.638 107.887 131.862L96.3469 134.317C95.2997 134.541 94.2662 133.858 94.0533 132.862L91.6841 121.597C91.4361 120.581 92.1136 119.552 93.1656 119.322Z" fill="#F6F6F6"/>
<path fill-rule="evenodd" clip-rule="evenodd" d="M110.567 36.5309L108.075 24.9075C107.689 23.0594 105.893 21.8627 104.039 22.2569L36.9646 36.5342C35.115 36.9226 33.9 38.7405 34.2876 40.5911L36.7784 52.2137C37.1726 54.068 38.9856 55.2272 40.8352 54.8388L107.909 40.5616C109.763 40.1683 110.96 38.3746 110.567 36.5309Z" fill="#96ECFF"/>
<path d="M59.5106 117.051L57.855 117.389L56.6324 111.71L55.2014 112.025L54.9543 110.754L57.9643 109.873L59.5106 117.051Z" fill="#1791C0"/>
<path d="M80.1284 112.65L75.1829 113.706L74.9649 112.652L76.6376 109.772C76.8472 109.385 77.0127 109.055 77.0953 108.761C77.1732 108.473 77.2062 108.243 77.163 108.052C77.1022 107.746 76.9965 107.557 76.8421 107.432C76.6604 107.285 76.4857 107.247 76.1792 107.307C75.9284 107.361 75.7517 107.518 75.6622 107.754C75.5736 107.991 75.5456 108.278 75.6121 108.579L74.0086 108.919C73.8197 108.262 73.9303 107.63 74.296 107.112C74.6324 106.571 75.1912 106.198 75.9312 106.036C76.677 105.878 77.333 105.945 77.8398 106.2C78.3574 106.515 78.685 106.988 78.8174 107.651C78.8892 108.122 78.875 108.523 78.6964 108.933C78.563 109.34 78.2318 109.939 77.7503 110.723L77.1178 111.951L77.1481 111.976L79.8556 111.407L80.1284 112.65Z" fill="#1791C0"/>
<path d="M96.1545 104.791C96.4541 104.725 96.6632 104.597 96.7831 104.385C96.9342 104.198 96.973 103.972 96.883 103.702C96.8592 103.476 96.6981 103.295 96.5408 103.168C96.3357 103.054 96.109 103.014 95.8025 103.075C95.6082 103.123 95.4454 103.198 95.3509 103.379C95.2298 103.528 95.1909 103.702 95.2391 103.896L93.6355 104.237L93.6042 104.211C93.4639 103.633 93.5808 103.171 93.9589 102.704C94.3628 102.27 94.8663 101.966 95.5552 101.802C96.3331 101.668 96.9833 101.68 97.5194 101.959C98.0509 102.194 98.385 102.66 98.5371 103.299C98.5921 103.601 98.5767 103.94 98.4373 104.238C98.2728 104.569 98.0766 104.811 97.7617 105.072C98.1922 105.112 98.5174 105.272 98.7978 105.499C99.046 105.751 99.22 106.046 99.2927 106.466C99.4427 107.093 99.334 107.675 98.9055 108.14C98.4755 108.607 97.8863 108.953 97.0889 109.123C96.4232 109.244 95.7993 109.201 95.2379 108.954C94.6704 108.7 94.3167 108.26 94.1899 107.589L94.2144 107.559L95.8132 107.225C95.8683 107.476 95.9981 107.631 96.1554 107.759C96.3615 107.874 96.5919 107.907 96.8426 107.851C97.15 107.791 97.3627 107.654 97.5343 107.442C97.6855 107.256 97.7185 107.025 97.6644 106.774C97.5911 106.417 97.4619 106.209 97.2498 106.088C97.0389 105.969 96.7556 105.935 96.4492 105.996L95.6526 106.164L95.381 104.924L96.1545 104.791Z" fill="#1791C0"/>
<path d="M55.1916 93.9932L55.8873 93.8351L56.164 95.1316L55.4389 95.2659L55.7663 96.7572L54.1413 97.122L53.8138 95.6306L50.9678 96.2426L50.6642 95.2332L52.6086 90.0574L52.6017 90L54.2563 89.6607L55.1916 93.9932ZM52.0254 94.6968L53.5421 94.3381L53.0511 92.1579L53.0208 92.1333L52.9283 92.5631L52.0254 94.6968Z" fill="#1791C0"/>
<path d="M70.4723 90.3322L70.0174 86.2853L74.1597 85.395L74.4589 86.6677L71.6176 87.2738L71.7763 88.7837C71.8776 88.6587 72.0356 88.5295 72.223 88.424C72.432 88.3457 72.6183 88.2394 72.8701 88.1861C73.5349 88.0644 74.0796 88.1448 74.5144 88.4969C74.9686 88.8129 75.2768 89.3731 75.4228 90.1497C75.575 90.8407 75.5002 91.4385 75.2099 91.9767C74.9058 92.5441 74.3261 92.8884 73.4673 93.06C72.8037 93.1923 72.1777 93.1383 71.6162 92.8907C71.0283 92.6718 70.6696 92.226 70.5851 91.6432L70.6048 91.6188L72.1721 91.1975C72.2202 91.4418 72.3522 91.6005 72.5318 91.6942C72.7184 91.8453 72.9509 91.8798 73.221 91.788C73.5264 91.7264 73.7051 91.5718 73.7986 91.3903C73.8629 91.1852 73.8529 90.8778 73.792 90.5195C73.695 90.132 73.5776 89.8315 73.3926 89.6284C73.1974 89.4201 72.9375 89.3633 72.6682 89.4542C72.4409 89.4772 72.2545 89.5835 72.1588 89.7017C72.0583 89.8258 71.9571 89.9508 71.9435 90.0935L70.4723 90.3322Z" fill="#1791C0"/>
<path d="M91.9282 81.5529C92.2356 81.4929 92.4554 81.4751 92.7121 81.4777C92.9114 81.4853 93.1924 81.5058 93.455 81.5632L93.4415 82.7784C93.1925 82.7822 92.9906 82.774 92.8208 82.7918C92.6263 82.7783 92.4566 82.7961 92.232 82.8197C91.8505 82.9232 91.5665 83.1462 91.3444 83.4824C91.175 83.8094 91.145 84.2899 91.2607 84.8462L91.2656 84.902C91.4421 84.6841 91.6254 84.5236 91.8587 84.3615C92.0927 84.1903 92.3679 84.1041 92.694 84.0171C93.3078 83.8963 93.8253 84.0064 94.2299 84.3858C94.6969 84.764 94.9756 85.2986 95.1129 86.018C95.2669 86.7089 95.1677 87.3387 94.7955 87.8623C94.4357 88.4364 93.8797 88.8014 93.1554 88.9348C92.3598 89.1042 91.6901 88.9744 91.0921 88.5823C90.5128 88.165 90.1295 87.5036 89.9304 86.6209L89.6374 85.2108C89.4266 84.2765 89.5644 83.471 90.0002 82.8031C90.4107 82.1682 91.076 81.7283 91.9282 81.5529ZM92.415 85.3685C92.1954 85.4479 91.9827 85.5328 91.8557 85.6257C91.6937 85.6999 91.5924 85.8249 91.5222 85.9736L91.5771 86.2752C91.6908 86.7701 91.8445 87.1517 92.0945 87.4043C92.3183 87.6373 92.5556 87.7259 92.8524 87.667C93.1022 87.6122 93.2836 87.45 93.4297 87.2077C93.5193 86.9712 93.5406 86.6892 93.4789 86.3319C93.3877 85.9992 93.2459 85.7307 93.0895 85.5523C92.9031 85.403 92.6396 85.3449 92.415 85.3685Z" fill="#1791C0"/>
<path d="M51.0525 70.67C50.4816 71.6927 50.125 72.5784 50.0066 73.3479C49.894 74.1222 49.9263 75.0251 50.1389 75.9591L50.3515 76.8932L48.6973 77.2441L48.5147 76.323C48.3029 75.3879 48.2913 74.4613 48.4535 73.6237C48.6158 72.7361 48.9536 71.8756 49.4733 70.9781L45.9496 71.7417L45.6458 70.4749L50.8052 69.3972L51.0525 70.67Z" fill="#1791C0"/>
<path d="M107.518 59.909L107.574 59.9013L107.937 58.1979L109.787 57.8095L108.788 60.731L110.931 63.0746L109.082 63.463L108.053 62.022L108.023 61.9975L107.672 63.7532L105.823 64.1514L106.809 61.1678L104.728 58.8748L106.582 58.4816L107.518 59.909Z" fill="#1791C0"/>
<path d="M88.5091 67.5495C88.8146 67.4879 89.0292 67.3527 89.1627 67.058C89.3342 66.7844 89.3543 66.4399 89.2516 66.0074L89.1527 65.6182C89.0338 65.8309 88.8882 66.0107 88.7041 66.1722C88.5227 66.3343 88.3023 66.4146 88.0579 66.4626C87.4238 66.6205 86.8738 66.4727 86.3893 66.1322C85.9585 65.7833 85.6388 65.2252 85.4536 64.509C85.3163 63.7896 85.426 63.1586 85.7858 62.5845C86.1475 62.0119 86.7016 61.6454 87.422 61.5089C88.1676 61.3492 88.7982 61.4473 89.3787 61.8672C89.9325 62.2639 90.3091 62.9296 90.4855 63.7825L90.8681 65.5774C91.0443 66.3785 90.9134 67.0975 90.5284 67.7029C90.1423 68.3074 89.5325 68.6791 88.786 68.8478C88.5361 68.9027 88.284 68.8943 88.0088 68.9286C87.7539 68.9276 87.4651 68.9008 87.2033 68.8425L87.2422 67.596C87.4744 67.6288 87.704 67.661 87.8737 67.6431C88.0688 67.6459 88.2953 67.6238 88.5091 67.5495ZM88.1543 65.211C88.3439 65.1688 88.5076 65.0943 88.6384 64.9948C88.7711 64.8968 88.8724 64.7717 88.9359 64.6274L88.7651 63.8195C88.6993 63.4054 88.5518 63.142 88.3603 62.9351C88.1483 62.7634 87.9413 62.6994 87.6969 62.7474C87.4463 62.8032 87.2657 62.9644 87.1868 63.2515C87.0719 63.5192 87.0772 63.8324 87.1127 64.1701C87.1763 64.521 87.32 64.791 87.5126 64.9987C87.6994 65.2034 87.9037 65.2669 88.1543 65.211Z" fill="#1791C0"/>
<path d="M70.5482 67.1561C70.6458 67.481 70.5868 67.7956 70.5042 68.0894C70.3697 68.3833 70.2 68.6568 69.9114 68.8873C70.3157 68.9575 70.6721 69.1426 70.9525 69.3696C71.233 69.6485 71.4042 69.9425 71.5032 70.3316C71.6277 70.9889 71.5255 71.5645 71.1151 72.0054C70.7172 72.4968 70.1514 72.8119 69.4124 72.9754C68.6345 73.109 67.9843 73.0969 67.4179 72.7936C66.8542 72.5328 66.4655 72.074 66.3438 71.4093C66.277 71.0463 66.3177 70.6764 66.4822 70.3454C66.6174 69.9906 66.8946 69.7103 67.2652 69.4443C66.9147 69.3659 66.5914 69.2077 66.3666 68.9739C66.1438 68.7417 65.9767 68.4526 65.8844 68.1191C65.7639 67.5168 65.9011 66.9679 66.2539 66.5322C66.6012 66.1033 67.1415 65.8176 67.8805 65.6542C68.5454 65.5342 69.1388 65.5505 69.6184 65.8353C70.097 66.0693 70.4204 66.4848 70.5482 67.1561ZM69.8348 70.5561C69.7797 70.3045 69.6498 70.0973 69.4329 69.9217C69.221 69.8019 68.9886 69.7673 68.7438 69.8279C68.4636 69.8583 68.2489 69.9934 68.1093 70.2298C67.9329 70.4476 67.9001 70.6799 67.9551 70.9816C68.0459 71.2509 68.1837 71.4644 68.3956 71.5843C68.5999 71.6995 68.8577 71.7627 69.1643 71.7037C69.415 71.6478 69.5964 71.4857 69.7475 71.2991C69.8636 71.0939 69.8966 70.8634 69.8348 70.5561ZM68.9299 67.5765C68.8748 67.3248 68.7703 67.1383 68.6442 67.0362C68.4957 66.9159 68.3218 66.877 68.1268 66.9261C67.9022 66.9497 67.7442 67.079 67.6184 67.2343C67.5296 67.4099 67.5221 67.6109 67.576 67.86C67.6319 68.1106 67.7307 68.2942 67.887 68.4208C68.0414 68.5458 68.2729 68.5796 68.4982 68.555C68.6925 68.5069 68.8182 68.4016 68.8818 68.2072C68.9773 68.0273 68.9847 67.8263 68.9299 67.5765Z" fill="#1791C0"/>
<path d="M63.986 134.361C64.1558 135.22 64.0626 135.906 63.7265 136.501C63.3901 137.042 62.8371 137.419 62.0913 137.577C61.3505 137.741 60.6826 137.611 60.1346 137.219C59.5612 136.858 59.2141 136.268 59.0387 135.416L58.6454 133.511C58.4455 132.689 58.5318 131.945 58.8727 131.396C59.2344 130.823 59.7877 130.458 60.5401 130.294C61.2798 130.129 61.9097 130.229 62.4646 130.626C63.0379 130.987 63.3842 131.628 63.5803 132.457L63.986 134.361ZM61.9186 132.687C61.8147 132.242 61.6672 131.978 61.4806 131.775C61.2872 131.569 61.0508 131.479 60.7748 131.566C60.5305 131.614 60.3532 131.781 60.2636 132.018C60.1494 132.275 60.1588 132.645 60.2323 133.063L60.6802 135.157C60.7832 135.601 60.926 135.922 61.1439 136.098C61.3374 136.307 61.5366 136.365 61.8177 136.335C62.0939 136.25 62.2507 136.118 62.3601 135.857C62.4427 135.563 62.4385 135.251 62.3619 134.786L61.9186 132.687Z" fill="#1791C0"/>
<path d="M81.8978 130.271L80.2367 130.617L79.927 129.243L81.5812 128.892L81.8978 130.271Z" fill="#1791C0"/>
<path d="M102.674 124.672L98.1666 125.629L97.8988 124.382L102.421 123.406L102.674 124.672ZM103.147 126.796L98.6263 127.784L98.3791 126.512L102.874 125.556L103.147 126.796Z" fill="#1791C0"/>
<path d="M118.724 110.091L120.373 109.748L120.664 111.157L119.008 111.496L119.409 113.408L117.865 113.734L117.461 111.83L115.811 112.174L115.494 110.795L117.177 110.425L116.781 108.57L118.325 108.243L118.724 110.091Z" fill="#F6F6F6"/>
<path d="M113.512 81.457L110.611 82.0757L110.363 80.8029L113.208 80.1902L113.512 81.457Z" fill="#1791C0"/>
</g>
<defs>
<clipPath id="clip0_3973_4427">
<rect width="101.829" height="132" fill="white" transform="translate(17.9999 28) rotate(-12)"/>
</clipPath>
</defs>
</svg>
