<svg width="136" height="136" viewBox="0 0 136 136" fill="none" xmlns="http://www.w3.org/2000/svg">
<path d="M28.3332 60.9168C27.3531 60.9217 26.4013 60.5877 25.6392 59.9712C24.8771 59.3548 24.3515 58.4938 24.1515 57.5343C23.9514 56.5747 24.0892 55.5755 24.5415 54.7059C24.9938 53.8362 25.7328 53.1497 26.6332 52.7625L66.2999 35.7625L117.249 13.0958C117.762 12.8516 118.319 12.7126 118.886 12.687C119.454 12.6613 120.021 12.7496 120.554 12.9466C121.087 13.1436 121.575 13.4453 121.989 13.8339C122.404 14.2225 122.736 14.6902 122.967 15.2094C123.198 15.7285 123.322 16.2887 123.333 16.8567C123.344 17.4248 123.241 17.9892 123.03 18.5169C122.819 19.0445 122.505 19.5246 122.106 19.9288C121.707 20.333 121.231 20.6532 120.706 20.8705L69.7056 43.5372L29.9879 60.5372C29.4671 60.7725 28.9046 60.9016 28.3332 60.9168Z" fill="#0D536E"/>
<path d="M113.333 38.25C112.876 38.2509 112.423 38.1762 111.99 38.029C111.46 37.8535 110.97 37.5753 110.548 37.2102C110.126 36.8451 109.78 36.4003 109.53 35.9013C109.28 35.4023 109.131 34.8589 109.091 34.3022C109.051 33.7455 109.122 33.1865 109.299 32.657L113.628 19.686L100.657 15.3624C100.128 15.186 99.6386 14.9071 99.2173 14.5417C98.7959 14.1763 98.4507 13.7315 98.2013 13.2327C97.9519 12.7338 97.8032 12.1907 97.7636 11.6344C97.7241 11.0781 97.7945 10.5195 97.9709 9.99037C98.1472 9.46127 98.4261 8.97209 98.7915 8.55076C99.1569 8.12943 99.6017 7.78421 100.101 7.53479C100.599 7.28537 101.142 7.13665 101.699 7.09711C102.255 7.05757 102.814 7.128 103.343 7.30437L120.343 12.971C120.873 13.1465 121.363 13.4248 121.785 13.7899C122.207 14.155 122.553 14.5998 122.803 15.0988C123.053 15.5977 123.202 16.1411 123.242 16.6978C123.282 17.2545 123.211 17.8136 123.035 18.343L117.368 35.343C117.084 36.1885 116.541 36.9236 115.818 37.445C115.094 37.9665 114.225 38.248 113.333 38.25Z" fill="#0D536E"/>
<path d="M39.6667 86.4165H17C14.6528 86.4165 12.75 88.3193 12.75 90.6665V124.667C12.75 127.014 14.6528 128.917 17 128.917H39.6667C42.0139 128.917 43.9167 127.014 43.9167 124.667V90.6665C43.9167 88.3193 42.0139 86.4165 39.6667 86.4165Z" fill="#4FB848"/>
<path d="M79.3332 63.75H56.6665C54.3193 63.75 52.4165 65.6528 52.4165 68V124.667C52.4165 127.014 54.3193 128.917 56.6665 128.917H79.3332C81.6804 128.917 83.5832 127.014 83.5832 124.667V68C83.5832 65.6528 81.6804 63.75 79.3332 63.75Z" fill="#22AFE5"/>
<path d="M119 52.4165H96.3335C93.9863 52.4165 92.0835 54.3193 92.0835 56.6665V124.667C92.0835 127.014 93.9863 128.917 96.3335 128.917H119C121.347 128.917 123.25 127.014 123.25 124.667V56.6665C123.25 54.3193 121.347 52.4165 119 52.4165Z" fill="#1791C0"/>
</svg>
