<svg width="136" height="136" viewBox="0 0 136 136" fill="none" xmlns="http://www.w3.org/2000/svg">
<path d="M68.9673 6.24414L6.93652 22.8655L35.1386 128.115L114.439 106.871L91.0794 19.6895L68.9673 6.24414Z" fill="#E5EDFF"/>
<path d="M69.136 6.19849L73.9277 24.0902L91.032 19.5112L69.136 6.19849Z" fill="#CFDFFF"/>
<path d="M57.4837 38.8724L22.9395 48.1245L29.6475 73.1701L64.1917 63.918L57.4837 38.8724Z" fill="#4FB848"/>
<path d="M32.0346 81.9508C52.7011 76.4142 73.3677 70.8759 94.0326 65.3393C95.8907 64.8416 95.1016 61.962 93.2403 62.4597C72.5737 67.9979 51.9088 73.5362 31.2422 79.0712C29.3825 79.5688 30.1716 82.4485 32.0346 81.9508Z" fill="#B0BED9"/>
<path d="M33.9662 89.1605C54.6312 83.6206 75.2961 78.084 95.961 72.5474C97.8191 72.0497 97.0301 69.1684 95.1687 69.6677C74.5021 75.206 53.8372 80.7426 33.1739 86.2809C31.3158 86.7786 32.1049 89.6599 33.9662 89.1605Z" fill="#B0BED9"/>
<path d="M35.8964 96.369C56.563 90.8324 77.2295 85.2941 97.8961 79.7575C99.7542 79.2598 98.9651 76.3802 97.1037 76.8779C76.4372 82.4161 55.7706 87.9544 35.1041 93.4894C33.2443 93.9887 34.035 96.8683 35.8964 96.369Z" fill="#B0BED9"/>
<path d="M37.828 103.577C58.4946 98.0406 79.1611 92.5039 99.8277 86.9673C101.686 86.4696 100.897 83.5884 99.0354 84.0877C78.3688 89.6259 57.7022 95.1626 37.0357 100.698C35.1759 101.195 35.965 104.075 37.828 103.577Z" fill="#B0BED9"/>
<path d="M39.7585 110.788C53.9373 106.99 68.1161 103.189 82.2932 99.3893C84.1513 98.8916 83.3623 96.012 81.5009 96.5097C67.3221 100.309 53.1433 104.111 38.9661 107.909C37.108 108.406 37.8971 111.288 39.7585 110.788Z" fill="#B0BED9"/>
<path d="M64.2982 41.6421C71.5702 39.6923 78.8437 37.7426 86.1157 35.7961C87.9738 35.2984 87.1847 32.4188 85.3233 32.9164C78.0497 34.8646 70.7778 36.8127 63.5059 38.7625C61.6462 39.2601 62.4352 42.1398 64.2982 41.6421Z" fill="#B0BED9"/>
<path d="M66.2282 48.8509C73.5018 46.9012 80.7753 44.953 88.0473 43.0049C89.9054 42.5072 89.1163 39.626 87.2549 40.1253C79.9814 42.075 72.7078 44.0232 65.4359 45.9713C63.5778 46.469 64.3668 49.3502 66.2282 48.8509Z" fill="#B0BED9"/>
<path d="M68.1598 56.057C75.4334 54.1089 82.707 52.1608 89.9789 50.2127C91.837 49.715 91.0479 46.8337 89.1865 47.333C81.913 49.2812 74.641 51.2309 67.3675 53.1774C65.5077 53.6767 66.2985 56.5564 68.1598 56.057Z" fill="#B0BED9"/>
<path d="M110.707 74.6338C112.997 74.6338 114.854 76.4904 114.854 78.7803V109.475L120.837 104.264C122.564 102.76 125.184 102.94 126.688 104.667C128.192 106.394 128.011 109.014 126.284 110.518L113.431 121.712C113.418 121.723 113.403 121.734 113.39 121.745C113.363 121.768 113.337 121.79 113.31 121.812C113.281 121.835 113.251 121.858 113.222 121.881C113.206 121.893 113.19 121.905 113.174 121.917C113.133 121.947 113.092 121.977 113.05 122.006C113.037 122.014 113.025 122.023 113.012 122.031C112.983 122.051 112.953 122.07 112.923 122.089C112.893 122.108 112.862 122.128 112.831 122.146C112.754 122.193 112.675 122.235 112.596 122.275C112.421 122.365 112.24 122.442 112.052 122.507C112.025 122.516 111.998 122.526 111.971 122.534C111.931 122.547 111.89 122.559 111.85 122.57C111.84 122.573 111.83 122.576 111.82 122.579C111.772 122.592 111.724 122.605 111.675 122.616C111.658 122.62 111.641 122.624 111.624 122.628C111.583 122.637 111.541 122.646 111.499 122.654C111.472 122.66 111.445 122.664 111.417 122.669C111.384 122.675 111.352 122.681 111.319 122.686C111.193 122.704 111.067 122.718 110.941 122.725C110.916 122.726 110.891 122.727 110.866 122.728C110.817 122.729 110.768 122.73 110.719 122.73C110.715 122.73 110.711 122.731 110.707 122.731C110.7 122.731 110.694 122.731 110.687 122.73C110.635 122.73 110.583 122.729 110.531 122.727C110.507 122.726 110.483 122.725 110.458 122.724C110.413 122.721 110.367 122.717 110.322 122.713C110.304 122.711 110.286 122.709 110.268 122.707C110.155 122.695 110.042 122.679 109.93 122.657C109.869 122.646 109.808 122.633 109.747 122.619C109.732 122.616 109.717 122.612 109.701 122.608C109.663 122.599 109.624 122.588 109.586 122.577C109.559 122.57 109.533 122.562 109.506 122.554C109.475 122.544 109.443 122.535 109.412 122.524C109.387 122.516 109.362 122.508 109.337 122.499C109.294 122.484 109.251 122.469 109.209 122.452C109.198 122.448 109.187 122.443 109.176 122.438C109.073 122.398 108.973 122.353 108.874 122.305C108.856 122.296 108.838 122.287 108.82 122.277C108.547 122.137 108.291 121.969 108.057 121.774L94.3987 110.6C92.6266 109.15 92.3648 106.537 93.8147 104.765C95.2646 102.993 97.8773 102.731 99.6496 104.181L106.561 109.835V78.7803C106.561 76.4904 108.417 74.6338 110.707 74.6338Z" fill="#0D536E"/>
</svg>
