<svg width="164" height="164" viewBox="0 0 164 164" fill="none" xmlns="http://www.w3.org/2000/svg">
<path d="M82.1444 15.0491L15 33.0406L45.527 146.967L131.365 123.971L106.079 29.6028L82.1444 15.0491Z" fill="#E5EDFF"/>
<path d="M82.3271 15L87.5139 34.3666L106.028 29.4102L82.3271 15Z" fill="#CFDFFF"/>
<path d="M69.7142 50.3668L32.3223 60.3816L39.5833 87.4918L76.9752 77.477L69.7142 50.3668Z" fill="#4FB848"/>
<path d="M42.1673 96.9969C64.5376 91.0039 86.9078 85.009 109.276 79.016C111.288 78.4773 110.433 75.3603 108.419 75.899C86.0484 81.8938 63.6799 87.8886 41.3097 93.8799C39.2966 94.4186 40.1508 97.5356 42.1673 96.9969Z" fill="#B0BED9"/>
<path d="M44.2578 104.801C66.6263 98.8045 88.9948 92.8114 111.363 86.8184C113.375 86.2797 112.52 83.1609 110.506 83.7013C88.1354 89.6961 65.7669 95.6892 43.4002 101.684C41.3889 102.223 42.243 105.342 44.2578 104.801Z" fill="#B0BED9"/>
<path d="M46.3475 112.604C68.7177 106.611 91.088 100.616 113.458 94.6227C115.469 94.084 114.615 90.967 112.601 91.5057C90.2303 97.5005 67.8601 103.495 45.4898 109.487C43.4768 110.027 44.3327 113.144 46.3475 112.604Z" fill="#B0BED9"/>
<path d="M48.4388 120.406C70.8091 114.413 93.1793 108.42 115.55 102.427C117.561 101.888 116.707 98.7695 114.692 99.31C92.3216 105.305 69.9514 111.298 47.5811 117.289C45.5681 117.828 46.4222 120.945 48.4388 120.406Z" fill="#B0BED9"/>
<path d="M50.5274 128.212C65.875 124.101 81.2227 119.986 96.5685 115.873C98.5798 115.334 97.7257 112.217 95.7109 112.756C80.3632 116.869 65.0156 120.984 49.6697 125.095C47.6584 125.634 48.5126 128.752 50.5274 128.212Z" fill="#B0BED9"/>
<path d="M77.0902 53.3657C84.9616 51.2552 92.8348 49.1447 100.706 47.0377C102.717 46.499 101.863 43.382 99.8485 43.9207C91.9753 46.0294 84.1039 48.1382 76.2325 50.2487C74.2195 50.7874 75.0736 53.9044 77.0902 53.3657Z" fill="#B0BED9"/>
<path d="M79.1797 61.1685C87.0529 59.058 94.9261 56.9493 102.797 54.8406C104.809 54.3019 103.955 51.1831 101.94 51.7235C94.0667 53.834 86.1935 55.9428 78.3221 58.0515C76.3108 58.5902 77.1649 61.709 79.1797 61.1685Z" fill="#B0BED9"/>
<path d="M81.2703 68.9685C89.1435 66.8598 97.0167 64.7511 104.888 62.6423C106.899 62.1036 106.045 58.9848 104.03 59.5253C96.1573 61.634 88.2858 63.7445 80.4127 65.8515C78.3996 66.3919 79.2555 69.509 81.2703 68.9685Z" fill="#B0BED9"/>
<path d="M134.666 124.766L148 111.428V128.409L127.998 148.404L108 128.409V111.428L121.333 124.768V98.249H134.666V124.766Z" fill="#0D536E"/>
</svg>
