<svg width="118" height="130" viewBox="0 0 118 130" fill="none" xmlns="http://www.w3.org/2000/svg">
<path fill-rule="evenodd" clip-rule="evenodd" d="M8.32427 61.5982L106.688 47.7741C107.378 47.677 108.02 48.1585 108.118 48.8519L117.281 114.05C117.378 114.741 116.897 115.383 116.203 115.48L17.8398 129.304C17.149 129.402 16.507 128.92 16.4095 128.227L7.24649 63.0284C7.15169 62.3346 7.6335 61.6953 8.32427 61.5982Z" fill="#ECF2FF"/>
<path fill-rule="evenodd" clip-rule="evenodd" d="M117.043 114.981C116.849 115.241 116.553 115.429 116.205 115.478L17.8394 129.302C17.4913 129.351 17.155 129.252 16.897 129.055L51.2448 89.1075C51.7222 88.5907 52.532 88.55 53.0556 89.0183C53.1984 89.1472 53.3066 89.3 53.376 89.4664L71.0651 86.9803C71.086 86.8013 71.1478 86.6246 71.2495 86.4613C71.6242 85.8695 72.4135 85.6827 73.0148 86.048L117.043 114.981Z" fill="#CFDFFF"/>
<path d="M7.86175 63.9363C7.82651 63.9169 7.79318 63.8918 7.76022 63.8693L7.74507 63.8579L7.72992 63.8465C7.6447 63.7799 7.56898 63.7038 7.50315 63.621C7.49029 63.6065 7.4797 63.5891 7.46912 63.5716L7.46534 63.564L7.4521 63.5469L7.44226 63.5347L7.43886 63.5298C7.3519 63.393 7.29268 63.2415 7.2623 63.0832L7.26193 63.0805L7.25857 63.0566L7.25707 63.046L7.25483 63.03L7.25259 63.0141L7.25073 63.0008L7.24737 62.9769L7.24699 62.9742C7.23293 62.8164 7.24544 62.6548 7.29361 62.4963L7.29515 62.4879L7.30125 62.4735L7.30926 62.4534L7.31117 62.4477C7.31653 62.428 7.32492 62.4106 7.33027 62.3909C7.36806 62.2934 7.41987 62.1995 7.48609 62.1116L7.49751 62.0964L7.50893 62.0813C7.53404 62.048 7.56219 62.0169 7.58806 61.9889L21.0921 47.1514C21.5588 46.6361 22.3579 46.5969 22.871 47.0667C22.9516 47.1393 23.0201 47.2218 23.0784 47.3085L88.5689 38.1044C88.601 38.005 88.6441 37.9069 88.7016 37.8148C89.0683 37.2241 89.8443 37.0392 90.435 37.4059L107.506 47.9464C107.541 47.9685 107.574 47.9909 107.607 48.0134L107.622 48.0248L107.637 48.0362C107.723 48.1028 107.798 48.1789 107.864 48.2617C107.877 48.2762 107.888 48.2937 107.898 48.3111L107.902 48.3161L107.915 48.3332L107.925 48.3454L107.929 48.353C108.015 48.4897 108.075 48.6413 108.105 48.7996L108.105 48.8022L108.109 48.8261L108.111 48.8394L108.113 48.8553L108.115 48.8713L108.117 48.8819L108.12 48.9058L108.12 48.9085C108.134 49.0664 108.122 49.228 108.074 49.3865L108.072 49.3921L108.066 49.4065L108.058 49.4266L108.056 49.435C108.051 49.4547 108.042 49.4721 108.037 49.4919C107.999 49.5893 107.948 49.6833 107.881 49.7711L107.87 49.7863L107.858 49.8014C107.833 49.8348 107.805 49.8658 107.779 49.8938L64.3613 97.5943C63.9615 98.0461 63.2836 98.1576 62.7554 97.8309L7.86175 63.9363Z" fill="#B0BED9"/>
<path d="M94.6789 64.2874L64.3639 97.5942C63.9641 98.046 63.2862 98.1575 62.758 97.8308L24.422 74.1614C21.5943 54.0413 18.767 33.9239 15.9393 13.8038C15.8422 13.1131 16.3237 12.471 17.0171 12.3736L84.7659 2.85209C85.4567 2.755 86.0987 3.23643 86.1962 3.92986L94.6789 64.2874Z" fill="white"/>
<path d="M17.3813 24.0647L15.9397 13.8068C15.8426 13.116 16.324 12.4739 17.0174 12.3765L84.7663 2.85502C85.4571 2.75793 86.0991 3.23936 86.1965 3.93279L87.6382 14.1908L17.3813 24.0647Z" fill="#F6F6F6"/>
<path fill-rule="evenodd" clip-rule="evenodd" d="M53.7756 28.1336C53.0848 28.2306 52.4428 27.7492 52.3453 27.0558C52.2482 26.365 52.7297 25.723 53.4231 25.6255L75.937 22.4614C76.6277 22.3643 77.2698 22.8457 77.3672 23.5392C77.4643 24.2299 76.9829 24.872 76.2894 24.9694L53.7756 28.1336Z" fill="#757575"/>
<path fill-rule="evenodd" clip-rule="evenodd" d="M55.041 37.1375C54.3502 37.2345 53.7082 36.7531 53.6107 36.0597C53.5137 35.3689 53.9951 34.7269 54.6885 34.6294L77.2024 31.4653C77.8932 31.3682 78.5352 31.8497 78.6327 32.5431C78.7297 33.2339 78.2483 33.8759 77.5549 33.9733L55.041 37.1375Z" fill="#757575"/>
<path fill-rule="evenodd" clip-rule="evenodd" d="M33.793 49.3084C33.1022 49.4054 32.4602 48.924 32.3627 48.2306C32.2656 47.5398 32.7471 46.8978 33.4405 46.8003L78.4682 40.4721C79.159 40.375 79.801 40.8564 79.8985 41.5499C79.9955 42.2406 79.5141 42.8827 78.8207 42.9801L33.793 49.3084Z" fill="#757575"/>
<path fill-rule="evenodd" clip-rule="evenodd" d="M35.0587 58.3152C34.3679 58.4123 33.7259 57.9308 33.6285 57.2374C33.5314 56.5466 34.0128 55.9046 34.7062 55.8072L79.734 49.4789C80.4247 49.3818 81.0668 49.8633 81.1642 50.5567C81.2613 51.2475 80.7799 51.8895 80.0864 51.987L35.0587 58.3152Z" fill="#757575"/>
<path fill-rule="evenodd" clip-rule="evenodd" d="M36.3242 67.3191C35.6334 67.4162 34.9913 66.9348 34.8939 66.2413C34.7968 65.5506 35.2782 64.9085 35.9717 64.8111L53.9211 62.2884C54.6119 62.1914 55.2539 62.6728 55.3514 63.3662C55.4485 64.057 54.967 64.699 54.2736 64.7965L36.3242 67.3191Z" fill="#757575"/>
<path fill-rule="evenodd" clip-rule="evenodd" d="M37.59 76.325C36.8992 76.422 36.2572 75.9406 36.1597 75.2472C36.0626 74.5564 36.544 73.9144 37.2375 73.8169L55.1869 71.2943C55.8777 71.1972 56.5197 71.6786 56.6172 72.3721C56.7143 73.0628 56.2328 73.7049 55.5394 73.8023L37.59 76.325Z" fill="#757575"/>
<path fill-rule="evenodd" clip-rule="evenodd" d="M30.9092 28.7896L45.5297 26.7348C46.2205 26.6377 46.8625 27.1192 46.96 27.8126L48.2257 36.8192C48.3228 37.51 47.8414 38.152 47.148 38.2495L32.5275 40.3042C31.8367 40.4013 31.1947 39.9199 31.0972 39.2264L29.8315 30.2198C29.7344 29.5291 30.2185 28.8867 30.9092 28.7896Z" fill="#22AFE5"/>
<path fill-rule="evenodd" clip-rule="evenodd" d="M82.6177 69.9973L63.1459 72.7339C62.4551 72.831 61.8131 72.3496 61.7156 71.6561L60.4498 62.6495C60.3527 61.9588 60.8341 61.3167 61.5276 61.2193L80.9994 58.4827C81.6902 58.3856 82.3322 58.867 82.4296 59.5605L83.6954 68.5671C83.7929 69.2605 83.3084 69.9002 82.6177 69.9973Z" fill="#4FB848"/>
</svg>
