<svg width="512" height="512" viewBox="0 0 512 512" fill="none" xmlns="http://www.w3.org/2000/svg">
<g clip-path="url(#clip0_4883_47744)">
<g clip-path="url(#clip1_4883_47744)">
<g clip-path="url(#clip2_4883_47744)">
<path d="M218.631 259.125L209.71 160.48C209.523 158.416 207.788 156.833 205.71 156.833H173.267C171.188 156.833 169.453 158.416 169.266 160.48L158.959 274.449L218.631 259.125Z" fill="#F7A1E5"/>
<path d="M322.664 232.409L314.168 138.457C313.981 136.392 312.245 134.81 310.167 134.81H277.724C275.645 134.81 273.91 136.392 273.724 138.457L263.861 247.509L322.664 232.409Z" fill="#F7A1E5"/>
<path d="M359 439.703H17.036V314C17.036 312.172 18.2767 310.576 20.0514 310.121L353.981 224.368C356.523 223.715 359 225.63 359 228.248V439.703Z" fill="#CFDFFF"/>
<path d="M186.614 341.298H202.646C204.864 341.298 206.663 339.504 206.663 337.292V315.332C206.663 313.12 204.864 311.326 202.646 311.326H186.614C184.396 311.326 182.597 313.12 182.597 315.332V337.292C182.597 339.505 184.395 341.298 186.614 341.298Z" fill="#E5EDFF"/>
<path d="M186.614 402.649H202.646C204.864 402.649 206.663 400.855 206.663 398.643V376.683C206.663 374.47 204.864 372.676 202.646 372.676H186.614C184.396 372.676 182.597 374.47 182.597 376.683V398.643C182.597 400.855 184.395 402.649 186.614 402.649Z" fill="#E5EDFF"/>
<path d="M247.618 341.298H263.649C265.868 341.298 267.666 339.504 267.666 337.292V315.332C267.666 313.12 265.868 311.326 263.649 311.326H247.618C245.399 311.326 243.601 313.12 243.601 315.332V337.292C243.6 339.505 245.399 341.298 247.618 341.298Z" fill="#E5EDFF"/>
<path d="M247.618 402.649H263.649C265.868 402.649 267.666 400.855 267.666 398.643V376.683C267.666 374.47 265.868 372.676 263.649 372.676H247.618C245.399 372.676 243.601 374.47 243.601 376.683V398.643C243.6 400.855 245.399 402.649 247.618 402.649Z" fill="#E5EDFF"/>
<path d="M308.62 341.298H324.652C326.87 341.298 328.669 339.504 328.669 337.292V315.332C328.669 313.12 326.87 311.326 324.652 311.326H308.62C306.402 311.326 304.603 313.12 304.603 315.332V337.292C304.603 339.505 306.402 341.298 308.62 341.298Z" fill="#E5EDFF"/>
<path d="M308.62 402.649H324.652C326.87 402.649 328.669 400.855 328.669 398.643V376.683C328.669 374.47 326.87 372.676 324.652 372.676H308.62C306.402 372.676 304.603 374.47 304.603 376.683V398.643C304.603 400.855 306.402 402.649 308.62 402.649Z" fill="#E5EDFF"/>
<path d="M211.974 185.507L209.71 160.48C209.524 158.416 207.788 156.833 205.71 156.833H173.267C171.188 156.833 169.452 158.416 169.266 160.48L167.002 185.507H211.974Z" fill="#EB13BE"/>
<path d="M316.431 163.483L314.168 138.457C313.981 136.392 312.245 134.81 310.167 134.81H277.724C275.645 134.81 273.91 136.392 273.724 138.457L271.46 163.483H316.431Z" fill="#EB13BE"/>
<path d="M316.431 163.483L314.168 138.457C313.981 136.392 312.245 134.81 310.167 134.81H277.724C275.645 134.81 273.91 136.392 273.724 138.457L271.46 163.483H316.431Z" fill="#EB13BE"/>
</g>
<path d="M88.3824 224.743V259.608C88.3824 261.183 87.1117 262.454 85.5375 262.454C83.9627 262.454 82.6913 261.183 82.6913 259.608V224.743C82.6913 223.169 83.9627 221.898 85.5375 221.898C87.1117 221.898 88.3824 223.169 88.3824 224.743Z" fill="#4F5D99"/>
<path d="M151.349 271.101V440.102H20.5391V271.101C20.5391 268.049 23.0128 265.576 26.0643 265.576H145.824C148.875 265.576 151.349 268.049 151.349 271.101Z" fill="#A25AF1"/>
<path d="M131.714 253.374V265.575H40.1738V253.374C40.1738 250.322 42.6475 247.849 45.699 247.849H126.189C129.24 247.849 131.714 250.322 131.714 253.374Z" fill="#7A13EB"/>
<path d="M134.933 368.802C136.259 368.802 137.363 369.879 137.364 371.205V384.329C137.363 385.655 136.259 386.76 134.933 386.76H36.9427C35.617 386.76 34.5397 385.655 34.5394 384.329V371.205C34.5397 369.879 35.617 368.802 36.9427 368.802H134.933ZM134.933 339.334C136.259 339.334 137.364 340.411 137.364 341.737V354.86C137.364 356.186 136.259 357.291 134.933 357.291H36.9427C35.6169 357.291 34.5394 356.186 34.5394 354.86V341.737C34.5394 340.411 35.6169 339.334 36.9427 339.334H134.933ZM134.933 310.017C136.259 310.017 137.364 311.094 137.364 312.42V325.543C137.364 326.869 136.259 327.973 134.933 327.974H36.9427C35.6169 327.973 34.5394 326.869 34.5394 325.543V312.42C34.5395 311.094 35.6169 310.017 36.9427 310.017H134.933ZM134.933 280.549C136.259 280.549 137.363 281.626 137.364 282.952V296.075C137.364 297.401 136.259 298.506 134.933 298.506H36.9427C35.6169 298.506 34.5394 297.401 34.5394 296.075V282.952C34.5396 281.626 35.617 280.549 36.9427 280.549H134.933Z" fill="#E5EDFF"/>
<path d="M42.2426 386.76H36.9427C35.617 386.76 34.5397 385.655 34.5394 384.329V371.205C34.5397 369.879 35.617 368.802 36.9427 368.802H52.6117L42.2426 386.76ZM59.5502 386.76H49.5941L59.9681 368.802H69.9164L59.5502 386.76ZM134.933 368.802C136.259 368.802 137.363 369.879 137.364 371.205V384.329C137.363 385.655 136.259 386.76 134.933 386.76H75.2318L85.5814 368.802H134.933ZM59.2582 357.291H36.9427C35.6169 357.291 34.5394 356.186 34.5394 354.86V341.737C34.5394 340.411 35.6169 339.334 36.9427 339.334H69.6263L59.2582 357.291ZM76.5599 357.291H66.6176L76.9906 339.334H86.9252L76.5599 357.291ZM134.933 339.334C136.259 339.334 137.364 340.411 137.364 341.737V354.86C137.364 356.186 136.259 357.291 134.933 357.291H92.2162L102.565 339.334H134.933ZM76.1869 327.974H36.9427C35.6169 327.973 34.5394 326.869 34.5394 325.543V312.42C34.5395 311.094 35.6169 310.017 36.9427 310.017H86.5551L76.1869 327.974ZM93.4828 327.974H83.5531L93.9261 310.017H103.848L93.4828 327.974ZM134.933 310.017C136.259 310.017 137.364 311.094 137.364 312.42V325.543C137.364 326.869 136.259 327.973 134.933 327.974H109.113L119.461 310.017H134.933ZM93.2015 298.506H36.9427C35.6169 298.506 34.5394 297.401 34.5394 296.075V282.952C34.5396 281.626 35.617 280.549 36.9427 280.549H103.571L93.2015 298.506ZM110.493 298.506H100.576L110.949 280.549H120.858L110.493 298.506ZM136.227 280.925C136.906 281.352 137.364 282.1 137.364 282.952V296.075C137.364 297.401 136.259 298.506 134.933 298.506H126.095L136.227 280.925Z" fill="#CFDFFF"/>
<path d="M106.478 400.596V440.102H65.4249V400.596C65.4249 399.325 66.4751 398.275 67.7458 398.275H104.13C105.427 398.275 106.478 399.325 106.478 400.596Z" fill="#E5EDFF"/>
<path d="M84.6649 398.274H87.2357V440.101H84.6649V398.274Z" fill="#B0BED9"/>
<path d="M56.06 399.767V418.718C56.06 419.547 55.397 420.21 54.5681 420.21H36.0311C35.2022 420.21 34.5392 419.547 34.5392 418.718V399.767C34.5392 398.938 35.2022 398.275 36.0311 398.275H54.5681C55.397 398.275 56.06 398.938 56.06 399.767Z" fill="#E5EDFF"/>
<path d="M137.363 399.767V418.718C137.363 419.547 136.7 420.21 135.871 420.21H117.334C116.506 420.21 115.843 419.547 115.843 418.718V399.767C115.843 398.938 116.506 398.275 117.334 398.275H135.871C136.7 398.275 137.363 398.938 137.363 399.767Z" fill="#E5EDFF"/>
<path fill-rule="evenodd" clip-rule="evenodd" d="M488.162 439.921H363.197C361.085 439.921 359.357 438.193 359.357 436.082V262.358C359.357 244.122 388.535 229.725 425.584 229.725C462.824 229.725 492.002 244.122 492.002 262.358V436.082C492.002 438.193 490.274 439.921 488.162 439.921Z" fill="#137FEB"/>
<path d="M450.793 390.78V439.823H399.83V390.78C399.83 389.202 401.133 387.899 402.711 387.899H447.878C449.489 387.899 450.793 389.202 450.793 390.78Z" fill="#CFDFFF"/>
<path d="M423.714 387.897H426.906V439.821H423.714V387.897Z" fill="#137FEB"/>
<path fill-rule="evenodd" clip-rule="evenodd" d="M359.357 279.058V263.318C369.147 254.295 393.334 247.001 425.583 247.001C457.833 247.001 482.02 254.295 492.001 263.126V279.058C477.604 270.612 453.418 265.237 425.583 265.237C397.749 265.237 373.754 270.612 359.357 279.058Z" fill="#CFDFFF"/>
<path fill-rule="evenodd" clip-rule="evenodd" d="M359.357 331.656V315.339C369.147 306.509 393.334 299.022 425.583 299.022C457.833 299.022 482.02 306.509 492.001 315.339V331.464C477.604 323.017 453.418 317.643 425.583 317.643C397.749 317.643 373.754 323.017 359.357 331.656Z" fill="#CFDFFF"/>
<path fill-rule="evenodd" clip-rule="evenodd" d="M359.357 357.762V341.638C369.147 332.808 393.334 325.321 425.583 325.321C457.833 325.321 482.02 332.616 492.001 341.638V357.762C477.604 349.316 453.418 343.749 425.583 343.749C397.749 343.749 373.754 349.316 359.357 357.762Z" fill="#CFDFFF"/>
<path fill-rule="evenodd" clip-rule="evenodd" d="M359.357 384.06V367.743C369.147 358.913 393.334 351.427 425.583 351.427C457.833 351.427 482.02 358.913 492.001 367.743V384.06C477.604 375.422 453.418 370.047 425.583 370.047C397.749 370.047 373.754 375.422 359.357 384.06Z" fill="#CFDFFF"/>
<path fill-rule="evenodd" clip-rule="evenodd" d="M359.357 305.55V289.233C369.147 280.403 393.334 272.917 425.583 272.917C457.833 272.917 482.02 280.403 492.001 289.233V305.358C477.604 296.911 453.418 291.537 425.583 291.537C397.749 291.537 373.754 296.911 359.357 305.55Z" fill="#CFDFFF"/>
<path fill-rule="evenodd" clip-rule="evenodd" d="M447.851 248.152C450.154 248.536 452.458 248.728 454.761 249.112L444.971 266.005C442.668 265.813 440.172 265.621 437.869 265.429L447.851 248.152Z" fill="#E5EDFF"/>
<path fill-rule="evenodd" clip-rule="evenodd" d="M418.481 299.214C420.784 299.022 423.28 299.022 425.583 299.022H425.967L415.026 317.834C412.338 318.026 409.843 318.218 407.347 318.41L418.481 299.214Z" fill="#E5EDFF"/>
<path fill-rule="evenodd" clip-rule="evenodd" d="M402.548 326.664C405.044 326.28 407.731 326.088 410.419 325.896L399.093 345.668C396.214 346.052 393.526 346.436 390.839 347.012L402.548 326.664Z" fill="#E5EDFF"/>
<path fill-rule="evenodd" clip-rule="evenodd" d="M385.656 355.843C388.343 355.267 391.223 354.691 394.102 354.115L382.009 375.039C378.745 375.999 375.866 376.766 372.986 377.726L385.656 355.843Z" fill="#E5EDFF"/>
<path fill-rule="evenodd" clip-rule="evenodd" d="M433.454 273.107C435.949 273.299 438.253 273.299 440.556 273.491L430.19 291.536C428.655 291.536 427.119 291.536 425.583 291.536C424.816 291.536 423.856 291.536 422.896 291.536L433.454 273.107Z" fill="#E5EDFF"/>
<path fill-rule="evenodd" clip-rule="evenodd" d="M463.783 250.841C468.774 251.993 473.189 253.336 477.221 254.872L468.582 270.037C464.167 268.885 459.368 267.925 454.377 267.157L463.783 250.841Z" fill="#E5EDFF"/>
<path fill-rule="evenodd" clip-rule="evenodd" d="M435.949 299.406C441.132 299.598 446.123 299.982 450.73 300.749L440.748 318.218C435.949 317.834 430.766 317.642 425.583 317.642H425.391L435.949 299.406Z" fill="#E5EDFF"/>
<path fill-rule="evenodd" clip-rule="evenodd" d="M420.976 325.321H425.583C429.423 325.321 432.878 325.321 436.525 325.513L425.967 343.749H425.583C420.208 343.749 415.026 343.941 409.843 344.517L420.976 325.321Z" fill="#E5EDFF"/>
<path fill-rule="evenodd" clip-rule="evenodd" d="M405.236 352.579C410.227 352.003 415.793 351.619 421.36 351.619L410.419 370.623C404.468 371.007 398.901 371.775 393.526 372.735L405.236 352.579Z" fill="#E5EDFF"/>
<path fill-rule="evenodd" clip-rule="evenodd" d="M450.346 274.451C455.337 275.219 460.136 275.987 464.359 277.139L454.953 293.647C450.154 292.879 445.163 292.303 440.172 292.111L450.346 274.451Z" fill="#E5EDFF"/>
</g>
</g>
<defs>
<clipPath id="clip0_4883_47744">
<rect width="512" height="512" fill="white"/>
</clipPath>
<clipPath id="clip1_4883_47744">
<rect width="512" height="512" fill="white"/>
</clipPath>
<clipPath id="clip2_4883_47744">
<rect width="222" height="305" fill="white" transform="translate(137 135)"/>
</clipPath>
</defs>
</svg>
