<svg width="512" height="512" viewBox="0 0 512 512" fill="none" xmlns="http://www.w3.org/2000/svg">
<path d="M150.594 336.927V418.318H35.2487V336.927L92.9212 288.063L150.594 336.927Z" fill="#ECF2FF"/>
<path fill-rule="evenodd" clip-rule="evenodd" d="M91.4296 282.068C92.3725 281.267 93.7568 281.268 94.6991 282.069L163.57 340.659C164.632 341.562 164.76 343.155 163.857 344.217L159.837 348.943C158.933 350.005 157.34 350.133 156.278 349.23L94.693 296.838C93.7507 296.037 92.3663 296.036 91.4234 296.837L29.5617 349.375C28.4992 350.278 26.9062 350.148 26.0038 349.085L21.9872 344.356C21.0848 343.293 21.2146 341.7 22.2772 340.798L91.4296 282.068Z" fill="#EA1447"/>
<path d="M76.1164 418.451V360.835C76.1164 359.561 76.6223 358.34 77.5227 357.439C78.4232 356.539 79.6444 356.033 80.9178 356.033H104.925C106.198 356.033 107.419 356.539 108.32 357.439C109.22 358.34 109.726 359.561 109.726 360.835V418.451H76.1164Z" fill="#F37E9A"/>
<path d="M88.1198 394.444H85.7191C85.0824 394.444 84.4718 394.191 84.0216 393.741C83.5714 393.291 83.3185 392.68 83.3185 392.043C83.3185 391.407 83.5714 390.796 84.0216 390.346C84.4718 389.896 85.0824 389.643 85.7191 389.643H88.1198C88.7565 389.643 89.3671 389.896 89.8173 390.346C90.2676 390.796 90.5205 391.407 90.5205 392.043C90.5205 392.68 90.2676 393.291 89.8173 393.741C89.3671 394.191 88.7565 394.444 88.1198 394.444Z" fill="#C7113C"/>
<path d="M138.534 356.033H121.729C120.404 356.033 119.329 357.108 119.329 358.434V384.841C119.329 386.167 120.404 387.242 121.729 387.242H138.534C139.86 387.242 140.935 386.167 140.935 384.841V358.434C140.935 357.108 139.86 356.033 138.534 356.033Z" fill="#CFDFFF"/>
<path d="M64.113 356.033H47.3083C45.9824 356.033 44.9076 357.108 44.9076 358.434V384.841C44.9076 386.167 45.9824 387.242 47.3083 387.242H64.113C65.4389 387.242 66.5137 386.167 66.5137 384.841V358.434C66.5137 357.108 65.4389 356.033 64.113 356.033Z" fill="#CFDFFF"/>
<path d="M250.757 99.9085V151.421C250.757 153.749 248.879 155.627 246.553 155.627C244.226 155.627 242.348 153.749 242.348 151.421V99.9085C242.348 97.5825 244.226 95.7051 246.553 95.7051C248.879 95.7051 250.757 97.5825 250.757 99.9085Z" fill="#4F5D99"/>
<path d="M343.79 168.402V418.104H150.517V168.402C150.517 163.894 154.172 160.239 158.68 160.239H335.627C340.135 160.239 343.79 163.894 343.79 168.402Z" fill="#A25AF1"/>
<path d="M314.78 142.21V160.238H179.527V142.21C179.527 137.702 183.182 134.047 187.691 134.047H306.616C311.125 134.047 314.78 137.702 314.78 142.21Z" fill="#7A13EB"/>
<path fill-rule="evenodd" clip-rule="evenodd" d="M319.535 312.757C321.494 312.757 323.127 314.35 323.127 316.309V335.699C323.127 337.658 321.494 339.29 319.535 339.29H174.754C172.795 339.289 171.202 337.658 171.202 335.699V316.309C171.202 314.35 172.795 312.757 174.754 312.757H319.535ZM319.535 269.217C321.494 269.217 323.127 270.81 323.127 272.769V292.159C323.127 294.118 321.494 295.75 319.535 295.75H174.754C172.795 295.75 171.202 294.118 171.202 292.159V272.769C171.202 270.81 172.795 269.217 174.754 269.217H319.535ZM319.535 225.901C321.494 225.901 323.127 227.493 323.127 229.453V248.842C323.127 250.801 321.494 252.433 319.535 252.433H174.754C172.795 252.433 171.202 250.801 171.202 248.842V229.453C171.202 227.494 172.795 225.901 174.754 225.901H319.535ZM319.535 182.362C321.494 182.362 323.127 183.954 323.127 185.914V205.303C323.127 207.262 321.494 208.894 319.535 208.894H174.754C172.795 208.894 171.202 207.262 171.202 205.303V185.914C171.202 183.954 172.795 182.362 174.754 182.362H319.535Z" fill="#E5EDFF"/>
<path fill-rule="evenodd" clip-rule="evenodd" d="M182.585 339.29H174.754C172.795 339.289 171.202 337.658 171.202 335.699V316.309C171.202 314.35 172.795 312.757 174.754 312.757H197.905L182.585 339.29ZM208.156 339.29H193.446L208.773 312.757H223.472L208.156 339.29ZM319.535 312.757C321.494 312.757 323.127 314.35 323.127 316.309V335.699C323.127 337.658 321.494 339.29 319.535 339.29H231.326L246.618 312.757H319.535ZM207.724 295.75H174.754C172.795 295.75 171.202 294.118 171.202 292.159V272.769C171.202 270.81 172.795 269.217 174.754 269.217H223.046L207.724 295.75ZM233.288 295.75H218.598L233.925 269.217H248.604L233.288 295.75ZM319.535 269.217C321.494 269.217 323.127 270.81 323.127 272.769V292.159C323.127 294.118 321.494 295.75 319.535 295.75H256.419L271.711 269.217H319.535ZM232.737 252.433H174.754C172.795 252.433 171.202 250.801 171.202 248.842V229.453C171.202 227.494 172.795 225.901 174.754 225.901H248.056L232.737 252.433ZM258.293 252.433H243.621L258.947 225.901H273.607L258.293 252.433ZM319.535 225.901C321.494 225.901 323.127 227.493 323.127 229.453V248.842C323.127 250.801 321.494 252.433 319.535 252.433H281.385L296.676 225.901H319.535ZM257.877 208.894H174.754C172.795 208.894 171.202 207.262 171.202 205.303V185.914C171.202 183.954 172.795 182.362 174.754 182.362H273.197L257.877 208.894ZM283.425 208.894H268.771L284.098 182.362H298.739L283.425 208.894ZM321.448 182.917C322.451 183.547 323.127 184.654 323.127 185.914V205.303C323.127 207.262 321.494 208.894 319.535 208.894H306.477L321.448 182.917Z" fill="#CFDFFF"/>
<path d="M277.492 359.733V418.104H216.836V359.733C216.836 357.856 218.388 356.305 220.266 356.305H274.023C275.941 356.305 277.492 357.856 277.492 359.733Z" fill="#E5EDFF"/>
<path d="M245.264 356.303H249.062V418.103H245.264V356.303Z" fill="#B0BED9"/>
<path d="M203 358.51V386.51C203 387.734 202.02 388.714 200.795 388.714H173.407C172.182 388.714 171.202 387.734 171.202 386.51V358.51C171.202 357.284 172.182 356.305 173.407 356.305H200.795C202.02 356.305 203 357.284 203 358.51Z" fill="#E5EDFF"/>
<path d="M323.127 358.51V386.51C323.127 387.734 322.147 388.714 320.922 388.714H293.534C292.309 388.714 291.329 387.734 291.329 386.51V358.51C291.329 357.284 292.309 356.305 293.534 356.305H320.922C322.147 356.305 323.127 357.284 323.127 358.51Z" fill="#E5EDFF"/>
<path d="M479.895 301.881V418.043H291.133V301.881L366.565 251.061L379.597 232.402C380.929 230.443 383.145 229.27 385.514 229.27C387.883 229.27 390.099 230.443 391.431 232.402L404.463 251.061L479.895 301.881Z" fill="#ECF2FF"/>
<path d="M385.514 359.962V418.043H356.474V374.483C356.474 366.463 362.975 359.962 370.994 359.962H385.514Z" fill="#CFDFFF"/>
<path d="M414.554 374.483V418.043H385.514V359.962H400.034C408.053 359.962 414.554 366.463 414.554 374.483Z" fill="#CFDFFF"/>
<path d="M385.514 330.922C401.553 330.922 414.554 317.92 414.554 301.882C414.554 285.843 401.553 272.841 385.514 272.841C369.475 272.841 356.474 285.843 356.474 301.882C356.474 317.92 369.475 330.922 385.514 330.922Z" fill="white"/>
<path d="M378.254 312.772C376.786 312.771 375.463 311.887 374.901 310.531C374.339 309.174 374.65 307.613 375.687 306.575L381.884 300.379V290.991C381.884 288.987 383.509 287.361 385.514 287.361C387.519 287.361 389.144 288.987 389.144 290.991V301.882C389.144 302.844 388.761 303.767 388.08 304.448L380.82 311.708C380.14 312.389 379.217 312.771 378.254 312.772Z" fill="#475167"/>
<path d="M323.803 367.222C329.818 367.222 334.693 372.098 334.693 378.112V392.633C334.693 394.637 333.068 396.263 331.063 396.263H316.543C314.538 396.263 312.913 394.637 312.913 392.633V378.112C312.913 372.098 317.789 367.222 323.803 367.222Z" fill="#CFDFFF"/>
<path d="M323.803 323.662C329.818 323.662 334.693 328.538 334.693 334.552V349.072C334.693 351.077 333.068 352.703 331.063 352.703H316.543C314.538 352.703 312.913 351.077 312.913 349.072V334.552C312.913 328.538 317.789 323.662 323.803 323.662Z" fill="#CFDFFF"/>
<path d="M447.225 367.222C453.239 367.222 458.115 372.098 458.115 378.112V392.633C458.115 394.637 456.49 396.263 454.485 396.263H439.965C437.96 396.263 436.335 394.637 436.335 392.633V378.112C436.335 372.098 441.21 367.222 447.225 367.222Z" fill="#CFDFFF"/>
<path d="M447.225 323.662C453.239 323.662 458.115 328.538 458.115 334.552V349.072C458.115 351.077 456.49 352.703 454.485 352.703H439.965C437.96 352.703 436.335 351.077 436.335 349.072V334.552C436.335 328.538 441.21 323.662 447.225 323.662Z" fill="#CFDFFF"/>
<path d="M385.514 334.552C367.471 334.552 352.844 319.925 352.844 301.881C352.844 283.838 367.471 269.211 385.514 269.211C403.557 269.211 418.184 283.838 418.184 301.881C418.164 319.917 403.549 334.532 385.514 334.552ZM385.514 276.471C371.48 276.471 360.104 287.848 360.104 301.881C360.104 315.915 371.48 327.292 385.514 327.292C399.548 327.292 410.924 315.915 410.924 301.881C410.908 287.854 399.541 276.487 385.514 276.471Z" fill="#B0BED9"/>
<path d="M366.565 251.061L331.063 301.882H283.873C282.69 301.881 281.582 301.305 280.902 300.336C280.223 299.368 280.058 298.13 280.46 297.018L293.42 260.681C295.491 254.905 300.969 251.054 307.105 251.061L366.565 251.061Z" fill="#13BAEC"/>
<path d="M487.155 301.882H439.965L404.463 251.061L463.923 251.061C470.059 251.054 475.537 254.905 477.608 260.681L490.568 297.018C490.97 298.13 490.805 299.368 490.126 300.336C489.446 301.305 488.338 301.881 487.155 301.882Z" fill="#13BAEC"/>
<path fill-rule="evenodd" clip-rule="evenodd" d="M400.036 356.333C410.055 356.345 418.174 364.464 418.186 374.483V418.044C418.186 418.11 418.184 418.176 418.18 418.241H410.932C410.929 418.176 410.926 418.11 410.926 418.044V374.483C410.926 368.469 406.05 363.593 400.036 363.593H370.996C364.981 363.593 360.105 368.469 360.105 374.483V418.044C360.105 418.11 360.104 418.176 360.1 418.241H352.851C352.847 418.176 352.845 418.11 352.845 418.044V374.483C352.857 364.464 360.976 356.345 370.996 356.333H400.036Z" fill="#B0BED9"/>
</svg>
