<svg width="512" height="512" viewBox="0 0 512 512" fill="none" xmlns="http://www.w3.org/2000/svg">
<path d="M386.865 217.606V421.747H55.1356V217.606L187.7 128.295L210.602 95.5046C212.943 92.0612 216.836 90 221 90C225.164 90 229.058 92.0612 231.398 95.5046L254.301 128.295L386.865 217.606Z" fill="#ECF2FF"/>
<path d="M221 319.677V421.747H169.965V345.194C169.965 331.101 181.389 319.677 195.482 319.677H221Z" fill="#CFDFFF"/>
<path d="M272.035 345.194V421.747H221V319.677H246.518C260.611 319.677 272.035 331.101 272.035 345.194Z" fill="#CFDFFF"/>
<path d="M221 268.641C249.186 268.641 272.035 245.792 272.035 217.606C272.035 189.42 249.186 166.571 221 166.571C192.814 166.571 169.965 189.42 169.965 217.606C169.965 245.792 192.814 268.641 221 268.641Z" fill="white"/>
<path d="M208.241 236.745C205.661 236.744 203.336 235.19 202.349 232.806C201.362 230.423 201.907 227.68 203.731 225.855L214.621 214.965V198.468C214.621 194.945 217.477 192.089 221 192.089C224.523 192.089 227.379 194.945 227.379 198.468V217.606C227.379 219.298 226.707 220.921 225.51 222.117L212.751 234.876C211.555 236.072 209.933 236.744 208.241 236.745Z" fill="#475167"/>
<path d="M112.55 332.435C123.12 332.435 131.688 341.003 131.688 351.573V377.09C131.688 380.614 128.832 383.47 125.309 383.47H99.7913C96.2681 383.47 93.4119 380.614 93.4119 377.09V351.573C93.4119 341.003 101.98 332.435 112.55 332.435Z" fill="#CFDFFF"/>
<path d="M112.55 255.882C123.12 255.882 131.688 264.451 131.688 275.021V300.538C131.688 304.061 128.832 306.918 125.309 306.918H99.7913C96.2681 306.918 93.4119 304.061 93.4119 300.538V275.021C93.4119 264.451 101.98 255.882 112.55 255.882Z" fill="#CFDFFF"/>
<path d="M329.45 332.435C340.02 332.435 348.588 341.003 348.588 351.573V377.09C348.588 380.614 345.732 383.47 342.209 383.47H316.691C313.168 383.47 310.312 380.614 310.312 377.09V351.573C310.312 341.003 318.88 332.435 329.45 332.435Z" fill="#CFDFFF"/>
<path d="M329.45 255.882C340.02 255.882 348.588 264.451 348.588 275.021V300.538C348.588 304.061 345.732 306.918 342.209 306.918H316.691C313.168 306.918 310.312 304.061 310.312 300.538V275.021C310.312 264.451 318.88 255.882 329.45 255.882Z" fill="#CFDFFF"/>
<path d="M221 275.021C189.291 275.021 163.585 249.315 163.585 217.606C163.585 185.897 189.291 160.191 221 160.191C252.709 160.191 278.415 185.897 278.415 217.606C278.38 249.301 252.695 274.986 221 275.021ZM221 172.95C196.337 172.95 176.344 192.943 176.344 217.606C176.344 242.269 196.337 262.262 221 262.262C245.663 262.262 265.656 242.269 265.656 217.606C265.628 192.955 245.651 172.978 221 172.95Z" fill="#B0BED9"/>
<path d="M187.7 128.295L125.309 217.607H42.3767C40.2983 217.606 38.3505 216.592 37.1569 214.891C35.9633 213.189 35.6734 211.013 36.3801 209.058L59.1546 145.2C62.794 135.05 72.4214 128.282 83.2049 128.295L187.7 128.295Z" fill="#13BAEC"/>
<path d="M399.623 217.607H316.691L254.301 128.295L358.795 128.295C369.579 128.282 379.206 135.05 382.846 145.2L405.62 209.058C406.327 211.013 406.037 213.189 404.843 214.891C403.65 216.592 401.702 217.606 399.623 217.607Z" fill="#13BAEC"/>
<path d="M246.521 313.298C264.128 313.32 278.396 327.588 278.417 345.196V421.749C278.417 421.865 278.415 421.98 278.409 422.095H265.668C265.662 421.98 265.659 421.865 265.659 421.749V345.196C265.659 334.626 257.09 326.057 246.521 326.057H195.486C184.916 326.057 176.347 334.626 176.347 345.196V421.749C176.347 421.865 176.344 421.98 176.338 422.095H163.598C163.592 421.98 163.588 421.865 163.588 421.749V345.196C163.609 327.588 177.878 313.319 195.486 313.298H246.521Z" fill="#B0BED9"/>
<rect width="11.5363" height="91.3288" rx="5.76813" transform="matrix(-1 0 0 1 445.345 331.091)" fill="#59C939"/>
<path d="M406.458 324.434C407.745 322.643 408.054 320.345 407.352 318.253C406.196 314.81 405.569 311.125 405.569 307.292C405.569 298.264 409.042 290.051 414.719 283.92C416.226 282.293 416.795 280.018 416.344 277.844C415.941 275.898 415.773 273.867 415.871 271.78C416.463 259.228 426.786 249.16 439.311 248.901C452.783 248.622 463.791 259.492 463.791 272.941C463.791 274.664 463.61 276.345 463.265 277.964C462.813 280.095 463.44 282.326 464.918 283.922C470.594 290.053 474.066 298.265 474.066 307.292C474.066 311.125 473.44 314.811 472.284 318.253C471.58 320.351 471.897 322.652 473.187 324.448C478.048 331.216 480.913 339.522 480.916 348.5C480.923 370.931 462.788 389.405 440.426 389.73C417.45 390.063 398.72 371.482 398.72 348.513C398.72 339.524 401.589 331.208 406.458 324.434Z" fill="#A4E192"/>
<rect width="15.3817" height="91.3288" rx="7.69084" transform="matrix(-1 0 0 1 394.875 330.577)" fill="#4CAB30"/>
<path d="M350.462 314.984C351.87 313.04 352.207 310.547 351.439 308.276C350.176 304.54 349.49 300.539 349.49 296.379C349.49 286.582 353.287 277.667 359.496 271.013C361.144 269.247 361.766 266.779 361.274 264.418C360.833 262.307 360.648 260.103 360.756 257.837C361.404 244.215 372.692 233.287 386.389 233.006C401.122 232.703 413.16 244.501 413.16 259.097C413.16 260.967 412.961 262.791 412.585 264.549C412.09 266.861 412.776 269.283 414.392 271.015C420.6 277.669 424.396 286.582 424.396 296.379C424.396 300.539 423.711 304.54 422.447 308.276C421.677 310.553 422.024 313.049 423.435 314.999C428.751 322.345 431.884 331.36 431.887 341.104C431.894 365.449 412.063 385.499 387.609 385.851C362.483 386.212 342 366.046 342 341.117C341.999 331.362 345.137 322.336 350.462 314.984Z" fill="#59C939"/>
</svg>
