<svg width="512" height="512" viewBox="0 0 512 512" fill="none" xmlns="http://www.w3.org/2000/svg">
<path d="M223.143 135.962H463.13V438H223.143V135.962Z" fill="#ECF2FF"/>
<path d="M462.706 148.517H387.188V123.344H462.706C466.044 123.344 469.245 124.67 471.605 127.031C473.966 129.391 475.292 132.592 475.292 135.93C475.292 139.268 473.966 142.47 471.605 144.83C469.245 147.191 466.044 148.517 462.706 148.517Z" fill="#CD5AF1"/>
<path d="M223.568 85.5864H399.775V438H223.568V85.5864Z" fill="#CFDFFF"/>
<path d="M338.912 385.427V438H284.281V385.427C284.281 383.736 285.678 382.34 287.369 382.34H335.787C337.514 382.34 338.912 383.736 338.912 385.427Z" fill="#E5EDFF"/>
<path d="M309.884 382.337H313.305V437.999H309.884V382.337Z" fill="#CFDFFF"/>
<path d="M267.62 129.638H255.033C251.558 129.638 248.74 132.456 248.74 135.931V148.517C248.74 151.993 251.558 154.811 255.033 154.811H267.62C271.095 154.811 273.913 151.993 273.913 148.517V135.931C273.913 132.456 271.095 129.638 267.62 129.638Z" fill="#E5EDFF"/>
<path d="M317.964 129.638H305.378C301.902 129.638 299.085 132.456 299.085 135.931V148.517C299.085 151.993 301.902 154.811 305.378 154.811H317.964C321.44 154.811 324.257 151.993 324.257 148.517V135.931C324.257 132.456 321.44 129.638 317.964 129.638Z" fill="#E5EDFF"/>
<path d="M368.309 129.638H355.723C352.247 129.638 349.43 132.456 349.43 135.931V148.517C349.43 151.993 352.247 154.811 355.723 154.811H368.309C371.785 154.811 374.602 151.993 374.602 148.517V135.931C374.602 132.456 371.785 129.638 368.309 129.638Z" fill="#E5EDFF"/>
<path d="M267.62 179.983H255.033C251.558 179.983 248.74 182.801 248.74 186.276V198.863C248.74 202.338 251.558 205.156 255.033 205.156H267.62C271.095 205.156 273.913 202.338 273.913 198.863V186.276C273.913 182.801 271.095 179.983 267.62 179.983Z" fill="#E5EDFF"/>
<path d="M317.964 179.983H305.378C301.902 179.983 299.085 182.801 299.085 186.276V198.863C299.085 202.338 301.902 205.156 305.378 205.156H317.964C321.44 205.156 324.257 202.338 324.257 198.863V186.276C324.257 182.801 321.44 179.983 317.964 179.983Z" fill="#E5EDFF"/>
<path d="M368.309 179.983H355.723C352.247 179.983 349.43 182.801 349.43 186.276V198.863C349.43 202.338 352.247 205.156 355.723 205.156H368.309C371.785 205.156 374.602 202.338 374.602 198.863V186.276C374.602 182.801 371.785 179.983 368.309 179.983Z" fill="#E5EDFF"/>
<path d="M267.62 230.328H255.033C251.558 230.328 248.74 233.145 248.74 236.621V249.207C248.74 252.683 251.558 255.5 255.033 255.5H267.62C271.095 255.5 273.913 252.683 273.913 249.207V236.621C273.913 233.145 271.095 230.328 267.62 230.328Z" fill="#E5EDFF"/>
<path d="M317.964 230.328H305.378C301.902 230.328 299.085 233.145 299.085 236.621V249.207C299.085 252.683 301.902 255.5 305.378 255.5H317.964C321.44 255.5 324.257 252.683 324.257 249.207V236.621C324.257 233.145 321.44 230.328 317.964 230.328Z" fill="#E5EDFF"/>
<path d="M368.309 230.328H355.723C352.247 230.328 349.43 233.145 349.43 236.621V249.207C349.43 252.683 352.247 255.5 355.723 255.5H368.309C371.785 255.5 374.602 252.683 374.602 249.207V236.621C374.602 233.145 371.785 230.328 368.309 230.328Z" fill="#E5EDFF"/>
<path d="M267.62 280.672H255.033C251.558 280.672 248.74 283.489 248.74 286.965V299.551C248.74 303.027 251.558 305.844 255.033 305.844H267.62C271.095 305.844 273.913 303.027 273.913 299.551V286.965C273.913 283.489 271.095 280.672 267.62 280.672Z" fill="#E5EDFF"/>
<path d="M267.62 331.237H255.033C251.558 331.237 248.74 334.055 248.74 337.53V350.117C248.74 353.592 251.558 356.41 255.033 356.41H267.62C271.095 356.41 273.913 353.592 273.913 350.117V337.53C273.913 334.055 271.095 331.237 267.62 331.237Z" fill="#E5EDFF"/>
<path d="M317.964 280.672H305.378C301.902 280.672 299.085 283.489 299.085 286.965V299.551C299.085 303.027 301.902 305.844 305.378 305.844H317.964C321.44 305.844 324.257 303.027 324.257 299.551V286.965C324.257 283.489 321.44 280.672 317.964 280.672Z" fill="#E5EDFF"/>
<path d="M317.964 331.237H305.378C301.902 331.237 299.085 334.055 299.085 337.53V350.117C299.085 353.592 301.902 356.41 305.378 356.41H317.964C321.44 356.41 324.257 353.592 324.257 350.117V337.53C324.257 334.055 321.44 331.237 317.964 331.237Z" fill="#E5EDFF"/>
<path d="M368.309 280.672H355.723C352.247 280.672 349.43 283.489 349.43 286.965V299.551C349.43 303.027 352.247 305.844 355.723 305.844H368.309C371.785 305.844 374.602 303.027 374.602 299.551V286.965C374.602 283.489 371.785 280.672 368.309 280.672Z" fill="#E5EDFF"/>
<path d="M368.309 331.237H355.723C352.247 331.237 349.43 334.055 349.43 337.53V350.117C349.43 353.592 352.247 356.41 355.723 356.41H368.309C371.785 356.41 374.602 353.592 374.602 350.117V337.53C374.602 334.055 371.785 331.237 368.309 331.237Z" fill="#E5EDFF"/>
<path d="M399.775 73H223.568C216.617 73 210.982 78.635 210.982 85.5862C210.982 92.5374 216.617 98.1724 223.568 98.1724H399.775C406.726 98.1724 412.361 92.5374 412.361 85.5862C412.361 78.635 406.726 73 399.775 73Z" fill="#B713EB"/>
<path d="M431.24 205.154H399.775V179.982H431.24C432.909 179.982 434.51 180.645 435.69 181.825C436.87 183.005 437.533 184.606 437.533 186.275V198.861C437.533 200.53 436.87 202.131 435.69 203.311C434.51 204.491 432.909 205.154 431.24 205.154Z" fill="white"/>
<path d="M431.24 255.5H399.775V230.327H431.24C432.909 230.327 434.51 230.99 435.69 232.17C436.87 233.351 437.533 234.951 437.533 236.62V249.206C437.533 250.875 436.87 252.476 435.69 253.656C434.51 254.836 432.909 255.5 431.24 255.5Z" fill="white"/>
<path d="M431.24 305.843H399.775V280.67H431.24C432.909 280.67 434.51 281.333 435.69 282.514C436.87 283.694 437.533 285.294 437.533 286.963V299.55C437.533 301.219 436.87 302.819 435.69 304C434.51 305.18 432.909 305.843 431.24 305.843Z" fill="white"/>
<path d="M431.24 356.188H399.775V331.015H431.24C432.909 331.015 434.51 331.678 435.69 332.858C436.87 334.038 437.533 335.639 437.533 337.308V349.894C437.533 351.563 436.87 353.164 435.69 354.344C434.51 355.524 432.909 356.188 431.24 356.188Z" fill="white"/>
<path d="M478.438 438C482.34 438.003 486.104 436.558 488.999 433.942C491.895 431.327 493.715 427.73 494.107 423.848C494.499 419.966 493.435 416.077 491.121 412.936C488.807 409.795 485.408 407.625 481.585 406.849V406.534C481.585 401.527 479.596 396.725 476.055 393.184C472.515 389.644 467.713 387.655 462.706 387.655C457.699 387.655 452.897 389.644 449.356 393.184C445.815 396.725 443.826 401.527 443.826 406.534V406.849C442.789 406.647 441.736 406.542 440.68 406.534C436.507 406.534 432.505 408.192 429.555 411.142C426.605 414.093 424.947 418.094 424.947 422.267C424.947 426.439 426.605 430.441 429.555 433.392C432.505 436.342 436.507 438 440.68 438H478.438Z" fill="#59C939"/>
<path d="M224.051 307.992V437.79H40.106V307.992L132.079 230.067L224.051 307.992Z" fill="#ECF2FF"/>
<path fill-rule="evenodd" clip-rule="evenodd" d="M129.7 220.506C131.204 219.228 133.411 219.229 134.914 220.508L244.745 313.943C246.439 315.383 246.644 317.924 245.203 319.617L238.791 327.154C237.351 328.847 234.81 329.052 233.117 327.612L134.904 244.061C133.402 242.782 131.194 242.781 129.69 244.058L31.0367 327.843C29.3422 329.282 26.8019 329.075 25.3627 327.381L18.9573 319.839C17.5182 318.144 17.7252 315.604 19.4197 314.165L129.7 220.506Z" fill="#EA1447"/>
<path d="M105.279 438.001V346.118C105.279 344.087 106.086 342.14 107.522 340.704C108.958 339.268 110.906 338.461 112.936 338.461H151.221C153.252 338.461 155.199 339.268 156.635 340.704C158.071 342.14 158.878 344.087 158.878 346.118V438.001H105.279Z" fill="#F37E9A"/>
<path d="M124.422 399.716H120.593C119.578 399.716 118.604 399.313 117.886 398.595C117.168 397.877 116.765 396.903 116.765 395.888C116.765 394.872 117.168 393.898 117.886 393.18C118.604 392.462 119.578 392.059 120.593 392.059H124.422C125.437 392.059 126.411 392.462 127.129 393.18C127.847 393.898 128.25 394.872 128.25 395.888C128.25 396.903 127.847 397.877 127.129 398.595C126.411 399.313 125.437 399.716 124.422 399.716Z" fill="#C7113C"/>
<path d="M204.82 338.461H178.02C175.906 338.461 174.192 340.175 174.192 342.289V384.402C174.192 386.517 175.906 388.231 178.02 388.231H204.82C206.934 388.231 208.648 386.517 208.648 384.402V342.289C208.648 340.175 206.934 338.461 204.82 338.461Z" fill="#CFDFFF"/>
<path d="M86.1371 338.461H59.3379C57.2235 338.461 55.5094 340.175 55.5094 342.289V384.402C55.5094 386.517 57.2235 388.231 59.3379 388.231H86.1371C88.2515 388.231 89.9655 386.517 89.9655 384.402V342.289C89.9655 340.175 88.2515 338.461 86.1371 338.461Z" fill="#CFDFFF"/>
</svg>
