<svg width="80" height="80" viewBox="0 0 80 80" fill="none" xmlns="http://www.w3.org/2000/svg">
<rect width="80" height="80" transform="translate(0.5)" fill="white"/>
<path d="M76.7678 33.6131L72.7666 29.6125L67.8453 28.125L32.0859 63.8844L37.0072 65.3712L41.0084 69.3725L42.4953 74.2944L78.2553 38.535L76.7678 33.6131Z" fill="#137FEB"/>
<path d="M35.2004 72.8928L33.4873 71.1797L30.5352 70.2867C30.4596 70.2648 30.3853 70.2384 30.3129 70.2075L28.6554 76.2371C28.6092 76.4425 28.6158 76.6561 28.6744 76.8583C28.733 77.0604 28.8418 77.2445 28.9906 77.3933C29.1395 77.5421 29.3235 77.6508 29.5257 77.7094C29.7279 77.768 29.9415 77.7745 30.1469 77.7283L36.1688 76.071C36.1412 75.9982 36.1173 75.9215 36.0934 75.8448L35.2004 72.8928Z" fill="#137FEB"/>
<path d="M14.2162 7.50037L28.1182 7.5C28.937 7.5 29.7223 7.82527 30.3013 8.40426C30.8803 8.98325 31.2056 9.76853 31.2056 10.5873C31.2056 11.4061 30.8803 12.1915 30.3013 12.7705C29.7223 13.3494 28.9371 13.6747 28.1183 13.6747L14.2163 13.6751C13.8108 13.6751 13.4094 13.5952 13.0348 13.4401C12.6602 13.2849 12.3199 13.0575 12.0332 12.7708C11.7465 12.4841 11.5191 12.1438 11.3639 11.7692C11.2088 11.3946 11.1289 10.9931 11.1289 10.5877C11.1289 9.7689 11.4542 8.98362 12.0332 8.40463C12.6122 7.82564 13.3974 7.50037 14.2162 7.50037Z" fill="#475167"/>
<path d="M37.9623 7.50037L66.2393 7.5C67.0581 7.5 67.8434 7.82527 68.4224 8.40426C69.0014 8.98325 69.3267 9.76853 69.3267 10.5873C69.3267 11.4061 69.0014 12.1915 68.4224 12.7705C67.8434 13.3494 67.0582 13.6747 66.2393 13.6747L37.9624 13.6751C37.5569 13.6751 37.1555 13.5952 36.7809 13.4401C36.4063 13.2849 36.066 13.0575 35.7793 12.7708C35.4926 12.4841 35.2652 12.1438 35.11 11.7692C34.9549 11.3946 34.875 10.9931 34.875 10.5877C34.875 9.7689 35.2003 8.98362 35.7793 8.40463C36.3582 7.82564 37.1435 7.50037 37.9623 7.50037Z" fill="#475167"/>
<path d="M14.2162 40H19.9122C20.731 40 21.5163 40.3253 22.0953 40.9043C22.6743 41.4833 22.9996 42.2685 22.9996 43.0873C22.9996 43.9061 22.6743 44.6915 22.0953 45.2705C21.5163 45.8494 20.7311 46.1747 19.9122 46.1747H14.2163C13.8108 46.1747 13.4094 46.0949 13.0348 45.9397C12.6602 45.7845 12.3199 45.5571 12.0332 45.2704C11.7465 44.9838 11.5191 44.6434 11.3639 44.2688C11.2088 43.8943 11.1289 43.4928 11.1289 43.0873C11.1289 42.2685 11.4542 41.4833 12.0332 40.9043C12.6122 40.3253 13.3974 40 14.2162 40Z" fill="#475167"/>
<path d="M29.8373 40H39.5069C40.3257 40 41.111 40.3253 41.69 40.9043C42.269 41.4833 42.5942 42.2685 42.5942 43.0873C42.5942 43.9061 42.269 44.6915 41.69 45.2705C41.111 45.8494 40.3257 46.1747 39.5069 46.1747H29.8374C29.4319 46.1747 29.0305 46.0949 28.6559 45.9397C28.2813 45.7845 27.941 45.5571 27.6543 45.2704C27.3676 44.9838 27.1402 44.6434 26.985 44.2688C26.8299 43.8943 26.75 43.4928 26.75 43.0873C26.75 42.2685 27.0753 41.4833 27.6543 40.9043C28.2332 40.3253 29.0185 40 29.8373 40Z" fill="#475167"/>
<path d="M15.4667 24.9247H20.1253C20.5311 24.9253 20.933 24.8458 21.3081 24.6909C21.6832 24.536 22.024 24.3087 22.3112 24.022C22.5983 23.7352 22.8261 23.3947 22.9816 23.0198C23.137 22.645 23.217 22.2431 23.217 21.8373C23.217 21.4315 23.137 21.0297 22.9816 20.6549C22.8261 20.28 22.5983 19.9395 22.3112 19.6527C22.024 19.366 21.6832 19.1386 21.3081 18.9838C20.933 18.8289 20.5311 18.7494 20.1253 18.75H15.4667C15.0609 18.7494 14.659 18.8289 14.2839 18.9838C13.9088 19.1386 13.568 19.366 13.2808 19.6527C12.9937 19.9395 12.7659 20.28 12.6104 20.6549C12.455 21.0297 12.375 21.4315 12.375 21.8373C12.375 22.2431 12.455 22.645 12.6104 23.0198C12.7659 23.3947 12.9937 23.7352 13.2808 24.022C13.568 24.3087 13.9088 24.536 14.2839 24.6909C14.659 24.8458 15.0609 24.9253 15.4667 24.9247Z" fill="#475167"/>
<path d="M29.8417 24.9247H60.7503C61.1561 24.9253 61.558 24.8458 61.9331 24.6909C62.3082 24.536 62.649 24.3087 62.9362 24.022C63.2233 23.7352 63.4511 23.3947 63.6066 23.0198C63.762 22.645 63.842 22.2431 63.842 21.8373C63.842 21.4315 63.762 21.0297 63.6066 20.6549C63.4511 20.28 63.2233 19.9395 62.9362 19.6527C62.649 19.366 62.3082 19.1386 61.9331 18.9838C61.558 18.8289 61.1561 18.7494 60.7503 18.75H29.8417C29.4359 18.7494 29.034 18.8289 28.6589 18.9838C28.2838 19.1386 27.943 19.366 27.6558 19.6527C27.3687 19.9395 27.1409 20.28 26.9854 20.6549C26.83 21.0297 26.75 21.4315 26.75 21.8373C26.75 22.2431 26.83 22.645 26.9854 23.0198C27.1409 23.3947 27.3687 23.7352 27.6558 24.022C27.943 24.3087 28.2838 24.536 28.6589 24.6909C29.034 24.8458 29.4359 24.9253 29.8417 24.9247Z" fill="#475167"/>
<path d="M14.2167 57.4247H28.0333C28.4391 57.4253 28.841 57.3458 29.2161 57.1909C29.5912 57.036 29.932 56.8087 30.2192 56.522C30.5063 56.2352 30.7341 55.8947 30.8896 55.5198C31.045 55.145 31.125 54.7431 31.125 54.3373C31.125 53.9315 31.045 53.5297 30.8896 53.1549C30.7341 52.78 30.5063 52.4395 30.2192 52.1527C29.932 51.866 29.5912 51.6386 29.2161 51.4838C28.841 51.3289 28.4391 51.2494 28.0333 51.25L14.2167 51.25C13.8109 51.2494 13.409 51.3289 13.0339 51.4838C12.6588 51.6386 12.318 51.866 12.0308 52.1527C11.7437 52.4395 11.5159 52.78 11.3604 53.1549C11.205 53.5297 11.125 53.9315 11.125 54.3373C11.125 54.7431 11.205 55.145 11.3604 55.5198C11.5159 55.8947 11.7437 56.2352 12.0308 56.522C12.318 56.8087 12.6588 57.036 13.0339 57.1909C13.409 57.3458 13.8109 57.4253 14.2167 57.4247Z" fill="#475167"/>
<path d="M14.2167 35.5497H28.0333C28.4391 35.5503 28.841 35.4708 29.2161 35.3159C29.5912 35.161 29.932 34.9337 30.2192 34.647C30.5063 34.3602 30.7341 34.0197 30.8896 33.6448C31.045 33.27 31.125 32.8681 31.125 32.4623C31.125 32.0565 31.045 31.6547 30.8896 31.2799C30.7341 30.905 30.5063 30.5645 30.2192 30.2777C29.932 29.991 29.5912 29.7636 29.2161 29.6088C28.841 29.4539 28.4391 29.3744 28.0333 29.375L14.2167 29.375C13.8109 29.3744 13.409 29.4539 13.0339 29.6088C12.6588 29.7636 12.318 29.991 12.0308 30.2777C11.7437 30.5645 11.5159 30.905 11.3604 31.2799C11.205 31.6547 11.125 32.0565 11.125 32.4623C11.125 32.8681 11.205 33.27 11.3604 33.6448C11.5159 34.0197 11.7437 34.3602 12.0308 34.647C12.318 34.9337 12.6588 35.161 13.0339 35.3159C13.409 35.4708 13.8109 35.5503 14.2167 35.5497Z" fill="#475167"/>
<path d="M37.9667 35.5497H50.1253C50.5311 35.5503 50.933 35.4708 51.3081 35.3159C51.6832 35.161 52.024 34.9337 52.3112 34.647C52.5983 34.3602 52.8261 34.0197 52.9816 33.6448C53.137 33.27 53.217 32.8681 53.217 32.4623C53.217 32.0565 53.137 31.6547 52.9816 31.2799C52.8261 30.905 52.5983 30.5645 52.3112 30.2777C52.024 29.991 51.6832 29.7636 51.3081 29.6088C50.933 29.4539 50.5311 29.3744 50.1253 29.375H37.9667C37.5609 29.3744 37.159 29.4539 36.7839 29.6088C36.4088 29.7636 36.068 29.991 35.7808 30.2777C35.4937 30.5645 35.2659 30.905 35.1104 31.2799C34.955 31.6547 34.875 32.0565 34.875 32.4623C34.875 32.8681 34.955 33.27 35.1104 33.6448C35.2659 34.0197 35.4937 34.3602 35.7808 34.647C36.068 34.9337 36.4088 35.161 36.7839 35.3159C37.159 35.4708 37.5609 35.5503 37.9667 35.5497Z" fill="#475167"/>
<path d="M14.2167 68.0497H19.9083C20.3141 68.0503 20.716 67.9708 21.0911 67.8159C21.4662 67.661 21.807 67.4337 22.0942 67.147C22.3813 66.8602 22.6091 66.5197 22.7646 66.1448C22.92 65.77 23 65.3681 23 64.9623C23 64.5565 22.92 64.1547 22.7646 63.7799C22.6091 63.405 22.3813 63.0645 22.0942 62.7777C21.807 62.491 21.4662 62.2636 21.0911 62.1088C20.716 61.9539 20.3141 61.8744 19.9083 61.875L14.2167 61.875C13.8109 61.8744 13.409 61.9539 13.0339 62.1088C12.6588 62.2636 12.318 62.491 12.0308 62.7777C11.7437 63.0645 11.5159 63.405 11.3604 63.7799C11.205 64.1547 11.125 64.5565 11.125 64.9623C11.125 65.3681 11.205 65.77 11.3604 66.1448C11.5159 66.5197 11.7437 66.8602 12.0308 67.147C12.318 67.4337 12.6588 67.661 13.0339 67.8159C13.409 67.9708 13.8109 68.0503 14.2167 68.0497Z" fill="#475167"/>
</svg>
