<svg width="512" height="512" viewBox="0 0 512 512" fill="none" xmlns="http://www.w3.org/2000/svg">
<path d="M136.812 56.0007L56.0007 136.812L375.188 455.999L456 375.187L136.812 56.0007ZM115.056 133.704C109.906 128.554 109.906 120.205 115.056 115.056C120.205 109.906 128.554 109.906 133.704 115.056C138.854 120.205 138.854 128.554 133.704 133.704C128.554 138.854 120.205 138.854 115.056 133.704ZM378.295 396.944C373.145 391.794 373.145 383.445 378.295 378.295C383.445 373.145 391.794 373.145 396.944 378.295C402.094 383.445 402.094 391.794 396.944 396.944C391.795 402.094 383.445 402.094 378.295 396.944Z" fill="#E5EDFF"/>
<path d="M217.148 186.066C214.573 188.641 214.573 192.815 217.148 195.391C219.723 197.967 223.897 197.966 226.473 195.391L251.338 170.526L242.013 161.201L217.148 186.066Z" fill="#CFDFFF"/>
<path d="M163.232 132.15C160.657 134.725 160.657 138.899 163.232 141.475C165.807 144.051 169.981 144.05 172.557 141.475L197.422 116.61L188.097 107.285L163.232 132.15Z" fill="#CFDFFF"/>
<path d="M190.19 159.108C187.615 161.683 187.615 165.857 190.19 168.433C192.764 171.008 196.938 171.008 199.514 168.433L224.379 143.568L215.054 134.243L190.19 159.108Z" fill="#CFDFFF"/>
<path d="M316.608 285.527C314.034 288.102 314.034 292.276 316.608 294.852C319.183 297.427 323.357 297.427 325.933 294.852L350.798 269.987L341.473 260.662L316.608 285.527Z" fill="#CFDFFF"/>
<path d="M395.391 314.579L370.526 339.444C367.951 342.019 367.951 346.193 370.526 348.769C373.101 351.344 377.275 351.344 379.851 348.769L404.716 323.904L395.391 314.579Z" fill="#CFDFFF"/>
<path d="M343.568 312.486C340.993 315.061 340.993 319.235 343.568 321.811C346.142 324.386 350.317 324.386 352.892 321.811L377.757 296.946L368.433 287.621L343.568 312.486Z" fill="#CFDFFF"/>
<path d="M448.307 88.5584L423.442 63.6925C413.185 53.4358 396.401 53.4358 386.144 63.6925L355.062 94.7746L379.927 132.072L417.224 156.937L448.307 125.855C458.564 115.599 458.564 98.815 448.307 88.5584Z" fill="#137FEB"/>
<path d="M331.896 117.94L99.5559 350.28L118.163 393.836L375.411 149.022L331.896 117.94Z" fill="#7DB9F4"/>
<path d="M369.195 142.806L118.163 393.837L161.719 412.444L394.06 180.105L369.195 142.806Z" fill="#137FEB"/>
<path d="M56 456L100.032 437.869L93.2975 418.702L74.1309 411.968L56 456Z" fill="#6E5147"/>
<path d="M161.719 412.444C160.241 406.943 157.266 401.626 152.815 397.174C144.814 389.173 134.025 385.925 124.38 387.62C126.074 377.975 122.827 367.186 114.826 359.185C110.374 354.733 105.057 351.759 99.5559 350.281L99.5137 350.323L74.13 411.968L100.031 437.869L161.676 412.485L161.719 412.444Z" fill="#FAEEC4"/>
<path d="M355.059 94.7759L331.894 117.941L394.056 180.104L417.221 156.938L355.059 94.7759Z" fill="#E5EDFF"/>
</svg>
