<svg width="512" height="512" viewBox="0 0 512 512" fill="none" xmlns="http://www.w3.org/2000/svg">
<path d="M488.109 215.124L462.501 189.52L431.005 180L202.145 408.86L233.641 418.376L259.249 443.984L268.765 475.484L497.629 246.624L488.109 215.124Z" fill="#137FEB"/>
<path d="M222.083 466.514L211.119 455.55L192.225 449.835C191.741 449.695 191.266 449.526 190.802 449.328L180.194 487.917C179.899 489.232 179.941 490.599 180.316 491.893C180.691 493.187 181.387 494.365 182.34 495.317C183.293 496.269 184.471 496.965 185.764 497.34C187.058 497.715 188.426 497.757 189.74 497.461L228.28 486.854C228.104 486.388 227.951 485.897 227.798 485.407L222.083 466.514Z" fill="#137FEB"/>
<path d="M87.7868 48.0023L176.759 48C182 48 187.026 50.0817 190.731 53.7873C194.437 57.4928 196.518 62.5186 196.518 67.759C196.518 72.9993 194.437 78.0255 190.731 81.731C187.026 85.4364 182 87.5182 176.76 87.5182L87.787 87.5205C85.1922 87.5205 82.6228 87.0094 80.2255 86.0164C77.8282 85.0234 75.65 83.568 73.8152 81.7332C71.9803 79.8984 70.5249 77.7201 69.5319 75.3228C68.5389 72.9256 68.0278 70.3562 68.0278 67.7613C68.0278 62.5209 70.1096 57.4952 73.8151 53.7896C77.5206 50.0841 82.5464 48.0024 87.7868 48.0023Z" fill="#475167"/>
<path d="M239.759 48.0023L420.732 48C425.972 48 430.998 50.0817 434.703 53.7873C438.409 57.4928 440.491 62.5186 440.491 67.759C440.491 72.9993 438.409 78.0255 434.703 81.731C430.998 85.4364 425.972 87.5182 420.732 87.5182L239.759 87.5205C237.164 87.5205 234.595 87.0094 232.198 86.0164C229.8 85.0234 227.622 83.568 225.787 81.7332C223.953 79.8984 222.497 77.7201 221.504 75.3228C220.511 72.9256 220 70.3562 220 67.7613C220 62.5209 222.082 57.4952 225.787 53.7896C229.493 50.0841 234.519 48.0024 239.759 48.0023Z" fill="#475167"/>
<path d="M87.7868 256H124.241C129.481 256 134.507 258.082 138.213 261.787C141.918 265.493 144 270.519 144 275.759C144 280.999 141.918 286.025 138.213 289.731C134.507 293.436 129.482 295.518 124.241 295.518H87.787C85.1922 295.518 82.6228 295.007 80.2255 294.014C77.8282 293.021 75.65 291.566 73.8152 289.731C71.9803 287.896 70.5249 285.718 69.5319 283.32C68.5389 280.923 68.0278 278.354 68.0278 275.759C68.0278 270.519 70.1096 265.493 73.8151 261.787C77.5206 258.082 82.5464 256 87.7868 256Z" fill="#475167"/>
<path d="M187.759 256H249.644C254.884 256 259.91 258.082 263.616 261.787C267.321 265.493 269.403 270.519 269.403 275.759C269.403 280.999 267.321 286.025 263.616 289.731C259.91 293.436 254.885 295.518 249.644 295.518H187.759C185.164 295.518 182.595 295.007 180.198 294.014C177.8 293.021 175.622 291.566 173.787 289.731C171.953 287.896 170.497 285.718 169.504 283.32C168.511 280.923 168 278.354 168 275.759C168 270.519 170.082 265.493 173.787 261.787C177.493 258.082 182.519 256 187.759 256Z" fill="#475167"/>
<path d="M95.7871 159.518H125.602C128.199 159.522 130.771 159.013 133.172 158.022C135.572 157.031 137.754 155.576 139.592 153.741C141.429 151.905 142.887 149.726 143.882 147.327C144.877 144.928 145.389 142.356 145.389 139.759C145.389 137.162 144.877 134.59 143.882 132.191C142.887 129.792 141.429 127.612 139.592 125.777C137.754 123.942 135.572 122.487 133.172 121.496C130.771 120.505 128.199 119.996 125.602 120H95.7871C93.19 119.996 90.6176 120.505 88.217 121.496C85.8165 122.487 83.635 123.942 81.7972 125.777C79.9594 127.612 78.5015 129.792 77.5067 132.191C76.512 134.59 76 137.162 76 139.759C76 142.356 76.512 144.928 77.5067 147.327C78.5015 149.726 79.9594 151.905 81.7972 153.741C83.635 155.576 85.8165 157.031 88.217 158.022C90.6176 159.013 93.19 159.522 95.7871 159.518Z" fill="#475167"/>
<path d="M187.787 159.518H385.602C388.199 159.522 390.771 159.013 393.172 158.022C395.572 157.031 397.754 155.576 399.592 153.741C401.429 151.905 402.887 149.726 403.882 147.327C404.877 144.928 405.389 142.356 405.389 139.759C405.389 137.162 404.877 134.59 403.882 132.191C402.887 129.792 401.429 127.612 399.592 125.777C397.754 123.942 395.572 122.487 393.172 121.496C390.771 120.505 388.199 119.996 385.602 120H187.787C185.19 119.996 182.618 120.505 180.217 121.496C177.817 122.487 175.635 123.942 173.797 125.777C171.959 127.612 170.501 129.792 169.507 132.191C168.512 134.59 168 137.162 168 139.759C168 142.356 168.512 144.928 169.507 147.327C170.501 149.726 171.959 151.905 173.797 153.741C175.635 155.576 177.817 157.031 180.217 158.022C182.618 159.013 185.19 159.522 187.787 159.518Z" fill="#475167"/>
<path d="M87.7871 367.518H176.213C178.81 367.522 181.382 367.013 183.783 366.022C186.183 365.031 188.365 363.576 190.203 361.741C192.041 359.905 193.498 357.726 194.493 355.327C195.488 352.928 196 350.356 196 347.759C196 345.162 195.488 342.59 194.493 340.191C193.498 337.792 192.041 335.612 190.203 333.777C188.365 331.942 186.183 330.487 183.783 329.496C181.382 328.505 178.81 327.996 176.213 328L87.7871 328C85.19 327.996 82.6176 328.505 80.217 329.496C77.8165 330.487 75.635 331.942 73.7972 333.777C71.9594 335.612 70.5015 337.792 69.5067 340.191C68.512 342.59 68 345.162 68 347.759C68 350.356 68.512 352.928 69.5067 355.327C70.5015 357.726 71.9594 359.905 73.7972 361.741C75.635 363.576 77.8165 365.031 80.217 366.022C82.6176 367.013 85.19 367.522 87.7871 367.518Z" fill="#475167"/>
<path d="M87.7871 227.518H176.213C178.81 227.522 181.382 227.013 183.783 226.022C186.183 225.031 188.365 223.576 190.203 221.741C192.041 219.905 193.498 217.726 194.493 215.327C195.488 212.928 196 210.356 196 207.759C196 205.162 195.488 202.59 194.493 200.191C193.498 197.792 192.041 195.612 190.203 193.777C188.365 191.942 186.183 190.487 183.783 189.496C181.382 188.505 178.81 187.996 176.213 188L87.7871 188C85.19 187.996 82.6176 188.505 80.217 189.496C77.8165 190.487 75.635 191.942 73.7972 193.777C71.9594 195.612 70.5015 197.792 69.5067 200.191C68.512 202.59 68 205.162 68 207.759C68 210.356 68.512 212.928 69.5067 215.327C70.5015 217.726 71.9594 219.905 73.7972 221.741C75.635 223.576 77.8165 225.031 80.217 226.022C82.6176 227.013 85.19 227.522 87.7871 227.518Z" fill="#475167"/>
<path d="M239.787 227.518H317.602C320.199 227.522 322.771 227.013 325.172 226.022C327.572 225.031 329.754 223.576 331.592 221.741C333.429 219.905 334.887 217.726 335.882 215.327C336.877 212.928 337.389 210.356 337.389 207.759C337.389 205.162 336.877 202.59 335.882 200.191C334.887 197.792 333.429 195.612 331.592 193.777C329.754 191.942 327.572 190.487 325.172 189.496C322.771 188.505 320.199 187.996 317.602 188H239.787C237.19 187.996 234.618 188.505 232.217 189.496C229.817 190.487 227.635 191.942 225.797 193.777C223.959 195.612 222.501 197.792 221.507 200.191C220.512 202.59 220 205.162 220 207.759C220 210.356 220.512 212.928 221.507 215.327C222.501 217.726 223.959 219.905 225.797 221.741C227.635 223.576 229.817 225.031 232.217 226.022C234.618 227.013 237.19 227.522 239.787 227.518Z" fill="#475167"/>
<path d="M87.7871 435.518H124.213C126.81 435.522 129.382 435.013 131.783 434.022C134.183 433.031 136.365 431.576 138.203 429.741C140.041 427.905 141.498 425.726 142.493 423.327C143.488 420.928 144 418.356 144 415.759C144 413.162 143.488 410.59 142.493 408.191C141.498 405.792 140.041 403.612 138.203 401.777C136.365 399.942 134.183 398.487 131.783 397.496C129.382 396.505 126.81 395.996 124.213 396L87.7871 396C85.19 395.996 82.6176 396.505 80.217 397.496C77.8165 398.487 75.635 399.942 73.7972 401.777C71.9594 403.612 70.5015 405.792 69.5067 408.191C68.512 410.59 68 413.162 68 415.759C68 418.356 68.512 420.928 69.5067 423.327C70.5015 425.726 71.9594 427.905 73.7972 429.741C75.635 431.576 77.8165 433.031 80.217 434.022C82.6176 435.013 85.19 435.522 87.7871 435.518Z" fill="#475167"/>
</svg>
