<svg width="512" height="512" viewBox="0 0 512 512" fill="none" xmlns="http://www.w3.org/2000/svg">
<path d="M141.223 288.833H43.1611C39.2065 288.833 36 285.885 36 282.248C36 278.611 39.2065 275.663 43.1611 275.663H141.223C145.179 275.663 148.384 278.611 148.384 282.248C148.384 285.885 145.179 288.833 141.223 288.833Z" fill="#B0BED9"/>
<path d="M145.043 330.185H70.5183C66.5637 330.185 63.3572 327.237 63.3572 323.6C63.3572 319.963 66.5637 317.015 70.5183 317.015H145.044C148.998 317.015 152.205 319.963 152.205 323.6C152.204 327.237 148.998 330.185 145.043 330.185Z" fill="#B0BED9"/>
<path d="M159.954 364.739H114.73C110.775 364.739 107.569 361.791 107.569 358.154C107.569 354.517 110.775 351.569 114.73 351.569H159.954C163.909 351.569 167.115 354.517 167.115 358.154C167.115 361.791 163.909 364.739 159.954 364.739Z" fill="#B0BED9"/>
<path d="M151.727 247.481H77.2019C73.2473 247.481 70.0408 244.533 70.0408 240.896C70.0408 237.259 73.2473 234.311 77.2019 234.311H151.727C155.683 234.311 158.888 237.259 158.888 240.896C158.888 244.534 155.682 247.481 151.727 247.481Z" fill="#B0BED9"/>
<path d="M166.639 212.927H121.415C117.459 212.927 114.253 209.978 114.253 206.341C114.253 202.705 117.46 199.756 121.415 199.756H166.639C170.593 199.756 173.8 202.705 173.8 206.341C173.8 209.978 170.593 212.927 166.639 212.927Z" fill="#B0BED9"/>
<path d="M229.764 165.948L196.281 127.002C193.911 124.245 189.753 123.93 186.994 126.302L166.155 144.219C164.831 145.358 164.013 146.976 163.882 148.717C163.75 150.458 164.316 152.181 165.455 153.506L198.938 192.451C200.24 193.966 202.082 194.743 203.934 194.743C205.454 194.743 206.982 194.22 208.224 193.151L229.064 175.234C230.388 174.096 231.205 172.477 231.337 170.736C231.47 168.994 230.903 167.272 229.764 165.948Z" fill="#FDCA05"/>
<path d="M210.176 115.058L196.037 98.6124C193.666 95.8554 189.509 95.5411 186.75 97.9126L138.124 139.719C136.8 140.857 135.983 142.476 135.851 144.217C135.72 145.958 136.285 147.68 137.424 149.005L151.563 165.451C152.865 166.965 154.706 167.742 156.559 167.742C158.079 167.742 159.606 167.219 160.849 166.15L209.475 124.344C210.799 123.206 211.617 121.587 211.748 119.846C211.88 118.104 211.314 116.382 210.176 115.058Z" fill="#FEDA50"/>
<path d="M447.625 148.717C447.494 146.976 446.676 145.358 445.352 144.219L424.512 126.302C421.754 123.931 417.597 124.244 415.225 127.002L381.742 165.947C380.604 167.271 380.038 168.994 380.17 170.736C380.301 172.477 381.119 174.095 382.443 175.234L403.283 193.151C404.526 194.22 406.053 194.743 407.573 194.743C409.425 194.743 411.267 193.966 412.569 192.451L446.053 153.506C447.19 152.181 447.756 150.459 447.625 148.717Z" fill="#FDCA05"/>
<path d="M473.384 139.718L424.757 97.9125C423.432 96.7737 421.71 96.2012 419.968 96.339C418.227 96.4699 416.609 97.2882 415.47 98.6122L401.332 115.057C398.961 117.815 399.274 121.973 402.032 124.343L450.66 166.149C451.858 167.18 453.383 167.741 454.953 167.741C455.118 167.741 455.283 167.735 455.448 167.723C457.189 167.591 458.808 166.774 459.946 165.449L474.084 149.003C476.456 146.247 476.141 142.089 473.384 139.718Z" fill="#FEDA50"/>
<path d="M286.473 87.8188H326.883V145.531H286.473V87.8188Z" fill="#3E8D28"/>
<path fill-rule="evenodd" clip-rule="evenodd" d="M257.208 50.8887H329.806H331.455H356.146C363.111 50.8887 368.758 56.5352 368.758 63.5005V78.8219C368.758 85.7872 363.111 91.4338 356.146 91.4338H331.057H329.806H257.208C250.242 91.4338 244.596 85.7872 244.596 78.8219V63.5005C244.596 56.5352 250.242 50.8887 257.208 50.8887ZM334.681 90.457C333.665 90.883 332.582 91.1799 331.452 91.3273L334.681 90.457ZM332.287 51.1328C333.018 51.2785 333.725 51.4873 334.404 51.7533L332.287 51.1328Z" fill="#4CAB30"/>
<path fill-rule="evenodd" clip-rule="evenodd" d="M299.112 122.632C301.62 122.521 304.142 122.465 306.677 122.465C400.192 122.465 475.999 198.273 475.999 291.788C475.999 385.303 400.191 461.111 306.677 461.111C303.788 461.111 300.916 461.038 298.063 460.894C296.54 460.836 295.021 460.747 293.506 460.627C283.454 459.831 273.333 458.123 263.242 455.445C172.858 431.456 119.032 338.738 143.021 248.353C162.363 175.475 226.388 126.365 297.846 122.65C298.209 122.631 298.632 122.625 299.112 122.632Z" fill="#59C939"/>
<path d="M306.677 423.649C379.502 423.649 438.538 364.613 438.538 291.788C438.538 218.964 379.502 159.928 306.677 159.928C233.852 159.928 174.816 218.964 174.816 291.788C174.816 364.613 233.852 423.649 306.677 423.649Z" fill="#ECF2FF"/>
<path d="M306.706 197.613C303.321 197.613 300.577 194.869 300.577 191.485V174.553C300.577 171.168 303.321 168.424 306.706 168.424C310.091 168.424 312.835 171.168 312.835 174.553V191.485C312.835 194.869 310.091 197.613 306.706 197.613Z" fill="#CFDFFF"/>
<path d="M378.147 226.888C376.578 226.888 375.01 226.29 373.813 225.093C371.419 222.7 371.419 218.82 373.814 216.426L385.786 204.454C388.179 202.059 392.059 202.06 394.453 204.454C396.847 206.847 396.847 210.727 394.452 213.121L382.48 225.093C381.283 226.289 379.714 226.888 378.147 226.888Z" fill="#CFDFFF"/>
<path d="M424.893 298.105H407.962C404.577 298.105 401.833 295.361 401.833 291.976C401.833 288.591 404.577 285.848 407.962 285.848H424.893C428.278 285.848 431.022 288.591 431.022 291.976C431.022 295.361 428.278 298.105 424.893 298.105Z" fill="#CFDFFF"/>
<path d="M390.66 381.517C389.091 381.517 387.522 380.919 386.326 379.723L374.353 367.75C371.959 365.357 371.959 361.477 374.353 359.083C376.747 356.69 380.626 356.69 383.021 359.083L394.993 371.056C397.387 373.449 397.387 377.329 394.993 379.723C393.797 380.92 392.228 381.517 390.66 381.517Z" fill="#CFDFFF"/>
<path d="M307.47 416.293C304.085 416.293 301.341 413.549 301.341 410.164V393.232C301.341 389.847 304.085 387.103 307.47 387.103C310.855 387.103 313.598 389.847 313.598 393.232V410.164C313.598 413.548 310.855 416.293 307.47 416.293Z" fill="#CFDFFF"/>
<path d="M224.057 382.058C222.488 382.058 220.919 381.46 219.724 380.263C217.33 377.869 217.33 373.989 219.724 371.596L231.696 359.623C234.09 357.23 237.97 357.23 240.363 359.623C242.757 362.017 242.757 365.897 240.363 368.29L228.39 380.263C227.194 381.46 225.625 382.058 224.057 382.058Z" fill="#CFDFFF"/>
<path d="M206.214 298.869H189.283C185.898 298.869 183.154 296.125 183.154 292.74C183.154 289.355 185.898 286.612 189.283 286.612H206.214C209.599 286.612 212.343 289.355 212.343 292.74C212.343 296.125 209.599 298.869 206.214 298.869Z" fill="#CFDFFF"/>
<path d="M235.489 227.428C233.921 227.428 232.352 226.83 231.156 225.633L219.184 213.661C216.79 211.267 216.79 207.387 219.184 204.994C221.577 202.6 225.457 202.599 227.85 204.994L239.823 216.966C242.217 219.36 242.217 223.24 239.823 225.633C238.626 226.83 237.057 227.428 235.489 227.428Z" fill="#CFDFFF"/>
<path d="M306.678 288.833C303.04 288.833 300.093 285.885 300.093 282.248V237.968C300.093 234.331 303.04 231.383 306.678 231.383C310.316 231.383 313.263 234.331 313.263 237.968V282.248C313.263 285.885 310.315 288.833 306.678 288.833Z" fill="#B0BED9"/>
<path d="M362.083 352.244C360.397 352.244 358.712 351.602 357.426 350.315L309.485 302.375C306.913 299.803 306.913 295.633 309.485 293.062C312.058 290.491 316.227 290.491 318.799 293.062L366.739 341.003C369.31 343.575 369.31 347.744 366.739 350.315C365.453 351.601 363.767 352.244 362.083 352.244Z" fill="#B0BED9"/>
<path d="M307.558 304.366C300.261 304.366 294.324 298.43 294.324 291.133C294.324 283.837 300.26 277.901 307.558 277.901C314.854 277.901 320.79 283.837 320.79 291.133C320.79 298.43 314.854 304.366 307.558 304.366Z" fill="#919CB3"/>
</svg>
