<svg width="80" height="80" viewBox="0 0 80 80" fill="none" xmlns="http://www.w3.org/2000/svg">
<rect width="80" height="80" transform="translate(0.5)" fill="white"/>
<path d="M18.1044 16.535L10.3591 24.2806L7.67648 21.5977C7.09368 21.0159 6.30375 20.6893 5.48029 20.6897C4.65683 20.6901 3.86721 21.0174 3.28493 21.5997C2.70266 22.1819 2.37538 22.9716 2.375 23.795C2.37463 24.6185 2.70119 25.4084 3.28293 25.9912L8.16222 30.8705C8.74488 31.4531 9.53508 31.7803 10.359 31.7803C11.183 31.7803 11.9732 31.4531 12.5558 30.8705L22.498 20.9285C23.0806 20.3459 23.4079 19.5557 23.4079 18.7317C23.4079 17.9078 23.0806 17.1175 22.4979 16.5349C21.9153 15.9523 21.1251 15.625 20.3011 15.625C19.4772 15.625 18.687 15.9523 18.1044 16.535Z" fill="#59C939"/>
<path d="M32.5053 20.7998H47.9996C48.8184 20.7998 49.6036 21.1251 50.1826 21.7041C50.7616 22.2831 51.0869 23.0683 51.0869 23.8871C51.0869 24.706 50.7616 25.4913 50.1826 26.0702C49.6036 26.6492 48.8183 26.9745 47.9995 26.9745H32.5053C31.6865 26.9745 30.9012 26.6492 30.3222 26.0703C29.7432 25.4913 29.418 24.706 29.418 23.8872C29.418 23.0684 29.7432 22.2831 30.3222 21.7041C30.9012 21.1251 31.6865 20.7998 32.5053 20.7998Z" fill="#475167"/>
<path d="M18.1044 37.9598L10.3591 45.7054L7.67648 43.0225C7.09368 42.4407 6.30375 42.1141 5.48029 42.1145C4.65683 42.1149 3.86721 42.4422 3.28493 43.0245C2.70266 43.6067 2.37538 44.3964 2.375 45.2198C2.37463 46.0433 2.70119 46.8332 3.28293 47.416L8.16222 52.2953C8.74488 52.8779 9.53508 53.2051 10.359 53.2051C11.183 53.2051 11.9732 52.8779 12.5558 52.2953L22.498 42.3533C23.0806 41.7707 23.4079 40.9805 23.4079 40.1565C23.4079 39.3326 23.0806 38.5423 22.4979 37.9597C21.9153 37.3771 21.1251 37.0498 20.3011 37.0498C19.4772 37.0498 18.687 37.3771 18.1044 37.9598Z" fill="#59C939"/>
<path d="M32.5053 42.2246H68.3419C69.1607 42.2246 69.946 42.5499 70.525 43.1289C71.1039 43.7079 71.4292 44.4931 71.4292 45.3119C71.4292 46.1308 71.1039 46.9161 70.5249 47.4951C69.9459 48.074 69.1607 48.3993 68.3418 48.3993H32.5053C31.6865 48.3993 30.9012 48.0741 30.3222 47.4951C29.7432 46.9161 29.418 46.1308 29.418 45.312C29.418 44.4932 29.7432 43.7079 30.3222 43.1289C30.9012 42.5499 31.6865 42.2246 32.5053 42.2246Z" fill="#475167"/>
<path d="M18.1044 58.9402L10.3591 66.6858L7.67648 64.0029C7.09368 63.4212 6.30375 63.0946 5.48029 63.095C4.65683 63.0954 3.86721 63.4227 3.28493 64.0049C2.70266 64.5872 2.37538 65.3768 2.375 66.2003C2.37463 67.0238 2.70119 67.8137 3.28293 68.3965L8.16221 73.2758C8.74488 73.8583 9.53508 74.1856 10.359 74.1856C11.183 74.1856 11.9732 73.8583 12.5558 73.2758L22.498 63.3338C23.0806 62.7512 23.4079 61.9609 23.4079 61.137C23.4079 60.313 23.0806 59.5228 22.4979 58.9402C21.9153 58.3576 21.1251 58.0303 20.3011 58.0303C19.4772 58.0303 18.687 58.3576 18.1044 58.9402Z" fill="#59C939"/>
<path d="M32.5053 63.2051H68.3419C69.1607 63.2051 69.946 63.5304 70.525 64.1093C71.1039 64.6883 71.4292 65.4736 71.4292 66.2924C71.4292 67.1112 71.1039 67.8965 70.5249 68.4755C69.9459 69.0545 69.1607 69.3798 68.3418 69.3798H32.5053C31.6865 69.3798 30.9012 69.0545 30.3222 68.4755C29.7432 67.8966 29.418 67.1113 29.418 66.2925C29.418 65.4737 29.7432 64.6883 30.3222 64.1093C30.9012 63.5304 31.6865 63.2051 32.5053 63.2051Z" fill="#475167"/>
<path d="M65.9894 12.7058C62.277 11.9275 59.3753 9.02589 58.5972 5.31344C58.5016 4.85772 58.0997 4.53125 57.6339 4.53125C57.1681 4.53125 56.7662 4.85772 56.6706 5.3135C55.8924 9.02589 52.9908 11.9275 49.2784 12.7056C48.8226 12.8011 48.4961 13.2031 48.4961 13.6689C48.4961 14.1346 48.8226 14.5366 49.2784 14.6321C52.9907 15.4104 55.8923 18.312 56.6705 22.0243C56.766 22.4801 57.1679 22.8067 57.6337 22.8067C58.0994 22.8067 58.5014 22.4802 58.597 22.0243C59.3752 18.312 62.2769 15.4104 65.9893 14.6323C66.4451 14.5368 66.7716 14.1348 66.7716 13.669C66.7716 13.2033 66.4451 12.8013 65.9894 12.7058Z" fill="#FDCA05"/>
<path d="M67.831 28.9645C66.0819 28.5979 64.7148 27.2307 64.3481 25.4815C64.2525 25.0257 63.8506 24.6992 63.3848 24.6992C62.9191 24.6992 62.5171 25.0256 62.4216 25.4815C62.0548 27.2306 60.6877 28.5977 58.9386 28.9644C58.4828 29.0599 58.1562 29.4619 58.1562 29.9277C58.1562 30.3934 58.4827 30.7954 58.9386 30.8909C60.6876 31.2576 62.0548 32.6248 62.4214 34.3739C62.517 34.8297 62.9189 35.1562 63.3847 35.1562C63.8504 35.1562 64.2524 34.8298 64.3479 34.3739C64.7147 32.6248 66.0818 31.2576 67.831 30.891C68.2868 30.7954 68.6133 30.3934 68.6133 29.9277C68.6133 29.462 68.2868 29.0601 67.831 28.9645Z" fill="#FDCA05"/>
<path d="M77.6593 19.8518C75.2951 19.3562 73.4472 17.5083 72.9517 15.1441C72.8561 14.6883 72.4542 14.3618 71.9884 14.3618C71.5227 14.3618 71.1207 14.6882 71.0252 15.1441C70.5295 17.5083 68.6817 19.3561 66.3175 19.8517C65.8617 19.9472 65.5352 20.3492 65.5352 20.815C65.5352 21.2807 65.8616 21.6826 66.3175 21.7782C68.6816 22.2738 70.5295 24.1217 71.025 26.4859C71.1206 26.9417 71.5225 27.2682 71.9883 27.2682C72.454 27.2682 72.856 26.9418 72.9515 26.4859C73.4472 24.1217 75.2951 22.2738 77.6592 21.7783C78.115 21.6827 78.4416 21.2808 78.4416 20.8151C78.4416 20.3494 78.1151 19.9474 77.6593 19.8518Z" fill="#FDCA05"/>
</svg>
