<svg width="512" height="512" viewBox="0 0 512 512" fill="none" xmlns="http://www.w3.org/2000/svg">
<path d="M112.668 105.824L63.0984 155.396L45.9297 138.225C42.1998 134.502 37.1443 132.412 31.8741 132.414C26.604 132.417 21.5504 134.511 17.8238 138.238C14.0973 141.964 12.0026 147.018 12.0002 152.288C11.9978 157.558 14.0879 162.614 17.811 166.344L49.0384 197.571C52.7675 201.3 57.8248 203.394 63.098 203.394C68.3712 203.394 73.4285 201.3 77.1575 197.571L140.787 133.942C144.516 130.214 146.611 125.156 146.611 119.883C146.611 114.61 144.516 109.552 140.787 105.824C137.058 102.095 132.001 100 126.728 100C121.454 100 116.397 102.095 112.668 105.824Z" fill="#59C939"/>
<path d="M204.837 133.117H304C309.241 133.117 314.267 135.199 317.972 138.904C321.678 142.61 323.759 147.636 323.759 152.876C323.759 158.117 321.678 163.142 317.972 166.848C314.267 170.554 309.241 172.635 304 172.635H204.837C199.597 172.635 194.571 170.554 190.866 166.848C187.16 163.143 185.078 158.117 185.078 152.877C185.078 147.636 187.16 142.61 190.866 138.904C194.571 135.199 199.597 133.117 204.837 133.117Z" fill="#475167"/>
<path d="M112.668 242.941L63.0982 292.513L45.9295 275.342C42.1995 271.619 37.144 269.529 31.8739 269.531C26.6037 269.534 21.5501 271.628 17.8236 275.355C14.097 279.082 12.0024 284.135 12 289.405C11.9976 294.675 14.0876 299.731 17.8108 303.461L49.0382 334.688C52.7673 338.417 57.8245 340.511 63.0977 340.511C68.3709 340.511 73.4282 338.417 77.1573 334.688L140.787 271.06C144.516 267.331 146.611 262.273 146.611 257C146.61 251.727 144.516 246.669 140.787 242.941C137.058 239.212 132.001 237.117 126.727 237.117C121.454 237.117 116.397 239.212 112.668 242.941Z" fill="#59C939"/>
<path d="M204.837 270.234H434.191C439.432 270.234 444.457 272.316 448.163 276.022C451.868 279.727 453.95 284.753 453.95 289.993C453.95 295.234 451.868 300.26 448.163 303.965C444.457 307.671 439.431 309.753 434.191 309.753H204.837C199.597 309.753 194.571 307.671 190.865 303.965C187.16 300.26 185.078 295.234 185.078 289.994C185.078 284.753 187.16 279.727 190.865 276.022C194.571 272.316 199.597 270.234 204.837 270.234Z" fill="#475167"/>
<path d="M112.668 377.218L63.0982 426.79L45.9295 409.619C42.1995 405.896 37.144 403.806 31.8739 403.809C26.6037 403.811 21.5501 405.906 17.8236 409.632C14.097 413.359 12.0024 418.413 12 423.683C11.9976 428.953 14.0876 434.008 17.8108 437.738L49.0382 468.966C52.7673 472.694 57.8245 474.789 63.0977 474.789C68.3709 474.789 73.4282 472.694 77.1573 468.966L140.787 405.337C144.516 401.608 146.611 396.551 146.611 391.277C146.61 386.004 144.516 380.947 140.787 377.218C137.058 373.489 132.001 371.394 126.727 371.395C121.454 371.395 116.397 373.489 112.668 377.218Z" fill="#59C939"/>
<path d="M204.837 404.512H434.191C439.432 404.512 444.457 406.593 448.163 410.299C451.868 414.005 453.95 419.03 453.95 424.271C453.95 429.511 451.868 434.537 448.163 438.243C444.457 441.948 439.431 444.03 434.191 444.03H204.837C199.597 444.03 194.571 441.948 190.865 438.243C187.16 434.537 185.078 429.511 185.078 424.271C185.078 419.031 187.16 414.005 190.865 410.299C194.571 406.593 199.597 404.512 204.837 404.512Z" fill="#475167"/>
<path d="M419.131 81.3171C395.372 76.3363 376.801 57.7657 371.821 34.006C371.209 31.0894 368.637 29 365.656 29C362.675 29 360.102 31.0894 359.491 34.0064C354.511 57.7657 335.94 76.3359 312.181 81.3159C309.264 81.9273 307.174 84.5002 307.174 87.4807C307.174 90.4613 309.263 93.0342 312.181 93.6456C335.94 98.6263 354.51 117.197 359.49 140.956C360.101 143.873 362.674 145.963 365.655 145.963C368.635 145.963 371.208 143.873 371.82 140.956C376.8 117.197 395.371 98.6263 419.131 93.6467C422.048 93.0353 424.137 90.4628 424.137 87.4819C424.137 84.5013 422.048 81.9284 419.131 81.3171Z" fill="#FDCA05"/>
<path d="M430.918 185.372C419.724 183.026 410.975 174.276 408.628 163.081C408.016 160.164 405.444 158.074 402.463 158.074C399.482 158.074 396.909 160.163 396.298 163.081C393.951 174.275 385.201 183.025 374.007 185.371C371.09 185.983 369 188.556 369 191.536C369 194.517 371.089 197.09 374.007 197.701C385.201 200.048 393.951 208.798 396.297 219.992C396.909 222.909 399.481 224.999 402.462 224.999C405.443 224.999 408.015 222.91 408.627 219.992C410.974 208.798 419.724 200.048 430.918 197.701C433.835 197.09 435.925 194.517 435.925 191.537C435.925 188.556 433.836 185.984 430.918 185.372Z" fill="#FDCA05"/>
<path d="M493.82 127.052C478.689 123.88 466.862 112.053 463.691 96.9228C463.079 94.0058 460.507 91.916 457.526 91.916C454.545 91.916 451.973 94.005 451.361 96.9224C448.189 112.053 436.363 123.88 421.232 127.051C418.315 127.663 416.225 130.236 416.225 133.216C416.225 136.197 418.314 138.769 421.232 139.381C436.363 142.553 448.189 154.379 451.36 169.51C451.972 172.427 454.544 174.517 457.525 174.517C460.506 174.517 463.079 172.428 463.69 169.51C466.862 154.379 478.689 142.553 493.819 139.382C496.736 138.77 498.826 136.197 498.826 133.217C498.826 130.236 496.737 127.663 493.82 127.052Z" fill="#FDCA05"/>
</svg>
