<svg width="177" height="24" viewBox="0 0 177 24" fill="none" xmlns="http://www.w3.org/2000/svg">
<g clip-path="url(#clip0_1298_38317)">
<path d="M44.7632 16.404H32.5556C32.7761 17.403 33.2951 18.1943 34.1123 18.7716C34.9296 19.3489 35.9545 19.6408 37.174 19.6408C38.0107 19.6408 38.7567 19.5176 39.4118 19.2646C40.0605 19.0181 40.6637 18.6224 41.228 18.0776L43.7188 20.7759C42.201 22.5143 39.9826 23.3835 37.0637 23.3835C35.2475 23.3835 33.6323 23.0267 32.2378 22.3197C30.8367 21.6127 29.7599 20.6267 29.001 19.3684C28.2421 18.11 27.8594 16.683 27.8594 15.0808C27.8594 13.4786 28.2356 12.0776 28.9815 10.8062C29.734 9.53485 30.7588 8.54891 32.0691 7.83539C33.3794 7.12837 34.8453 6.77161 36.4605 6.77161C38.0756 6.77161 39.4702 7.10891 40.748 7.78999C42.0259 8.47107 43.0313 9.44404 43.7642 10.7154C44.4907 11.9867 44.8605 13.4592 44.8605 15.1392C44.8605 15.1976 44.828 15.6192 44.7696 16.3976L44.7632 16.404ZM33.814 11.2149C33.094 11.8116 32.6529 12.6354 32.4972 13.6732H40.4432C40.281 12.6549 39.8464 11.8376 39.1264 11.2278C38.4064 10.6181 37.5242 10.3132 36.4864 10.3132C35.4486 10.3132 34.534 10.6116 33.814 11.2149ZM37.6864 0.628906H42.7264L37.2972 4.94891H33.6388L37.6864 0.628906Z" fill="#22AFE5"/>
<path d="M62.627 8.57487C63.8594 9.77487 64.4691 11.5522 64.4691 13.9132V23.15H59.7924V14.6332C59.7924 13.3554 59.5134 12.4019 58.9556 11.7662C58.3978 11.137 57.587 10.8192 56.5297 10.8192C55.3491 10.8192 54.4086 11.1824 53.708 11.9154C53.0075 12.6419 52.6572 13.7316 52.6572 15.1716V23.15H47.9805V7.01162H52.4497V8.89919C53.0659 8.21811 53.8378 7.6927 54.7588 7.32297C55.6799 6.95324 56.6853 6.76514 57.788 6.76514C59.7859 6.76514 61.401 7.36189 62.6334 8.56189L62.627 8.57487Z" fill="#22AFE5"/>
<path d="M84.5903 16.404H72.3827C72.6033 17.403 73.1222 18.1943 73.9395 18.7716C74.7568 19.3489 75.7817 19.6408 77.0011 19.6408C77.8379 19.6408 78.5838 19.5176 79.239 19.2646C79.8876 19.0181 80.4908 18.6224 81.0552 18.0776L83.546 20.7759C82.0281 22.5143 79.8098 23.3835 76.8908 23.3835C75.0746 23.3835 73.4595 23.0267 72.0649 22.3197C70.6638 21.6127 69.5871 20.6267 68.8281 19.3684C68.0692 18.11 67.6865 16.683 67.6865 15.0808C67.6865 13.4786 68.0627 12.0776 68.8087 10.8062C69.5611 9.53485 70.586 8.54891 71.8963 7.83539C73.2065 7.12837 74.6725 6.77161 76.2876 6.77161C77.9027 6.77161 79.2973 7.10891 80.5752 7.78999C81.853 8.47107 82.8584 9.44404 83.5914 10.7154C84.3179 11.9867 84.6876 13.4592 84.6876 15.1392C84.6876 15.1976 84.6552 15.6192 84.5968 16.3976L84.5903 16.404ZM73.6411 11.2149C72.9211 11.8116 72.48 12.6354 72.3244 13.6732H80.2703C80.1081 12.6549 79.6735 11.8376 78.9535 11.2278C78.2335 10.6181 77.3514 10.3132 76.3135 10.3132C75.2757 10.3132 74.3611 10.6116 73.6411 11.2149ZM77.5136 0.628906H82.5535L77.1244 4.94891H73.466L77.5136 0.628906Z" fill="#22AFE5"/>
<path d="M89.9287 23.3447C89.6109 23.3447 89.3644 23.2604 89.1957 23.0853C89.0271 22.9166 88.9428 22.6701 88.9428 22.3523V9.21067H86.6725C86.3936 9.21067 86.1795 9.13932 86.0173 9.0031C85.8552 8.86689 85.7773 8.66581 85.7773 8.41283C85.7773 8.17932 85.8552 7.99121 86.0173 7.855C86.1795 7.71878 86.3936 7.64743 86.6725 7.64743H89.4552L88.9428 8.15986V6.88202C88.9428 4.9231 89.4098 3.41824 90.3503 2.37391C91.2909 1.32959 92.6855 0.719861 94.5406 0.551212L95.4033 0.486347C95.6368 0.466888 95.8249 0.49932 95.9611 0.596618C96.0973 0.693915 96.1946 0.817158 96.2465 0.966347C96.2984 1.11554 96.3049 1.27121 96.2595 1.43337C96.2141 1.59554 96.1363 1.73175 96.0195 1.84851C95.9028 1.96527 95.76 2.03662 95.5849 2.05608L94.6898 2.15337C93.3665 2.25716 92.4065 2.69175 91.7968 3.45067C91.1871 4.20959 90.8887 5.29932 90.8887 6.72635V8.10148L90.6033 7.65391H94.6963C94.9946 7.65391 95.2217 7.72527 95.3644 7.86148C95.5136 7.9977 95.5914 8.18581 95.5914 8.41932C95.5914 8.67229 95.5136 8.87337 95.3644 9.00959C95.2152 9.14581 94.9882 9.21716 94.6963 9.21716H90.8887V22.3588C90.8887 23.0204 90.5709 23.3512 89.9287 23.3512V23.3447Z" fill="#4FB848"/>
<path d="M99.3932 23.3446C99.0753 23.3446 98.8288 23.2602 98.6602 23.0851C98.4916 22.9165 98.4072 22.67 98.4072 22.3521V8.43863C98.4072 8.09484 98.4916 7.84187 98.6602 7.67322C98.8288 7.50457 99.0753 7.42025 99.3932 7.42025C99.6916 7.42025 99.9186 7.50457 100.081 7.67322C100.243 7.84187 100.321 8.10133 100.321 8.43863V11.2862H100.003C100.386 10.0278 101.073 9.06133 102.066 8.37376C103.058 7.69268 104.245 7.34241 105.633 7.31646C105.886 7.297 106.1 7.3489 106.275 7.47863C106.444 7.60836 106.535 7.80944 106.535 8.08836C106.554 8.38673 106.489 8.61376 106.34 8.77592C106.191 8.93809 105.945 9.03538 105.607 9.08079L105.16 9.11322C103.648 9.26241 102.474 9.76187 101.644 10.6181C100.814 11.4743 100.399 12.6224 100.399 14.0689V22.3521C100.399 22.67 100.321 22.9165 100.159 23.0851C99.9964 23.2538 99.7499 23.3446 99.4061 23.3446H99.3932Z" fill="#4FB848"/>
<path d="M110.329 3.64516C109.882 3.64516 109.538 3.5284 109.292 3.29489C109.045 3.06138 108.922 2.73057 108.922 2.30246C108.922 1.87435 109.045 1.55003 109.292 1.32948C109.538 1.10894 109.882 0.992188 110.329 0.992188C110.777 0.992188 111.121 1.10246 111.367 1.32948C111.614 1.55651 111.737 1.88084 111.737 2.30246C111.737 2.72408 111.614 3.06138 111.367 3.29489C111.121 3.5284 110.777 3.64516 110.329 3.64516ZM110.329 23.2798C110.012 23.2798 109.765 23.1825 109.596 22.9944C109.428 22.7998 109.337 22.5468 109.337 22.2289V8.53597C109.337 8.19219 109.421 7.93921 109.596 7.77057C109.772 7.60192 110.012 7.51759 110.329 7.51759C110.628 7.51759 110.861 7.60192 111.036 7.77057C111.205 7.93921 111.289 8.19867 111.289 8.53597V22.2225C111.289 22.5403 111.212 22.7998 111.049 22.9879C110.887 23.1825 110.647 23.2733 110.329 23.2733V23.2798Z" fill="#4FB848"/>
<path d="M122.763 23.403C121.252 23.403 119.948 23.0657 118.865 22.3976C117.782 21.7295 116.939 20.776 116.355 19.5501C115.771 18.3241 115.473 16.9036 115.473 15.282C115.473 14.043 115.635 12.9403 115.966 11.9738C116.296 11.0074 116.776 10.1771 117.406 9.49601C118.035 8.81493 118.8 8.28952 119.708 7.91331C120.616 7.53709 121.635 7.35547 122.763 7.35547C123.548 7.35547 124.359 7.49168 125.196 7.75763C126.026 8.02358 126.785 8.46466 127.466 9.08736C127.615 9.21709 127.713 9.36628 127.752 9.53493C127.79 9.70358 127.784 9.87223 127.719 10.0279C127.654 10.1836 127.557 10.3133 127.434 10.4106C127.31 10.5079 127.148 10.5598 126.973 10.5728C126.792 10.5857 126.603 10.5014 126.415 10.3328C125.819 9.83979 125.215 9.50898 124.606 9.32736C123.996 9.14574 123.406 9.05493 122.828 9.05493C121.953 9.05493 121.187 9.19114 120.526 9.47006C119.864 9.74898 119.306 10.1511 118.846 10.683C118.385 11.2149 118.041 11.8701 117.808 12.6484C117.574 13.4268 117.458 14.3155 117.458 15.3209C117.458 17.3252 117.918 18.8949 118.846 20.0365C119.773 21.1782 121.103 21.749 122.828 21.749C123.406 21.749 123.996 21.6582 124.606 21.4766C125.215 21.2949 125.812 20.9576 126.415 20.4711C126.61 20.3025 126.792 20.2182 126.973 20.2311C127.155 20.2441 127.31 20.296 127.434 20.3933C127.563 20.4906 127.654 20.6203 127.706 20.776C127.758 20.9382 127.765 21.1003 127.719 21.269C127.674 21.4376 127.583 21.5868 127.434 21.7165C126.772 22.3328 126.026 22.7738 125.196 23.0268C124.366 23.2798 123.555 23.4095 122.763 23.4095V23.403Z" fill="#4FB848"/>
<path d="M132.104 23.3448C131.786 23.3448 131.539 23.2604 131.371 23.0853C131.202 22.9167 131.111 22.6702 131.111 22.3523V1.40747C131.111 1.06369 131.196 0.817201 131.371 0.655039C131.539 0.492877 131.786 0.415039 132.104 0.415039C132.402 0.415039 132.636 0.492877 132.811 0.655039C132.979 0.817201 133.064 1.06369 133.064 1.40747V11.254H132.681C133.109 9.97612 133.836 9.00315 134.873 8.34153C135.905 7.6799 137.098 7.34909 138.441 7.34909C139.68 7.34909 140.705 7.57612 141.529 8.02369C142.352 8.47126 142.962 9.14585 143.371 10.0345C143.773 10.9296 143.981 12.0388 143.981 13.3621V22.3459C143.981 22.6637 143.896 22.9102 143.728 23.0788C143.559 23.2475 143.325 23.3383 143.027 23.3383C142.709 23.3383 142.463 23.254 142.294 23.0788C142.125 22.9102 142.041 22.6637 142.041 22.3459V13.5177C142.041 11.961 141.73 10.8259 141.113 10.1123C140.497 9.39882 139.511 9.04207 138.169 9.04207C136.631 9.04207 135.405 9.51558 134.478 10.4626C133.55 11.4096 133.09 12.6875 133.09 14.2831V22.3394C133.09 23.001 132.772 23.3318 132.13 23.3318L132.104 23.3448Z" fill="#4FB848"/>
<path d="M170.186 23.4032C169.226 23.4032 168.273 23.2734 167.326 23.0205C166.379 22.7675 165.477 22.3264 164.621 21.7102C164.452 21.6064 164.335 21.4702 164.284 21.308C164.232 21.1459 164.219 20.9837 164.251 20.8151C164.284 20.6464 164.355 20.4972 164.478 20.3805C164.601 20.2637 164.738 20.1924 164.913 20.1729C165.081 20.1534 165.263 20.2053 165.458 20.3351C166.288 20.8929 167.099 21.2756 167.89 21.4832C168.675 21.6972 169.466 21.801 170.258 21.801C171.555 21.801 172.547 21.5545 173.228 21.068C173.909 20.5751 174.253 19.9199 174.253 19.0832C174.253 18.4021 174.033 17.8767 173.598 17.5005C173.164 17.1243 172.45 16.8259 171.471 16.5924L168.688 15.9502C167.345 15.6518 166.353 15.1653 165.717 14.4972C165.075 13.8226 164.757 12.9599 164.757 11.8897C164.757 10.9751 164.997 10.1707 165.477 9.48966C165.957 8.80858 166.638 8.28318 167.52 7.90696C168.402 7.53074 169.421 7.34912 170.575 7.34912C171.516 7.34912 172.411 7.48534 173.261 7.76426C174.111 8.04318 174.863 8.4648 175.499 9.04209C175.667 9.17182 175.784 9.32101 175.836 9.48966C175.888 9.65831 175.888 9.82696 175.836 9.98264C175.784 10.1383 175.693 10.2745 175.564 10.3848C175.434 10.4951 175.285 10.547 175.116 10.547C174.947 10.547 174.766 10.4821 174.571 10.3524C173.955 9.88534 173.3 9.53507 172.619 9.31453C171.938 9.0875 171.244 8.97723 170.543 8.97723C169.304 8.97723 168.351 9.2302 167.682 9.74264C167.014 10.2551 166.677 10.9491 166.677 11.8183C166.677 12.4799 166.885 13.0118 167.3 13.4205C167.715 13.8291 168.37 14.134 169.265 14.348L172.048 14.9902C173.436 15.308 174.467 15.7816 175.148 16.4107C175.829 17.0399 176.173 17.8897 176.173 18.9534C176.173 20.3156 175.635 21.3989 174.558 22.1967C173.481 22.9945 172.028 23.3967 170.193 23.3967L170.186 23.4032Z" fill="#4FB848"/>
<path d="M161.87 20.5749C161.52 20.2635 160.969 20.2505 160.605 20.5554C159.47 21.5089 158.043 22.0343 156.577 22.0343C153.665 22.0343 151.206 20.0105 150.448 17.2538H155.137C155.637 17.2538 156.045 16.884 156.045 16.43C156.045 15.9759 155.637 15.6127 155.137 15.6127H150.208C150.208 15.5673 150.201 15.5219 150.201 15.4765C150.201 15.2365 150.214 14.9965 150.24 14.763H155.137C155.637 14.763 156.045 14.3932 156.045 13.9457C156.045 13.4981 155.637 13.1284 155.137 13.1284H150.636C151.557 10.6765 153.872 8.93161 156.577 8.93161C157.959 8.93161 159.269 9.37918 160.378 10.2289C160.755 10.5143 161.306 10.4819 161.643 10.1576C161.812 9.99539 161.896 9.78134 161.883 9.55431C161.87 9.32728 161.753 9.11972 161.565 8.97701C160.125 7.87431 158.4 7.29053 156.584 7.29053C152.886 7.29053 149.753 9.75539 148.735 13.1284H147.379C146.873 13.1284 146.465 13.4981 146.465 13.9457C146.465 14.3932 146.873 14.763 147.379 14.763H148.424C148.404 14.9965 148.385 15.2365 148.385 15.4765C148.385 15.5219 148.385 15.5673 148.391 15.6127H147.379C146.873 15.6127 146.465 15.9824 146.465 16.43C146.465 16.8776 146.873 17.2538 147.379 17.2538H148.586C149.403 20.9186 152.672 23.6689 156.584 23.6689C158.51 23.6689 160.385 22.9878 161.851 21.7554C162.032 21.5997 162.136 21.3921 162.143 21.1651C162.143 20.9381 162.052 20.7305 161.877 20.5749H161.87Z" fill="#4FB848"/>
<path d="M10.0024 19.5112L9.2435 23.3901H0.421875L1.18079 19.5112H10.0024Z" fill="#4FB848"/>
<path d="M12.4415 9.89804L11.6242 13.8937H7.89442L7.09658 17.9088H3.12037L3.91172 13.9002H0.188477L0.979828 9.89804H4.70956L5.46848 6.08398H9.43821L8.67929 9.89804H12.4415Z" fill="#939598"/>
<path d="M24.1362 13.6607C23.3903 12.6877 22.3589 11.9872 21.0486 11.572C22.0151 11.0661 22.7611 10.3785 23.2994 9.49634C23.8378 8.62066 24.1038 7.62175 24.1038 6.50607C24.1038 4.67039 23.3578 3.20445 21.853 2.13418C20.3481 1.05742 18.1946 0.519043 15.3859 0.519043H6.6162L5.81836 4.53418H14.7308C16.0411 4.53418 17.04 4.76121 17.7211 5.20877C18.4021 5.66283 18.7459 6.33094 18.7459 7.23256C18.7459 8.13418 18.4021 8.80877 17.7211 9.2758C17.04 9.73634 16.0411 9.96337 14.7308 9.96337H14.4454L13.667 13.8488H15.6519C18.48 13.8488 19.9005 14.7958 19.9005 16.7028C19.9005 17.6693 19.5373 18.3828 18.8238 18.8434C18.1103 19.3039 17.053 19.5309 15.6519 19.5309H11.8962L11.1178 23.5461H16.054C19.0573 23.5461 21.3405 23.0077 22.9103 21.918C24.48 20.8347 25.2584 19.2844 25.2584 17.2672C25.2584 15.8401 24.8886 14.6401 24.1427 13.6672L24.1362 13.6607Z" fill="#22AFE5"/>
</g>
<defs>
<clipPath id="clip0_1298_38317">
<rect width="176.432" height="24" fill="white"/>
</clipPath>
</defs>
</svg>
