<svg width="78" height="90" viewBox="0 0 78 90" fill="none" xmlns="http://www.w3.org/2000/svg">
<mask id="mask0_5698_6287" style="mask-type:luminance" maskUnits="userSpaceOnUse" x="0" y="1" width="78" height="88">
<path d="M77.25 1.08252H0.25V88.9167H77.25V1.08252Z" fill="white"/>
</mask>
<g mask="url(#mask0_5698_6287)">
<path d="M36.679 6.74893C35.9414 6.9756 35.2605 7.37227 33.8419 8.19394L10.4922 21.6524C9.10204 22.4741 8.39275 22.8707 7.82533 23.3807C6.80396 24.3441 6.0663 25.5624 5.75421 26.9508C5.58398 27.6875 5.58398 28.5091 5.58398 30.1241V57.0694C5.58398 58.6844 5.58398 59.5061 5.75421 60.2428C6.0663 61.6028 6.77558 62.8494 7.82533 63.8128C8.39275 64.3228 9.07367 64.7195 10.4922 65.5411L33.8419 78.9996C35.2321 79.8213 35.9414 80.2179 36.679 80.4446C38.0125 80.8696 39.4594 80.8696 40.7929 80.4446C41.5306 80.2179 42.2115 79.8213 43.63 78.9996L66.9797 65.5411C68.3699 64.7195 69.0792 64.3228 69.6466 63.8128C70.668 62.8494 71.4057 61.6311 71.7177 60.2428C71.888 59.5061 71.888 58.6844 71.888 57.0694V30.1241C71.888 28.5091 71.888 27.6875 71.7177 26.9508C71.4057 25.5908 70.6964 24.3441 69.6466 23.3807C69.0792 22.8707 68.3983 22.4741 66.9797 21.6524L43.63 8.19394C42.2398 7.37227 41.5306 6.9756 40.7929 6.74893C39.4594 6.32392 38.0125 6.32392 36.679 6.74893Z" fill="#000091"/>
<path fill-rule="evenodd" clip-rule="evenodd" d="M46.3252 3.54804L69.6748 17.0065C69.6748 17.0065 69.8734 17.1198 69.9585 17.1765C71.065 17.8282 72.285 18.5082 73.278 19.4432C75.1221 21.1432 76.3989 23.3532 76.9379 25.7899C77.25 27.1216 77.2216 28.5099 77.2216 29.8133C77.2216 29.9266 77.2216 30.0399 77.2216 30.1249V57.0702C77.2216 57.0702 77.2216 57.2969 77.2216 57.3819C77.2216 58.6569 77.2216 60.0452 76.9379 61.4052C76.3989 63.8419 75.1221 66.052 73.278 67.752C72.2566 68.687 71.065 69.367 69.9585 70.0187C69.8734 70.0753 69.7599 70.132 69.6748 70.1887L46.3252 83.6471C46.3252 83.6471 46.1266 83.7605 46.0415 83.8171C44.935 84.4688 43.715 85.1488 42.4099 85.5738C40.0267 86.3105 37.4733 86.3105 35.0901 85.5738C33.785 85.1771 32.565 84.4688 31.4585 83.8171C31.3734 83.7605 31.2599 83.7038 31.1748 83.6471L7.82517 70.1887C7.82517 70.1887 7.62657 70.0753 7.54145 70.0187C6.43497 69.367 5.215 68.687 4.222 67.752C2.37786 66.052 1.10114 63.8419 0.562085 61.4052C0.25 60.0452 0.25 58.6569 0.25 57.3819C0.25 57.2685 0.25 57.1552 0.25 57.0702V30.1249C0.25 30.1249 0.25 29.8983 0.25 29.8133C0.25 28.5383 0.25 27.1499 0.533714 25.7899C1.07277 23.3532 2.34948 21.1432 4.19363 19.4432C5.215 18.5082 6.4066 17.8282 7.51308 17.1765C7.59819 17.1198 7.71168 17.0632 7.79679 17.0065L31.1748 3.54804C31.1748 3.54804 31.3734 3.4347 31.4585 3.37803C32.565 2.72636 33.785 2.04636 35.0901 1.62135C37.4733 0.88468 40.0267 0.88468 42.4099 1.62135C43.715 2.01802 44.935 2.72636 46.0415 3.37803C46.1266 3.4347 46.2401 3.49137 46.3252 3.54804ZM36.6789 6.74973C35.9412 6.9764 35.2603 7.37307 33.8417 8.19475L10.4921 21.6532C9.10188 22.4749 8.39259 22.8715 7.82517 23.3815C6.8038 24.3449 6.06614 25.5632 5.75405 26.9516C5.58382 27.6883 5.58382 28.5099 5.58382 30.1249V57.0702C5.58382 58.6852 5.58382 59.5069 5.75405 60.2436C6.06614 61.6036 6.77542 62.8503 7.82517 63.8136C8.39259 64.3236 9.07351 64.7203 10.4921 65.5419L33.8417 79.0004C35.2319 79.8221 35.9412 80.2188 36.6789 80.4454C38.0123 80.8704 39.4593 80.8704 40.7927 80.4454C41.5304 80.2188 42.2113 79.8221 43.6299 79.0004L66.9796 65.5419C68.3698 64.7203 69.079 64.3236 69.6465 63.8136C70.6678 62.8503 71.4055 61.6319 71.7176 60.2436C71.8878 59.5069 71.8878 58.6852 71.8878 57.0702V30.1249C71.8878 28.5099 71.8878 27.6883 71.7176 26.9516C71.4055 25.5916 70.6962 24.3449 69.6465 23.3815C69.079 22.8715 68.3981 22.4749 66.9796 21.6532L43.6299 8.19475C42.2397 7.37307 41.5304 6.9764 40.7927 6.74973C39.4593 6.32473 38.0123 6.32473 36.6789 6.74973Z" fill="#000091"/>
<path d="M15.9675 43.8666L27.0324 24.8547L27.6849 23.7498L18.3507 17.1479L10.5202 21.653C9.13004 22.4747 8.42075 22.8713 7.85332 23.3813C7.37101 23.8347 6.94544 24.3448 6.60498 24.9114L15.9959 43.8666H15.9675Z" fill="#FCC63A"/>
<path d="M39.9414 6.55127L71.5755 60.7818C71.6323 60.6118 71.689 60.4134 71.7174 60.2434C71.8876 59.5068 71.8876 58.6851 71.8876 57.0701V30.1248C71.8876 28.5098 71.8876 27.6881 71.7174 26.9515C71.4053 25.5914 70.696 24.3448 69.6463 23.3814C69.0788 22.8714 68.3979 22.4747 66.9794 21.6531L43.6297 8.19462C42.2395 7.37294 41.5302 6.97627 40.7925 6.7496C40.5088 6.6646 40.2251 6.5796 39.9414 6.55127Z" fill="#FCC63A"/>
<path d="M58.8367 16.9497L66.9793 21.6531C68.3695 22.4747 69.0788 22.8714 69.6462 23.3814C70.1002 23.7781 70.469 24.2598 70.8094 24.7698L61.5604 43.6966L49.7295 23.3248L58.8651 16.9497H58.8367Z" fill="#0063CB"/>
<path d="M38.835 6.43799V80.7287C38.1258 80.7287 37.3881 80.6437 36.7072 80.417C35.9695 80.1903 35.2886 79.7937 33.87 78.972L10.5204 65.5135C9.13018 64.6919 8.4209 64.2952 7.85347 63.7852C7.00233 62.9918 6.34979 62.0285 5.98096 60.9235L37.7002 6.52299C38.069 6.46632 38.4378 6.43799 38.8067 6.43799H38.835Z" fill="#0063CB"/>
<path fill-rule="evenodd" clip-rule="evenodd" d="M49.6447 75.5146C47.4885 74.8629 45.3323 74.1546 43.2612 73.3329C42.8923 72.5679 42.6937 71.7179 42.6654 70.8962C42.6654 70.0462 42.8072 69.1962 43.1477 68.4312C43.3179 67.7512 43.6016 67.0995 43.9421 66.5045C43.9988 66.4478 44.0556 66.3912 44.0556 66.3345H44.0839C44.0839 66.3345 44.0839 66.3345 44.0839 66.3062C44.3393 65.8812 44.623 65.4845 44.9351 65.0878H44.9635L45.0202 65.0028H45.0486C45.0486 65.0028 45.1053 64.8611 45.162 64.8045C45.162 64.8045 45.2472 64.6912 45.2755 64.6628C45.3039 64.6345 45.3606 64.5778 45.389 64.5211C45.7862 64.1245 46.2402 63.7561 46.7225 63.4161C47.2048 63.2461 47.7155 63.1045 48.2262 63.0195C50.0703 63.1611 51.9428 63.3878 53.7586 63.7278C53.9856 63.7561 54.2125 63.8411 54.3828 63.9545C55.0637 64.0961 55.773 64.0395 56.4539 63.8411C56.8794 63.7561 57.305 63.5861 57.6455 63.3028C57.9859 63.0195 58.2413 62.6795 58.4115 62.2828C58.6101 61.9428 58.7236 61.5461 58.752 61.1211C58.752 60.7244 58.6952 60.3278 58.525 59.9594C58.1278 59.3644 58.4966 58.9961 58.9506 58.6561L59.0924 58.5428C59.291 58.4011 59.4612 58.2594 59.6315 58.0611C59.8301 57.6927 59.6598 57.4377 59.4896 57.1544C59.4045 57.0127 59.3194 56.8427 59.2626 56.6727C59.2059 56.5594 59.0924 56.5311 58.9789 56.5027C58.8371 56.4461 58.6385 56.4177 58.525 56.2194C59.3194 55.8794 60.4826 55.2844 59.9719 54.3494C59.6315 53.8394 59.1208 52.961 59.745 52.4794C60.057 52.3094 60.3975 52.2244 60.7663 52.1394C61.3338 51.9977 61.8444 51.8844 62.0714 51.431C62.1849 51.006 62.1849 50.581 62.0714 50.156C61.9579 49.731 61.731 49.3627 61.4189 49.051L61.2486 48.8243C61.0784 48.5977 60.9082 48.371 60.7663 48.116C60.3975 47.5493 60.0003 46.9826 59.5464 46.4443C59.0357 45.7643 58.6385 45.0276 58.3264 44.2343C58.0994 43.7243 58.2129 43.2426 58.3264 42.7326C58.3831 42.4493 58.4399 42.1659 58.4399 41.8543C58.4682 40.2676 58.2129 38.6526 57.7022 37.1509C57.5887 36.8392 57.5036 36.4992 57.3901 36.1592C57.2766 35.7059 57.1348 35.2525 56.9362 34.8275C56.8794 34.3742 56.7092 33.9209 56.4255 33.5525C56.3688 33.4392 56.3404 33.3259 56.3404 33.1842C56.3404 33.0425 56.3688 32.9292 56.4255 32.8158C56.9078 32.5042 57.3334 32.1358 57.759 31.7675C57.8724 31.5125 57.9008 31.2008 57.8157 30.9175C57.7306 30.6342 57.532 30.3792 57.2766 30.2375C56.8227 30.0392 56.6808 30.3508 56.5106 30.6625C56.3971 30.8608 56.2836 31.0875 56.085 31.1725H55.7446C55.6595 30.9458 55.773 30.8325 55.9716 30.6908C55.9999 30.6625 56.0567 30.6058 56.085 30.5775C56.085 30.4642 56.085 30.2375 55.9716 30.2375C55.5176 30.2375 55.1204 30.1242 54.9786 29.8975C53.8721 28.5941 52.3968 27.6025 50.7228 27.0641C51.1484 27.1775 51.6024 27.2625 52.0563 27.2908C52.8223 27.4325 53.6451 27.3758 54.3544 27.0641C54.7232 26.9508 54.8934 26.4408 55.0353 25.9874C55.092 25.8174 55.1488 25.6474 55.2055 25.5058C55.2623 25.2508 55.2339 25.0241 55.2055 24.7691C55.1488 24.5424 55.0353 24.3158 54.8934 24.1174C54.3828 23.3808 53.6451 22.8141 52.8223 22.4457C52.2833 22.2191 51.7726 21.9641 51.2619 21.6807C51.0917 21.5674 50.8931 21.4824 50.6945 21.3974C43.9137 18.139 29.9266 20.9724 28.8485 21.3974C27.8555 21.6807 26.9192 22.0207 25.983 22.4457C24.7063 22.8991 23.5714 23.6074 22.6352 24.5424C21.6989 25.4774 20.9896 26.6108 20.564 27.8291C19.259 28.6508 18.2092 29.7841 17.4999 31.1442C17.273 31.5408 17.0176 31.9375 16.7623 32.3342C15.9395 33.6375 15.1167 34.9125 15.287 36.4425C15.4288 37.5759 15.6558 38.6526 15.9111 39.7576C16.0246 40.3242 16.1665 40.8909 16.28 41.4859C16.3651 42.0809 16.5353 42.6759 16.7339 43.2426C16.8474 43.4976 16.8474 43.8093 16.8474 44.0926C16.8474 44.461 16.8758 44.8293 17.0744 45.1126C17.1311 45.226 17.1595 45.3393 17.1878 45.4526C17.2446 45.6793 17.3013 45.906 17.6134 46.0476V46.4726C17.6134 46.4726 17.6702 46.5293 17.6985 46.5576C17.7553 46.6426 17.812 46.6993 17.9822 46.6993V47.1243C18.9752 48.0593 19.8264 49.1077 20.5073 50.2693C20.7343 50.8644 19.4008 50.6093 18.8901 50.3827C17.9255 49.7877 17.0744 49.0793 16.3083 48.286C16.2516 48.3427 16.1948 48.4277 16.1948 48.5127C16.3367 48.7677 16.6204 49.0227 16.8758 49.306C17.4432 49.8443 17.9822 50.3827 17.3864 50.7227C17.1878 50.8077 16.9609 50.7794 16.7623 50.7227C16.4786 50.666 16.1948 50.581 15.9395 50.836C15.8544 50.9494 15.8828 51.091 15.9395 51.2327C15.9395 51.3177 15.9395 51.3744 15.9395 51.4594C15.5707 51.2044 15.1451 51.176 14.7763 51.1477C14.5209 51.1477 14.2372 51.1194 13.9819 51.0343C13.7833 50.9777 13.6414 50.7793 13.4996 50.581C13.3293 50.3543 13.1875 50.0993 12.9038 50.0993C11.5419 49.7877 10.1517 49.5327 8.76153 49.391C7.71179 49.2493 6.66205 49.136 5.6123 49.0793V50.1843C6.52019 50.0143 7.45645 49.9293 8.3927 49.9577C8.76153 49.901 9.13037 49.901 9.4992 49.9577C8.19411 49.9577 6.88902 50.1277 5.64068 50.496V52.5077C6.6053 52.706 7.56993 52.9327 8.53456 53.216C9.47082 53.556 10.3787 53.981 11.2298 54.4911C11.5703 54.8027 11.9391 55.0861 12.3363 55.3127C12.62 55.4544 12.9321 55.5394 13.2442 55.5677C13.5563 55.5677 13.8684 55.5394 14.1805 55.4261H14.9465C16.592 55.1711 18.1241 54.4911 19.3724 53.4427C19.3724 53.556 19.4859 53.556 19.5994 53.556C19.4292 54.4344 19.0887 55.2561 18.6064 56.0494C18.6064 56.0494 18.6064 56.1061 18.6064 56.1344C18.6064 56.2477 18.5497 56.3894 18.7483 56.4744H18.9185C18.9185 56.4744 18.7483 56.4744 18.7483 56.5877C18.7483 56.7011 18.8334 56.7011 18.9469 56.7011C19.0604 56.7011 19.1738 56.7011 19.2306 56.8144C18.6915 56.8144 18.1808 57.0411 17.7836 57.4094C17.7836 57.5227 18.0106 57.5227 18.1241 57.5227C18.039 57.6361 17.9255 57.6644 17.7836 57.6927C17.6702 57.7211 17.5283 57.7494 17.4716 57.8628C17.5283 57.9194 17.6134 57.9477 17.6985 57.9761C17.585 57.9761 17.4716 57.9761 17.4716 58.0894V58.4294C17.3013 58.4294 17.1878 58.5144 17.046 58.5994C16.9892 58.6561 16.9041 58.7128 16.819 58.7411C17.1311 58.9678 17.3581 58.8828 17.585 58.8261C17.7269 58.7978 17.8688 58.7411 18.0106 58.7411C17.4999 58.9111 17.046 59.1378 16.5637 59.3644C15.9395 59.6478 15.287 59.9311 14.606 60.1294C14.4926 60.1294 14.4926 60.2144 14.4926 60.2994C14.4926 60.3844 14.4926 60.4694 14.3791 60.4694C14.5777 60.6111 14.7479 60.5261 14.8898 60.4694C15.0032 60.4128 15.0884 60.3561 15.2302 60.3561C14.606 60.6961 13.9819 61.0361 13.3293 61.3478C12.4214 61.8011 11.5136 62.2828 10.5489 62.8495C10.4354 62.9628 10.3503 63.1328 10.322 63.2745H9.86802C9.86802 63.2745 9.72616 63.4445 9.69779 63.5578C9.69779 63.6711 9.64106 63.7845 9.52757 63.8978C9.78291 64.0678 10.0666 63.9545 10.322 63.8695C10.6057 63.7845 10.861 63.6711 11.0312 63.8978C11.1447 63.8978 10.8043 64.0111 10.5773 64.0111C10.5206 64.0111 10.4922 64.0678 10.4638 64.1245C10.4354 64.1811 10.4071 64.2378 10.3503 64.2378H10.0099C10.0099 64.2378 9.95313 64.2661 9.92476 64.2945C9.72616 64.4361 9.55593 64.5495 9.55593 64.8328C9.47082 64.8328 9.3857 64.8328 9.30059 64.8328C9.41407 64.8895 9.49919 64.9462 9.61267 65.0312C11.8824 64.9745 14.0954 64.5495 16.2232 63.7845C18.0106 62.9061 19.6278 61.7445 21.018 60.3561C21.0747 60.4128 21.1315 60.4978 21.1315 60.5828C20.791 61.5461 20.1385 62.3678 19.2873 62.9628C18.9752 63.1328 18.7199 63.3311 18.4646 63.5011C18.2092 63.6995 17.9539 63.8978 17.6985 64.0111C17.3581 64.1811 17.0176 64.4078 16.7055 64.6061C15.2586 65.0312 13.7833 65.3428 12.2512 65.5128L11.5419 65.5978C11.2866 65.6262 11.0312 65.6828 10.7759 65.7112L14.067 67.6095C14.606 67.6095 15.1167 67.5528 15.6274 67.4678C16.3083 67.2978 16.9609 67.0428 17.585 66.7595V66.9862C18.3511 66.7028 19.0036 66.2495 19.6845 65.7678C20.4222 65.2578 21.1598 64.7478 22.011 64.4928C22.011 64.4928 22.0677 64.4928 22.0961 64.5211C22.2096 64.5778 22.3798 64.6628 22.5217 64.6061C22.9472 64.1245 23.4579 63.7278 24.0537 63.4445C24.6495 63.1895 25.3021 63.0478 25.983 63.0478C25.983 63.1611 25.983 63.2745 26.0965 63.2745H26.1532C25.8695 63.5011 25.5574 63.6995 25.2453 63.9261C25.1602 63.9828 25.0751 64.0395 24.99 64.0961C24.8481 64.2095 24.99 64.3228 25.0751 64.3228C25.3872 64.2095 25.6142 64.0395 25.8411 63.8978C26.0397 63.7561 26.2667 63.6145 26.4937 63.5011C26.4369 63.5578 26.4085 63.6428 26.3802 63.7278C26.3518 63.8128 26.3234 63.8978 26.2667 63.9545C25.8411 64.2095 25.4439 64.4928 25.0467 64.8328C23.7416 65.9378 22.55 67.0995 21.4152 68.3745C20.8761 68.9979 20.2803 69.5645 19.6845 70.1312C19.6562 70.1595 19.5994 70.2162 19.571 70.2445C19.4292 70.3862 19.2873 70.4995 19.1171 70.6129L33.7284 79.028C35.1186 79.8496 35.8279 80.2463 36.5655 80.473C37.899 80.898 39.3459 80.898 40.6794 80.473C41.417 80.2463 42.0979 79.8496 43.5165 79.028L49.5312 75.5713L49.6447 75.5146ZM56.3404 44.0643C56.3404 44.0643 56.539 43.9226 56.6241 43.8093C56.6241 43.7243 56.5106 43.6393 56.4255 43.5543C56.312 43.4693 56.1985 43.3843 56.2836 43.2993C56.9362 42.8743 57.5036 42.2793 57.2766 41.6559C57.1915 41.4576 56.8227 41.3726 56.4255 41.2876C56.1985 41.2309 55.9432 41.1743 55.7446 41.1176C55.319 41.0043 54.8934 41.0043 54.4679 41.1176L54.1558 41.1743L53.8437 41.2309C53.2763 41.3159 52.7372 41.4859 52.1982 41.6559C51.4321 41.8826 50.7228 42.2509 50.0703 42.6759C50.8363 42.3926 51.6591 42.1943 52.4819 42.0809C53.106 41.9393 53.7302 41.9109 54.3544 41.9676C54.4962 41.9959 54.6665 42.0243 54.8083 42.0526C55.1488 42.1093 55.4609 42.1376 55.4609 42.3076C55.319 42.7609 54.8651 43.0443 54.3544 43.3276C53.9572 43.5543 53.5316 43.8093 53.2195 44.1493H52.8791C52.7088 44.2626 52.6521 44.4326 52.5954 44.5743C52.5386 44.716 52.5103 44.8576 52.34 44.8576C51.9996 44.7726 51.6591 44.8293 51.347 44.971C51.5456 45.1976 51.801 45.3676 52.0847 45.481C52.3684 45.5943 52.6805 45.6226 52.9926 45.5943C53.0777 45.6226 53.1912 45.6793 53.2479 45.7643C53.3046 45.8493 53.3614 45.9343 53.3614 46.0476C53.4465 46.0476 53.5316 45.991 53.5884 45.9343C53.7018 45.9343 53.8153 45.9343 53.8153 46.0476V46.4726C53.8153 46.4726 53.5884 46.671 53.4749 46.6993C53.333 46.756 53.1912 46.756 53.0493 46.756H52.8507C52.8507 46.756 52.5954 46.756 52.4819 46.7843C53.333 47.011 54.2125 47.011 55.0637 46.7843C55.4041 46.671 55.3758 46.331 55.3474 45.9343C55.3474 45.5943 55.2906 45.2543 55.5176 45.0276C55.4041 45.0276 55.4041 44.9426 55.4041 44.8576C55.4041 44.7726 55.4041 44.6876 55.2906 44.6876C55.4892 44.461 55.7162 44.2626 55.9432 44.0926C56.085 44.0926 56.1985 44.0926 56.312 44.0076L56.3404 44.0643Z" fill="white"/>
<path d="M5.83928 60.4694C7.85365 60.0444 9.81128 59.4211 11.7122 58.5994C9.86802 57.3527 7.7969 56.4461 5.6123 55.8511V57.0127C5.6123 58.6278 5.6123 59.4494 5.78253 60.1861C5.78253 60.2711 5.8109 60.3561 5.83928 60.4411V60.4694Z" fill="white"/>
<path d="M55.9713 70.7827H20.3084C17.9581 70.7827 16.0527 72.6855 16.0527 75.0327V84.6662C16.0527 87.0134 17.9581 88.9162 20.3084 88.9162H55.9713C58.3217 88.9162 60.227 87.0134 60.227 84.6662V75.0327C60.227 72.6855 58.3217 70.7827 55.9713 70.7827Z" fill="#000091"/>
<path d="M21.7271 85.7433V73.9565H25.6138C28.224 73.9565 29.7845 75.2882 29.7845 77.4699C29.7845 79.6516 28.1956 80.9833 25.6138 80.9833H24.1102V85.7433H21.7271ZM25.7274 75.9399H24.1385V78.9999H25.7274C26.7488 78.9999 27.3446 78.4049 27.3446 77.4416C27.3446 76.5632 26.7488 75.9399 25.7274 75.9399Z" fill="white"/>
<path d="M31.9409 85.7433V73.9565H35.5441C38.1543 73.9565 39.7431 75.2882 39.7431 77.4699C39.7431 78.9149 39.0621 79.9633 37.8422 80.5299L41.5305 85.7433H38.7217L35.5725 80.9833H34.3525V85.7433H31.9693H31.9409ZM35.6859 75.9399H34.3241V78.9999H35.6859C36.7073 78.9999 37.2747 78.4049 37.2747 77.4416C37.2747 76.5632 36.6789 75.9399 35.6859 75.9399Z" fill="white"/>
<path d="M48.3111 73.6167C52.0278 73.6167 54.5528 76.4784 54.5528 79.8501C54.5528 83.2218 51.9994 86.0835 48.3111 86.0835C44.6228 86.0835 42.041 83.2218 42.041 79.8501C42.041 76.4784 44.5944 73.6167 48.3111 73.6167ZM48.3111 83.8451C50.5241 83.8451 52.1129 82.1168 52.1129 79.8501C52.1129 77.5834 50.5241 75.855 48.3111 75.855C46.0981 75.855 44.5093 77.5834 44.5093 79.8501C44.5093 82.1168 46.0981 83.8451 48.3111 83.8451Z" fill="white"/>
</g>
</svg>
