<svg width="512" height="512" viewBox="0 0 512 512" fill="none" xmlns="http://www.w3.org/2000/svg">
<path d="M56 95H456V353H56V95Z" fill="#FDF0EC"/>
<path d="M256 164C244.133 164 232.533 167.519 222.666 174.112C212.799 180.705 205.109 190.075 200.567 201.039C196.026 212.003 194.838 224.067 197.153 235.705C199.468 247.344 205.182 258.035 213.574 266.426C221.965 274.818 232.656 280.532 244.295 282.847C255.933 285.162 267.997 283.974 278.961 279.433C289.925 274.891 299.295 267.201 305.888 257.334C312.481 247.467 316 235.867 316 224C316 216.121 314.448 208.319 311.433 201.039C308.417 193.759 303.998 187.145 298.426 181.574C292.855 176.002 286.241 171.583 278.961 168.567C271.681 165.552 263.879 164 256 164ZM244 251V197L280 224L244 251Z" fill="#FAD0C4"/>
<path d="M480.562 312.365C482.028 309.298 482.849 305.864 482.849 302.238C482.849 291.044 475.025 281.684 464.549 279.311C464.042 279.196 463.739 278.667 463.893 278.171C464.576 275.969 464.945 273.63 464.945 271.204C464.945 258.218 454.418 247.69 441.431 247.69C439.881 247.69 438.368 247.843 436.902 248.13C436.336 248.241 435.82 247.804 435.82 247.227C435.82 247.223 435.82 247.219 435.82 247.215C435.82 234.229 425.292 223.701 412.305 223.701C404.479 223.701 397.55 227.528 393.277 233.41C392.912 233.912 392.171 233.912 391.806 233.41C387.532 227.529 380.604 223.701 372.777 223.701C359.791 223.701 349.263 234.229 349.263 247.215V247.227C349.264 247.804 348.747 248.241 348.181 248.13C346.715 247.843 345.201 247.69 343.652 247.69C330.665 247.69 320.137 258.218 320.137 271.204C320.137 273.63 320.507 275.969 321.19 278.171C321.344 278.667 321.041 279.197 320.534 279.311C310.058 281.684 302.234 291.044 302.234 302.238C302.234 305.485 302.892 309.552 304.082 312.365H480.562Z" fill="#F7E4A1"/>
<path d="M438.32 312.366C439.082 310.77 439.509 308.985 439.509 307.098C439.509 301.277 435.44 296.408 429.991 295.174C429.728 295.115 429.57 294.839 429.65 294.581C430.005 293.436 430.198 292.22 430.198 290.958C430.198 284.204 424.723 278.728 417.968 278.728C417.162 278.728 416.375 278.808 415.613 278.957C415.318 279.015 415.05 278.788 415.05 278.488C415.05 278.486 415.05 278.483 415.05 278.481C415.05 271.727 409.575 266.252 402.82 266.252C398.75 266.252 395.146 268.242 392.924 271.301C392.734 271.562 392.349 271.562 392.159 271.301C389.936 268.242 386.333 266.252 382.263 266.252C375.508 266.252 370.033 271.727 370.033 278.481V278.488C370.033 278.788 369.765 279.015 369.47 278.957C368.708 278.808 367.921 278.728 367.115 278.728C360.36 278.728 354.885 284.204 354.885 290.958C354.885 292.219 355.078 293.436 355.433 294.581C355.513 294.839 355.355 295.115 355.092 295.174C349.643 296.408 345.574 301.277 345.574 307.098C345.574 308.787 345.916 310.902 346.535 312.366H438.32Z" fill="#F4DA7D"/>
<path d="M377.521 301.096C375.644 301.096 374.042 299.663 373.869 297.757C373.451 293.165 375.529 288.66 379.291 286.002C383.052 283.343 387.991 282.887 392.181 284.813C394.023 285.66 394.83 287.84 393.983 289.683C393.136 291.525 390.958 292.333 389.113 291.485C387.298 290.651 385.158 290.848 383.529 291.999C381.9 293.15 381.001 295.102 381.182 297.092C381.366 299.111 379.877 300.897 377.858 301.081C377.746 301.091 377.633 301.096 377.521 301.096Z" fill="#F7E4A1"/>
<path d="M447.69 282.188C447.452 282.188 447.21 282.165 446.968 282.117C444.979 281.72 443.689 279.787 444.085 277.798C444.558 275.425 443.725 272.959 441.911 271.364C440.097 269.768 437.546 269.257 435.251 270.028C433.331 270.675 431.247 269.642 430.6 267.72C429.953 265.798 430.986 263.716 432.908 263.068C437.678 261.463 442.987 262.529 446.761 265.85C450.536 269.171 452.27 274.299 451.287 279.234C450.938 280.98 449.405 282.188 447.69 282.188Z" fill="#F4DA7D"/>
<path d="M392.542 333.188H308.784L321.443 455.685C321.875 460.396 325.826 464 330.557 464H392.542H454.526C459.257 464 463.207 460.395 463.64 455.685L476.299 333.188H392.542Z" fill="#FDF0EC"/>
<path d="M341.259 333.188L349.948 463.998H330.556C325.826 463.998 321.875 460.393 321.443 455.683L308.784 333.188H341.259Z" fill="#EB4313"/>
<path d="M373.682 333.188H411.401L406.188 463.998H378.895L373.682 333.188Z" fill="#EB4313"/>
<path d="M476.3 333.188L463.641 455.683C463.208 460.393 459.257 463.998 454.527 463.998H435.135L443.824 333.188H476.3Z" fill="#EB4313"/>
<path d="M486.753 334.654H298.33C295.939 334.654 294 332.715 294 330.324V315.224C294 312.832 295.939 310.894 298.33 310.894H486.753C489.144 310.894 491.083 312.832 491.083 315.224V330.324C491.083 332.715 489.144 334.654 486.753 334.654Z" fill="white"/>
</svg>
