<svg width="512" height="512" viewBox="0 0 512 512" fill="none" xmlns="http://www.w3.org/2000/svg">
<path d="M403.377 56H108.719C102.247 56 97 61.2469 97 67.7188V444.281C97 450.753 102.247 456 108.719 456H403.377C409.848 456 415.095 450.753 415.095 444.281V67.7188C415.095 61.2469 409.848 56 403.377 56Z" fill="#F4DA7D"/>
<path d="M250.211 56H108.719C102.247 56 97 61.2469 97 67.7188V444.281C97 450.753 102.247 456 108.719 456H250.211V56Z" fill="#F4DA7D"/>
<path d="M362.168 99.8828H149.927C145.613 99.8828 142.115 103.38 142.115 107.695V404.306C142.115 408.621 145.613 412.119 149.927 412.119H362.168C366.482 412.119 369.981 408.621 369.981 404.306V107.695C369.981 103.38 366.482 99.8828 362.168 99.8828Z" fill="#FDFAEC"/>
<path d="M250.211 99.8828H149.927C145.613 99.8828 142.115 103.38 142.115 107.695V404.306C142.115 408.621 145.613 412.119 149.927 412.119H250.211V99.8828Z" fill="#FDFAEC"/>
<path d="M369.981 238.381V107.695C369.981 103.38 366.482 99.8828 362.168 99.8828H149.927C145.613 99.8828 142.115 103.38 142.115 107.695V238.381H369.981Z" fill="#FDFAEC"/>
<path d="M250.211 99.8828H149.927C145.613 99.8828 142.115 103.38 142.115 107.695V238.381H250.211V99.8828Z" fill="#FDFAEC"/>
<path d="M312.591 247.977C309.104 229.793 305.616 211.609 302.128 193.425C300.008 182.372 297.977 171.178 294.22 161.117C288.998 147.131 280.433 135.335 263.596 129.181C245.155 122.44 222.673 127.572 209.797 142.396C203.073 150.138 199.115 159.885 196.087 169.682C187.937 196.053 182.4 267.652 182.4 267.652C174.893 268.188 167.542 269.353 160.584 273.935C149.159 281.456 142.115 294.47 142.115 308.151C142.115 309.881 142.115 404.306 142.115 404.306C142.115 408.621 145.613 412.119 149.927 412.119H362.168C366.482 412.119 369.981 408.621 369.981 404.306V302.413L312.591 247.977Z" fill="#997A0C"/>
<path d="M250.211 126.374C235.193 125.359 219.67 131.027 209.797 142.395C203.073 150.136 199.115 159.884 196.087 169.681C187.937 196.052 182.4 267.65 182.4 267.65C174.893 268.187 167.542 269.351 160.584 273.933C149.159 281.455 142.115 294.468 142.115 308.15C142.115 309.88 142.115 404.305 142.115 404.305C142.115 408.62 145.613 412.118 149.927 412.118H250.211V126.374Z" fill="#997A0C"/>
<path d="M369.296 296.638C367.533 292.701 362.913 290.937 358.973 292.701C332.316 304.641 309.048 323.366 291.681 346.853L278.13 365.182C275.565 368.651 276.298 373.544 279.767 376.108C281.165 377.141 282.792 377.639 284.406 377.639C286.799 377.639 289.163 376.543 290.695 374.47L304.246 356.142C310.127 348.188 316.755 340.838 324.008 334.182L324.544 333.699C336.616 322.723 350.398 313.662 365.361 306.961C369.298 305.198 371.06 300.576 369.296 296.638Z" fill="#C89F10"/>
<path d="M282.477 258.205C282.477 258.205 281.391 225.959 281.305 223.587C280.592 203.824 280.249 182.75 270.884 164.816C265.312 154.145 256.167 144.93 244.681 141.325C227.651 135.979 210.81 145.54 203.68 161.255C198.874 171.848 197.74 184.677 200.486 197.379C203.232 210.08 209.567 221.295 218.32 228.956C222.338 232.473 226.66 235.07 231.123 236.718C230.125 241.642 227.19 246.047 222.853 248.846C222.799 248.881 222.744 248.916 222.689 248.951C210.214 256.946 200.297 268.352 194.502 281.989L192.015 287.844L214.038 312.554L262.92 320.612L285.429 306.255L282.477 258.205Z" fill="#FADFC4"/>
<path d="M250.211 143.567C248.437 142.677 246.592 141.922 244.682 141.323C227.652 135.977 210.811 145.538 203.681 161.253C198.874 171.846 197.741 184.675 200.487 197.377C203.233 210.078 209.567 221.293 218.321 228.954C222.339 232.471 226.661 235.068 231.124 236.716C230.126 241.64 227.191 246.045 222.854 248.844C222.799 248.879 222.745 248.914 222.69 248.95C210.215 256.944 200.298 268.35 194.503 281.987L192.016 287.842L214.039 312.552L247.084 317.999L250.21 318.514L250.211 143.567Z" fill="#FADFC4"/>
<path d="M263.87 313.326C227.148 314.857 209.835 299.939 202.138 289.033L201.285 287.535C199.584 284.548 195.172 284.896 193.96 288.113L192.818 291.145C190.924 296.173 192.074 301.848 195.799 305.721C196.291 306.233 196.8 306.745 197.325 307.255C207.723 317.377 226.681 329.058 258.792 329.058C260.558 329.058 262.364 329.023 264.21 328.949C268.396 328.783 271.926 325.489 272.007 321.3C272.094 316.755 268.385 313.137 263.87 313.326Z" fill="#EBBB13"/>
<path d="M206.305 271.877C203.3 268.499 198.128 268.194 194.748 271.198C182.87 281.756 176.92 297.48 178.834 313.257L179.441 318.26C179.985 322.749 184.065 325.945 188.552 325.402C193.04 324.857 196.237 320.778 195.694 316.29L195.087 311.287C193.82 300.839 197.759 290.427 205.625 283.435C209.005 280.431 209.309 275.256 206.305 271.877Z" fill="#C89F10"/>
<path d="M200.601 342.897C199.101 338.632 194.424 336.388 190.164 337.887C185.899 339.386 183.655 344.057 185.153 348.324L187.2 354.15C188.497 357.842 192.172 360.019 195.902 359.567C196.482 359.497 197.063 359.363 197.637 359.161C201.902 357.663 204.145 352.991 202.648 348.725L200.601 342.897Z" fill="#C89F10"/>
<path d="M300.363 385.227C293.684 373.077 280.93 365.149 267.081 364.532L228.881 362.832C224.571 362.641 220.921 365.979 220.729 370.29C220.537 374.601 223.877 378.25 228.187 378.442L266.386 380.142C274.827 380.517 282.601 385.351 286.672 392.755C287.738 394.693 289.504 396 291.482 396.534C293.365 397.043 295.438 396.852 297.282 395.838C301.063 393.758 302.442 389.008 300.363 385.227Z" fill="#EBBB13"/>
<path d="M250.215 363.781L228.882 362.832C224.572 362.641 220.922 365.979 220.73 370.29C220.538 374.601 223.877 378.25 228.188 378.442L250.214 379.423L250.215 363.781Z" fill="#EBBB13"/>
<path d="M339.782 267.859C338.019 263.921 333.398 262.157 329.459 263.922C302.802 275.861 279.534 294.586 262.167 318.074L248.616 336.403C246.051 339.872 246.784 344.764 250.253 347.329C251.651 348.362 253.278 348.86 254.892 348.86C257.285 348.86 259.648 347.764 261.18 345.691L274.732 327.363C280.612 319.409 287.241 312.059 294.494 305.403L295.03 304.92C307.102 293.944 320.884 284.883 335.847 278.182C339.784 276.419 341.546 271.796 339.782 267.859Z" fill="#C89F10"/>
</svg>
