<svg width="497" height="497" viewBox="0 0 497 497" fill="none" xmlns="http://www.w3.org/2000/svg">
<path d="M88.0245 175.358C84.6901 175.358 81.9883 172.657 81.9883 169.322V92.2091C81.9883 88.8747 84.6901 86.1729 88.0245 86.1729C91.359 86.1729 94.0608 88.8747 94.0608 92.2091V169.322C94.0608 172.657 91.359 175.358 88.0245 175.358Z" fill="#81A50D"/>
<path d="M249 149.743C245.666 149.743 242.964 147.041 242.964 143.707V92.2462C242.964 88.9118 245.666 86.21 249 86.21C252.334 86.21 255.036 88.9118 255.036 92.2462V143.706C255.036 147.041 252.334 149.743 249 149.743Z" fill="#81A50D"/>
<path d="M409.975 173.879C406.641 173.879 403.939 171.177 403.939 167.843V92.2462C403.939 88.9118 406.641 86.21 409.975 86.21C413.31 86.21 416.012 88.9118 416.012 92.2462V167.843C416.012 171.177 413.309 173.879 409.975 173.879Z" fill="#81A50D"/>
<path d="M166.824 245.377H81.5956L73.4386 285.998L49 449H95.2777L193.577 274.249L166.824 245.377Z" fill="#E3F7A1"/>
<path d="M304.423 274.248L295.68 258.705L249 196.519L202.32 258.705L193.577 274.248L249 334.06L304.423 274.248Z" fill="#E3F7A1"/>
<path d="M193.577 274.248L95.2777 449H142.494L249 334.06L193.577 274.248Z" fill="#D8F57D"/>
<path d="M424.561 285.998L331.176 245.377L304.423 274.249L402.722 449H449L424.561 285.998Z" fill="#E3F7A1"/>
<path d="M249 334.06L355.506 449H402.722L304.423 274.248L249 334.06Z" fill="#D8F57D"/>
<path d="M142.494 449H355.506L249 334.06L142.494 449Z" fill="#B8EC13"/>
<path d="M49 49H449V77.3501H49V49Z" fill="#B8EC13"/>
<path d="M249 108.343C235.845 108.343 225.181 97.6788 225.181 84.5239V77.3408H272.818V84.5239C272.819 97.6788 262.155 108.343 249 108.343Z" fill="#9CC910"/>
<path d="M409.975 108.343C396.821 108.343 386.157 97.6788 386.157 84.5239V77.3408H433.794V84.5239C433.794 97.6788 423.13 108.343 409.975 108.343Z" fill="#9CC910"/>
<path d="M288.335 220.669V166.946C288.335 145.222 270.724 127.61 249 127.61C227.276 127.61 209.665 145.222 209.665 166.946V219.912L288.335 220.669Z" fill="#9CC910"/>
<path d="M198.081 220.871C198.081 207.422 220.878 196.519 249 196.519C277.122 196.519 299.919 207.422 299.919 220.871V246.63C299.919 233.181 277.122 222.278 249 222.278C220.878 222.278 198.081 233.181 198.081 246.63V220.871Z" fill="#B8EC13"/>
<path d="M249 270.827C277.122 270.827 299.919 259.924 299.919 246.475C299.919 233.025 277.122 222.122 249 222.122C220.878 222.122 198.081 233.025 198.081 246.475C198.081 259.924 220.878 270.827 249 270.827Z" fill="#CDF25A"/>
<path d="M143.026 220.089L124.416 177.307C115.75 157.386 92.5759 148.262 72.6547 156.927C52.7336 165.593 43.6093 188.767 52.2749 208.688L70.5831 250.778L143.026 220.089Z" fill="#9CC910"/>
<path d="M63.1634 262.759C57.7984 250.425 74.3545 231.334 100.142 220.116C125.93 208.899 151.183 209.803 156.548 222.136L166.824 245.757C161.459 233.424 136.205 232.52 110.417 243.737C84.6298 254.955 68.0736 274.046 73.4386 286.379L63.1634 262.759Z" fill="#B8EC13"/>
<path d="M129.81 288.249C155.598 277.028 172.152 257.934 166.786 245.601C161.42 233.268 136.164 232.366 110.377 243.587C84.5888 254.807 68.034 273.901 73.4004 286.235C78.7667 298.568 104.022 299.47 129.81 288.249Z" fill="#CDF25A"/>
<path d="M353.119 224.353L373.584 177.307C382.249 157.386 405.423 148.262 425.344 156.927C445.266 165.593 454.39 188.767 445.724 208.688L425.561 255.041L353.119 224.353Z" fill="#9CC910"/>
<path d="M434.837 262.759C440.202 250.425 423.645 231.334 397.858 220.116C372.07 208.899 346.817 209.803 341.452 222.136L331.176 245.757C336.541 233.424 361.795 232.52 387.583 243.737C413.37 254.955 429.926 274.046 424.561 286.379L434.837 262.759Z" fill="#B8EC13"/>
<path d="M424.661 286.267C430.027 273.934 413.473 254.84 387.685 243.619C361.897 232.398 336.642 233.3 331.275 245.634C325.909 257.967 342.464 277.061 368.252 288.282C394.039 299.502 419.295 298.6 424.661 286.267Z" fill="#CDF25A"/>
<path d="M88.0245 108.306C101.179 108.306 111.843 97.6417 111.843 84.4868V77.3037H64.2064V84.4868C64.2064 97.6417 74.8704 108.306 88.0245 108.306Z" fill="#9CC910"/>
</svg>
