<svg width="512" height="512" viewBox="0 0 512 512" fill="none" xmlns="http://www.w3.org/2000/svg">
<path d="M270.726 306.539V457.536H234.347C233.384 457.536 232.43 457.346 231.541 456.978C230.651 456.609 229.842 456.069 229.161 455.388C228.481 454.707 227.94 453.899 227.572 453.009C227.203 452.119 227.014 451.166 227.014 450.203V408.891C227.014 390.363 213.467 373.818 195.023 372.06C190.094 371.574 185.118 372.126 180.416 373.68C175.714 375.233 171.388 377.754 167.719 381.08C164.049 384.406 161.117 388.463 159.11 392.99C157.103 397.518 156.066 402.415 156.065 407.368V450.203C156.065 452.148 155.293 454.013 153.918 455.388C152.542 456.763 150.677 457.536 148.732 457.536H112.354V306.539H270.726Z" fill="#7E7F52"/>
<path d="M112.378 120.898H144.778V199.893H112.378V120.898Z" fill="#7E7F52"/>
<path d="M238.325 120.898H270.725V199.893H238.325V120.898Z" fill="#7E7F52"/>
<path d="M112.378 186.062V321.182H270.701V186.062H112.378ZM191.539 293.048C183.741 293.048 176.119 290.736 169.635 286.403C163.152 282.071 158.098 275.914 155.114 268.71C152.13 261.505 151.349 253.578 152.871 245.93C154.392 238.282 158.147 231.257 163.661 225.743C169.175 220.23 176.2 216.475 183.848 214.953C191.495 213.432 199.423 214.213 206.627 217.197C213.831 220.181 219.989 225.234 224.321 231.718C228.653 238.201 230.965 245.824 230.965 253.622C230.965 258.799 229.946 263.926 227.964 268.71C225.983 273.493 223.079 277.839 219.418 281.5C215.757 285.161 211.41 288.066 206.627 290.047C201.844 292.028 196.717 293.048 191.539 293.048Z" fill="#949561"/>
<path d="M90.0497 121.517L169.386 62.351C175.786 57.5783 183.556 55 191.539 55C199.523 55 207.293 57.5783 213.692 62.351L293.029 121.517C294.264 122.438 295.178 123.725 295.64 125.195C296.103 126.665 296.09 128.243 295.605 129.705C295.12 131.168 294.186 132.44 292.937 133.342C291.687 134.244 290.186 134.729 288.645 134.729H94.4337C92.8929 134.729 91.3912 134.244 90.1418 133.342C88.8924 132.44 87.9588 131.168 87.4735 129.705C86.9883 128.243 86.976 126.665 87.4384 125.195C87.9008 123.725 88.8145 122.438 90.0497 121.517Z" fill="#949561"/>
<path d="M464.868 431.561V450.202C464.872 451.163 464.686 452.116 464.321 453.005C463.956 453.894 463.419 454.703 462.741 455.384C462.063 456.065 461.257 456.606 460.37 456.975C459.482 457.344 458.531 457.535 457.569 457.535L366.724 457.535C365.762 457.535 364.81 457.345 363.921 456.976C363.033 456.607 362.226 456.067 361.547 455.385C360.867 454.704 360.329 453.896 359.962 453.006C359.596 452.117 359.408 451.164 359.41 450.202V402.319C359.41 388.96 350.407 376.791 337.328 374.072C333.232 373.189 328.99 373.232 324.914 374.2C320.837 375.168 317.028 377.035 313.766 379.665C310.505 382.295 307.872 385.621 306.062 389.4C304.252 393.178 303.31 397.314 303.305 401.504V450.202C303.305 452.147 302.532 454.012 301.157 455.387C299.782 456.763 297.917 457.535 295.972 457.535H270.725V261.768C270.725 261.768 377 267.268 386.167 349.768C386.167 349.768 393.958 417.143 462.25 421.268L464.868 431.561Z" fill="#C4C5A8"/>
<path d="M270.74 272.254V261.768C270.74 261.768 360.794 266.461 382.207 331.508C379.071 325.146 375.287 319.125 370.914 313.541C341.067 276.287 290.907 272.254 270.74 272.254Z" fill="#949561"/>
<path d="M407.58 396.262C418.947 408.948 436.18 419.728 462.213 421.268L464.78 431.315C432.587 431.315 417.847 417.235 407.58 396.262Z" fill="#949561"/>
<path d="M112.354 457.536H43.3333C41.3884 457.536 39.5231 456.764 38.1479 455.388C36.7726 454.013 36 452.148 36 450.203V431.336C36 429.391 36.7726 427.526 38.1479 426.15C39.5231 424.775 41.3884 424.002 43.3333 424.002H57.6457V397.802C57.6457 395.857 58.4183 393.992 59.7935 392.616C61.1688 391.241 63.0341 390.468 64.979 390.468H79.2913V364.268C79.2913 362.323 80.0639 360.458 81.4392 359.082C82.8145 357.707 84.6797 356.935 86.6246 356.935H112.378L112.354 457.536Z" fill="#C4C5A8"/>
<path d="M270.725 272.521C287.72 272.521 329.725 275.712 353.548 305.472C362.973 317.197 368.539 333.376 374.476 350.445C386.944 386.587 402.454 431.561 464.868 431.561C467.82 431.561 470.652 430.388 472.739 428.3C474.827 426.212 476 423.381 476 420.429C476 417.476 474.827 414.645 472.739 412.557C470.652 410.469 467.82 409.297 464.868 409.297C418.336 409.297 408.243 380.131 395.478 343.172C389.244 325.064 382.713 306.288 370.914 291.52C341.08 254.264 290.911 250.257 270.725 250.257V272.521Z" fill="#B4B590"/>
</svg>
