<svg width="120" height="120" viewBox="0 0 120 120" fill="none" xmlns="http://www.w3.org/2000/svg">
<g clip-path="url(#clip0_6377_34399)">
<path d="M64.2188 71.3672L85.7812 58.125V120.352H64.2188V71.3672Z" fill="#CFDFFF"/>
<path d="M71.3252 93.1961C70.2474 93.1961 69.374 92.3225 69.374 91.2449V81.1841C69.374 78.6613 73.2764 78.6613 73.2764 81.1841V91.2449C73.2764 92.3225 72.4028 93.1961 71.3252 93.1961Z" fill="#F3F7FF"/>
<path d="M79.0156 93.1961C77.9378 93.1961 77.0645 92.3225 77.0645 91.2449V81.1841C77.0645 78.6613 80.9668 78.6613 80.9668 81.1841V91.2449C80.9668 92.3225 80.0932 93.1961 79.0156 93.1961Z" fill="#F3F7FF"/>
<path d="M25.6641 70.1005L44.9442 55.3477L64.2242 70.1005V120.456H25.6641V70.1005Z" fill="#ECF2FF"/>
<path d="M64.2242 70.1005H25.6641L44.9442 55.3477L64.2242 70.1005Z" fill="#7BEB13"/>
<path d="M44.9453 91.3397C43.8675 91.3397 42.9941 90.466 42.9941 89.3885V79.3276C42.9941 76.8049 46.8965 76.8049 46.8965 79.3276V89.3885C46.8965 90.466 46.0232 91.3397 44.9453 91.3397Z" fill="#CFDFFF"/>
<path d="M54.5606 91.3397C53.4827 91.3397 52.6094 90.466 52.6094 89.3885V79.3276C52.6094 76.8049 56.5118 76.8049 56.5118 79.3276V89.3885C56.5118 90.466 55.6381 91.3397 54.5606 91.3397Z" fill="#CFDFFF"/>
<path d="M44.9453 110.581C43.8675 110.581 42.9941 109.707 42.9941 108.63V98.5688C42.9941 96.0461 46.8965 96.0461 46.8965 98.5688V108.63C46.8965 109.707 46.0232 110.581 44.9453 110.581Z" fill="#CFDFFF"/>
<path d="M54.5606 110.581C53.4827 110.581 52.6094 109.707 52.6094 108.63V98.5688C52.6094 96.0461 56.5118 96.0461 56.5118 98.5688V108.63C56.5118 109.707 55.6381 110.581 54.5606 110.581Z" fill="#CFDFFF"/>
<path d="M35.3281 91.3397C34.2503 91.3397 33.377 90.466 33.377 89.3885V79.3276C33.377 76.8049 37.2793 76.8049 37.2793 79.3276V89.3885C37.2793 90.466 36.406 91.3397 35.3281 91.3397Z" fill="#CFDFFF"/>
<path d="M35.3281 110.581C34.2503 110.581 33.377 109.707 33.377 108.63V98.5688C33.377 96.0461 37.2793 96.0461 37.2793 98.5688V108.63C37.2793 109.707 36.406 110.581 35.3281 110.581Z" fill="#CFDFFF"/>
<path d="M25.7114 120.456H-0.046875V93.9895L12.8323 80.7891L25.7114 93.9895V120.456Z" fill="#CFDFFF"/>
<path d="M17.5547 110.791C16.4769 110.791 15.6035 109.917 15.6035 108.84V103.368C15.6035 100.845 19.5059 100.845 19.5059 103.368V108.84C19.5059 109.917 18.6323 110.791 17.5547 110.791Z" fill="#F3F7FF"/>
<path d="M12.8323 93.9895H-0.046875L12.8323 80.7891L25.7114 93.9895H12.8323Z" fill="#F80338"/>
<path d="M8.11135 110.791C7.03351 110.791 6.16016 109.917 6.16016 108.84V103.368C6.16016 100.845 10.0625 100.845 10.0625 103.368V108.84C10.0625 109.917 9.18918 110.791 8.11135 110.791Z" fill="#F3F7FF"/>
<path d="M117.237 98.7705C112.318 93.2007 107.057 87.9429 101.485 83.0276C96.7385 78.9822 89.126 79.5002 84.844 83.7893L83.7893 84.844C79.5002 89.133 78.9822 96.7455 83.0276 101.485C87.9426 107.055 93.2004 112.313 98.7705 117.228C103.517 121.275 111.129 120.755 115.411 116.466L116.468 115.409C120.764 111.129 121.282 103.517 117.237 98.7705Z" fill="#1C5073"/>
<path opacity="0.5" d="M44.3316 11.1329C51.9847 11.1334 59.4008 13.7873 65.3165 18.6427C71.2322 23.498 75.2813 30.2543 76.7741 37.7604C78.2668 45.2664 77.1108 53.0579 73.5029 59.8072C69.8951 66.5565 64.0587 71.846 56.9881 74.7746C49.9175 77.7031 42.0503 78.0894 34.7268 75.8678C27.4033 73.6461 21.0766 68.9539 16.8249 62.5905C12.5731 56.2272 10.6592 48.5865 11.4093 40.9703C12.1594 33.3541 15.5271 26.2336 20.9386 20.822C24.0035 17.7404 27.6491 15.2973 31.6645 13.6342C35.68 11.971 39.9854 11.1209 44.3316 11.1329Z" fill="white"/>
<mask id="mask0_6377_34399" style="mask-type:alpha" maskUnits="userSpaceOnUse" x="20" y="22" width="48" height="59">
<rect x="20.8594" y="22.3828" width="46.4062" height="58.125" fill="white"/>
</mask>
<g mask="url(#mask0_6377_34399)">
<path d="M46.4559 89.1691C56.57 89.1691 64.7691 86.9139 64.7691 84.1319C64.7691 81.35 56.57 79.0947 46.4559 79.0947C36.3417 79.0947 28.1426 81.35 28.1426 84.1319C28.1426 86.9139 36.3417 89.1691 46.4559 89.1691Z" fill="#FEDA50"/>
<path d="M43.8387 80.7736C53.9528 80.7736 62.152 78.5184 62.152 75.7364C62.152 72.9544 53.9528 70.6992 43.8387 70.6992C33.7245 70.6992 25.5254 72.9544 25.5254 75.7364C25.5254 78.5184 33.7245 80.7736 43.8387 80.7736Z" fill="#FEDA50"/>
<path d="M43.8387 80.96C33.7477 80.96 25.5254 78.7213 25.5254 75.9229V81.3332C25.5254 84.1316 33.7477 86.3703 43.8387 86.3703C53.9297 86.3703 62.152 84.1316 62.152 81.3332V75.9229C62.152 78.5347 53.9297 80.96 43.8387 80.96Z" fill="#FDCA05"/>
<path d="M31.5055 79.468V84.8783C30.3843 84.5052 29.2631 84.3186 28.5156 83.9455V78.5352C29.2631 78.9083 30.3843 79.2814 31.5055 79.468Z" fill="#E4B502"/>
<path d="M38.4196 80.587V85.9973C37.2984 85.9973 36.364 85.8107 35.4297 85.6242V80.2139C36.364 80.4004 37.2984 80.587 38.4196 80.587Z" fill="#E4B502"/>
<path d="M52.4352 80.2139V85.6242C51.5009 85.8107 50.5665 85.8107 49.4453 85.9973V80.587C50.3797 80.587 51.5009 80.4004 52.4352 80.2139Z" fill="#E4B502"/>
<path d="M59.3493 78.5352V83.9455C58.4149 84.3186 57.4806 84.6917 56.3594 84.8783V79.468C57.4806 79.2814 58.6018 78.9083 59.3493 78.5352Z" fill="#E4B502"/>
<path d="M64.7691 67.5274C64.7691 70.3259 56.5469 72.5646 46.4559 72.5646C36.3649 72.5646 28.1426 70.3259 28.1426 67.5274C28.1426 60.8112 64.7691 60.8112 64.7691 67.5274Z" fill="#FEDA50"/>
<path d="M46.4559 72.5645C36.3649 72.5645 28.1426 70.3258 28.1426 67.5273V72.9377C28.1426 75.7361 36.3649 77.9748 46.4559 77.9748C56.5469 77.9748 64.7691 75.7361 64.7691 72.9377V67.5273C64.7691 70.3258 56.5469 72.5645 46.4559 72.5645Z" fill="#FDCA05"/>
<path d="M34.1227 71.259V76.6693C33.0015 76.2962 31.8803 76.1096 31.1328 75.7365V70.3262C31.8803 70.6993 33.0015 70.8859 34.1227 71.259Z" fill="#E4B502"/>
<path d="M41.0368 72.378V77.7883C39.9156 77.7883 38.9812 77.6018 38.0469 77.4152V72.0049C38.9812 72.1914 39.9156 72.378 41.0368 72.378Z" fill="#E4B502"/>
<path d="M47.9509 72.5645V77.9748C47.3903 77.9748 47.0165 77.9748 46.4559 77.9748C45.8953 77.9748 45.5215 77.9748 44.9609 77.9748V72.5645H46.4559H47.9509Z" fill="#E4B502"/>
<path d="M55.0524 72.0049V77.4152C54.1181 77.6018 53.1837 77.6018 52.0625 77.7883V72.378C52.9969 72.378 54.1181 72.1914 55.0524 72.0049Z" fill="#E4B502"/>
<path d="M61.9665 70.3262V75.7365C61.0321 76.1096 60.0978 76.4827 58.9766 76.6693V71.259C60.0978 70.8859 61.219 70.6993 61.9665 70.3262Z" fill="#E4B502"/>
<path d="M62.152 59.3187C62.152 66.035 25.5254 66.035 25.5254 59.3187C25.5254 52.4159 62.152 52.4159 62.152 59.3187Z" fill="#FEDA50"/>
<path d="M25.5254 59.3193V64.7296C25.5254 67.5281 33.7477 69.7668 43.8387 69.7668C53.9297 69.7668 62.152 67.5281 62.152 64.7296V59.3193C62.152 66.0356 25.5254 66.0356 25.5254 59.3193Z" fill="#FDCA05"/>
<path d="M31.5055 63.05V68.4603C30.3843 68.0872 29.2631 67.9006 28.5156 67.5275V62.1172C29.2631 62.3037 30.3843 62.6769 31.5055 63.05Z" fill="#E4B502"/>
<path d="M38.4196 64.169V69.5793C37.2984 69.5793 36.364 69.3928 35.4297 69.2062V63.7959C36.364 63.9825 37.2984 63.9825 38.4196 64.169Z" fill="#E4B502"/>
<path d="M45.3337 64.3564V69.7668C44.7731 69.7668 44.3993 69.7668 43.8387 69.7668C43.2781 69.7668 42.9044 69.7668 42.3438 69.7668V64.3564H45.3337Z" fill="#E4B502"/>
<path d="M52.4352 63.7959V69.2062C51.5009 69.3928 50.5665 69.3928 49.4453 69.5793V64.169C50.3797 63.9825 51.5009 63.9825 52.4352 63.7959Z" fill="#E4B502"/>
<path d="M59.3493 61.9307V67.341C58.4149 67.7141 57.4806 68.0872 56.3594 68.2738V62.8635C57.4806 62.6769 58.6018 62.3038 59.3493 61.9307Z" fill="#E4B502"/>
<path d="M55.2376 59.3189C55.2376 63.0502 32.4395 63.0502 32.4395 59.3189C32.4395 55.5877 55.2376 55.5877 55.2376 59.3189Z" fill="#FDCA05"/>
<path d="M58.9752 23.4992C58.9752 23.4992 44.0256 21.447 41.0357 30.7752C41.0357 30.7752 38.6064 38.4242 45.7075 40.2898C45.7075 40.2898 49.6317 41.5958 53.1823 37.678C54.8641 35.8123 55.6116 33.5736 55.9853 31.1483C56.3591 28.723 56.9197 25.1783 58.9752 23.4992Z" fill="#59C939"/>
<path d="M62.1513 48.3116C62.1513 48.3116 55.7977 39.9163 49.631 43.0879C49.631 43.0879 44.7724 45.6998 47.2017 50.1773C47.2017 50.1773 48.5098 52.7891 52.2472 52.6026C53.929 52.416 55.6108 51.8563 56.9189 50.7369C58.227 49.6176 60.4695 48.1251 62.1513 48.3116Z" fill="#59C939"/>
<path d="M22.1621 38.9837C22.1621 38.9837 32.0662 31.8943 37.8592 37.3046C37.8592 37.3046 42.531 41.7821 38.2329 45.8865C38.2329 45.8865 35.8036 48.3118 31.8794 46.8193C30.0107 46.073 28.5157 44.7671 27.3945 43.2746C26.0864 41.7821 24.2177 39.3568 22.1621 38.9837Z" fill="#59C939"/>
<path d="M43.8399 50.3646C43.4662 40.8499 46.0824 28.3502 54.4915 25.3652C46.2692 27.7905 42.7187 38.6112 41.9712 47.7527C38.2338 42.529 32.0671 37.3052 25.9004 38.6112C32.4408 37.6784 38.6076 44.0215 41.7844 49.8049C41.5975 55.0287 41.9712 58.3868 41.9712 59.6927H44.5874C44.2137 55.5884 44.0268 56.8943 43.8399 51.6705C48.138 48.1259 53.9309 44.5812 59.1633 47.0065C58.2289 46.4468 48.138 47.0065 43.8399 50.3646Z" fill="#4CAB30"/>
<path d="M66.8242 20.7005C66.8242 20.7005 76.7283 13.6111 82.5213 19.0214C82.5213 19.0214 87.1931 23.4989 82.8951 27.6033C82.8951 27.6033 80.4657 30.0286 76.5415 28.5361C71.496 26.857 70.9354 21.8198 66.8242 20.7005Z" fill="#59C939"/>
</g>
<path d="M79.4039 71.4492C77.0993 74.4264 74.4264 77.0993 71.4492 79.4039L81.1055 89.0602C81.6907 87.4795 82.6054 86.0414 83.7891 84.8414L84.8437 83.7891C86.0431 82.6047 87.4814 81.6898 89.0625 81.1055L79.4039 71.4492Z" fill="#102E42"/>
<path d="M44.332 11.25C51.9851 11.2504 59.4013 13.9044 65.3169 18.7597C71.2326 23.6151 75.2818 30.3714 76.7745 37.8774C78.2673 45.3835 77.1112 53.175 73.5034 59.9243C69.8955 66.6735 64.0591 71.9631 56.9885 74.8916C49.918 77.8202 42.0507 78.2065 34.7272 75.9848C27.4037 73.7632 21.0771 69.0709 16.8253 62.7076C12.5735 56.3443 10.6597 48.7036 11.4098 41.0874C12.1599 33.4712 15.5276 26.3507 20.9391 20.9391C24.0039 17.8574 27.6496 15.4144 31.665 13.7512C35.6804 12.0881 39.9858 11.2379 44.332 11.25ZM44.332 0C19.8492 0 0 19.8492 0 44.332C0 68.8148 19.8492 88.6664 44.332 88.6664C68.8148 88.6664 88.6641 68.8172 88.6641 44.332C88.6641 19.8469 68.8172 0 44.332 0Z" fill="#1C5073"/>
</g>
<defs>
<clipPath id="clip0_6377_34399">
<rect width="120" height="120" fill="white"/>
</clipPath>
</defs>
</svg>
