<svg width="120" height="120" viewBox="0 0 120 120" fill="none" xmlns="http://www.w3.org/2000/svg">
<g clip-path="url(#clip0_6377_34386)">
<path d="M50.7005 30.6514L89.3547 69.3056L62.6041 96.0562C64.7585 96.2894 66.8512 97.2294 68.5038 98.882C72.514 102.892 72.3424 109.502 67.9872 113.291C64.324 116.477 58.7843 116.484 55.1138 113.309C53.1272 111.592 52.0083 109.29 51.7507 106.91L39.2337 119.427C38.4692 120.192 37.2296 120.192 36.465 119.427L25.9923 108.954C25.1623 108.124 25.4532 106.718 26.5444 106.28C27.74 105.8 28.861 105.075 29.829 104.107C33.6769 100.259 33.6751 94.0234 29.829 90.1774C25.9829 86.3313 19.7476 86.3294 15.8996 90.1774C14.9317 91.1453 14.206 92.2663 13.7267 93.4619C13.2885 94.5531 11.882 94.844 11.052 94.0141L0.579257 83.541C-0.185273 82.7765 -0.185273 81.5369 0.579257 80.7724L13.0963 68.2554C10.94 68.024 8.84916 67.0821 7.19659 65.4295C3.18644 61.4194 3.358 54.8091 7.71315 51.0209C11.3764 47.835 16.9161 47.8277 20.5866 51.0021C22.5732 52.7198 23.6921 55.0216 23.9497 57.4017L50.7005 30.6514Z" fill="#6E496F"/>
<mask id="mask0_6377_34386" style="mask-type:alpha" maskUnits="userSpaceOnUse" x="0" y="30" width="90" height="90">
<path d="M50.7005 30.6504L89.3547 69.3046L62.6041 96.0552C64.7585 96.2884 66.8512 97.2285 68.5038 98.881C72.514 102.891 72.3424 109.501 67.9872 113.29C64.324 116.476 58.7843 116.483 55.1138 113.308C53.1272 111.591 52.0083 109.289 51.7507 106.909L39.2337 119.426C38.4692 120.191 37.2296 120.191 36.465 119.426L25.9923 108.953C25.1623 108.123 25.4532 106.717 26.5444 106.279C27.74 105.799 28.861 105.074 29.829 104.106C33.6769 100.258 33.6751 94.0225 29.829 90.1764C25.9829 86.3303 19.7476 86.3284 15.8996 90.1764C14.9317 91.1443 14.206 92.2654 13.7267 93.4609C13.2885 94.5521 11.882 94.843 11.052 94.0131L0.579257 83.5401C-0.185273 82.7755 -0.185273 81.5359 0.579257 80.7714L13.0963 68.2544C10.94 68.0231 8.84916 67.0811 7.19659 65.4285C3.18644 61.4184 3.358 54.8081 7.71315 51.0199C11.3764 47.834 16.9161 47.8268 20.5866 51.0011C22.5732 52.7189 23.6921 55.0207 23.9497 57.4007L50.7005 30.6504Z" fill="#6E496F"/>
</mask>
<g mask="url(#mask0_6377_34386)">
<path d="M47.8572 80.9556L51.3086 84.407L47.8572 87.8584L45.5563 85.5575L45.1608 88.1101L37.4671 80.4163L36.82 69.9183L37.7907 68.9476L39.4085 67.3298L45.2687 73.19L46.7068 82.1061L47.8572 80.9556Z" fill="#E4D8E4"/>
<path d="M57.0582 70.5997L62.8104 68.2988L76.6176 82.1061L56.4844 102.239L44.4028 90.1577L45.5539 85.5553L47.8548 87.8561L51.3061 84.4049L47.8548 80.9536L46.7044 82.104L44.9787 78.0775L40.377 73.4758L41.5274 70.0245L39.2266 67.7236L46.7044 60.2458L57.0582 70.5997ZM55.9437 79.7672L58.2087 77.5023L54.7574 74.051L51.3061 77.5023L55.9437 79.7672ZM48.43 74.6262L51.8813 71.1749L48.43 67.7236L44.9787 71.1749L48.43 74.6262Z" fill="#B491B5"/>
<path d="M61.0862 80.3797L65.2273 84.5208L64.5376 87.2825L62.2366 88.4329L57.6348 83.8311L61.0862 80.3797Z" fill="#E4D8E4"/>
<path d="M54.1838 87.283L57.6352 90.7344L57.2038 97.2057L50.7324 90.7344L54.1838 87.283Z" fill="#E4D8E4"/>
<path d="M51.3086 77.5039L54.76 74.0525L58.2114 77.5039L55.9105 79.8048L51.3086 77.5039Z" fill="#E4D8E4"/>
<path d="M44.9805 71.1768L48.4319 67.7254L51.8833 71.1768L48.4319 74.6282L44.9805 71.1768Z" fill="#E4D8E4"/>
<path d="M46.0474 112.917L48.1853 110.78C48.0521 110.694 47.922 110.612 47.7902 110.533C46.1656 109.542 44.641 108.923 43.2851 108.565C39.684 107.606 37.3783 108.659 37.3844 109.108C37.3906 109.557 40.4047 110.458 43.9762 113.089C44.6273 113.569 45.464 113.501 46.0474 112.917Z" fill="#946295"/>
<path d="M48.8495 110.116L51.0947 107.871C51.6087 107.357 51.6606 106.62 51.2236 106.072C48.234 102.319 47.49 98.927 46.9525 99.0245C46.415 99.122 45.4344 101.379 46.4169 104.995C46.8232 106.486 47.5488 108.178 48.7512 109.968C48.7822 110.017 48.8151 110.067 48.8495 110.116Z" fill="#946295"/>
<path d="M46.449 112.515L50.5206 108.444C48.9323 107.224 47.658 105.985 46.6157 104.803C43.1928 100.924 41.6716 97.4768 41.0811 97.6066C40.4907 97.7364 39.6019 101.814 42.5918 107.257C43.4601 108.841 44.6351 110.526 46.1941 112.239C46.2775 112.331 46.3608 112.422 46.449 112.515Z" fill="#946295"/>
</g>
<path d="M113.297 55.0992C111.586 53.1143 109.292 51.9931 106.921 51.7285L119.422 39.2274C120.186 38.4629 120.186 37.2232 119.422 36.4587L106.907 23.9438C109.285 23.6865 111.588 22.5673 113.306 20.581C116.481 16.9091 116.473 11.3706 113.288 7.70752C109.5 3.35097 102.889 3.17847 98.8772 7.19026C97.2256 8.8419 96.2853 10.9344 96.0521 13.089L83.5365 0.573397C82.772 -0.191132 81.5324 -0.191132 80.7678 0.573397L70.2955 11.0457C69.4646 11.8766 69.7564 13.2817 70.8467 13.7197C72.0428 14.2004 73.1635 14.9253 74.132 15.8935C77.9799 19.7415 77.9781 25.9768 74.132 29.8229C70.2859 33.669 64.0506 33.6708 60.2026 29.8229C59.2344 28.8547 58.5095 27.7337 58.0288 26.5376C57.5905 25.4473 56.1857 25.1555 55.3548 25.9864L43.498 37.8432L55.0265 49.3716C55.9986 50.3438 55.6895 51.9823 54.4347 52.5436C53.1611 53.1134 51.984 53.9672 50.9992 55.1063C47.8244 58.7782 47.8321 64.317 51.0173 67.9798C54.8054 72.3361 61.4164 72.5083 65.428 68.4968C66.3027 67.6221 66.9779 66.6237 67.4542 65.558C68.0143 64.3043 69.6538 63.9989 70.6246 64.9697L82.1523 76.4974L96.0376 62.6121C96.2766 64.7552 97.2153 66.8351 98.8587 68.4785C102.871 72.4903 109.482 72.3176 113.27 67.9608C116.451 64.3017 116.463 58.7716 113.297 55.0992Z" fill="#CFDFFF"/>
<mask id="mask1_6377_34386" style="mask-type:alpha" maskUnits="userSpaceOnUse" x="43" y="0" width="77" height="77">
<path d="M113.295 55.0992C111.584 53.1143 109.29 51.9931 106.919 51.7285L119.42 39.2274C120.184 38.4629 120.184 37.2232 119.42 36.4587L106.905 23.9438C109.283 23.6865 111.586 22.5673 113.304 20.581C116.479 16.9091 116.471 11.3706 113.286 7.70752C109.498 3.35097 102.887 3.17847 98.8753 7.19026C97.2236 8.8419 96.2833 10.9344 96.0501 13.089L83.5345 0.573397C82.77 -0.191132 81.5304 -0.191132 80.7659 0.573397L70.2935 11.0457C69.4627 11.8766 69.7545 13.2817 70.8448 13.7197C72.0408 14.2004 73.1616 14.9253 74.13 15.8935C77.978 19.7415 77.9761 25.9768 74.13 29.8229C70.2839 33.669 64.0486 33.6708 60.2007 29.8229C59.2325 28.8547 58.5075 27.7337 58.0268 26.5376C57.5886 25.4473 56.1837 25.1555 55.3529 25.9864L43.4961 37.8432L55.0245 49.3716C55.9967 50.3438 55.6876 51.9823 54.4327 52.5436C53.1591 53.1134 51.9821 53.9672 50.9972 55.1063C47.8224 58.7782 47.8301 64.317 51.0153 67.9798C54.8035 72.3361 61.4145 72.5083 65.4261 68.4968C66.3007 67.6221 66.976 66.6237 67.4522 65.558C68.0124 64.3043 69.6518 63.9989 70.6226 64.9697L82.1503 76.4974L96.0356 62.6121C96.2747 64.7552 97.2133 66.8351 98.8568 68.4785C102.869 72.4903 109.48 72.3176 113.268 67.9608C116.449 64.3017 116.461 58.7716 113.295 55.0992Z" fill="#88AEFF"/>
</mask>
<g mask="url(#mask1_6377_34386)">
<path d="M80.584 29L88.2978 21.2862L113.091 46.0792L105.377 53.793L80.584 29Z" fill="#B0CBFF"/>
<rect x="78.2441" y="27.9072" width="12.8615" height="2.46838" transform="rotate(-45 78.2441 27.9072)" fill="#13BAEC"/>
<rect x="77.877" y="26.0693" width="10.7829" height="1.55897" transform="rotate(-45 77.877 26.0693)" fill="#13BAEC"/>
<path d="M90.633 33.9357C90.2467 34.322 89.6207 34.3219 89.2346 33.9357L85.6292 30.3304C84.7252 29.4263 86.1236 28.0279 87.0276 28.9319L90.633 32.5373C91.0192 32.9235 91.0192 33.5496 90.633 33.9357Z" fill="#F3F7FF"/>
<path d="M98.1642 41.4689C97.778 41.8552 97.152 41.8551 96.7658 41.4689L93.1605 37.8636C92.2564 36.9595 93.6548 35.5611 94.5589 36.4651L98.1642 40.0705C98.5504 40.4567 98.5504 41.0828 98.1642 41.4689Z" fill="#F3F7FF"/>
<path d="M93.3889 31.1799C93.0026 31.5661 92.3766 31.566 91.9904 31.1799L88.3851 27.5745C87.481 26.6705 88.8795 25.272 89.7835 26.1761L93.3889 29.7814C93.775 30.1676 93.775 30.7937 93.3889 31.1799Z" fill="#F3F7FF"/>
<path d="M100.922 38.7121C100.536 39.0983 99.9098 39.0983 99.5236 38.7121L95.9183 35.1067C95.0142 34.2027 96.4127 32.8043 97.3167 33.7083L100.922 37.3137C101.308 37.6998 101.308 38.3259 100.922 38.7121Z" fill="#F3F7FF"/>
<path d="M73.525 49.5543L75.1474 37.3585L87.3433 35.7361L105.388 53.7811L91.5701 67.5994L73.525 49.5543Z" fill="#ECF2FF"/>
<path d="M87.3433 35.7361L73.525 49.5543L75.1474 37.3585L87.3433 35.7361Z" fill="#7BEB13"/>
<path d="M88.0471 50.257C87.6608 50.6433 87.0348 50.6432 86.6486 50.257L83.0433 46.6517C82.1392 45.7476 83.5377 44.3492 84.4417 45.2532L88.0471 48.8586C88.4332 49.2447 88.4333 49.8708 88.0471 50.257Z" fill="#CFDFFF"/>
<path d="M91.4924 46.8107C91.1061 47.197 90.4801 47.1969 90.0939 46.8107L86.4886 43.2054C85.5845 42.3013 86.983 40.9029 87.887 41.8069L91.4924 45.4123C91.8785 45.7985 91.8785 46.4246 91.4924 46.8107Z" fill="#CFDFFF"/>
<path d="M94.9416 57.1516C94.5553 57.5378 93.9293 57.5377 93.5432 57.1516L89.9378 53.5462C89.0338 52.6422 90.4322 51.2437 91.3362 52.1478L94.9416 55.7531C95.3277 56.1393 95.3278 56.7653 94.9416 57.1516Z" fill="#CFDFFF"/>
<path d="M98.3869 53.7062C98.0007 54.0925 97.3746 54.0924 96.9885 53.7062L93.3831 50.1009C92.4791 49.1968 93.8775 47.7984 94.7815 48.7024L98.3869 52.3078C98.7731 52.694 98.7731 53.3201 98.3869 53.7062Z" fill="#CFDFFF"/>
<path d="M84.6017 53.7023C84.2155 54.0886 83.5895 54.0885 83.2033 53.7023L79.598 50.097C78.6939 49.1929 80.0923 47.7945 80.9964 48.6985L84.6017 52.3039C84.9879 52.6901 84.988 53.3161 84.6017 53.7023Z" fill="#CFDFFF"/>
<path d="M91.4963 60.5978C91.11 60.9841 90.484 60.984 90.0978 60.5978L86.4925 56.9925C85.5884 56.0884 86.9869 54.69 87.8909 55.594L91.4963 59.1994C91.8824 59.5856 91.8825 60.2116 91.4963 60.5978Z" fill="#CFDFFF"/>
<path d="M91.59 67.5819L82.3594 76.8125L72.875 67.3281L72.7598 57.9823L82.1056 58.0975L91.59 67.5819Z" fill="#B0CBFF"/>
<path d="M85.2034 67.0413C84.8171 67.4275 84.1911 67.4274 83.8049 67.0413L81.844 65.0804C80.94 64.1763 82.3384 62.7779 83.2425 63.6819L85.2034 65.6428C85.5895 66.029 85.5895 66.6551 85.2034 67.0413Z" fill="#F3F7FF"/>
<path d="M77.4903 62.7128L72.875 67.3281L72.7598 57.9823L82.1056 58.0975L77.4903 62.7128Z" fill="#F80338"/>
<path d="M81.8186 70.426C81.4324 70.8123 80.8063 70.8122 80.4202 70.426L78.4593 68.4651C77.5552 67.5611 78.9537 66.1627 79.8577 67.0667L81.8186 69.0276C82.2048 69.4137 82.2049 70.0398 81.8186 70.426Z" fill="#F3F7FF"/>
<rect width="1.49873" height="11.8649" rx="0.749365" transform="matrix(-0.707107 0.707107 0.707107 0.707107 112.828 29.7207)" fill="#59C939"/>
<path d="M108.644 32.6815C108.598 32.3987 108.415 32.1593 108.158 32.0316C107.736 31.8215 107.34 31.5405 106.988 31.1884C106.159 30.3591 105.723 29.2856 105.681 28.2009C105.67 27.9129 105.514 27.6517 105.272 27.4934C105.057 27.3517 104.855 27.1806 104.672 26.9798C103.573 25.7724 103.597 23.8992 104.723 22.7248C105.935 21.4616 107.945 21.4489 109.181 22.6844C109.339 22.8426 109.477 23.0137 109.594 23.1941C109.748 23.4314 110.011 23.5788 110.293 23.5896C111.378 23.6313 112.451 24.0669 113.28 24.8961C113.632 25.2482 113.913 25.6444 114.123 26.0667C114.251 26.3242 114.492 26.5063 114.775 26.5528C115.844 26.728 116.87 27.2279 117.695 28.0524C119.756 30.1123 119.787 33.4753 117.763 35.5594C115.683 37.7007 112.255 37.7144 110.145 35.6043C109.32 34.7786 108.819 33.7511 108.644 32.6815Z" fill="#A4E192"/>
<rect width="1.99831" height="11.8649" rx="0.999153" transform="matrix(-0.707107 0.707107 0.707107 0.707107 108.143 34.3096)" fill="#4CAB30"/>
<path d="M102.631 36.9566C102.582 36.6487 102.384 36.3887 102.105 36.2506C101.646 36.0235 101.215 35.719 100.833 35.3368C99.933 34.4368 99.4629 33.269 99.4221 32.0874C99.4112 31.7738 99.2416 31.4898 98.9795 31.3183C98.7451 31.1648 98.5256 30.9793 98.3274 30.7613C97.1355 29.4503 97.1686 27.4095 98.401 26.1254C99.7267 24.7442 101.916 24.7221 103.257 26.063C103.429 26.2348 103.578 26.4206 103.705 26.6167C103.872 26.8745 104.158 27.034 104.465 27.0447C105.647 27.0856 106.814 27.5557 107.714 28.4557C108.096 28.8378 108.401 29.2683 108.628 29.7276C108.766 30.0075 109.028 30.2049 109.336 30.2544C110.5 30.4409 111.615 30.9813 112.511 31.8761C114.748 34.1118 114.768 37.7755 112.554 40.0542C110.279 42.3956 106.545 42.4247 104.255 40.1346C103.359 39.2386 102.818 38.1212 102.631 36.9566Z" fill="#59C939"/>
</g>
</g>
<defs>
<clipPath id="clip0_6377_34386">
<rect width="120" height="120" fill="white"/>
</clipPath>
</defs>
</svg>
