<svg width="512" height="512" viewBox="0 0 512 512" fill="none" xmlns="http://www.w3.org/2000/svg">
<path fill-rule="evenodd" clip-rule="evenodd" d="M445 456.437V205.65C445.002 200.587 442.663 195.807 438.665 192.701L265.835 58.448C260.034 53.9404 251.942 53.8433 246.034 58.2103L74.6467 184.973C70.4667 188.063 68.0005 192.953 68 198.151V456.437" fill="#E5EDFF"/>
<path fill-rule="evenodd" clip-rule="evenodd" d="M379.435 251.546C379.368 260.57 372.068 267.87 363.043 267.937H149.956C140.915 267.91 133.592 260.587 133.565 251.546C133.632 242.521 140.932 235.221 149.956 235.154H363.043C372.085 235.181 379.408 242.504 379.435 251.546Z" fill="#59C939"/>
<path fill-rule="evenodd" clip-rule="evenodd" d="M149.956 267.937H363.043V456.437H149.956V267.937Z" fill="#A4E192"/>
</svg>
