<svg width="512" height="512" viewBox="0 0 512 512" fill="none" xmlns="http://www.w3.org/2000/svg">
<path d="M255.997 142.08L272.317 476H60.158V142.08H255.997Z" fill="#B0BED9"/>
<path d="M255.714 59.9834H451.269V476H255.714V59.9834Z" fill="#E5EDFF"/>
<path d="M255.714 117.428V149.999H52.1428C47.6457 149.999 44 146.353 44 141.856V125.571C44 121.073 47.6457 117.428 52.1428 117.428H255.714Z" fill="#137FEB"/>
<path d="M459.285 36H247.571C243.074 36 239.428 39.6457 239.428 44.1428V60.4285C239.428 64.9257 243.074 68.5714 247.571 68.5714H459.285C463.782 68.5714 467.428 64.9257 467.428 60.4285V44.1428C467.428 39.6457 463.782 36 459.285 36Z" fill="#5AA5F1"/>
<path fill-rule="evenodd" clip-rule="evenodd" d="M101 182.57H215C219.497 182.57 223.142 186.216 223.142 190.713V223.285C223.142 227.782 219.497 231.427 215 231.427H101C96.5026 231.427 92.8569 227.782 92.8569 223.285V190.713C92.8569 186.216 96.5026 182.57 101 182.57ZM215 264H101C96.5026 264 92.8569 267.646 92.8569 272.143V304.714C92.8569 309.211 96.5026 312.857 101 312.857H215C219.497 312.857 223.142 309.211 223.142 304.714V272.143C223.142 267.646 219.497 264 215 264ZM215 345H101C96.5026 345 92.8569 348.646 92.8569 353.143V385.714C92.8569 390.211 96.5026 393.857 101 393.857H215C219.497 393.857 223.142 390.211 223.142 385.714V353.143C223.142 348.646 219.497 345 215 345Z" fill="#CFDFFF"/>
<path fill-rule="evenodd" clip-rule="evenodd" d="M328.999 101.143H296.428C291.931 101.143 288.285 104.788 288.285 109.285V141.857C288.285 146.354 291.931 150 296.428 150H328.999C333.497 150 337.142 146.354 337.142 141.857V109.285C337.142 104.788 333.497 101.143 328.999 101.143ZM328.999 182.57H296.428C291.931 182.57 288.285 186.216 288.285 190.713V223.285C288.285 227.782 291.931 231.427 296.428 231.427H328.999C333.497 231.427 337.142 227.782 337.142 223.285V190.713C337.142 186.216 333.497 182.57 328.999 182.57ZM296.428 264H328.999C333.497 264 337.142 267.646 337.142 272.143V304.714C337.142 309.211 333.497 312.857 328.999 312.857H296.428C291.931 312.857 288.285 309.211 288.285 304.714V272.143C288.285 267.646 291.931 264 296.428 264ZM296.428 345H328.999C333.497 345 337.142 348.646 337.142 353.143V385.714C337.142 390.211 333.497 393.857 328.999 393.857H296.428C291.931 393.857 288.285 390.211 288.285 385.714V353.143C288.285 348.646 291.931 345 296.428 345ZM410.428 264H377.856C373.359 264 369.714 267.646 369.714 272.143V304.714C369.714 309.211 373.359 312.857 377.856 312.857H410.428C414.925 312.857 418.571 309.211 418.571 304.714V272.143C418.571 267.646 414.925 264 410.428 264ZM377.856 345H410.428C414.925 345 418.571 348.646 418.571 353.143V385.714C418.571 390.211 414.925 393.857 410.428 393.857H377.856C373.359 393.857 369.714 390.211 369.714 385.714V353.143C369.714 348.646 373.359 345 377.856 345ZM377.856 182.57H410.428C414.925 182.57 418.571 186.216 418.571 190.713V223.285C418.571 227.782 414.925 231.427 410.428 231.427H377.856C373.359 231.427 369.714 227.782 369.714 223.285V190.713C369.714 186.216 373.359 182.57 377.856 182.57ZM377.856 101.143H410.428C414.925 101.143 418.571 104.788 418.571 109.285V141.857C418.571 146.354 414.925 150 410.428 150H377.856C373.359 150 369.714 146.354 369.714 141.857V109.285C369.714 104.788 373.359 101.143 377.856 101.143Z" fill="#CFDFFF"/>
</svg>
