<svg width="512" height="512" viewBox="0 0 512 512" fill="none" xmlns="http://www.w3.org/2000/svg">
<path d="M161.344 254.557L149.337 121.437C149.097 118.777 146.867 116.739 144.197 116.739H102.516C99.845 116.739 97.615 118.777 97.376 121.437L83.563 274.584L161.344 254.557Z" fill="#F7A1E5"/>
<path d="M295.002 220.142L283.541 93.0681C283.301 90.4081 281.071 88.3701 278.401 88.3701H236.72C234.049 88.3701 231.82 90.4081 231.58 93.0681L218.338 239.882L295.002 220.142Z" fill="#F7A1E5"/>
<path d="M428.66 185.727L417.744 64.698C417.504 62.038 415.274 60 412.604 60H370.923C368.252 60 366.023 62.038 365.783 64.698L353.112 205.179L428.66 185.727Z" fill="#F7A1E5"/>
<path d="M475.343 452.762H36V290.832C36 288.477 37.594 286.421 39.874 285.834L468.895 175.367C472.161 174.526 475.343 176.993 475.343 180.365V452.762Z" fill="#F8C7F8"/>
<path d="M189.902 452.762H88.17V335.839C88.17 332.989 90.481 330.678 93.331 330.678H184.74C187.59 330.678 189.901 332.989 189.901 335.839L189.902 452.762Z" fill="#F47DDB"/>
<path d="M253.868 326H274.465C277.315 326 279.626 323.689 279.626 320.839V292.55C279.626 289.7 277.315 287.389 274.465 287.389H253.868C251.018 287.389 248.707 289.7 248.707 292.55V320.839C248.707 323.69 251.017 326 253.868 326Z" fill="#F7A1E5"/>
<path d="M253.868 405.032H274.465C277.315 405.032 279.626 402.721 279.626 399.871V371.582C279.626 368.732 277.315 366.421 274.465 366.421H253.868C251.018 366.421 248.707 368.732 248.707 371.582V399.871C248.707 402.721 251.017 405.032 253.868 405.032Z" fill="#F7A1E5"/>
<path d="M332.243 326H352.84C355.69 326 358.001 323.689 358.001 320.839V292.55C358.001 289.7 355.69 287.389 352.84 287.389H332.243C329.393 287.389 327.082 289.7 327.082 292.55V320.839C327.081 323.69 329.392 326 332.243 326Z" fill="#F7A1E5"/>
<path d="M332.243 405.032H352.84C355.69 405.032 358.001 402.721 358.001 399.871V371.582C358.001 368.732 355.69 366.421 352.84 366.421H332.243C329.393 366.421 327.082 368.732 327.082 371.582V399.871C327.081 402.721 329.392 405.032 332.243 405.032Z" fill="#F7A1E5"/>
<path d="M410.617 326H431.214C434.064 326 436.375 323.689 436.375 320.839V292.55C436.375 289.7 434.064 287.389 431.214 287.389H410.617C407.767 287.389 405.456 289.7 405.456 292.55V320.839C405.456 323.69 407.767 326 410.617 326Z" fill="#F7A1E5"/>
<path d="M410.617 405.032H431.214C434.064 405.032 436.375 402.721 436.375 399.871V371.582C436.375 368.732 434.064 366.421 431.214 366.421H410.617C407.767 366.421 405.456 368.732 405.456 371.582V399.871C405.456 402.721 407.767 405.032 410.617 405.032Z" fill="#F7A1E5"/>
<path d="M152.246 153.676L149.338 121.437C149.098 118.777 146.868 116.739 144.198 116.739H102.516C99.845 116.739 97.616 118.777 97.376 121.437L94.468 153.676H152.246Z" fill="#EB13BE"/>
<path d="M286.449 125.307L283.541 93.0681C283.301 90.4081 281.071 88.3701 278.401 88.3701H236.72C234.049 88.3701 231.819 90.4081 231.579 93.0681L228.671 125.307H286.449Z" fill="#EB13BE"/>
<path d="M420.652 96.937L417.744 64.698C417.504 62.038 415.274 60 412.604 60H370.923C368.252 60 366.022 62.038 365.783 64.698L362.875 96.937H420.652Z" fill="#EB13BE"/>
<path d="M420.652 96.937L417.744 64.698C417.504 62.038 415.274 60 412.604 60H370.923C368.252 60 366.022 62.038 365.783 64.698L362.875 96.937H420.652Z" fill="#EB13BE"/>
</svg>
