<svg width="512" height="512" viewBox="0 0 512 512" fill="none" xmlns="http://www.w3.org/2000/svg">
<path d="M444.568 120.034H67.4288V442.837H444.568V120.034Z" fill="#C4DFFA"/>
<path d="M270.389 392.393H99.1255C95.3886 392.393 92.3594 389.363 92.3594 385.626V259.6C92.3594 255.862 95.3886 252.833 99.1255 252.833H270.389C274.126 252.833 277.155 255.862 277.155 259.6V385.627C277.155 389.363 274.126 392.393 270.389 392.393Z" fill="#A1CCF7"/>
<path d="M309.156 442.442H414.066V259.605C414.066 255.865 411.024 252.833 407.272 252.833H315.949C312.197 252.833 309.156 255.865 309.156 259.605V442.442Z" fill="#7DB9F4"/>
<path d="M338.511 359.67C333.993 359.67 330.33 356.155 330.33 351.818V337.685C330.33 333.348 333.993 329.833 338.511 329.833C343.03 329.833 346.692 333.348 346.692 337.685V351.818C346.693 356.155 343.03 359.67 338.511 359.67Z" fill="#5AA5F1"/>
<path d="M391.348 72.1778C390.091 71.4076 388.645 71 387.17 71H124.717C123.242 71 121.796 71.4076 120.539 72.1778L78.8217 97.728C76.4475 99.1821 75 101.766 75 104.55V118.913C75 123.331 78.5817 126.913 83 126.913H112.594H399.293H428.887C433.305 126.913 436.887 123.331 436.887 118.913V104.55C436.887 101.766 435.44 99.1821 433.066 97.728L391.348 72.1778Z" fill="#137FEB"/>
<path d="M54.2975 120C49.4038 120 45.657 124.355 46.387 129.193L55.5037 189.621C56.0941 193.534 59.4568 196.427 63.4142 196.427H448.807C452.765 196.427 456.128 193.534 456.718 189.621L465.835 129.193C466.565 124.355 462.818 120 457.924 120H54.2975Z" fill="#5AA5F1"/>
</svg>
