<svg width="512" height="512" viewBox="0 0 512 512" fill="none" xmlns="http://www.w3.org/2000/svg">
<path d="M444.568 120.034H67.4288V442.837H444.568V120.034Z" fill="#DEFAC4"/>
<path d="M67.429 216.124C50.0718 216.124 36 202.053 36 184.695V159.091H98.8571V184.695C98.858 202.053 84.7862 216.124 67.429 216.124Z" fill="#69C810"/>
<path d="M130.286 216.124C112.929 216.124 98.8569 202.053 98.8569 184.695V159.091H161.714V184.695C161.715 202.053 147.643 216.124 130.286 216.124Z" fill="#A3F15A"/>
<path d="M193.143 216.124C175.786 216.124 161.714 202.053 161.714 184.695V159.091H224.571V184.695C224.572 202.053 210.5 216.124 193.143 216.124Z" fill="#69C810"/>
<path d="M256 216.124C238.643 216.124 224.571 202.053 224.571 184.695V159.091H287.428V184.695C287.428 202.053 273.357 216.124 256 216.124Z" fill="#A3F15A"/>
<path d="M318.858 216.124C301.5 216.124 287.429 202.053 287.429 184.695V159.091H350.286V184.695C350.287 202.053 336.215 216.124 318.858 216.124Z" fill="#69C810"/>
<path d="M381.715 216.124C364.357 216.124 350.286 202.053 350.286 184.695V159.091H413.143V184.695C413.144 202.053 399.072 216.124 381.715 216.124Z" fill="#A3F15A"/>
<path d="M444.572 216.124C427.215 216.124 413.143 202.053 413.143 184.695V159.091H476V184.695C476.001 202.053 461.929 216.124 444.572 216.124Z" fill="#69C810"/>
<path d="M98.8571 159.09H36L66.0811 99.2666H120.344L98.8571 159.09Z" fill="#7BEB13"/>
<path d="M161.714 159.09H98.8569L120.344 99.2666H174.606L161.714 159.09Z" fill="white"/>
<path d="M224.571 159.09H161.714L174.606 99.2666H228.869L224.571 159.09Z" fill="#7BEB13"/>
<path d="M287.428 159.09H224.571L228.869 99.2666H283.132L287.428 159.09Z" fill="white"/>
<path d="M350.286 159.09H287.429L283.132 99.2666H337.395L350.286 159.09Z" fill="#7BEB13"/>
<path d="M413.143 159.09H350.286L337.395 99.2666H391.657L413.143 159.09Z" fill="white"/>
<path d="M476 159.09H413.143L391.657 99.2666H445.92L476 159.09Z" fill="#7BEB13"/>
<path d="M407.062 392.394H235.798C232.061 392.394 229.031 389.364 229.031 385.627V259.601C229.031 255.863 232.061 252.834 235.798 252.834H407.062C410.798 252.834 413.828 255.863 413.828 259.601V385.628C413.828 389.364 410.798 392.394 407.062 392.394Z" fill="#B6F47D"/>
<path d="M197.27 442.442H92.3594V259.606C92.3594 255.866 95.4009 252.834 99.1529 252.834H190.476C194.228 252.834 197.27 255.866 197.27 259.606V442.442Z" fill="#A3F15A"/>
<path d="M167.914 359.669C172.432 359.669 176.095 356.154 176.095 351.817V337.684C176.095 333.347 172.432 329.832 167.914 329.832C163.396 329.832 159.733 333.347 159.733 337.684V351.817C159.732 356.154 163.396 359.669 167.914 359.669Z" fill="#69C810"/>
</svg>
