<svg width="512" height="512" viewBox="0 0 512 512" fill="none" xmlns="http://www.w3.org/2000/svg">
<g clip-path="url(#clip0_3085_1248)">
<path d="M352.22 242.686L352.99 245.287L353.76 242.686C358.473 226.772 368.718 201.901 388.557 190.536C388.603 188.903 388.634 187.251 388.634 185.562C388.634 141.353 372.676 105.515 352.991 105.515C333.306 105.515 317.347 141.353 317.347 185.562C317.347 187.251 317.379 188.903 317.424 190.536C337.262 201.901 347.507 226.772 352.22 242.686Z" fill="#E4E4D7"/>
<path d="M359.439 456V266.47C357.376 266.773 355.229 266.936 352.989 266.936C351.077 266.936 349.212 266.824 347.391 266.607V456H359.439Z" fill="#949561"/>
<path d="M357.034 151.707H349.767C346.44 151.707 343.743 149.01 343.743 145.683C343.743 142.356 346.44 139.659 349.767 139.659H357.034C360.361 139.659 363.058 142.356 363.058 145.683C363.058 149.01 360.361 151.707 357.034 151.707Z" fill="#C4C5A8"/>
<path d="M357.034 133.226H349.767C346.44 133.226 343.743 130.529 343.743 127.202C343.743 123.875 346.44 121.178 349.767 121.178H357.034C360.361 121.178 363.058 123.875 363.058 127.202C363.058 130.529 360.361 133.226 357.034 133.226Z" fill="#C4C5A8"/>
<path d="M357.034 170.459H349.767C346.44 170.459 343.743 167.762 343.743 164.435C343.743 161.108 346.44 158.411 349.767 158.411H357.034C360.361 158.411 363.058 161.108 363.058 164.435C363.058 167.762 360.361 170.459 357.034 170.459Z" fill="#C4C5A8"/>
<path d="M357.034 189.212H349.767C346.44 189.212 343.743 186.515 343.743 183.188C343.743 179.861 346.44 177.164 349.767 177.164H357.034C360.361 177.164 363.058 179.861 363.058 183.188C363.058 186.515 360.361 189.212 357.034 189.212Z" fill="#C4C5A8"/>
<path d="M357.034 207.965H349.767C346.44 207.965 343.743 205.268 343.743 201.941C343.743 198.614 346.44 195.917 349.767 195.917H357.034C360.361 195.917 363.058 198.614 363.058 201.941C363.058 205.268 360.361 207.965 357.034 207.965Z" fill="#C4C5A8"/>
<path d="M345.771 225.192C346.835 226.137 348.232 226.717 349.767 226.717H357.033C358.045 226.717 358.996 226.465 359.833 226.025C360.783 223.872 361.819 221.696 362.943 219.525C362.399 216.757 359.961 214.669 357.034 214.669H349.768C346.441 214.669 343.743 217.366 343.743 220.693C343.743 220.775 343.752 220.854 343.755 220.935C344.466 222.358 345.135 223.779 345.771 225.192Z" fill="#C4C5A8"/>
<path d="M331.351 169.644C334.678 169.644 337.375 166.947 337.375 163.62C337.375 160.293 334.678 157.596 331.351 157.596H319.584C318.939 161.479 318.424 165.503 318.052 169.644H331.351Z" fill="#C4C5A8"/>
<path d="M331.351 151.163C334.678 151.163 337.375 148.466 337.375 145.139C337.375 141.812 334.678 139.115 331.351 139.115H323.958C322.755 142.899 321.697 146.928 320.798 151.163H331.351Z" fill="#C4C5A8"/>
<path d="M337.375 182.373C337.375 179.046 334.678 176.349 331.351 176.349H317.583C317.428 179.373 317.346 182.446 317.346 185.562C317.346 186.521 317.364 187.457 317.379 188.397H331.351C334.678 188.397 337.375 185.7 337.375 182.373Z" fill="#C4C5A8"/>
<path d="M387.927 169.644C387.555 165.503 387.039 161.479 386.395 157.596H375.451C372.124 157.596 369.427 160.293 369.427 163.62C369.427 166.947 372.124 169.644 375.451 169.644H387.927Z" fill="#C4C5A8"/>
<path d="M385.182 151.163C384.283 146.928 383.224 142.899 382.022 139.115H375.451C372.124 139.115 369.427 141.812 369.427 145.139C369.427 148.466 372.124 151.163 375.451 151.163H385.182Z" fill="#C4C5A8"/>
<path d="M369.427 182.373C369.427 185.7 372.124 188.397 375.451 188.397H388.601C388.615 187.457 388.633 186.521 388.633 185.562C388.633 182.446 388.551 179.373 388.397 176.349H375.451C372.124 176.349 369.427 179.046 369.427 182.373Z" fill="#C4C5A8"/>
<path d="M405.424 184.058C374.158 187.913 359.373 220.9 352.989 242.458C346.606 220.9 331.82 187.913 300.554 184.058C298.625 183.82 296.98 185.458 297.147 187.393C298.557 203.67 306.302 267.74 352.988 267.74C398.453 267.74 407.42 203.67 408.829 187.393C408.999 185.458 407.353 183.82 405.424 184.058Z" fill="#C4C5A8"/>
<path d="M405.424 184.058C374.157 187.913 359.373 220.9 352.989 242.458V267.74C398.454 267.74 407.42 203.67 408.83 187.393C408.998 185.458 407.352 183.82 405.424 184.058Z" fill="#B4B590"/>
</g>
<path d="M250.417 352.093L235.688 319.839C232.699 313.294 224.097 311.742 219.01 316.83L163.591 372.248V411.95L227.787 347.608C228.801 346.593 230.379 346.407 231.601 347.159L245.98 356.014C248.582 357.617 251.687 354.874 250.417 352.093Z" fill="#C4C5A8"/>
<path d="M153.149 372.277L97.7011 316.83C92.6136 311.742 84.012 313.294 81.0232 319.839L66.2939 352.093C65.0232 354.874 68.1276 357.617 70.7316 356.013L85.1108 347.158C86.3324 346.406 87.9108 346.592 88.9244 347.607L153.149 411.978V372.277Z" fill="#C4C5A8"/>
<path d="M250.417 263.899L235.688 231.645C232.699 225.1 224.097 223.549 219.01 228.636L163.591 284.055V323.756L227.787 259.414C228.801 258.399 230.379 258.213 231.601 258.965L245.98 267.82C248.582 269.422 251.687 266.68 250.417 263.899Z" fill="#C4C5A8"/>
<path d="M153.149 284.083L97.7011 228.636C92.6136 223.549 84.012 225.1 81.0232 231.645L66.2939 263.899C65.0232 266.68 68.1276 269.423 70.7316 267.819L85.1108 258.965C86.3324 258.212 87.9108 258.398 88.9244 259.414L153.149 323.784V284.083Z" fill="#C4C5A8"/>
<path d="M157.175 193.172L157.945 195.773L158.715 193.172C163.428 177.258 173.673 152.387 193.511 141.022C193.557 139.39 193.588 137.737 193.588 136.048C193.588 91.8386 177.63 56 157.944 56C138.259 56 122.301 91.8386 122.301 136.047C122.301 137.737 122.332 139.389 122.378 141.022C142.216 152.386 152.462 177.258 157.175 193.172Z" fill="#E4E4D7"/>
<path d="M161.989 102.192H154.723C151.396 102.192 148.698 99.4946 148.698 96.1677C148.698 92.8407 151.396 90.1436 154.723 90.1436H161.988C165.315 90.1436 168.013 92.8407 168.013 96.1677C168.013 99.4946 165.316 102.192 161.989 102.192Z" fill="#C4C5A8"/>
<path d="M161.989 83.7108H154.723C151.396 83.7108 148.698 81.0136 148.698 77.6867C148.698 74.3598 151.396 71.6626 154.723 71.6626H161.988C165.315 71.6626 168.013 74.3598 168.013 77.6867C168.013 81.0136 165.316 83.7108 161.989 83.7108Z" fill="#C4C5A8"/>
<path d="M161.989 120.945H154.723C151.396 120.945 148.698 118.247 148.698 114.921C148.698 111.594 151.396 108.896 154.723 108.896H161.988C165.315 108.896 168.013 111.594 168.013 114.921C168.013 118.247 165.316 120.945 161.989 120.945Z" fill="#C4C5A8"/>
<path d="M161.989 139.697H154.723C151.396 139.697 148.698 137 148.698 133.673C148.698 130.346 151.396 127.649 154.723 127.649H161.988C165.315 127.649 168.013 130.346 168.013 133.673C168.013 137 165.316 139.697 161.989 139.697Z" fill="#C4C5A8"/>
<path d="M161.989 158.45H154.723C151.396 158.45 148.698 155.753 148.698 152.426C148.698 149.099 151.396 146.402 154.723 146.402H161.988C165.315 146.402 168.013 149.099 168.013 152.426C168.013 155.753 165.316 158.45 161.989 158.45Z" fill="#C4C5A8"/>
<path d="M150.726 175.677C151.79 176.624 153.187 177.203 154.723 177.203H161.988C163 177.203 163.952 176.95 164.788 176.51C165.737 174.358 166.774 172.183 167.897 170.012C167.353 167.244 164.915 165.155 161.988 165.155H154.723C151.396 165.155 148.698 167.852 148.698 171.179C148.698 171.261 148.707 171.341 148.711 171.422C149.421 172.844 150.09 174.265 150.726 175.677Z" fill="#C4C5A8"/>
<path d="M136.306 120.129C139.633 120.129 142.33 117.432 142.33 114.105C142.33 110.778 139.633 108.081 136.306 108.081H124.539C123.894 111.964 123.379 115.988 123.008 120.129H136.306Z" fill="#C4C5A8"/>
<path d="M136.306 101.648C139.633 101.648 142.33 98.9511 142.33 95.6242C142.33 92.2973 139.633 89.6001 136.306 89.6001H128.913C127.71 93.384 126.652 97.4138 125.753 101.648H136.306Z" fill="#C4C5A8"/>
<path d="M142.33 132.858C142.33 129.531 139.633 126.833 136.306 126.833H122.537C122.382 129.858 122.301 132.931 122.301 136.047C122.301 137.005 122.318 137.942 122.333 138.882H136.306C139.633 138.882 142.33 136.184 142.33 132.858Z" fill="#C4C5A8"/>
<path d="M192.882 120.129C192.51 115.988 191.994 111.964 191.35 108.081H180.406C177.079 108.081 174.382 110.778 174.382 114.105C174.382 117.432 177.079 120.129 180.406 120.129H192.882Z" fill="#C4C5A8"/>
<path d="M190.137 101.648C189.238 97.4138 188.179 93.384 186.977 89.6001H180.406C177.079 89.6001 174.382 92.2973 174.382 95.6242C174.382 98.9511 177.079 101.648 180.406 101.648H190.137Z" fill="#C4C5A8"/>
<path d="M174.381 132.858C174.381 136.184 177.078 138.882 180.405 138.882H193.555C193.57 137.942 193.588 137.005 193.588 136.047C193.588 132.931 193.506 129.858 193.351 126.833H180.405C177.078 126.833 174.381 129.531 174.381 132.858Z" fill="#C4C5A8"/>
<path d="M157.945 217.421C156.033 217.421 154.168 217.308 152.346 217.092V456H164.394V216.955C162.331 217.258 160.184 217.421 157.945 217.421Z" fill="#949561"/>
<path d="M210.38 134.543C179.113 138.398 164.328 171.386 157.944 192.944C151.561 171.386 136.776 138.398 105.509 134.543C103.58 134.305 101.935 135.943 102.103 137.879C103.512 154.155 111.257 218.225 157.943 218.225C203.409 218.225 212.375 154.155 213.784 137.879C213.954 135.943 212.308 134.305 210.38 134.543Z" fill="#C4C5A8"/>
<path d="M210.379 134.543C179.113 138.398 164.328 171.386 157.944 192.944V218.225C203.409 218.225 212.375 154.155 213.785 137.879C213.953 135.943 212.308 134.305 210.379 134.543Z" fill="#B4B590"/>
<path d="M448.25 408V423L433.25 456.75H418.25L429.5 423L425.75 408" fill="#949561"/>
<path d="M392 408V426.75L382.133 456.75H367.133L373.25 426.75V408" fill="#949561"/>
<path d="M358.25 407.686V408V426.75L350.75 456.75H335.75L339.5 426.75L337.616 407.92" fill="#949561"/>
<path d="M471.969 406.251L478.25 423L467 456.75H452L459.5 423L448.25 408" fill="#949561"/>
<path d="M485.75 336.75V385.5C485.75 391.467 483.379 397.19 479.16 401.41C474.94 405.629 469.217 408 463.25 408H339.5C333.533 408 327.81 405.629 323.59 401.41C319.37 397.19 317 391.467 317 385.5C312.47 385.499 308.049 384.109 304.334 381.516C300.619 378.923 297.789 375.253 296.225 371.002C295.745 369.705 295.391 368.367 295.166 367.003L287 318H277.058C275.806 318 274.569 317.732 273.429 317.217C272.288 316.701 271.271 315.948 270.445 315.008C269.618 314.068 269.001 312.963 268.635 311.766C268.268 310.57 268.161 309.309 268.32 308.067C268.49 306.813 268.92 305.607 269.581 304.528L279.5 288C279.5 283.027 281.475 278.258 284.992 274.742C288.508 271.225 293.277 269.25 298.25 269.25H315.125C318.036 269.25 320.907 269.928 323.51 271.229C326.114 272.531 328.378 274.421 330.125 276.75L347 299.25H448.25C449.516 299.25 450.766 299.311 452 299.433C461.25 300.365 469.823 304.699 476.059 311.594C482.295 318.489 485.748 327.454 485.75 336.75Z" fill="#F6F7F2"/>
<path d="M485.75 336.75V385.5C485.75 391.467 483.379 397.19 479.16 401.41C474.94 405.629 469.217 408 463.25 408H339.5C333.533 408 327.81 405.629 323.59 401.41C319.371 397.19 317 391.467 317 385.5C312.47 385.499 308.049 384.108 304.334 381.516C300.619 378.923 297.789 375.253 296.225 371.001C353.487 366.825 412.152 347.278 452 299.433C461.25 300.365 469.823 304.699 476.059 311.594C482.295 318.489 485.748 327.453 485.75 336.75Z" fill="#E4E4D7"/>
<path d="M305.75 288H279.5L269.505 304.657C268.684 306.027 268.25 307.594 268.25 309.19C268.25 311.527 269.178 313.768 270.83 315.42C272.482 317.072 274.723 318 277.06 318H290.75C294.728 318 298.544 316.42 301.357 313.607C304.17 310.794 305.75 306.978 305.75 303H309.5C311.489 303 313.397 302.21 314.803 300.803C316.21 299.397 317 297.489 317 295.5C317 293.511 316.21 291.603 314.803 290.197C313.397 288.79 311.489 288 309.5 288H305.75Z" fill="#949561"/>
<path d="M448.25 411.75C441.29 411.742 434.618 408.974 429.697 404.053C424.776 399.132 422.008 392.46 422 385.5C422 384.505 422.395 383.552 423.098 382.848C423.802 382.145 424.755 381.75 425.75 381.75C426.745 381.75 427.698 382.145 428.402 382.848C429.105 383.552 429.5 384.505 429.5 385.5C429.506 390.471 431.483 395.237 434.998 398.752C438.513 402.267 443.279 404.244 448.25 404.25C449.245 404.25 450.198 404.645 450.902 405.348C451.605 406.052 452 407.005 452 408C452 408.995 451.605 409.948 450.902 410.652C450.198 411.355 449.245 411.75 448.25 411.75Z" fill="#D4D5C0"/>
<path d="M354.5 411.75C353.505 411.75 352.552 411.355 351.848 410.652C351.145 409.948 350.75 408.995 350.75 408C350.75 407.005 351.145 406.052 351.848 405.348C352.552 404.645 353.505 404.25 354.5 404.25C359.471 404.244 364.237 402.267 367.752 398.752C371.267 395.237 373.244 390.471 373.25 385.5C373.25 384.505 373.645 383.552 374.348 382.848C375.052 382.145 376.005 381.75 377 381.75C377.995 381.75 378.948 382.145 379.652 382.848C380.355 383.552 380.75 384.505 380.75 385.5C380.742 392.46 377.974 399.132 373.053 404.053C368.132 408.974 361.46 411.742 354.5 411.75Z" fill="#D4D5C0"/>
<defs>
<clipPath id="clip0_3085_1248">
<rect width="185" height="302" fill="white" transform="translate(261 106)"/>
</clipPath>
</defs>
</svg>
