<svg width="512" height="512" viewBox="0 0 512 512" fill="none" xmlns="http://www.w3.org/2000/svg">
<g clip-path="url(#clip0_4202_37323)">
<g clip-path="url(#clip1_4202_37323)">
<path d="M290.43 221.975L279.908 105.171C279.687 102.726 277.64 100.853 275.189 100.853H236.922C234.469 100.853 232.423 102.726 232.203 105.171L220.045 240.12L290.43 221.975Z" fill="#9596BB"/>
<path d="M413.141 190.341L403.119 79.0937C402.898 76.6487 400.851 74.7754 398.4 74.7754H360.133C357.68 74.7754 355.634 76.6487 355.414 79.0937L343.78 208.221L413.141 190.341Z" fill="#9596BB"/>
<path d="M456 435.796H52.6418V286.953C52.6418 284.788 54.1052 282.899 56.1985 282.359L450.08 180.82C453.079 180.047 456 182.314 456 185.414V435.796Z" fill="#C3C3D8"/>
<path d="M252.665 319.277H271.575C274.192 319.277 276.313 317.152 276.313 314.533V288.53C276.313 285.91 274.192 283.786 271.575 283.786H252.665C250.049 283.786 247.927 285.91 247.927 288.53V314.533C247.927 317.153 250.048 319.277 252.665 319.277Z" fill="#D9D9E7"/>
<path d="M252.665 391.922H271.575C274.192 391.922 276.313 389.797 276.313 387.178V361.175C276.313 358.555 274.192 356.431 271.575 356.431H252.665C250.049 356.431 247.927 358.555 247.927 361.175V387.178C247.927 389.797 250.048 391.922 252.665 391.922Z" fill="#D9D9E7"/>
<path d="M324.621 319.277H343.531C346.147 319.277 348.269 317.152 348.269 314.533V288.53C348.269 285.91 346.147 283.786 343.531 283.786H324.621C322.004 283.786 319.882 285.91 319.882 288.53V314.533C319.882 317.153 322.003 319.277 324.621 319.277Z" fill="#D9D9E7"/>
<path d="M324.621 391.922H343.531C346.147 391.922 348.269 389.797 348.269 387.178V361.175C348.269 358.555 346.147 356.431 343.531 356.431H324.621C322.004 356.431 319.882 358.555 319.882 361.175V387.178C319.882 389.797 322.003 391.922 324.621 391.922Z" fill="#D9D9E7"/>
<path d="M396.575 319.277H415.485C418.102 319.277 420.224 317.152 420.224 314.533V288.53C420.224 285.91 418.102 283.786 415.485 283.786H396.575C393.959 283.786 391.837 285.91 391.837 288.53V314.533C391.837 317.153 393.959 319.277 396.575 319.277Z" fill="#D9D9E7"/>
<path d="M396.575 391.922H415.485C418.102 391.922 420.224 389.797 420.224 387.178V361.175C420.224 358.555 418.102 356.431 415.485 356.431H396.575C393.959 356.431 391.837 358.555 391.837 361.175V387.178C391.837 389.797 393.959 391.922 396.575 391.922Z" fill="#D9D9E7"/>
<path d="M282.578 134.805L279.908 105.171C279.687 102.726 277.64 100.853 275.189 100.853H236.922C234.469 100.853 232.422 102.726 232.202 105.171L229.532 134.805H282.578Z" fill="#68699E"/>
<path d="M405.789 108.727L403.119 79.0937C402.898 76.6487 400.851 74.7754 398.4 74.7754H360.133C357.68 74.7754 355.633 76.6487 355.414 79.0937L352.744 108.727H405.789Z" fill="#EB13BE"/>
<path d="M405.789 108.727L403.119 79.0937C402.898 76.6487 400.851 74.7754 398.4 74.7754H360.133C357.68 74.7754 355.633 76.6487 355.414 79.0937L352.744 108.727H405.789Z" fill="#68699E"/>
</g>
<path fill-rule="evenodd" clip-rule="evenodd" d="M202.116 436.523H60.3552C57.9598 436.523 56 434.563 56 432.168V235.096C56 214.409 89.0993 198.077 131.127 198.077C173.372 198.077 206.471 214.409 206.471 235.096V432.168C206.471 434.563 204.512 436.523 202.116 436.523Z" fill="#68699E"/>
<path fill-rule="evenodd" clip-rule="evenodd" d="M56 254.042V236.186C67.1057 225.951 94.5433 217.676 131.127 217.676C167.71 217.676 195.148 225.951 206.471 235.968V254.042C190.139 244.461 162.702 238.363 131.127 238.363C99.5518 238.363 72.3319 244.461 56 254.042Z" fill="#C3C3D8"/>
<path fill-rule="evenodd" clip-rule="evenodd" d="M56 313.708V295.199C67.1057 285.182 94.5433 276.689 131.127 276.689C167.71 276.689 195.148 285.182 206.471 295.199V313.491C190.139 303.909 162.702 297.812 131.127 297.812C99.5518 297.812 72.3319 303.909 56 313.708Z" fill="#C3C3D8"/>
<path fill-rule="evenodd" clip-rule="evenodd" d="M56 343.323V325.031C67.1057 315.015 94.5433 306.522 131.127 306.522C167.71 306.522 195.148 314.797 206.471 325.031V343.323C190.139 333.742 162.702 327.427 131.127 327.427C99.5518 327.427 72.3319 333.742 56 343.323Z" fill="#C3C3D8"/>
<path fill-rule="evenodd" clip-rule="evenodd" d="M56 373.154V354.645C67.1057 344.628 94.5433 336.135 131.127 336.135C167.71 336.135 195.148 344.628 206.471 354.645V373.154C190.139 363.355 162.702 357.258 131.127 357.258C99.5518 357.258 72.3319 363.355 56 373.154Z" fill="#C3C3D8"/>
<path fill-rule="evenodd" clip-rule="evenodd" d="M56 284.093V265.583C67.1057 255.566 94.5433 247.074 131.127 247.074C167.71 247.074 195.148 255.566 206.471 265.583V283.875C190.139 274.294 162.702 268.196 131.127 268.196C99.5518 268.196 72.3319 274.294 56 284.093Z" fill="#C3C3D8"/>
<path fill-rule="evenodd" clip-rule="evenodd" d="M156.387 218.98C159 219.416 161.613 219.634 164.226 220.069L153.121 239.232C150.507 239.014 147.677 238.797 145.063 238.579L156.387 218.98Z" fill="#D9D9E7"/>
<path fill-rule="evenodd" clip-rule="evenodd" d="M123.07 276.904C125.683 276.687 128.514 276.687 131.127 276.687H131.563L119.15 298.027C116.102 298.245 113.271 298.462 110.44 298.68L123.07 276.904Z" fill="#D9D9E7"/>
<path fill-rule="evenodd" clip-rule="evenodd" d="M104.996 308.044C107.827 307.609 110.875 307.391 113.924 307.173L101.076 329.603C97.8099 330.038 94.7613 330.474 91.7127 331.127L104.996 308.044Z" fill="#D9D9E7"/>
<path fill-rule="evenodd" clip-rule="evenodd" d="M85.8331 341.141C88.8817 340.488 92.1481 339.835 95.4145 339.182L81.6957 362.917C77.9938 364.006 74.7274 364.877 71.461 365.966L85.8331 341.141Z" fill="#D9D9E7"/>
<path fill-rule="evenodd" clip-rule="evenodd" d="M140.055 247.289C142.886 247.507 145.499 247.507 148.112 247.725L136.353 268.194C134.611 268.194 132.869 268.194 131.127 268.194C130.256 268.194 129.167 268.194 128.078 268.194L140.055 247.289Z" fill="#D9D9E7"/>
<path fill-rule="evenodd" clip-rule="evenodd" d="M174.461 222.029C180.123 223.336 185.131 224.86 189.704 226.602L179.905 243.805C174.897 242.499 169.453 241.41 163.791 240.539L174.461 222.029Z" fill="#D9D9E7"/>
<path fill-rule="evenodd" clip-rule="evenodd" d="M142.886 277.122C148.766 277.34 154.427 277.775 159.653 278.646L148.33 298.462C142.886 298.027 137.007 297.809 131.127 297.809H130.909L142.886 277.122Z" fill="#D9D9E7"/>
<path fill-rule="evenodd" clip-rule="evenodd" d="M125.901 306.519H131.127C135.482 306.519 139.402 306.519 143.539 306.737L131.563 327.424H131.127C125.03 327.424 119.15 327.642 113.271 328.295L125.901 306.519Z" fill="#D9D9E7"/>
<path fill-rule="evenodd" clip-rule="evenodd" d="M108.045 337.442C113.706 336.789 120.021 336.353 126.336 336.353L113.924 357.911C107.174 358.347 100.859 359.218 94.7613 360.307L108.045 337.442Z" fill="#D9D9E7"/>
<path fill-rule="evenodd" clip-rule="evenodd" d="M159.218 248.812C164.88 249.683 170.324 250.554 175.114 251.861L164.444 270.588C159 269.717 153.338 269.064 147.677 268.846L159.218 248.812Z" fill="#D9D9E7"/>
<path fill-rule="evenodd" clip-rule="evenodd" d="M159 436.522H103.472C100.858 436.522 99.1164 434.562 99.1164 432.167V380.993C99.1164 378.598 100.858 376.638 103.472 376.638H159C161.395 376.638 163.355 378.598 163.355 380.993V432.167C163.355 434.562 161.395 436.522 159 436.522Z" fill="#F3F3F7"/>
<path fill-rule="evenodd" clip-rule="evenodd" d="M131.127 436.524C128.732 436.524 126.772 434.564 126.772 432.169V380.995C126.772 378.6 128.732 376.64 131.127 376.64C133.522 376.64 135.482 378.6 135.482 380.995V432.169C135.482 434.564 133.522 436.524 131.127 436.524Z" fill="#585986"/>
<path fill-rule="evenodd" clip-rule="evenodd" d="M171.848 385.35H90.4059C88.0106 385.35 86.0507 383.391 86.0507 380.995C86.0507 378.6 88.0106 376.64 90.4059 376.64H171.848C174.243 376.64 176.203 378.6 176.203 380.995C176.203 383.391 174.243 385.35 171.848 385.35Z" fill="#585986"/>
</g>
<defs>
<clipPath id="clip0_4202_37323">
<rect width="512" height="512" fill="white"/>
</clipPath>
<clipPath id="clip1_4202_37323">
<rect width="261.857" height="361.148" fill="white" transform="translate(194.143 75)"/>
</clipPath>
</defs>
</svg>
