<svg width="512" height="512" viewBox="0 0 512 512" fill="none" xmlns="http://www.w3.org/2000/svg">
<path d="M294 243V291H246V259L225.5 274V167L294 89.5H307.5H330V171L278 243H294Z" fill="#E4D8E4"/>
<path fill-rule="evenodd" clip-rule="evenodd" d="M390 242.976V290.976H358.5L342 242.976H390ZM486 258.976L430 234.976V90.9761H326V122.976L294 138.976V202.976L278 242.976H294V290.976H246V258.976L206 282.976V326V338.976V386.976V439.776V451H486V354.976V326V258.976ZM390 154.976V202.976H342V154.976H390Z" fill="#B491B5"/>
<path d="M390 331V388.592L366 403L342 395V331H390Z" fill="#E4D8E4"/>
<path d="M294 331V379L246 421V331H294Z" fill="#E4D8E4"/>
<path d="M342 243H390V291H358L342 243Z" fill="#E4D8E4"/>
<path d="M342 155H390V203H342V155Z" fill="#E4D8E4"/>
<path d="M59.1722 452.682H88.904C88.5735 451.16 88.2351 449.689 87.8712 448.22C83.464 430.034 77.1708 415.124 70.2307 403.206C51.8532 371.502 28.4986 362.79 25.4188 365.955C22.3391 369.121 37.0369 396.341 43.5764 439.472C44.768 447.336 51.0577 452.682 59.1722 452.682Z" fill="#946295"/>
<path d="M98.1345 452.682H129.359C136.508 452.682 141.99 447.922 142.766 441.069C148.076 394.181 166.487 365.423 162.071 362.363C157.655 359.303 135.141 368.18 116.83 400.155C109.284 413.352 102.565 430.161 98.478 450.971C98.3543 451.526 98.234 452.104 98.1345 452.682Z" fill="#946295"/>
<path d="M64.7625 452.682H121.388C118.824 433.156 118.578 415.681 119.55 400.213C122.726 349.433 136.116 314.887 131.107 311.684C126.099 308.481 91.564 330.654 74.5047 389.296C69.5319 406.344 65.9837 426.234 64.9138 448.985C64.8549 450.204 64.796 451.422 64.7625 452.682Z" fill="#946295"/>
</svg>
