<svg width="512" height="512" viewBox="0 0 512 512" fill="none" xmlns="http://www.w3.org/2000/svg">
<rect x="358" y="280" width="24" height="103" rx="8" fill="#4CAB30"/>
<path d="M470.351 309.083L440.892 280.151C440.047 279.322 439.469 278.259 439.23 277.1C438.991 275.94 439.103 274.736 439.551 273.64C439.999 272.544 440.763 271.607 441.746 270.947C442.729 270.287 443.886 269.935 445.07 269.935H456.736C457.954 269.935 459.143 269.562 460.142 268.866C461.142 268.17 461.905 267.185 462.327 266.043C462.75 264.901 462.813 263.656 462.508 262.477C462.203 261.298 461.544 260.241 460.62 259.448L428.765 232.104C427.84 231.311 427.181 230.254 426.876 229.075C426.571 227.896 426.634 226.651 427.057 225.509C427.48 224.367 428.242 223.382 429.242 222.686C430.241 221.99 431.43 221.617 432.648 221.617H441.636C442.836 221.617 444.008 221.255 444.999 220.578C445.991 219.901 446.754 218.941 447.191 217.823C447.627 216.705 447.716 215.481 447.446 214.312C447.176 213.142 446.559 212.082 445.676 211.269L406.654 175.332C405.771 174.518 405.155 173.458 404.884 172.288C404.614 171.119 404.703 169.895 405.139 168.777C405.576 167.659 406.34 166.699 407.331 166.022C408.322 165.345 409.494 164.983 410.694 164.983C411.848 164.983 412.976 164.649 413.943 164.02C414.91 163.391 415.674 162.496 416.142 161.442C416.61 160.388 416.762 159.221 416.58 158.082C416.398 156.943 415.889 155.881 415.116 155.026C398.854 137.273 385.326 117.197 374.978 95.4598C374.501 94.4268 373.738 93.552 372.779 92.9389C371.821 92.3258 370.707 92 369.569 92C368.431 92 367.317 92.3258 366.358 92.9389C365.4 93.552 364.637 94.4268 364.16 95.4598C353.811 117.197 340.283 137.273 324.022 155.026C323.248 155.881 322.74 156.943 322.557 158.082C322.375 159.221 322.527 160.388 322.995 161.442C323.464 162.496 324.227 163.391 325.194 164.02C326.161 164.649 327.29 164.983 328.443 164.983C329.643 164.983 330.816 165.345 331.807 166.022C332.798 166.699 333.562 167.659 333.998 168.777C334.435 169.895 334.523 171.119 334.253 172.288C333.983 173.458 333.366 174.518 332.483 175.332L293.462 211.269C292.579 212.082 291.962 213.142 291.691 214.312C291.421 215.481 291.51 216.705 291.946 217.823C292.383 218.941 293.147 219.901 294.138 220.578C295.129 221.255 296.301 221.617 297.502 221.617H306.489C307.707 221.617 308.896 221.99 309.895 222.686C310.895 223.382 311.658 224.367 312.081 225.509C312.504 226.651 312.567 227.896 312.261 229.075C311.956 230.254 311.297 231.311 310.373 232.104L278.518 259.448C277.594 260.241 276.934 261.298 276.629 262.477C276.324 263.656 276.387 264.901 276.81 266.043C277.233 267.185 277.995 268.17 278.995 268.866C279.995 269.562 281.183 269.935 282.401 269.935H294.067C295.251 269.935 296.408 270.287 297.391 270.947C298.374 271.607 299.138 272.544 299.586 273.64C300.034 274.736 300.146 275.94 299.907 277.1C299.669 278.259 299.09 279.322 298.245 280.151L268.785 309.083C267.94 309.913 267.361 310.975 267.123 312.134C266.884 313.294 266.996 314.498 267.444 315.594C267.892 316.69 268.656 317.627 269.639 318.287C270.622 318.947 271.779 319.3 272.963 319.3H466.173C467.356 319.3 468.513 318.947 469.496 318.287C470.479 317.627 471.243 316.69 471.691 315.594C472.14 314.498 472.251 313.294 472.013 312.134C471.774 310.975 471.195 309.913 470.351 309.083Z" fill="#689E6A"/>
<g clip-path="url(#clip0_4202_37322)">
<path d="M87.7177 325.706H112.485C112.21 324.438 111.928 323.213 111.625 321.989C107.953 306.84 102.711 294.419 96.9297 284.491C81.6208 258.08 62.1657 250.823 59.6001 253.46C57.0346 256.097 69.2783 278.773 74.7259 314.702C75.7185 321.253 80.958 325.706 87.7177 325.706Z" fill="#95BB97"/>
<path d="M120.175 325.706H146.186C152.141 325.706 156.707 321.741 157.354 316.032C161.777 276.973 177.114 253.016 173.436 250.468C169.757 247.919 151.002 255.313 135.749 281.949C129.462 292.943 123.866 306.946 120.461 324.281C120.358 324.743 120.257 325.224 120.175 325.706Z" fill="#95BB97"/>
<path d="M92.3746 325.706H139.545C137.41 309.44 137.205 294.883 138.014 281.998C140.66 239.696 151.814 210.919 147.642 208.25C143.469 205.582 114.701 224.053 100.49 272.904C96.3477 287.105 93.392 303.674 92.5007 322.626C92.4516 323.641 92.4025 324.657 92.3746 325.706Z" fill="#95BB97"/>
<rect x="40" y="312.955" width="432" height="61" fill="#ACCAAD"/>
<path d="M242.758 411.749C240.115 414.371 238.311 417.719 237.574 421.368C236.837 425.017 237.202 428.802 238.621 432.244C240.039 435.686 242.449 438.628 245.544 440.698C248.638 442.767 252.278 443.87 256 443.867H472V565.954H312.348C319.82 565.954 326.986 562.986 332.27 557.702C337.554 552.419 340.522 545.253 340.522 537.78C340.522 530.308 337.554 523.142 332.27 517.859C326.986 512.575 319.82 509.607 312.348 509.607H217.026C211.798 509.599 206.674 508.137 202.229 505.384C197.784 502.631 194.193 498.695 191.858 494.017L188.665 487.631C186.329 482.953 182.738 479.017 178.293 476.264C173.848 473.51 168.725 472.048 163.496 472.041H40.0002V349.954H172.887C178.116 349.947 183.239 348.485 187.684 345.732C192.129 342.979 195.72 339.043 198.056 334.365L201.249 327.979C203.584 323.301 207.176 319.365 211.621 316.612C216.066 313.858 221.189 312.396 226.418 312.389H472V368.737H367.287C362.059 368.744 356.935 370.206 352.49 372.959C348.045 375.713 344.454 379.648 342.118 384.327L338.925 390.713C336.59 395.391 332.999 399.327 328.554 402.08C324.109 404.833 318.985 406.295 313.757 406.302C253.84 406.302 249.99 404.518 242.758 411.749Z" fill="#C3D8C3"/>
<path d="M472 368.737V443.868H256C252.277 443.871 248.638 442.767 245.543 440.698C242.449 438.628 240.039 435.686 238.62 432.244C237.201 428.803 236.837 425.017 237.574 421.368C238.311 417.719 240.115 414.371 242.758 411.749C250.459 404.049 255.061 406.303 313.757 406.303C318.985 406.295 324.109 404.833 328.554 402.08C332.999 399.327 336.59 395.391 338.925 390.713L342.118 384.327C344.454 379.649 348.045 375.713 352.49 372.96C356.935 370.206 362.058 368.744 367.287 368.737H472Z" fill="#D9E7DA"/>
</g>
<defs>
<clipPath id="clip0_4202_37322">
<rect width="432" height="264" fill="white" transform="translate(40 208)"/>
</clipPath>
</defs>
</svg>
