<svg width="81" height="80" viewBox="0 0 81 80" fill="none" xmlns="http://www.w3.org/2000/svg">
<g clip-path="url(#clip0_4871_9136)">
<path d="M18.333 54.7969H9.24805L10.9149 15.7812H16.6662L18.333 54.7969Z" fill="#C3C3D8"/>
<path d="M17.4229 32.9547H10.1592L10.4123 27.295H17.1701L17.4229 32.9547Z" fill="#68699E"/>
<path d="M10.4121 27.295H17.1699L16.9162 21.6356H10.6659L10.4121 27.295Z" fill="#9596BB"/>
<path d="M29.14 54.7969H20.0547L21.7216 15.7812H27.4731L29.14 54.7969Z" fill="#C3C3D8"/>
<path d="M28.2296 32.9547H20.9658L21.2189 27.295H27.9768L28.2296 32.9547Z" fill="#68699E"/>
<path d="M21.2188 27.295H27.9766L27.7228 21.6356H21.4725L21.2188 27.295Z" fill="#9596BB"/>
<path d="M48.1631 67.3719H3V45.3125C3 44.4008 3.36216 43.5265 4.00682 42.8818C4.65148 42.2372 5.52582 41.875 6.4375 41.875H44.7256C45.6372 41.875 46.5116 42.2372 47.1562 42.8818C47.8009 43.5265 48.1631 44.4008 48.1631 45.3125V67.3719Z" fill="#D9D9E7"/>
<path d="M10.7511 61.0314C11.4081 61.0314 11.9404 60.4989 11.9404 59.8421V49.2783C11.9404 47.7406 9.56184 47.7406 9.56184 49.2783V59.8421C9.56184 60.4989 10.0943 61.0314 10.7511 61.0314Z" fill="white"/>
<path d="M18.2511 61.1877C18.9081 61.1877 19.4404 60.6552 19.4404 59.9984V49.4345C19.4404 47.8968 17.0618 47.8968 17.0618 49.4345V59.9984C17.0618 60.6552 17.5943 61.1877 18.2511 61.1877Z" fill="white"/>
<path d="M25.7511 61.1877C26.4081 61.1877 26.9404 60.6552 26.9404 59.9984V49.4345C26.9404 47.8968 24.5618 47.8968 24.5618 49.4345V59.9984C24.5618 60.6552 25.0943 61.1877 25.7511 61.1877Z" fill="white"/>
<path d="M33.2511 61.1877C33.9081 61.1877 34.4404 60.6552 34.4404 59.9984V49.4345C34.4404 47.8968 32.0618 47.8968 32.0618 49.4345V59.9984C32.0618 60.6552 32.5943 61.1877 33.2511 61.1877Z" fill="white"/>
<path d="M59.2255 41.0363L57.4658 39.9603L59.2333 41.0228L59.2255 41.0363Z" fill="#231F20"/>
<path d="M58.3457 40.485V40.4719L58.3538 40.485H58.3457Z" fill="white"/>
<path d="M62.2188 29.0625H50.5H38.7812V67.3438H62.2188V29.0625Z" fill="#68699E"/>
<path d="M50.5334 53.6935C51.1903 53.6935 51.7227 53.161 51.7227 52.5042V46.3719C51.7227 44.8342 49.3441 44.8342 49.3441 46.3719V52.5042C49.3441 53.161 49.8764 53.6935 50.5334 53.6935Z" fill="#D9D9E7"/>
<path d="M44.673 53.6935C45.33 53.6935 45.8623 53.161 45.8623 52.5042V46.3719C45.8623 44.8342 43.4837 44.8342 43.4837 46.3719V52.5042C43.4837 53.161 44.0162 53.6935 44.673 53.6935Z" fill="#D9D9E7"/>
<path d="M56.3947 53.6935C57.0517 53.6935 57.584 53.161 57.584 52.5042V46.3719C57.584 44.8342 55.2054 44.8342 55.2054 46.3719V52.5042C55.2054 53.161 55.7377 53.6935 56.3947 53.6935Z" fill="#D9D9E7"/>
<path d="M50.5334 42.0686C51.1903 42.0686 51.7227 41.5361 51.7227 40.8793V34.747C51.7227 33.2093 49.3441 33.2093 49.3441 34.747V40.8793C49.3441 41.5361 49.8764 42.0686 50.5334 42.0686Z" fill="#D9D9E7"/>
<path d="M44.673 42.0686C45.33 42.0686 45.8623 41.5361 45.8623 40.8793V34.747C45.8623 33.2093 43.4837 33.2093 43.4837 34.747V40.8793C43.4837 41.5361 44.0162 42.0686 44.673 42.0686Z" fill="#D9D9E7"/>
<path d="M56.3947 42.0686C57.0517 42.0686 57.584 41.5361 57.584 40.8793V34.747C57.584 33.2093 55.2054 33.2093 55.2054 34.747V40.8793C55.2054 41.5361 55.7377 42.0686 56.3947 42.0686Z" fill="#D9D9E7"/>
<path d="M62.2196 67.3777H77.9199V51.2458L70.0698 43.1998L62.2196 51.2458V67.3777Z" fill="#C3C3D8"/>
<path d="M67.1906 61.4867C67.8476 61.4867 68.3799 60.9542 68.3799 60.2974V56.9621C68.3799 55.4244 66.0013 55.4244 66.0013 56.9621V60.2974C66.0013 60.9542 66.5338 61.4867 67.1906 61.4867Z" fill="white"/>
<path d="M70.0698 51.2458H77.9199L70.0698 43.1998L62.2196 51.2458H70.0698Z" fill="#68699E"/>
<path d="M72.9474 61.4867C73.6044 61.4867 74.1367 60.9542 74.1367 60.2974V56.9621C74.1367 55.4244 71.7581 55.4244 71.7581 56.9621V60.2974C71.7581 60.9542 72.2905 61.4867 72.9474 61.4867Z" fill="white"/>
</g>
<defs>
<clipPath id="clip0_4871_9136">
<rect width="80" height="80" fill="white" transform="translate(0.5)"/>
</clipPath>
</defs>
</svg>
