<svg width="80" height="80" viewBox="0 0 80 80" fill="none" xmlns="http://www.w3.org/2000/svg">
<path d="M21.3769 8.74951L8.75012 21.3763L58.6231 71.2492L71.2499 58.6223L21.3769 8.74951ZM17.9774 20.8907C17.1728 20.086 17.1728 18.7815 17.9774 17.9768C18.7821 17.1722 20.0866 17.1722 20.8913 17.9768C21.696 18.7815 21.696 20.086 20.8913 20.8907C20.0866 21.6954 18.7821 21.6954 17.9774 20.8907ZM59.1086 62.0219C58.304 61.2172 58.304 59.9127 59.1086 59.108C59.9133 58.3034 61.2178 58.3034 62.0225 59.108C62.8272 59.9127 62.8272 61.2172 62.0225 62.0219C61.218 62.8266 59.9133 62.8266 59.1086 62.0219Z" fill="#E5EDFF"/>
<path d="M33.9293 29.0722C33.527 29.4745 33.527 30.1267 33.9293 30.5292C34.3316 30.9316 34.9838 30.9315 35.3863 30.5292L39.2715 26.644L37.8145 25.187L33.9293 29.0722Z" fill="#CFDFFF"/>
<path d="M25.505 20.6478C25.1027 21.0502 25.1027 21.7024 25.505 22.1049C25.9073 22.5073 26.5595 22.5072 26.962 22.1049L30.8472 18.2197L29.3902 16.7627L25.505 20.6478Z" fill="#CFDFFF"/>
<path d="M29.7171 24.8603C29.3148 25.2626 29.3148 25.9148 29.7171 26.3173C30.1194 26.7196 30.7716 26.7196 31.1741 26.3173L35.0592 22.4321L33.6022 20.9751L29.7171 24.8603Z" fill="#CFDFFF"/>
<path d="M49.47 44.6132C49.0677 45.0155 49.0677 45.6677 49.47 46.0702C49.8724 46.4725 50.5246 46.4725 50.927 46.0702L54.8122 42.185L53.3552 40.728L49.47 44.6132Z" fill="#CFDFFF"/>
<path d="M61.7798 49.1523L57.8946 53.0375C57.4923 53.4398 57.4923 54.092 57.8946 54.4945C58.297 54.8968 58.9492 54.8968 59.3517 54.4945L63.2368 50.6093L61.7798 49.1523Z" fill="#CFDFFF"/>
<path d="M53.6824 48.8256C53.28 49.2279 53.28 49.8801 53.6824 50.2826C54.0847 50.6849 54.7369 50.6849 55.1394 50.2826L59.0245 46.3974L57.5675 44.9404L53.6824 48.8256Z" fill="#CFDFFF"/>
<path d="M70.0481 13.8368L66.1628 9.95147C64.5602 8.34886 61.9376 8.34886 60.335 9.95147L55.4785 14.808L59.3636 20.6358L65.1913 24.5209L70.0479 19.6644C71.6507 18.0619 71.6507 15.4394 70.0481 13.8368Z" fill="#137FEB"/>
<path d="M51.8588 18.4277L15.5556 54.7309L18.463 61.5365L58.658 23.2843L51.8588 18.4277Z" fill="#7DB9F4"/>
<path d="M57.6867 22.313L18.463 61.5365L25.2686 64.4439L61.5718 28.1409L57.6867 22.313Z" fill="#137FEB"/>
<path d="M8.75 71.2497L15.6301 68.4167L14.5777 65.422L11.583 64.3696L8.75 71.2497Z" fill="#6E5147"/>
<path d="M25.2686 64.444C25.0377 63.5844 24.5729 62.7536 23.8773 62.058C22.6272 60.8079 20.9415 60.3004 19.4343 60.5653C19.6991 59.0581 19.1917 57.3724 17.9416 56.1223C17.246 55.4267 16.4152 54.9619 15.5556 54.731L15.549 54.7376L11.5828 64.3695L15.6299 68.4166L25.2619 64.4504L25.2686 64.444Z" fill="#FAEEC4"/>
<path d="M55.478 14.8081L51.8584 18.4277L61.5713 28.1406L65.1909 24.521L55.478 14.8081Z" fill="#E5EDFF"/>
</svg>
