<svg width="80" height="80" viewBox="0 0 80 80" fill="none" xmlns="http://www.w3.org/2000/svg">
<path d="M40.0097 69.2964C39.4726 69.3647 38.9746 68.9839 38.9062 68.4468C37.7148 59.1011 37.539 49.6089 38.3887 40.2241L39.0332 33.0757L40.9765 33.2515L40.332 40.3999C39.5019 49.6479 39.6679 59.0034 40.8496 68.2124C40.918 68.7397 40.5469 69.228 40.0195 69.2964H40.0097Z" fill="#3E8D28"/>
<path d="M36.0742 69.2964C35.5469 69.3062 35.1074 68.896 35.0781 68.3687C34.7852 63.7397 33.3203 59.3647 30.9082 55.9565C29.707 54.2866 28.3691 52.7437 26.9141 51.3862L24.6191 49.2378L25.957 47.812L28.252 49.9604C29.7949 51.4058 31.2207 53.0366 32.5 54.8237C35.1367 58.5347 36.7285 63.2808 37.0312 68.271C37.0605 68.8179 36.6211 69.2769 36.0742 69.2964Z" fill="#3E8D28"/>
<path d="M54.0137 58.5251C53.7891 58.0271 53.3105 57.7048 52.7539 57.6853L48.9648 57.5779C47.6855 57.5583 46.4355 57.9294 45.4394 58.6716L45.2051 58.8474C44.0234 59.7166 43.5937 61.2009 44.1308 62.5388L44.1699 62.6365C44.6582 63.8376 45.8789 64.6287 47.2266 64.6287H47.3144C48.8965 64.5896 50.3809 63.906 51.3769 62.7634L53.7891 59.9802C54.1406 59.5798 54.2187 59.033 54.0039 58.5447L54.0137 58.5251Z" fill="#4CAB30"/>
<path d="M48.1738 47.5874L45.5566 44.9898C45.1758 44.6187 44.6387 44.4917 44.1406 44.6773C43.6231 44.8628 43.2715 45.3218 43.2129 45.8785L42.8516 49.648C42.7246 50.9175 43.0273 52.1968 43.7012 53.2417L43.8574 53.4859C44.4629 54.4331 45.4395 54.9605 46.4844 54.9605C46.8066 54.9605 47.1387 54.9117 47.4609 54.8042L47.5586 54.7749C48.8184 54.3648 49.6973 53.1538 49.7559 51.7671C49.8242 50.1851 49.2481 48.6617 48.1641 47.5874H48.1738Z" fill="#4CAB30"/>
<path d="M56.3184 46.5522L54.9414 45.1753L50.6738 49.4429C49.7461 50.3706 48.9062 51.3667 48.1152 52.3921L47.168 50.273C46.9238 49.7358 46.3379 49.5112 45.8594 49.7847C45.3809 50.0581 45.1855 50.7124 45.4199 51.2495L46.7773 54.2866C44.6094 57.6655 43.1445 61.4546 42.5293 65.5073L42.1191 68.1831C42.041 68.7202 42.4023 69.2183 42.9394 69.2964C43.4766 69.3745 43.9746 69.0132 44.0527 68.4761L44.4629 65.8003C44.5898 64.9702 44.7656 64.1597 44.9609 63.3491L48.1445 62.0894C48.7305 61.855 49.0137 61.1909 48.7793 60.605C48.5449 60.019 47.8809 59.7358 47.2949 59.9702L45.8301 60.5562C47.168 56.9233 49.2578 53.6128 52.0508 50.8198L56.3184 46.5522Z" fill="#3E8D28"/>
<path d="M54.5801 21.1617C54.0137 20.5367 52.3535 19.1109 49.2676 19.5504C51.0352 16.982 50.4785 14.8531 50.166 14.0719C49.2285 11.6988 46.5918 10.2926 44.0332 10.8199C43.1739 10.9957 40.9864 11.7184 39.7657 14.6578C38.4473 11.9332 36.3282 11.3473 35.4981 11.2301C32.8614 10.8492 30.166 12.5191 29.3555 15.0484C29.1016 15.8492 28.6817 18.0074 30.5469 20.3902C27.3633 20.1754 25.752 21.8258 25.2149 22.5191C23.6231 24.5797 23.711 27.568 25.4297 29.4527C25.9961 30.0777 27.666 31.5133 30.7422 31.0641C28.9746 33.6324 29.5313 35.7613 29.8438 36.5426C30.6543 38.5836 32.7149 39.902 34.9024 39.902C35.2539 39.902 35.6153 39.8629 35.9668 39.7945C36.8262 39.6188 39.0137 38.8961 40.2344 35.9566C41.5528 38.6813 43.6719 39.2672 44.502 39.3844C47.1289 39.7652 49.834 38.0953 50.6446 35.566C50.8985 34.7652 51.3184 32.607 49.4532 30.2242C52.6367 30.4488 54.2481 28.7887 54.7852 28.0953C56.377 26.0348 56.2891 23.0465 54.5703 21.1617H54.5801Z" fill="#FEDA50"/>
<path d="M40 28.2319C41.618 28.2319 42.9297 26.9203 42.9297 25.3022C42.9297 23.6842 41.618 22.3726 40 22.3726C38.382 22.3726 37.0703 23.6842 37.0703 25.3022C37.0703 26.9203 38.382 28.2319 40 28.2319Z" fill="white"/>
<path d="M26.8066 40.5852L21.0059 33.5247C20.7617 33.2317 20.3809 33.1047 20.0098 33.2024C19.6387 33.3001 19.3652 33.593 19.2871 33.9641L18.7207 36.9329L15.6836 35.009C15.332 34.7844 14.8633 34.8137 14.541 35.0774C14.2188 35.3508 14.1016 35.7903 14.248 36.1907L15.8398 40.2727L12.8223 39.7063C12.4121 39.6282 12.0117 39.8137 11.8066 40.1653C11.6016 40.5168 11.6309 40.9661 11.8945 41.2786L17.0508 47.5579L17.6953 48.3391C18.7305 49.5989 20.1855 50.3704 21.7871 50.5168C21.9629 50.5364 22.1289 50.5364 22.3047 50.5364C23.7012 50.5364 25.0293 50.0481 26.1035 49.1204C28.5938 46.9817 28.9062 43.1438 26.7969 40.5754L26.8066 40.5852Z" fill="#59C939"/>
<path d="M66.4941 43.0269C65.9375 42.3238 65.0977 41.9625 64.1797 41.9527C64.3652 41.0347 64.1797 40.1363 63.6426 39.4722C63.1152 38.8082 62.2754 38.4273 61.3379 38.4078C61.5234 37.5093 61.3574 36.6207 60.791 35.9175C59.6484 34.4917 57.3731 34.482 55.6152 35.8882C54.4922 36.7867 53.6719 38.4468 53.2031 39.3941C52.3535 41.1128 52.3926 44.1695 54.4922 46.7964C56.416 49.1988 58.291 49.775 60.0586 49.775C60.4785 49.775 60.8984 49.7457 61.3086 49.6968C61.6699 49.6578 64.1895 49.0425 65.3711 48.0953C67.1387 46.689 67.627 44.4625 66.4844 43.0367L66.4941 43.0269Z" fill="#A4E192"/>
</svg>
