<svg width="80" height="80" viewBox="0 0 80 80" fill="none" xmlns="http://www.w3.org/2000/svg">
<path d="M50.6938 25.1443C50.5948 25.0331 50.4892 24.9292 50.3704 24.8402C49.3608 24.0393 46.4045 23.0753 44.8669 23.0679C43.0391 23.0679 41.0264 24.1951 39.535 24.9515C39.2051 25.1146 38.8883 25.3 38.5716 25.4928C38.0965 25.9304 37.7797 26.3827 37.6939 27.0427C37.6544 27.3468 37.7335 27.6657 37.6939 27.9771C37.6082 28.6668 37.0934 29.3713 37.0934 30.061C37.0934 31.3068 39.4361 32.0707 40.9472 32.2635C42.6233 32.4785 44.2994 31.8704 45.8238 31.4255C47.137 31.0473 48.7405 30.7136 49.8953 30.1203C51.3801 29.3565 51.3603 28.3924 51.2085 27.1836C51.1227 26.5088 50.9577 25.8191 50.6938 25.1517V25.1443Z" fill="#AAAAAA"/>
<path d="M61.4346 31.1833C62.2265 30.8589 62.8271 30.2029 63.5332 29.7487C64.279 29.2729 65.7705 28.9846 66.2192 28.1699C66.8858 26.9732 65.9685 24.2266 65.7243 22.965C64.9257 18.8486 59.2832 19.9371 56.2936 19.5479C54.9209 19.5479 54.3863 21.6962 53.4822 22.7271C51.8785 24.5582 50.8292 25.654 52.5913 27.8816C53.5746 29.1215 55.1057 30.8806 56.4322 31.2915C57.9765 31.7745 59.9233 31.7961 61.4412 31.1761L61.4346 31.1833Z" fill="#A3A3A3"/>
<path d="M49.8531 42.9058C48.9589 43.2442 48.1315 42.7587 47.7579 45.032C47.5177 46.496 47.898 48.0115 48.0715 49.5638C48.1516 49.9169 48.2316 50.2627 48.3117 50.6158C49.0724 52.3741 49.9798 51.5796 50.9073 50.7482C52.2218 49.5638 54.1301 47.857 55.091 44.929C55.3045 43.9505 55.3712 43.0088 55.051 42.1113C53.5163 40.1985 51.4144 42.3173 49.8531 42.9058Z" fill="#A3A3A3"/>
<path d="M56.108 56.0706C54.4262 58.5143 53.954 63.731 55.7659 65.8099C55.8397 65.8921 55.9152 65.9619 55.9963 66.0327C56.2821 66.2274 56.6019 66.3841 56.9614 66.5035C57.8467 66.6961 58.9004 66.4334 59.8832 66.108C60.8751 65.4822 61.7958 64.4788 62.8886 63.7069C65.4191 61.9088 66.3684 61.6971 67.9638 57.9922C69.2163 55.0832 70.0998 54.0607 68.1722 51.5965C67.7338 51.0352 67.1782 50.4158 66.5762 49.9203C64.7761 49.7 63.0386 51.0641 61.1107 52.483C59.4252 53.7239 57.5156 54.0258 56.108 56.0706Z" fill="#AAAAAA"/>
<path d="M34.9647 60.5784C34.3961 66.3044 37.4375 68.1985 41.3583 64.5201C43.5401 62.4724 43.6261 60.9587 44.8427 57.9165C45.603 56.0151 46.9716 54.3405 47.4808 52.3221C46.3634 50.1136 39.5929 47.2396 37.6491 48.8265C34.9713 51.0131 35.2688 57.5143 34.9647 60.5857V60.5784Z" fill="#A3A3A3"/>
<path d="M58.9555 34.4154C55.6031 32.3798 54.0579 38.177 56.2637 40.2326C57.4121 39.9362 58.3752 41.0703 59.428 41.6817C61.1668 42.6909 62.9649 43.5418 64.7343 44.5287C68.4205 46.5843 71.575 44.0598 68.0955 40.4206C65.8324 38.0546 61.7083 36.0834 58.9555 34.4154Z" fill="#AAAAAA"/>
<path d="M44.0273 14.1951C41.5764 12.5796 39.4898 16.7202 41.0001 18.2993C41.9805 18.1319 42.6097 18.9906 43.3781 19.4782C44.6566 20.2786 46.0013 20.9772 47.3062 21.7631C50.0287 23.4077 52.9565 21.7049 50.6315 18.9251C49.1212 17.1132 46.0278 15.5195 44.0207 14.1951H44.0273Z" fill="#DDDDDD"/>
<path d="M49.8246 31.1728C48.2136 31.5156 47.5745 32.2376 46.323 33.4045C43.7666 35.7748 40.711 38.043 44.3857 40.6685C44.3857 40.6685 45.0048 40.4643 47.2483 38.9036C48.7994 37.8242 53.4195 35.1695 53.4728 32.7846C53.5194 30.6477 51.236 30.881 49.8313 31.1801L49.8246 31.1728Z" fill="#C3C3C3"/>
<path d="M52.1763 40.6685C53.9025 40.6685 53.9092 37.5884 52.1763 37.5884C50.4434 37.5884 50.4434 40.6685 52.1763 40.6685Z" fill="#C3C3C3"/>
<path d="M47.7826 65.3087C50.8367 65.3087 50.8485 59.8086 47.7826 59.8086C44.7167 59.8086 44.7167 65.3087 47.7826 65.3087Z" fill="#C3C3C3"/>
<path d="M67.3587 35.3883C70.4128 35.3883 70.4246 29.8882 67.3587 29.8882C64.2929 29.8882 64.2929 35.3883 67.3587 35.3883Z" fill="#DDDDDD"/>
<path d="M43.6695 42.6493C42.8658 42.6849 42.389 43.2763 42.3072 44.0743C42.2323 44.7868 42.3753 45.5349 42.5933 46.2118C42.8249 46.9172 43.5401 47.4516 44.269 47.2093C44.9365 46.9813 45.4678 46.2118 45.2226 45.4566C45.1408 45.1929 45.0795 44.9364 45.0182 44.6657C45.0182 44.6158 45.0114 44.5659 45.0114 44.5089C45.0114 44.3593 45.0114 44.2168 45.0318 44.0743C45.1068 43.3333 44.3507 42.6208 43.6695 42.6493Z" fill="#DDDDDD"/>
<path d="M55.4919 15.4861C55.1971 14.6617 54.5333 14.3602 53.8221 14.5375C53.1865 14.6938 52.592 15.0885 52.0832 15.5377C51.5545 16.0105 51.3313 16.9301 51.7786 17.6086C52.1936 18.228 53.0281 18.5276 53.5951 18.0243C53.7943 17.8526 53.9941 17.7045 54.2061 17.5518C54.2489 17.5354 54.2894 17.5119 54.3383 17.4932C54.4666 17.444 54.5888 17.3971 54.7177 17.3715C55.3778 17.2059 55.7402 16.1852 55.4919 15.4861Z" fill="#AAAAAA"/>
<path d="M33.2101 56.6638C32.8563 52.7769 31.7094 48.9772 30.2057 45.5075C28.0497 40.5266 23.1487 43.2272 19.5983 43.6965C18.3985 43.8554 12.4155 45.3069 11.6064 46.3948C10.5595 47.8043 10.8122 51.089 11.5384 52.6519C12.3039 54.2983 14.6432 55.8935 15.7433 57.2201C17.5036 59.3348 19.4047 61.6108 21.3106 63.6186C22.7659 65.1555 23.801 66.176 25.3635 66.3726C28.042 66.4492 30.8823 65.1759 32.4364 62.9596C33.3905 61.601 33.3829 59.1097 33.2123 56.6706L33.2101 56.6638Z" fill="#DDDDDD"/>
<path d="M23.2401 29.325C23.129 29.1825 23.0178 29.0484 22.9152 28.9479C20.624 26.6933 13.0323 27.6069 11.4165 30.557C10.2538 32.6859 12.8186 40.5306 14.7507 41.3939C15.1611 41.5783 15.8194 41.5783 16.5461 41.4944C17.5378 40.9581 18.5808 40.5055 19.6922 40.2289C21.479 39.7847 25.3518 40.648 26.5401 38.7538C27.2924 37.5469 26.788 35.7953 25.8989 33.9849C24.8132 32.8619 24.0266 31.3784 23.5137 29.7944C23.4196 29.6351 23.3341 29.4759 23.2487 29.325H23.2401Z" fill="#AAAAAA"/>
<path d="M36.9467 19.852C36.2736 18.6697 34.5357 13.6756 33.3904 13.3498C31.563 12.6675 27.4724 14.0902 26.1007 15.0903C25.1642 15.7698 22.4954 18.4574 22.2933 19.5213C21.9441 21.3633 25.491 30.1714 27.2202 31.3652C29.4178 32.888 30.9975 31.2054 32.7946 29.9379C34.8533 28.4811 35.3935 27.6515 36.4515 25.4973C37.5563 23.2472 38.4754 22.5037 36.9555 19.8484L36.9467 19.852Z" fill="#A3A3A3"/>
<path d="M32.8428 33.8433C32.2554 33.4525 31.6944 33.6369 31.3182 34.0498C30.9091 34.035 30.4933 34.2415 30.2227 34.765C29.6155 35.93 28.7972 37.2868 29.2196 38.6951C29.4175 39.3661 29.9257 39.8454 30.4735 40.1625C30.9157 40.4205 31.5624 40.5385 31.9452 40.9146C32.5392 41.5044 33.6149 41.5118 34.0175 40.6196C34.8754 38.7172 34.6379 35.0305 32.8428 33.8507V33.8433Z" fill="#C3C3C3"/>
<path d="M59.8099 43.3038C59.2225 42.913 58.6615 43.0973 58.2853 43.5102C57.8762 43.4955 57.4604 43.7019 57.1898 44.2255C56.5826 45.3905 55.7643 46.7472 56.1867 48.1556C56.3847 48.8266 56.8928 49.3058 57.4406 49.6229C57.8828 49.881 58.5295 49.999 58.9123 50.375C59.5063 50.9649 60.582 50.9723 60.9846 50.0801C61.8425 48.1777 61.605 44.4909 59.8099 43.3112V43.3038Z" fill="#DDDDDD"/>
<path d="M17.0808 13.7323C16.1453 13.1071 15.2519 13.402 14.6528 14.0627C14.0012 14.0391 13.339 14.3694 12.9081 15.207C11.9411 17.0711 10.6378 19.2418 11.3105 21.4952C11.6258 22.5688 12.4351 23.3356 13.3075 23.8429C14.0117 24.2558 15.0417 24.4446 15.6513 25.0463C16.5973 25.9901 18.3105 26.0019 18.9516 24.5744C20.318 21.5306 19.9396 15.6318 17.0808 13.7441V13.7323Z" fill="#C3C3C3"/>
<path d="M12.9237 59.3102C11.9803 60.9003 13.369 65.0555 14.7338 65.822C15.9835 66.5213 17.692 66.0416 19.019 65.9021C19.0122 64.3442 16.7644 62.1324 16.0214 60.8954C15.2292 59.5774 14.172 57.2032 12.9237 59.3102Z" fill="#A3A3A3"/>
<path d="M33.7217 47.3366C33.4242 49.2029 35.9728 49.7341 36.2703 47.8604C36.5679 45.994 34.0193 45.4629 33.7217 47.3366Z" fill="#C3C3C3"/>
<path d="M48.3039 55.697C48.0063 57.5633 50.5549 58.0944 50.8525 56.2207C51.1501 54.3544 48.6015 53.8233 48.3039 55.697Z" fill="#C3C3C3"/>
<path d="M35.9273 37.5312C35.7072 39.9237 36.6674 42.2287 37.0542 44.5409C37.2809 45.905 38.7813 46.6344 39.9083 46.3134C40.3617 46.1821 40.7485 45.956 41.0886 45.657V33.4172C38.5879 33.3005 36.2273 34.2998 35.9339 37.5312H35.9273Z" fill="#A3A3A3"/>
<path d="M55.2871 49.3244C55.0493 49.5071 54.6585 49.5676 54.3785 49.7191C54.1826 49.8255 54.0202 49.9901 53.8273 50.0934C53.124 50.4679 52.9353 50.4159 52.6688 51.1603C52.5615 51.4569 52.504 51.7247 52.4283 52.0201C52.3807 52.2069 52.1453 52.6489 52.1928 52.8408C52.3066 53.3074 53.3752 53.5325 53.7572 53.5886C54.7818 53.732 56.9989 54.2983 57.2641 52.85C57.3711 52.2612 56.8292 51.5882 56.5745 51.0766C56.2485 50.4188 55.9755 49.7379 55.2871 49.3244Z" fill="#A3A3A3"/>
<path d="M65.2664 14.9783C64.1616 14.7378 62.8969 15.4534 61.8777 15.8375C62.143 16.9658 64.2878 18.0854 65.081 18.8186C65.9302 19.6075 67.1599 21.0975 67.7935 19.2977C68.2658 17.951 66.4711 15.2408 65.2664 14.9783Z" fill="#C3C3C3"/>
</svg>
