<svg width="512" height="512" viewBox="0 0 512 512" fill="none" xmlns="http://www.w3.org/2000/svg">
<path d="M291.463 423.147H108.537L130.488 392.415H269.512L291.463 423.147Z" fill="#919CB3"/>
<path d="M181.707 363.146H218.293V407.048H181.707V363.146Z" fill="#B0BED9"/>
<path d="M380 363.146H20L65.3659 129H334.634L380 363.146Z" fill="#E5EDFF"/>
<path d="M37.9269 348.512L77.5766 143.634H322.423L362.073 348.512H37.9269Z" fill="#CFDFFF"/>
<path d="M349.327 282.658L346.495 268.024H284.744L279.256 209.487H335.168L332.336 194.853H277.885L273.083 143.634H258.449L263.251 194.853H207.317V143.634H192.683V194.853H136.756L141.558 143.634H126.924L122.122 194.853H67.6632L64.8315 209.487H120.75L115.262 268.024H53.5047L50.673 282.658H113.89L107.716 348.512H122.35L128.524 282.658H192.683V348.512H207.317V282.658H271.482L277.656 348.512H292.29L286.116 282.658H349.327ZM129.896 268.024L135.384 209.487H192.683V268.024H129.896ZM207.317 268.024V209.487H264.622L270.11 268.024H207.317Z" fill="#E5EDFF"/>
<path d="M443.25 417V432L428.25 465.75H413.25L424.5 432L420.75 417" fill="#B18D04"/>
<path d="M387 417V435.75L377.133 465.75H362.133L368.25 435.75V417" fill="#B18D04"/>
<path d="M353.25 416.687V417.001V435.751L345.75 465.751H330.75L334.5 435.751L332.616 416.921" fill="#B18D04"/>
<path d="M466.969 415.252L473.25 432L462 465.75H447L454.5 432L443.25 417" fill="#B18D04"/>
<path d="M480.75 345.75V394.5C480.75 400.467 478.379 406.19 474.16 410.41C469.94 414.629 464.217 417 458.25 417H334.5C328.533 417 322.81 414.629 318.59 410.41C314.37 406.19 312 400.467 312 394.5C307.47 394.499 303.049 393.109 299.334 390.516C295.619 387.923 292.789 384.253 291.225 380.002C290.745 378.705 290.391 377.367 290.166 376.003L282 327H272.058C270.806 327 269.569 326.732 268.429 326.217C267.288 325.701 266.271 324.948 265.445 324.008C264.618 323.068 264.001 321.963 263.635 320.766C263.268 319.57 263.161 318.309 263.32 317.067C263.49 315.813 263.92 314.607 264.581 313.528L274.5 297C274.5 292.027 276.475 287.258 279.992 283.742C283.508 280.225 288.277 278.25 293.25 278.25H310.125C313.036 278.25 315.907 278.928 318.51 280.229C321.114 281.531 323.378 283.421 325.125 285.75L342 308.25H443.25C444.516 308.25 445.766 308.311 447 308.433C456.25 309.365 464.823 313.699 471.059 320.594C477.295 327.489 480.748 336.454 480.75 345.75Z" fill="#FFFAE6"/>
<path d="M480.75 345.75V394.5C480.75 400.467 478.379 406.19 474.16 410.41C469.94 414.629 464.217 417 458.25 417H334.5C328.533 417 322.81 414.629 318.59 410.41C314.371 406.19 312 400.467 312 394.5C307.47 394.499 303.049 393.108 299.334 390.516C295.619 387.923 292.789 384.253 291.225 380.001C348.487 375.825 407.152 356.278 447 308.433C456.25 309.365 464.823 313.699 471.059 320.594C477.295 327.489 480.748 336.453 480.75 345.75Z" fill="#FFF2C0"/>
<path d="M300.75 297H274.5L264.505 313.657C263.684 315.027 263.25 316.594 263.25 318.19C263.25 320.527 264.178 322.768 265.83 324.42C267.482 326.072 269.723 327 272.06 327H285.75C289.728 327 293.544 325.42 296.357 322.607C299.17 319.794 300.75 315.978 300.75 312H304.5C306.489 312 308.397 311.21 309.803 309.803C311.21 308.397 312 306.489 312 304.5C312 302.511 311.21 300.603 309.803 299.197C308.397 297.79 306.489 297 304.5 297H300.75Z" fill="#B18D04"/>
<path d="M443.25 420.75C436.29 420.742 429.618 417.974 424.697 413.053C419.776 408.132 417.008 401.46 417 394.5C417 393.505 417.395 392.552 418.098 391.848C418.802 391.145 419.755 390.75 420.75 390.75C421.745 390.75 422.698 391.145 423.402 391.848C424.105 392.552 424.5 393.505 424.5 394.5C424.506 399.471 426.483 404.237 429.998 407.752C433.513 411.267 438.279 413.244 443.25 413.25C444.245 413.25 445.198 413.645 445.902 414.348C446.605 415.052 447 416.005 447 417C447 417.995 446.605 418.948 445.902 419.652C445.198 420.355 444.245 420.75 443.25 420.75Z" fill="#FEE275"/>
<path d="M349.5 420.75C348.505 420.75 347.552 420.355 346.848 419.652C346.145 418.948 345.75 417.995 345.75 417C345.75 416.005 346.145 415.052 346.848 414.348C347.552 413.645 348.505 413.25 349.5 413.25C354.471 413.244 359.237 411.267 362.752 407.752C366.267 404.237 368.244 399.471 368.25 394.5C368.25 393.505 368.645 392.552 369.348 391.848C370.052 391.145 371.005 390.75 372 390.75C372.995 390.75 373.948 391.145 374.652 391.848C375.355 392.552 375.75 393.505 375.75 394.5C375.742 401.46 372.974 408.132 368.053 413.053C363.132 417.974 356.459 420.742 349.5 420.75Z" fill="#FEE275"/>
</svg>
