<svg width="512" height="512" viewBox="0 0 512 512" fill="none" xmlns="http://www.w3.org/2000/svg">
<path d="M227.857 186.285H113.571C105.679 186.285 99.2857 179.892 99.2857 172C99.2857 164.107 105.679 157.714 113.571 157.714H227.857C235.75 157.714 242.143 164.107 242.143 172C242.143 179.892 235.75 186.285 227.857 186.285Z" fill="#FDC0CD"/>
<path d="M113.571 186.286H227.857V472H113.571V186.286Z" fill="#FB7492"/>
<path d="M399.286 243.429H285C277.107 243.429 270.714 237.036 270.714 229.143C270.714 221.25 277.107 214.857 285 214.857H399.286C407.179 214.857 413.571 221.25 413.571 229.143C413.571 237.036 407.179 243.429 399.286 243.429Z" fill="#FDC0CD"/>
<path d="M285 243.429H399.286V472H285V243.429Z" fill="#FB7492"/>
<path d="M113.571 243.429H227.857V300.572H113.571V243.429Z" fill="#FC9AAF"/>
<path d="M113.571 357.714H227.857V414.857H113.571V357.714Z" fill="#FC9AAF"/>
<path d="M285 300.571H399.286V357.714H285V300.571Z" fill="#FC9AAF"/>
<path d="M285 414.857H399.286V472H285V414.857Z" fill="#FC9AAF"/>
<path d="M427.857 114.857C427.857 106.964 421.464 100.571 413.571 100.571C405.679 100.571 399.286 94.1786 399.286 86.2857C399.286 78.3929 392.893 72 385 72H185C177.107 72 170.714 78.3929 170.714 86.2857C170.714 94.1786 164.321 100.571 156.429 100.571H99.2857C91.3929 100.571 85 106.964 85 114.857C85 122.75 91.3929 129.143 99.2857 129.143H270.714C278.607 129.143 285 135.536 285 143.429C285 151.321 278.607 157.714 270.714 157.714C262.821 157.714 256.429 164.107 256.429 172C256.429 179.893 262.821 186.286 270.714 186.286H299.286C307.179 186.286 313.571 192.679 313.571 200.571V214.857H370.714V200.571C370.714 192.679 377.107 186.286 385 186.286C392.893 186.286 399.286 179.893 399.286 172C399.286 164.107 392.893 157.714 385 157.714C377.107 157.714 370.714 151.321 370.714 143.429C370.714 135.536 377.107 129.143 385 129.143H413.571C421.464 129.143 427.857 122.75 427.857 114.857Z" fill="#CFDFFF"/>
</svg>
