<svg width="512" height="512" viewBox="0 0 512 512" fill="none" xmlns="http://www.w3.org/2000/svg">
<rect x="40" y="268" width="432" height="204" fill="#E5EDFF"/>
<path d="M320 444C293.532 444 272 422.467 272 396V332C272 323.178 264.822 316 256 316V284C282.468 284 304 305.533 304 332V396C304 404.822 311.178 412 320 412C328.822 412 336 404.822 336 396V268H368V396C368 422.467 346.468 444 320 444Z" fill="#D46C04"/>
<path d="M192 444C165.533 444 144 422.467 144 396V268H176V396C176 404.822 183.178 412 192 412C200.822 412 208 404.822 208 396V332C208 305.533 229.533 284 256 284V316C247.178 316 240 323.178 240 332V396C240 422.467 218.467 444 192 444Z" fill="#F97F05"/>
<path d="M176 300H144C135.163 300 128 292.837 128 284V268H192V284C192 292.837 184.837 300 176 300Z" fill="#FBA550"/>
<path d="M368 300H336C327.163 300 320 292.837 320 284V268H384V284C384 292.837 376.837 300 368 300Z" fill="#F97F05"/>
<path d="M311.862 143.862V268H76V143.862L156.69 105.643L193.931 88L231.172 105.643L311.862 143.862Z" fill="#B0BED9"/>
<path d="M436 224.552V268H224.966V224.552L305.655 191.329L330.483 181.104L355.31 191.329L436 224.552Z" fill="#CFDFFF"/>
</svg>
