<svg width="512" height="512" viewBox="0 0 512 512" fill="none" xmlns="http://www.w3.org/2000/svg">
<g clip-path="url(#clip0_129_121)">
<path d="M74.0019 366.706H91.4047C91.2113 365.815 91.0132 364.954 90.8002 364.094C88.2205 353.449 84.537 344.722 80.4747 337.746C69.7179 319.189 56.0478 314.089 54.2451 315.942C52.4424 317.795 61.0454 333.728 64.8732 358.974C65.5707 363.577 69.2522 366.706 74.0019 366.706Z" fill="#CDF25A"/>
<path d="M96.808 366.706H115.085C119.269 366.706 122.478 363.919 122.932 359.908C126.04 332.464 136.816 315.63 134.232 313.839C131.647 312.049 118.469 317.244 107.751 335.96C103.334 343.685 99.4015 353.524 97.0091 365.704C96.9367 366.029 96.8663 366.367 96.808 366.706Z" fill="#CDF25A"/>
<path d="M77.2742 366.706H110.419C108.918 355.277 108.774 345.048 109.343 335.995C111.202 306.271 119.039 286.051 116.108 284.176C113.176 282.301 92.9619 295.28 82.9766 329.605C80.0659 339.583 77.989 351.225 77.3628 364.542C77.3283 365.255 77.2938 365.969 77.2742 366.706Z" fill="#CDF25A"/>
<rect x="40" y="359" width="430" height="94" fill="#B8EC13"/>
<path d="M453.265 359C454.789 359 456.23 358.318 457.218 357.155C465.188 347.785 470 335.636 470 322.356C470 303.872 460.679 287.58 446.499 277.921C444.767 276.741 443.909 274.666 444.302 272.604C447.516 255.722 442.617 237.593 429.58 224.524C416.545 211.455 398.463 206.542 381.624 209.764C379.567 210.158 377.497 209.298 376.32 207.562C366.686 193.345 350.436 184 332 184C313.564 184 297.314 193.345 287.68 207.562C286.503 209.298 284.433 210.158 282.376 209.764C265.537 206.542 247.455 211.454 234.42 224.524C221.384 237.593 216.484 255.722 219.698 272.604C220.091 274.666 219.233 276.741 217.501 277.921C203.321 287.58 194 303.872 194 322.356C194 335.636 198.812 347.785 206.782 357.155C207.771 358.318 209.211 359 210.735 359H453.265Z" fill="#E3F7A1"/>
<path d="M193.611 209H183.299C181.414 209 179.885 210.529 179.885 212.414V300.59C179.885 302.475 181.414 304.004 183.299 304.004H193.611C195.496 304.004 197.025 302.475 197.025 300.59V212.414C197.025 210.529 195.497 209 193.611 209Z" fill="#65820A"/>
<path d="M333.067 300.59V212.414C333.067 210.529 331.539 209 329.653 209H319.342C317.457 209 315.928 210.529 315.928 212.414V300.59C315.928 302.475 317.457 304.004 319.342 304.004H329.653C331.539 304.004 333.067 302.475 333.067 300.59Z" fill="#65820A"/>
<path d="M179.389 311.319H166.745C164.86 311.319 163.331 312.848 163.331 314.733V356.156C163.331 358.041 164.86 359.57 166.745 359.57H179.389C181.275 359.57 182.803 358.041 182.803 356.156V314.733C182.803 312.848 181.275 311.319 179.389 311.319Z" fill="#65820A"/>
<path d="M346.208 311.319H333.564C331.679 311.319 330.15 312.848 330.15 314.733V356.156C330.15 358.041 331.679 359.57 333.564 359.57H346.208C348.093 359.57 349.622 358.041 349.622 356.156V314.733C349.622 312.848 348.093 311.319 346.208 311.319Z" fill="#65820A"/>
<path d="M170.636 250.56H342.317C344.203 250.56 345.731 249.032 345.731 247.147V224.171C345.731 222.285 344.203 220.757 342.317 220.757H170.636C168.751 220.757 167.222 222.285 167.222 224.171V247.147C167.222 249.032 168.75 250.56 170.636 250.56Z" fill="#81A50D"/>
<path d="M170.636 289.666H342.317C344.203 289.666 345.731 288.137 345.731 286.252V263.276C345.731 261.391 344.203 259.862 342.317 259.862H170.636C168.751 259.862 167.222 261.391 167.222 263.276V286.252C167.222 288.137 168.75 289.666 170.636 289.666Z" fill="#81A50D"/>
<path d="M352.54 297.176H160.414C158.529 297.176 157 298.704 157 300.59V314.733C157 316.619 158.529 318.147 160.414 318.147H352.54C354.425 318.147 355.954 316.619 355.954 314.733V300.59C355.954 298.704 354.425 297.176 352.54 297.176Z" fill="#81A50D"/>
</g>
<defs>
<clipPath id="clip0_129_121">
<rect width="430" height="269" fill="white" transform="translate(40 184)"/>
</clipPath>
</defs>
</svg>
