<svg width="512" height="512" viewBox="0 0 512 512" fill="none" xmlns="http://www.w3.org/2000/svg">
<rect width="20.263" height="160.415" rx="8" transform="matrix(-1 0 0 1 216.896 202.948)" fill="#A4E192"/>
<path d="M148.592 191.254C150.853 188.108 151.395 184.073 150.161 180.397C148.132 174.351 147.031 167.877 147.031 161.145C147.031 145.289 153.13 130.862 163.102 120.093C165.749 117.235 166.749 113.24 165.957 109.421C165.249 106.004 164.952 102.436 165.125 98.7699C166.166 76.7236 184.296 59.038 206.297 58.5834C229.96 58.0938 249.296 77.1866 249.296 100.81C249.296 103.836 248.976 106.787 248.372 109.632C247.577 113.374 248.678 117.294 251.274 120.097C261.244 130.865 267.343 145.291 267.343 161.146C267.343 167.878 266.242 174.352 264.212 180.398C262.975 184.083 263.533 188.124 265.799 191.279C274.337 203.167 279.369 217.757 279.374 233.526C279.386 272.925 247.533 305.374 208.255 305.944C167.898 306.529 135 273.892 135 233.548C135 217.76 140.039 203.152 148.592 191.254Z" fill="#A4E192"/>
<rect width="27.0173" height="160.415" rx="8" transform="matrix(-1 0 0 1 126.872 211.391)" fill="#8BD974"/>
<path d="M48.8629 184.001C51.3356 180.587 51.9282 176.208 50.5795 172.219C48.3602 165.657 47.156 158.63 47.156 151.323C47.156 134.114 53.8252 118.456 64.7313 106.769C67.626 103.667 68.7187 99.3308 67.8533 95.1852C67.079 91.4766 66.7547 87.6046 66.9442 83.6256C68.0818 59.698 87.909 40.5039 111.968 40.01C137.845 39.4791 158.99 60.2004 158.99 85.8387C158.99 89.1234 158.641 92.3264 157.98 95.4147C157.11 99.4753 158.314 103.73 161.153 106.772C172.057 118.459 178.726 134.115 178.726 151.323C178.726 158.63 177.522 165.657 175.302 172.219C173.95 176.219 174.56 180.603 177.038 184.028C186.374 196.93 191.877 212.765 191.882 229.879C191.895 272.641 157.063 307.858 114.11 308.476C69.9769 309.111 34 273.69 34 229.903C33.9987 212.769 39.51 196.915 48.8629 184.001Z" fill="#8BD974"/>
<rect x="40" y="359" width="430" height="94" fill="#59C939"/>
<path d="M193.611 209H183.299C181.414 209 179.885 210.529 179.885 212.414V300.59C179.885 302.475 181.414 304.004 183.299 304.004H193.611C195.496 304.004 197.025 302.475 197.025 300.59V212.414C197.025 210.529 195.497 209 193.611 209Z" fill="#3E8D28"/>
<path d="M333.067 300.59V212.414C333.067 210.529 331.539 209 329.653 209H319.342C317.457 209 315.928 210.529 315.928 212.414V300.59C315.928 302.475 317.457 304.004 319.342 304.004H329.653C331.539 304.004 333.067 302.475 333.067 300.59Z" fill="#3E8D28"/>
<path d="M179.389 311.319H166.745C164.86 311.319 163.331 312.848 163.331 314.733V356.156C163.331 358.041 164.86 359.57 166.745 359.57H179.389C181.275 359.57 182.803 358.041 182.803 356.156V314.733C182.803 312.848 181.275 311.319 179.389 311.319Z" fill="#3E8D28"/>
<path d="M346.208 311.319H333.564C331.679 311.319 330.15 312.848 330.15 314.733V356.156C330.15 358.041 331.679 359.57 333.564 359.57H346.208C348.093 359.57 349.622 358.041 349.622 356.156V314.733C349.622 312.848 348.093 311.319 346.208 311.319Z" fill="#3E8D28"/>
<path d="M170.636 250.56H342.317C344.203 250.56 345.731 249.032 345.731 247.147V224.171C345.731 222.285 344.203 220.757 342.317 220.757H170.636C168.751 220.757 167.222 222.285 167.222 224.171V247.147C167.222 249.032 168.75 250.56 170.636 250.56Z" fill="#4CAB30"/>
<path d="M170.636 289.666H342.317C344.203 289.666 345.731 288.137 345.731 286.252V263.276C345.731 261.391 344.203 259.862 342.317 259.862H170.636C168.751 259.862 167.222 261.391 167.222 263.276V286.252C167.222 288.137 168.75 289.666 170.636 289.666Z" fill="#4CAB30"/>
<path d="M352.54 297.176H160.414C158.529 297.176 157 298.704 157 300.59V314.733C157 316.619 158.529 318.147 160.414 318.147H352.54C354.425 318.147 355.954 316.619 355.954 314.733V300.59C355.954 298.704 354.425 297.176 352.54 297.176Z" fill="#4CAB30"/>
</svg>
