<svg width="512" height="512" viewBox="0 0 512 512" fill="none" xmlns="http://www.w3.org/2000/svg">
<rect width="20.263" height="160.415" rx="8" transform="matrix(-1 0 0 1 216.896 221.948)" fill="#A4E192"/>
<path d="M148.592 210.254C150.853 207.108 151.395 203.073 150.161 199.397C148.132 193.351 147.031 186.877 147.031 180.145C147.031 164.289 153.13 149.862 163.102 139.093C165.749 136.235 166.749 132.24 165.957 128.421C165.249 125.004 164.953 121.436 165.125 117.77C166.166 95.7236 184.296 78.038 206.297 77.5834C229.96 77.0938 249.296 96.1866 249.296 119.81C249.296 122.836 248.976 125.787 248.372 128.632C247.577 132.374 248.678 136.294 251.274 139.097C261.244 149.865 267.343 164.291 267.343 180.146C267.343 186.878 266.242 193.352 264.212 199.398C262.975 203.083 263.533 207.124 265.799 210.279C274.337 222.167 279.369 236.757 279.374 252.526C279.386 291.925 247.533 324.374 208.255 324.944C167.898 325.529 135 292.892 135 252.548C135 236.76 140.039 222.152 148.592 210.254Z" fill="#A4E192"/>
<rect width="27.0173" height="160.415" rx="8" transform="matrix(-1 0 0 1 126.872 230.391)" fill="#8BD974"/>
<path d="M48.8629 203.001C51.3356 199.587 51.9282 195.208 50.5795 191.219C48.3601 184.657 47.156 177.63 47.156 170.323C47.156 153.114 53.8252 137.456 64.7313 125.769C67.626 122.667 68.7187 118.331 67.8532 114.185C67.0789 110.477 66.7546 106.605 66.9441 102.626C68.0818 78.698 87.909 59.5039 111.968 59.01C137.845 58.4791 158.99 79.2004 158.99 104.839C158.99 108.123 158.641 111.326 157.98 114.415C157.11 118.475 158.314 122.73 161.153 125.772C172.057 137.459 178.726 153.115 178.726 170.323C178.726 177.63 177.522 184.657 175.302 191.219C173.95 195.219 174.56 199.603 177.038 203.028C186.374 215.93 191.877 231.765 191.882 248.879C191.895 291.641 157.063 326.858 114.11 327.476C69.9769 328.111 34 292.69 34 248.903C33.9987 231.769 39.51 215.915 48.8629 203.001Z" fill="#8BD974"/>
<rect x="40" y="378" width="430" height="94" fill="#59C939"/>
<path d="M193.611 228H183.299C181.414 228 179.885 229.529 179.885 231.414V319.59C179.885 321.475 181.414 323.004 183.299 323.004H193.611C195.496 323.004 197.025 321.475 197.025 319.59V231.414C197.025 229.529 195.497 228 193.611 228Z" fill="#3E8D28"/>
<path d="M333.067 319.59V231.414C333.067 229.529 331.539 228 329.653 228H319.342C317.457 228 315.928 229.529 315.928 231.414V319.59C315.928 321.475 317.457 323.004 319.342 323.004H329.653C331.539 323.004 333.067 321.475 333.067 319.59Z" fill="#3E8D28"/>
<path d="M179.389 330.319H166.745C164.86 330.319 163.331 331.848 163.331 333.733V375.156C163.331 377.041 164.86 378.57 166.745 378.57H179.389C181.275 378.57 182.803 377.041 182.803 375.156V333.733C182.803 331.848 181.275 330.319 179.389 330.319Z" fill="#3E8D28"/>
<path d="M346.208 330.319H333.564C331.679 330.319 330.15 331.848 330.15 333.733V375.156C330.15 377.041 331.679 378.57 333.564 378.57H346.208C348.093 378.57 349.622 377.041 349.622 375.156V333.733C349.622 331.848 348.093 330.319 346.208 330.319Z" fill="#3E8D28"/>
<path d="M170.636 269.56H342.317C344.203 269.56 345.731 268.032 345.731 266.147V243.171C345.731 241.285 344.203 239.757 342.317 239.757H170.636C168.751 239.757 167.222 241.285 167.222 243.171V266.147C167.222 268.032 168.75 269.56 170.636 269.56Z" fill="#4CAB30"/>
<path d="M170.636 308.666H342.317C344.203 308.666 345.731 307.138 345.731 305.252V282.277C345.731 280.391 344.203 278.863 342.317 278.863H170.636C168.751 278.863 167.222 280.391 167.222 282.277V305.252C167.222 307.138 168.75 308.666 170.636 308.666Z" fill="#4CAB30"/>
<path d="M352.54 316.175H160.414C158.529 316.175 157 317.704 157 319.589V333.733C157 335.618 158.529 337.147 160.414 337.147H352.54C354.425 337.147 355.954 335.618 355.954 333.733V319.589C355.954 317.704 354.425 316.175 352.54 316.175Z" fill="#4CAB30"/>
</svg>
