<svg width="512" height="512" viewBox="0 0 512 512" fill="none" xmlns="http://www.w3.org/2000/svg">
<path d="M74.0019 385.706H91.4047C91.2113 384.815 91.0132 383.955 90.8002 383.094C88.2205 372.45 84.537 363.722 80.4747 356.747C69.7179 338.189 56.0478 333.09 54.2451 334.943C52.4424 336.796 61.0455 352.729 64.8732 377.974C65.5707 382.577 69.2522 385.706 74.0019 385.706Z" fill="#CDF25A"/>
<path d="M96.808 385.706H115.085C119.269 385.706 122.478 382.92 122.932 378.909C126.04 351.464 136.816 334.631 134.232 332.84C131.647 331.049 118.469 336.245 107.751 354.961C103.334 362.685 99.4015 372.524 97.0091 384.705C96.9367 385.03 96.8663 385.368 96.808 385.706Z" fill="#CDF25A"/>
<path d="M77.2742 385.706H110.419C108.918 374.277 108.774 364.048 109.343 354.995C111.202 325.271 119.039 305.051 116.108 303.176C113.176 301.301 92.9619 314.28 82.9766 348.605C80.0659 358.583 77.989 370.225 77.3628 383.542C77.3283 384.255 77.2938 384.969 77.2742 385.706Z" fill="#CDF25A"/>
<rect x="40" y="378" width="430" height="94" fill="#B8EC13"/>
<path d="M453.265 378C454.789 378 456.23 377.318 457.218 376.155C465.188 366.785 470 354.636 470 341.356C470 322.872 460.679 306.58 446.499 296.921C444.767 295.741 443.909 293.666 444.302 291.604C447.516 274.722 442.617 256.593 429.58 243.524C416.545 230.455 398.463 225.542 381.624 228.764C379.567 229.158 377.497 228.298 376.32 226.562C366.686 212.345 350.436 203 332 203C313.564 203 297.314 212.345 287.68 226.562C286.503 228.298 284.433 229.158 282.376 228.764C265.537 225.542 247.455 230.454 234.42 243.524C221.384 256.593 216.484 274.722 219.698 291.604C220.091 293.666 219.233 295.741 217.501 296.921C203.321 306.58 194 322.872 194 341.356C194 354.636 198.812 366.785 206.782 376.155C207.771 377.318 209.211 378 210.735 378H453.265Z" fill="#E3F7A1"/>
<path d="M193.611 228H183.299C181.414 228 179.885 229.529 179.885 231.414V319.59C179.885 321.475 181.414 323.004 183.299 323.004H193.611C195.496 323.004 197.025 321.475 197.025 319.59V231.414C197.025 229.529 195.497 228 193.611 228Z" fill="#65820A"/>
<path d="M333.067 319.59V231.414C333.067 229.529 331.539 228 329.653 228H319.342C317.457 228 315.928 229.529 315.928 231.414V319.59C315.928 321.475 317.457 323.004 319.342 323.004H329.653C331.539 323.004 333.067 321.475 333.067 319.59Z" fill="#65820A"/>
<path d="M179.389 330.319H166.745C164.86 330.319 163.331 331.848 163.331 333.733V375.156C163.331 377.041 164.86 378.57 166.745 378.57H179.389C181.275 378.57 182.803 377.041 182.803 375.156V333.733C182.803 331.848 181.275 330.319 179.389 330.319Z" fill="#65820A"/>
<path d="M346.208 330.319H333.564C331.679 330.319 330.15 331.848 330.15 333.733V375.156C330.15 377.041 331.679 378.57 333.564 378.57H346.208C348.093 378.57 349.622 377.041 349.622 375.156V333.733C349.622 331.848 348.093 330.319 346.208 330.319Z" fill="#65820A"/>
<path d="M170.636 269.56H342.317C344.203 269.56 345.731 268.032 345.731 266.147V243.171C345.731 241.285 344.203 239.757 342.317 239.757H170.636C168.751 239.757 167.222 241.285 167.222 243.171V266.147C167.222 268.032 168.75 269.56 170.636 269.56Z" fill="#81A50D"/>
<path d="M170.636 308.666H342.317C344.203 308.666 345.731 307.138 345.731 305.252V282.277C345.731 280.391 344.203 278.863 342.317 278.863H170.636C168.751 278.863 167.222 280.391 167.222 282.277V305.252C167.222 307.138 168.75 308.666 170.636 308.666Z" fill="#81A50D"/>
<path d="M352.54 316.175H160.414C158.529 316.175 157 317.704 157 319.589V333.733C157 335.618 158.529 337.147 160.414 337.147H352.54C354.425 337.147 355.954 335.618 355.954 333.733V319.589C355.954 317.704 354.425 316.175 352.54 316.175Z" fill="#81A50D"/>
</svg>
