<svg width="512" height="512" viewBox="0 0 512 512" fill="none" xmlns="http://www.w3.org/2000/svg">
<path d="M114.13 350.7H55.9858L66.6538 101H103.462L114.13 350.7Z" fill="#F47DDB"/>
<path d="M108.302 210.91H61.814L63.434 174.688H106.684L108.302 210.91Z" fill="#EB13BE"/>
<path d="M63.4341 174.689H106.684L105.06 138.469H65.0581L63.4341 174.689Z" fill="#F15AD1"/>
<path d="M183.3 350.7H125.154L135.822 101H172.632L183.3 350.7Z" fill="#F47DDB"/>
<path d="M177.47 210.91H130.982L132.602 174.688H175.852L177.47 210.91Z" fill="#EB13BE"/>
<path d="M132.602 174.689H175.852L174.228 138.469H134.226L132.602 174.689Z" fill="#F15AD1"/>
<path d="M305.044 431.18H16V290C16 284.165 18.3178 278.569 22.4436 274.444C26.5694 270.318 32.1652 268 38 268H283.044C288.878 268 294.474 270.318 298.6 274.444C302.726 278.569 305.044 284.165 305.044 290V431.18Z" fill="#F7A1E5"/>
<path d="M65.6114 390.601C69.816 390.601 73.2229 387.193 73.2229 382.99V315.381C73.2229 305.54 57.9999 305.54 57.9999 315.381V382.99C57.9999 387.193 61.4078 390.601 65.6114 390.601Z" fill="white"/>
<path d="M113.611 391.601C117.816 391.601 121.223 388.193 121.223 383.99V316.381C121.223 306.54 106 306.54 106 316.381V383.99C106 388.193 109.408 391.601 113.611 391.601Z" fill="white"/>
<path d="M161.611 391.601C165.816 391.601 169.223 388.193 169.223 383.99V316.381C169.223 306.54 154 306.54 154 316.381V383.99C154 388.193 157.408 391.601 161.611 391.601Z" fill="white"/>
<path d="M209.611 391.601C213.816 391.601 217.223 388.193 217.223 383.99V316.381C217.223 306.54 202 306.54 202 316.381V383.99C202 388.193 205.408 391.601 209.611 391.601Z" fill="white"/>
<path d="M375.844 262.632L364.582 255.746L375.894 262.546L375.844 262.632Z" fill="#231F20"/>
<path d="M370.212 259.104V259.02L370.264 259.104H370.212Z" fill="white"/>
<rect x="236" y="165" width="168" height="21" fill="#F15AD1"/>
<path d="M395 186H320H245V431H395V186Z" fill="#EB13BE"/>
<path d="M320.211 343.638C324.415 343.638 327.822 340.23 327.822 336.026V296.779C327.822 286.938 312.599 286.938 312.599 296.779V336.026C312.599 340.23 316.006 343.638 320.211 343.638Z" fill="#F7A1E5"/>
<path d="M282.702 343.638C286.907 343.638 290.314 340.23 290.314 336.026V296.779C290.314 286.938 275.091 286.938 275.091 296.779V336.026C275.091 340.23 278.499 343.638 282.702 343.638Z" fill="#F7A1E5"/>
<path d="M357.72 343.638C361.925 343.638 365.332 340.23 365.332 336.026V296.779C365.332 286.938 350.109 286.938 350.109 296.779V336.026C350.109 340.23 353.515 343.638 357.72 343.638Z" fill="#F7A1E5"/>
<path d="M320.211 269.239C324.415 269.239 327.822 265.831 327.822 261.628V222.381C327.822 212.54 312.599 212.54 312.599 222.381V261.628C312.599 265.831 316.006 269.239 320.211 269.239Z" fill="#F7A1E5"/>
<path d="M282.702 269.239C286.907 269.239 290.314 265.831 290.314 261.628V222.381C290.314 212.54 275.091 212.54 275.091 222.381V261.628C275.091 265.831 278.499 269.239 282.702 269.239Z" fill="#F7A1E5"/>
<path d="M357.72 269.239C361.925 269.239 365.332 265.831 365.332 261.628V222.381C365.332 212.54 350.109 212.54 350.109 222.381V261.628C350.109 265.831 353.515 269.239 357.72 269.239Z" fill="#F7A1E5"/>
<path fill-rule="evenodd" clip-rule="evenodd" d="M301 431.475V389.16C301 363.613 340 363.613 340 389.16V431.475H301Z" fill="#F7A1E5"/>
<path d="M395 431.217H495.482V327.973L445.241 276.479L395 327.973V431.217Z" fill="#F47DDB"/>
<path d="M426.819 393.514C431.024 393.514 434.431 390.106 434.431 385.902V364.557C434.431 354.715 419.208 354.715 419.208 364.557V385.902C419.208 390.106 422.616 393.514 426.819 393.514Z" fill="white"/>
<path d="M445.241 327.973H495.482L445.241 276.479L395 327.973H445.241Z" fill="#EB13BE"/>
<path d="M463.663 393.514C467.868 393.514 471.274 390.106 471.274 385.902V364.557C471.274 354.715 456.051 354.715 456.051 364.557V385.902C456.051 390.106 459.458 393.514 463.663 393.514Z" fill="white"/>
</svg>
