<svg width="512" height="512" viewBox="0 0 512 512" fill="none" xmlns="http://www.w3.org/2000/svg">
<path d="M447 269V459.5H181V269L272 225.898L314 206L356 225.898L447 269Z" fill="#F15AD1"/>
<path d="M140.53 308.466H82.386L93.054 58.7661H129.862L140.53 308.466Z" fill="#F47DDB"/>
<path d="M134.702 168.676H88.214L89.834 132.454H133.084L134.702 168.676Z" fill="#EB13BE"/>
<path d="M89.834 132.454H133.084L131.46 96.2344H91.458L89.834 132.454Z" fill="#F15AD1"/>
<path d="M209.7 308.466H151.554L162.222 58.7661H199.032L209.7 308.466Z" fill="#F47DDB"/>
<path d="M203.87 168.676H157.382L159.002 132.454H202.252L203.87 168.676Z" fill="#EB13BE"/>
<path d="M159.002 132.454H202.252L200.628 96.2344H160.626L159.002 132.454Z" fill="#F15AD1"/>
<path d="M331.444 459.466H42.4V318.286C42.4 312.451 44.7179 306.856 48.8437 302.73C52.9695 298.604 58.5653 296.286 64.4 296.286H309.444C315.278 296.286 320.874 298.604 325 302.73C329.126 306.856 331.444 312.451 331.444 318.286V459.466Z" fill="#F7A1E5"/>
<path d="M80.226 336.05H104.67V419.702H80.226V336.05Z" fill="white"/>
<path d="M128.074 336.05H152.518V419.702H128.074V336.05Z" fill="white"/>
<path d="M175.92 336.05H200.364V419.702H175.92V336.05Z" fill="white"/>
<path d="M224 336.05H248.444V419.702H224V336.05Z" fill="white"/>
<path d="M271.848 336.05H296.292V419.702H271.848V336.05Z" fill="white"/>
<path d="M359.844 290.398L348.582 283.512L359.894 290.312L359.844 290.398Z" fill="#231F20"/>
<path d="M354.212 286.87V286.786L354.264 286.87H354.212Z" fill="white"/>
</svg>
