<svg width="512" height="512" viewBox="0 0 512 512" fill="none" xmlns="http://www.w3.org/2000/svg">
<path d="M445.462 313.413L430.732 281.16C427.744 274.615 419.142 273.063 414.055 278.151L358.635 333.57V373.271L422.831 308.929C423.845 307.914 425.423 307.727 426.645 308.479L441.024 317.334C443.628 318.937 446.732 316.195 445.462 313.413Z" fill="#D7D80E"/>
<path d="M348.193 333.598L292.746 278.151C287.658 273.063 279.057 274.615 276.068 281.16L261.339 313.413C260.068 316.195 263.173 318.938 265.777 317.334L280.156 308.479C281.377 307.727 282.956 307.913 283.969 308.929L348.193 373.299V333.598Z" fill="#D7D80E"/>
<path d="M250.417 352.092L235.688 319.838C232.699 313.294 224.097 311.742 219.01 316.829L163.591 372.248V411.949L227.787 347.608C228.801 346.592 230.379 346.406 231.601 347.159L245.98 356.013C248.582 357.617 251.687 354.874 250.417 352.092Z" fill="#D7D80E"/>
<path d="M153.149 372.277L97.7011 316.829C92.6136 311.742 84.012 313.294 81.0232 319.838L66.2939 352.092C65.0232 354.874 68.1276 357.617 70.7316 356.013L85.1108 347.158C86.3324 346.405 87.9108 346.592 88.9244 347.607L153.149 411.977V372.277Z" fill="#D7D80E"/>
<path d="M250.417 263.899L235.688 231.645C232.699 225.1 224.097 223.549 219.01 228.636L163.591 284.055V323.756L227.787 259.414C228.801 258.399 230.379 258.213 231.601 258.965L245.98 267.82C248.582 269.422 251.687 266.68 250.417 263.899Z" fill="#D7D80E"/>
<path d="M153.149 284.083L97.7011 228.636C92.6136 223.549 84.012 225.1 81.0232 231.645L66.2939 263.899C65.0232 266.68 68.1276 269.423 70.7316 267.819L85.1108 258.965C86.3324 258.212 87.9108 258.398 88.9244 259.414L153.149 323.784V284.083Z" fill="#D7D80E"/>
<path d="M157.175 193.172L157.945 195.773L158.715 193.172C163.428 177.258 173.673 152.387 193.511 141.022C193.557 139.39 193.588 137.737 193.588 136.048C193.588 91.8386 177.63 56 157.944 56C138.259 56 122.301 91.8386 122.301 136.047C122.301 137.737 122.332 139.389 122.378 141.022C142.216 152.386 152.462 177.258 157.175 193.172Z" fill="#FDFE10"/>
<path d="M161.989 102.193H154.723C151.396 102.193 148.699 99.4955 148.699 96.1686C148.699 92.8417 151.396 90.1445 154.723 90.1445H161.989C165.316 90.1445 168.013 92.8417 168.013 96.1686C168.013 99.4955 165.316 102.193 161.989 102.193Z" fill="#D7D80E"/>
<path d="M161.989 83.7113H154.723C151.396 83.7113 148.699 81.0141 148.699 77.6872C148.699 74.3603 151.396 71.6631 154.723 71.6631H161.989C165.316 71.6631 168.013 74.3603 168.013 77.6872C168.013 81.0141 165.316 83.7113 161.989 83.7113Z" fill="#D7D80E"/>
<path d="M161.989 120.945H154.723C151.396 120.945 148.699 118.247 148.699 114.921C148.699 111.594 151.396 108.896 154.723 108.896H161.989C165.316 108.896 168.013 111.594 168.013 114.921C168.013 118.247 165.316 120.945 161.989 120.945Z" fill="#D7D80E"/>
<path d="M161.989 139.698H154.723C151.396 139.698 148.699 137 148.699 133.674C148.699 130.347 151.396 127.649 154.723 127.649H161.989C165.316 127.649 168.013 130.347 168.013 133.674C168.013 137 165.316 139.698 161.989 139.698Z" fill="#D7D80E"/>
<path d="M161.989 158.451H154.723C151.396 158.451 148.699 155.753 148.699 152.426C148.699 149.1 151.396 146.402 154.723 146.402H161.989C165.316 146.402 168.013 149.1 168.013 152.426C168.013 155.753 165.316 158.451 161.989 158.451Z" fill="#D7D80E"/>
<path d="M150.726 175.677C151.79 176.624 153.187 177.203 154.723 177.203H161.989C163 177.203 163.952 176.95 164.789 176.51C165.737 174.358 166.774 172.183 167.897 170.012C167.353 167.244 164.916 165.155 161.989 165.155H154.723C151.396 165.155 148.699 167.852 148.699 171.179C148.699 171.261 148.708 171.341 148.711 171.422C149.422 172.844 150.091 174.265 150.726 175.677Z" fill="#D7D80E"/>
<path d="M136.307 120.13C139.634 120.13 142.331 117.433 142.331 114.106C142.331 110.779 139.634 108.082 136.307 108.082H124.54C123.895 111.965 123.38 115.989 123.008 120.13H136.307Z" fill="#D7D80E"/>
<path d="M136.306 101.649C139.633 101.649 142.33 98.9516 142.33 95.6247C142.33 92.2978 139.633 89.6006 136.306 89.6006H128.913C127.71 93.3845 126.652 97.4142 125.753 101.649H136.306Z" fill="#D7D80E"/>
<path d="M142.33 132.858C142.33 129.531 139.633 126.834 136.306 126.834H122.537C122.383 129.858 122.301 132.931 122.301 136.048C122.301 137.006 122.318 137.942 122.333 138.882H136.306C139.633 138.882 142.33 136.185 142.33 132.858Z" fill="#D7D80E"/>
<path d="M192.882 120.13C192.51 115.989 191.995 111.965 191.351 108.082H180.406C177.079 108.082 174.382 110.779 174.382 114.106C174.382 117.433 177.079 120.13 180.406 120.13H192.882Z" fill="#D7D80E"/>
<path d="M190.137 101.649C189.238 97.4142 188.179 93.3845 186.977 89.6006H180.406C177.079 89.6006 174.382 92.2978 174.382 95.6247C174.382 98.9516 177.079 101.649 180.406 101.649H190.137Z" fill="#D7D80E"/>
<path d="M174.381 132.858C174.381 136.185 177.079 138.882 180.405 138.882H193.556C193.57 137.942 193.588 137.006 193.588 136.048C193.588 132.931 193.506 129.858 193.352 126.834H180.405C177.079 126.834 174.381 129.531 174.381 132.858Z" fill="#D7D80E"/>
<path d="M157.945 217.421C156.033 217.421 154.168 217.308 152.346 217.092V456H164.394V216.955C162.331 217.258 160.184 217.421 157.945 217.421Z" fill="#B1B20B"/>
<path d="M352.219 242.686L352.99 245.287L353.76 242.686C358.472 226.772 368.717 201.901 388.557 190.536C388.603 188.903 388.634 187.251 388.634 185.562C388.634 141.353 372.676 105.515 352.991 105.515C333.305 105.515 317.347 141.353 317.347 185.562C317.347 187.251 317.378 188.903 317.424 190.536C337.262 201.901 347.507 226.772 352.219 242.686Z" fill="#FDFE10"/>
<path d="M359.439 456V266.47C357.376 266.773 355.229 266.936 352.989 266.936C351.077 266.936 349.212 266.824 347.391 266.607V456H359.439Z" fill="#B1B20B"/>
<path d="M357.034 151.706H349.767C346.44 151.706 343.743 149.009 343.743 145.682C343.743 142.355 346.44 139.658 349.767 139.658H357.034C360.361 139.658 363.058 142.355 363.058 145.682C363.058 149.009 360.361 151.706 357.034 151.706Z" fill="#D7D80E"/>
<path d="M357.034 133.226H349.767C346.44 133.226 343.743 130.529 343.743 127.202C343.743 123.875 346.44 121.178 349.767 121.178H357.034C360.361 121.178 363.058 123.875 363.058 127.202C363.058 130.529 360.361 133.226 357.034 133.226Z" fill="#D7D80E"/>
<path d="M357.034 170.459H349.767C346.44 170.459 343.743 167.762 343.743 164.435C343.743 161.108 346.44 158.411 349.767 158.411H357.034C360.361 158.411 363.058 161.108 363.058 164.435C363.058 167.762 360.361 170.459 357.034 170.459Z" fill="#D7D80E"/>
<path d="M357.034 189.212H349.767C346.44 189.212 343.743 186.515 343.743 183.188C343.743 179.861 346.44 177.164 349.767 177.164H357.034C360.361 177.164 363.058 179.861 363.058 183.188C363.058 186.515 360.361 189.212 357.034 189.212Z" fill="#D7D80E"/>
<path d="M357.034 207.965H349.767C346.44 207.965 343.743 205.268 343.743 201.941C343.743 198.614 346.44 195.917 349.767 195.917H357.034C360.361 195.917 363.058 198.614 363.058 201.941C363.058 205.268 360.361 207.965 357.034 207.965Z" fill="#D7D80E"/>
<path d="M345.77 225.192C346.835 226.137 348.232 226.717 349.766 226.717H357.033C358.044 226.717 358.996 226.465 359.833 226.025C360.783 223.872 361.819 221.696 362.942 219.525C362.399 216.757 359.961 214.669 357.034 214.669H349.767C346.44 214.669 343.743 217.366 343.743 220.693C343.743 220.775 343.752 220.854 343.755 220.935C344.465 222.358 345.135 223.779 345.77 225.192Z" fill="#D7D80E"/>
<path d="M331.351 169.644C334.678 169.644 337.375 166.947 337.375 163.62C337.375 160.293 334.678 157.596 331.351 157.596H319.584C318.939 161.478 318.424 165.503 318.052 169.644H331.351Z" fill="#D7D80E"/>
<path d="M331.351 151.163C334.678 151.163 337.375 148.466 337.375 145.139C337.375 141.812 334.678 139.115 331.351 139.115H323.958C322.755 142.899 321.697 146.929 320.798 151.163H331.351Z" fill="#D7D80E"/>
<path d="M337.375 182.373C337.375 179.046 334.678 176.349 331.351 176.349H317.582C317.428 179.373 317.346 182.446 317.346 185.562C317.346 186.521 317.364 187.457 317.378 188.397H331.351C334.678 188.397 337.375 185.7 337.375 182.373Z" fill="#D7D80E"/>
<path d="M387.927 169.644C387.555 165.503 387.04 161.478 386.395 157.596H375.451C372.124 157.596 369.427 160.293 369.427 163.62C369.427 166.947 372.124 169.644 375.451 169.644H387.927Z" fill="#D7D80E"/>
<path d="M385.182 151.163C384.283 146.929 383.224 142.899 382.022 139.115H375.451C372.124 139.115 369.427 141.812 369.427 145.139C369.427 148.466 372.124 151.163 375.451 151.163H385.182Z" fill="#D7D80E"/>
<path d="M369.427 182.373C369.427 185.7 372.124 188.397 375.451 188.397H388.601C388.616 187.457 388.633 186.521 388.633 185.562C388.633 182.446 388.551 179.373 388.397 176.349H375.451C372.124 176.349 369.427 179.046 369.427 182.373Z" fill="#D7D80E"/>
<path d="M405.425 184.058C374.158 187.914 359.373 220.901 352.989 242.459C346.606 220.901 331.821 187.914 300.554 184.058C298.625 183.82 296.98 185.458 297.147 187.394C298.557 203.67 306.302 267.74 352.988 267.74C398.453 267.74 407.42 203.67 408.829 187.394C408.999 185.458 407.353 183.82 405.425 184.058Z" fill="#D7D80E"/>
<path d="M405.424 184.058C374.157 187.914 359.373 220.901 352.989 242.459V267.74C398.454 267.74 407.42 203.67 408.83 187.394C408.998 185.458 407.353 183.82 405.424 184.058Z" fill="#B1B20B"/>
<path d="M210.38 134.543C179.113 138.398 164.328 171.385 157.944 192.943C151.561 171.385 136.776 138.398 105.509 134.543C103.58 134.305 101.935 135.943 102.103 137.878C103.512 154.155 111.257 218.224 157.943 218.224C203.409 218.224 212.375 154.155 213.784 137.878C213.954 135.943 212.308 134.305 210.38 134.543Z" fill="#D7D80E"/>
<path d="M210.379 134.543C179.113 138.398 164.328 171.385 157.944 192.943V218.224C203.409 218.224 212.375 154.155 213.785 137.878C213.953 135.943 212.308 134.305 210.379 134.543Z" fill="#B1B20B"/>
</svg>
