<svg width="512" height="512" viewBox="0 0 512 512" fill="none" xmlns="http://www.w3.org/2000/svg">
<rect x="239" y="267" width="32" height="190" rx="8" fill="#639E74"/>
<rect x="354" y="257" width="24" height="190" rx="8" fill="#548663"/>
<rect x="134" y="257" width="24" height="190" rx="8" fill="#548663"/>
<path d="M434.901 243.149C432.223 239.424 431.582 234.644 433.042 230.291C435.446 223.129 436.75 215.461 436.75 207.487C436.75 188.707 429.526 171.619 417.715 158.865C414.579 155.479 413.396 150.747 414.334 146.224C415.172 142.177 415.523 137.951 415.319 133.609C414.086 107.497 392.612 86.5493 366.554 86.0109C338.527 85.431 315.625 108.045 315.625 136.025C315.625 139.609 316.003 143.105 316.72 146.475C317.661 150.906 316.357 155.549 313.283 158.869C301.473 171.623 294.25 188.709 294.25 207.488C294.25 215.462 295.553 223.131 297.958 230.291C299.423 234.656 298.762 239.442 296.078 243.179C285.965 257.26 280.006 274.54 280 293.217C279.985 339.883 317.713 378.316 364.234 378.991C412.034 379.684 451 341.028 451 293.243C451 274.544 445.031 257.242 434.901 243.149Z" fill="#639E74"/>
<path d="M214.901 243.149C212.223 239.424 211.582 234.644 213.042 230.291C215.446 223.129 216.75 215.461 216.75 207.487C216.75 188.707 209.526 171.619 197.715 158.865C194.58 155.479 193.396 150.747 194.334 146.224C195.172 142.177 195.523 137.951 195.319 133.609C194.086 107.497 172.612 86.5493 146.554 86.0109C118.527 85.431 95.6253 108.045 95.6253 136.025C95.6253 139.609 96.0034 143.105 96.7196 146.475C97.6613 150.906 96.3569 155.549 93.2825 158.869C81.4729 171.623 74.2498 188.709 74.2498 207.488C74.2498 215.462 75.5535 223.131 77.9576 230.291C79.4231 234.656 78.762 239.442 76.078 243.179C65.9654 257.259 60.0054 274.54 60 293.217C59.9854 339.883 97.7127 378.316 144.234 378.991C192.034 379.684 231 341.028 231 293.243C231 274.544 225.032 257.242 214.901 243.149Z" fill="#639E74"/>
<path d="M331.396 234.559C328.467 230.515 327.765 225.328 329.363 220.603C331.991 212.831 333.418 204.509 333.418 195.854C333.418 175.471 325.518 156.926 312.601 143.083C309.172 139.409 307.878 134.273 308.903 129.363C309.82 124.97 310.205 120.384 309.98 115.671C308.633 87.3308 285.149 64.5969 256.653 64.0118C226.003 63.383 200.959 87.9259 200.959 118.293C200.959 122.183 201.372 125.977 202.155 129.635C203.185 134.444 201.759 139.483 198.397 143.087C185.482 156.929 177.583 175.473 177.583 195.854C177.583 204.509 179.009 212.831 181.638 220.603C183.24 225.341 182.517 230.534 179.582 234.591C168.524 249.872 162.006 268.627 162 288.898C161.985 339.546 203.241 381.258 254.116 381.99C306.388 382.742 349 340.788 349 288.927C349.002 268.632 342.474 249.855 331.396 234.559Z" fill="#92BB9E"/>
</svg>
