<svg width="512" height="512" viewBox="0 0 512 512" fill="none" xmlns="http://www.w3.org/2000/svg">
<rect x="239" y="354" width="32" height="103" rx="8" fill="#8B9B61"/>
<rect x="354" y="344" width="24" height="103" rx="8" fill="#768452"/>
<rect x="134" y="344" width="24" height="103" rx="8" fill="#768452"/>
<path d="M311 280.53C311 334.361 285.928 378 255 378C224.072 378 199 334.361 199 280.53C199 226.699 224.072 58 255 58C285.928 58 311 226.699 311 280.53Z" fill="#AEB990"/>
<path d="M408 325.421C408 364.953 389.196 397 366 397C342.804 397 324 364.953 324 325.421C324 285.888 342.804 162 366 162C389.196 162 408 285.888 408 325.421Z" fill="#8B9B61"/>
<path d="M188 325.421C188 364.953 169.196 397 146 397C122.804 397 104 364.953 104 325.421C104 285.888 122.804 162 146 162C169.196 162 188 285.888 188 325.421Z" fill="#8B9B61"/>
</svg>
