<svg width="512" height="512" viewBox="0 0 512 512" fill="none" xmlns="http://www.w3.org/2000/svg">
<rect x="239" y="354" width="32" height="103" rx="8" fill="#12EB46"/>
<rect x="354" y="324" width="24" height="103" rx="8" fill="#0FC83C"/>
<rect x="134" y="324" width="24" height="103" rx="8" fill="#0FC83C"/>
<path d="M466.351 353.083L436.892 324.151C436.047 323.322 435.469 322.259 435.23 321.1C434.991 319.94 435.103 318.736 435.551 317.64C435.999 316.544 436.763 315.607 437.746 314.947C438.729 314.287 439.886 313.935 441.07 313.935H452.736C453.954 313.935 455.143 313.562 456.142 312.866C457.142 312.17 457.905 311.185 458.327 310.043C458.75 308.901 458.813 307.656 458.508 306.477C458.203 305.298 457.544 304.241 456.62 303.448L424.765 276.104C423.84 275.311 423.181 274.254 422.876 273.075C422.571 271.896 422.634 270.651 423.057 269.509C423.48 268.367 424.242 267.382 425.242 266.686C426.241 265.99 427.43 265.617 428.648 265.617H437.636C438.836 265.617 440.008 265.255 440.999 264.578C441.991 263.901 442.754 262.941 443.191 261.823C443.627 260.705 443.716 259.481 443.446 258.312C443.176 257.142 442.559 256.082 441.676 255.269L402.654 219.332C401.771 218.518 401.155 217.458 400.884 216.288C400.614 215.119 400.703 213.895 401.139 212.777C401.576 211.659 402.34 210.699 403.331 210.022C404.322 209.345 405.494 208.983 406.694 208.983C407.848 208.983 408.976 208.649 409.943 208.02C410.91 207.391 411.674 206.496 412.142 205.442C412.61 204.388 412.762 203.221 412.58 202.082C412.398 200.943 411.889 199.881 411.116 199.026C394.854 181.273 381.326 161.197 370.978 139.46C370.501 138.427 369.738 137.552 368.779 136.939C367.821 136.326 366.707 136 365.569 136C364.431 136 363.317 136.326 362.358 136.939C361.4 137.552 360.637 138.427 360.16 139.46C349.811 161.197 336.283 181.273 320.022 199.026C319.248 199.881 318.74 200.943 318.557 202.082C318.375 203.221 318.527 204.388 318.995 205.442C319.464 206.496 320.227 207.391 321.194 208.02C322.161 208.649 323.29 208.983 324.443 208.983C325.643 208.983 326.816 209.345 327.807 210.022C328.798 210.699 329.562 211.659 329.998 212.777C330.435 213.895 330.523 215.119 330.253 216.288C329.983 217.458 329.366 218.518 328.483 219.332L289.462 255.269C288.579 256.082 287.962 257.142 287.691 258.312C287.421 259.481 287.51 260.705 287.946 261.823C288.383 262.941 289.147 263.901 290.138 264.578C291.129 265.255 292.301 265.617 293.502 265.617H302.489C303.707 265.617 304.896 265.99 305.895 266.686C306.895 267.382 307.658 268.367 308.081 269.509C308.504 270.651 308.567 271.896 308.261 273.075C307.956 274.254 307.297 275.311 306.373 276.104L274.518 303.448C273.594 304.241 272.934 305.298 272.629 306.477C272.324 307.656 272.387 308.901 272.81 310.043C273.233 311.185 273.995 312.17 274.995 312.866C275.995 313.562 277.183 313.935 278.401 313.935H290.067C291.251 313.935 292.408 314.287 293.391 314.947C294.374 315.607 295.138 316.544 295.586 317.64C296.034 318.736 296.146 319.94 295.907 321.1C295.669 322.259 295.09 323.322 294.245 324.151L264.785 353.083C263.94 353.913 263.361 354.975 263.123 356.134C262.884 357.294 262.996 358.498 263.444 359.594C263.892 360.69 264.656 361.627 265.639 362.287C266.622 362.947 267.779 363.3 268.963 363.3H462.173C463.356 363.3 464.513 362.947 465.496 362.287C466.479 361.627 467.243 360.69 467.691 359.594C468.14 358.498 468.251 357.294 468.013 356.134C467.774 354.975 467.195 353.913 466.351 353.083Z" fill="#12EB46"/>
<path d="M203.631 258.405C201.408 255.289 200.875 251.293 202.088 247.653C204.084 241.664 205.167 235.253 205.167 228.585C205.167 212.881 199.168 198.593 189.36 187.928C186.757 185.097 185.773 181.14 186.552 177.358C187.248 173.974 187.54 170.44 187.37 166.809C186.347 144.975 168.514 127.459 146.875 127.009C123.601 126.524 104.584 145.434 104.584 168.83C104.584 171.827 104.898 174.75 105.492 177.567C106.274 181.273 105.191 185.155 102.638 187.931C92.8313 198.596 86.8332 212.883 86.8332 228.586C86.8332 235.253 87.9158 241.665 89.9121 247.653C91.1291 251.303 90.5802 255.305 88.3513 258.429C79.9537 270.203 75.0045 284.653 75 300.27C74.9879 339.291 106.317 371.428 144.949 371.992C184.643 372.572 217 340.249 217 300.292C217 284.656 212.044 270.189 203.631 258.405Z" fill="#12EB46"/>
<path d="M311 280.53C311 334.361 285.928 378 255 378C224.072 378 199 334.361 199 280.53C199 226.699 224.072 58 255 58C285.928 58 311 226.699 311 280.53Z" fill="#59F17D"/>
</svg>
