<svg width="512" height="512" viewBox="0 0 512 512" fill="none" xmlns="http://www.w3.org/2000/svg">
<rect x="240" y="354" width="32" height="103" rx="8" fill="#2DA88B"/>
<rect x="364" y="344" width="24" height="103" rx="8" fill="#258B72"/>
<rect x="124" y="344" width="24" height="103" rx="8" fill="#258B72"/>
<path d="M237.351 376.34L207.892 347.408C207.048 346.579 206.469 345.517 206.23 344.357C205.991 343.198 206.103 341.993 206.551 340.897C206.999 339.802 207.764 338.864 208.746 338.204C209.729 337.544 210.886 337.192 212.07 337.192H223.736C224.954 337.192 226.143 336.819 227.142 336.123C228.142 335.427 228.905 334.442 229.328 333.3C229.751 332.158 229.814 330.913 229.508 329.734C229.203 328.555 228.544 327.498 227.62 326.705L195.765 299.361C194.841 298.568 194.182 297.511 193.876 296.332C193.571 295.153 193.634 293.908 194.057 292.766C194.48 291.624 195.242 290.639 196.242 289.943C197.242 289.247 198.43 288.874 199.648 288.874H208.636C209.836 288.874 211.009 288.512 212 287.835C212.991 287.158 213.755 286.198 214.191 285.08C214.628 283.962 214.716 282.738 214.446 281.569C214.176 280.399 213.559 279.339 212.676 278.526L173.654 242.589C172.771 241.776 172.154 240.715 171.884 239.546C171.613 238.376 171.702 237.152 172.139 236.034C172.575 234.916 173.339 233.956 174.33 233.279C175.321 232.602 176.494 232.24 177.694 232.24C178.847 232.24 179.976 231.906 180.943 231.277C181.91 230.649 182.673 229.753 183.141 228.699C183.609 227.645 183.762 226.478 183.58 225.339C183.397 224.2 182.889 223.139 182.115 222.283C165.853 204.53 152.326 184.455 141.977 162.717C141.5 161.684 140.737 160.809 139.778 160.196C138.82 159.583 137.706 159.257 136.568 159.257C135.43 159.257 134.316 159.583 133.357 160.196C132.399 160.809 131.636 161.684 131.159 162.717C120.81 184.455 107.282 204.53 91.0206 222.283C90.2471 223.139 89.7385 224.2 89.5564 225.339C89.3743 226.478 89.5264 227.645 89.9945 228.699C90.4625 229.753 91.2263 230.649 92.1932 231.277C93.1602 231.906 94.2887 232.24 95.442 232.24C96.6422 232.24 97.8146 232.602 98.8057 233.279C99.7968 233.956 100.561 234.916 100.997 236.035C101.434 237.153 101.522 238.376 101.252 239.546C100.982 240.715 100.365 241.776 99.4819 242.589L60.4602 278.526C59.5773 279.339 58.9603 280.4 58.69 281.569C58.4197 282.738 58.5086 283.962 58.9451 285.08C59.3815 286.198 60.1453 287.159 61.1364 287.836C62.1276 288.513 63.2999 288.875 64.5002 288.874H73.4878C74.7057 288.874 75.8944 289.247 76.8941 289.943C77.8937 290.639 78.6563 291.624 79.0793 292.766C79.5022 293.909 79.5653 295.153 79.2599 296.332C78.9546 297.511 78.2955 298.568 77.3714 299.361L45.5156 326.705C44.5914 327.498 43.9323 328.555 43.627 329.735C43.3216 330.914 43.3847 332.158 43.8077 333.3C44.2306 334.442 44.9932 335.427 45.9928 336.123C46.9925 336.819 48.1812 337.192 49.3992 337.192H61.0652C62.249 337.192 63.4061 337.544 64.3889 338.204C65.3718 338.864 66.1359 339.802 66.5841 340.898C67.0322 341.993 67.1439 343.198 66.9051 344.357C66.6663 345.517 66.0878 346.579 65.2432 347.408L35.7846 376.34C34.9399 377.17 34.3614 378.232 34.1226 379.391C33.8838 380.551 33.9955 381.755 34.4436 382.851C34.8918 383.947 35.6559 384.884 36.6388 385.544C37.6216 386.204 38.7787 386.557 39.9626 386.557H233.173C234.356 386.557 235.514 386.204 236.496 385.544C237.479 384.884 238.243 383.947 238.692 382.851C239.14 381.755 239.252 380.551 239.013 379.391C238.774 378.232 238.195 377.17 237.351 376.34Z" fill="#2DA88B"/>
<path d="M476.351 376.34L446.892 347.408C446.047 346.578 445.469 345.516 445.23 344.357C444.991 343.197 445.103 341.993 445.551 340.897C445.999 339.801 446.763 338.864 447.746 338.204C448.729 337.544 449.886 337.191 451.07 337.191H462.736C463.954 337.191 465.143 336.818 466.142 336.123C467.142 335.427 467.905 334.442 468.327 333.299C468.75 332.157 468.813 330.913 468.508 329.734C468.203 328.555 467.544 327.498 466.62 326.704L434.765 299.361C433.84 298.568 433.181 297.51 432.876 296.331C432.571 295.152 432.634 293.908 433.057 292.766C433.48 291.624 434.242 290.639 435.242 289.943C436.241 289.247 437.43 288.874 438.648 288.874H447.636C448.836 288.874 450.008 288.512 450.999 287.835C451.991 287.158 452.754 286.198 453.191 285.08C453.627 283.962 453.716 282.738 453.446 281.569C453.176 280.399 452.559 279.339 451.676 278.525L412.654 242.588C411.771 241.775 411.155 240.715 410.884 239.545C410.614 238.376 410.703 237.152 411.139 236.034C411.576 234.916 412.34 233.956 413.331 233.279C414.322 232.602 415.494 232.24 416.694 232.24C417.848 232.24 418.976 231.905 419.943 231.277C420.91 230.648 421.674 229.753 422.142 228.699C422.61 227.645 422.762 226.477 422.58 225.339C422.398 224.2 421.889 223.138 421.116 222.283C404.854 204.53 391.326 184.454 380.978 162.717C380.501 161.684 379.738 160.809 378.779 160.196C377.821 159.583 376.707 159.257 375.569 159.257C374.431 159.257 373.317 159.583 372.358 160.196C371.4 160.809 370.637 161.684 370.16 162.717C359.811 184.454 346.283 204.53 330.022 222.283C329.248 223.138 328.74 224.2 328.557 225.339C328.375 226.477 328.527 227.645 328.995 228.699C329.464 229.753 330.227 230.648 331.194 231.277C332.161 231.905 333.29 232.24 334.443 232.24C335.643 232.24 336.816 232.602 337.807 233.279C338.798 233.956 339.562 234.916 339.998 236.034C340.435 237.152 340.523 238.376 340.253 239.545C339.983 240.715 339.366 241.775 338.483 242.588L299.462 278.525C298.579 279.339 297.962 280.399 297.691 281.569C297.421 282.738 297.51 283.962 297.946 285.08C298.383 286.198 299.147 287.158 300.138 287.835C301.129 288.512 302.301 288.874 303.502 288.874H312.489C313.707 288.874 314.896 289.247 315.895 289.943C316.895 290.639 317.658 291.624 318.081 292.766C318.504 293.908 318.567 295.152 318.261 296.331C317.956 297.51 317.297 298.568 316.373 299.361L284.518 326.704C283.594 327.498 282.934 328.555 282.629 329.734C282.324 330.913 282.387 332.157 282.81 333.299C283.233 334.442 283.995 335.427 284.995 336.123C285.995 336.818 287.183 337.191 288.401 337.191H300.067C301.251 337.191 302.408 337.544 303.391 338.204C304.374 338.864 305.138 339.801 305.586 340.897C306.034 341.993 306.146 343.197 305.907 344.357C305.669 345.516 305.09 346.578 304.245 347.408L274.785 376.34C273.94 377.169 273.361 378.232 273.123 379.391C272.884 380.551 272.996 381.755 273.444 382.851C273.892 383.947 274.656 384.884 275.639 385.544C276.622 386.204 277.779 386.556 278.963 386.556H472.173C473.356 386.556 474.513 386.204 475.496 385.544C476.479 384.884 477.243 383.947 477.691 382.851C478.14 381.755 478.251 380.551 478.013 379.391C477.774 378.232 477.195 377.169 476.351 376.34Z" fill="#2DA88B"/>
<path d="M397.562 392.847L356.194 352.219C355.007 351.054 354.195 349.563 353.86 347.934C353.524 346.306 353.681 344.615 354.31 343.076C354.94 341.537 356.013 340.22 357.393 339.294C358.773 338.367 360.398 337.872 362.061 337.872H378.443C380.153 337.872 381.823 337.348 383.226 336.371C384.63 335.394 385.701 334.01 386.295 332.407C386.889 330.803 386.978 329.055 386.549 327.4C386.12 325.744 385.194 324.259 383.897 323.145L339.163 284.747C337.865 283.633 336.94 282.149 336.511 280.493C336.082 278.837 336.171 277.09 336.765 275.486C337.359 273.882 338.43 272.499 339.833 271.521C341.237 270.544 342.906 270.021 344.617 270.021H357.238C358.923 270.021 360.57 269.512 361.961 268.561C363.353 267.611 364.425 266.262 365.038 264.692C365.651 263.122 365.776 261.403 365.396 259.761C365.016 258.119 364.15 256.63 362.91 255.488L308.114 205.023C306.874 203.881 306.007 202.392 305.628 200.749C305.248 199.107 305.373 197.389 305.986 195.819C306.599 194.249 307.671 192.9 309.063 191.949C310.454 190.999 312.101 190.49 313.786 190.49C315.405 190.49 316.99 190.02 318.347 189.137C319.705 188.254 320.777 186.997 321.434 185.517C322.092 184.037 322.305 182.398 322.05 180.799C321.794 179.2 321.081 177.709 319.995 176.508C297.159 151.578 278.162 123.386 263.63 92.8602C262.96 91.4097 261.889 90.1813 260.543 89.3204C259.196 88.4595 257.632 88.002 256.034 88.002C254.436 88.002 252.872 88.4595 251.526 89.3204C250.18 90.1813 249.108 91.4097 248.438 92.8602C233.906 123.386 214.909 151.578 192.073 176.508C190.987 177.71 190.274 179.2 190.018 180.799C189.763 182.398 189.976 184.037 190.634 185.517C191.291 186.997 192.363 188.254 193.721 189.137C195.078 190.02 196.663 190.49 198.282 190.49C199.967 190.49 201.614 190.999 203.005 191.95C204.397 192.9 205.469 194.249 206.082 195.819C206.695 197.389 206.82 199.108 206.44 200.75C206.061 202.392 205.194 203.881 203.954 205.023L149.158 255.488C147.918 256.63 147.051 258.119 146.672 259.762C146.292 261.404 146.417 263.122 147.03 264.692C147.643 266.262 148.715 267.611 150.107 268.562C151.498 269.512 153.145 270.021 154.83 270.021H167.451C169.161 270.021 170.831 270.545 172.234 271.522C173.638 272.499 174.709 273.882 175.303 275.486C175.897 277.09 175.986 278.837 175.557 280.493C175.128 282.149 174.202 283.634 172.905 284.748L128.171 323.145C126.873 324.259 125.948 325.744 125.519 327.4C125.09 329.055 125.179 330.803 125.773 332.407C126.367 334.01 127.438 335.394 128.841 336.371C130.245 337.348 131.914 337.872 133.625 337.872H150.007C151.67 337.872 153.295 338.367 154.675 339.294C156.055 340.22 157.128 341.537 157.757 343.076C158.387 344.615 158.544 346.306 158.208 347.934C157.873 349.563 157.06 351.054 155.874 352.219L114.506 392.847C113.32 394.012 112.508 395.504 112.172 397.132C111.837 398.761 111.994 400.452 112.623 401.991C113.252 403.53 114.325 404.846 115.706 405.773C117.086 406.7 118.711 407.195 120.373 407.195H391.695C393.358 407.194 394.983 406.7 396.363 405.773C397.743 404.846 398.816 403.529 399.445 401.991C400.074 400.452 400.231 398.76 399.896 397.132C399.56 395.504 398.748 394.012 397.562 392.847Z" fill="#35C6A3"/>
</svg>
