<svg width="512" height="512" viewBox="0 0 512 512" fill="none" xmlns="http://www.w3.org/2000/svg">
<path d="M324.44 160.927C323.807 160.215 323.131 159.55 322.371 158.981C315.909 153.855 296.989 147.685 287.149 147.638C275.45 147.638 262.569 154.852 253.024 159.693C250.913 160.737 248.886 161.924 246.858 163.158C243.818 165.958 241.79 168.853 241.241 173.077C240.988 175.023 241.495 177.064 241.241 179.057C240.692 183.471 237.398 187.98 237.398 192.394C237.398 200.367 252.391 205.256 262.062 206.49C272.789 207.866 283.517 203.974 293.272 201.126C301.677 198.706 311.939 196.57 319.33 192.773C328.833 187.885 328.706 181.715 327.735 173.979C327.185 169.66 326.13 165.246 324.44 160.974V160.927Z" fill="#AAAAAA"/>
<path d="M393.182 199.576C398.25 197.5 402.093 193.301 406.613 190.395C411.386 187.349 420.931 185.504 423.803 180.29C428.069 172.631 422.198 155.053 420.635 146.978C415.525 120.633 379.412 127.6 360.279 125.109C351.494 125.109 348.073 138.858 342.286 145.456C332.023 157.175 325.307 164.188 336.584 178.445C342.878 186.38 352.676 197.638 361.166 200.268C371.049 203.359 383.509 203.498 393.224 199.53L393.182 199.576Z" fill="#A3A3A3"/>
<path d="M319.06 274.602C313.337 276.768 308.042 273.66 305.65 288.209C304.113 297.579 306.547 307.278 307.658 317.213C308.17 319.473 308.682 321.686 309.195 323.946C314.063 335.199 319.871 330.114 325.807 324.793C334.22 317.213 346.433 306.289 352.582 287.55C353.949 281.288 354.376 275.261 352.326 269.517C342.504 257.275 329.052 270.835 319.06 274.602Z" fill="#A3A3A3"/>
<path d="M359.091 358.855C348.327 374.495 345.305 407.882 356.902 421.187C357.374 421.713 357.857 422.16 358.376 422.613C360.205 423.859 362.252 424.862 364.553 425.626C370.219 426.859 376.962 425.178 383.252 423.095C389.601 419.09 395.493 412.668 402.487 407.728C418.682 396.22 424.758 394.865 434.969 371.154C442.984 352.536 448.639 345.993 436.302 330.221C433.496 326.629 429.941 322.665 426.088 319.494C414.567 318.084 403.447 326.814 391.108 335.895C380.321 343.837 368.1 345.769 359.091 358.855Z" fill="#AAAAAA"/>
<path d="M223.774 387.704C220.135 424.351 239.6 436.473 264.693 412.931C278.657 399.826 279.207 390.138 286.993 370.668C291.86 358.499 300.619 347.782 303.877 334.864C296.726 320.73 253.395 302.336 240.954 312.492C223.817 326.486 225.721 368.094 223.774 387.751V387.704Z" fill="#A3A3A3"/>
<path d="M377.316 220.263C355.86 207.235 345.971 244.337 360.088 257.493C367.438 255.596 373.601 262.854 380.339 266.767C391.467 273.226 402.975 278.671 414.3 284.988C437.891 298.144 458.08 281.987 435.811 258.696C421.327 243.554 394.933 230.938 377.316 220.263Z" fill="#AAAAAA"/>
<path d="M281.775 90.8518C266.089 80.5127 252.735 107.012 262.401 117.119C268.675 116.047 272.702 121.543 277.62 124.663C285.802 129.786 294.408 134.257 302.76 139.287C320.184 149.813 338.922 138.915 324.041 121.124C314.376 109.527 294.578 99.328 281.732 90.8518H281.775Z" fill="#DDDDDD"/>
<path d="M318.878 199.508C308.567 201.702 304.477 206.323 296.467 213.791C280.106 228.961 260.55 243.477 284.069 260.281C284.069 260.281 288.031 258.974 302.389 248.985C312.316 242.077 341.885 225.087 342.226 209.823C342.524 196.147 327.91 197.641 318.92 199.555L318.878 199.508Z" fill="#C3C3C3"/>
<path d="M333.929 260.281C344.976 260.281 345.019 240.568 333.929 240.568C322.838 240.568 322.838 260.281 333.929 260.281Z" fill="#C3C3C3"/>
<path d="M305.809 417.981C325.355 417.981 325.431 382.78 305.809 382.78C286.187 382.78 286.187 417.981 305.809 417.981Z" fill="#C3C3C3"/>
<path d="M431.096 226.488C450.642 226.488 450.718 191.287 431.096 191.287C411.474 191.287 411.474 226.488 431.096 226.488Z" fill="#DDDDDD"/>
<path d="M279.485 272.958C274.341 273.186 271.29 276.971 270.766 282.078C270.287 286.638 271.202 291.426 272.597 295.758C274.08 300.273 278.657 303.693 283.321 302.142C287.594 300.683 290.994 295.758 289.425 290.925C288.901 289.237 288.509 287.596 288.117 285.863C288.117 285.544 288.073 285.225 288.073 284.86C288.073 283.902 288.073 282.99 288.204 282.078C288.684 277.336 283.845 272.776 279.485 272.958Z" fill="#DDDDDD"/>
<path d="M355.148 99.1128C353.262 93.8371 349.013 91.9071 344.461 93.0418C340.394 94.042 336.589 96.5682 333.333 99.4433C329.949 102.469 328.521 108.355 331.383 112.697C334.039 116.661 339.38 118.579 343.009 115.358C344.284 114.259 345.562 113.311 346.919 112.333C347.193 112.228 347.452 112.078 347.765 111.958C348.586 111.643 349.369 111.344 350.194 111.18C354.418 110.12 356.737 103.587 355.148 99.1128Z" fill="#AAAAAA"/>
<path d="M212.545 362.65C210.28 337.774 202.941 313.456 193.316 291.25C179.518 259.373 148.151 276.656 125.429 279.66C117.75 280.677 79.4594 289.967 74.2809 296.929C67.5805 305.95 69.1979 326.972 73.8459 336.975C78.7453 347.511 93.7166 357.721 100.757 366.211C112.023 379.745 124.19 394.311 136.388 407.161C145.702 416.997 152.326 423.528 162.326 424.786C179.469 425.277 197.647 417.128 207.593 402.944C213.699 394.249 213.65 378.304 212.559 362.694L212.545 362.65Z" fill="#DDDDDD"/>
<path d="M148.737 187.683C148.025 186.772 147.314 185.913 146.657 185.27C131.994 170.841 83.4068 176.687 73.0657 195.568C65.6244 209.193 82.039 259.399 94.4046 264.924C97.0309 266.104 101.244 266.104 105.895 265.568C112.242 262.135 118.917 259.238 126.03 257.468C137.465 254.625 162.251 260.15 169.857 248.028C174.672 240.304 171.443 229.093 165.753 217.507C158.804 210.319 153.77 200.825 150.487 190.687C149.886 189.668 149.338 188.649 148.791 187.683H148.737Z" fill="#AAAAAA"/>
<path d="M236.459 127.056C232.151 119.489 221.029 87.5271 213.699 85.442C202.003 81.0753 175.824 90.1807 167.045 96.5813C161.051 100.93 143.971 118.131 142.677 124.939C140.443 136.728 163.143 193.1 174.21 200.741C188.274 210.486 198.384 199.717 209.886 191.606C223.061 182.282 226.519 176.973 233.29 163.186C240.361 148.785 246.243 144.027 236.516 127.033L236.459 127.056Z" fill="#A3A3A3"/>
<path d="M210.194 216.602C206.435 214.101 202.844 215.281 200.437 217.924C197.818 217.829 195.157 219.15 193.425 222.501C189.54 229.957 184.302 238.64 187.005 247.654C188.272 251.948 191.525 255.015 195.03 257.045C197.86 258.696 202 259.451 204.449 261.858C208.251 265.633 215.136 265.68 217.712 259.97C223.203 247.795 221.682 224.2 210.194 216.649V216.602Z" fill="#C3C3C3"/>
<path d="M382.783 277.148C379.024 274.646 375.434 275.826 373.026 278.469C370.408 278.375 367.747 279.696 366.015 283.046C362.129 290.503 356.891 299.186 359.595 308.199C360.862 312.493 364.114 315.561 367.62 317.59C370.45 319.242 374.589 319.997 377.039 322.403C380.84 326.179 387.725 326.226 390.301 320.516C395.792 308.341 394.272 284.745 382.783 277.195V277.148Z" fill="#DDDDDD"/>
<path d="M109.317 87.8898C103.33 83.888 97.6123 85.7757 93.778 90.0039C89.6074 89.8529 85.3696 91.967 82.6117 97.3279C76.4231 109.258 68.0819 123.151 72.387 137.572C74.405 144.443 79.5846 149.351 85.1678 152.598C89.6747 155.24 96.2669 156.448 100.168 160.299C106.222 166.34 117.187 166.415 121.29 157.279C130.035 137.799 127.613 100.046 109.317 87.9653V87.8898Z" fill="#C3C3C3"/>
<path d="M82.7119 379.589C76.6739 389.765 85.5619 416.358 94.2964 421.264C102.295 425.739 113.229 422.669 121.722 421.777C121.678 411.806 107.293 397.65 102.537 389.734C97.467 381.298 90.7008 366.104 82.7119 379.589Z" fill="#A3A3A3"/>
<path d="M215.819 302.958C213.915 314.902 230.226 318.301 232.13 306.31C234.035 294.365 217.723 290.966 215.819 302.958Z" fill="#C3C3C3"/>
<path d="M309.145 356.463C307.241 368.408 323.552 371.807 325.456 359.815C327.361 347.871 311.05 344.471 309.145 356.463Z" fill="#C3C3C3"/>
<path d="M229.935 240.202C228.526 255.514 234.672 270.266 237.147 285.065C238.598 293.795 248.201 298.463 255.413 296.409C258.315 295.569 260.79 294.121 262.967 292.207V213.873C246.963 213.126 231.855 219.522 229.977 240.202H229.935Z" fill="#A3A3A3"/>
<path d="M353.837 315.681C352.315 316.85 349.815 317.237 348.023 318.207C346.768 318.888 345.729 319.941 344.495 320.602C339.993 322.999 338.786 322.666 337.08 327.43C336.394 329.329 336.025 331.043 335.541 332.933C335.237 334.129 333.73 336.957 334.034 338.186C334.762 341.172 341.601 342.613 344.046 342.972C350.604 343.889 364.793 347.514 366.49 338.245C367.175 334.476 363.707 330.169 362.077 326.895C359.99 322.685 358.243 318.327 353.837 315.681Z" fill="#A3A3A3"/>
<path d="M417.705 95.863C410.634 94.3241 402.54 98.9035 396.017 101.362C397.715 108.583 411.442 115.748 416.518 120.441C421.953 125.49 429.823 135.026 433.878 123.507C436.901 114.888 425.415 97.5433 417.705 95.863Z" fill="#C3C3C3"/>
</svg>
