<svg width="512" height="512" viewBox="0 0 512 512" fill="none" xmlns="http://www.w3.org/2000/svg">
<path d="M135.49 258.321V302.521L190.676 343.91V373.652H189.416L115.851 318.478C112.76 316.16 110.941 312.522 110.941 308.658V258.321H135.49Z" fill="#AE5904"/>
<path d="M253.772 431.604L177.769 375.044C173.1 371.57 170.349 366.093 170.349 360.273V266.694H207.172V351.025L275.756 402.064L253.772 431.604Z" fill="#D46C04"/>
<path d="M282.881 253.709V322.458L314.636 346.274L294.449 361.82L263.242 338.415C260.151 336.096 258.333 332.458 258.333 328.595V253.709L282.881 253.709Z" fill="#AE5904"/>
<path d="M281.67 354.846L376.51 283.715V239.516H401.059V289.853C401.059 293.716 399.241 297.354 396.15 299.672L322.585 354.846H281.67Z" fill="#AE5904"/>
<path d="M314.006 232.036V316.367L245.321 367.517L221.656 446.957H290.933V379.438L343.409 340.386C348.078 336.912 350.829 331.435 350.829 325.615V232.036L314.006 232.036Z" fill="#D46C04"/>
<path d="M262.04 198.713H172.866C168.011 179.849 150.887 165.911 130.508 165.911C106.354 165.911 86.7728 185.492 86.7728 209.647C86.7728 215.366 87.882 220.822 89.8779 225.829H73.3012C54.9095 225.829 40 240.739 40 259.13C40 277.522 54.9095 292.432 73.3012 292.432H262.04C287.92 292.432 308.899 271.452 308.899 245.573C308.899 219.692 287.92 198.713 262.04 198.713Z" fill="#FDCC9B"/>
<path d="M375.671 123.791C380.181 118.458 382.906 111.567 382.906 104.035C382.906 87.1269 369.199 73.42 352.29 73.42C342.056 73.42 333 78.447 327.442 86.1615C319.301 72.87 304.647 64 287.92 64C262.34 64 241.604 84.736 241.604 110.315C241.604 112.072 241.711 113.803 241.901 115.509C235.866 109.857 227.76 106.39 218.839 106.39C200.989 106.39 186.385 120.248 185.175 137.791H172.916C146.903 137.791 125.815 158.878 125.815 184.891C125.815 210.904 146.903 231.991 172.916 231.991H227.474V232.384H356.804C387.694 232.384 412.736 207.343 412.736 176.452C412.736 152.184 397.276 131.533 375.671 123.791Z" fill="#FCB975"/>
<path d="M444.863 205.924C445.418 202.937 445.722 199.863 445.722 196.716C445.722 169.05 423.294 146.622 395.628 146.622C385.897 146.622 376.821 149.406 369.134 154.207C357.845 132.16 334.915 117.059 308.444 117.059C270.8 117.059 240.283 147.575 240.283 185.219C240.283 188.283 240.506 191.294 240.898 194.252H235.356C215.401 194.252 199.223 210.429 199.223 230.385C199.223 250.341 215.401 266.518 235.356 266.518H441.616C458.397 266.518 472 252.914 472 236.134C472.001 220.45 460.116 207.544 444.863 205.924Z" fill="#FDCC9B"/>
<rect x="395.207" y="172" width="8" height="16" rx="4" transform="rotate(22.825 395.207 172)" fill="#D46C04"/>
<path d="M389 229C402.255 229 413 218.255 413 205C413 191.745 402.255 181 389 181C375.745 181 365 191.745 365 205C365 218.255 375.745 229 389 229Z" fill="#F97F05"/>
<rect x="258.207" y="216" width="8" height="16" rx="4" transform="rotate(22.825 258.207 216)" fill="#D46C04"/>
<path d="M252 273C265.255 273 276 262.255 276 249C276 235.745 265.255 225 252 225C238.745 225 228 235.745 228 249C228 262.255 238.745 273 252 273Z" fill="#F97F05"/>
<rect x="81.2065" y="259" width="8" height="16" rx="4" transform="rotate(22.825 81.2065 259)" fill="#D46C04"/>
<path d="M75 316C88.2548 316 99 305.255 99 292C99 278.745 88.2548 268 75 268C61.7452 268 51 278.745 51 292C51 305.255 61.7452 316 75 316Z" fill="#F97F05"/>
<rect width="8" height="16" rx="4" transform="matrix(-0.921694 0.387918 0.387918 0.921694 305.793 143)" fill="#D46C04"/>
<path d="M312 200C298.745 200 288 189.255 288 176C288 162.745 298.745 152 312 152C325.255 152 336 162.745 336 176C336 189.255 325.255 200 312 200Z" fill="#F97F05"/>
<rect width="8" height="16" rx="4" transform="matrix(-0.921694 0.387918 0.387918 0.921694 413.793 390)" fill="#D46C04"/>
<path d="M420 447C406.745 447 396 436.255 396 423C396 409.745 406.745 399 420 399C433.255 399 444 409.745 444 423C444 436.255 433.255 447 420 447Z" fill="#F97F05"/>
<rect width="8" height="16" rx="4" transform="matrix(-0.921694 0.387918 0.387918 0.921694 168.793 152)" fill="#D46C04"/>
<path d="M175 209C161.745 209 151 198.255 151 185C151 171.745 161.745 161 175 161C188.255 161 199 171.745 199 185C199 198.255 188.255 209 175 209Z" fill="#F97F05"/>
</svg>
