<svg width="512" height="512" viewBox="0 0 512 512" fill="none" xmlns="http://www.w3.org/2000/svg">
<g clip-path="url(#clip0_129_127)">
<path d="M368.723 399.518C370.178 399.518 371.554 398.868 372.498 397.758C380.108 388.812 384.704 377.213 384.704 364.534C384.704 346.888 375.803 331.334 362.261 322.112C360.608 320.986 359.788 319.005 360.164 317.036C363.233 300.918 358.555 283.611 346.105 271.134C333.657 258.656 316.39 253.966 300.309 257.043C298.345 257.419 296.368 256.598 295.245 254.94C286.045 241.367 270.527 232.445 252.921 232.445C235.316 232.445 219.797 241.367 210.598 254.94C209.474 256.598 207.497 257.419 205.533 257.043C189.452 253.966 172.185 258.655 159.737 271.134C147.288 283.611 142.609 300.918 145.679 317.036C146.054 319.005 145.235 320.986 143.581 322.112C130.039 331.334 121.138 346.888 121.138 364.534C121.138 377.213 125.734 388.812 133.344 397.758C134.288 398.868 135.664 399.518 137.119 399.518H368.723Z" fill="#A78A2D"/>
<path d="M166.973 399.518C168.756 399.518 170.399 398.55 171.274 396.992C173.646 392.772 175.005 387.906 175.005 382.717C175.005 373.097 170.359 364.568 163.197 359.25C161.745 358.171 160.938 356.39 161.211 354.6C162.564 345.729 159.838 336.355 153.022 329.523C146.207 322.69 136.854 319.958 128.003 321.314C126.217 321.588 124.44 320.779 123.364 319.323C118.058 312.144 109.549 307.488 99.9511 307.488C90.353 307.488 81.8434 312.144 76.5382 319.323C75.4621 320.779 73.6852 321.588 71.8987 321.314C63.0482 319.958 53.6964 322.69 46.8798 329.523C40.0641 336.354 37.3371 345.729 38.691 354.6C38.9641 356.39 38.1573 358.171 36.705 359.25C29.5427 364.568 24.8973 373.097 24.8973 382.717C24.8973 387.906 26.2561 392.772 28.6279 396.992C29.5035 398.55 31.1458 399.518 32.9295 399.518H166.973Z" fill="#C5A235"/>
<path d="M315.788 398.558C329.653 398.822 443.253 398.822 457.119 398.558C457.999 398.542 458.86 398.303 459.602 397.828C469.221 391.668 475.603 380.879 475.603 368.59C475.603 356.941 469.868 346.639 461.077 340.351C459.599 339.293 458.843 337.463 459.142 335.668C460.922 324.992 457.71 313.643 449.491 305.406C441.273 297.168 429.95 293.948 419.299 295.732C417.509 296.031 415.682 295.273 414.627 293.792C408.354 284.981 398.076 279.233 386.453 279.233C374.831 279.233 364.553 284.981 358.28 293.792C357.225 295.273 355.399 296.031 353.608 295.732C342.956 293.948 331.634 297.168 323.415 305.406C315.197 313.643 311.984 324.992 313.765 335.668C314.064 337.462 313.307 339.293 311.829 340.351C303.039 346.639 297.304 356.941 297.304 368.59C297.304 380.879 303.686 391.669 313.305 397.828C314.046 398.303 314.908 398.541 315.788 398.558Z" fill="#C5A235"/>
<path d="M479.005 483.091L458.297 418.739L388.458 361.189C360.606 356.996 332.623 353.929 304.525 352.415L310.514 418.1L370.694 485.958H471.107C474.124 485.958 476.767 484.775 479.005 483.091Z" fill="#DFCC90"/>
<path d="M37.5981 378.127C37.2679 378.21 37.0322 378.444 36.7154 378.551C32.025 380.115 28.1093 384.693 27.705 390.124C27.6773 390.472 27.5042 390.771 27.5042 391.126V472.538C27.5042 476.932 29.7436 480.643 32.9952 483.091L111.862 412.582L123.542 361.188C94.6766 365.533 65.9486 370.905 37.5981 378.127Z" fill="#DFCC90"/>
<path d="M370.694 485.958H141.306L146.126 421.723L207.444 352.478C223.511 351.403 240.201 351.136 256 351.136C271.799 351.136 288.489 351.402 304.556 352.478L370.694 485.958Z" fill="#DFCC90"/>
<path d="M484.496 472.538V391.126C484.496 385.447 479.637 379.451 474.402 378.127C446.051 370.906 417.322 365.533 388.457 361.188L479.004 483.091C482.256 480.643 484.496 476.932 484.496 472.538Z" fill="#D6BE72"/>
<path d="M370.694 485.958H256V351.137C271.799 351.137 288.489 351.403 304.556 352.479L370.694 485.958Z" fill="#D6BE72"/>
<path d="M123.542 361.189L32.9952 483.091C35.2329 484.775 37.8758 485.958 40.8926 485.958H141.306L207.477 352.415C179.379 353.928 151.394 356.996 123.542 361.189Z" fill="#D6BE72"/>
</g>
<defs>
<clipPath id="clip0_129_127">
<rect width="432" height="432" fill="white" transform="translate(40 40)"/>
</clipPath>
</defs>
</svg>
