<svg width="512" height="512" viewBox="0 0 512 512" fill="none" xmlns="http://www.w3.org/2000/svg">
<g clip-path="url(#clip0_129_125)">
<path d="M236 176.09V207.102L274.72 236.143V257.011H273.837L222.22 218.298C220.051 216.672 218.775 214.119 218.775 211.409V176.09H236Z" fill="#856356"/>
<path d="M318.992 297.673L265.665 257.987C262.389 255.55 260.459 251.707 260.459 247.624V181.965H286.295V241.135L334.416 276.946L318.992 297.673Z" fill="#9D7465"/>
<path d="M339.416 172.854V221.091L361.696 237.801L347.532 248.709L325.636 232.287C323.467 230.66 322.191 228.107 322.191 225.397V172.854L339.416 172.854Z" fill="#856356"/>
<path d="M338.566 243.816L405.11 193.908V162.896H422.335V198.214C422.335 200.925 421.059 203.477 418.89 205.104L367.273 243.816H338.566Z" fill="#856356"/>
<path d="M361.254 157.648V216.817L313.062 252.706L296.458 308.445H345.065V261.071L381.885 233.67C385.161 231.233 387.091 227.39 387.091 223.307V157.647L361.254 157.648Z" fill="#9D7465"/>
<path d="M324.793 134.266H262.224C258.818 121.03 246.803 111.251 232.504 111.251C215.557 111.251 201.818 124.99 201.818 141.938C201.818 145.95 202.596 149.779 203.996 153.292H192.366C179.461 153.292 169 163.753 169 176.658C169 189.562 179.461 200.023 192.366 200.023H324.793C342.951 200.023 357.671 185.303 357.671 167.145C357.671 148.986 342.951 134.266 324.793 134.266Z" fill="#9D7465"/>
<path d="M404.521 81.698C407.686 77.9564 409.598 73.1208 409.598 67.8365C409.598 55.9729 399.98 46.3556 388.117 46.3556C380.936 46.3556 374.582 49.8827 370.682 55.2955C364.97 45.9697 354.688 39.7461 342.951 39.7461C325.004 39.7461 310.455 54.2954 310.455 72.243C310.455 73.4753 310.53 74.6899 310.663 75.8867C306.429 71.9211 300.741 69.489 294.481 69.489C281.957 69.489 271.71 79.2122 270.861 91.5208H262.26C244.008 91.5208 229.212 106.317 229.212 124.568C229.212 142.82 244.008 157.616 262.26 157.616H300.54V157.892H391.284C412.958 157.892 430.528 140.321 430.528 118.647C430.528 101.62 419.681 87.1298 404.521 81.698Z" fill="#856356"/>
<path d="M453.069 139.326C453.458 137.231 453.672 135.074 453.672 132.865C453.672 113.454 437.936 97.7176 418.524 97.7176C411.696 97.7176 405.328 99.6708 399.934 103.04C392.013 87.5701 375.925 76.9746 357.351 76.9746C330.939 76.9746 309.527 98.3861 309.527 124.799C309.527 126.949 309.683 129.062 309.958 131.137H306.07C292.068 131.137 280.718 142.487 280.718 156.489C280.718 170.491 292.068 181.842 306.07 181.842H450.791C462.565 181.842 472.11 172.297 472.11 160.523C472.11 149.518 463.772 140.463 453.069 139.326Z" fill="#9D7465"/>
<path d="M479.005 430.091L458.297 365.739L388.458 308.189C360.606 303.996 332.623 300.929 304.525 299.415L310.514 365.1L370.694 432.958H471.107C474.124 432.958 476.767 431.775 479.005 430.091Z" fill="#C9B3AA"/>
<path d="M37.5981 325.127C37.2679 325.21 37.0322 325.444 36.7154 325.551C32.025 327.115 28.1093 331.693 27.705 337.124C27.6773 337.472 27.5042 337.771 27.5042 338.126V419.538C27.5042 423.932 29.7436 427.643 32.9952 430.091L111.862 359.582L123.542 308.188C94.6766 312.533 65.9486 317.905 37.5981 325.127Z" fill="#C9B3AA"/>
<path d="M370.694 432.958H141.306L146.126 368.723L207.444 299.478C223.511 298.403 240.201 298.136 256 298.136C271.799 298.136 288.489 298.402 304.556 299.478L370.694 432.958Z" fill="#C9B3AA"/>
<path d="M484.496 419.538V338.126C484.496 332.447 479.637 326.451 474.402 325.127C446.051 317.906 417.322 312.533 388.457 308.188L479.004 430.091C482.256 427.643 484.496 423.932 484.496 419.538Z" fill="#BA9E93"/>
<path d="M370.694 432.958H256V298.137C271.799 298.137 288.489 298.403 304.556 299.479L370.694 432.958Z" fill="#BA9E93"/>
<path d="M123.542 308.189L32.9952 430.091C35.2329 431.775 37.8758 432.958 40.8926 432.958H141.306L207.477 299.415C179.379 300.928 151.394 303.996 123.542 308.189Z" fill="#BA9E93"/>
</g>
<defs>
<clipPath id="clip0_129_125">
<rect width="432" height="379" fill="white" transform="translate(40 40)"/>
</clipPath>
</defs>
</svg>
