<svg width="512" height="512" viewBox="0 0 512 512" fill="none" xmlns="http://www.w3.org/2000/svg">
<g clip-path="url(#clip0_129_127)">
<path d="M368.723 346.518C370.178 346.518 371.554 345.868 372.498 344.758C380.108 335.812 384.704 324.213 384.704 311.534C384.704 293.888 375.803 278.334 362.261 269.112C360.608 267.986 359.788 266.005 360.164 264.036C363.233 247.918 358.555 230.611 346.105 218.134C333.657 205.656 316.39 200.966 300.309 204.043C298.345 204.419 296.368 203.598 295.245 201.94C286.045 188.367 270.527 179.445 252.921 179.445C235.316 179.445 219.797 188.367 210.598 201.94C209.474 203.598 207.497 204.419 205.533 204.043C189.452 200.966 172.185 205.655 159.737 218.134C147.288 230.611 142.609 247.918 145.679 264.036C146.054 266.005 145.235 267.986 143.581 269.112C130.039 278.334 121.138 293.888 121.138 311.534C121.138 324.213 125.734 335.812 133.344 344.758C134.288 345.868 135.664 346.518 137.119 346.518H368.723Z" fill="#A78A2D"/>
<path d="M166.973 346.518C168.756 346.518 170.399 345.55 171.274 343.992C173.646 339.772 175.005 334.906 175.005 329.717C175.005 320.097 170.359 311.568 163.197 306.25C161.745 305.171 160.938 303.39 161.211 301.6C162.564 292.729 159.838 283.355 153.022 276.523C146.207 269.69 136.854 266.958 128.003 268.314C126.217 268.588 124.44 267.779 123.364 266.323C118.058 259.144 109.549 254.488 99.9511 254.488C90.353 254.488 81.8434 259.144 76.5382 266.323C75.4621 267.779 73.6852 268.588 71.8987 268.314C63.0482 266.958 53.6964 269.69 46.8798 276.523C40.0641 283.354 37.3371 292.729 38.691 301.6C38.9641 303.39 38.1573 305.171 36.705 306.25C29.5427 311.568 24.8973 320.097 24.8973 329.717C24.8973 334.906 26.2561 339.772 28.6279 343.992C29.5035 345.55 31.1458 346.518 32.9295 346.518H166.973Z" fill="#C5A235"/>
<path d="M315.788 345.559C329.653 345.822 443.253 345.822 457.119 345.559C457.999 345.543 458.86 345.303 459.602 344.829C469.221 338.669 475.603 327.879 475.603 315.59C475.603 303.941 469.868 293.639 461.077 287.351C459.599 286.294 458.843 284.464 459.142 282.668C460.922 271.992 457.71 260.644 449.491 252.406C441.273 244.169 429.95 240.948 419.299 242.732C417.509 243.032 415.682 242.274 414.627 240.792C408.354 231.982 398.076 226.233 386.453 226.233C374.831 226.233 364.553 231.982 358.28 240.792C357.225 242.274 355.399 243.032 353.608 242.732C342.956 240.948 331.634 244.169 323.415 252.406C315.197 260.644 311.984 271.992 313.765 282.668C314.064 284.463 313.307 286.294 311.829 287.351C303.039 293.639 297.304 303.941 297.304 315.59C297.304 327.88 303.686 338.67 313.305 344.829C314.046 345.303 314.908 345.542 315.788 345.559Z" fill="#C5A235"/>
<path d="M479.005 430.091L458.297 365.739L388.458 308.189C360.606 303.996 332.623 300.929 304.525 299.415L310.514 365.1L370.694 432.958H471.107C474.124 432.958 476.767 431.775 479.005 430.091Z" fill="#DFCC90"/>
<path d="M37.5981 325.127C37.2679 325.21 37.0322 325.444 36.7154 325.551C32.025 327.115 28.1093 331.693 27.705 337.124C27.6773 337.472 27.5042 337.771 27.5042 338.126V419.538C27.5042 423.932 29.7436 427.643 32.9952 430.091L111.862 359.582L123.542 308.188C94.6766 312.533 65.9486 317.905 37.5981 325.127Z" fill="#DFCC90"/>
<path d="M370.694 432.958H141.306L146.126 368.723L207.444 299.478C223.511 298.403 240.201 298.136 256 298.136C271.799 298.136 288.489 298.402 304.556 299.478L370.694 432.958Z" fill="#DFCC90"/>
<path d="M484.496 419.538V338.126C484.496 332.447 479.637 326.451 474.402 325.127C446.051 317.906 417.322 312.533 388.457 308.188L479.004 430.091C482.256 427.643 484.496 423.932 484.496 419.538Z" fill="#D6BE72"/>
<path d="M370.694 432.958H256V298.137C271.799 298.137 288.489 298.403 304.556 299.479L370.694 432.958Z" fill="#D6BE72"/>
<path d="M123.542 308.189L32.9952 430.091C35.2329 431.775 37.8758 432.958 40.8926 432.958H141.306L207.477 299.415C179.379 300.928 151.394 303.996 123.542 308.189Z" fill="#D6BE72"/>
</g>
<defs>
<clipPath id="clip0_129_127">
<rect width="432" height="240" fill="white" transform="translate(40 179)"/>
</clipPath>
</defs>
</svg>
