<svg width="512" height="512" viewBox="0 0 512 512" fill="none" xmlns="http://www.w3.org/2000/svg">
<g clip-path="url(#clip0_129_125)">
<path d="M236 229.09V260.103L274.721 289.143V310.011H273.837L222.22 271.299C220.051 269.672 218.775 267.12 218.775 264.409V229.09H236Z" fill="#856356"/>
<path d="M318.991 350.673L265.664 310.987C262.389 308.55 260.458 304.707 260.458 300.624V234.965H286.295V294.135L334.416 329.946L318.991 350.673Z" fill="#9D7465"/>
<path d="M339.416 225.854V274.091L361.696 290.801L347.532 301.709L325.636 285.287C323.467 283.661 322.191 281.108 322.191 278.397V225.854L339.416 225.854Z" fill="#856356"/>
<path d="M338.566 296.817L405.11 246.909V215.896H422.335V251.215C422.335 253.925 421.059 256.478 418.89 258.104L367.273 296.817H338.566Z" fill="#856356"/>
<path d="M361.254 210.648V269.817L313.062 305.706L296.458 361.445H345.065V314.071L381.885 286.67C385.161 284.233 387.091 280.39 387.091 276.307V210.647L361.254 210.648Z" fill="#9D7465"/>
<path d="M324.793 187.266H262.224C258.818 174.031 246.803 164.251 232.504 164.251C215.557 164.251 201.818 177.99 201.818 194.938C201.818 198.951 202.596 202.779 203.996 206.293H192.366C179.461 206.293 169 216.754 169 229.658C169 242.563 179.461 253.024 192.366 253.024H324.793C342.951 253.024 357.671 238.304 357.671 220.145C357.671 201.987 342.951 187.266 324.793 187.266Z" fill="#9D7465"/>
<path d="M404.521 134.698C407.686 130.956 409.598 126.121 409.598 120.837C409.598 108.973 399.98 99.3556 388.117 99.3556C380.936 99.3556 374.582 102.883 370.682 108.296C364.97 98.9697 354.688 92.7461 342.951 92.7461C325.004 92.7461 310.455 107.295 310.455 125.243C310.455 126.475 310.53 127.69 310.663 128.887C306.429 124.921 300.741 122.489 294.481 122.489C281.957 122.489 271.71 132.212 270.861 144.521H262.26C244.008 144.521 229.212 159.317 229.212 177.568C229.212 195.82 244.008 210.616 262.26 210.616H300.54V210.892H391.284C412.958 210.892 430.528 193.321 430.528 171.647C430.528 154.62 419.681 140.13 404.521 134.698Z" fill="#856356"/>
<path d="M453.069 192.326C453.458 190.231 453.672 188.074 453.672 185.865C453.672 166.454 437.936 150.718 418.524 150.718C411.696 150.718 405.328 152.671 399.934 156.04C392.013 140.57 375.925 129.975 357.351 129.975C330.939 129.975 309.527 151.386 309.527 177.799C309.527 179.949 309.683 182.062 309.958 184.137H306.07C292.068 184.137 280.718 195.487 280.718 209.489C280.718 223.491 292.068 234.842 306.07 234.842H450.791C462.565 234.842 472.11 225.297 472.11 213.523C472.11 202.518 463.772 193.463 453.069 192.326Z" fill="#9D7465"/>
<path d="M479.005 483.091L458.297 418.739L388.458 361.189C360.605 356.996 332.623 353.929 304.525 352.415L310.514 418.1L370.694 485.958H471.107C474.124 485.958 476.767 484.775 479.005 483.091Z" fill="#C9B3AA"/>
<path d="M37.5981 378.127C37.2679 378.21 37.0322 378.444 36.7154 378.551C32.025 380.115 28.1093 384.693 27.705 390.124C27.6773 390.472 27.5042 390.771 27.5042 391.126V472.538C27.5042 476.932 29.7436 480.643 32.9952 483.091L111.862 412.582L123.542 361.188C94.6766 365.533 65.9486 370.905 37.5981 378.127Z" fill="#C9B3AA"/>
<path d="M370.694 485.958H141.306L146.126 421.723L207.444 352.478C223.511 351.403 240.201 351.136 256 351.136C271.799 351.136 288.489 351.402 304.556 352.478L370.694 485.958Z" fill="#C9B3AA"/>
<path d="M484.496 472.538V391.126C484.496 385.447 479.637 379.451 474.402 378.127C446.051 370.906 417.322 365.533 388.457 361.188L479.004 483.091C482.256 480.643 484.496 476.932 484.496 472.538Z" fill="#BA9E93"/>
<path d="M370.694 485.958H256V351.137C271.799 351.137 288.489 351.403 304.556 352.479L370.694 485.958Z" fill="#BA9E93"/>
<path d="M123.542 361.189L32.9951 483.091C35.2328 484.775 37.8756 485.958 40.8925 485.958H141.306L207.477 352.415C179.379 353.928 151.394 356.996 123.542 361.189Z" fill="#BA9E93"/>
</g>
<defs>
<clipPath id="clip0_129_125">
<rect width="432" height="432" fill="white" transform="translate(40 40)"/>
</clipPath>
</defs>
</svg>
