<svg width="512" height="512" viewBox="0 0 512 512" fill="none" xmlns="http://www.w3.org/2000/svg">
<g clip-path="url(#clip0_129_130)">
<path d="M484.496 444.868V297.771C469.783 297.771 455.07 327.188 455.07 327.188C447.714 290.417 410.932 283.063 410.932 283.063C425.644 290.417 425.644 327.188 425.644 327.188C403.575 319.834 403.575 305.126 403.575 305.126C396.219 327.188 366.793 327.188 366.793 327.188C359.436 305.126 381.506 275.709 381.506 275.709C344.724 290.417 322.654 334.543 322.654 334.543C323.554 322.026 326.026 309.672 330.011 297.771C323.289 300.289 317.184 304.217 312.108 309.291C307.032 314.366 303.103 320.468 300.585 327.188C293.229 275.709 256.446 261 256.446 261C285.872 297.771 263.803 341.897 263.803 341.897C234.377 327.188 256.446 297.771 256.446 297.771C247.692 300.266 239.72 304.952 233.284 311.387C226.847 317.821 222.159 325.791 219.664 334.543C227.021 297.771 212.308 275.709 212.308 275.709C212.308 290.417 197.595 305.126 197.595 305.126C195.077 298.405 191.147 292.303 186.072 287.228C180.996 282.154 174.891 278.226 168.169 275.709C190.238 312.48 168.169 334.543 168.169 334.543C153.456 319.834 160.813 297.771 160.813 297.771C138.743 297.771 131.387 319.834 131.387 319.834C116.674 305.126 124.03 283.063 124.03 283.063C94.6047 290.417 94.6047 334.543 94.6047 334.543C94.6047 275.709 57.8225 268.354 57.8225 268.354C64.1891 276.612 68.2289 286.423 69.5225 296.769C70.8161 307.115 69.3163 317.618 65.1789 327.188C50.466 319.834 50.466 297.771 50.466 297.771C50.466 297.771 28.3967 305.126 28.3967 327.188L28.3967 444.868H484.496Z" fill="#D7AC04"/>
<path d="M479.005 483.066L458.297 418.862L388.458 361.445C360.606 357.263 332.623 354.202 304.525 352.692L310.514 418.225L370.694 485.926H471.107C474.124 485.926 476.767 484.746 479.005 483.066Z" fill="#FEDA50"/>
<path d="M37.5981 378.344C37.2679 378.427 37.0322 378.661 36.7154 378.767C32.025 380.328 28.1093 384.896 27.705 390.313C27.6773 390.662 27.5042 390.96 27.5042 391.314V472.537C27.5042 476.921 29.7436 480.624 32.9952 483.066L111.862 412.72L123.542 361.445C94.6766 365.78 65.9486 371.139 37.5981 378.344Z" fill="#FEDA50"/>
<path d="M370.694 485.926H141.306L146.126 421.84L207.444 352.754C223.511 351.682 240.201 351.416 256 351.416C271.799 351.416 288.489 351.682 304.556 352.754L370.694 485.926Z" fill="#FEDA50"/>
<path d="M484.496 472.537V391.314C484.496 385.648 479.637 379.666 474.402 378.344C446.051 371.14 417.322 365.78 388.457 361.445L479.004 483.066C482.256 480.624 484.496 476.921 484.496 472.537Z" fill="#FDCA05"/>
<path d="M370.694 485.926H256V351.417C271.799 351.417 288.489 351.682 304.556 352.755L370.694 485.926Z" fill="#FDCA05"/>
<path d="M123.542 361.445L32.9952 483.066C35.2329 484.746 37.8758 485.926 40.8926 485.926H141.306L207.477 352.692C179.379 354.201 151.394 357.263 123.542 361.445Z" fill="#FDCA05"/>
</g>
<defs>
<clipPath id="clip0_129_130">
<rect width="432" height="432" fill="white" transform="translate(40 40)"/>
</clipPath>
</defs>
</svg>
