<svg width="512" height="512" viewBox="0 0 512 512" fill="none" xmlns="http://www.w3.org/2000/svg">
<path d="M213.177 167.159C191.424 167.159 171.378 174.597 155.441 187.059C152.923 187.505 148.275 188.052 143.081 187.299C133.035 185.839 125.927 180.326 121.35 170.443L100.082 180.292C108.834 199.191 122.935 206.713 134.72 209.534C124.968 224.335 119.283 242.041 119.283 261.052V278.877H142.72V261.052C142.72 222.202 174.327 190.596 213.177 190.596H232.037V167.159L213.177 167.159Z" fill="#AE0227"/>
<path d="M93.5 316.378C114.211 316.378 131 299.589 131 278.878C131 258.167 114.211 241.378 93.5 241.378C72.7893 241.378 56 258.167 56 278.878C56 299.589 72.7893 316.378 93.5 316.378Z" fill="#F80338"/>
<path d="M168.501 316.378C189.212 316.378 206.001 299.589 206.001 278.878C206.001 258.167 189.212 241.378 168.501 241.378C147.791 241.378 131.001 258.167 131.001 278.878C131.001 299.589 147.791 316.378 168.501 316.378Z" fill="#F80338"/>
<path d="M131 353.875C151.711 353.875 168.5 337.086 168.5 316.375C168.5 295.664 151.711 278.875 131 278.875C110.289 278.875 93.5 295.664 93.5 316.375C93.5 337.086 110.289 353.875 131 353.875Z" fill="#FA4F74"/>
<path d="M448.797 178.492L433.109 194.562C442.625 204.781 444.68 219.461 444.68 219.461C444.68 219.461 430.68 224.328 417.242 220.516L410.094 241.805L338.023 198.711L294.93 126.641L316.219 119.492C312.406 106.055 317.266 92.0547 317.266 92.0547C317.266 92.0547 331.953 94.1094 342.172 103.625L358.242 87.9375L371.984 120.875L403.266 81L415.203 100.023C427.367 93.1641 442.125 94.6094 442.125 94.6094C442.125 94.6094 443.57 109.367 436.711 121.531L455.734 133.469L415.852 164.75L448.797 178.492Z" fill="#FB7492"/>
<path d="M300.454 306.005L277.022 305.995L277.027 295.522C277.041 261.724 290.209 229.95 314.108 206.053L356.608 163.552L373.181 180.124L330.681 222.625C311.206 242.099 300.475 267.991 300.464 295.531L300.454 306.005Z" fill="#AE0227"/>
<path d="M348.238 399.107C321.258 399.494 303.152 374.694 308.496 351.331C311.89 334.178 330.662 321.387 348.642 325.688L343.596 348.576C338.079 347.358 332.599 350.86 331.384 356.376C329.599 363.688 334.574 373.404 343.365 375.134C355.538 377.818 367.621 370.097 370.303 357.927C374.005 341.135 363.356 324.463 346.564 320.762C323.996 315.786 301.591 330.099 296.616 352.666L273.728 347.62C281.485 312.434 316.418 290.115 351.61 297.874C381.02 304.358 399.674 333.561 393.191 362.973C388.46 384.438 369.367 399.106 348.238 399.107Z" fill="#AE0227"/>
<path d="M295.788 356.969C289.388 388.898 285.958 422.725 285.983 456H210.983C210.983 422.797 215.092 389.719 223.209 357.516C236.631 310.328 237.936 259.43 224.842 212.188C211.116 162.625 215.374 120.414 230.952 56H260.983C257.147 110.742 252.967 150.93 279.209 210.578C299.889 256.211 305.655 308.156 295.788 356.969Z" fill="#D30330"/>
</svg>
