<svg width="512" height="512" viewBox="0 0 512 512" fill="none" xmlns="http://www.w3.org/2000/svg">
<path d="M384.359 214.751H363.791C364.019 213.698 364.253 212.681 364.505 211.664C367.554 199.083 371.908 188.768 376.709 180.523C389.423 158.59 405.58 152.563 407.71 154.753C409.841 156.943 399.673 175.774 395.149 205.613C394.324 211.053 389.973 214.751 384.359 214.751Z" fill="#0D2FA5"/>
<path d="M357.405 214.751H335.804C330.858 214.751 327.066 211.458 326.529 206.717C322.856 174.28 310.119 154.385 313.174 152.268C316.228 150.151 331.804 156.292 344.471 178.413C349.692 187.542 354.34 199.171 357.168 213.568C357.253 213.952 357.336 214.351 357.405 214.751Z" fill="#0D2FA5"/>
<path d="M380.492 214.752H341.318C343.092 201.243 343.262 189.154 342.59 178.453C340.393 143.323 331.129 119.424 334.594 117.208C338.059 114.992 361.951 130.332 373.752 170.901C377.193 182.695 379.647 196.454 380.387 212.194C380.428 213.037 380.469 213.88 380.492 214.752Z" fill="#0D2FA5"/>
<path d="M433.414 229.116C445.193 246.701 407.717 246.682 411.249 260.573C414.94 275.09 472.734 288.391 471.993 319.986C471.14 356.397 396.516 398.436 260.465 395.246C124.414 392.055 38.8974 351.274 40.0107 303.788C43.0634 173.579 398.497 176.99 433.414 229.116Z" fill="#1243EB"/>
<path d="M181.351 343.989C146.752 343.989 118.703 333.022 118.703 319.494C118.703 305.966 146.752 295 181.351 295C215.951 295 244 305.966 244 319.494C244 333.022 215.951 343.989 181.351 343.989Z" fill="#7D98F4"/>
</svg>
