<svg width="512" height="512" viewBox="0 0 512 512" fill="none" xmlns="http://www.w3.org/2000/svg">
<path d="M87.7174 231.706H112.485C112.21 230.438 111.928 229.213 111.625 227.989C107.953 212.84 102.711 200.419 96.9295 190.491C81.6205 164.08 62.1654 156.823 59.5999 159.46C57.0343 162.097 69.278 184.773 74.7256 220.702C75.7183 227.253 80.9578 231.706 87.7174 231.706Z" fill="#10A0C9"/>
<path d="M120.175 231.707H146.186C152.141 231.707 156.708 227.741 157.354 222.032C161.777 182.974 177.114 159.017 173.436 156.468C169.757 153.919 151.002 161.314 135.749 187.95C129.462 198.943 123.866 212.946 120.461 230.281C120.358 230.744 120.258 231.225 120.175 231.707Z" fill="#10A0C9"/>
<path d="M92.3745 231.706H139.545C137.41 215.44 137.205 200.883 138.014 187.998C140.66 145.696 151.814 116.919 147.642 114.25C143.469 111.582 114.701 130.053 100.49 178.904C96.3476 193.105 93.3918 209.674 92.5006 228.626C92.4515 229.641 92.4024 230.657 92.3745 231.706Z" fill="#10A0C9"/>
<rect x="40" y="218.954" width="432" height="61" fill="#10A0C9"/>
<path d="M242.758 317.75C240.115 320.371 238.311 323.719 237.574 327.368C236.837 331.017 237.201 334.803 238.62 338.244C240.039 341.686 242.449 344.629 245.543 346.698C248.638 348.768 252.277 349.871 256 349.868H472V471.955H312.348C319.82 471.955 326.986 468.987 332.27 463.703C337.553 458.419 340.522 451.253 340.522 443.781C340.522 436.309 337.553 429.143 332.27 423.859C326.986 418.575 319.82 415.607 312.348 415.607H217.026C211.797 415.6 206.674 414.138 202.229 411.385C197.784 408.631 194.193 404.696 191.857 400.017L188.664 393.631C186.329 388.953 182.738 385.017 178.293 382.264C173.848 379.511 168.724 378.049 163.496 378.042H40V255.955H172.887C178.116 255.948 183.239 254.486 187.684 251.732C192.129 248.979 195.72 245.043 198.056 240.365L201.249 233.979C203.584 229.301 207.175 225.365 211.62 222.612C216.065 219.859 221.189 218.397 226.417 218.39H472V274.737H367.287C362.058 274.745 356.935 276.207 352.49 278.96C348.045 281.713 344.454 285.649 342.118 290.327L338.925 296.713C336.59 301.391 332.999 305.327 328.554 308.08C324.109 310.834 318.985 312.296 313.757 312.303C253.84 312.303 249.99 310.518 242.758 317.75Z" fill="#13BCEC"/>
<path d="M472 274.737V349.868H256C252.277 349.871 248.637 348.767 245.543 346.698C242.449 344.628 240.039 341.686 238.62 338.244C237.201 334.803 236.837 331.017 237.574 327.368C238.31 323.719 240.115 320.371 242.758 317.749C250.459 310.049 255.061 312.303 313.756 312.303C318.985 312.295 324.108 310.833 328.553 308.08C332.998 305.327 336.59 301.391 338.925 296.713L342.118 290.327C344.453 285.649 348.045 281.713 352.49 278.96C356.935 276.206 362.058 274.744 367.287 274.737H472Z" fill="#5AD0F2"/>
<path d="M332.257 463.69C320.518 475.429 332.727 471.954 40 471.954V378.041H163.496C168.724 378.048 173.848 379.51 178.293 382.263C182.738 385.017 186.329 388.953 188.664 393.631L191.857 400.017C194.193 404.695 197.784 408.631 202.229 411.384C206.674 414.137 211.797 415.599 217.026 415.606H312.348C317.916 415.611 323.359 417.266 327.987 420.362C332.616 423.458 336.223 427.857 338.354 433.002C340.484 438.147 341.042 443.808 339.957 449.27C338.872 454.732 336.193 459.75 332.257 463.69Z" fill="#7DDAF5"/>
</svg>
