<svg width="384" height="370" viewBox="0 0 384 370" fill="none" xmlns="http://www.w3.org/2000/svg">
<path d="M135.906 343.148L144.449 347.851C145.354 348.35 145.903 349.491 145.622 350.573C145.4 351.428 144.67 352.08 142.77 352.118C138.547 352.202 119.858 349.087 119.858 349.087V351.488L111.124 351.51C111.124 351.51 110.578 339.116 113.219 337.496L135.906 343.148Z" fill="#262722"/>
<path d="M124.461 335.478L135.906 343.148C135.906 343.148 134.433 347.372 127.911 344.557C121.39 341.74 113.219 337.498 113.219 337.498L114.41 334.282L124.461 335.478Z" fill="#E8AF94"/>
<path d="M114.409 334.281L113.219 298.695L124.562 299.445V339.169L114.409 334.281Z" fill="#E8AF94"/>
<path d="M38.7324 343.148L30.1893 347.851C29.284 348.35 28.7353 349.491 29.0162 350.573C29.2384 351.428 29.968 352.08 31.868 352.118C36.0913 352.202 54.7808 349.087 54.7808 349.087V351.597L63.3906 351.488C63.3906 351.488 64.0605 339.115 61.4194 337.496L38.7324 343.148Z" fill="#262722"/>
<path d="M50.1774 335.478L38.7324 343.148C38.7324 343.148 40.2049 347.372 46.7268 344.557C53.2487 341.74 61.4195 337.498 61.4195 337.498L60.228 334.282L50.1774 335.478Z" fill="#E8AF94"/>
<path d="M60.2284 334.281L69.1868 298.695L57.8428 299.445L49.0898 339.982L60.2284 334.281Z" fill="#E8AF94"/>
<path d="M118.384 137.666C118.384 137.666 133.876 159.861 133.456 184.126C133.036 208.391 127.969 323.503 127.969 323.503H109.529L103.692 173.085L101.257 172.937L67.9454 323.564L50.7354 321.741L70.7348 185.533C72.1036 176.783 74.4497 168.205 77.8564 160.03C80.7679 153.042 84.762 145.089 89.7527 138.924L118.384 137.666Z" fill="#E180A0"/>
<path d="M95.7617 174.222L107.553 172.167" stroke="black" stroke-width="0.9147" stroke-miterlimit="10" stroke-linecap="round" stroke-linejoin="round"/>
<path d="M86.4108 152.271L80.7256 168.633" stroke="#D4688F" stroke-width="0.9519" stroke-miterlimit="10" stroke-linecap="round" stroke-linejoin="round"/>
<path d="M77.7699 44.2835C77.7699 44.2835 76.4792 57.2062 61.8163 67.6045C46.1815 78.6921 57.8328 109.381 86.5404 107.949C117.726 106.395 130.666 66.3323 110.321 35.9028L77.7699 44.2835Z" fill="#A74B22"/>
<path d="M99.641 82.4033L80.74 87.7144C75.2849 89.2475 70.9132 95.0353 72.5612 100.457L89.5807 138.971L118.384 137.666L128.508 95.9379C129.377 90.2686 123.497 85.1208 117.798 84.471L99.641 82.4033Z" fill="#7B97FB"/>
<path d="M80.7402 87.7154L99.6413 82.4043L117.799 84.472L117.423 84.7872C107.065 93.4708 92.345 94.6456 80.7402 87.7154Z" fill="#E0A78F"/>
<path d="M142.083 134.008L120.562 153.107L124.327 159.608L149.178 144.463C153.198 141.899 155.033 136.826 153.246 132.406C153.158 132.187 153.062 131.971 152.96 131.758L150.075 125.756L142.083 134.008Z" fill="#E0A78F"/>
<path d="M135.45 96.2558L153.356 126.879C154.231 129.071 153.079 131.547 150.84 132.289L142.208 135.148C140.892 135.584 139.443 135.227 138.493 134.217C135.316 130.839 121.361 120.195 121.803 107.189L116.843 98.3068L117.797 84.4719C127.049 85.5879 133.731 92.0387 135.45 96.2558Z" fill="#7B97FB"/>
<path d="M123.749 116.358L127.751 103.197" stroke="black" stroke-width="0.865" stroke-miterlimit="10" stroke-linecap="round" stroke-linejoin="round"/>
<path d="M127.752 154.038C127.279 154.459 124.47 166.962 124.47 166.962L120.563 153.106L127.752 154.038Z" fill="#E0A78F"/>
<path d="M120.071 151.494L124.968 168.715" stroke="#D4688F" stroke-width="0.9519" stroke-miterlimit="10" stroke-linecap="round" stroke-linejoin="round"/>
<path d="M66.1266 100.24L51.8465 132.712C51.2284 134.99 52.656 137.317 54.9661 137.798L61.6987 139.315C63.0562 139.597 63.8973 142.823 64.7253 141.711C67.4945 137.991 82.866 122.408 80.937 109.537L84.8468 100.145L80.7421 87.7146C71.6783 89.8833 67.3523 95.8529 66.1266 100.24Z" fill="#7B97FB"/>
<path d="M80.0526 118.869L74.5703 106.253" stroke="black" stroke-width="0.865" stroke-miterlimit="10" stroke-linecap="round" stroke-linejoin="round"/>
<path d="M32.9699 97.863L26.2627 100.611L53.2881 139.27C55.4287 143.572 61.0146 144.763 64.7242 141.71C67.8087 139.172 68.3513 134.657 65.9552 131.46L32.9699 97.863Z" fill="#E0A78F"/>
<path d="M33.276 99.8077L34.6387 97.7759C35.6379 96.2868 36.0672 94.4878 35.8486 92.708L35.2401 87.7472C35.2401 87.7472 34.9653 85.1255 30.008 86.871C25.0508 88.6164 24.7575 88.713 25.1438 90.2136C25.1438 90.2136 26.5293 92.111 29.9079 91.8256L33.276 99.8077Z" fill="#E0A78F"/>
<path d="M26.9873 101.947C26.9873 101.947 21.3522 100.248 19.2116 91.4841C18.9649 90.4744 19.2599 89.4023 19.9877 88.6613C21.1081 87.5198 24.4024 84.5451 26.7195 85.4899L31.2387 89.2864L33.2765 99.8086L26.9873 101.947Z" fill="#E0A78F"/>
<path d="M31.6414 87.5884L31.3797 72.7815C31.3639 71.8991 30.6431 71.1932 29.7606 71.1958C28.88 71.1984 28.1635 71.907 28.1512 72.7877L27.9941 84.0631L26.8527 84.5487L20.3869 74.5727C19.9321 73.872 18.9856 73.6903 18.3043 74.174C17.7081 74.5972 17.5141 75.3945 17.8486 76.0442L25.1432 90.2137L31.6414 87.5884Z" fill="#E0A78F"/>
<path d="M31.6204 86.4155C31.6204 86.4155 24.5612 87.2505 25.1424 90.2138C25.1424 90.2138 25.4717 92.4537 29.9065 91.8259C29.9065 91.8259 27.348 93.1798 27.8959 96.2476" stroke="#B9635E" stroke-width="0.6407" stroke-miterlimit="10" stroke-linecap="round" stroke-linejoin="round"/>
<path d="M87.3144 58.6856C87.6366 61.5357 85.5873 64.1074 82.7373 64.4296C79.8873 64.7519 77.3155 62.7026 76.9933 59.8525C76.6711 57.0025 78.7204 54.4308 81.5713 54.1085C84.4213 53.7863 86.9922 55.8356 87.3144 58.6856Z" fill="#E0A78F"/>
<path d="M79.1553 58.7891C79.1553 58.7891 81.1282 57.6135 83.3917 61.0228" stroke="#B9635E" stroke-width="0.6612" stroke-miterlimit="10" stroke-linecap="round" stroke-linejoin="round"/>
<path d="M106.221 57.237C106.462 60.0949 108.975 62.2162 111.833 61.9747C114.691 61.7333 116.812 59.2213 116.571 56.3625C116.329 53.5045 113.817 51.3832 110.959 51.6247C108.101 51.8661 105.98 54.379 106.221 57.237Z" fill="#E0A78F"/>
<path d="M114.244 55.7433C114.244 55.7433 112.079 54.9759 110.526 58.7619" stroke="#B9635E" stroke-width="0.6612" stroke-miterlimit="10" stroke-linecap="round" stroke-linejoin="round"/>
<path d="M96.9714 62.0826C106.803 61.2529 114.144 53.1414 113.37 43.9651C112.595 34.7888 103.998 28.0225 94.1669 28.8522C84.3359 29.6819 76.994 37.7934 77.7685 46.9697C78.5429 56.146 87.1404 62.9123 96.9714 62.0826Z" fill="#A74B22"/>
<path d="M102.639 67.9426C102.639 67.9426 100.574 70.1868 98.5754 70.8647C96.577 71.5416 94.4592 70.164 94.432 70.1473C94.4048 70.1306 91.8945 68.559 91.8945 68.559L92.3757 85.6715L92.6646 85.9332C96.4453 89.3645 101.441 88.9948 104.629 85.0473L105.096 84.4695L102.639 67.9426Z" fill="#E0A78F"/>
<path d="M90.0928 66.4446C90.0928 66.4446 93.8041 76.1546 98.9212 75.6243C103.127 75.1879 103.512 65.8098 103.512 65.8098L90.0928 66.4446Z" fill="#1E0B02"/>
<path d="M109.928 47.1783C110.429 52.7748 110.026 57.6785 109.5 61.181C108.983 64.6096 106.897 67.1602 103.82 69.3386L103.26 69.7355C100.004 72.0403 95.5707 72.4837 91.9112 70.8716C88.22 69.2455 85.5289 66.9065 84.448 63.3734C82.483 56.9472 81.6831 49.7079 81.6831 49.7079C81.6831 49.7079 79.2247 34.664 94.482 33.5743C109.738 32.4847 109.928 47.1783 109.928 47.1783Z" fill="#E0A78F"/>
<path d="M95.2266 56.2148L95.4109 58.4029L96.9071 58.2764" stroke="#B9635E" stroke-width="0.6612" stroke-miterlimit="10" stroke-linecap="round" stroke-linejoin="round"/>
<path d="M84.2109 49.224L92.2079 47.8174C92.2079 47.8174 91.3097 45.7901 88.0804 46.4038C84.7764 47.0316 84.2109 49.224 84.2109 49.224Z" fill="black"/>
<path d="M106.361 47.3529L98.2422 47.3064C98.2422 47.3064 98.7874 45.1579 102.074 45.2211C105.437 45.2869 106.361 47.3529 106.361 47.3529Z" fill="black"/>
<path d="M90.883 53.5964C90.9409 54.2778 90.4352 54.8766 89.7538 54.9336C89.0725 54.9907 88.4737 54.4858 88.4166 53.8045C88.3587 53.1232 88.8644 52.5244 89.5458 52.4673C90.2271 52.4102 90.8259 52.9159 90.883 53.5964Z" fill="#1E0B02"/>
<path d="M102.983 52.5755C103.041 53.2569 102.535 53.8557 101.853 53.9128C101.172 53.9698 100.573 53.465 100.516 52.7836C100.458 52.1023 100.964 51.5035 101.645 51.4464C102.327 51.3885 102.926 51.8942 102.983 52.5755Z" fill="#1E0B02"/>
<path d="M91.9004 61.8271C91.9004 61.8271 95.4827 63.404 100.847 61.072" stroke="black" stroke-width="0.6612" stroke-miterlimit="10" stroke-linecap="round" stroke-linejoin="round"/>
<path d="M109.637 43.7363C109.637 43.7363 87.2775 46.4713 87.1133 33.2369C87.1133 33.2369 106.192 26.0469 109.637 43.7363Z" fill="#A74B22"/>
<path d="M81.0464 46.1614C81.0464 46.1614 88.6483 42.1981 87.9661 34.1221C87.9661 34.1221 79.9673 35.7359 81.0464 46.1614Z" fill="#A74B22"/>
<path d="M178.463 315.535L176.761 338.964L166.655 339.302L165.977 310.439L178.463 315.535Z" fill="#E8B499"/>
<path d="M177.226 336.3C177.226 336.3 170.164 340.735 166.443 333.922L139.158 348.403L181.653 348.143L177.226 336.3Z" fill="#DA4412"/>
<path d="M181.652 348.155L139.156 348.414L139.179 352.13L181.675 351.871L181.652 348.155Z" fill="white"/>
<path d="M163.209 341.008C163.096 340.961 162.993 340.885 162.914 340.784C161.263 338.619 159.605 337.552 159.588 337.54C159.262 337.332 159.173 336.912 159.391 336.6C159.609 336.288 160.057 336.212 160.378 336.411C160.455 336.458 162.256 337.611 164.07 339.986C164.3 340.29 164.23 340.714 163.911 340.935C163.7 341.079 163.433 341.099 163.209 341.008Z" fill="white"/>
<path d="M159.736 342.745C159.623 342.698 159.52 342.623 159.441 342.521C157.79 340.357 156.132 339.289 156.115 339.278C155.789 339.07 155.7 338.649 155.919 338.337C156.137 338.026 156.586 337.946 156.906 338.148C156.982 338.196 158.783 339.349 160.597 341.724C160.828 342.028 160.758 342.452 160.439 342.672C160.227 342.816 159.96 342.836 159.736 342.745Z" fill="white"/>
<path d="M156.266 344.481C156.152 344.434 156.05 344.359 155.971 344.257C154.319 342.094 152.66 341.026 152.644 341.014C152.317 340.806 152.229 340.386 152.447 340.074C152.665 339.763 153.114 339.682 153.434 339.885C153.51 339.933 155.311 341.086 157.125 343.46C157.357 343.763 157.286 344.188 156.967 344.408C156.756 344.553 156.49 344.572 156.266 344.481Z" fill="white"/>
<path d="M206.272 315.535L207.975 338.964L218.08 339.302L218.759 310.439L206.272 315.535Z" fill="#E8B499"/>
<path d="M207.508 336.3C207.508 336.3 214.57 340.735 218.292 333.921L245.576 348.403L203.081 348.143L207.508 336.3Z" fill="#DA4412"/>
<path d="M203.082 348.133L203.06 351.848L245.556 352.108L245.578 348.392L203.082 348.133Z" fill="white"/>
<path d="M221.525 341.007C221.639 340.961 221.741 340.885 221.82 340.783C223.472 338.619 225.13 337.551 225.146 337.54C225.473 337.332 225.562 336.911 225.343 336.6C225.125 336.288 224.678 336.212 224.356 336.411C224.28 336.458 222.479 337.611 220.665 339.986C220.434 340.29 220.505 340.714 220.823 340.934C221.035 341.079 221.302 341.099 221.525 341.007Z" fill="white"/>
<path d="M224.997 342.745C225.111 342.698 225.213 342.623 225.292 342.521C226.944 340.356 228.602 339.289 228.618 339.277C228.945 339.069 229.034 338.649 228.815 338.337C228.597 338.026 228.148 337.945 227.828 338.148C227.752 338.196 225.951 339.349 224.138 341.724C223.907 342.027 223.977 342.451 224.296 342.672C224.507 342.816 224.774 342.836 224.997 342.745Z" fill="white"/>
<path d="M228.47 344.481C228.584 344.434 228.686 344.359 228.766 344.257C230.417 342.093 232.076 341.026 232.092 341.014C232.419 340.806 232.508 340.386 232.289 340.074C232.071 339.763 231.623 339.682 231.302 339.885C231.226 339.932 229.425 341.085 227.611 343.459C227.379 343.762 227.45 344.187 227.769 344.408C227.98 344.553 228.247 344.572 228.47 344.481Z" fill="white"/>
<path d="M218.692 162.946C218.692 162.946 221.936 183.344 221.833 254.346L224.134 327.864H201.932L198.549 255.095L193.855 190.114H185.096V162.946H218.692Z" fill="#262722"/>
<path d="M166.891 162.946C166.891 162.946 163.648 184.162 163.751 255.163L161.449 327.864H183.652L186.184 255.095L191.729 190.114H200.488V162.946H166.891Z" fill="#262722"/>
<path d="M182.643 190.114H199.669" stroke="#494949" stroke-width="0.9528" stroke-miterlimit="10" stroke-linecap="round" stroke-linejoin="round"/>
<path d="M163.432 151.668L153.815 196.382L147.464 196.053C147.464 196.053 149.497 168.392 151.855 149.895C152.229 146.961 156.01 144.567 158.905 145.175C161.618 145.746 164 148.956 163.432 151.668Z" fill="#E8B499"/>
<path d="M153.081 193.43C153.081 193.43 156.211 198.33 154.278 204.57L155.707 210.668C155.929 211.615 155.468 212.606 154.627 212.991C153.716 213.408 152.677 212.975 152.278 212.012L150.853 208.567L150.703 209.885C150.464 211.978 150.885 214.085 151.897 215.863L154.778 220.925C155.105 221.501 155.114 222.23 154.799 222.827C154.19 223.981 152.708 224.131 151.948 223.115L147.383 217.016C145.614 214.653 144.888 211.561 145.392 208.534L148.096 192.263L153.081 193.43Z" fill="#E8B499"/>
<path d="M151.856 149.896L157.497 111.678L170.603 115.943L163.299 152.201L151.856 149.896Z" fill="#E8B499"/>
<path d="M171.619 95.811C171.619 95.811 162.767 96.8664 158.219 108.594C153.646 120.385 148.058 132.687 148.058 132.687L167.87 143.728L171.619 95.811Z" fill="#4E8985"/>
<path d="M230.118 158.1L273.394 134.531L270.774 125.333C270.774 125.333 240.612 138.178 224.248 147.114C221.652 148.532 220.8 153.778 222.423 156.252C223.942 158.569 227.799 159.617 230.118 158.1Z" fill="#E8B499"/>
<path d="M233.692 150.07L224.732 111.677L211.626 115.943L221.925 155.232L233.692 150.07Z" fill="#E8B499"/>
<path d="M212.297 95.5098C212.297 95.5098 221.872 96.6442 226.741 108.594C231.513 120.306 236.257 131.115 236.257 131.115L217.165 142.945L212.297 95.5098Z" fill="#4E8985"/>
<path d="M216.741 97.2991C213.343 95.1954 207.823 94.6694 207.823 94.6694L192.476 96.2183L177.129 94.6694C177.129 94.6694 171.609 95.1963 168.211 97.2991L168.086 132.649L161.229 181.242L224.138 181.582L216.92 133.284L216.741 97.2991Z" fill="#4E8985"/>
<path d="M171.618 95.8111L189.705 91.0583H195.942L212.298 95.509C203.934 103.35 183.173 109.777 172.553 96.1754L171.618 95.8111Z" fill="#E8B499"/>
<path d="M166.77 142.944L167.87 131.627L166.569 114.63" stroke="black" stroke-width="0.9528" stroke-miterlimit="10" stroke-linecap="round" stroke-linejoin="round"/>
<path d="M218.039 142.072L217.024 131.627L218.707 114.469" stroke="black" stroke-width="0.9528" stroke-miterlimit="10" stroke-linecap="round" stroke-linejoin="round"/>
<path d="M219.343 79.5275C219.168 78.0735 219.283 76.5818 219.65 75.1796C221.508 68.0562 219.382 61.9891 215.628 57.4559C212.232 53.3547 211.386 47.2876 211.386 47.2876C208.891 39.0694 200.441 33.3684 192.751 33.3684C185.059 33.3684 176.636 38.741 174.142 46.9592C174.142 46.9592 173.016 53.4653 169.873 57.4559C166.234 62.0769 163.993 68.0571 165.852 75.1796C166.218 76.5809 166.333 78.0726 166.158 79.5275C166.029 80.6013 165.736 81.7164 165.122 82.4882H220.38C219.765 81.7164 219.472 80.6022 219.343 79.5275Z" fill="#DA4412"/>
<path d="M183.171 63.8928C183.255 66.8789 180.903 69.3681 177.916 69.4533C174.93 69.5375 172.44 67.1853 172.356 64.1992C172.271 61.2131 174.624 58.723 177.61 58.6387C180.597 58.5535 183.087 60.9066 183.171 63.8928Z" fill="#E8B499"/>
<path d="M174.691 63.2851C174.691 63.2851 176.843 62.2376 178.893 65.9744" stroke="#C47268" stroke-width="0.6887" stroke-miterlimit="10" stroke-linecap="round" stroke-linejoin="round"/>
<path d="M208.331 69.4549C211.319 69.4549 213.741 67.033 213.741 64.0454C213.741 61.0579 211.319 58.636 208.331 58.636C205.344 58.636 202.922 61.0579 202.922 64.0454C202.922 67.033 205.344 69.4549 208.331 69.4549Z" fill="#E8B499"/>
<path d="M211.38 63.1991C211.38 63.1991 209.201 62.2122 207.257 66.0061" stroke="#C47268" stroke-width="0.6887" stroke-miterlimit="10" stroke-linecap="round" stroke-linejoin="round"/>
<path d="M209.429 57.6831C211.603 48.5552 205.966 39.3932 196.838 37.2191C187.71 35.045 178.548 40.6822 176.374 49.8101C174.2 58.938 179.837 68.1001 188.965 70.2741C198.093 72.4482 207.255 66.811 209.429 57.6831Z" fill="#DA4412"/>
<path d="M198.272 74.8433C198.272 74.8433 195.931 76.9918 193.797 77.5195C191.662 78.0472 189.584 76.4308 189.558 76.4114C189.531 76.3921 187.061 74.5413 187.061 74.5413L186.061 92.3448L186.337 92.6416C189.962 96.5347 195.182 96.5883 198.838 92.7707L199.373 92.2122L198.272 74.8433Z" fill="#E8B499"/>
<path d="M185.376 72.1892C185.376 72.1892 188.379 82.5928 193.737 82.491C198.142 82.4067 199.365 72.7064 199.365 72.7064L185.376 72.1892Z" fill="#1E0B02"/>
<path d="M207.649 53.9307C207.679 59.7826 206.831 64.8374 205.978 68.4258C205.142 71.9397 202.752 74.4034 199.367 76.3947L198.751 76.7573C195.169 78.8637 190.529 78.9366 186.872 76.9417C183.183 74.9302 180.595 72.2672 179.784 68.5057C178.308 61.6642 178.112 54.079 178.112 54.079C178.112 54.079 176.878 38.2493 192.81 38.4556C208.74 38.6637 207.649 53.9307 207.649 53.9307Z" fill="#E8B499"/>
<path d="M191.6 62.6003V64.9183H193.162" stroke="#C47268" stroke-width="0.6887" stroke-miterlimit="10" stroke-linecap="round" stroke-linejoin="round"/>
<path d="M180.778 53.8L189.201 53.0406C189.201 53.0406 188.447 50.8578 185.041 51.2117C181.557 51.5743 180.778 53.8 180.778 53.8Z" fill="black"/>
<path d="M203.934 53.8L195.511 53.0406C195.511 53.0406 196.265 50.8578 199.671 51.2117C203.156 51.5743 203.934 53.8 203.934 53.8Z" fill="black"/>
<path d="M187.781 67.0564H196.978C196.978 67.0564 196.626 69.4551 192.215 69.4551C188.595 69.4551 187.781 67.0564 187.781 67.0564Z" fill="white"/>
<path d="M188.21 59.4799C188.21 59.4799 186.03 57.6975 184.118 59.4799" stroke="#1E0B02" stroke-width="0.9565" stroke-miterlimit="10" stroke-linecap="round" stroke-linejoin="round"/>
<path d="M200.52 59.4799C200.52 59.4799 198.813 57.6519 196.532 59.4799" stroke="#1E0B02" stroke-width="0.9565" stroke-miterlimit="10" stroke-linecap="round" stroke-linejoin="round"/>
<path opacity="0.23" d="M184.127 53.6568L190.301 62.0383C190.301 62.0383 188.438 65.5978 185.472 65.2018L179.241 57.0248C179.241 57.0248 180.927 53.4302 184.127 53.6568Z" fill="white"/>
<path opacity="0.23" d="M199.312 53.6568L205.485 62.0383C205.485 62.0383 203.623 65.5978 200.657 65.2018L194.426 57.0248C194.426 57.0248 196.111 53.4302 199.312 53.6568Z" fill="white"/>
<path d="M190.791 59.4797C190.791 62.8136 188.089 65.5161 184.755 65.5161C181.421 65.5161 178.719 62.8136 178.719 59.4797C178.719 56.1459 181.421 53.4434 184.755 53.4434C188.089 53.4434 190.791 56.1459 190.791 59.4797Z" stroke="white" stroke-width="0.4927" stroke-miterlimit="10"/>
<path d="M205.995 59.4797C205.995 62.8136 203.292 65.5161 199.958 65.5161C196.624 65.5161 193.922 62.8136 193.922 59.4797C193.922 56.1459 196.624 53.4434 199.958 53.4434C203.292 53.4434 205.995 56.1459 205.995 59.4797Z" stroke="white" stroke-width="0.4927" stroke-miterlimit="10"/>
<path d="M190.792 59.4796C190.792 59.4796 192.516 58.8448 193.92 59.4796" stroke="white" stroke-width="0.4927" stroke-miterlimit="10"/>
<path d="M176.577 50.3335C176.577 50.3335 190.778 47.6301 193.71 37.0307C193.71 37.0307 178.602 31.6704 176.577 50.3335Z" fill="#DA4412"/>
<path d="M207.649 50.3335C207.649 50.3335 193.449 47.6301 190.517 37.0307C190.517 37.0307 205.624 31.6704 207.649 50.3335Z" fill="#DA4412"/>
<path d="M300.621 23.4226C300.621 23.4226 308.593 19.8701 311.419 26.5869C314.139 33.0535 303.335 39.2155 303.335 39.2155L300.621 23.4226Z" fill="#1E0B02"/>
<path d="M285.711 50.2321C285.796 53.2182 283.443 55.7083 280.457 55.7926C277.471 55.8768 274.981 53.5246 274.897 50.5385C274.812 47.5524 277.165 45.0623 280.151 44.978C283.137 44.8937 285.627 47.2459 285.711 50.2321Z" fill="#C67D69"/>
<path d="M277.232 49.6244C277.232 49.6244 279.384 48.577 281.434 52.3138" stroke="#A8523F" stroke-width="0.7482" stroke-miterlimit="10" stroke-linecap="round" stroke-linejoin="round"/>
<path d="M310.871 55.7943C313.859 55.7943 316.281 53.3724 316.281 50.3848C316.281 47.3972 313.859 44.9753 310.871 44.9753C307.884 44.9753 305.462 47.3972 305.462 50.3848C305.462 53.3724 307.884 55.7943 310.871 55.7943Z" fill="#C67D69"/>
<path d="M313.92 49.5385C313.92 49.5385 311.74 48.5525 309.797 52.3455" stroke="#A8523F" stroke-width="0.7482" stroke-miterlimit="10" stroke-linecap="round" stroke-linejoin="round"/>
<path d="M302.529 62.8498C302.529 62.8498 299.478 65.0018 296.7 65.533C293.921 66.0642 291.218 64.4513 291.184 64.4311C291.15 64.4109 287.939 62.5645 287.939 62.5645L286.609 80.3698L286.969 80.6665C291.682 84.5535 298.475 84.6 303.24 80.7772L303.937 80.2179L302.529 62.8498Z" fill="#C67D69"/>
<path d="M286.608 60.6926C286.608 60.6926 289.639 70.6142 296.614 70.5045C302.348 70.414 303.272 60.6926 303.272 60.6926H286.608Z" fill="#1E0B02"/>
<path d="M310.194 40.9679C310.225 47.0824 309.379 52.3637 308.525 56.1128C307.69 59.7838 305.301 62.3582 301.916 64.4382L301.3 64.8166C297.719 67.0169 293.079 67.0916 289.421 65.0071C285.733 62.9052 283.143 60.1219 282.33 56.191C280.853 49.0422 280.655 41.1172 280.655 41.1172C280.655 41.1172 278.579 24.5771 294.509 24.7966C310.442 25.0161 310.194 40.9679 310.194 40.9679Z" fill="#C67D69"/>
<path d="M288.555 47.1081C289.266 47.1081 289.843 46.5311 289.843 45.8192C289.843 45.1073 289.266 44.5303 288.555 44.5303C287.843 44.5303 287.266 45.1073 287.266 45.8192C287.266 46.5311 287.843 47.1081 288.555 47.1081Z" fill="#1E0B02"/>
<path d="M301.204 47.1081C301.916 47.1081 302.493 46.5311 302.493 45.8192C302.493 45.1073 301.916 44.5303 301.204 44.5303C300.492 44.5303 299.915 45.1073 299.915 45.8192C299.915 46.5311 300.492 47.1081 301.204 47.1081Z" fill="#1E0B02"/>
<path d="M293.71 47.7017V51.2576H296.007" stroke="#A8523F" stroke-width="0.7482" stroke-miterlimit="10" stroke-linecap="round" stroke-linejoin="round"/>
<path d="M283.751 40.3701L292.175 39.6106C292.175 39.6106 291.42 37.4279 288.015 37.7817C284.53 38.1443 283.751 40.3701 283.751 40.3701Z" fill="black"/>
<path d="M305.464 40.3701L297.041 39.6106C297.041 39.6106 297.795 37.4279 301.201 37.7817C304.685 38.1443 305.464 40.3701 305.464 40.3701Z" fill="black"/>
<path d="M290.826 54.2024H299.136C299.136 54.2024 298.745 56.7478 294.858 56.7478C290.97 56.7478 290.826 54.2024 290.826 54.2024Z" fill="white"/>
<path d="M281.198 48.9441C281.198 48.9441 283.556 31.0554 282.402 28.1079C282.402 28.1079 274.38 34.7448 281.198 48.9441Z" fill="#1E0B02"/>
<path d="M309.592 48.8011C309.592 48.8011 306.938 31.7184 307.674 26.8032C307.674 26.8032 315.421 33.6658 309.592 48.8011Z" fill="#1E0B02"/>
<path d="M307.121 25.5853L299.776 24.4746L299.129 23.2041L295.252 23.7906L291.376 23.2041L290.729 24.4746L283.383 25.5853L282.403 29.5153L282.645 34.0459C282.645 34.0459 283.807 28.9068 287.855 29.9306C288.809 30.172 289.952 30.5715 291.288 30.8411C292.536 31.1133 293.725 31.2362 294.847 31.2555C294.979 31.259 295.117 31.2555 295.251 31.2564C295.387 31.2555 295.524 31.259 295.656 31.2555C296.778 31.2362 297.967 31.1133 299.215 30.8411C300.55 30.5715 301.718 30.2537 302.648 29.9306C306.4 28.625 307.782 33.8114 307.782 33.8114L308.099 29.5153L307.121 25.5853Z" fill="#1E0B02"/>
<path d="M306.974 30.056C306.974 30.056 302.197 34.3188 296.076 31.0438C296.076 31.0438 280.506 40.6361 276.11 30.1939C272.446 21.4883 287.656 9.67462 303.349 22.9871L306.974 30.056Z" fill="#1E0B02"/>
<path d="M314.165 303.343L316.684 334.665L330.53 335.101L330.564 297.953L314.165 303.343Z" fill="#C67D69"/>
<path d="M316.418 331.349C316.418 331.349 326.014 336.945 330.804 328.177L365.919 346.815L311.228 346.48L316.418 331.349Z" fill="#101010"/>
<mask id="mask0_3176_57601" style="mask-type:luminance" maskUnits="userSpaceOnUse" x="311" y="328" width="55" height="19">
<path d="M316.417 331.349C316.417 331.349 326.013 336.945 330.803 328.177L365.918 346.814L311.227 346.48L316.417 331.349Z" fill="white"/>
</mask>
<g mask="url(#mask0_3176_57601)">
<path d="M359.662 335.708C359.662 335.708 346.162 337.727 347.201 354.516L370.566 348.112L359.662 335.708Z" fill="white"/>
</g>
<path d="M311.225 346.467L311.196 351.25L365.89 351.583L365.919 346.801L311.225 346.467Z" fill="white"/>
<path d="M334.965 337.295C335.111 337.235 335.243 337.138 335.344 337.006C337.469 334.221 339.603 332.846 339.624 332.832C340.045 332.564 340.159 332.023 339.877 331.621C339.597 331.219 339.021 331.122 338.608 331.378C338.509 331.44 336.191 332.923 333.858 335.979C333.56 336.37 333.651 336.916 334.061 337.199C334.333 337.387 334.677 337.413 334.965 337.295Z" fill="white"/>
<path d="M339.435 339.532C339.58 339.472 339.713 339.374 339.814 339.243C341.939 336.458 344.073 335.083 344.094 335.069C344.515 334.801 344.629 334.259 344.347 333.858C344.067 333.458 343.488 333.354 343.077 333.615C342.979 333.676 340.661 335.159 338.327 338.215C338.03 338.606 338.121 339.152 338.531 339.436C338.802 339.624 339.147 339.648 339.435 339.532Z" fill="white"/>
<path d="M343.901 341.766C344.048 341.706 344.18 341.609 344.281 341.477C346.406 338.693 348.541 337.318 348.562 337.305C348.982 337.037 349.097 336.495 348.815 336.094C348.535 335.694 347.958 335.59 347.545 335.851C347.447 335.912 345.129 337.395 342.794 340.451C342.496 340.841 342.588 341.388 342.998 341.671C343.27 341.858 343.614 341.884 343.901 341.766Z" fill="white"/>
<path d="M282.469 303.343L283.308 334.665L269.463 335.101L266.07 297.953L282.469 303.343Z" fill="#C67D69"/>
<path d="M283.336 331.349C283.336 331.349 273.739 336.945 268.95 328.177L233.835 346.815L288.527 346.48L283.336 331.349Z" fill="#101010"/>
<mask id="mask1_3176_57601" style="mask-type:luminance" maskUnits="userSpaceOnUse" x="233" y="328" width="56" height="19">
<path d="M283.336 331.349C283.336 331.349 273.739 336.945 268.95 328.177L233.835 346.815L288.527 346.48L283.336 331.349Z" fill="white"/>
</mask>
<g mask="url(#mask1_3176_57601)">
<path d="M240.09 335.708C240.09 335.708 253.59 337.727 252.551 354.516L229.186 348.112L240.09 335.708Z" fill="white"/>
</g>
<path d="M288.528 346.492L233.835 346.826L233.864 351.608L288.558 351.275L288.528 346.492Z" fill="white"/>
<path d="M264.789 337.295C264.642 337.235 264.511 337.138 264.41 337.006C262.285 334.221 260.15 332.846 260.129 332.832C259.709 332.564 259.595 332.023 259.876 331.621C260.157 331.219 260.733 331.122 261.146 331.378C261.245 331.44 263.562 332.923 265.896 335.979C266.194 336.37 266.102 336.916 265.692 337.199C265.42 337.387 265.076 337.413 264.789 337.295Z" fill="white"/>
<path d="M260.32 339.532C260.174 339.472 260.042 339.374 259.941 339.243C257.816 336.458 255.682 335.083 255.661 335.069C255.24 334.801 255.126 334.259 255.408 333.858C255.688 333.458 256.266 333.354 256.677 333.615C256.776 333.676 259.094 335.159 261.427 338.215C261.725 338.606 261.634 339.152 261.224 339.436C260.951 339.624 260.607 339.648 260.32 339.532Z" fill="white"/>
<path d="M255.85 341.766C255.704 341.706 255.572 341.609 255.471 341.477C253.345 338.693 251.211 337.318 251.19 337.305C250.769 337.037 250.655 336.495 250.937 336.094C251.217 335.694 251.794 335.59 252.207 335.851C252.305 335.912 254.623 337.395 256.958 340.451C257.255 340.841 257.164 341.388 256.754 341.671C256.483 341.858 256.138 341.884 255.85 341.766Z" fill="white"/>
<path d="M297.637 182.572L309.931 318.623H334.371L325.156 155.98L294.838 153.299L269.75 152.058L259.611 238.208C258.791 246.084 265.06 252.898 272.977 252.732C279.195 252.602 284.473 248.137 285.632 242.027L297.637 182.572Z" fill="#7B97FB"/>
<path d="M286.711 181.242L302.451 183.244" stroke="black" stroke-width="0.9528" stroke-miterlimit="10" stroke-linecap="round" stroke-linejoin="round"/>
<path d="M339.289 321.005H307.07L305.516 306.406H337.734L339.289 321.005Z" fill="#A1B9FC"/>
<path d="M285.632 242.027L287.133 316.527H261.342L259.611 238.208L285.632 242.027Z" fill="#7B97FB"/>
<path d="M290.258 306.406H258.039V321.005H290.258V306.406Z" fill="#A1B9FC"/>
<path d="M322.199 87.4213L303.936 80.218L286.609 80.3699L263.764 91.0589C261.973 92.131 262.311 94.2997 262.96 96.2831L268.127 157.341L325.421 156.553L329.154 94.5156C329.644 92.4751 324.087 88.337 322.199 87.4213Z" fill="#E180A0"/>
<path d="M286.609 80.3708L281.505 82.716C281.505 82.716 281.45 91.2722 295.319 90.8288C309.54 90.374 309.508 82.3147 309.508 82.3147L303.936 80.218L286.609 80.3708Z" fill="#C67D69"/>
<path d="M352.338 125.566L313.82 107.175L332.918 95.8113L350.023 106.405L352.338 125.566Z" fill="#C67D69"/>
<path d="M345.191 65.6154L352.644 62.9348L365.844 114.949C367.698 120.519 363.888 126.365 358.045 126.919C353.187 127.38 348.825 123.937 348.144 119.104L345.191 65.6154Z" fill="#C67D69"/>
<path d="M345.192 65.6155L341.638 61.6916C339.782 59.6441 338.436 57.1882 337.703 54.5243L336.415 49.834C336.109 48.7189 336.878 47.5968 338.028 47.48C338.999 47.3817 339.933 47.883 340.387 48.747L342.788 53.3179L343.457 33.1121C343.468 32.2403 344.241 31.5756 345.105 31.6968L345.685 31.7776C346.367 31.8733 346.887 32.4361 346.928 33.1236L346.907 45.1015L348.834 31.3456C348.902 30.479 349.711 29.867 350.564 30.0391L350.985 30.1242C351.702 30.2691 352.198 30.925 352.141 31.6538L350.56 46.0251L353.94 34.776C354.185 33.8848 355.192 33.4484 356.009 33.8795L356.174 33.9665C356.735 34.2615 357.038 34.8875 356.922 35.5109L354.672 47.631L356.978 40.4892C357.305 39.4742 358.582 39.1503 359.353 39.8869C359.72 40.2372 359.878 40.7544 359.767 41.2496L353.782 68.0388L345.192 65.6155Z" fill="#C67D69"/>
<path d="M342.789 53.3179C342.789 53.3179 346.692 54.2214 348.731 58.8011" stroke="#A8523F" stroke-width="0.7482" stroke-miterlimit="10" stroke-linecap="round" stroke-linejoin="round"/>
<path d="M347.283 105.514L348.075 115.422" stroke="#A8523F" stroke-width="0.7482" stroke-miterlimit="10" stroke-linecap="round" stroke-linejoin="round"/>
<path d="M319.65 86.5554C333.94 90.8911 343.826 102.568 343.826 102.568L333.078 123.897L308.407 112.45L319.65 86.5554Z" fill="#E180A0"/>
<path d="M327.541 121.328L320.53 118.076" stroke="black" stroke-width="0.9528" stroke-miterlimit="10" stroke-linecap="round" stroke-linejoin="round"/>
<path d="M252.537 110.843L243.848 142.137C242.86 147.113 248.744 152.756 253.518 154.022C258.232 155.272 257.236 151.577 258.471 146.735L270.311 117.129L252.537 110.843Z" fill="#C67D69"/>
<path d="M244.689 145.764C246.229 152.153 266.42 166.256 266.42 166.256L277.994 166.358L256.993 137.342L244.689 145.764Z" fill="#C67D69"/>
<path d="M281.583 169.424C281.583 169.424 284.533 170.906 287.434 170.316C289.035 169.991 289.321 167.816 287.869 167.069C284.087 165.124 276.127 160.577 272.989 159.442L267.526 157.92L262.38 163.033L266.42 166.255C266.42 166.255 267.391 171.369 269.364 173.109C269.364 173.109 277.914 174.439 281.583 169.424Z" fill="#C67D69"/>
<path d="M260.364 142.001L256.991 137.341" stroke="#A8523F" stroke-width="0.7482" stroke-miterlimit="10" stroke-linecap="round" stroke-linejoin="round"/>
<path d="M263.764 91.0586C263.764 91.0586 249.36 95.8692 246.393 121.445L274.896 129.932L282.826 105.203L263.764 91.0586Z" fill="#E180A0"/>
<path d="M265.891 127.8L264.609 113.591" stroke="black" stroke-width="0.9528" stroke-miterlimit="10" stroke-linecap="round" stroke-linejoin="round"/>
</svg>
