<svg width="13" height="54" viewBox="0 0 13 54" fill="none" xmlns="http://www.w3.org/2000/svg">
<path d="M11.2519 0.825014C8.53012 2.84711 6.06938 5.07006 3.80142 7.59565C3.27095 8.18634 3.93313 9.18525 4.6721 8.74526C5.81198 8.06694 6.87797 7.34595 7.90127 6.57097C0.300642 20.7724 -1.42369 37.9167 3.871 53.2307C4.01073 53.6334 4.6406 53.4742 4.51752 53.0574C-0.326635 36.7088 1.6508 19.4133 10.5135 4.86165C10.3733 6.15598 10.2331 7.45034 10.0926 8.74539C9.99101 9.68411 11.4622 9.6706 11.5634 8.73737C11.8262 6.31191 12.089 3.88646 12.3518 1.461C12.4078 0.939215 11.6754 0.509772 11.2519 0.825014Z" fill="black"/>
</svg>
