<svg width="384" height="384" viewBox="0 0 384 384" fill="none" xmlns="http://www.w3.org/2000/svg">
<path d="M266.435 181.934C278.652 169.716 278.652 149.908 266.435 137.691C254.218 125.474 234.41 125.474 222.193 137.691C209.975 149.908 209.975 169.716 222.193 181.934C234.41 194.151 254.218 194.151 266.435 181.934Z" fill="#EBEBEB"/>
<path opacity="0.1" d="M255.97 170.551C255.392 169.672 254.212 169.428 253.334 170.005C251.348 171.31 249.037 172.001 246.648 172.001C241.674 172.001 237.389 169.004 235.496 164.723H247.056C248.107 164.723 248.959 163.871 248.959 162.82C248.959 161.769 248.108 160.917 247.056 160.917H234.512C234.479 160.553 234.459 160.185 234.459 159.813C234.459 159.398 234.481 158.988 234.522 158.583H249.405C250.456 158.583 251.309 157.731 251.309 156.68C251.309 155.628 250.456 154.777 249.405 154.777H235.553C237.474 150.562 241.723 147.624 246.648 147.624C249.018 147.624 251.315 148.303 253.29 149.59C254.171 150.163 255.35 149.915 255.923 149.034C256.497 148.153 256.248 146.974 255.367 146.4C252.772 144.711 249.758 143.817 246.649 143.817C239.588 143.817 233.582 148.417 231.467 154.777H228.417C227.366 154.777 226.514 155.628 226.514 156.68C226.514 157.73 227.365 158.583 228.417 158.583H230.701C230.67 158.988 230.654 159.399 230.654 159.813C230.654 160.183 230.668 160.552 230.692 160.917H228.988C227.938 160.917 227.085 161.769 227.085 162.82C227.085 163.871 227.937 164.723 228.988 164.723H231.426C233.503 171.147 239.541 175.807 246.648 175.807C249.781 175.807 252.816 174.901 255.424 173.186C256.303 172.609 256.547 171.429 255.97 170.551Z" fill="black"/>
<path opacity="0.1" d="M227.249 142.744C233.974 135.877 244.761 133.585 253.725 137.098C268.522 142.662 274.408 160.861 265.613 174.043C259.062 184.133 245.615 188.078 234.678 183.081C218.805 176.036 214.978 154.903 227.249 142.744ZM227.249 142.744C220.441 149.391 218.442 160.262 222.43 168.879C229.078 183.769 248.911 187.343 260.331 175.827C271.856 164.407 268.284 144.565 253.384 137.921C244.767 133.935 233.895 135.935 227.249 142.744Z" fill="black"/>
<path d="M76.7683 132.64C92.0715 128.301 104.72 135.512 105.018 148.745C105.316 161.977 93.1513 176.222 77.8474 180.561C62.5411 184.9 49.8922 177.689 49.5942 164.457C49.297 151.224 61.4621 136.979 76.7683 132.64ZM96.4169 162.155C103.981 149.848 98.4521 137.388 85.2494 136.842C82.7449 136.703 80.093 137.046 77.4511 137.795C71.9983 139.341 66.59 142.618 62.6295 146.974C66.3604 142.883 71.4446 139.82 76.5594 138.37C79.4287 137.557 82.3087 137.251 84.9629 137.557C98.2739 138.905 101.782 153.206 91.7689 164.847C87.7845 169.542 82.5568 172.713 77.3267 174.196C69.5407 176.403 61.7532 174.866 58.0768 169.042C54.6761 163.87 55.7682 155.942 60.6188 149.401C61.0182 148.868 61.4444 148.339 61.8953 147.814C62.1126 147.555 62.3361 147.299 62.5634 147.047C62.3353 147.299 62.1126 147.554 61.8953 147.814C61.4444 148.332 61.019 148.862 60.6188 149.401C51.5703 161.472 55.5892 175.493 69.1705 176.845C72.0329 177.162 75.0718 176.837 78.0809 175.983C85.3484 173.923 92.4379 168.783 96.4169 162.155ZM81.7289 151.467L69.4593 154.945C71.0867 151.235 74.8015 147.916 79.163 146.68C81.2619 146.084 83.3094 146.028 85.0796 146.519C85.3669 146.598 85.6871 146.584 86.002 146.495C86.5534 146.338 87.0887 145.952 87.4036 145.431C87.8951 144.614 87.6555 143.772 86.8645 143.555C84.5382 142.911 81.851 142.984 79.0969 143.764C72.8416 145.538 67.6007 150.569 65.8389 155.971L63.1348 156.737C62.2055 157.001 61.4652 157.866 61.4828 158.671C61.5013 159.477 62.2708 159.916 63.2001 159.653L65.2253 159.078C65.203 159.397 65.1969 159.713 65.2038 160.031C65.2099 160.316 65.2299 160.593 65.2576 160.868L63.7469 161.296C62.8176 161.56 62.0773 162.424 62.0949 163.23C62.1134 164.036 62.8829 164.475 63.8122 164.212L65.9718 163.599C67.9233 167.998 73.3531 170.05 79.6476 168.265C82.4224 167.479 85.095 166.022 87.376 164.055C88.1447 163.391 88.3413 162.426 87.8137 161.9C87.4796 161.565 86.9367 161.487 86.3883 161.642C86.0711 161.732 85.7516 161.901 85.4706 162.144C83.7349 163.642 81.6974 164.751 79.5823 165.35C75.1755 166.6 71.3294 165.381 69.5791 162.578L79.8181 159.676C80.7504 159.412 81.4908 158.544 81.4723 157.739C81.4539 156.933 80.6844 156.496 79.752 156.76L68.6414 159.91C68.606 159.637 68.5815 159.362 68.5746 159.077C68.5676 158.759 68.5792 158.439 68.6091 158.121L81.7926 154.383C82.725 154.119 83.4653 153.252 83.4469 152.447C83.4307 151.639 82.6604 151.202 81.7289 151.467Z" fill="#EBEBEB"/>
<path d="M79.097 143.764C81.8511 142.984 84.5383 142.911 86.8646 143.555C87.6564 143.771 87.8953 144.614 87.4037 145.431C87.0889 145.952 86.5536 146.339 86.0021 146.495C85.6873 146.584 85.367 146.598 85.0798 146.519C83.3095 146.028 81.262 146.085 79.1631 146.68C74.8009 147.916 71.0868 151.235 69.4594 154.945L81.729 151.467C82.6613 151.202 83.4309 151.639 83.4493 152.445C83.4677 153.251 82.7274 154.118 81.795 154.382L68.6115 158.119C68.5816 158.438 68.5701 158.758 68.577 159.075C68.5831 159.361 68.6085 159.636 68.6438 159.909L79.7545 156.759C80.6868 156.495 81.4563 156.931 81.4748 157.737C81.4932 158.543 80.7521 159.41 79.8205 159.674L69.5808 162.578C71.331 165.381 75.1772 166.6 79.584 165.351C81.699 164.751 83.7358 163.643 85.4722 162.144C85.7533 161.901 86.0728 161.733 86.39 161.643C86.9383 161.488 87.4821 161.566 87.8154 161.901C88.343 162.427 88.1464 163.392 87.3776 164.056C85.0967 166.023 82.4248 167.479 79.6492 168.266C73.3547 170.05 67.925 167.999 65.9735 163.6L63.8139 164.212C62.8846 164.476 62.1143 164.037 62.0966 163.231C62.0782 162.425 62.8185 161.561 63.7486 161.297L65.2585 160.869C65.2308 160.594 65.2116 160.317 65.2047 160.032C65.1978 159.715 65.2039 159.399 65.2262 159.08L63.201 159.654C62.2717 159.917 61.5014 159.478 61.4837 158.672C61.4653 157.866 62.2057 157.002 63.1357 156.738L65.8398 155.972C67.6016 150.569 72.8425 145.538 79.097 143.764Z" fill="#EBEBEB"/>
<g opacity="0.1">
<path d="M79.097 143.764C81.8511 142.984 84.5383 142.911 86.8646 143.555C87.6564 143.771 87.8953 144.614 87.4037 145.431C87.0889 145.952 86.5536 146.339 86.0021 146.495C85.6873 146.584 85.367 146.598 85.0798 146.519C83.3095 146.028 81.262 146.085 79.1631 146.68C74.8009 147.916 71.0868 151.235 69.4594 154.945L81.729 151.467C82.6613 151.202 83.4309 151.639 83.4493 152.445C83.4677 153.251 82.7274 154.118 81.795 154.382L68.6115 158.119C68.5816 158.438 68.5701 158.758 68.577 159.075C68.5831 159.361 68.6085 159.636 68.6438 159.909L79.7545 156.759C80.6868 156.495 81.4563 156.931 81.4748 157.737C81.4932 158.543 80.7521 159.41 79.8205 159.674L69.5808 162.578C71.331 165.381 75.1772 166.6 79.584 165.351C81.699 164.751 83.7358 163.643 85.4722 162.144C85.7533 161.901 86.0728 161.733 86.39 161.643C86.9383 161.488 87.4821 161.566 87.8154 161.901C88.343 162.427 88.1464 163.392 87.3776 164.056C85.0967 166.023 82.4248 167.479 79.6492 168.266C73.3547 170.05 67.925 167.999 65.9735 163.6L63.8139 164.212C62.8846 164.476 62.1143 164.037 62.0966 163.231C62.0782 162.425 62.8185 161.561 63.7486 161.297L65.2585 160.869C65.2308 160.594 65.2116 160.317 65.2047 160.032C65.1978 159.715 65.2039 159.399 65.2262 159.08L63.201 159.654C62.2717 159.917 61.5014 159.478 61.4837 158.672C61.4653 157.866 62.2057 157.002 63.1357 156.738L65.8398 155.972C67.6016 150.569 72.8425 145.538 79.097 143.764Z" fill="black"/>
</g>
<path d="M85.2493 136.842C98.452 137.388 103.981 149.848 96.4168 162.155C92.4378 168.783 85.3484 173.924 78.0816 175.983C75.0726 176.837 72.0336 177.162 69.1713 176.845C55.59 175.493 51.571 161.472 60.6196 149.401C55.7689 155.942 54.676 163.87 58.0775 169.042C61.7532 174.866 69.5414 176.403 77.3274 174.196C82.5575 172.713 87.7853 169.543 91.7697 164.847C101.783 153.206 98.2746 138.905 84.9636 137.557C82.3102 137.252 79.4302 137.557 76.5602 138.37C71.4453 139.82 66.3612 142.883 62.6302 146.974C66.5908 142.618 71.999 139.341 77.4518 137.795C80.093 137.046 82.7449 136.703 85.2493 136.842Z" fill="#EBEBEB"/>
<g opacity="0.1">
<path d="M85.2493 136.842C98.452 137.388 103.981 149.848 96.4168 162.155C92.4378 168.783 85.3484 173.924 78.0816 175.983C75.0726 176.837 72.0336 177.162 69.1713 176.845C55.59 175.493 51.571 161.472 60.6196 149.401C55.7689 155.942 54.676 163.87 58.0775 169.042C61.7532 174.866 69.5414 176.403 77.3274 174.196C82.5575 172.713 87.7853 169.543 91.7697 164.847C101.783 153.206 98.2746 138.905 84.9636 137.557C82.3102 137.252 79.4302 137.557 76.5602 138.37C71.4453 139.82 66.3612 142.883 62.6302 146.974C66.5908 142.618 71.999 139.341 77.4518 137.795C80.093 137.046 82.7449 136.703 85.2493 136.842Z" fill="black"/>
</g>
<path d="M101.811 138.792L105.688 144.119C107.657 146.826 108.808 150.19 108.896 154.072C109.194 167.305 97.0288 181.55 81.7248 185.888C70.9099 188.954 61.422 186.254 56.6796 179.737L52.8027 174.41C57.5451 180.926 67.033 183.627 77.848 180.561C93.1511 176.222 105.317 161.977 105.019 148.745C104.932 144.862 103.78 141.498 101.811 138.792Z" fill="#EBEBEB"/>
<g opacity="0.1">
<path d="M101.811 138.792L105.688 144.119C107.657 146.826 108.808 150.19 108.896 154.072C109.194 167.305 97.0288 181.55 81.7248 185.888C70.9099 188.954 61.422 186.254 56.6796 179.737L52.8027 174.41C57.5451 180.926 67.033 183.627 77.848 180.561C93.1511 176.222 105.317 161.977 105.019 148.745C104.932 144.862 103.78 141.498 101.811 138.792Z" fill="black"/>
</g>
<path d="M276.626 90.2372L280.321 96.3851C285.729 105.385 300.348 107.153 314.441 100.082C329.581 92.486 338.381 77.5668 334.096 66.758L330.401 60.6101C334.686 71.4189 325.886 86.3381 310.746 93.9344C296.653 101.005 282.033 99.2367 276.626 90.2372Z" fill="#EBEBEB"/>
<path d="M285.241 67.2994C280.137 73.3343 278.581 80.1757 280.615 85.3067C281.458 87.4317 282.915 89.2634 284.992 90.6228C294.656 97.1554 312.875 91.1366 321.107 79.2141C321.492 78.6635 321.849 78.1036 322.175 77.5368C322.361 77.2288 322.537 76.9201 322.704 76.6106C322.536 76.9201 322.36 77.2288 322.175 77.5368C321.841 78.1082 321.485 78.6673 321.107 79.2141C316.618 85.6392 308.336 90.8501 300.473 92.0397C291.682 93.469 285.268 90.165 283.09 84.6661C281.626 80.9728 282.071 76.2903 284.989 71.3859C292.137 59.1555 310.409 52.6682 319.924 59.0656C321.863 60.319 323.246 62.0532 324.049 64.0799C325.469 67.6611 325.077 72.1577 322.744 76.5361C325.237 71.879 325.676 67.082 324.161 63.2605C323.423 61.395 322.218 59.763 320.56 58.4919C312.016 51.6836 294.611 56.0013 285.241 67.2994ZM306.141 68.9667C305.88 68.3085 304.922 68.1519 304.001 68.6142C303.081 69.0758 302.545 69.9812 302.806 70.6394L306.496 79.9491C306.151 80.1534 305.799 80.3462 305.433 80.5297C305.107 80.6933 304.781 80.8438 304.455 80.9828L301.344 73.1346C301.083 72.4765 300.125 72.3198 299.204 72.7821C298.284 73.2437 297.748 74.1492 298.009 74.8081L300.875 82.0388C296.656 82.7369 292.966 81.3753 291.733 78.2633C291.14 76.7696 291.173 75.0193 291.825 73.203C291.93 72.9096 291.928 72.6393 291.839 72.415C291.686 72.0272 291.27 71.7799 290.694 71.7945C289.78 71.819 288.806 72.491 288.517 73.2951C287.662 75.6798 287.621 77.9769 288.397 79.936C290.159 84.3812 295.742 86.1092 301.885 84.5847L302.489 86.11C302.75 86.7666 303.707 86.9248 304.627 86.4633C305.549 86.0009 306.085 85.0924 305.825 84.4365L305.402 83.3698C305.728 83.2269 306.054 83.0718 306.378 82.909C306.742 82.727 307.098 82.5365 307.445 82.3383L308.012 83.7684C308.272 84.425 309.231 84.5832 310.15 84.1216C311.072 83.6593 311.608 82.7508 311.347 82.0949L310.591 80.1856C315.637 76.0684 318.179 70.29 316.428 65.8724C315.657 63.9278 314.129 62.4341 312.004 61.5532C311.282 61.256 310.188 61.6169 309.557 62.3627C309.158 62.8373 309.042 63.3526 309.196 63.7412C309.285 63.9639 309.461 64.146 309.725 64.2542C311.34 64.9255 312.507 66.0614 313.095 67.5436C314.316 70.6256 312.794 74.5746 309.577 77.6282L306.141 68.9667Z" fill="#EBEBEB"/>
<path d="M310.747 93.9351C295.608 101.532 279.864 98.9263 275.577 88.1167C271.295 77.311 280.097 62.3918 295.232 54.797C310.371 47.2 326.117 49.8027 330.402 60.6108C334.687 71.4181 325.885 86.338 310.747 93.9351Z" fill="#EBEBEB"/>
<path d="M317.334 67.2093C318.577 68.892 319.037 70.9787 318.661 73.2474C318.531 74.0169 317.647 74.7549 316.681 74.8963C316.067 74.9846 315.568 74.8102 315.32 74.4739C315.178 74.2811 315.117 74.0346 315.164 73.7535C315.448 72.027 315.101 70.4357 314.154 69.1539C312.184 66.4874 308.027 65.6918 303.734 66.8077L309.273 74.3034C309.694 74.8724 309.321 75.7687 308.441 76.3063C307.563 76.8424 306.511 76.8186 306.09 76.2495L300.139 68.1955C299.783 68.3805 299.433 68.5779 299.084 68.7914C298.772 68.9819 298.473 69.1793 298.182 69.3828L303.198 76.1727C303.619 76.7418 303.246 77.638 302.366 78.1756C301.488 78.7124 300.436 78.6879 300.015 78.1188L295.392 71.8634C292.569 75.076 291.774 78.9275 293.763 81.6193C294.718 82.9111 296.222 83.8097 298.107 84.2167C298.412 84.2827 298.641 84.4271 298.784 84.6207C299.031 84.9563 299.023 85.4394 298.705 85.9217C298.201 86.6843 297.116 87.1558 296.28 86.9754C293.803 86.4401 291.833 85.2612 290.579 83.5662C287.738 79.7208 289.222 74.0691 293.764 69.66L292.789 68.3406C292.369 67.7731 292.741 66.8753 293.619 66.3392C294.499 65.8008 295.553 65.8269 295.973 66.3945L296.655 67.3169C296.948 67.1164 297.253 66.9206 297.562 66.7316C297.908 66.5197 298.258 66.3177 298.61 66.128L297.696 64.8907C297.277 64.3232 297.649 63.4254 298.527 62.8893C299.407 62.351 300.46 62.3771 300.88 62.9446L302.101 64.5966C308.262 62.4892 314.511 63.3885 317.334 67.2093Z" fill="#EBEBEB"/>
<path opacity="0.1" d="M317.334 67.2093C318.577 68.892 319.037 70.9787 318.661 73.2474C318.531 74.0169 317.647 74.7549 316.681 74.8963C316.067 74.9846 315.568 74.8102 315.32 74.4739C315.178 74.2811 315.117 74.0346 315.164 73.7535C315.448 72.027 315.101 70.4357 314.154 69.1539C312.184 66.4874 308.027 65.6918 303.734 66.8077L309.273 74.3034C309.694 74.8724 309.321 75.7687 308.441 76.3063C307.563 76.8424 306.511 76.8186 306.09 76.2495L300.139 68.1955C299.783 68.3805 299.433 68.5779 299.084 68.7914C298.772 68.9819 298.473 69.1793 298.182 69.3828L303.198 76.1727C303.619 76.7418 303.246 77.638 302.366 78.1756C301.488 78.7124 300.436 78.6879 300.015 78.1188L295.392 71.8634C292.569 75.076 291.774 78.9275 293.763 81.6193C294.718 82.9111 296.222 83.8097 298.107 84.2167C298.412 84.2827 298.641 84.4271 298.784 84.6207C299.031 84.9563 299.023 85.4394 298.705 85.9217C298.201 86.6843 297.116 87.1558 296.28 86.9754C293.803 86.4401 291.833 85.2612 290.579 83.5662C287.738 79.7208 289.222 74.0691 293.764 69.66L292.789 68.3406C292.369 67.7731 292.741 66.8753 293.619 66.3392C294.499 65.8008 295.553 65.8269 295.973 66.3945L296.655 67.3169C296.948 67.1164 297.253 66.9206 297.562 66.7316C297.908 66.5197 298.258 66.3177 298.61 66.128L297.696 64.8907C297.277 64.3232 297.649 63.4254 298.527 62.8893C299.407 62.351 300.46 62.3771 300.88 62.9446L302.101 64.5966C308.262 62.4892 314.511 63.3885 317.334 67.2093Z" fill="black"/>
<path d="M320.56 58.4927C312.016 51.6836 294.611 56.0013 285.241 67.2994C280.137 73.3343 278.581 80.1757 280.615 85.3067C281.458 87.4317 282.915 89.2634 284.992 90.6228C294.655 97.1554 312.875 91.1366 321.107 79.2141C316.618 85.6392 308.336 90.8501 300.473 92.0397C291.682 93.469 285.268 90.165 283.09 84.6662C281.626 80.9728 282.071 76.2903 284.989 71.3859C292.137 59.1555 310.409 52.6674 319.924 59.0656C321.863 60.319 323.246 62.0532 324.049 64.0799C325.469 67.6611 325.077 72.1577 322.744 76.5361C325.237 71.879 325.676 67.082 324.161 63.2605C323.423 61.3965 322.218 59.7645 320.56 58.4927Z" fill="#EBEBEB"/>
<path opacity="0.1" d="M320.56 58.4927C312.016 51.6836 294.611 56.0013 285.241 67.2994C280.137 73.3343 278.581 80.1757 280.615 85.3067C281.458 87.4317 282.915 89.2634 284.992 90.6228C294.655 97.1554 312.875 91.1366 321.107 79.2141C316.618 85.6392 308.336 90.8501 300.473 92.0397C291.682 93.469 285.268 90.165 283.09 84.6662C281.626 80.9728 282.071 76.2903 284.989 71.3859C292.137 59.1555 310.409 52.6674 319.924 59.0656C321.863 60.319 323.246 62.0532 324.049 64.0799C325.469 67.6611 325.077 72.1577 322.744 76.5361C325.237 71.879 325.676 67.082 324.161 63.2605C323.423 61.3965 322.218 59.7645 320.56 58.4927Z" fill="black"/>
<path opacity="0.1" d="M276.626 90.2372L280.321 96.3851C285.729 105.385 300.348 107.153 314.441 100.082C329.581 92.486 338.381 77.5668 334.096 66.758L330.401 60.6101C334.686 71.4189 325.886 86.3381 310.746 93.9344C296.653 101.005 282.033 99.2367 276.626 90.2372Z" fill="black"/>
<path d="M136.841 58.1915C131.283 44.114 112.146 34.4987 94.0923 36.7159C76.0412 38.93 65.9082 52.1427 71.4662 66.2201C77.0204 80.2976 96.1605 89.9129 114.212 87.6957C132.266 85.477 142.395 72.2689 136.841 58.1915ZM118.544 47.2152C118.052 46.9257 117.543 46.6469 117.022 46.3758C117.543 46.64 118.049 46.9226 118.544 47.2152Z" fill="#EBEBEB"/>
<path d="M118.707 54.7815C121.164 56.9442 122.898 59.4817 123.721 62.1159C124.003 63.0106 123.342 63.7625 122.253 63.7963C121.557 63.8163 120.854 63.5421 120.362 63.1082C120.081 62.8609 119.869 62.5621 119.767 62.2365C119.141 60.2312 117.818 58.299 115.946 56.6508C112.055 53.2255 106.565 51.7118 101.991 52.4468L112.936 62.0821C113.768 62.814 113.824 63.8239 113.061 64.3408C112.298 64.8577 111.006 64.6833 110.175 63.9514L98.4154 53.5988C98.0905 53.767 97.7756 53.9551 97.4753 54.1587C97.205 54.3414 96.9554 54.5365 96.7158 54.7393L106.627 63.4645C107.458 64.1964 107.515 65.2071 106.752 65.7232C105.989 66.2401 104.697 66.0657 103.866 65.3338L94.732 57.2929C93.1231 60.712 94.3342 65.1626 98.2656 68.6232C100.152 70.2844 102.48 71.5546 104.995 72.295C105.403 72.4148 105.763 72.6168 106.045 72.8664C106.535 73.2972 106.795 73.8679 106.681 74.3962C106.502 75.2287 105.453 75.6389 104.338 75.3109C101.034 74.3386 97.9791 72.6728 95.5039 70.4933C89.889 65.5496 88.4966 59.0608 91.5141 54.4605L89.588 52.7647C88.7593 52.0351 88.704 51.0229 89.4666 50.5061C90.23 49.9892 91.5195 50.1651 92.3489 50.8947L93.696 52.0812C93.9433 51.8846 94.1975 51.6942 94.4678 51.5114C94.7681 51.3078 95.0761 51.1174 95.3963 50.9415L93.59 49.351C92.7613 48.6214 92.706 47.6092 93.4687 47.0923C94.2321 46.5754 95.5215 46.7513 96.351 47.4809L98.7625 49.6044C105.045 47.9509 113.127 49.8694 118.707 54.7815Z" fill="#EBEBEB"/>
<g opacity="0.1">
<path d="M118.707 54.7815C121.164 56.9442 122.898 59.4817 123.721 62.1159C124.003 63.0106 123.342 63.7625 122.253 63.7963C121.557 63.8163 120.854 63.5421 120.362 63.1082C120.081 62.8609 119.869 62.5621 119.767 62.2365C119.141 60.2312 117.818 58.299 115.946 56.6508C112.055 53.2255 106.565 51.7118 101.991 52.4468L112.936 62.0821C113.768 62.814 113.824 63.8239 113.061 64.3408C112.298 64.8577 111.006 64.6833 110.175 63.9514L98.4154 53.5988C98.0905 53.767 97.7756 53.9551 97.4753 54.1587C97.205 54.3414 96.9554 54.5365 96.7158 54.7393L106.627 63.4645C107.458 64.1964 107.515 65.2071 106.752 65.7232C105.989 66.2401 104.697 66.0657 103.866 65.3338L94.732 57.2929C93.1231 60.712 94.3342 65.1626 98.2656 68.6232C100.152 70.2844 102.48 71.5546 104.995 72.295C105.403 72.4148 105.763 72.6168 106.045 72.8664C106.535 73.2972 106.795 73.8679 106.681 74.3962C106.502 75.2287 105.453 75.6389 104.338 75.3109C101.034 74.3386 97.9791 72.6728 95.5039 70.4933C89.889 65.5496 88.4966 59.0608 91.5141 54.4605L89.588 52.7647C88.7593 52.0351 88.704 51.0229 89.4666 50.5061C90.23 49.9892 91.5195 50.1651 92.3489 50.8947L93.696 52.0812C93.9433 51.8846 94.1975 51.6942 94.4678 51.5114C94.7681 51.3078 95.0761 51.1174 95.3963 50.9415L93.59 49.351C92.7613 48.6214 92.706 47.6092 93.4687 47.0923C94.2321 46.5754 95.5215 46.7513 96.351 47.4809L98.7625 49.6044C105.045 47.9509 113.127 49.8694 118.707 54.7815Z" fill="black"/>
</g>
<path d="M87.0174 44.9051C73.3462 51.3379 73.0474 66.9206 86.4775 76.5344C93.6106 81.7538 103.362 84.0271 111.934 82.9741C115.483 82.5387 118.83 81.5326 121.706 79.9298C135.419 72.4809 133.435 55.9221 118.545 47.2153C126.557 51.9554 131.226 59.8258 129.936 66.7855C128.645 74.553 121.12 79.6272 111.936 80.7546C105.767 81.5119 98.8515 80.4904 92.5692 77.3094C76.8536 69.4834 74.2071 52.857 87.6364 45.5318C90.2975 44.0319 93.4678 43.0765 96.8524 42.661C102.886 41.9199 109.602 42.8922 115.348 45.5495C109.243 42.7163 102.09 41.6611 95.6574 42.4506C92.5424 42.8331 89.5955 43.6487 87.0174 44.9051Z" fill="#EBEBEB"/>
<g opacity="0.1">
<path d="M87.0174 44.9051C73.3462 51.3379 73.0474 66.9206 86.4775 76.5344C93.6106 81.7538 103.362 84.0271 111.934 82.9741C115.483 82.5387 118.83 81.5326 121.706 79.9298C135.419 72.4809 133.435 55.9221 118.545 47.2153C126.557 51.9554 131.226 59.8258 129.936 66.7855C128.645 74.553 121.12 79.6272 111.936 80.7546C105.767 81.5119 98.8515 80.4904 92.5692 77.3094C76.8536 69.4834 74.2071 52.857 87.6364 45.5318C90.2975 44.0319 93.4678 43.0765 96.8524 42.661C102.886 41.9199 109.602 42.8922 115.348 45.5495C109.243 42.7163 102.09 41.6611 95.6574 42.4506C92.5424 42.8331 89.5955 43.6487 87.0174 44.9051Z" fill="black"/>
</g>
<path d="M70.4294 54.3062L68.7067 61.6398C67.832 65.3654 68.1115 69.4212 69.7412 73.5522C75.2969 87.6289 94.4355 97.245 112.487 95.0286C125.245 93.4619 134.045 86.4078 136.152 77.4368L137.875 70.1031C135.768 79.0742 126.967 86.1282 114.21 87.695C96.1581 89.9114 77.0196 80.2953 71.4639 66.2186C69.8342 62.0883 69.5546 58.0317 70.4294 54.3062Z" fill="#EBEBEB"/>
<g opacity="0.1">
<path d="M70.4294 54.3062L68.7067 61.6398C67.832 65.3654 68.1115 69.4212 69.7412 73.5522C75.2969 87.6289 94.4355 97.245 112.487 95.0286C125.245 93.4619 134.045 86.4078 136.152 77.4368L137.875 70.1031C135.768 79.0742 126.967 86.1282 114.21 87.695C96.1581 89.9114 77.0196 80.2953 71.4639 66.2186C69.8342 62.0883 69.5546 58.0317 70.4294 54.3062Z" fill="black"/>
</g>
<path d="M171.028 334.372C214.901 334.372 250.467 329.501 250.467 323.492C250.467 317.484 214.901 312.613 171.028 312.613C127.154 312.613 91.5879 317.484 91.5879 323.492C91.5879 329.501 127.154 334.372 171.028 334.372Z" fill="#EBEBEB"/>
<path d="M208.313 342.04C227.747 342.04 243.502 338.53 243.502 334.201C243.502 329.871 227.747 326.362 208.313 326.362C188.879 326.362 173.124 329.871 173.124 334.201C173.124 338.53 188.879 342.04 208.313 342.04Z" fill="#EBEBEB"/>
<path d="M39.6387 293.983C137.251 293.513 246.749 293.509 344.361 293.983C246.749 294.457 137.25 294.453 39.6387 293.983Z" fill="#263238"/>
<path d="M203.51 39.2808C222.762 33.8234 238.674 42.895 239.05 59.5414C239.424 76.1885 224.12 94.1091 204.868 99.5672C185.613 105.025 169.7 95.9546 169.325 79.3074C168.95 62.6602 184.254 44.7397 203.51 39.2808ZM228.228 76.4113C237.744 60.9292 230.788 45.2543 214.179 44.5661C211.028 44.3926 207.692 44.8234 204.368 45.7658C197.508 47.7111 190.705 51.8337 185.723 57.3134C190.416 52.1663 196.812 48.3132 203.247 46.4892C206.856 45.4662 210.48 45.0815 213.818 45.467C230.564 47.1628 234.978 65.1532 222.381 79.7981C217.368 85.7056 210.791 89.6938 204.212 91.5585C194.417 94.3356 184.62 92.4018 179.996 85.0758C175.717 78.5686 177.092 68.5946 183.194 60.367C183.697 59.6965 184.232 59.0291 184.799 58.3702C185.072 58.0445 185.353 57.7228 185.64 57.4056C185.352 57.7228 185.073 58.0438 184.799 58.3702C184.232 59.0222 183.697 59.6888 183.194 60.367C171.81 75.5519 176.866 93.1913 193.953 94.8924C197.553 95.2902 201.377 94.8817 205.162 93.8088C214.304 91.2168 223.223 84.7495 228.228 76.4113ZM209.75 62.9659L194.314 67.3412C196.361 62.6733 201.034 58.4992 206.522 56.9432C209.163 56.1944 211.738 56.1238 213.965 56.7405C214.327 56.8396 214.73 56.8219 215.126 56.7098C215.821 56.5132 216.493 56.0262 216.89 55.3711C217.509 54.3428 217.207 53.2837 216.211 53.0111C213.285 52.2016 209.904 52.293 206.439 53.2753C198.571 55.5063 191.977 61.8354 189.76 68.6314L186.359 69.596C185.19 69.9278 184.258 71.0153 184.28 72.0291C184.303 73.0428 185.272 73.595 186.441 73.2632L188.988 72.5413C188.961 72.9422 188.953 73.3408 188.961 73.7394C188.969 74.0981 188.994 74.4467 189.028 74.7931L187.128 75.3315C185.959 75.6632 185.028 76.7507 185.05 77.7645C185.073 78.7782 186.041 79.3304 187.21 78.9987L189.927 78.2284C192.382 83.7618 199.213 86.343 207.131 84.0982C210.623 83.1082 213.984 81.2766 216.854 78.8013C217.82 77.9665 218.068 76.7515 217.404 76.0902C216.984 75.6694 216.301 75.5703 215.611 75.7654C215.212 75.8783 214.81 76.091 214.456 76.3967C212.272 78.2821 209.71 79.676 207.048 80.4302C201.504 82.0015 196.667 80.4686 194.464 76.942L207.345 73.2901C208.518 72.9576 209.449 71.867 209.426 70.8533C209.403 69.8395 208.435 69.2904 207.262 69.6222L193.284 73.5843C193.24 73.241 193.209 72.8946 193.201 72.5359C193.191 72.1366 193.206 71.7334 193.244 71.3333L209.829 66.6316C211.001 66.299 211.933 65.2085 211.91 64.1947C211.891 63.1825 210.922 62.6334 209.75 62.9659Z" fill="#FFC727"/>
<path d="M206.439 53.2752C209.904 52.2929 213.285 52.2015 216.211 53.011C217.207 53.2837 217.509 54.3427 216.89 55.3711C216.493 56.0262 215.821 56.5123 215.126 56.7097C214.73 56.8218 214.328 56.8403 213.966 56.7404C211.739 56.123 209.164 56.1944 206.522 56.9424C201.035 58.4976 196.363 62.6725 194.314 67.3404L209.75 62.9643C210.923 62.6318 211.891 63.1809 211.914 64.1954C211.937 65.2092 211.005 66.2997 209.832 66.6323L193.248 71.334C193.21 71.7349 193.195 72.1381 193.204 72.5366C193.213 72.8953 193.244 73.2424 193.288 73.585L207.266 69.6229C208.439 69.2903 209.407 69.8394 209.429 70.854C209.452 71.8677 208.521 72.9583 207.348 73.2908L194.466 76.9427C196.668 80.4693 201.507 82.0023 207.051 80.4309C209.711 79.6767 212.274 78.2828 214.458 76.3974C214.812 76.0917 215.213 75.879 215.613 75.7661C216.303 75.5703 216.986 75.6701 217.406 76.091C218.07 76.753 217.824 77.9672 216.856 78.802C213.987 81.2773 210.625 83.1089 207.134 84.0989C199.215 86.3438 192.384 83.7625 189.93 78.2291L187.213 78.9994C186.044 79.3311 185.075 78.779 185.052 77.7652C185.029 76.7514 185.961 75.6632 187.13 75.3322L189.03 74.7938C188.996 74.4482 188.971 74.0995 188.964 73.7401C188.954 73.3407 188.962 72.9429 188.99 72.542L186.443 73.264C185.274 73.5957 184.306 73.0435 184.283 72.029C184.26 71.0152 185.191 69.927 186.361 69.596L189.762 68.6314C191.977 61.8353 198.571 55.5063 206.439 53.2752Z" fill="#FFC727"/>
<g opacity="0.1">
<path d="M206.439 53.2752C209.904 52.2929 213.285 52.2015 216.211 53.011C217.207 53.2837 217.509 54.3427 216.89 55.3711C216.493 56.0262 215.821 56.5123 215.126 56.7097C214.73 56.8218 214.328 56.8403 213.966 56.7404C211.739 56.123 209.164 56.1944 206.522 56.9424C201.035 58.4976 196.363 62.6725 194.314 67.3404L209.75 62.9643C210.923 62.6318 211.891 63.1809 211.914 64.1954C211.937 65.2092 211.005 66.2997 209.832 66.6323L193.248 71.334C193.21 71.7349 193.195 72.1381 193.204 72.5366C193.213 72.8953 193.244 73.2424 193.288 73.585L207.266 69.6229C208.439 69.2903 209.407 69.8394 209.429 70.854C209.452 71.8677 208.521 72.9583 207.348 73.2908L194.466 76.9427C196.668 80.4693 201.507 82.0023 207.051 80.4309C209.711 79.6767 212.274 78.2828 214.458 76.3974C214.812 76.0917 215.213 75.879 215.613 75.7661C216.303 75.5703 216.986 75.6701 217.406 76.091C218.07 76.753 217.824 77.9672 216.856 78.802C213.987 81.2773 210.625 83.1089 207.134 84.0989C199.215 86.3438 192.384 83.7625 189.93 78.2291L187.213 78.9994C186.044 79.3311 185.075 78.779 185.052 77.7652C185.029 76.7514 185.961 75.6632 187.13 75.3322L189.03 74.7938C188.996 74.4482 188.971 74.0995 188.964 73.7401C188.954 73.3407 188.962 72.9429 188.99 72.542L186.443 73.264C185.274 73.5957 184.306 73.0435 184.283 72.029C184.26 71.0152 185.191 69.927 186.361 69.596L189.762 68.6314C191.977 61.8353 198.571 55.5063 206.439 53.2752Z" fill="black"/>
</g>
<path d="M214.18 44.5662C230.789 45.2544 237.744 60.9292 228.229 76.4113C223.223 84.7495 214.304 91.2161 205.162 93.8081C201.377 94.881 197.553 95.2896 193.953 94.8917C176.866 93.1914 171.811 75.552 183.194 60.3663C177.092 68.5939 175.717 78.5679 179.996 85.0752C184.62 92.4011 194.417 94.3349 204.212 91.5578C210.792 89.6931 217.368 85.7041 222.381 79.7975C234.978 65.1532 230.565 47.1621 213.819 45.4663C210.48 45.0816 206.857 45.4656 203.247 46.4893C196.812 48.3133 190.416 52.1664 185.723 57.3135C190.706 51.8346 197.509 47.7112 204.368 45.7666C207.692 44.8235 211.028 44.3927 214.18 44.5662Z" fill="#FFC727"/>
<g opacity="0.1">
<path d="M214.18 44.5662C230.789 45.2544 237.744 60.9292 228.229 76.4113C223.223 84.7495 214.304 91.2161 205.162 93.8081C201.377 94.881 197.553 95.2896 193.953 94.8917C176.866 93.1914 171.811 75.552 183.194 60.3663C177.092 68.5939 175.717 78.5679 179.996 85.0752C184.62 92.4011 194.417 94.3349 204.212 91.5578C210.792 89.6931 217.368 85.7041 222.381 79.7975C234.978 65.1532 230.565 47.1621 213.819 45.4663C210.48 45.0816 206.857 45.4656 203.247 46.4893C196.812 48.3133 190.416 52.1664 185.723 57.3135C190.706 51.8346 197.509 47.7112 204.368 45.7666C207.692 44.8235 211.028 44.3927 214.18 44.5662Z" fill="black"/>
</g>
<path d="M235.015 47.02L239.892 53.7224C242.37 57.1269 243.818 61.3593 243.928 66.2446C244.303 82.8918 228.999 100.812 209.747 106.27C196.142 110.127 184.205 106.73 178.239 98.5313L173.361 91.829C179.327 100.027 191.263 103.424 204.869 99.5674C224.122 94.1099 239.426 76.1887 239.051 59.5415C238.94 54.657 237.492 50.4246 235.015 47.02Z" fill="#FFC727"/>
<g opacity="0.1">
<path d="M235.015 47.02L239.892 53.7224C242.37 57.1269 243.818 61.3593 243.928 66.2446C244.303 82.8918 228.999 100.812 209.747 106.27C196.142 110.127 184.205 106.73 178.239 98.5313L173.361 91.829C179.327 100.027 191.263 103.424 204.869 99.5674C224.122 94.1099 239.426 76.1887 239.051 59.5415C238.94 54.657 237.492 50.4246 235.015 47.02Z" fill="black"/>
</g>
<path d="M185.006 54.9088L188.919 55.6322L189.793 59.7571L190.668 55.6322L194.581 54.9072L190.684 53.9549L189.793 50.0588L188.902 53.9549L185.006 54.9088Z" fill="white"/>
<path d="M194.581 60.3479C195.613 60.3479 195.615 61.953 194.581 61.953C193.548 61.953 193.546 60.3479 194.581 60.3479Z" fill="white"/>
<path d="M315.332 269.628H206.228V293.736H315.332V269.628Z" fill="#FFC727"/>
<g opacity="0.1">
<path d="M310.427 291.126C309.903 284.723 309.903 278.239 310.427 271.837C310.951 278.24 310.95 284.723 310.427 291.126Z" fill="black"/>
<path d="M302.302 291.126C301.778 284.723 301.778 278.239 302.302 271.837C302.826 278.24 302.826 284.723 302.302 291.126Z" fill="black"/>
<path d="M298.331 291.126C297.808 284.723 297.808 278.239 298.331 271.837C298.856 278.24 298.855 284.723 298.331 291.126Z" fill="black"/>
<path d="M276.541 291.126C276.017 284.723 276.017 278.239 276.541 271.837C277.066 278.24 277.065 284.723 276.541 291.126Z" fill="black"/>
<path d="M270.647 291.126C270.123 284.723 270.123 278.239 270.647 271.837C271.171 278.24 271.171 284.723 270.647 291.126Z" fill="black"/>
<path d="M246.271 291.126C245.747 284.723 245.747 278.239 246.271 271.837C246.795 278.24 246.795 284.723 246.271 291.126Z" fill="black"/>
<path d="M240.639 291.126C240.115 284.723 240.115 278.239 240.639 271.837C241.163 278.24 241.163 284.723 240.639 291.126Z" fill="black"/>
<path d="M230.298 291.126C229.774 284.723 229.774 278.239 230.298 271.837C230.822 278.24 230.822 284.723 230.298 291.126Z" fill="black"/>
<path d="M250.98 291.126C250.456 284.723 250.456 278.239 250.98 271.837C251.504 278.24 251.504 284.723 250.98 291.126Z" fill="black"/>
<path d="M291.13 291.126C290.606 284.723 290.606 278.239 291.13 271.837C291.654 278.24 291.654 284.723 291.13 291.126Z" fill="black"/>
<path d="M262.89 291.126C262.366 284.723 262.366 278.239 262.89 271.837C263.414 278.24 263.414 284.723 262.89 291.126Z" fill="black"/>
<path d="M258.828 291.126C258.305 284.723 258.305 278.239 258.828 271.837C259.352 278.24 259.351 284.723 258.828 291.126Z" fill="black"/>
<path d="M216.818 291.126C216.294 284.723 216.294 278.239 216.818 271.837C217.341 278.24 217.341 284.723 216.818 291.126Z" fill="black"/>
<path d="M210.724 291.126C210.2 284.723 210.2 278.239 210.724 271.837C211.248 278.24 211.248 284.723 210.724 291.126Z" fill="black"/>
<path d="M225.496 291.126C224.973 284.723 224.973 278.239 225.496 271.837C226.021 278.24 226.02 284.723 225.496 291.126Z" fill="black"/>
<path d="M281.25 291.126C280.726 284.723 280.726 278.239 281.25 271.837C281.775 278.24 281.774 284.723 281.25 291.126Z" fill="black"/>
</g>
<path opacity="0.1" d="M315.325 269.63V274.753L206.226 278.194V269.63H315.325Z" fill="black"/>
<path d="M310.135 245.718H201.03V269.826H310.135V245.718Z" fill="#FFC727"/>
<g opacity="0.1">
<path d="M205.527 247.927C206.05 254.329 206.05 260.813 205.527 267.216C205.003 260.812 205.003 254.33 205.527 247.927Z" fill="black"/>
<path d="M213.652 247.927C214.175 254.329 214.175 260.813 213.652 267.216C213.128 260.812 213.128 254.33 213.652 247.927Z" fill="black"/>
<path d="M217.622 247.927C218.146 254.329 218.146 260.813 217.622 267.216C217.099 260.812 217.099 254.33 217.622 247.927Z" fill="black"/>
<path d="M239.413 247.927C239.936 254.329 239.936 260.813 239.413 267.216C238.888 260.812 238.889 254.33 239.413 247.927Z" fill="black"/>
<path d="M245.307 247.927C245.831 254.329 245.831 260.813 245.307 267.216C244.783 260.812 244.783 254.33 245.307 247.927Z" fill="black"/>
<path d="M269.682 247.927C270.206 254.329 270.206 260.813 269.682 267.216C269.158 260.812 269.158 254.33 269.682 247.927Z" fill="black"/>
<path d="M275.315 247.927C275.838 254.329 275.838 260.813 275.315 267.216C274.791 260.812 274.791 254.33 275.315 247.927Z" fill="black"/>
<path d="M285.656 247.927C286.179 254.329 286.179 260.813 285.656 267.216C285.132 260.812 285.132 254.33 285.656 247.927Z" fill="black"/>
<path d="M264.974 247.927C265.498 254.329 265.498 260.813 264.974 267.216C264.45 260.812 264.45 254.33 264.974 247.927Z" fill="black"/>
<path d="M224.824 247.927C225.348 254.329 225.348 260.813 224.824 267.216C224.299 260.812 224.3 254.33 224.824 247.927Z" fill="black"/>
<path d="M253.063 247.927C253.587 254.329 253.587 260.813 253.063 267.216C252.538 260.812 252.539 254.33 253.063 247.927Z" fill="black"/>
<path d="M257.125 247.927C257.649 254.329 257.649 260.813 257.125 267.216C256.601 260.812 256.601 254.33 257.125 247.927Z" fill="black"/>
<path d="M299.136 247.927C299.66 254.329 299.66 260.813 299.136 267.216C298.612 260.812 298.612 254.33 299.136 247.927Z" fill="black"/>
<path d="M305.229 247.927C305.753 254.329 305.753 260.813 305.229 267.216C304.705 260.812 304.705 254.33 305.229 247.927Z" fill="black"/>
<path d="M290.456 247.927C290.98 254.329 290.98 260.813 290.456 267.216C289.933 260.812 289.933 254.33 290.456 247.927Z" fill="black"/>
<path d="M234.703 247.927C235.227 254.329 235.227 260.813 234.703 267.216C234.18 260.812 234.18 254.33 234.703 247.927Z" fill="black"/>
</g>
<path opacity="0.1" d="M310.127 245.719V250.842L201.028 254.283V245.719H310.127Z" fill="black"/>
<path d="M335.283 223.33L226.354 217.078L224.972 241.148L333.902 247.4L335.283 223.33Z" fill="#FFC727"/>
<g opacity="0.1">
<path d="M329.143 244.499C328.987 238.077 329.358 231.604 330.248 225.242C330.404 231.665 330.032 238.137 329.143 244.499Z" fill="black"/>
<path d="M321.031 244.034C320.875 237.612 321.246 231.139 322.136 224.777C322.293 231.2 321.921 237.672 321.031 244.034Z" fill="black"/>
<path d="M317.068 243.806C316.912 237.384 317.283 230.911 318.173 224.549C318.329 230.972 317.957 237.444 317.068 243.806Z" fill="black"/>
<path d="M295.313 242.558C295.157 236.136 295.528 229.664 296.418 223.302C296.574 229.724 296.202 236.195 295.313 242.558Z" fill="black"/>
<path d="M289.427 242.22C289.271 235.798 289.642 229.325 290.532 222.963C290.688 229.386 290.317 235.857 289.427 242.22Z" fill="black"/>
<path d="M265.092 240.823C264.936 234.401 265.307 227.929 266.197 221.566C266.353 227.989 265.982 234.461 265.092 240.823Z" fill="black"/>
<path d="M259.47 240.501C259.314 234.079 259.685 227.606 260.575 221.244C260.731 227.667 260.36 234.139 259.47 240.501Z" fill="black"/>
<path d="M249.146 239.909C248.99 233.487 249.361 227.014 250.251 220.652C250.407 227.075 250.035 233.546 249.146 239.909Z" fill="black"/>
<path d="M269.793 241.094C269.638 234.672 270.008 228.199 270.899 221.837C271.054 228.259 270.683 234.731 269.793 241.094Z" fill="black"/>
<path d="M309.876 243.394C309.721 236.972 310.091 230.499 310.982 224.137C311.137 230.559 310.767 237.031 309.876 243.394Z" fill="black"/>
<path d="M281.684 241.776C281.528 235.354 281.899 228.881 282.789 222.519C282.945 228.942 282.573 235.414 281.684 241.776Z" fill="black"/>
<path d="M277.628 241.543C277.472 235.121 277.843 228.648 278.734 222.286C278.889 228.709 278.518 235.181 277.628 241.543Z" fill="black"/>
<path d="M235.687 239.136C235.531 232.714 235.902 226.241 236.792 219.879C236.949 226.302 236.577 232.774 235.687 239.136Z" fill="black"/>
<path d="M229.603 238.787C229.447 232.365 229.818 225.893 230.708 219.531C230.865 225.953 230.493 232.424 229.603 238.787Z" fill="black"/>
<path d="M244.352 239.634C244.196 233.212 244.567 226.739 245.457 220.377C245.614 226.799 245.242 233.271 244.352 239.634Z" fill="black"/>
<path d="M300.014 242.828C299.858 236.406 300.229 229.933 301.119 223.571C301.275 229.993 300.903 236.465 300.014 242.828Z" fill="black"/>
</g>
<path opacity="0.1" d="M335.264 223.319L334.971 228.433L225.853 225.618L226.343 217.069L335.264 223.319Z" fill="black"/>
<path d="M264.344 216.965L273.877 219.341C287.831 222.819 303.705 210.373 310.505 189.875C317.812 167.853 311.884 144.88 297.266 138.56L287.732 136.184C302.351 142.504 308.278 165.476 300.972 187.499C294.171 207.997 278.298 220.443 264.344 216.965Z" fill="#FFC727"/>
<path d="M250.471 186.404C251.374 197.191 256.492 205.325 263.432 208.325C266.306 209.568 269.492 209.93 272.82 209.236C288.507 206.204 300.324 182.727 296.75 163.205C296.59 162.299 296.393 161.411 296.16 160.546C296.042 160.068 295.914 159.597 295.776 159.137C295.913 159.598 296.042 160.068 296.16 160.546C296.39 161.423 296.587 162.309 296.75 163.205C298.626 173.776 295.65 186.845 289.188 195.614C282.057 205.512 272.646 208.524 265.208 205.31C260.213 203.151 256.11 198.183 254.185 190.608C249.262 171.839 260.676 147.857 276.089 144.838C279.182 144.174 282.201 144.513 284.942 145.698C289.786 147.793 293.761 152.526 295.742 159.028C293.645 152.102 289.425 147.031 284.257 144.796C281.735 143.705 278.988 143.29 276.15 143.665C261.279 145.346 248.604 166.385 250.471 186.404ZM272.329 167.776C271.439 167.391 270.36 168.167 269.915 169.508C269.471 170.845 269.829 172.242 270.72 172.627L283.311 178.069C283.175 178.602 283.02 179.129 282.843 179.661C282.686 180.136 282.515 180.597 282.334 181.048L271.72 176.46C270.829 176.076 269.75 176.851 269.305 178.192C268.861 179.529 269.22 180.926 270.11 181.311L279.89 185.539C276.478 190.302 271.587 192.557 267.378 190.738C265.358 189.864 263.694 188.137 262.566 185.747C262.384 185.361 262.12 185.1 261.818 184.97C261.294 184.743 260.651 184.905 260.107 185.479C259.246 186.388 258.953 187.982 259.452 189.04C260.934 192.178 263.118 194.443 265.768 195.589C271.78 198.188 278.86 194.455 283.334 187.029L285.397 187.921C286.285 188.305 287.366 187.53 287.81 186.193C288.255 184.852 287.894 183.453 287.007 183.07L285.564 182.446C285.741 181.992 285.907 181.526 286.063 181.055C286.239 180.526 286.4 179.997 286.543 179.469L288.477 180.305C289.365 180.689 290.446 179.914 290.89 178.577C291.335 177.236 290.975 175.838 290.087 175.454L287.505 174.336C288.406 165.46 285.269 157.402 279.295 154.82C276.665 153.683 273.739 153.717 270.827 154.921C269.84 155.333 269.13 156.741 269.241 158.075C269.314 158.922 269.7 159.533 270.227 159.76C270.528 159.891 270.876 159.895 271.236 159.746C273.451 158.831 275.682 158.801 277.687 159.667C281.856 161.469 284.206 166.768 284.048 172.842L272.329 167.776Z" fill="#FFC727"/>
<path d="M300.973 187.498C293.669 209.519 275.896 222.245 261.274 215.926C246.66 209.608 240.734 186.633 248.039 164.616C255.343 142.595 273.116 129.865 287.734 136.183C302.353 142.502 308.278 165.477 300.973 187.498Z" fill="#FFC727"/>
<path d="M281.469 155.232C284.303 155.657 286.769 157.233 288.603 159.795C289.223 160.666 289.08 162.237 288.281 163.311C287.772 163.99 287.12 164.305 286.553 164.22C286.228 164.171 285.931 163.991 285.704 163.674C284.307 161.726 282.43 160.521 280.271 160.197C275.779 159.523 270.982 162.778 267.906 168.017L280.531 169.912C281.49 170.057 281.996 171.285 281.665 172.659C281.334 174.028 280.291 175.025 279.332 174.881L265.767 172.844C265.601 173.368 265.454 173.897 265.322 174.442C265.205 174.928 265.106 175.41 265.021 175.888L276.457 177.605C277.416 177.75 277.922 178.979 277.59 180.352C277.26 181.721 276.217 182.718 275.258 182.574L264.722 180.991C265.099 186.837 268.059 191.338 272.594 192.019C274.77 192.346 277.096 191.76 279.316 190.327C279.675 190.096 280.036 190.014 280.363 190.063C280.927 190.148 281.387 190.625 281.546 191.4C281.797 192.627 281.202 194.134 280.218 194.769C277.302 196.649 274.25 197.417 271.395 196.987C264.918 196.015 260.882 189.103 261.011 180.434L258.788 180.101C257.832 179.957 257.323 178.727 257.654 177.358C257.985 175.985 259.031 174.989 259.987 175.132L261.541 175.366C261.63 174.887 261.736 174.404 261.852 173.921C261.983 173.381 262.126 172.845 262.283 172.321L260.2 172.008C259.244 171.865 258.735 170.635 259.065 169.266C259.396 167.892 260.442 166.896 261.399 167.04L264.18 167.458C268.11 159.448 275.033 154.266 281.469 155.232Z" fill="#FFC727"/>
<path opacity="0.1" d="M281.469 155.232C284.303 155.657 286.769 157.233 288.603 159.795C289.223 160.666 289.08 162.237 288.281 163.311C287.772 163.99 287.12 164.305 286.553 164.22C286.228 164.171 285.931 163.991 285.704 163.674C284.307 161.726 282.43 160.521 280.271 160.197C275.779 159.523 270.982 162.778 267.906 168.017L280.531 169.912C281.49 170.057 281.996 171.285 281.665 172.659C281.334 174.028 280.291 175.025 279.332 174.881L265.767 172.844C265.601 173.368 265.454 173.897 265.322 174.442C265.205 174.928 265.106 175.41 265.021 175.888L276.457 177.605C277.416 177.75 277.922 178.979 277.59 180.352C277.26 181.721 276.217 182.718 275.258 182.574L264.722 180.991C265.099 186.837 268.059 191.338 272.594 192.019C274.77 192.346 277.096 191.76 279.316 190.327C279.675 190.096 280.036 190.014 280.363 190.063C280.927 190.148 281.387 190.625 281.546 191.4C281.797 192.627 281.202 194.134 280.218 194.769C277.302 196.649 274.25 197.417 271.395 196.987C264.918 196.015 260.882 189.103 261.011 180.434L258.788 180.101C257.832 179.957 257.323 178.727 257.654 177.358C257.985 175.985 259.031 174.989 259.987 175.132L261.541 175.366C261.63 174.887 261.736 174.404 261.852 173.921C261.983 173.381 262.126 172.845 262.283 172.321L260.2 172.008C259.244 171.865 258.735 170.635 259.065 169.266C259.396 167.892 260.442 166.896 261.399 167.04L264.18 167.458C268.11 159.448 275.033 154.266 281.469 155.232Z" fill="black"/>
<path d="M276.151 143.665C261.28 145.346 248.604 166.385 250.471 186.404C251.374 197.192 256.492 205.326 263.432 208.326C266.306 209.569 269.492 209.931 272.82 209.236C288.507 206.204 300.324 182.727 296.75 163.206C298.626 173.777 295.65 186.846 289.188 195.614C282.057 205.513 272.645 208.525 265.208 205.31C260.213 203.151 256.11 198.184 254.185 190.608C249.262 171.84 260.676 147.858 276.089 144.839C279.182 144.174 282.201 144.514 284.941 145.699C289.785 147.792 293.76 152.527 295.741 159.028C293.644 152.103 289.424 147.031 284.256 144.797C281.735 143.705 278.988 143.29 276.151 143.665Z" fill="#FFC727"/>
<path opacity="0.1" d="M276.151 143.665C261.28 145.346 248.604 166.385 250.471 186.404C251.374 197.192 256.492 205.326 263.432 208.326C266.306 209.569 269.492 209.931 272.82 209.236C288.507 206.204 300.324 182.727 296.75 163.206C298.626 173.777 295.65 186.846 289.188 195.614C282.057 205.513 272.645 208.525 265.208 205.31C260.213 203.151 256.11 198.184 254.185 190.608C249.262 171.84 260.676 147.858 276.089 144.839C279.182 144.174 282.201 144.514 284.941 145.699C289.785 147.792 293.76 152.527 295.741 159.028C293.644 152.103 289.424 147.031 284.256 144.797C281.735 143.705 278.988 143.29 276.151 143.665Z" fill="black"/>
<path opacity="0.1" d="M264.344 216.965L273.877 219.341C287.831 222.819 303.705 210.373 310.505 189.875C317.812 167.853 311.884 144.88 297.266 138.56L287.732 136.184C302.351 142.504 308.278 165.476 300.972 187.499C294.171 207.997 278.298 220.443 264.344 216.965Z" fill="black"/>
<path d="M289.387 159.232L296.388 160.526L297.952 167.906L299.517 160.526L306.518 159.228L299.547 157.525L297.952 150.553L296.358 157.525L289.387 159.232Z" fill="white"/>
<path d="M285.225 258.414L289.138 259.137L290.012 263.262L290.887 259.137L294.799 258.411L290.903 257.46L290.012 253.564L289.121 257.46L285.225 258.414Z" fill="white"/>
<path d="M290.379 169.564C291.838 169.564 291.841 171.833 290.379 171.833C288.919 171.833 288.917 169.564 290.379 169.564Z" fill="white"/>
<path d="M299.802 254.316C300.834 254.316 300.836 255.921 299.802 255.921C298.769 255.921 298.767 254.316 299.802 254.316Z" fill="white"/>
<g opacity="0.15">
<path d="M224.966 241.137L225.857 225.615L226.233 218.903L226.241 218.934L227.562 225.661L229.727 236.652L230.672 241.467L224.966 241.137Z" fill="black"/>
<path d="M206.227 269.829H201.027V245.714H231.509V245.722L232.999 253.279L234.704 261.942L236.217 269.629L236.256 269.829L237.707 277.202L240.963 293.737H206.227V269.829Z" fill="black"/>
</g>
<path d="M91.5806 270.369C115.247 270.369 134.433 251.183 134.433 227.517C134.433 203.85 115.247 184.665 91.5806 184.665C67.9141 184.665 48.7285 203.85 48.7285 227.517C48.7285 251.183 67.9141 270.369 91.5806 270.369Z" fill="#FFC727"/>
<path opacity="0.1" d="M107.542 242.226C106.751 241.024 105.134 240.689 103.932 241.48C101.212 243.268 98.0457 244.212 94.7748 244.212C87.9611 244.212 82.092 240.108 79.4992 234.244H95.3339C96.7739 234.244 97.9405 233.076 97.9405 231.637C97.9405 230.197 96.7731 229.031 95.3339 229.031H78.1514C78.1061 228.532 78.08 228.028 78.08 227.518C78.08 226.949 78.1092 226.388 78.1645 225.833H98.5518C99.9918 225.833 101.158 224.666 101.158 223.227C101.158 221.787 99.991 220.62 98.5518 220.62H79.5768C82.2072 214.847 88.0279 210.822 94.7748 210.822C98.0211 210.822 101.166 211.754 103.872 213.515C105.079 214.301 106.694 213.96 107.48 212.754C108.265 211.547 107.924 209.932 106.718 209.146C103.164 206.832 99.0341 205.608 94.7755 205.608C85.1033 205.608 76.8765 211.908 73.9796 220.619H69.8009C68.3617 220.619 67.1943 221.787 67.1943 223.226C67.1943 224.666 68.3617 225.833 69.8009 225.833H72.9298C72.8875 226.389 72.866 226.95 72.866 227.517C72.866 228.025 72.8852 228.53 72.919 229.03H70.5851C69.1451 229.03 67.9785 230.197 67.9785 231.636C67.9785 233.076 69.1458 234.243 70.5851 234.243H73.9243C76.7698 243.043 85.0411 249.426 94.7755 249.426C99.0671 249.426 103.224 248.185 106.796 245.836C107.999 245.046 108.333 243.43 107.542 242.226Z" fill="black"/>
<path opacity="0.1" d="M68.2018 204.138C77.414 194.731 92.1903 191.592 104.468 196.404C124.737 204.026 132.798 228.953 120.752 247.01C111.779 260.831 93.3592 266.234 78.3786 259.39C56.6357 249.74 51.3934 220.794 68.2018 204.138ZM68.2018 204.138C58.8768 213.242 56.1389 228.133 61.6016 239.935C70.7078 260.332 97.8735 265.226 113.517 249.453C129.303 233.811 124.41 206.632 104.001 197.532C92.1972 192.073 77.3057 194.812 68.2018 204.138Z" fill="black"/>
<path d="M158.692 269.629H49.5898V293.737H158.692V269.629Z" fill="#FFC727"/>
<path d="M158.692 269.629H49.5898V293.737H158.692V269.629Z" fill="#FFC727"/>
<g opacity="0.1">
<path d="M153.791 291.126C153.267 284.723 153.267 278.239 153.791 271.837C154.315 278.24 154.314 284.723 153.791 291.126Z" fill="black"/>
<path d="M145.666 291.126C145.142 284.723 145.142 278.239 145.666 271.837C146.19 278.24 146.19 284.723 145.666 291.126Z" fill="black"/>
<path d="M141.696 291.126C141.172 284.723 141.172 278.239 141.696 271.837C142.22 278.24 142.219 284.723 141.696 291.126Z" fill="black"/>
<path d="M119.906 291.126C119.382 284.723 119.382 278.239 119.906 271.837C120.43 278.24 120.429 284.723 119.906 291.126Z" fill="black"/>
<path d="M114.011 291.126C113.487 284.723 113.487 278.239 114.011 271.837C114.535 278.24 114.535 284.723 114.011 291.126Z" fill="black"/>
<path d="M89.635 291.126C89.1112 284.723 89.1112 278.239 89.635 271.837C90.1596 278.24 90.1588 284.723 89.635 291.126Z" fill="black"/>
<path d="M84.0032 291.126C83.4794 284.723 83.4794 278.239 84.0032 271.837C84.527 278.24 84.527 284.723 84.0032 291.126Z" fill="black"/>
<path d="M73.6624 291.126C73.1386 284.723 73.1386 278.239 73.6624 271.837C74.1861 278.24 74.1861 284.723 73.6624 291.126Z" fill="black"/>
<path d="M94.344 291.126C93.8202 284.723 93.8202 278.239 94.344 271.837C94.8678 278.24 94.8678 284.723 94.344 291.126Z" fill="black"/>
<path d="M134.493 291.126C133.97 284.723 133.97 278.239 134.493 271.837C135.017 278.24 135.017 284.723 134.493 291.126Z" fill="black"/>
<path d="M106.254 291.126C105.73 284.723 105.73 278.239 106.254 271.837C106.778 278.24 106.778 284.723 106.254 291.126Z" fill="black"/>
<path d="M102.193 291.126C101.669 284.723 101.669 278.239 102.193 271.837C102.716 278.24 102.716 284.723 102.193 291.126Z" fill="black"/>
<path d="M60.1819 291.126C59.6581 284.723 59.6581 278.239 60.1819 271.837C60.7057 278.24 60.7057 284.723 60.1819 291.126Z" fill="black"/>
<path d="M54.0881 291.126C53.5644 284.723 53.5644 278.239 54.0881 271.837C54.6119 278.24 54.6119 284.723 54.0881 291.126Z" fill="black"/>
<path d="M68.8606 291.126C68.3368 284.723 68.3368 278.239 68.8606 271.837C69.3851 278.24 69.3844 284.723 68.8606 291.126Z" fill="black"/>
<path d="M124.615 291.126C124.091 284.723 124.091 278.239 124.615 271.837C125.139 278.24 125.138 284.723 124.615 291.126Z" fill="black"/>
</g>
<path opacity="0.1" d="M158.692 269.629V274.752L153.792 274.906L145.667 275.159L141.696 275.29L134.492 275.512L124.616 275.827L119.908 275.973L114.01 276.157L106.253 276.403L102.19 276.534L94.3412 276.779L93.051 276.826L89.6334 276.933L84.0039 277.11L73.659 277.432L68.859 277.586L60.1806 277.862L54.0903 278.054L49.5898 278.193V269.629H158.692Z" fill="black"/>
<path d="M58.1982 204.342L65.1993 205.637L66.7637 213.016L68.3289 205.637L75.3293 204.339L68.3589 202.635L66.7637 195.664L65.1694 202.635L58.1982 204.342Z" fill="white"/>
<path d="M52.2676 282.431L56.1813 283.155L57.0553 287.28L57.93 283.155L61.843 282.429L57.9462 281.477L57.0553 277.581L56.1644 281.477L52.2676 282.431Z" fill="white"/>
<path d="M57.8297 212.214C58.8627 212.214 58.8642 213.819 57.8297 213.819C56.7975 213.819 56.7952 212.214 57.8297 212.214Z" fill="white"/>
<path opacity="0.15" d="M134.431 227.52C134.431 251.182 115.246 270.367 91.5841 270.367C88.8423 270.367 86.1543 270.105 83.5508 269.614L84.9562 261.581L85.5245 258.332L87.3063 248.11L88.2279 242.872L89.7332 234.248L90.6394 229.033L91.2001 225.83L92.114 220.616L93.8189 210.854L94.7329 205.609L96.553 195.218L96.6913 194.434L98.3041 185.188C118.771 188.413 134.431 206.139 134.431 227.52Z" fill="black"/>
<path opacity="0.15" d="M158.692 269.629V293.737H89.3262L93.051 276.826L94.6407 269.629H158.692Z" fill="black"/>
<path d="M214.702 302.253H105.598V326.361H214.702V302.253Z" fill="#FFC727"/>
<g opacity="0.1">
<path d="M110.095 304.462C110.619 310.865 110.619 317.348 110.095 323.751C109.571 317.347 109.571 310.865 110.095 304.462Z" fill="black"/>
<path d="M118.22 304.462C118.744 310.865 118.744 317.348 118.22 323.751C117.696 317.347 117.696 310.865 118.22 304.462Z" fill="black"/>
<path d="M122.191 304.462C122.714 310.865 122.714 317.348 122.191 323.751C121.667 317.347 121.667 310.865 122.191 304.462Z" fill="black"/>
<path d="M143.98 304.462C144.504 310.865 144.504 317.348 143.98 323.751C143.456 317.347 143.456 310.865 143.98 304.462Z" fill="black"/>
<path d="M149.875 304.462C150.399 310.865 150.399 317.348 149.875 323.751C149.351 317.347 149.351 310.865 149.875 304.462Z" fill="black"/>
<path d="M174.25 304.462C174.774 310.865 174.774 317.348 174.25 323.751C173.726 317.347 173.726 310.865 174.25 304.462Z" fill="black"/>
<path d="M179.883 304.462C180.407 310.865 180.407 317.348 179.883 323.751C179.359 317.347 179.36 310.865 179.883 304.462Z" fill="black"/>
<path d="M190.224 304.462C190.747 310.865 190.747 317.348 190.224 323.751C189.7 317.347 189.701 310.865 190.224 304.462Z" fill="black"/>
<path d="M169.541 304.462C170.065 310.865 170.065 317.348 169.541 323.751C169.017 317.347 169.018 310.865 169.541 304.462Z" fill="black"/>
<path d="M129.392 304.462C129.916 310.865 129.916 317.348 129.392 323.751C128.868 317.347 128.868 310.865 129.392 304.462Z" fill="black"/>
<path d="M157.631 304.462C158.155 310.865 158.155 317.348 157.631 323.751C157.107 317.347 157.108 310.865 157.631 304.462Z" fill="black"/>
<path d="M161.694 304.462C162.218 310.865 162.218 317.348 161.694 323.751C161.169 317.347 161.17 310.865 161.694 304.462Z" fill="black"/>
<path d="M203.703 304.462C204.227 310.865 204.227 317.348 203.703 323.751C203.179 317.347 203.18 310.865 203.703 304.462Z" fill="black"/>
<path d="M209.797 304.462C210.321 310.865 210.321 317.348 209.797 323.751C209.273 317.347 209.273 310.865 209.797 304.462Z" fill="black"/>
<path d="M195.025 304.462C195.549 310.865 195.549 317.348 195.025 323.751C194.5 317.347 194.501 310.865 195.025 304.462Z" fill="black"/>
<path d="M139.271 304.462C139.795 310.865 139.795 317.348 139.271 323.751C138.747 317.347 138.747 310.865 139.271 304.462Z" fill="black"/>
</g>
<path opacity="0.1" d="M214.695 302.255V307.377L105.596 310.819V302.255H214.695Z" fill="black"/>
<path d="M208.336 278.146H99.2314V302.255H208.336V278.146Z" fill="#FFC727"/>
<g opacity="0.1">
<path d="M103.728 280.355C104.252 286.758 104.252 293.241 103.728 299.644C103.204 293.241 103.204 286.759 103.728 280.355Z" fill="black"/>
<path d="M111.853 280.355C112.377 286.758 112.377 293.241 111.853 299.644C111.329 293.241 111.329 286.759 111.853 280.355Z" fill="black"/>
<path d="M115.823 280.355C116.347 286.758 116.347 293.241 115.823 299.644C115.3 293.241 115.3 286.759 115.823 280.355Z" fill="black"/>
<path d="M137.613 280.355C138.136 286.758 138.136 293.241 137.613 299.644C137.089 293.241 137.089 286.759 137.613 280.355Z" fill="black"/>
<path d="M143.509 280.355C144.033 286.758 144.033 293.241 143.509 299.644C142.985 293.241 142.985 286.759 143.509 280.355Z" fill="black"/>
<path d="M167.883 280.355C168.407 286.758 168.407 293.241 167.883 299.644C167.359 293.241 167.359 286.759 167.883 280.355Z" fill="black"/>
<path d="M173.516 280.355C174.04 286.758 174.04 293.241 173.516 299.644C172.992 293.241 172.992 286.759 173.516 280.355Z" fill="black"/>
<path d="M183.857 280.355C184.38 286.758 184.38 293.241 183.857 299.644C183.333 293.241 183.333 286.759 183.857 280.355Z" fill="black"/>
<path d="M163.175 280.355C163.699 286.758 163.699 293.241 163.175 299.644C162.651 293.241 162.651 286.759 163.175 280.355Z" fill="black"/>
<path d="M123.025 280.355C123.549 286.758 123.549 293.241 123.025 299.644C122.5 293.241 122.501 286.759 123.025 280.355Z" fill="black"/>
<path d="M151.264 280.355C151.788 286.758 151.788 293.241 151.264 299.644C150.74 293.241 150.74 286.759 151.264 280.355Z" fill="black"/>
<path d="M155.326 280.355C155.85 286.758 155.85 293.241 155.326 299.644C154.803 293.241 154.803 286.759 155.326 280.355Z" fill="black"/>
<path d="M197.337 280.355C197.861 286.758 197.861 293.241 197.337 299.644C196.813 293.241 196.813 286.759 197.337 280.355Z" fill="black"/>
<path d="M203.43 280.355C203.954 286.758 203.954 293.241 203.43 299.644C202.906 293.241 202.906 286.759 203.43 280.355Z" fill="black"/>
<path d="M188.657 280.355C189.181 286.758 189.181 293.241 188.657 299.644C188.134 293.241 188.134 286.759 188.657 280.355Z" fill="black"/>
<path d="M132.905 280.355C133.428 286.758 133.428 293.241 132.905 299.644C132.381 293.241 132.381 286.759 132.905 280.355Z" fill="black"/>
</g>
<path opacity="0.1" d="M208.328 278.148V283.271L99.2295 286.712V278.148H208.328Z" fill="black"/>
<path d="M212.395 230.127H103.291V254.236H212.395V230.127Z" fill="#FFC727"/>
<g opacity="0.1">
<path d="M107.787 232.337C108.311 238.739 108.311 245.223 107.787 251.626C107.263 245.222 107.264 238.739 107.787 232.337Z" fill="black"/>
<path d="M115.912 232.337C116.436 238.739 116.436 245.223 115.912 251.626C115.389 245.222 115.389 238.739 115.912 232.337Z" fill="black"/>
<path d="M119.883 232.337C120.407 238.739 120.407 245.223 119.883 251.626C119.359 245.222 119.36 238.739 119.883 232.337Z" fill="black"/>
<path d="M141.672 232.337C142.196 238.739 142.196 245.223 141.672 251.626C141.148 245.222 141.149 238.739 141.672 232.337Z" fill="black"/>
<path d="M147.568 232.337C148.091 238.739 148.091 245.223 147.568 251.626C147.044 245.222 147.044 238.739 147.568 232.337Z" fill="black"/>
<path d="M171.944 232.337C172.468 238.739 172.468 245.223 171.944 251.626C171.419 245.222 171.42 238.739 171.944 232.337Z" fill="black"/>
<path d="M177.575 232.337C178.099 238.739 178.099 245.223 177.575 251.626C177.052 245.222 177.052 238.739 177.575 232.337Z" fill="black"/>
<path d="M187.916 232.337C188.44 238.739 188.44 245.223 187.916 251.626C187.392 245.222 187.392 238.739 187.916 232.337Z" fill="black"/>
<path d="M167.234 232.337C167.757 238.739 167.757 245.223 167.234 251.626C166.71 245.222 166.71 238.739 167.234 232.337Z" fill="black"/>
<path d="M127.084 232.337C127.608 238.739 127.608 245.223 127.084 251.626C126.56 245.222 126.56 238.739 127.084 232.337Z" fill="black"/>
<path d="M155.324 232.337C155.848 238.739 155.848 245.223 155.324 251.626C154.799 245.222 154.8 238.739 155.324 232.337Z" fill="black"/>
<path d="M159.386 232.337C159.91 238.739 159.91 245.223 159.386 251.626C158.862 245.222 158.862 238.739 159.386 232.337Z" fill="black"/>
<path d="M201.397 232.337C201.921 238.739 201.921 245.223 201.397 251.626C200.873 245.222 200.873 238.739 201.397 232.337Z" fill="black"/>
<path d="M207.49 232.337C208.014 238.739 208.014 245.223 207.49 251.626C206.967 245.222 206.967 238.739 207.49 232.337Z" fill="black"/>
<path d="M192.717 232.337C193.241 238.739 193.241 245.223 192.717 251.626C192.193 245.222 192.193 238.739 192.717 232.337Z" fill="black"/>
<path d="M136.964 232.337C137.488 238.739 137.488 245.223 136.964 251.626C136.44 245.222 136.441 238.739 136.964 232.337Z" fill="black"/>
</g>
<path opacity="0.1" d="M212.389 230.13V235.251L103.289 238.693V230.13H212.389Z" fill="black"/>
<path d="M224.872 206.019H115.768V230.127H224.872V206.019Z" fill="#FFC727"/>
<g opacity="0.1">
<path d="M219.967 227.517C219.443 221.114 219.443 214.631 219.967 208.228C220.491 214.631 220.491 221.114 219.967 227.517Z" fill="black"/>
<path d="M211.842 227.517C211.318 221.114 211.318 214.631 211.842 208.228C212.366 214.631 212.366 221.114 211.842 227.517Z" fill="black"/>
<path d="M207.872 227.517C207.349 221.114 207.349 214.631 207.872 208.228C208.396 214.631 208.396 221.114 207.872 227.517Z" fill="black"/>
<path d="M186.081 227.517C185.558 221.114 185.558 214.631 186.081 208.228C186.606 214.631 186.605 221.114 186.081 227.517Z" fill="black"/>
<path d="M180.187 227.517C179.663 221.114 179.663 214.631 180.187 208.228C180.711 214.631 180.711 221.114 180.187 227.517Z" fill="black"/>
<path d="M155.811 227.517C155.287 221.114 155.287 214.631 155.811 208.228C156.335 214.631 156.335 221.114 155.811 227.517Z" fill="black"/>
<path d="M150.179 227.517C149.655 221.114 149.655 214.631 150.179 208.228C150.703 214.631 150.703 221.114 150.179 227.517Z" fill="black"/>
<path d="M139.838 227.517C139.314 221.114 139.314 214.631 139.838 208.228C140.362 214.631 140.362 221.114 139.838 227.517Z" fill="black"/>
<path d="M160.52 227.517C159.996 221.114 159.996 214.631 160.52 208.228C161.044 214.631 161.044 221.114 160.52 227.517Z" fill="black"/>
<path d="M200.67 227.517C200.146 221.114 200.146 214.631 200.67 208.228C201.194 214.631 201.193 221.114 200.67 227.517Z" fill="black"/>
<path d="M172.43 227.517C171.906 221.114 171.906 214.631 172.43 208.228C172.954 214.631 172.954 221.114 172.43 227.517Z" fill="black"/>
<path d="M168.367 227.517C167.844 221.114 167.844 214.631 168.367 208.228C168.892 214.631 168.891 221.114 168.367 227.517Z" fill="black"/>
<path d="M126.358 227.517C125.834 221.114 125.834 214.631 126.358 208.228C126.881 214.631 126.881 221.114 126.358 227.517Z" fill="black"/>
<path d="M120.264 227.517C119.74 221.114 119.74 214.631 120.264 208.228C120.788 214.631 120.788 221.114 120.264 227.517Z" fill="black"/>
<path d="M135.037 227.517C134.514 221.114 134.514 214.631 135.037 208.228C135.561 214.631 135.561 221.114 135.037 227.517Z" fill="black"/>
<path d="M190.791 227.517C190.267 221.114 190.267 214.631 190.791 208.228C191.315 214.631 191.314 221.114 190.791 227.517Z" fill="black"/>
</g>
<path opacity="0.1" d="M224.865 206.021V211.143L115.766 214.585V206.021H224.865Z" fill="black"/>
<path d="M210.722 178.556L101.694 182.582L102.584 206.674L211.612 202.648L210.722 178.556Z" fill="#FFC727"/>
<g opacity="0.1">
<path d="M106.279 184.623C107.038 191.002 107.279 197.48 106.991 203.898C106.231 197.518 105.991 191.04 106.279 184.623Z" fill="black"/>
<path d="M114.398 184.322C115.157 190.701 115.397 197.18 115.11 203.598C114.35 197.218 114.111 190.74 114.398 184.322Z" fill="black"/>
<path d="M118.366 184.176C119.125 190.555 119.366 197.033 119.078 203.451C118.318 197.071 118.078 190.594 118.366 184.176Z" fill="black"/>
<path d="M140.14 183.371C140.899 189.75 141.14 196.228 140.852 202.646C140.093 196.266 139.853 189.788 140.14 183.371Z" fill="black"/>
<path d="M146.032 183.153C146.791 189.532 147.031 196.01 146.744 202.428C145.984 196.049 145.744 189.571 146.032 183.153Z" fill="black"/>
<path d="M170.391 182.252C171.151 188.631 171.391 195.11 171.104 201.528C170.343 195.148 170.104 188.67 170.391 182.252Z" fill="black"/>
<path d="M176.019 182.044C176.778 188.423 177.019 194.902 176.731 201.32C175.971 194.94 175.732 188.462 176.019 182.044Z" fill="black"/>
<path d="M186.353 181.662C187.112 188.041 187.353 194.52 187.066 200.937C186.305 194.558 186.066 188.08 186.353 181.662Z" fill="black"/>
<path d="M165.685 182.426C166.445 188.805 166.684 195.284 166.398 201.702C165.637 195.322 165.398 188.844 165.685 182.426Z" fill="black"/>
<path d="M125.563 183.909C126.322 190.288 126.563 196.767 126.276 203.185C125.515 196.805 125.276 190.327 125.563 183.909Z" fill="black"/>
<path d="M153.783 182.866C154.542 189.245 154.783 195.724 154.495 202.141C153.735 195.762 153.495 189.284 153.783 182.866Z" fill="black"/>
<path d="M157.842 182.716C158.602 189.095 158.842 195.573 158.555 201.992C157.795 195.612 157.555 189.134 157.842 182.716Z" fill="black"/>
<path d="M199.823 181.164C200.583 187.543 200.823 194.022 200.536 200.44C199.776 194.06 199.537 187.582 199.823 181.164Z" fill="black"/>
<path d="M205.913 180.939C206.673 187.318 206.913 193.797 206.626 200.215C205.866 193.835 205.627 187.357 205.913 180.939Z" fill="black"/>
<path d="M191.15 181.484C191.91 187.863 192.15 194.342 191.863 200.76C191.103 194.381 190.864 187.903 191.15 181.484Z" fill="black"/>
<path d="M135.435 183.544C136.195 189.923 136.435 196.402 136.148 202.819C135.387 196.44 135.148 189.962 135.435 183.544Z" fill="black"/>
</g>
<path opacity="0.1" d="M210.727 178.552L210.916 183.671L102.019 191.141L101.702 182.583L210.727 178.552Z" fill="black"/>
<path d="M216.122 254.236H107.018V278.344H216.122V254.236Z" fill="#FFC727"/>
<g opacity="0.1">
<path d="M211.217 275.733C210.693 269.331 210.693 262.847 211.217 256.444C211.741 262.848 211.741 269.331 211.217 275.733Z" fill="black"/>
<path d="M203.092 275.733C202.568 269.331 202.568 262.847 203.092 256.444C203.617 262.848 203.616 269.331 203.092 275.733Z" fill="black"/>
<path d="M199.121 275.733C198.598 269.331 198.598 262.847 199.121 256.444C199.646 262.848 199.645 269.331 199.121 275.733Z" fill="black"/>
<path d="M177.331 275.733C176.808 269.331 176.808 262.847 177.331 256.444C177.855 262.848 177.855 269.331 177.331 275.733Z" fill="black"/>
<path d="M171.437 275.733C170.913 269.331 170.913 262.847 171.437 256.444C171.961 262.848 171.961 269.331 171.437 275.733Z" fill="black"/>
<path d="M147.061 275.733C146.537 269.331 146.537 262.847 147.061 256.444C147.585 262.848 147.585 269.331 147.061 275.733Z" fill="black"/>
<path d="M141.429 275.733C140.905 269.331 140.905 262.847 141.429 256.444C141.953 262.848 141.953 269.331 141.429 275.733Z" fill="black"/>
<path d="M131.088 275.733C130.564 269.331 130.564 262.847 131.088 256.444C131.612 262.848 131.612 269.331 131.088 275.733Z" fill="black"/>
<path d="M151.77 275.733C151.246 269.331 151.246 262.847 151.77 256.444C152.294 262.848 152.294 269.331 151.77 275.733Z" fill="black"/>
<path d="M191.92 275.733C191.396 269.331 191.396 262.847 191.92 256.444C192.444 262.848 192.444 269.331 191.92 275.733Z" fill="black"/>
<path d="M163.681 275.733C163.157 269.331 163.157 262.847 163.681 256.444C164.205 262.848 164.204 269.331 163.681 275.733Z" fill="black"/>
<path d="M159.618 275.733C159.095 269.331 159.095 262.847 159.618 256.444C160.142 262.848 160.142 269.331 159.618 275.733Z" fill="black"/>
<path d="M117.608 275.733C117.084 269.331 117.084 262.847 117.608 256.444C118.131 262.848 118.131 269.331 117.608 275.733Z" fill="black"/>
<path d="M111.514 275.733C110.99 269.331 110.99 262.847 111.514 256.444C112.038 262.848 112.038 269.331 111.514 275.733Z" fill="black"/>
<path d="M126.287 275.733C125.764 269.331 125.764 262.847 126.287 256.444C126.811 262.848 126.811 269.331 126.287 275.733Z" fill="black"/>
<path d="M182.041 275.733C181.517 269.331 181.517 262.847 182.041 256.444C182.565 262.848 182.565 269.331 182.041 275.733Z" fill="black"/>
</g>
<path opacity="0.1" d="M216.115 254.237V259.36L107.016 262.802V254.237H216.115Z" fill="black"/>
<path d="M199.095 263.782C202.055 262.503 205.348 262.541 208.625 263.896C209.736 264.359 210.535 265.945 210.41 267.446C210.327 268.398 209.893 269.086 209.301 269.342C208.962 269.489 208.57 269.493 208.165 269.325C205.672 268.296 203.162 268.261 200.906 269.237C196.215 271.265 193.569 277.228 193.747 284.063L206.934 278.362C207.936 277.929 209.151 278.802 209.652 280.311C210.151 281.816 209.748 283.389 208.746 283.821L194.576 289.947C194.729 290.545 194.904 291.139 195.103 291.738C195.28 292.272 195.471 292.791 195.675 293.299L207.62 288.136C208.622 287.703 209.837 288.576 210.337 290.085C210.837 291.589 210.433 293.162 209.432 293.595L198.426 298.353C202.265 303.713 207.77 306.251 212.507 304.203C214.78 303.221 216.653 301.277 217.922 298.587C218.127 298.152 218.424 297.859 218.765 297.712C219.354 297.457 220.077 297.639 220.69 298.285C221.659 299.308 221.988 301.101 221.426 302.293C219.758 305.824 217.301 308.373 214.318 309.663C207.553 312.587 199.585 308.387 194.55 300.029L192.228 301.033C191.229 301.464 190.011 300.593 189.512 299.088C189.012 297.579 189.418 296.005 190.416 295.574L192.04 294.872C191.841 294.361 191.654 293.836 191.478 293.306C191.281 292.711 191.1 292.116 190.938 291.52L188.761 292.461C187.762 292.893 186.545 292.021 186.046 290.517C185.545 289.007 185.951 287.434 186.949 287.002L189.856 285.746C188.843 275.757 192.372 266.689 199.095 263.782Z" fill="#FFC727"/>
<path d="M202.634 251.23C219.369 253.122 233.633 276.798 231.532 299.327C230.516 311.467 224.756 320.621 216.946 323.997C213.712 325.395 210.127 325.802 206.381 325.021C188.727 321.608 175.429 295.188 179.451 273.22C177.34 285.116 180.689 299.823 187.961 309.69C195.986 320.83 206.577 324.219 214.945 320.602C220.566 318.172 225.184 312.583 227.351 304.057C232.891 282.936 220.046 255.947 202.701 252.55C199.221 251.803 195.824 252.186 192.739 253.518C187.288 255.874 182.815 261.203 180.586 268.518C182.945 260.724 187.695 255.017 193.51 252.502C196.349 251.275 199.441 250.809 202.634 251.23Z" fill="#FFC727"/>
<path d="M215.921 333.718L205.193 336.392C189.489 340.307 171.627 326.3 163.973 303.232C155.751 278.45 162.421 252.597 178.872 245.486L189.6 242.812C173.149 249.923 166.479 275.776 174.701 300.558C182.355 323.626 200.217 337.633 215.921 333.718Z" fill="#FFC727"/>
<path d="M189.601 242.811C206.049 235.701 226.049 250.024 234.271 274.807C242.492 299.584 235.822 325.438 219.374 332.549C202.922 339.66 182.922 325.336 174.701 300.558C166.479 275.776 173.149 249.923 189.601 242.811ZM231.533 299.326C233.635 276.798 219.37 253.121 202.635 251.23C199.442 250.808 196.35 251.275 193.512 252.502C187.697 255.017 182.947 260.724 180.587 268.518C182.816 261.202 187.29 255.875 192.741 253.518C195.825 252.185 199.223 251.803 202.703 252.551C220.048 255.948 232.893 282.936 227.352 304.057C225.186 312.583 220.568 318.172 214.948 320.602C206.579 324.22 195.987 320.831 187.963 309.691C180.69 299.823 177.342 285.116 179.453 273.221C179.638 272.212 179.858 271.215 180.117 270.228C180.251 269.69 180.395 269.162 180.55 268.642C180.395 269.16 180.25 269.689 180.117 270.228C179.855 271.202 179.634 272.2 179.453 273.221C175.431 295.188 188.73 321.608 206.383 325.021C210.128 325.802 213.714 325.395 216.948 323.996C224.757 320.62 230.517 311.466 231.533 299.326ZM206.935 278.363L193.748 284.064C193.57 277.229 196.215 271.266 200.906 269.238C203.163 268.262 205.672 268.297 208.165 269.326C208.571 269.494 208.962 269.489 209.301 269.343C209.893 269.087 210.328 268.399 210.41 267.447C210.535 265.946 209.737 264.36 208.625 263.897C205.349 262.542 202.056 262.504 199.096 263.783C192.373 266.689 188.843 275.758 189.857 285.747L186.951 287.003C185.952 287.435 185.546 289.008 186.047 290.517C186.546 292.022 187.763 292.894 188.763 292.462L190.939 291.521C191.1 292.116 191.282 292.712 191.48 293.306C191.656 293.836 191.843 294.361 192.041 294.872L190.418 295.574C189.419 296.006 189.013 297.579 189.514 299.088C190.013 300.593 191.23 301.465 192.229 301.033L194.551 300.029C199.586 308.387 207.553 312.587 214.319 309.663C217.302 308.373 219.76 305.825 221.427 302.293C221.989 301.102 221.66 299.308 220.691 298.285C220.079 297.639 219.356 297.457 218.766 297.712C218.425 297.86 218.129 298.153 217.924 298.587C216.655 301.276 214.782 303.22 212.508 304.202C207.772 306.25 202.267 303.712 198.428 298.353L209.433 293.595C210.435 293.162 210.838 291.59 210.339 290.084C209.838 288.575 208.624 287.702 207.622 288.135L195.677 293.298C195.473 292.791 195.281 292.272 195.104 291.738C194.905 291.14 194.731 290.545 194.578 289.947L208.748 283.821C209.749 283.388 210.152 281.816 209.653 280.312C209.151 278.803 207.937 277.93 206.935 278.363Z" fill="#FFC727"/>
<path opacity="0.1" d="M199.095 263.782C202.055 262.503 205.348 262.541 208.625 263.896C209.736 264.359 210.535 265.945 210.41 267.446C210.327 268.398 209.893 269.086 209.301 269.342C208.962 269.489 208.57 269.493 208.165 269.325C205.672 268.296 203.162 268.261 200.906 269.237C196.215 271.265 193.569 277.228 193.747 284.063L206.934 278.362C207.936 277.929 209.151 278.802 209.652 280.311C210.151 281.816 209.748 283.389 208.746 283.821L194.576 289.947C194.729 290.545 194.904 291.139 195.103 291.738C195.28 292.272 195.471 292.791 195.675 293.299L207.62 288.136C208.622 287.703 209.837 288.576 210.337 290.085C210.837 291.589 210.433 293.162 209.432 293.595L198.426 298.353C202.265 303.713 207.77 306.251 212.507 304.203C214.78 303.221 216.653 301.277 217.922 298.587C218.127 298.152 218.424 297.859 218.765 297.712C219.354 297.457 220.077 297.639 220.69 298.285C221.659 299.308 221.988 301.101 221.426 302.293C219.758 305.824 217.301 308.373 214.318 309.663C207.553 312.587 199.585 308.387 194.55 300.029L192.228 301.033C191.229 301.464 190.011 300.593 189.512 299.088C189.012 297.579 189.418 296.005 190.416 295.574L192.04 294.872C191.841 294.361 191.654 293.836 191.478 293.306C191.281 292.711 191.1 292.116 190.938 291.52L188.761 292.461C187.762 292.893 186.545 292.021 186.046 290.517C185.545 289.007 185.951 287.434 186.949 287.002L189.856 285.746C188.843 275.757 192.372 266.689 199.095 263.782Z" fill="black"/>
<path opacity="0.1" d="M202.634 251.23C219.369 253.122 233.633 276.798 231.532 299.327C230.516 311.467 224.756 320.621 216.946 323.997C213.712 325.395 210.127 325.802 206.381 325.021C188.727 321.608 175.429 295.188 179.451 273.22C177.34 285.116 180.689 299.823 187.961 309.69C195.986 320.83 206.577 324.219 214.945 320.602C220.566 318.172 225.184 312.583 227.351 304.057C232.891 282.936 220.046 255.947 202.701 252.55C199.221 251.803 195.824 252.186 192.739 253.518C187.288 255.874 182.815 261.203 180.586 268.518C182.945 260.724 187.695 255.017 193.51 252.502C196.349 251.275 199.441 250.809 202.634 251.23Z" fill="black"/>
<path opacity="0.1" d="M215.921 333.718L205.193 336.392C189.489 340.307 171.627 326.3 163.973 303.232C155.751 278.45 162.421 252.597 178.872 245.486L189.6 242.812C173.149 249.923 166.479 275.776 174.701 300.558C182.355 323.626 200.217 337.633 215.921 333.718Z" fill="black"/>
<path opacity="0.1" d="M189.601 242.811C196.763 238.64 205.895 240.547 212.389 245.128C211.085 244.517 209.647 243.856 208.305 243.314C202.355 240.952 195.626 240.352 189.601 242.811Z" fill="black"/>
<path d="M217.899 134.05C210.287 114.767 184.074 101.596 159.344 104.634C134.618 107.667 120.739 125.765 128.351 145.047C135.959 164.329 162.176 177.501 186.902 174.463C211.632 171.424 225.506 153.333 217.899 134.05ZM192.836 119.015C192.164 118.618 191.466 118.237 190.752 117.866C191.466 118.227 192.159 118.614 192.836 119.015Z" fill="#FFC727"/>
<path d="M193.059 129.38C196.424 132.342 198.8 135.818 199.927 139.426C200.313 140.651 199.409 141.681 197.916 141.727C196.963 141.755 196 141.379 195.326 140.785C194.941 140.446 194.651 140.037 194.51 139.592C193.654 136.845 191.842 134.198 189.277 131.94C183.947 127.248 176.427 125.175 170.163 126.182L185.154 139.38C186.293 140.382 186.371 141.766 185.326 142.474C184.281 143.182 182.511 142.943 181.372 141.94L165.264 127.759C164.82 127.99 164.388 128.247 163.976 128.526C163.606 128.776 163.264 129.042 162.936 129.32L176.511 141.272C177.65 142.274 177.728 143.658 176.683 144.366C175.638 145.074 173.868 144.836 172.729 143.833L160.219 132.819C158.014 137.502 159.674 143.598 165.058 148.338C167.643 150.613 170.83 152.354 174.276 153.367C174.834 153.531 175.327 153.808 175.715 154.15C176.385 154.74 176.742 155.521 176.585 156.245C176.34 157.385 174.903 157.947 173.377 157.498C168.852 156.167 164.668 153.884 161.277 150.9C153.586 144.129 151.678 135.24 155.812 128.939L153.173 126.615C152.037 125.616 151.962 124.23 153.007 123.522C154.052 122.814 155.819 123.055 156.955 124.054L158.8 125.679C159.139 125.409 159.487 125.148 159.857 124.897C160.268 124.619 160.69 124.358 161.129 124.117L158.654 121.938C157.518 120.938 157.443 119.553 158.488 118.845C159.533 118.137 161.301 118.378 162.436 119.378L165.739 122.286C174.347 120.022 185.417 122.651 193.059 129.38Z" fill="#FFC727"/>
<g opacity="0.1">
<path d="M193.059 129.38C196.424 132.342 198.8 135.818 199.927 139.426C200.313 140.651 199.409 141.681 197.916 141.727C196.963 141.755 196 141.379 195.326 140.785C194.941 140.446 194.651 140.037 194.51 139.592C193.654 136.845 191.842 134.198 189.277 131.94C183.947 127.248 176.427 125.175 170.163 126.182L185.154 139.38C186.293 140.382 186.371 141.766 185.326 142.474C184.281 143.182 182.511 142.943 181.372 141.94L165.264 127.759C164.82 127.99 164.388 128.247 163.976 128.526C163.606 128.776 163.264 129.042 162.936 129.32L176.511 141.272C177.65 142.274 177.728 143.658 176.683 144.366C175.638 145.074 173.868 144.836 172.729 143.833L160.219 132.819C158.014 137.502 159.674 143.598 165.058 148.338C167.643 150.613 170.83 152.354 174.276 153.367C174.834 153.531 175.327 153.808 175.715 154.15C176.385 154.74 176.742 155.521 176.585 156.245C176.34 157.385 174.903 157.947 173.377 157.498C168.852 156.167 164.668 153.884 161.277 150.9C153.586 144.129 151.678 135.24 155.812 128.939L153.173 126.615C152.037 125.616 151.962 124.23 153.007 123.522C154.052 122.814 155.819 123.055 156.955 124.054L158.8 125.679C159.139 125.409 159.487 125.148 159.857 124.897C160.268 124.619 160.69 124.358 161.129 124.117L158.654 121.938C157.518 120.938 157.443 119.553 158.488 118.845C159.533 118.137 161.301 118.378 162.436 119.378L165.739 122.286C174.347 120.022 185.417 122.651 193.059 129.38Z" fill="black"/>
</g>
<path d="M149.653 115.85C130.926 124.662 130.516 146.007 148.913 159.176C158.683 166.325 172.041 169.438 183.782 167.997C188.644 167.4 193.228 166.022 197.168 163.827C215.952 153.624 213.234 130.942 192.838 119.015C203.813 125.509 210.208 136.289 208.441 145.822C206.674 156.461 196.366 163.412 183.786 164.956C175.336 165.994 165.863 164.594 157.258 160.237C135.731 149.517 132.106 126.743 150.502 116.709C154.147 114.655 158.49 113.346 163.126 112.777C171.391 111.762 180.591 113.094 188.461 116.733C180.098 112.852 170.3 111.407 161.49 112.488C157.22 113.013 153.184 114.13 149.653 115.85Z" fill="#FFC727"/>
<g opacity="0.1">
<path d="M149.653 115.85C130.926 124.662 130.516 146.007 148.913 159.176C158.683 166.325 172.041 169.438 183.782 167.997C188.644 167.4 193.228 166.022 197.168 163.827C215.952 153.624 213.234 130.942 192.838 119.015C203.813 125.509 210.208 136.289 208.441 145.822C206.674 156.461 196.366 163.412 183.786 164.956C175.336 165.994 165.863 164.594 157.258 160.237C135.731 149.517 132.106 126.743 150.502 116.709C154.147 114.655 158.49 113.346 163.126 112.777C171.391 111.762 180.591 113.094 188.461 116.733C180.098 112.852 170.3 111.407 161.49 112.488C157.22 113.013 153.184 114.13 149.653 115.85Z" fill="black"/>
</g>
<path d="M126.931 128.728L124.572 138.774C123.373 143.877 123.756 149.433 125.989 155.091C133.598 174.373 159.815 187.544 184.54 184.508C202.015 182.362 214.07 172.699 216.956 160.412L219.315 150.367C216.429 162.655 204.374 172.318 186.9 174.463C162.173 177.499 135.957 164.327 128.347 145.045C126.115 139.387 125.732 133.832 126.931 128.728Z" fill="#FFC727"/>
<g opacity="0.1">
<path d="M126.931 128.728L124.572 138.774C123.373 143.877 123.756 149.433 125.989 155.091C133.598 174.373 159.815 187.544 184.54 184.508C202.015 182.362 214.07 172.699 216.956 160.412L219.315 150.367C216.429 162.655 204.374 172.318 186.9 174.463C162.173 177.499 135.957 164.327 128.347 145.045C126.115 139.387 125.732 133.832 126.931 128.728Z" fill="black"/>
</g>
<path d="M196.47 136.596L203.471 137.89L205.036 145.27L206.6 137.89L213.601 136.593L206.63 134.889L205.036 127.918L203.441 134.889L196.47 136.596Z" fill="white"/>
<path d="M121.047 215.181L124.961 215.904L125.835 220.029L126.709 215.904L130.622 215.178L126.725 214.226L125.835 210.33L124.944 214.226L121.047 215.181Z" fill="white"/>
<path d="M194.222 249.56L198.135 250.283L199.009 254.408L199.884 250.283L203.797 249.558L199.9 248.605L199.009 244.709L198.118 248.605L194.222 249.56Z" fill="white"/>
<path d="M192.818 121.534C194.277 121.534 194.28 123.803 192.818 123.803C191.358 123.803 191.355 121.534 192.818 121.534Z" fill="white"/>
<path d="M190.792 255.842C191.825 255.842 191.826 257.447 190.792 257.447C189.759 257.447 189.757 255.842 190.792 255.842Z" fill="white"/>
</svg>
