<svg width="384" height="231" viewBox="0 0 384 231" fill="none" xmlns="http://www.w3.org/2000/svg">
<path d="M384 0.199707H0V230.6H384V0.199707Z" fill="white"/>
<path d="M158.164 107.247L135.165 36.4629C102.208 48.3208 74.0316 70.1962 54.3093 98.4174L114.474 142.13C125.068 126.467 140.285 114.189 158.164 107.247Z" fill="#F0BB67"/>
<path d="M265.722 136.904L325.888 93.1908C304.361 64.7752 273.998 43.4256 238.888 33.2324L215.889 104.017C235.921 109.294 253.324 121.046 265.722 136.904Z" fill="#8CF07A"/>
<path d="M285.527 194.461H359.867C359.867 156.423 347.213 121.341 325.887 93.1907L265.722 136.904C278.13 152.775 285.527 172.754 285.527 194.461Z" fill="#409647"/>
<path d="M192 100.933C200.257 100.933 208.262 102.008 215.888 104.017L238.888 33.2324C224.007 28.9122 208.275 26.5933 192 26.5933C172.051 26.5933 152.915 30.0763 135.165 36.4628L158.164 107.247C168.658 103.173 180.067 100.933 192 100.933Z" fill="#F0EB67"/>
<path d="M114.474 142.129L54.3089 98.4172C35.2908 125.631 24.1323 158.742 24.1323 194.46H98.4723C98.4723 175.074 104.372 157.064 114.474 142.129Z" fill="#F06767"/>
<path d="M164 109.246L138.311 30.1997C101.5 43.4416 70.0287 67.8704 48 99.3855L115.201 148.2C127.033 130.709 144.03 116.998 164 109.246Z" fill="#F0BB67"/>
<path d="M316.815 132.417C313.823 132.417 310.921 133.003 308.191 134.158C305.552 135.274 303.182 136.872 301.146 138.908C299.111 140.943 297.513 143.313 296.397 145.952C295.242 148.682 294.656 151.584 294.656 154.577C294.656 157.569 295.242 160.471 296.397 163.201C297.513 165.84 299.111 168.21 301.146 170.246C303.182 172.281 305.552 173.879 308.191 174.995C310.921 176.15 313.823 176.736 316.815 176.736C319.808 176.736 322.71 176.15 325.44 174.995C328.079 173.879 330.449 172.281 332.484 170.246C334.52 168.21 336.118 165.84 337.234 163.201C338.389 160.471 338.975 157.569 338.975 154.577C338.975 151.584 338.389 148.682 337.234 145.952C336.118 143.313 334.52 140.943 332.484 138.908C330.449 136.872 328.079 135.274 325.44 134.158C322.71 133.003 319.808 132.417 316.815 132.417ZM316.815 130.394C330.171 130.394 340.998 141.221 340.998 154.577C340.998 167.932 330.171 178.759 316.815 178.759C303.46 178.759 292.633 167.932 292.633 154.577C292.633 141.221 303.46 130.394 316.815 130.394Z" fill="black"/>
<path d="M306.733 154.639C304.922 154.489 303.575 152.898 303.726 151.087C303.877 149.276 305.467 147.93 307.278 148.08C309.089 148.231 310.435 149.821 310.285 151.633C310.134 153.444 308.544 154.79 306.733 154.639Z" fill="black"/>
<path d="M326.426 154.647C324.612 154.547 323.222 152.994 323.323 151.179C323.424 149.365 324.977 147.975 326.792 148.076C328.606 148.177 329.995 149.73 329.895 151.544C329.794 153.359 328.241 154.748 326.426 154.647Z" fill="black"/>
<path d="M328.709 160.117C326.616 164.588 322.077 167.684 316.816 167.684C311.554 167.684 307.015 164.588 304.922 160.117H328.709Z" fill="black"/>
<path d="M265.722 66.9202C262.729 66.9202 259.828 67.5059 257.097 68.6608C254.458 69.7768 252.088 71.3749 250.053 73.4105C248.017 75.4462 246.419 77.8163 245.303 80.4548C244.148 83.1854 243.562 86.0872 243.562 89.0795C243.562 92.072 244.148 94.9737 245.303 97.7043C246.419 100.343 248.017 102.713 250.053 104.749C252.088 106.784 254.458 108.382 257.097 109.498C259.828 110.653 262.729 111.239 265.722 111.239C268.714 111.239 271.616 110.653 274.347 109.498C276.985 108.382 279.355 106.784 281.391 104.749C283.426 102.713 285.024 100.343 286.14 97.7043C287.295 94.9737 287.881 92.072 287.881 89.0795C287.881 86.0871 287.295 83.1854 286.14 80.4548C285.024 77.8163 283.426 75.4462 281.391 73.4105C279.355 71.3749 276.985 69.7768 274.347 68.6608C271.616 67.5059 268.714 66.9202 265.722 66.9202ZM265.722 64.897C279.077 64.897 289.904 75.724 289.904 89.0797C289.904 102.435 279.077 113.262 265.722 113.262C252.366 113.262 241.539 102.435 241.539 89.0797C241.539 75.724 252.366 64.897 265.722 64.897Z" fill="black"/>
<path d="M254.352 88.7558C252.752 87.8931 252.155 85.8971 253.017 84.2974C253.88 82.6978 255.876 82.1004 257.476 82.9631C259.075 83.8258 259.673 85.8219 258.81 87.4215C257.947 89.0211 255.951 89.6185 254.352 88.7558Z" fill="black"/>
<path d="M273.953 88.7563C272.354 87.8936 271.756 85.8975 272.619 84.2979C273.482 82.6983 275.478 82.1009 277.077 82.9636C278.677 83.8263 279.274 85.8224 278.412 87.422C277.549 89.0216 275.553 89.619 273.953 88.7563Z" fill="black"/>
<path d="M277.615 94.6204C275.523 99.0906 270.984 102.187 265.722 102.187C260.46 102.187 255.921 99.0906 253.828 94.6204C255.301 95.6523 259.594 98.3735 265.727 98.3721C271.854 98.3706 276.142 95.6527 277.615 94.6204Z" fill="black"/>
<path d="M187.026 44.7608C184.034 44.7608 181.132 45.3465 178.402 46.5014C175.763 47.6174 173.393 49.2154 171.357 51.2511C169.322 53.2868 167.724 55.6569 166.608 58.2953C165.453 61.026 164.867 63.9277 164.867 66.9201C164.867 69.9126 165.453 72.8143 166.608 75.5449C167.724 78.1834 169.322 80.5535 171.357 82.5891C173.393 84.6249 175.763 86.2229 178.402 87.3389C181.132 88.4938 184.034 89.0795 187.026 89.0795C190.019 89.0795 192.921 88.4938 195.651 87.3389C198.29 86.2229 200.66 84.6248 202.695 82.5891C204.731 80.5535 206.329 78.1834 207.445 75.5449C208.6 72.8143 209.186 69.9126 209.186 66.9201C209.186 63.9277 208.6 61.026 207.445 58.2953C206.329 55.6569 204.731 53.2868 202.695 51.2511C200.66 49.2154 198.29 47.6174 195.651 46.5014C192.921 45.3463 190.019 44.7608 187.026 44.7608ZM187.026 42.7375C200.382 42.7375 211.209 53.5644 211.209 66.9201C211.209 80.2758 200.382 91.1027 187.026 91.1027C173.671 91.1027 162.844 80.2757 162.844 66.9201C162.844 53.5644 173.671 42.7375 187.026 42.7375Z" fill="black"/>
<path d="M177.226 66.9915C175.409 66.9915 173.935 65.5183 173.935 63.701C173.935 61.8836 175.409 60.4104 177.226 60.4104C179.043 60.4104 180.517 61.8836 180.517 63.701C180.517 65.5183 179.043 66.9915 177.226 66.9915Z" fill="black"/>
<path d="M196.827 66.9915C195.009 66.9915 193.536 65.5183 193.536 63.701C193.536 61.8836 195.009 60.4104 196.827 60.4104C198.644 60.4104 200.117 61.8836 200.117 63.701C200.117 65.5183 198.644 66.9915 196.827 66.9915Z" fill="black"/>
<path d="M198.78 76.7559H175.133C174.44 76.7559 173.879 76.1944 173.879 75.5016C173.879 74.8088 174.441 74.2473 175.133 74.2473H198.78C199.473 74.2473 200.034 74.8088 200.034 75.5016C200.034 76.1944 199.473 76.7559 198.78 76.7559Z" fill="black"/>
<path d="M114.474 66.9918C111.481 66.9918 108.579 67.5774 105.849 68.7323C103.21 69.8483 100.84 71.4464 98.8047 73.4821C96.769 75.5178 95.1709 77.8878 94.0549 80.5263C92.9 83.2569 92.3143 86.1587 92.3143 89.1511C92.3143 92.1435 92.9 95.0452 94.0549 97.7759C95.1709 100.414 96.769 102.784 98.8047 104.82C100.84 106.856 103.21 108.454 105.849 109.57C108.58 110.725 111.481 111.31 114.474 111.31C117.466 111.31 120.368 110.725 123.098 109.57C125.737 108.454 128.107 106.856 130.143 104.82C132.178 102.784 133.776 100.414 134.892 97.7759C136.047 95.0452 136.633 92.1435 136.633 89.1511C136.633 86.1587 136.047 83.2569 134.892 80.5263C133.776 77.8878 132.178 75.5178 130.143 73.4821C128.107 71.4464 125.737 69.8483 123.098 68.7323C120.368 67.5774 117.466 66.9918 114.474 66.9918ZM114.474 64.9685C127.829 64.9685 138.656 75.7954 138.656 89.1511C138.656 102.507 127.829 113.334 114.474 113.334C101.118 113.334 90.2911 102.507 90.2911 89.1511C90.2911 75.7955 101.118 64.9685 114.474 64.9685Z" fill="black"/>
<path d="M103.927 89.1168C102.158 88.6992 101.063 86.9269 101.481 85.1583C101.898 83.3897 103.671 82.2945 105.439 82.7121C107.208 83.1297 108.303 84.902 107.885 86.6706C107.468 88.4393 105.696 89.5345 103.927 89.1168Z" fill="black"/>
<path d="M121.949 88.2599C120.664 86.9748 120.664 84.8914 121.949 83.6063C123.234 82.3213 125.318 82.3213 126.603 83.6063C127.888 84.8914 127.888 86.9748 126.603 88.2599C125.318 89.5449 123.234 89.5449 121.949 88.2599Z" fill="black"/>
<path d="M126.367 101.383C124.275 96.9124 119.736 93.8164 114.474 93.8164C109.212 93.8164 104.673 96.9124 102.58 101.383C104.053 100.351 108.346 97.6295 114.479 97.6309C120.606 97.6324 124.894 100.35 126.367 101.383Z" fill="black"/>
<path d="M69.3038 132.417C66.3113 132.417 63.4096 133.003 60.679 134.158C58.0405 135.274 55.6704 136.872 53.6347 138.908C51.5991 140.943 50.001 143.313 48.885 145.952C47.7301 148.682 47.1444 151.584 47.1444 154.577C47.1444 157.569 47.7301 160.471 48.885 163.201C50.001 165.84 51.5991 168.21 53.6347 170.246C55.6704 172.281 58.0405 173.879 60.679 174.995C63.4096 176.15 66.3113 176.736 69.3038 176.736C72.2962 176.736 75.1979 176.15 77.9285 174.995C80.567 173.879 82.9371 172.281 84.9728 170.246C87.0084 168.21 88.6065 165.84 89.7225 163.201C90.8774 160.471 91.4631 157.569 91.4631 154.577C91.4631 151.584 90.8775 148.682 89.7225 145.952C88.6065 143.313 87.0084 140.943 84.9728 138.908C82.9371 136.872 80.567 135.274 77.9285 134.158C75.1979 133.003 72.2961 132.417 69.3038 132.417ZM69.3038 130.394C82.6595 130.394 93.4863 141.221 93.4863 154.577C93.4863 167.932 82.6595 178.759 69.3038 178.759C55.948 178.759 45.1212 167.932 45.1212 154.577C45.1211 141.221 55.948 130.394 69.3038 130.394Z" fill="black"/>
<path d="M69.3038 159.242C64.0419 159.242 59.5029 162.338 57.4104 166.808C59.845 165.814 64.0352 164.459 69.3869 164.473C74.6512 164.487 78.7767 165.82 81.1973 166.808C79.1045 162.338 74.5656 159.242 69.3038 159.242Z" fill="black"/>
<path d="M58.2593 153.766L59.6875 151.847L61.6059 153.275C61.7968 153.418 62.0196 153.486 62.2406 153.486C62.5654 153.486 62.8861 153.338 63.095 153.057C63.4459 152.586 63.3484 151.919 62.877 151.568L60.9586 150.14L62.3868 148.222C62.7378 147.75 62.6401 147.083 62.1687 146.732C61.6973 146.381 61.0306 146.479 60.6796 146.95L59.2514 148.869L57.3331 147.441C56.8618 147.09 56.195 147.187 55.8438 147.659C55.4929 148.13 55.5905 148.797 56.0619 149.148L57.9802 150.576L56.552 152.494C56.201 152.966 56.2987 153.633 56.7701 153.984C56.9609 154.126 57.1838 154.194 57.4048 154.194C57.7296 154.194 58.0504 154.046 58.2593 153.766Z" fill="black"/>
<path d="M82.764 147.659C82.4129 147.187 81.7461 147.09 81.2747 147.441L79.3564 148.869L77.9282 146.951C77.5772 146.479 76.9104 146.381 76.439 146.732C75.9675 147.083 75.8699 147.75 76.2209 148.222L77.6491 150.14L75.7306 151.568C75.2592 151.919 75.1615 152.586 75.5125 153.057C75.7214 153.338 76.0422 153.486 76.367 153.486C76.588 153.486 76.8109 153.418 77.0018 153.276L78.9203 151.847L80.3484 153.766C80.5573 154.046 80.878 154.194 81.2029 154.194C81.4238 154.194 81.6468 154.126 81.8376 153.984C82.309 153.633 82.4067 152.966 82.0556 152.495L80.6275 150.576L82.5459 149.148C83.0173 148.797 83.1149 148.13 82.764 147.659Z" fill="black"/>
<path d="M194.581 188.262C197.858 192.568 197.023 198.721 192.717 201.998C188.411 205.275 182.258 204.44 178.981 200.134C178.57 199.594 178.225 199.025 177.942 198.436L128.585 117.883L128.732 117.772L193.221 186.808C193.713 187.237 194.169 187.721 194.581 188.262Z" fill="#141414"/>
<path opacity="0.2" d="M194.581 188.262C197.858 192.568 197.023 198.721 192.717 201.998L128.658 117.827L128.732 117.772L193.221 186.808C193.713 187.237 194.169 187.721 194.581 188.262Z" fill="#9C9C9C"/>
<path d="M190.503 199.203C187.555 201.166 183.573 200.368 181.609 197.419C179.646 194.47 180.445 190.488 183.393 188.525C186.342 186.562 190.324 187.361 192.287 190.309C194.251 193.258 193.452 197.24 190.503 199.203Z" fill="#5C5C5C"/>
</svg>
