<svg width="384" height="231" viewBox="0 0 384 231" fill="none" xmlns="http://www.w3.org/2000/svg">
<path d="M384 0.399902H0V230.8H384V0.399902Z" fill="white"/>
<path d="M158.164 107.447L135.165 36.6628C102.208 48.5207 74.0316 70.3962 54.3093 98.6174L114.474 142.329C125.068 126.667 140.285 114.389 158.164 107.447Z" fill="#F0BB67"/>
<path d="M265.722 137.104L325.888 93.3907C304.361 64.9752 273.998 43.6255 238.888 33.4324L215.889 104.217C235.921 109.494 253.324 121.246 265.722 137.104Z" fill="#8CF07A"/>
<path d="M285.527 194.661H359.867C359.867 156.623 347.213 121.541 325.887 93.3909L265.722 137.104C278.13 152.975 285.527 172.954 285.527 194.661Z" fill="#409647"/>
<path d="M192 101.133C200.257 101.133 208.262 102.208 215.888 104.217L238.888 33.4326C224.007 29.1124 208.275 26.7935 192 26.7935C172.051 26.7935 152.915 30.2765 135.165 36.663L158.164 107.447C168.658 103.373 180.067 101.133 192 101.133Z" fill="#F0EB67"/>
<path d="M114.474 142.33L54.3089 98.6174C35.2908 125.831 24.1323 158.943 24.1323 194.661H98.4723C98.4723 175.274 104.372 157.265 114.474 142.33Z" fill="#F06767"/>
<path d="M264.629 144.4L333 94.6452C308.538 62.3023 274.034 38.0019 234.136 26.3999L208 106.968C230.764 112.974 250.54 126.351 264.629 144.4Z" fill="#8CF07A"/>
<path d="M316.815 132.617C313.823 132.617 310.921 133.203 308.191 134.358C305.552 135.474 303.182 137.072 301.146 139.108C299.111 141.143 297.513 143.513 296.397 146.152C295.242 148.882 294.656 151.784 294.656 154.777C294.656 157.769 295.242 160.671 296.397 163.401C297.513 166.04 299.111 168.41 301.146 170.446C303.182 172.481 305.552 174.079 308.191 175.195C310.921 176.35 313.823 176.936 316.815 176.936C319.808 176.936 322.71 176.35 325.44 175.195C328.079 174.079 330.449 172.481 332.484 170.446C334.52 168.41 336.118 166.04 337.234 163.401C338.389 160.671 338.975 157.769 338.975 154.777C338.975 151.784 338.389 148.882 337.234 146.152C336.118 143.513 334.52 141.143 332.484 139.108C330.449 137.072 328.079 135.474 325.44 134.358C322.71 133.203 319.808 132.617 316.815 132.617ZM316.815 130.594C330.171 130.594 340.998 141.421 340.998 154.777C340.998 168.132 330.171 178.959 316.815 178.959C303.46 178.959 292.633 168.132 292.633 154.777C292.633 141.421 303.46 130.594 316.815 130.594Z" fill="black"/>
<path d="M306.733 154.839C304.922 154.689 303.575 153.098 303.726 151.287C303.877 149.476 305.467 148.13 307.278 148.28C309.089 148.431 310.435 150.021 310.285 151.833C310.134 153.644 308.544 154.99 306.733 154.839Z" fill="black"/>
<path d="M326.426 154.847C324.612 154.747 323.222 153.194 323.323 151.379C323.424 149.565 324.977 148.175 326.792 148.276C328.606 148.377 329.995 149.93 329.895 151.744C329.794 153.559 328.241 154.948 326.426 154.847Z" fill="black"/>
<path d="M328.709 160.317C326.616 164.788 322.077 167.884 316.816 167.884C311.554 167.884 307.015 164.788 304.922 160.317H328.709Z" fill="black"/>
<path d="M265.722 67.1202C262.729 67.1202 259.828 67.7058 257.097 68.8607C254.458 69.9767 252.088 71.5748 250.053 73.6105C248.017 75.6462 246.419 78.0162 245.303 80.6547C244.148 83.3853 243.562 86.2872 243.562 89.2795C243.562 92.2719 244.148 95.1737 245.303 97.9043C246.419 100.543 248.017 102.913 250.053 104.949C252.088 106.984 254.458 108.582 257.097 109.698C259.828 110.853 262.729 111.439 265.722 111.439C268.714 111.439 271.616 110.853 274.347 109.698C276.985 108.582 279.355 106.984 281.391 104.949C283.426 102.913 285.024 100.543 286.14 97.9043C287.295 95.1737 287.881 92.2719 287.881 89.2795C287.881 86.2871 287.295 83.3853 286.14 80.6547C285.024 78.0162 283.426 75.6462 281.391 73.6105C279.355 71.5748 276.985 69.9767 274.347 68.8607C271.616 67.7058 268.714 67.1202 265.722 67.1202ZM265.722 65.0969C279.077 65.0969 289.904 75.9239 289.904 89.2796C289.904 102.635 279.077 113.462 265.722 113.462C252.366 113.462 241.539 102.635 241.539 89.2796C241.539 75.9239 252.366 65.0969 265.722 65.0969Z" fill="black"/>
<path d="M254.352 88.9558C252.752 88.0931 252.155 86.097 253.017 84.4974C253.88 82.8978 255.876 82.3004 257.476 83.1631C259.075 84.0258 259.673 86.0218 258.81 87.6215C257.947 89.2211 255.951 89.8185 254.352 88.9558Z" fill="black"/>
<path d="M273.953 88.9563C272.354 88.0936 271.756 86.0975 272.619 84.4979C273.482 82.8983 275.478 82.3009 277.077 83.1636C278.677 84.0262 279.274 86.0223 278.412 87.6219C277.549 89.2216 275.553 89.819 273.953 88.9563Z" fill="black"/>
<path d="M277.615 94.8203C275.523 99.2905 270.984 102.387 265.722 102.387C260.46 102.387 255.921 99.2905 253.828 94.8203C255.301 95.8523 259.594 98.5735 265.727 98.572C271.854 98.5706 276.142 95.8526 277.615 94.8203Z" fill="black"/>
<path d="M187.026 44.961C184.034 44.961 181.132 45.5467 178.402 46.7015C175.763 47.8176 173.393 49.4156 171.357 51.4513C169.322 53.487 167.724 55.8571 166.608 58.4955C165.453 61.2262 164.867 64.1279 164.867 67.1203C164.867 70.1127 165.453 73.0145 166.608 75.7451C167.724 78.3836 169.322 80.7537 171.357 82.7893C173.393 84.8251 175.763 86.4231 178.402 87.5391C181.132 88.694 184.034 89.2797 187.026 89.2797C190.019 89.2797 192.921 88.694 195.651 87.5391C198.29 86.4231 200.66 84.825 202.695 82.7893C204.731 80.7537 206.329 78.3836 207.445 75.7451C208.6 73.0145 209.186 70.1127 209.186 67.1203C209.186 64.1279 208.6 61.2262 207.445 58.4955C206.329 55.8571 204.731 53.487 202.695 51.4513C200.66 49.4156 198.29 47.8176 195.651 46.7015C192.921 45.5465 190.019 44.961 187.026 44.961ZM187.026 42.9377C200.382 42.9377 211.209 53.7646 211.209 67.1203C211.209 80.476 200.382 91.3029 187.026 91.3029C173.671 91.3029 162.844 80.4759 162.844 67.1203C162.844 53.7646 173.671 42.9377 187.026 42.9377Z" fill="black"/>
<path d="M177.226 67.1917C175.409 67.1917 173.935 65.7185 173.935 63.9012C173.935 62.0838 175.409 60.6106 177.226 60.6106C179.043 60.6106 180.517 62.0838 180.517 63.9012C180.517 65.7185 179.043 67.1917 177.226 67.1917Z" fill="black"/>
<path d="M196.827 67.1917C195.009 67.1917 193.536 65.7185 193.536 63.9012C193.536 62.0838 195.009 60.6106 196.827 60.6106C198.644 60.6106 200.117 62.0838 200.117 63.9012C200.117 65.7185 198.644 67.1917 196.827 67.1917Z" fill="black"/>
<path d="M198.78 76.9561H175.133C174.44 76.9561 173.879 76.3946 173.879 75.7018C173.879 75.009 174.441 74.4475 175.133 74.4475H198.78C199.473 74.4475 200.034 75.009 200.034 75.7018C200.034 76.3946 199.473 76.9561 198.78 76.9561Z" fill="black"/>
<path d="M114.474 67.1917C111.481 67.1917 108.579 67.7774 105.849 68.9323C103.21 70.0483 100.84 71.6463 98.8047 73.682C96.769 75.7177 95.1709 78.0878 94.0549 80.7263C92.9 83.4569 92.3143 86.3586 92.3143 89.351C92.3143 92.3435 92.9 95.2452 94.0549 97.9758C95.1709 100.614 96.769 102.984 98.8047 105.02C100.84 107.056 103.21 108.654 105.849 109.77C108.58 110.925 111.481 111.51 114.474 111.51C117.466 111.51 120.368 110.925 123.098 109.77C125.737 108.654 128.107 107.056 130.143 105.02C132.178 102.984 133.776 100.614 134.892 97.9758C136.047 95.2452 136.633 92.3435 136.633 89.351C136.633 86.3586 136.047 83.4569 134.892 80.7263C133.776 78.0878 132.178 75.7177 130.143 73.682C128.107 71.6463 125.737 70.0483 123.098 68.9323C120.368 67.7774 117.466 67.1917 114.474 67.1917ZM114.474 65.1685C127.829 65.1685 138.656 75.9953 138.656 89.351C138.656 102.707 127.829 113.534 114.474 113.534C101.118 113.534 90.2911 102.707 90.2911 89.351C90.2911 75.9954 101.118 65.1685 114.474 65.1685Z" fill="black"/>
<path d="M103.927 89.3168C102.158 88.8992 101.063 87.1269 101.481 85.3582C101.898 83.5896 103.671 82.4944 105.439 82.912C107.208 83.3297 108.303 85.102 107.885 86.8706C107.468 88.6392 105.696 89.7344 103.927 89.3168Z" fill="black"/>
<path d="M121.949 88.4598C120.664 87.1748 120.664 85.0913 121.949 83.8063C123.234 82.5213 125.318 82.5213 126.603 83.8063C127.888 85.0913 127.888 87.1748 126.603 88.4598C125.318 89.7448 123.234 89.7448 121.949 88.4598Z" fill="black"/>
<path d="M126.367 101.583C124.275 97.1124 119.736 94.0164 114.474 94.0164C109.212 94.0164 104.673 97.1124 102.58 101.583C104.053 100.551 108.346 97.8294 114.479 97.8309C120.606 97.8323 124.894 100.55 126.367 101.583Z" fill="black"/>
<path d="M69.3038 132.617C66.3113 132.617 63.4096 133.203 60.679 134.358C58.0405 135.474 55.6704 137.072 53.6347 139.108C51.5991 141.143 50.001 143.513 48.885 146.152C47.7301 148.882 47.1444 151.784 47.1444 154.777C47.1444 157.769 47.7301 160.671 48.885 163.401C50.001 166.04 51.5991 168.41 53.6347 170.446C55.6704 172.481 58.0405 174.079 60.679 175.195C63.4096 176.35 66.3113 176.936 69.3038 176.936C72.2962 176.936 75.1979 176.35 77.9285 175.195C80.567 174.079 82.9371 172.481 84.9728 170.446C87.0084 168.41 88.6065 166.04 89.7225 163.401C90.8774 160.671 91.4631 157.769 91.4631 154.777C91.4631 151.784 90.8775 148.882 89.7225 146.152C88.6065 143.513 87.0084 141.143 84.9728 139.108C82.9371 137.072 80.567 135.474 77.9285 134.358C75.1979 133.203 72.2961 132.617 69.3038 132.617ZM69.3038 130.594C82.6595 130.594 93.4863 141.421 93.4863 154.777C93.4863 168.132 82.6595 178.959 69.3038 178.959C55.948 178.959 45.1212 168.132 45.1212 154.777C45.1211 141.421 55.948 130.594 69.3038 130.594Z" fill="black"/>
<path d="M69.3038 159.442C64.0419 159.442 59.5029 162.538 57.4104 167.008C59.845 166.014 64.0352 164.659 69.3869 164.673C74.6512 164.687 78.7767 166.02 81.1973 167.008C79.1045 162.538 74.5656 159.442 69.3038 159.442Z" fill="black"/>
<path d="M58.2593 153.966L59.6875 152.047L61.6059 153.475C61.7968 153.618 62.0196 153.686 62.2406 153.686C62.5654 153.686 62.8861 153.538 63.095 153.257C63.4459 152.786 63.3484 152.119 62.877 151.768L60.9586 150.34L62.3868 148.422C62.7378 147.95 62.6401 147.283 62.1687 146.932C61.6973 146.581 61.0306 146.679 60.6796 147.15L59.2514 149.069L57.3331 147.641C56.8618 147.289 56.195 147.387 55.8438 147.859C55.4929 148.33 55.5905 148.997 56.0619 149.348L57.9802 150.776L56.552 152.694C56.201 153.166 56.2987 153.833 56.7701 154.184C56.9609 154.326 57.1838 154.394 57.4048 154.394C57.7296 154.394 58.0504 154.246 58.2593 153.966Z" fill="black"/>
<path d="M82.764 147.859C82.4129 147.387 81.7461 147.289 81.2747 147.641L79.3564 149.069L77.9282 147.15C77.5772 146.679 76.9104 146.581 76.439 146.932C75.9675 147.283 75.8699 147.95 76.2209 148.422L77.6491 150.34L75.7306 151.768C75.2592 152.119 75.1615 152.786 75.5125 153.257C75.7214 153.538 76.0422 153.686 76.367 153.686C76.588 153.686 76.8109 153.618 77.0018 153.475L78.9203 152.047L80.3484 153.966C80.5573 154.246 80.878 154.394 81.2029 154.394C81.4238 154.394 81.6468 154.326 81.8376 154.184C82.309 153.833 82.4067 153.166 82.0556 152.695L80.6275 150.776L82.5459 149.348C83.0173 148.997 83.1149 148.33 82.764 147.859Z" fill="black"/>
<path d="M194.043 199.863C190.793 204.189 184.646 205.062 180.319 201.812C175.993 198.562 175.119 192.414 178.37 188.088C178.778 187.545 179.231 187.058 179.721 186.626L243.779 117.19L243.926 117.3L195.072 198.159C194.792 198.749 194.451 199.32 194.043 199.863Z" fill="#141414"/>
<path opacity="0.2" d="M194.043 199.863C190.793 204.189 184.646 205.062 180.319 201.812L243.853 117.245L243.927 117.3L195.072 198.158C194.793 198.749 194.451 199.32 194.043 199.863Z" fill="#9C9C9C"/>
<path d="M182.405 198.92C179.713 196.618 179.396 192.569 181.699 189.877C184.001 187.184 188.05 186.868 190.742 189.17C193.435 191.473 193.751 195.521 191.449 198.214C189.146 200.906 185.098 201.223 182.405 198.92Z" fill="#5C5C5C"/>
</svg>
