<svg width="384" height="231" viewBox="0 0 384 231" fill="none" xmlns="http://www.w3.org/2000/svg">
<path d="M384 0.599609H0V231H384V0.599609Z" fill="white"/>
<path d="M158.164 107.647L135.165 36.8628C102.208 48.7207 74.0316 70.5961 54.3093 98.8173L114.474 142.529C125.068 126.866 140.285 114.589 158.164 107.647Z" fill="#F0BB67"/>
<path d="M265.722 137.304L325.888 93.5907C304.361 65.1751 273.998 43.8255 238.888 33.6323L215.889 104.417C235.921 109.694 253.324 121.446 265.722 137.304Z" fill="#8CF07A"/>
<path d="M285.527 194.86H359.867C359.867 156.823 347.213 121.741 325.887 93.5906L265.722 137.304C278.13 153.175 285.527 173.154 285.527 194.86Z" fill="#409647"/>
<path d="M192 101.333C200.257 101.333 208.262 102.408 215.888 104.417L238.888 33.6323C224.007 29.3121 208.275 26.9932 192 26.9932C172.051 26.9932 152.915 30.4762 135.165 36.8627L158.164 107.647C168.658 103.572 180.067 101.333 192 101.333Z" fill="#F0EB67"/>
<path d="M114.474 142.529L54.3089 98.8171C35.2908 126.031 24.1323 159.142 24.1323 194.86H98.4723C98.4723 175.474 104.372 157.464 114.474 142.529Z" fill="#F06767"/>
<path d="M120 141.754L52.7369 92.5996C31.475 123.201 19 160.435 19 200.6H102.111C102.111 178.799 108.707 158.548 120 141.754Z" fill="#F06767"/>
<path d="M316.815 132.817C313.823 132.817 310.921 133.403 308.191 134.558C305.552 135.674 303.182 137.272 301.146 139.308C299.111 141.343 297.513 143.713 296.397 146.352C295.242 149.082 294.656 151.984 294.656 154.977C294.656 157.969 295.242 160.871 296.397 163.601C297.513 166.24 299.111 168.61 301.146 170.646C303.182 172.681 305.552 174.279 308.191 175.395C310.921 176.55 313.823 177.136 316.815 177.136C319.808 177.136 322.71 176.55 325.44 175.395C328.079 174.279 330.449 172.681 332.484 170.646C334.52 168.61 336.118 166.24 337.234 163.601C338.389 160.871 338.975 157.969 338.975 154.977C338.975 151.984 338.389 149.082 337.234 146.352C336.118 143.713 334.52 141.343 332.484 139.308C330.449 137.272 328.079 135.674 325.44 134.558C322.71 133.403 319.808 132.817 316.815 132.817ZM316.815 130.794C330.171 130.794 340.998 141.621 340.998 154.977C340.998 168.332 330.171 179.159 316.815 179.159C303.46 179.159 292.633 168.332 292.633 154.977C292.633 141.621 303.46 130.794 316.815 130.794Z" fill="black"/>
<path d="M306.733 155.039C304.922 154.888 303.575 153.298 303.726 151.487C303.877 149.676 305.467 148.33 307.278 148.48C309.089 148.631 310.435 150.221 310.285 152.033C310.134 153.844 308.544 155.19 306.733 155.039Z" fill="black"/>
<path d="M326.426 155.047C324.612 154.946 323.222 153.394 323.323 151.579C323.424 149.764 324.977 148.375 326.792 148.476C328.606 148.577 329.995 150.13 329.895 151.944C329.794 153.759 328.241 155.148 326.426 155.047Z" fill="black"/>
<path d="M328.709 160.517C326.616 164.988 322.077 168.084 316.816 168.084C311.554 168.084 307.015 164.988 304.922 160.517H328.709Z" fill="black"/>
<path d="M265.722 67.3201C262.729 67.3201 259.828 67.9058 257.097 69.0607C254.458 70.1767 252.088 71.7748 250.053 73.8104C248.017 75.8461 246.419 78.2162 245.303 80.8547C244.148 83.5853 243.562 86.4871 243.562 89.4795C243.562 92.4719 244.148 95.3736 245.303 98.1042C246.419 100.743 248.017 103.113 250.053 105.148C252.088 107.184 254.458 108.782 257.097 109.898C259.828 111.053 262.729 111.639 265.722 111.639C268.714 111.639 271.616 111.053 274.347 109.898C276.985 108.782 279.355 107.184 281.391 105.148C283.426 103.113 285.024 100.743 286.14 98.1042C287.295 95.3736 287.881 92.4719 287.881 89.4795C287.881 86.487 287.295 83.5853 286.14 80.8547C285.024 78.2162 283.426 75.8461 281.391 73.8104C279.355 71.7748 276.985 70.1767 274.347 69.0607C271.616 67.9058 268.714 67.3201 265.722 67.3201ZM265.722 65.2969C279.077 65.2969 289.904 76.1239 289.904 89.4796C289.904 102.835 279.077 113.662 265.722 113.662C252.366 113.662 241.539 102.835 241.539 89.4796C241.539 76.1239 252.366 65.2969 265.722 65.2969Z" fill="black"/>
<path d="M254.352 89.1557C252.752 88.293 252.155 86.297 253.017 84.6973C253.88 83.0977 255.876 82.5003 257.476 83.363C259.075 84.2257 259.673 86.2218 258.81 87.8214C257.947 89.421 255.951 90.0184 254.352 89.1557Z" fill="black"/>
<path d="M273.953 89.1562C272.354 88.2935 271.756 86.2974 272.619 84.6978C273.482 83.0982 275.478 82.5008 277.077 83.3635C278.677 84.2262 279.274 86.2223 278.412 87.8219C277.549 89.4215 275.553 90.0189 273.953 89.1562Z" fill="black"/>
<path d="M277.615 95.0203C275.523 99.4905 270.984 102.587 265.722 102.587C260.46 102.587 255.921 99.4905 253.828 95.0203C255.301 96.0522 259.594 98.7734 265.727 98.772C271.854 98.7705 276.142 96.0526 277.615 95.0203Z" fill="black"/>
<path d="M187.026 45.1607C184.034 45.1607 181.132 45.7464 178.402 46.9013C175.763 48.0173 173.393 49.6153 171.357 51.651C169.322 53.6867 167.724 56.0568 166.608 58.6952C165.453 61.4259 164.867 64.3276 164.867 67.32C164.867 70.3125 165.453 73.2142 166.608 75.9448C167.724 78.5833 169.322 80.9534 171.357 82.989C173.393 85.0248 175.763 86.6228 178.402 87.7388C181.132 88.8937 184.034 89.4794 187.026 89.4794C190.019 89.4794 192.921 88.8937 195.651 87.7388C198.29 86.6228 200.66 85.0247 202.695 82.989C204.731 80.9534 206.329 78.5833 207.445 75.9448C208.6 73.2142 209.186 70.3125 209.186 67.32C209.186 64.3276 208.6 61.4259 207.445 58.6952C206.329 56.0568 204.731 53.6867 202.695 51.651C200.66 49.6153 198.29 48.0173 195.651 46.9013C192.921 45.7462 190.019 45.1607 187.026 45.1607ZM187.026 43.1375C200.382 43.1375 211.209 53.9643 211.209 67.32C211.209 80.6757 200.382 91.5026 187.026 91.5026C173.671 91.5026 162.844 80.6756 162.844 67.32C162.844 53.9643 173.671 43.1375 187.026 43.1375Z" fill="black"/>
<path d="M177.226 67.3914C175.409 67.3914 173.935 65.9182 173.935 64.1009C173.935 62.2835 175.409 60.8103 177.226 60.8103C179.043 60.8103 180.517 62.2835 180.517 64.1009C180.517 65.9182 179.043 67.3914 177.226 67.3914Z" fill="black"/>
<path d="M196.827 67.3914C195.009 67.3914 193.536 65.9182 193.536 64.1009C193.536 62.2835 195.009 60.8103 196.827 60.8103C198.644 60.8103 200.117 62.2835 200.117 64.1009C200.117 65.9182 198.644 67.3914 196.827 67.3914Z" fill="black"/>
<path d="M198.78 77.1558H175.133C174.44 77.1558 173.879 76.5943 173.879 75.9015C173.879 75.2087 174.441 74.6472 175.133 74.6472H198.78C199.473 74.6472 200.034 75.2087 200.034 75.9015C200.034 76.5943 199.473 77.1558 198.78 77.1558Z" fill="black"/>
<path d="M114.474 67.3917C111.481 67.3917 108.579 67.9773 105.849 69.1322C103.21 70.2482 100.84 71.8463 98.8047 73.882C96.769 75.9177 95.1709 78.2877 94.0549 80.9262C92.9 83.6568 92.3143 86.5586 92.3143 89.551C92.3143 92.5434 92.9 95.4452 94.0549 98.1758C95.1709 100.814 96.769 103.184 98.8047 105.22C100.84 107.256 103.21 108.854 105.849 109.97C108.58 111.125 111.481 111.71 114.474 111.71C117.466 111.71 120.368 111.125 123.098 109.97C125.737 108.854 128.107 107.256 130.143 105.22C132.178 103.184 133.776 100.814 134.892 98.1758C136.047 95.4452 136.633 92.5434 136.633 89.551C136.633 86.5586 136.047 83.6568 134.892 80.9262C133.776 78.2877 132.178 75.9177 130.143 73.882C128.107 71.8463 125.737 70.2482 123.098 69.1322C120.368 67.9773 117.466 67.3917 114.474 67.3917ZM114.474 65.3684C127.829 65.3684 138.656 76.1953 138.656 89.551C138.656 102.907 127.829 113.734 114.474 113.734C101.118 113.734 90.2911 102.907 90.2911 89.551C90.2911 76.1954 101.118 65.3684 114.474 65.3684Z" fill="black"/>
<path d="M103.927 89.5167C102.158 89.0991 101.063 87.3268 101.481 85.5582C101.898 83.7896 103.671 82.6944 105.439 83.112C107.208 83.5296 108.303 85.3019 107.885 87.0705C107.468 88.8392 105.696 89.9344 103.927 89.5167Z" fill="black"/>
<path d="M121.949 88.6598C120.664 87.3747 120.664 85.2913 121.949 84.0062C123.234 82.7212 125.318 82.7212 126.603 84.0062C127.888 85.2913 127.888 87.3747 126.603 88.6598C125.318 89.9448 123.234 89.9448 121.949 88.6598Z" fill="black"/>
<path d="M126.367 101.783C124.275 97.3123 119.736 94.2163 114.474 94.2163C109.212 94.2163 104.673 97.3123 102.58 101.783C104.053 100.751 108.346 98.0294 114.479 98.0308C120.606 98.0323 124.894 100.75 126.367 101.783Z" fill="black"/>
<path d="M69.3038 132.817C66.3113 132.817 63.4096 133.403 60.679 134.558C58.0405 135.674 55.6704 137.272 53.6347 139.308C51.5991 141.343 50.001 143.713 48.885 146.352C47.7301 149.082 47.1444 151.984 47.1444 154.977C47.1444 157.969 47.7301 160.871 48.885 163.601C50.001 166.24 51.5991 168.61 53.6347 170.646C55.6704 172.681 58.0405 174.279 60.679 175.395C63.4096 176.55 66.3113 177.136 69.3038 177.136C72.2962 177.136 75.1979 176.55 77.9285 175.395C80.567 174.279 82.9371 172.681 84.9728 170.646C87.0084 168.61 88.6065 166.24 89.7225 163.601C90.8774 160.871 91.4631 157.969 91.4631 154.977C91.4631 151.984 90.8775 149.082 89.7225 146.352C88.6065 143.713 87.0084 141.343 84.9728 139.308C82.9371 137.272 80.567 135.674 77.9285 134.558C75.1979 133.403 72.2961 132.817 69.3038 132.817ZM69.3038 130.794C82.6595 130.794 93.4863 141.621 93.4863 154.977C93.4863 168.332 82.6595 179.159 69.3038 179.159C55.948 179.159 45.1212 168.332 45.1212 154.977C45.1211 141.621 55.948 130.794 69.3038 130.794Z" fill="black"/>
<path d="M69.3038 159.642C64.0419 159.642 59.5029 162.738 57.4104 167.208C59.845 166.214 64.0352 164.859 69.3869 164.873C74.6512 164.887 78.7767 166.22 81.1973 167.208C79.1045 162.738 74.5656 159.642 69.3038 159.642Z" fill="black"/>
<path d="M58.2593 154.165L59.6875 152.247L61.6059 153.675C61.7968 153.817 62.0196 153.886 62.2406 153.886C62.5654 153.886 62.8861 153.738 63.095 153.457C63.4459 152.986 63.3484 152.319 62.877 151.968L60.9586 150.54L62.3868 148.622C62.7378 148.15 62.6401 147.483 62.1687 147.132C61.6973 146.781 61.0306 146.879 60.6796 147.35L59.2514 149.269L57.3331 147.84C56.8618 147.489 56.195 147.587 55.8438 148.059C55.4929 148.53 55.5905 149.197 56.0619 149.548L57.9802 150.976L56.552 152.894C56.201 153.366 56.2987 154.033 56.7701 154.383C56.9609 154.526 57.1838 154.594 57.4048 154.594C57.7296 154.594 58.0504 154.446 58.2593 154.165Z" fill="black"/>
<path d="M82.764 148.059C82.4129 147.587 81.7461 147.489 81.2747 147.841L79.3564 149.269L77.9282 147.35C77.5772 146.879 76.9104 146.781 76.439 147.132C75.9675 147.483 75.8699 148.15 76.2209 148.622L77.6491 150.54L75.7306 151.968C75.2592 152.319 75.1615 152.986 75.5125 153.457C75.7214 153.738 76.0422 153.886 76.367 153.886C76.588 153.886 76.8109 153.818 77.0018 153.675L78.9203 152.247L80.3484 154.166C80.5573 154.446 80.878 154.594 81.2029 154.594C81.4238 154.594 81.6468 154.526 81.8376 154.384C82.309 154.033 82.4067 153.366 82.0556 152.895L80.6275 150.976L82.5459 149.548C83.0173 149.197 83.1149 148.53 82.764 148.059Z" fill="black"/>
<path d="M189.864 185.927C194.994 187.648 197.76 193.207 196.039 198.338C194.318 203.468 188.759 206.234 183.629 204.513C182.985 204.297 182.38 204.02 181.815 203.692L95.7287 164.782L95.7872 164.607L187.922 185.488C188.57 185.567 189.22 185.711 189.864 185.927Z" fill="#141414"/>
<path opacity="0.2" d="M189.863 185.927C194.994 187.648 197.76 193.207 196.039 198.338L95.7574 164.695L95.7867 164.608L187.922 185.489C188.57 185.567 189.219 185.711 189.863 185.927Z" fill="#9C9C9C"/>
<path d="M192.637 197.27C191.301 200.55 187.558 202.127 184.277 200.79C180.996 199.454 179.42 195.711 180.756 192.43C182.092 189.15 185.835 187.573 189.116 188.91C192.397 190.246 193.973 193.989 192.637 197.27Z" fill="#5C5C5C"/>
</svg>
