<svg width="384" height="231" viewBox="0 0 384 231" fill="none" xmlns="http://www.w3.org/2000/svg">
<path d="M384 0H0V230.4H384V0Z" fill="white"/>
<path d="M158.164 107.047L135.165 36.2632C102.208 48.1211 74.0316 69.9965 54.3093 98.2177L114.474 141.93C125.068 126.267 140.285 113.989 158.164 107.047Z" fill="#F0BB67"/>
<path d="M265.722 136.704L325.888 92.9911C304.361 64.5755 273.998 43.2259 238.888 33.0327L215.889 103.817C235.921 109.094 253.324 120.847 265.722 136.704Z" fill="#8CF07A"/>
<path d="M285.527 194.261H359.867C359.867 156.223 347.213 121.141 325.887 92.991L265.722 136.704C278.13 152.575 285.527 172.554 285.527 194.261Z" fill="#409647"/>
<path d="M281.51 201H366C366 157.805 351.618 117.967 327.381 86L259 135.64C273.103 153.663 281.51 176.35 281.51 201Z" fill="#409647"/>
<path d="M192 100.734C200.257 100.734 208.262 101.808 215.888 103.817L238.888 33.0326C224.007 28.7125 208.275 26.3936 192 26.3936C172.051 26.3936 152.915 29.8766 135.165 36.2631L158.164 107.047C168.658 102.973 180.067 100.734 192 100.734Z" fill="#F0EB67"/>
<path d="M114.474 141.93L54.3089 98.2175C35.2908 125.431 24.1323 158.543 24.1323 194.261H98.4723C98.4723 174.874 104.372 156.865 114.474 141.93Z" fill="#F06767"/>
<path d="M316.815 132.218C313.823 132.218 310.921 132.803 308.191 133.958C305.552 135.074 303.182 136.672 301.146 138.708C299.111 140.744 297.513 143.114 296.397 145.752C295.242 148.483 294.656 151.385 294.656 154.377C294.656 157.369 295.242 160.271 296.397 163.002C297.513 165.64 299.111 168.01 301.146 170.046C303.182 172.082 305.552 173.68 308.191 174.796C310.921 175.951 313.823 176.536 316.815 176.536C319.808 176.536 322.71 175.951 325.44 174.796C328.079 173.68 330.449 172.082 332.484 170.046C334.52 168.01 336.118 165.64 337.234 163.002C338.389 160.271 338.975 157.369 338.975 154.377C338.975 151.384 338.389 148.483 337.234 145.752C336.118 143.114 334.52 140.744 332.484 138.708C330.449 136.672 328.079 135.074 325.44 133.958C322.71 132.803 319.808 132.218 316.815 132.218ZM316.815 130.194C330.171 130.194 340.998 141.021 340.998 154.377C340.998 167.733 330.171 178.559 316.815 178.559C303.46 178.559 292.633 167.733 292.633 154.377C292.633 141.021 303.46 130.194 316.815 130.194Z" fill="black"/>
<path d="M306.733 154.44C304.922 154.289 303.575 152.699 303.726 150.887C303.877 149.076 305.467 147.73 307.278 147.881C309.089 148.031 310.435 149.622 310.285 151.433C310.134 153.244 308.544 154.59 306.733 154.44Z" fill="black"/>
<path d="M326.426 154.448C324.612 154.347 323.222 152.794 323.323 150.979C323.424 149.165 324.977 147.776 326.792 147.876C328.606 147.977 329.995 149.53 329.895 151.345C329.794 153.159 328.241 154.549 326.426 154.448Z" fill="black"/>
<path d="M328.709 159.918C326.616 164.388 322.077 167.484 316.816 167.484C311.554 167.484 307.015 164.388 304.922 159.918H328.709Z" fill="black"/>
<path d="M265.722 66.7205C262.729 66.7205 259.828 67.3062 257.097 68.4611C254.458 69.5771 252.088 71.1752 250.053 73.2108C248.017 75.2465 246.419 77.6166 245.303 80.2551C244.148 82.9857 243.562 85.8875 243.562 88.8798C243.562 91.8723 244.148 94.774 245.303 97.5046C246.419 100.143 248.017 102.513 250.053 104.549C252.088 106.585 254.458 108.183 257.097 109.299C259.828 110.454 262.729 111.039 265.722 111.039C268.714 111.039 271.616 110.454 274.347 109.299C276.985 108.183 279.355 106.585 281.391 104.549C283.426 102.513 285.024 100.143 286.14 97.5046C287.295 94.774 287.881 91.8723 287.881 88.8798C287.881 85.8874 287.295 82.9857 286.14 80.2551C285.024 77.6166 283.426 75.2465 281.391 73.2108C279.355 71.1752 276.985 69.5771 274.347 68.4611C271.616 67.3062 268.714 66.7205 265.722 66.7205ZM265.722 64.6973C279.077 64.6973 289.904 75.5243 289.904 88.88C289.904 102.236 279.077 113.063 265.722 113.063C252.366 113.063 241.539 102.236 241.539 88.88C241.539 75.5243 252.366 64.6973 265.722 64.6973Z" fill="black"/>
<path d="M254.352 88.5561C252.752 87.6934 252.155 85.6973 253.017 84.0977C253.88 82.4981 255.876 81.9007 257.476 82.7634C259.075 83.6261 259.673 85.6222 258.81 87.2218C257.947 88.8214 255.951 89.4188 254.352 88.5561Z" fill="black"/>
<path d="M273.953 88.5566C272.354 87.6939 271.756 85.6978 272.619 84.0982C273.482 82.4986 275.478 81.9012 277.077 82.7639C278.677 83.6266 279.274 85.6227 278.412 87.2223C277.549 88.8219 275.553 89.4193 273.953 88.5566Z" fill="black"/>
<path d="M277.615 94.4207C275.523 98.8909 270.984 101.987 265.722 101.987C260.46 101.987 255.921 98.8909 253.828 94.4207C255.301 95.4526 259.594 98.1738 265.727 98.1724C271.854 98.1709 276.142 95.453 277.615 94.4207Z" fill="black"/>
<path d="M187.026 44.5611C184.034 44.5611 181.132 45.1467 178.402 46.3016C175.763 47.4177 173.393 49.0157 171.357 51.0514C169.322 53.0871 167.724 55.4571 166.608 58.0956C165.453 60.8263 164.867 63.728 164.867 66.7204C164.867 69.7128 165.453 72.6146 166.608 75.3452C167.724 77.9837 169.322 80.3537 171.357 82.3894C173.393 84.4252 175.763 86.0232 178.402 87.1392C181.132 88.2941 184.034 88.8798 187.026 88.8798C190.019 88.8798 192.921 88.2941 195.651 87.1392C198.29 86.0232 200.66 84.4251 202.695 82.3894C204.731 80.3537 206.329 77.9837 207.445 75.3452C208.6 72.6146 209.186 69.7128 209.186 66.7204C209.186 63.728 208.6 60.8263 207.445 58.0956C206.329 55.4571 204.731 53.0871 202.695 51.0514C200.66 49.0157 198.29 47.4177 195.651 46.3016C192.921 45.1466 190.019 44.5611 187.026 44.5611ZM187.026 42.5378C200.382 42.5378 211.209 53.3647 211.209 66.7204C211.209 80.0761 200.382 90.903 187.026 90.903C173.671 90.903 162.844 80.076 162.844 66.7204C162.844 53.3647 173.671 42.5378 187.026 42.5378Z" fill="black"/>
<path d="M177.226 66.7918C175.409 66.7918 173.935 65.3186 173.935 63.5013C173.935 61.6839 175.409 60.2107 177.226 60.2107C179.043 60.2107 180.517 61.6839 180.517 63.5013C180.517 65.3186 179.043 66.7918 177.226 66.7918Z" fill="black"/>
<path d="M196.827 66.7918C195.009 66.7918 193.536 65.3186 193.536 63.5013C193.536 61.6839 195.009 60.2107 196.827 60.2107C198.644 60.2107 200.117 61.6839 200.117 63.5013C200.117 65.3186 198.644 66.7918 196.827 66.7918Z" fill="black"/>
<path d="M198.78 76.5562H175.133C174.44 76.5562 173.879 75.9947 173.879 75.3019C173.879 74.6091 174.441 74.0476 175.133 74.0476H198.78C199.473 74.0476 200.034 74.6091 200.034 75.3019C200.034 75.9947 199.473 76.5562 198.78 76.5562Z" fill="black"/>
<path d="M114.474 66.792C111.481 66.792 108.579 67.3777 105.849 68.5326C103.21 69.6486 100.84 71.2467 98.8047 73.2824C96.769 75.3181 95.1709 77.6881 94.0549 80.3266C92.9 83.0572 92.3143 85.959 92.3143 88.9514C92.3143 91.9438 92.9 94.8455 94.0549 97.5762C95.1709 100.215 96.769 102.585 98.8047 104.62C100.84 106.656 103.21 108.254 105.849 109.37C108.58 110.525 111.481 111.111 114.474 111.111C117.466 111.111 120.368 110.525 123.098 109.37C125.737 108.254 128.107 106.656 130.143 104.62C132.178 102.585 133.776 100.215 134.892 97.5762C136.047 94.8455 136.633 91.9438 136.633 88.9514C136.633 85.959 136.047 83.0572 134.892 80.3266C133.776 77.6881 132.178 75.3181 130.143 73.2824C128.107 71.2467 125.737 69.6486 123.098 68.5326C120.368 67.3777 117.466 66.792 114.474 66.792ZM114.474 64.7688C127.829 64.7688 138.656 75.5957 138.656 88.9514C138.656 102.307 127.829 113.134 114.474 113.134C101.118 113.134 90.2911 102.307 90.2911 88.9514C90.2911 75.5958 101.118 64.7688 114.474 64.7688Z" fill="black"/>
<path d="M103.927 88.9171C102.158 88.4995 101.063 86.7272 101.481 84.9586C101.898 83.19 103.671 82.0948 105.439 82.5124C107.208 82.93 108.303 84.7023 107.885 86.4709C107.468 88.2396 105.696 89.3348 103.927 88.9171Z" fill="black"/>
<path d="M121.949 88.0602C120.664 86.7751 120.664 84.6917 121.949 83.4066C123.234 82.1216 125.318 82.1216 126.603 83.4066C127.888 84.6917 127.888 86.7751 126.603 88.0602C125.318 89.3452 123.234 89.3452 121.949 88.0602Z" fill="black"/>
<path d="M126.367 101.183C124.275 96.7127 119.736 93.6167 114.474 93.6167C109.212 93.6167 104.673 96.7127 102.58 101.183C104.053 100.151 108.346 97.4298 114.479 97.4312C120.606 97.4327 124.894 100.151 126.367 101.183Z" fill="black"/>
<path d="M69.3038 132.218C66.3113 132.218 63.4096 132.803 60.679 133.958C58.0405 135.074 55.6704 136.672 53.6347 138.708C51.5991 140.744 50.001 143.114 48.885 145.752C47.7301 148.483 47.1444 151.385 47.1444 154.377C47.1444 157.369 47.7301 160.271 48.885 163.002C50.001 165.64 51.5991 168.01 53.6347 170.046C55.6704 172.082 58.0405 173.68 60.679 174.796C63.4096 175.951 66.3113 176.536 69.3038 176.536C72.2962 176.536 75.1979 175.951 77.9285 174.796C80.567 173.68 82.9371 172.082 84.9728 170.046C87.0084 168.01 88.6065 165.64 89.7225 163.002C90.8774 160.271 91.4631 157.369 91.4631 154.377C91.4631 151.384 90.8775 148.483 89.7225 145.752C88.6065 143.114 87.0084 140.744 84.9728 138.708C82.9371 136.672 80.567 135.074 77.9285 133.958C75.1979 132.803 72.2961 132.218 69.3038 132.218ZM69.3038 130.194C82.6595 130.194 93.4863 141.021 93.4863 154.377C93.4863 167.733 82.6595 178.559 69.3038 178.559C55.948 178.559 45.1212 167.733 45.1212 154.377C45.1211 141.021 55.948 130.194 69.3038 130.194Z" fill="black"/>
<path d="M69.3038 159.042C64.0419 159.042 59.5029 162.138 57.4104 166.608C59.845 165.614 64.0352 164.259 69.3869 164.274C74.6512 164.287 78.7767 165.62 81.1973 166.608C79.1045 162.138 74.5656 159.042 69.3038 159.042Z" fill="black"/>
<path d="M58.2593 153.566L59.6875 151.648L61.6059 153.076C61.7968 153.218 62.0196 153.286 62.2406 153.286C62.5654 153.286 62.8861 153.138 63.095 152.858C63.4459 152.386 63.3484 151.719 62.877 151.369L60.9586 149.94L62.3868 148.022C62.7378 147.55 62.6401 146.884 62.1687 146.533C61.6973 146.182 61.0306 146.279 60.6796 146.751L59.2514 148.669L57.3331 147.241C56.8618 146.89 56.195 146.988 55.8438 147.459C55.4929 147.93 55.5905 148.597 56.0619 148.948L57.9802 150.376L56.552 152.295C56.201 152.766 56.2987 153.433 56.7701 153.784C56.9609 153.926 57.1838 153.995 57.4048 153.995C57.7296 153.995 58.0504 153.847 58.2593 153.566Z" fill="black"/>
<path d="M82.764 147.459C82.4129 146.988 81.7461 146.89 81.2747 147.241L79.3564 148.669L77.9282 146.751C77.5772 146.279 76.9104 146.182 76.439 146.533C75.9675 146.884 75.8699 147.55 76.2209 148.022L77.6491 149.94L75.7306 151.369C75.2592 151.72 75.1615 152.386 75.5125 152.858C75.7214 153.138 76.0422 153.287 76.367 153.287C76.588 153.287 76.8109 153.218 77.0018 153.076L78.9203 151.648L80.3484 153.566C80.5573 153.847 80.878 153.995 81.2029 153.995C81.4238 153.995 81.6468 153.926 81.8376 153.784C82.309 153.433 82.4067 152.766 82.0556 152.295L80.6275 150.376L82.5459 148.948C83.0173 148.597 83.1149 147.93 82.764 147.459Z" fill="black"/>
<path d="M190.598 202.749C185.626 204.885 179.859 202.584 177.723 197.612C175.587 192.64 177.888 186.873 182.86 184.737C183.484 184.469 184.12 184.272 184.759 184.14L274.872 155.776L274.945 155.945L192.338 201.782C191.803 202.155 191.222 202.481 190.598 202.749Z" fill="#141414"/>
<path opacity="0.2" d="M190.598 202.749C185.627 204.885 179.86 202.584 177.723 197.612L274.909 155.861L274.945 155.945L192.338 201.782C191.803 202.155 191.222 202.481 190.598 202.749Z" fill="#9C9C9C"/>
<path d="M180.971 196.141C179.781 192.805 181.521 189.135 184.857 187.945C188.194 186.754 191.864 188.494 193.054 191.831C194.244 195.168 192.504 198.837 189.168 200.027C185.831 201.218 182.161 199.478 180.971 196.141Z" fill="#5C5C5C"/>
</svg>
