<svg width="78" height="418" viewBox="0 0 78 418" fill="none" xmlns="http://www.w3.org/2000/svg">
<g clip-path="url(#clip0_4472_44136)">
<path fill-rule="evenodd" clip-rule="evenodd" d="M9.11677 108.405C9.57994 108.226 10.0316 108.038 10.5065 107.894C14.7112 106.618 19.1622 106.263 23.603 106.317C28.4639 106.377 33.3603 107.109 38.1069 108.415C44.76 110.245 51.2227 113.062 56.7579 116.998C59.1995 118.734 61.3765 120.756 63.4333 122.846C63.5089 122.913 63.5168 123.031 63.4511 123.111C63.3855 123.19 63.2709 123.2 63.1953 123.133C60.9234 121.371 58.4564 119.85 55.9391 118.321C50.2818 114.885 44.1317 111.952 37.6462 110.12C33.0216 108.813 28.2779 107.994 23.542 107.737C19.1901 107.502 14.8801 107.884 10.6291 108.515C10.1447 108.587 9.66613 108.622 9.18123 108.687C9.10602 108.706 9.03059 108.659 9.01276 108.581C8.99527 108.504 9.04189 108.425 9.11677 108.405Z" fill="black"/>
<path fill-rule="evenodd" clip-rule="evenodd" d="M63.1952 123.281C62.3 121.035 60.9085 118.155 60.5474 117.329L59.2571 114.363C58.8226 113.233 58.59 112.25 59.2948 112.127C60.0281 111.709 60.492 113.306 60.7116 113.648L62.1322 116.526C62.5899 117.466 64.9153 122.142 65.7187 124.138C66.139 125.183 65.932 125.962 65.8495 126.081C65.6507 126.368 65.1906 126.696 64.4613 126.571C63.5818 126.419 61.5101 125.318 61.2322 125.206C59.7044 124.542 58.1483 123.983 56.5932 123.419C54.2334 122.562 51.8797 121.742 49.45 121.066C49.2313 121.022 49.0915 120.801 49.1367 120.574C49.1824 120.346 49.3971 120.198 49.6153 120.243C51.3139 120.439 52.9908 120.637 54.6568 120.981C57.1601 121.497 59.5966 122.277 62.0163 123.158C62.1376 123.206 62.7177 123.252 63.1952 123.281Z" fill="black"/>
<path fill-rule="evenodd" clip-rule="evenodd" d="M4.25316 254.872C4.24976 254.927 4.27835 254.995 4.40087 255.04C4.5438 255.096 4.72281 255.155 4.99097 255.174C5.48239 255.208 6.04118 255.117 6.09427 255.113L18.9445 253.165C26.8623 252.001 34.7957 251.327 42.7264 251.2C45.9069 251.149 49.0855 251.211 52.2688 251.314C57.0332 251.47 61.7969 251.743 66.5735 252.365C66.7369 252.393 66.8907 252.277 66.9173 252.108C66.9438 251.938 66.8322 251.778 66.6695 251.75C61.9099 250.763 57.1489 250.002 52.3579 249.612C49.1461 249.351 45.9281 249.271 42.71 249.279C34.6963 249.3 26.6799 250.019 18.6757 251.159C15.6571 251.596 12.612 251.957 9.61855 252.586C8.32536 252.857 7.06009 253.218 5.78663 253.567C5.7349 253.586 5.16316 253.706 4.72552 253.963C4.45735 254.122 4.26543 254.254 4.17899 254.414C3.96391 254.807 3.96527 254.784 4.06464 254.828C4.07689 254.888 4.13405 254.925 4.19191 254.915C4.21709 254.908 4.23955 254.893 4.25316 254.872ZM4.27564 254.788C4.2838 254.772 4.28789 254.767 4.27564 254.782V254.788Z" fill="black"/>
<path fill-rule="evenodd" clip-rule="evenodd" d="M69.3791 251.336C66.9098 252.146 63.6701 253.162 63.1426 253.338C62.9717 253.397 61.9746 253.789 60.987 254.316C60.2117 254.729 59.3902 255.129 59.0261 255.493C58.924 255.596 58.9097 255.66 58.8757 255.753C58.7831 256.004 58.9274 256.053 58.8444 256.032C58.8274 256.029 58.8178 256.025 58.8131 256.027C58.1896 255.899 58.2618 256.555 59.474 256.609C59.981 256.632 60.8318 256.244 61.6608 255.941C62.6232 255.588 63.5053 255.151 63.6639 255.103C64.367 254.89 69.8202 253.38 72.0037 252.667C72.4576 252.518 72.7837 252.394 72.9361 252.321C73.3833 252.108 73.5044 251.774 73.5419 251.666C73.6957 251.237 73.6392 250.75 73.1716 250.336C72.8041 250.01 71.453 249.664 71.308 249.624C69.5234 249.156 67.7633 248.586 65.9774 248.127C64.1723 247.662 62.3544 247.309 60.5337 246.918C60.1948 246.818 59.8401 247.025 59.7455 247.379C59.6496 247.733 59.849 248.101 60.19 248.2C61.9406 248.845 63.651 249.565 65.4172 250.163C66.7233 250.605 68.0499 250.975 69.3791 251.336Z" fill="black"/>
<path fill-rule="evenodd" clip-rule="evenodd" d="M6.28508 401.023C6.24827 401.267 6.27703 401.48 6.61893 401.827C7.32413 402.545 10.3253 402.883 10.4616 402.923C11.9792 403.198 23.4636 403.388 25.0075 403.424C27.2961 403.477 32.4305 403.207 34.6817 402.958C37.0744 402.669 43.7122 401.474 45.9876 400.788C48.2915 400.092 51.5176 399.18 53.6382 398.059C54.9113 397.386 57.1506 396.649 58.3291 395.811C61.0348 393.885 64.4524 391.558 66.6266 388.895C66.6964 388.82 66.6935 388.701 66.621 388.628C66.5485 388.555 66.4331 388.556 66.3627 388.63C63.9183 390.891 60.2376 392.709 57.4202 394.28C56.2155 394.949 53.9929 395.569 52.7445 396.139C50.6721 397.085 47.5287 397.852 45.3319 398.491C43.1576 399.124 36.658 400.401 34.3841 400.719C32.5836 400.992 27.9142 401.299 26.077 401.397C24.2574 401.492 12.4895 401.429 10.688 401.2L6.51488 400.927C6.37443 400.948 6.29465 400.954 6.28508 401.023Z" fill="black"/>
<path fill-rule="evenodd" clip-rule="evenodd" d="M61.5148 398.446C61.2581 399.1 61.6418 399.866 62.3174 399.98C62.3719 399.989 62.4125 399.99 62.4321 399.982C62.5992 399.911 62.7545 399.7 62.9836 399.418C63.1836 399.171 63.3773 398.871 63.5613 398.526C64.0661 397.591 64.4406 396.482 64.5004 396.354C65.268 394.434 66.4771 392.282 67.2623 390.138C67.6409 389.102 67.9206 388.065 68.034 387.057C68.0539 386.862 68.0571 386.611 68.008 386.391C67.9668 386.203 67.8934 386.031 67.7944 385.882C67.569 385.546 67.224 385.328 66.773 385.284C66.3177 385.239 65.5866 385.515 65.3317 385.598C64.2363 385.958 63.1382 386.265 62.0469 386.563C61.0165 386.844 59.9813 387.081 58.9488 387.35C57.3892 387.756 55.8637 388.207 54.2459 388.532C54.0102 388.553 53.8369 388.768 53.8587 389.015C53.8822 389.26 54.092 389.443 54.3289 389.422C56.3463 389.457 58.3 389.466 60.2474 389.183C62.1015 388.915 63.9068 388.378 65.7353 387.806C65.6223 388.32 65.4646 388.837 65.2832 389.357C64.5368 391.492 63.3759 393.644 62.649 395.557L61.5148 398.446Z" fill="black"/>
</g>
<defs>
<clipPath id="clip0_4472_44136">
<rect width="78" height="418" fill="white"/>
</clipPath>
</defs>
</svg>
