<svg width="50" height="24" viewBox="0 0 50 24" fill="none" xmlns="http://www.w3.org/2000/svg">
<path d="M49.1623 20.3888C46.0503 21.7348 42.8948 22.7544 39.5735 23.4557C38.7968 23.6198 38.2628 22.5469 39.0133 22.1269C40.1707 21.4789 41.3281 20.9162 42.5109 20.4175C26.4117 19.8991 10.7022 12.8203 0.0872517 0.577976C-0.191635 0.255615 0.261142 -0.210285 0.560536 0.104692C12.2968 12.4741 28.2639 19.4094 45.2973 19.0099C44.1063 18.4842 42.9152 17.9584 41.7234 17.4326C40.8597 17.0512 41.607 15.7839 42.4658 16.1628C44.6977 17.148 46.9296 18.1331 49.1615 19.1182C49.6414 19.3307 49.6471 20.1796 49.1623 20.3888Z" fill="black"/>
</svg>
