<svg width="100" height="100" viewBox="0 0 100 100" fill="none" xmlns="http://www.w3.org/2000/svg">
<path d="M37.5 33.3333H62.5V56.2499H37.5V33.3333Z" fill="#FDD9B4"/>
<path d="M12.5 47.9167H29.1667V56.2501H12.5V47.9167Z" fill="#FDD9B4"/>
<path d="M12.5 43.75H29.1667V47.9167H12.5V43.75Z" fill="#FDC287"/>
<path d="M70.8334 47.9167H87.5V56.2501H70.8334V47.9167Z" fill="#FDD9B4"/>
<path d="M70.8334 43.75H87.5V47.9167H70.8334V43.75Z" fill="#FDC287"/>
<path d="M12.5 54.1667H87.5V87.5001H12.5V54.1667Z" fill="#FDD9B4"/>
<path d="M50 10.4167L37.5 33.3334H62.5L50 10.4167Z" fill="#D56C04"/>
<path d="M27.0833 33.3333V37.4999H22.9166V33.3333H18.75V37.4999H14.5833V33.3333H10.4166V43.7499H31.25V33.3333H27.0833Z" fill="#FDD9B4"/>
<path d="M85.4167 33.3333V37.4999H81.25V33.3333H77.0833V37.4999H72.9167V33.3333H68.75V43.7499H89.5833V33.3333H85.4167Z" fill="#FDD9B4"/>
<path d="M60.4167 10.4167H50V6.25H60.4167L54.1667 8.33333L60.4167 10.4167Z" fill="#FA7F05"/>
<path d="M50 64.5833C43.0958 64.5833 37.5 70.1791 37.5 77.0833V87.4999H62.5V77.0833C62.5 70.1791 56.9042 64.5833 50 64.5833Z" fill="#FFF5EA"/>
<path d="M58.3333 87.5H41.6666V77.0833C41.6666 72.4812 45.3979 68.75 50 68.75C54.602 68.75 58.3333 72.4812 58.3333 77.0833V87.5Z" fill="#FA7F05"/>
<path d="M54.1667 54.1666H45.8334V43.7499C45.8334 41.4478 47.698 39.5833 50 39.5833C52.3021 39.5833 54.1667 41.4478 54.1667 43.7499V54.1666Z" fill="#FA7F05"/>
<path d="M77.0834 58.3333H81.25V66.6666H77.0834V58.3333Z" fill="#FA7F05"/>
<path d="M18.75 58.3333H22.9167V66.6666H18.75V58.3333Z" fill="#FA7F05"/>
</svg>
