<svg width="100" height="100" viewBox="0 0 100 100" fill="none" xmlns="http://www.w3.org/2000/svg">
<path d="M31.5124 49.7181L29.1673 23.7181C29.1204 23.1986 28.6849 22.8005 28.1634 22.8005H20.0226C19.5009 22.8005 19.0653 23.1986 19.0187 23.7181L16.3208 53.6296L31.5124 49.7181Z" fill="#F7A1E5"/>
<path d="M57.6175 42.9965L55.379 18.1773C55.3321 17.6578 54.8966 17.2598 54.3751 17.2598H46.2343C45.7126 17.2598 45.2772 17.6578 45.2304 18.1773L42.644 46.852L57.6175 42.9965Z" fill="#F7A1E5"/>
<path d="M83.7228 36.2748L81.5907 12.6363C81.5438 12.1168 81.1083 11.7188 80.5868 11.7188H72.446C71.9243 11.7188 71.489 12.1168 71.4421 12.6363L68.9673 40.074L83.7228 36.2748Z" fill="#F7A1E5"/>
<path d="M92.8404 88.4301H7.03125V56.8031C7.03125 56.3431 7.34258 55.9416 7.78789 55.8269L91.581 34.2514C92.2189 34.0871 92.8404 34.5689 92.8404 35.2275V88.4301Z" fill="#CFDFFF"/>
<path d="M37.0902 88.43H17.2207V65.5935C17.2207 65.0368 17.6721 64.5854 18.2287 64.5854H36.082C36.6387 64.5854 37.09 65.0368 37.09 65.5935L37.0902 88.43Z" fill="#E5EDFF"/>
<path d="M49.5837 63.6718H53.6065C54.1632 63.6718 54.6146 63.2205 54.6146 62.6638V57.1386C54.6146 56.582 54.1632 56.1306 53.6065 56.1306H49.5837C49.027 56.1306 48.5757 56.582 48.5757 57.1386V62.6638C48.5757 63.2207 49.0269 63.6718 49.5837 63.6718Z" fill="#E5EDFF"/>
<path d="M49.5837 79.1079H53.6065C54.1632 79.1079 54.6146 78.6565 54.6146 78.0999V72.5747C54.6146 72.018 54.1632 71.5667 53.6065 71.5667H49.5837C49.027 71.5667 48.5757 72.018 48.5757 72.5747V78.0999C48.5757 78.6565 49.0269 79.1079 49.5837 79.1079Z" fill="#E5EDFF"/>
<path d="M64.8913 63.6718H68.9142C69.4708 63.6718 69.9222 63.2205 69.9222 62.6638V57.1386C69.9222 56.582 69.4708 56.1306 68.9142 56.1306H64.8913C64.3347 56.1306 63.8833 56.582 63.8833 57.1386V62.6638C63.8831 63.2207 64.3345 63.6718 64.8913 63.6718Z" fill="#E5EDFF"/>
<path d="M64.8913 79.1079H68.9142C69.4708 79.1079 69.9222 78.6565 69.9222 78.0999V72.5747C69.9222 72.018 69.4708 71.5667 68.9142 71.5667H64.8913C64.3347 71.5667 63.8833 72.018 63.8833 72.5747V78.0999C63.8831 78.6565 64.3345 79.1079 64.8913 79.1079Z" fill="#E5EDFF"/>
<path d="M80.1987 63.6718H84.2215C84.7782 63.6718 85.2295 63.2205 85.2295 62.6638V57.1386C85.2295 56.582 84.7782 56.1306 84.2215 56.1306H80.1987C79.642 56.1306 79.1907 56.582 79.1907 57.1386V62.6638C79.1907 63.2207 79.642 63.6718 80.1987 63.6718Z" fill="#E5EDFF"/>
<path d="M80.1987 79.1079H84.2215C84.7782 79.1079 85.2295 78.6565 85.2295 78.0999V72.5747C85.2295 72.018 84.7782 71.5667 84.2215 71.5667H80.1987C79.642 71.5667 79.1907 72.018 79.1907 72.5747V78.0999C79.1907 78.6565 79.642 79.1079 80.1987 79.1079Z" fill="#E5EDFF"/>
<path d="M29.7354 30.0148L29.1675 23.7181C29.1206 23.1986 28.6851 22.8005 28.1636 22.8005H20.0226C19.5009 22.8005 19.0655 23.1986 19.0187 23.7181L18.4507 30.0148H29.7354Z" fill="#EB13BE"/>
<path d="M55.9471 24.474L55.3792 18.1773C55.3323 17.6578 54.8967 17.2598 54.3752 17.2598H46.2344C45.7127 17.2598 45.2772 17.6578 45.2303 18.1773L44.6624 24.474H55.9471Z" fill="#EB13BE"/>
<path d="M82.1586 18.933L81.5906 12.6363C81.5437 12.1168 81.1082 11.7188 80.5867 11.7188H72.4459C71.9242 11.7188 71.4887 12.1168 71.442 12.6363L70.874 18.933H82.1586Z" fill="#EB13BE"/>
<path d="M82.1586 18.933L81.5906 12.6363C81.5437 12.1168 81.1082 11.7188 80.5867 11.7188H72.4459C71.9242 11.7188 71.4887 12.1168 71.442 12.6363L70.874 18.933H82.1586Z" fill="#EB13BE"/>
</svg>
