<svg width="100" height="100" viewBox="0 0 100 100" fill="none" xmlns="http://www.w3.org/2000/svg">
<g clip-path="url(#clip0_5893_7658)">
<path d="M50.8956 10.0539V23.1608C50.8956 23.7531 50.4179 24.2308 49.8261 24.2308C49.2341 24.2308 48.7561 23.7531 48.7561 23.1608V10.0539C48.7561 9.46208 49.2341 8.98438 49.8261 8.98438C50.4179 8.98438 50.8956 9.46208 50.8956 10.0539Z" fill="#4F5D99"/>
<path d="M74.5672 27.4814V91.0156H25.3906V27.4814C25.3906 26.3343 26.3206 25.4043 27.4678 25.4043H72.49C73.6372 25.4043 74.5672 26.3343 74.5672 27.4814Z" fill="#A25AF1"/>
<path d="M67.1856 20.8174V25.4044H32.772V20.8174C32.772 19.6702 33.7019 18.7402 34.8491 18.7402H65.1085C66.2556 18.7402 67.1856 19.6702 67.1856 20.8174Z" fill="#7A13EB"/>
<path d="M68.3958 64.2109C68.8942 64.211 69.3098 64.6168 69.3098 65.1152V70.0488C69.3096 70.5471 68.894 70.9618 68.3958 70.9619H31.5579C31.0595 70.9619 30.6538 70.5471 30.6536 70.0488V65.1152C30.6536 64.6167 31.0594 64.2109 31.5579 64.2109H68.3958ZM68.3958 53.1328C68.894 53.1329 69.3096 53.5379 69.3098 54.0361V58.9697C69.3098 59.4682 68.8942 59.8837 68.3958 59.8838H31.5579C31.0594 59.8838 30.6536 59.4682 30.6536 58.9697V54.0361C30.6538 53.5379 31.0595 53.1328 31.5579 53.1328H68.3958ZM68.3958 42.1113C68.894 42.1114 69.3096 42.5164 69.3098 43.0146V47.9482C69.3098 48.4467 68.8942 48.8622 68.3958 48.8623H31.5579C31.0594 48.8623 30.6536 48.4467 30.6536 47.9482V43.0146C30.6538 42.5164 31.0595 42.1113 31.5579 42.1113H68.3958ZM68.3958 31.0332C68.894 31.0333 69.3095 31.4383 69.3098 31.9365V36.8701C69.3098 37.3686 68.8942 37.7841 68.3958 37.7842H31.5579C31.0594 37.7842 30.6536 37.3686 30.6536 36.8701V31.9365C30.6538 31.4382 31.0595 31.0332 31.5579 31.0332H68.3958Z" fill="#E5EDFF"/>
<path d="M33.5491 70.9619H31.5579C31.0595 70.9619 30.6538 70.5471 30.6536 70.0488V65.1152C30.6536 64.6167 31.0594 64.2109 31.5579 64.2109H37.4475L33.5491 70.9619ZM40.0559 70.9619H36.3137L40.2141 64.2109H43.9534L40.0559 70.9619ZM68.3958 64.2109C68.8942 64.211 69.3098 64.6168 69.3098 65.1152V70.0488C69.3096 70.5471 68.894 70.9618 68.3958 70.9619H45.9524L49.843 64.2109H68.3958ZM39.9465 59.8838H31.5579C31.0594 59.8838 30.6536 59.4682 30.6536 58.9697V54.0361C30.6538 53.5379 31.0595 53.1328 31.5579 53.1328H43.845L39.9465 59.8838ZM46.4514 59.8838H42.7131L46.6135 53.1328H50.3479L46.4514 59.8838ZM68.3958 53.1328C68.894 53.1329 69.3096 53.5379 69.3098 54.0361V58.9697C69.3098 59.4682 68.8942 59.8837 68.3958 59.8838H52.3372L56.2278 53.1328H68.3958ZM46.3108 48.8623H31.5579C31.0594 48.8623 30.6536 48.4467 30.6536 47.9482V43.0146C30.6538 42.5164 31.0595 42.1113 31.5579 42.1113H50.2092L46.3108 48.8623ZM52.8127 48.8623H49.0803L52.9797 42.1113H56.7102L52.8127 48.8623ZM68.3958 42.1113C68.894 42.1114 69.3096 42.5164 69.3098 43.0146V47.9482C69.3098 48.4467 68.8942 48.8622 68.3958 48.8623H58.6887L62.5793 42.1113H68.3958ZM52.7073 37.7842H31.5579C31.0594 37.7842 30.6536 37.3686 30.6536 36.8701V31.9365C30.6538 31.4382 31.0595 31.0332 31.5579 31.0332H56.6057L52.7073 37.7842ZM59.2083 37.7842H55.4797L59.3792 31.0332H63.1047L59.2083 37.7842ZM68.8821 31.1748C69.1372 31.3352 69.3096 31.6162 69.3098 31.9365V36.8701C69.3098 37.3686 68.8942 37.7841 68.3958 37.7842H65.0735L68.8821 31.1748Z" fill="#CFDFFF"/>
<path d="M57.6982 76.1637V91.0157H42.2649V76.1637C42.2649 75.686 42.6597 75.2915 43.1374 75.2915H56.8156C57.3034 75.2915 57.6982 75.686 57.6982 76.1637Z" fill="#E5EDFF"/>
<path d="M49.498 75.291H50.4645V91.0154H49.498V75.291Z" fill="#B0BED9"/>
<path d="M38.7443 75.8524V82.9768C38.7443 83.2882 38.4951 83.5377 38.1835 83.5377H31.2147C30.9031 83.5377 30.6538 83.2882 30.6538 82.9768V75.8524C30.6538 75.5405 30.9031 75.2915 31.2147 75.2915H38.1835C38.4951 75.2915 38.7443 75.5405 38.7443 75.8524Z" fill="#E5EDFF"/>
<path d="M69.3095 75.8524V82.9768C69.3095 83.2882 69.0603 83.5377 68.7487 83.5377H61.7799C61.4682 83.5377 61.219 83.2882 61.219 82.9768V75.8524C61.219 75.5405 61.4682 75.2915 61.7799 75.2915H68.7487C69.0603 75.2915 69.3095 75.5405 69.3095 75.8524Z" fill="#E5EDFF"/>
</g>
<defs>
<clipPath id="clip0_5893_7658">
<rect width="100" height="100" fill="white"/>
</clipPath>
</defs>
</svg>
