<svg width="100" height="100" viewBox="0 0 100 100" fill="none" xmlns="http://www.w3.org/2000/svg">
<path d="M80.2734 41.0156L79.7205 40.4412C77.5424 38.1785 74.384 37.1502 71.2953 37.6984L70.4984 37.8398L70.3961 37.098C69.9631 33.9613 67.9914 31.2506 65.1445 29.8783L64.4531 29.5451L64.8057 28.8875C66.3035 26.0941 66.3035 22.734 64.8057 19.9408L64.4531 19.2832L65.1447 18.9498C67.9916 17.5775 69.9633 14.8668 70.3963 11.7301L70.4986 10.9883L71.2955 11.1297C74.3842 11.6779 77.5426 10.6496 79.7207 8.38691L80.2734 7.8125L80.8264 8.38691C83.0045 10.6496 86.1629 11.6779 89.2516 11.1297L90.0484 10.9883L90.1508 11.7301C90.5838 14.8668 92.5555 17.5775 95.4023 18.9498L96.0938 19.2832L95.7412 19.9408C94.2434 22.7342 94.2434 26.0943 95.7412 28.8875L96.0938 29.5449L95.4022 29.8783C92.5553 31.2506 90.5836 33.9613 90.1506 37.098L90.0482 37.8398L89.2514 37.6984C86.1627 37.1502 83.0043 38.1785 80.8262 40.4412L80.2734 41.0156Z" fill="#FEDA50"/>
<path d="M80.2734 35.1562C86.2062 35.1562 91.0156 30.3468 91.0156 24.4141C91.0156 18.4813 86.2062 13.6719 80.2734 13.6719C74.3407 13.6719 69.5312 18.4813 69.5312 24.4141C69.5312 30.3468 74.3407 35.1562 80.2734 35.1562Z" fill="#FDCA05"/>
<path d="M56.9264 92.2162H21.1985L25.4858 86.2139H52.639L56.9264 92.2162Z" fill="#919CB3"/>
<path d="M35.4897 80.4973H42.6353V89.0719H35.4897V80.4973Z" fill="#B0BED9"/>
<path d="M74.2188 80.4973H3.90625L12.7668 34.7656H65.3582L74.2188 80.4973Z" fill="#E5EDFF"/>
<path d="M7.40747 77.639L15.1516 37.6238H62.9732L70.7173 77.639H7.40747Z" fill="#CFDFFF"/>
<path d="M68.2278 64.777L67.6747 61.9188H55.614L54.5421 50.4858H65.4624L64.9094 47.6276H54.2743L53.3364 37.6238H50.4781L51.4161 47.6276H40.4915V37.6238H37.6333V47.6276H26.7101L27.648 37.6238H24.7898L23.8519 47.6276H13.2154L12.6623 50.4858H23.5839L22.5121 61.9188H10.45L9.89697 64.777H22.2441L21.0382 77.639H23.8964L25.1023 64.777H37.6333V77.639H40.4915V64.777H53.0237L54.2296 77.639H57.0878L55.8819 64.777H68.2278ZM25.3703 61.9188L26.4421 50.4858H37.6333V61.9188H25.3703ZM40.4915 61.9188V50.4858H51.6839L52.7557 61.9188H40.4915Z" fill="#E5EDFF"/>
</svg>
