<svg width="100" height="100" viewBox="0 0 100 100" fill="none" xmlns="http://www.w3.org/2000/svg">
<path d="M75.5594 42.5013V82.3725H10.7686V42.5013L36.66 25.0576L41.133 18.6532C41.5902 17.9807 42.3507 17.5781 43.164 17.5781C43.9772 17.5781 44.7377 17.9807 45.1949 18.6532L49.668 25.0576L75.5594 42.5013Z" fill="#ECF2FF"/>
<path d="M43.1641 62.4368V82.3724H33.1963V67.4207C33.1963 64.6681 35.4277 62.4368 38.1802 62.4368H43.1641Z" fill="#CFDFFF"/>
<path d="M53.1319 67.4207V82.3724H43.1641V62.4368H48.148C50.9005 62.4368 53.1319 64.6681 53.1319 67.4207Z" fill="#CFDFFF"/>
<path d="M43.1641 52.4688C48.6692 52.4688 53.1319 48.0061 53.1319 42.501C53.1319 36.9959 48.6692 32.5332 43.1641 32.5332C37.659 32.5332 33.1963 36.9959 33.1963 42.501C33.1963 48.0061 37.659 52.4688 43.1641 52.4688Z" fill="white"/>
<path d="M40.672 46.2392C40.1681 46.2391 39.7139 45.9355 39.5211 45.47C39.3283 45.0045 39.4349 44.4686 39.7911 44.1123L41.918 41.9854V38.7633C41.918 38.0752 42.4758 37.5173 43.164 37.5173C43.8521 37.5173 44.41 38.0752 44.41 38.7633V42.5012C44.4099 42.8317 44.2786 43.1485 44.0449 43.3821L41.5529 45.8741C41.3193 46.1078 41.0024 46.2391 40.672 46.2392Z" fill="#475167"/>
<path d="M21.9826 64.9287C24.047 64.9287 25.7205 66.6022 25.7205 68.6666V73.6506C25.7205 74.3387 25.1626 74.8965 24.4745 74.8965H19.4906C18.8025 74.8965 18.2446 74.3387 18.2446 73.6506V68.6666C18.2446 66.6022 19.9182 64.9287 21.9826 64.9287Z" fill="#CFDFFF"/>
<path d="M21.9826 49.9771C24.047 49.9771 25.7205 51.6506 25.7205 53.715V58.6989C25.7205 59.387 25.1627 59.9449 24.4745 59.9449H19.4906C18.8025 59.9449 18.2446 59.387 18.2446 58.6989V53.715C18.2446 51.6506 19.9182 49.9771 21.9826 49.9771Z" fill="#CFDFFF"/>
<path d="M64.3458 64.9287C66.4102 64.9287 68.0838 66.6022 68.0838 68.6666V73.6506C68.0838 74.3387 67.5259 74.8965 66.8378 74.8965H61.8539C61.1658 74.8965 60.6079 74.3387 60.6079 73.6506V68.6666C60.6079 66.6022 62.2814 64.9287 64.3458 64.9287Z" fill="#CFDFFF"/>
<path d="M64.3458 49.9771C66.4102 49.9771 68.0838 51.6506 68.0838 53.715V58.6989C68.0838 59.387 67.5259 59.9449 66.8378 59.9449H61.8539C61.1658 59.9449 60.6079 59.387 60.6079 58.6989V53.715C60.6079 51.6506 62.2814 49.9771 64.3458 49.9771Z" fill="#CFDFFF"/>
<path d="M43.164 53.7149C36.9708 53.7149 31.9502 48.6944 31.9502 42.5011C31.9502 36.3079 36.9708 31.2874 43.164 31.2874C49.3572 31.2874 54.3778 36.3079 54.3778 42.5011C54.3709 48.6915 49.3544 53.7081 43.164 53.7149ZM43.164 33.7793C38.3471 33.7793 34.4422 37.6842 34.4422 42.5011C34.4422 47.3181 38.3471 51.223 43.164 51.223C47.9809 51.223 51.8858 47.3181 51.8858 42.5011C51.8803 37.6865 47.9787 33.7848 43.164 33.7793Z" fill="#B0BED9"/>
<path d="M36.6601 25.0576L24.4744 42.5013H8.27671C7.87075 42.5011 7.49034 42.3032 7.25721 41.9709C7.02408 41.6385 6.96746 41.2135 7.10549 40.8317L11.5536 28.3595C12.2645 26.3769 14.1448 25.0551 16.251 25.0576L36.6601 25.0576Z" fill="#13BAEC"/>
<path d="M78.0513 42.5013H61.8536L49.668 25.0576L70.0771 25.0576C72.1832 25.0551 74.0636 26.3769 74.7744 28.3595L79.2225 40.8317C79.3606 41.2135 79.304 41.6385 79.0708 41.9709C78.8377 42.3032 78.4573 42.5011 78.0513 42.5013Z" fill="#13BAEC"/>
<path d="M48.1487 61.1909C51.5875 61.1952 54.3741 63.9825 54.3782 67.4214V82.3726C54.3782 82.3955 54.3765 82.4183 54.3752 82.4409H51.8899C51.8887 82.4183 51.886 82.3955 51.886 82.3726V67.4214C51.886 65.3571 50.213 63.6832 48.1487 63.6831H38.1809C36.1165 63.6831 34.4426 65.357 34.4426 67.4214V82.3726C34.4426 82.3955 34.4399 82.4183 34.4387 82.4409H31.9543C31.9531 82.4183 31.9504 82.3955 31.9504 82.3726V67.4214C31.9546 63.9824 34.7419 61.195 38.1809 61.1909H48.1487Z" fill="#B0BED9"/>
<rect width="2.25318" height="17.8377" rx="1.12659" transform="matrix(-1 0 0 1 86.9814 64.6663)" fill="#59C939"/>
<path d="M79.3865 63.3659C79.6379 63.0161 79.6981 62.5674 79.561 62.1587C79.3353 61.4863 79.2129 60.7664 79.2129 60.0178C79.2129 58.2547 79.8911 56.6504 80.9999 55.453C81.2942 55.1352 81.4054 54.6909 81.3174 54.2663C81.2387 53.8863 81.2057 53.4896 81.2249 53.0819C81.3406 50.6305 83.3567 48.6639 85.8031 48.6133C88.4343 48.5589 90.5844 50.6819 90.5844 53.3087C90.5844 53.6452 90.5489 53.9734 90.4816 54.2898C90.3932 54.7059 90.5157 55.1417 90.8043 55.4534C91.913 56.6508 92.5911 58.2549 92.5911 60.0179C92.5911 60.7665 92.4688 61.4864 92.2431 62.1587C92.1055 62.5685 92.1675 63.0178 92.4195 63.3686C93.3689 64.6905 93.9285 66.3129 93.929 68.0663C93.9303 72.4474 90.3884 76.0557 86.0208 76.119C81.5333 76.184 77.8751 72.555 77.8751 68.0688C77.8751 66.3132 78.4354 64.6889 79.3865 63.3659Z" fill="#A4E192"/>
<rect width="3.00424" height="17.8377" rx="1.50212" transform="matrix(-1 0 0 1 77.124 64.5659)" fill="#4CAB30"/>
<path d="M68.4495 61.5203C68.7244 61.1406 68.7903 60.6536 68.6404 60.2101C68.3936 59.4804 68.2597 58.6991 68.2597 57.8866C68.2597 55.973 69.0013 54.2319 70.214 52.9323C70.5359 52.5874 70.6574 52.1052 70.5611 51.6442C70.475 51.2318 70.439 50.8013 70.4601 50.3588C70.5866 47.6982 72.7913 45.5638 75.4666 45.5089C78.344 45.4499 80.6952 47.754 80.6952 50.6049C80.6952 50.9702 80.6564 51.3263 80.5829 51.6697C80.4862 52.1213 80.6201 52.5944 80.9358 52.9326C82.1483 54.2322 82.8898 55.9731 82.8898 57.8866C82.8898 58.6991 82.7559 59.4804 82.5091 60.2101C82.3587 60.6549 82.4266 61.1424 82.7021 61.5233C83.7403 62.9579 84.3522 64.7187 84.3528 66.6218C84.3542 71.3767 80.4809 75.2928 75.7047 75.3615C70.7973 75.4321 66.7968 71.4933 66.7968 66.6245C66.7966 64.7191 67.4095 62.9563 68.4495 61.5203Z" fill="#59C939"/>
</svg>
