<svg width="100" height="100" viewBox="0 0 100 100" fill="none" xmlns="http://www.w3.org/2000/svg">
<path d="M56.6688 73.8281C56.933 73.8281 57.1828 73.7094 57.3543 73.507C58.736 71.8756 59.5703 69.7604 59.5703 67.4481C59.5703 64.23 57.9543 61.3934 55.4957 59.7117C55.1955 59.5063 55.0468 59.145 55.1149 58.786C55.6722 55.8466 54.8228 52.6903 52.5626 50.4149C50.3025 48.1394 47.1675 47.284 44.248 47.8452C43.8914 47.9137 43.5326 47.764 43.3286 47.4617C41.6583 44.9864 38.8409 43.3594 35.6445 43.3594C32.4482 43.3594 29.6308 44.9864 27.9605 47.4617C27.7565 47.764 27.3976 47.9137 27.041 47.8452C24.1215 47.284 20.9866 48.1392 18.7265 50.4149C16.4665 52.6903 15.6168 55.8466 16.1742 58.786C16.2423 59.145 16.0936 59.5063 15.7933 59.7117C13.3348 61.3934 11.7188 64.23 11.7188 67.4481C11.7188 69.7604 12.5531 71.8756 13.9348 73.507C14.1062 73.7094 14.356 73.8281 14.6202 73.8281H56.6688Z" fill="#D5F2CD"/>
<path d="M21.592 74.552H24.7444C24.7093 74.3906 24.6735 74.2347 24.6349 74.0789C24.1676 72.1507 23.5003 70.5697 22.7645 69.3062C20.816 65.9446 18.3397 65.0209 18.0132 65.3565C17.6866 65.6922 19.245 68.5783 19.9384 73.1514C20.0647 73.9852 20.7316 74.552 21.592 74.552Z" fill="#59C939"/>
<path d="M25.7231 74.552H29.0338C29.7918 74.552 30.373 74.0472 30.4553 73.3206C31.0183 68.3493 32.9704 65.3 32.5022 64.9756C32.034 64.6512 29.6468 65.5924 27.7054 68.9826C26.9053 70.3818 26.1929 72.1641 25.7596 74.3706C25.7464 74.4294 25.7337 74.4906 25.7231 74.552Z" fill="#59C939"/>
<path d="M22.1846 74.552H28.1885C27.9166 72.4816 27.8906 70.6288 27.9936 68.9888C28.3303 63.6046 29.75 59.9418 29.219 59.6022C28.6879 59.2625 25.0263 61.6136 23.2175 67.8313C22.6903 69.6389 22.3141 71.7477 22.2006 74.16C22.1944 74.2892 22.1881 74.4184 22.1846 74.552Z" fill="#59C939"/>
<rect width="5.27682" height="31.3311" rx="2.63841" transform="matrix(-1 0 0 1 62.2795 44.9983)" fill="#59C939"/>
<rect width="3.95761" height="31.3311" rx="1.97881" transform="matrix(-1 0 0 1 79.5942 43.3494)" fill="#4CAB30"/>
<path d="M66.2536 41.0652C66.6952 40.4508 66.801 39.6626 66.5601 38.9447C66.1638 37.7638 65.9487 36.4994 65.9487 35.1845C65.9487 32.0875 67.1399 29.2698 69.0876 27.1666C69.6045 26.6083 69.7998 25.828 69.6451 25.0821C69.5069 24.4147 69.449 23.7178 69.4827 23.0018C69.686 18.6959 73.2271 15.2417 77.5241 15.1529C82.1458 15.0573 85.9222 18.7864 85.9222 23.4002C85.9222 23.9913 85.8599 24.5677 85.7418 25.1234C85.5865 25.8542 85.8016 26.6198 86.3086 27.1672C88.256 29.2704 89.4471 32.0879 89.4471 35.1846C89.4471 36.4995 89.2321 37.764 88.8357 38.9449C88.594 39.6646 88.703 40.4538 89.1456 41.07C90.8132 43.3918 91.796 46.2414 91.7969 49.3213C91.7993 57.0165 85.578 63.3542 77.9066 63.4655C70.0244 63.5797 63.5989 57.2054 63.5989 49.3257C63.5989 46.242 64.5831 43.389 66.2536 41.0652Z" fill="#59C939"/>
<path d="M47.0436 39.6487C47.5265 38.9819 47.6423 38.1265 47.3788 37.3474C46.9454 36.0657 46.7102 34.6934 46.7102 33.2662C46.7102 29.9051 48.0128 26.8469 50.1429 24.5642C50.7082 23.9584 50.9217 23.1115 50.7526 22.3018C50.6014 21.5775 50.538 20.8212 50.5751 20.0441C50.7973 15.3707 54.6698 11.6219 59.3688 11.5254C64.4229 11.4217 68.5527 15.4688 68.5527 20.4763C68.5527 21.1179 68.4845 21.7434 68.3554 22.3466C68.1856 23.1397 68.4208 23.9707 68.9752 24.5649C71.1049 26.8474 72.4074 29.9053 72.4074 33.2662C72.4074 34.6934 72.1722 36.0657 71.7387 37.3474C71.4746 38.1286 71.5937 38.985 72.0777 39.6539C73.9013 42.1739 74.976 45.2666 74.9771 48.6093C74.9796 56.9611 68.1763 63.8395 59.7871 63.9602C51.1674 64.0842 44.1407 57.1659 44.1407 48.614C44.1404 45.2674 45.2168 42.1709 47.0436 39.6487Z" fill="#A4E192"/>
<rect x="7.8125" y="73.8281" width="83.9844" height="18.3594" fill="#A4E192"/>
</svg>
