<svg width="100" height="100" viewBox="0 0 100 100" fill="none" xmlns="http://www.w3.org/2000/svg">
<path d="M52.3025 28.259H68.7029V80.9718H52.3025V28.259Z" fill="#CFDFFF"/>
<rect x="50.9766" y="24.6094" width="19.3359" height="3.71094" fill="#13BAEC"/>
<rect x="52.5391" y="22.2656" width="16.2109" height="2.34375" fill="#13BAEC"/>
<path d="M57.7366 44.1874C56.9154 44.1874 56.25 43.5217 56.25 42.7007V35.0353C56.25 33.1132 59.2232 33.1132 59.2232 35.0353V42.7007C59.2232 43.5217 58.5576 44.1874 57.7366 44.1874Z" fill="#F3F7FF"/>
<path d="M57.7366 60.203C56.9154 60.203 56.25 59.5374 56.25 58.7164V51.051C56.25 49.1288 59.2232 49.1288 59.2232 51.051V58.7164C59.2232 59.5374 58.5576 60.203 57.7366 60.203Z" fill="#F3F7FF"/>
<path d="M63.596 44.1874C62.7748 44.1874 62.1094 43.5217 62.1094 42.7007V35.0353C62.1094 33.1132 65.0826 33.1132 65.0826 35.0353V42.7007C65.0826 43.5217 64.417 44.1874 63.596 44.1874Z" fill="#F3F7FF"/>
<path d="M63.596 60.203C62.7748 60.203 62.1094 59.5374 62.1094 58.7164V51.051C62.1094 49.1288 65.0826 49.1288 65.0826 51.051V58.7164C65.0826 59.5374 64.417 60.203 63.596 60.203Z" fill="#F3F7FF"/>
<path d="M22.9473 42.606L37.6369 31.3657L52.3265 42.606V80.9719H22.9473V42.606Z" fill="#ECF2FF"/>
<path d="M52.3265 42.606H22.9473L37.6369 31.3657L52.3265 42.606Z" fill="#7BEB13"/>
<path d="M37.6368 58.7884C36.8156 58.7884 36.1501 58.1228 36.1501 57.3018V49.6364C36.1501 47.7143 39.1234 47.7143 39.1234 49.6364V57.3018C39.1234 58.1228 38.458 58.7884 37.6368 58.7884Z" fill="#CFDFFF"/>
<path d="M44.9627 58.7884C44.1415 58.7884 43.4761 58.1228 43.4761 57.3018V49.6364C43.4761 47.7143 46.4493 47.7143 46.4493 49.6364V57.3018C46.4493 58.1228 45.7837 58.7884 44.9627 58.7884Z" fill="#CFDFFF"/>
<path d="M37.6368 73.4486C36.8156 73.4486 36.1501 72.783 36.1501 71.962V64.2966C36.1501 62.3745 39.1234 62.3745 39.1234 64.2966V71.962C39.1234 72.783 38.458 73.4486 37.6368 73.4486Z" fill="#CFDFFF"/>
<path d="M44.9627 73.4486C44.1415 73.4486 43.4761 72.783 43.4761 71.962V64.2966C43.4761 62.3745 46.4493 62.3745 46.4493 64.2966V71.962C46.4493 72.783 45.7837 73.4486 44.9627 73.4486Z" fill="#CFDFFF"/>
<path d="M30.3108 58.7884C29.4896 58.7884 28.8242 58.1228 28.8242 57.3018V49.6364C28.8242 47.7143 31.7975 47.7143 31.7975 49.6364V57.3018C31.7975 58.1228 31.132 58.7884 30.3108 58.7884Z" fill="#CFDFFF"/>
<path d="M30.3108 73.4486C29.4896 73.4486 28.8242 72.783 28.8242 71.962V64.2966C28.8242 62.3745 31.7975 62.3745 31.7975 64.2966V71.962C31.7975 72.783 31.132 73.4486 30.3108 73.4486Z" fill="#CFDFFF"/>
<path d="M22.9833 80.9719H3.35791V60.807L13.1706 50.7495L22.9833 60.807V80.9719Z" fill="#CFDFFF"/>
<path d="M16.7686 73.608C15.9474 73.608 15.282 72.9424 15.282 72.1214V67.9523C15.282 66.0302 18.2552 66.0302 18.2552 67.9523V72.1214C18.2552 72.9424 17.5896 73.608 16.7686 73.608Z" fill="#F3F7FF"/>
<path d="M13.1706 60.807H3.35791L13.1706 50.7495L22.9833 60.807H13.1706Z" fill="#F80338"/>
<path d="M9.57256 73.608C8.75135 73.608 8.08594 72.9424 8.08594 72.1214V67.9523C8.08594 66.0302 11.0592 66.0302 11.0592 67.9523V72.1214C11.0592 72.9424 10.3938 73.608 9.57256 73.608Z" fill="#F3F7FF"/>
<rect width="2.25317" height="17.8377" rx="1.12659" transform="matrix(-1 0 0 1 85.8096 63.2991)" fill="#59C939"/>
<path d="M78.2146 61.9987C78.466 61.6489 78.5262 61.2002 78.3891 60.7915C78.1635 60.1191 78.041 59.3993 78.041 58.6506C78.041 56.8875 78.7192 55.2832 79.8281 54.0859C80.1224 53.768 80.2335 53.3237 80.1455 52.8991C80.0668 52.5191 80.0338 52.1224 80.053 51.7147C80.1687 49.2633 82.1848 47.2967 84.6312 47.2461C87.2624 47.1917 89.4125 49.3148 89.4125 51.9416C89.4125 52.2781 89.377 52.6063 89.3098 52.9226C89.2213 53.3387 89.3438 53.7746 89.6324 54.0862C90.7412 55.2836 91.4193 56.8877 91.4193 58.6507C91.4193 59.3993 91.2969 60.1193 91.0712 60.7915C90.9336 61.2013 90.9957 61.6506 91.2476 62.0014C92.197 63.3233 92.7566 64.9457 92.7571 66.6992C92.7584 71.0802 89.2165 74.6885 84.849 74.7518C80.3614 74.8169 76.7032 71.1878 76.7032 66.7016C76.7032 64.946 77.2635 63.3217 78.2146 61.9987Z" fill="#A4E192"/>
<rect width="3.00423" height="17.8377" rx="1.50212" transform="matrix(-1 0 0 1 75.9521 63.1987)" fill="#4CAB30"/>
<path d="M67.2779 60.1531C67.5528 59.7734 67.6187 59.2865 67.4687 58.8429C67.222 58.1132 67.0881 57.3319 67.0881 56.5194C67.0881 54.6058 67.8297 52.8647 69.0424 51.5651C69.3643 51.2202 69.4858 50.738 69.3895 50.277C69.3034 49.8647 69.2674 49.4341 69.2884 48.9916C69.4149 46.331 71.6197 44.1967 74.2949 44.1417C77.1724 44.0827 79.5236 46.3868 79.5236 49.2377C79.5236 49.603 79.4848 49.9592 79.4113 50.3026C79.3146 50.7541 79.4485 51.2272 79.7641 51.5655C80.9766 52.865 81.7182 54.6059 81.7182 56.5194C81.7182 57.3319 81.5843 58.1132 81.3375 58.8429C81.1871 59.2877 81.2549 59.7753 81.5305 60.1561C82.5687 61.5907 83.1806 63.3515 83.1812 65.2546C83.1826 70.0095 79.3093 73.9256 74.5331 73.9943C69.6257 74.0649 65.6252 70.1261 65.6252 65.2573C65.625 63.352 66.2378 61.5891 67.2779 60.1531Z" fill="#59C939"/>
</svg>
