<svg width="512" height="512" viewBox="0 0 512 512" fill="none" xmlns="http://www.w3.org/2000/svg">
<g clip-path="url(#clip0_4202_37321)">
<path d="M484.496 391.868V244.771C469.783 244.771 455.07 274.188 455.07 274.188C447.714 237.417 410.932 230.063 410.932 230.063C425.644 237.417 425.644 274.188 425.644 274.188C403.575 266.834 403.575 252.126 403.575 252.126C396.219 274.188 366.793 274.188 366.793 274.188C359.436 252.126 381.506 222.709 381.506 222.709C344.724 237.417 322.654 281.543 322.654 281.543C323.554 269.026 326.026 256.672 330.011 244.771C323.289 247.289 317.184 251.217 312.108 256.291C307.032 261.366 303.103 267.468 300.585 274.188C293.229 222.709 256.446 208 256.446 208C285.872 244.771 263.803 288.897 263.803 288.897C234.377 274.188 256.446 244.771 256.446 244.771C247.692 247.266 239.72 251.952 233.284 258.387C226.847 264.821 222.159 272.791 219.664 281.543C227.021 244.771 212.308 222.709 212.308 222.709C212.308 237.417 197.595 252.126 197.595 252.126C195.077 245.405 191.147 239.303 186.072 234.228C180.996 229.154 174.891 225.226 168.169 222.709C190.238 259.48 168.169 281.543 168.169 281.543C153.456 266.834 160.813 244.771 160.813 244.771C138.743 244.771 131.387 266.834 131.387 266.834C116.674 252.126 124.03 230.063 124.03 230.063C94.6047 237.417 94.6047 281.543 94.6047 281.543C94.6047 222.709 57.8225 215.354 57.8225 215.354C64.1891 223.612 68.2289 233.423 69.5225 243.769C70.8161 254.115 69.3163 264.618 65.1789 274.188C50.466 266.834 50.466 244.771 50.466 244.771C50.466 244.771 28.3967 252.126 28.3967 274.188L28.3967 391.868H484.496Z" fill="#D7AC04"/>
<path d="M479.005 430.066L458.297 365.862L388.458 308.446C360.606 304.263 332.623 301.203 304.525 299.692L310.514 365.225L370.694 432.926H471.107C474.124 432.926 476.767 431.746 479.005 430.066Z" fill="#FEDA50"/>
<path d="M37.5981 325.344C37.2679 325.427 37.0322 325.661 36.7154 325.767C32.025 327.328 28.1093 331.896 27.705 337.313C27.6773 337.662 27.5042 337.96 27.5042 338.314V419.537C27.5042 423.921 29.7436 427.624 32.9952 430.066L111.862 359.72L123.542 308.445C94.6766 312.78 65.9486 318.139 37.5981 325.344Z" fill="#FEDA50"/>
<path d="M370.694 432.926H141.306L146.126 368.84L207.444 299.755C223.511 298.683 240.201 298.416 256 298.416C271.799 298.416 288.489 298.682 304.556 299.755L370.694 432.926Z" fill="#FEDA50"/>
<path d="M484.496 419.537V338.314C484.496 332.648 479.637 326.666 474.402 325.344C446.051 318.14 417.322 312.78 388.457 308.445L479.004 430.066C482.256 427.624 484.496 423.921 484.496 419.537Z" fill="#FDCA05"/>
<path d="M370.694 432.926H256V298.417C271.799 298.417 288.489 298.683 304.556 299.756L370.694 432.926Z" fill="#FDCA05"/>
<path d="M123.542 308.446L32.9952 430.066C35.2329 431.746 37.8758 432.926 40.8926 432.926H141.306L207.477 299.692C179.379 301.202 151.394 304.263 123.542 308.446Z" fill="#FDCA05"/>
</g>
<defs>
<clipPath id="clip0_4202_37321">
<rect width="432" height="320" fill="white" transform="translate(40 99)"/>
</clipPath>
</defs>
</svg>
