<svg width="512" height="512" viewBox="0 0 512 512" fill="none" xmlns="http://www.w3.org/2000/svg">
<path d="M87.7176 231.706H112.485C112.21 230.438 111.928 229.213 111.625 227.989C107.953 212.84 102.711 200.419 96.9296 190.491C81.6207 164.08 62.1656 156.823 59.6001 159.46C57.0345 162.097 69.2782 184.773 74.7258 220.702C75.7185 227.253 80.958 231.706 87.7176 231.706Z" fill="#10A0C9"/>
<path d="M120.175 231.706H146.186C152.141 231.706 156.707 227.741 157.354 222.032C161.777 182.973 177.114 159.016 173.436 156.468C169.757 153.919 151.002 161.313 135.749 187.949C129.462 198.943 123.866 212.946 120.461 230.281C120.358 230.743 120.257 231.224 120.175 231.706Z" fill="#10A0C9"/>
<path d="M92.3746 231.706H139.545C137.41 215.44 137.205 200.883 138.014 187.998C140.66 145.696 151.814 116.919 147.642 114.25C143.469 111.582 114.701 130.053 100.49 178.904C96.3477 193.105 93.392 209.674 92.5007 228.626C92.4516 229.641 92.4025 230.657 92.3746 231.706Z" fill="#10A0C9"/>
<rect x="40" y="218.955" width="432" height="61" fill="#10A0C9"/>
<path d="M242.758 317.36C240.115 319.982 238.311 323.329 237.574 326.978C236.837 330.627 237.202 334.413 238.621 337.855C240.039 341.296 242.449 344.239 245.544 346.308C248.638 348.378 252.278 349.481 256 349.478H472V471.565H312.348C319.82 471.565 326.986 468.597 332.27 463.313C337.554 458.03 340.522 450.863 340.522 443.391C340.522 435.919 337.554 428.753 332.27 423.469C326.986 418.186 319.82 415.217 312.348 415.217H217.026C211.798 415.21 206.674 413.748 202.229 410.995C197.784 408.242 194.193 404.306 191.858 399.628L188.665 393.242C186.329 388.564 182.738 384.628 178.293 381.875C173.848 379.121 168.725 377.659 163.496 377.652H40.0002V255.565H172.887C178.116 255.558 183.239 254.096 187.684 251.343C192.129 248.59 195.72 244.654 198.056 239.976L201.249 233.59C203.584 228.912 207.176 224.976 211.621 222.222C216.066 219.469 221.189 218.007 226.418 218H472V274.348H367.287C362.059 274.355 356.935 275.817 352.49 278.57C348.045 281.323 344.454 285.259 342.118 289.937L338.925 296.323C336.59 301.002 332.999 304.937 328.554 307.691C324.109 310.444 318.985 311.906 313.757 311.913C253.84 311.913 249.99 310.129 242.758 317.36Z" fill="#13BCEC"/>
<path d="M472 274.737V349.868H256C252.277 349.871 248.638 348.767 245.543 346.698C242.449 344.628 240.039 341.686 238.62 338.244C237.201 334.803 236.837 331.017 237.574 327.368C238.311 323.719 240.115 320.371 242.758 317.749C250.459 310.049 255.061 312.303 313.757 312.303C318.985 312.295 324.109 310.833 328.554 308.08C332.999 305.327 336.59 301.391 338.925 296.713L342.118 290.327C344.454 285.649 348.045 281.713 352.49 278.96C356.935 276.206 362.058 274.744 367.287 274.737H472Z" fill="#5AD0F2"/>
<path d="M332.258 463.69C320.518 475.429 332.727 471.955 40.0002 471.955V378.042H163.496C168.725 378.049 173.848 379.511 178.293 382.264C182.738 385.017 186.329 388.953 188.665 393.631L191.858 400.017C194.193 404.695 197.784 408.631 202.229 411.384C206.674 414.138 211.798 415.6 217.026 415.607H312.348C317.917 415.612 323.359 417.267 327.988 420.363C332.616 423.459 336.224 427.857 338.354 433.002C340.484 438.147 341.042 443.808 339.957 449.27C338.872 454.732 336.193 459.75 332.258 463.69Z" fill="#7DDAF5"/>
</svg>
