<svg width="512" height="512" viewBox="0 0 512 512" fill="none" xmlns="http://www.w3.org/2000/svg">
<path fill-rule="evenodd" clip-rule="evenodd" d="M428.616 420.218H479.306C482.606 420.218 485.305 417.519 485.305 414.22V217.158C485.305 213.859 482.606 211.159 479.306 211.159H428.616C425.317 211.159 422.617 213.859 422.617 217.158V414.22C422.617 417.519 425.317 420.218 428.616 420.218Z" fill="#CFDFFF"/>
<path fill-rule="evenodd" clip-rule="evenodd" d="M356.33 420.218H428.616C431.916 420.218 434.615 417.519 434.615 414.22V173.067C434.615 170.967 433.715 169.167 432.216 167.968C430.416 167.068 428.316 166.768 426.517 167.368L354.231 196.462C351.831 197.362 350.332 199.461 350.332 201.861V414.22C350.332 417.519 353.031 420.218 356.33 420.218Z" fill="#E5EDFF"/>
<path fill-rule="evenodd" clip-rule="evenodd" d="M83.0838 420.218H32.3937C29.0943 420.218 26.3948 417.519 26.3948 414.22V217.158C26.3948 213.859 29.0943 211.159 32.3937 211.159H83.0838C86.3831 211.159 89.0826 213.859 89.0826 217.158V414.22C89.0826 417.519 86.3831 420.218 83.0838 420.218Z" fill="#CFDFFF"/>
<path fill-rule="evenodd" clip-rule="evenodd" d="M155.37 420.218H83.0838C79.7844 420.218 77.085 417.519 77.085 414.22V173.067C77.085 170.967 78.2847 169.167 79.7844 167.968C81.5841 167.068 83.6837 166.768 85.4833 167.368L157.769 196.462C159.869 197.362 161.368 199.461 161.368 201.861V414.22C161.368 417.519 158.669 420.218 155.37 420.218Z" fill="#E5EDFF"/>
<path fill-rule="evenodd" clip-rule="evenodd" d="M353.631 420.218H158.369C155.07 420.218 152.37 417.519 152.37 414.219V142.772C152.37 114.278 197.961 91.7822 255.85 91.7822C314.039 91.7822 359.63 114.278 359.63 142.772V414.219C359.63 417.519 356.93 420.218 353.631 420.218Z" fill="#919CB3"/>
<path fill-rule="evenodd" clip-rule="evenodd" d="M152.37 168.868V144.272C167.667 130.175 205.46 118.777 255.85 118.777C306.24 118.777 344.033 130.175 359.63 143.972V168.868C337.134 155.67 299.342 147.272 255.85 147.272C212.359 147.272 174.866 155.67 152.37 168.868Z" fill="#CFDFFF"/>
<path fill-rule="evenodd" clip-rule="evenodd" d="M152.37 251.052V225.557C167.667 211.759 205.46 200.062 255.85 200.062C306.24 200.062 344.033 211.759 359.63 225.557V250.752C337.134 237.554 299.342 229.156 255.85 229.156C212.359 229.156 174.866 237.554 152.37 251.052Z" fill="#CFDFFF"/>
<path fill-rule="evenodd" clip-rule="evenodd" d="M152.37 291.843V266.648C167.667 252.851 205.46 241.153 255.85 241.153C306.24 241.153 344.033 252.551 359.63 266.648V291.843C337.134 278.646 299.342 269.948 255.85 269.948C212.359 269.948 174.866 278.646 152.37 291.843Z" fill="#CFDFFF"/>
<path fill-rule="evenodd" clip-rule="evenodd" d="M152.37 332.935V307.44C167.667 293.643 205.46 281.945 255.85 281.945C306.24 281.945 344.033 293.643 359.63 307.44V332.935C337.134 319.438 299.342 311.04 255.85 311.04C212.359 311.04 174.866 319.438 152.37 332.935Z" fill="#CFDFFF"/>
<path fill-rule="evenodd" clip-rule="evenodd" d="M152.37 210.26V184.765C167.667 170.967 205.46 159.27 255.85 159.27C306.24 159.27 344.033 170.967 359.63 184.765V209.96C337.134 196.762 299.342 188.364 255.85 188.364C212.359 188.364 174.866 196.762 152.37 210.26Z" fill="#CFDFFF"/>
<path fill-rule="evenodd" clip-rule="evenodd" d="M290.643 120.576C294.243 121.176 297.842 121.476 301.441 122.076L286.144 148.471C282.545 148.171 278.646 147.871 275.046 147.571L290.643 120.576Z" fill="#E5EDFF"/>
<path fill-rule="evenodd" clip-rule="evenodd" d="M244.752 200.36C248.351 200.061 252.251 200.061 255.85 200.061H256.45L239.353 229.455C235.154 229.755 231.255 230.055 227.356 230.355L244.752 200.36Z" fill="#E5EDFF"/>
<path fill-rule="evenodd" clip-rule="evenodd" d="M219.857 243.253C223.756 242.653 227.956 242.353 232.155 242.053L214.458 272.947C209.959 273.547 205.76 274.146 201.561 275.046L219.857 243.253Z" fill="#E5EDFF"/>
<path fill-rule="evenodd" clip-rule="evenodd" d="M193.462 288.843C197.661 287.943 202.161 287.043 206.66 286.144L187.763 318.837C182.664 320.337 178.165 321.537 173.666 323.036L193.462 288.843Z" fill="#E5EDFF"/>
<path fill-rule="evenodd" clip-rule="evenodd" d="M268.148 159.568C272.047 159.868 275.646 159.868 279.245 160.168L263.049 188.363C260.649 188.363 258.25 188.363 255.85 188.363C254.65 188.363 253.151 188.363 251.651 188.363L268.148 159.568Z" fill="#E5EDFF"/>
<path fill-rule="evenodd" clip-rule="evenodd" d="M315.538 124.775C323.337 126.575 330.236 128.675 336.534 131.074L323.037 154.77C316.138 152.97 308.64 151.47 300.841 150.27L315.538 124.775Z" fill="#E5EDFF"/>
<path fill-rule="evenodd" clip-rule="evenodd" d="M272.047 200.66C280.145 200.96 287.944 201.56 295.142 202.76L279.545 230.054C272.047 229.455 263.948 229.155 255.85 229.155H255.55L272.047 200.66Z" fill="#E5EDFF"/>
<path fill-rule="evenodd" clip-rule="evenodd" d="M248.651 241.152H255.85C261.849 241.152 267.248 241.152 272.947 241.452L256.45 269.947H255.85C247.452 269.947 239.353 270.247 231.255 271.146L248.651 241.152Z" fill="#E5EDFF"/>
<path fill-rule="evenodd" clip-rule="evenodd" d="M224.056 283.744C231.855 282.844 240.553 282.244 249.251 282.244L232.155 311.938C222.856 312.538 214.158 313.738 205.76 315.238L224.056 283.744Z" fill="#E5EDFF"/>
<path fill-rule="evenodd" clip-rule="evenodd" d="M294.542 161.668C302.341 162.868 309.839 164.068 316.438 165.867L301.741 191.662C294.243 190.462 286.444 189.563 278.646 189.263L294.542 161.668Z" fill="#E5EDFF"/>
<path fill-rule="evenodd" clip-rule="evenodd" d="M294.243 420.218H217.757C214.158 420.218 211.759 417.519 211.759 414.219V343.733C211.759 340.434 214.158 337.734 217.757 337.734H294.243C297.542 337.734 300.241 340.434 300.241 343.733V414.219C300.241 417.519 297.542 420.218 294.243 420.218Z" fill="#ECF2FF"/>
<path fill-rule="evenodd" clip-rule="evenodd" d="M255.85 420.218C252.551 420.218 249.851 417.519 249.851 414.219V343.733C249.851 340.434 252.551 337.734 255.85 337.734C259.149 337.734 261.849 340.434 261.849 343.733V414.219C261.849 417.519 259.149 420.218 255.85 420.218Z" fill="#919CB3"/>
<path fill-rule="evenodd" clip-rule="evenodd" d="M311.939 349.732H199.761C196.462 349.732 193.762 347.033 193.762 343.733C193.762 340.434 196.462 337.734 199.761 337.734H311.939C315.238 337.734 317.938 340.434 317.938 343.733C317.938 347.033 315.238 349.732 311.939 349.732Z" fill="#919CB3"/>
</svg>
