<svg width="512" height="512" viewBox="0 0 512 512" fill="none" xmlns="http://www.w3.org/2000/svg">
<path d="M290.145 378C291.497 378 292.776 377.392 293.654 376.356C300.728 368.003 305 357.173 305 345.334C305 328.858 296.726 314.334 284.138 305.724C282.601 304.672 281.839 302.823 282.188 300.984C285.042 285.935 280.693 269.774 269.12 258.124C257.549 246.474 241.498 242.094 226.55 244.967C224.724 245.318 222.887 244.552 221.842 243.004C213.29 230.33 198.865 222 182.5 222C166.135 222 151.71 230.33 143.158 243.004C142.113 244.552 140.276 245.318 138.45 244.967C123.502 242.094 107.451 246.473 95.8797 258.124C84.3083 269.774 79.9582 285.935 82.8118 300.984C83.1606 302.823 82.3991 304.672 80.8618 305.724C68.2741 314.334 60 328.858 60 345.334C60 357.173 64.2719 368.003 71.346 376.356C72.2238 377.392 73.5028 378 74.8555 378H290.145Z" fill="#D5F2CD"/>
<path d="M110.551 381.706H126.691C126.512 380.88 126.328 380.082 126.13 379.284C123.738 369.411 120.322 361.317 116.554 354.847C106.578 337.636 93.8992 332.907 92.2273 334.625C90.5553 336.344 98.5343 351.121 102.084 374.535C102.731 378.804 106.146 381.706 110.551 381.706Z" fill="#59C939"/>
<path d="M131.702 381.707H148.653C152.534 381.707 155.51 379.123 155.931 375.402C158.813 349.949 168.808 334.337 166.411 332.676C164.014 331.015 151.791 335.834 141.851 353.192C137.755 360.356 134.107 369.481 131.889 380.778C131.821 381.079 131.756 381.393 131.702 381.707Z" fill="#59C939"/>
<path d="M113.586 381.706H144.326C142.934 371.106 142.8 361.619 143.328 353.223C145.052 325.656 152.321 306.902 149.602 305.163C146.883 303.424 128.135 315.462 118.874 347.296C116.175 356.551 114.249 367.348 113.668 379.699C113.636 380.361 113.604 381.022 113.586 381.706Z" fill="#59C939"/>
<rect width="27.0173" height="160.415" rx="8" transform="matrix(-1 0 0 1 318.872 230.391)" fill="#59C939"/>
<rect width="20.263" height="160.415" rx="8" transform="matrix(-1 0 0 1 407.522 221.948)" fill="#4CAB30"/>
<path d="M339.218 210.254C341.479 207.108 342.021 203.073 340.788 199.397C338.759 193.351 337.657 186.877 337.657 180.145C337.657 164.289 343.756 149.862 353.728 139.093C356.375 136.235 357.375 132.24 356.583 128.421C355.875 125.004 355.579 121.436 355.752 117.77C356.792 95.7236 374.923 78.038 396.923 77.5834C420.586 77.0938 439.922 96.1866 439.922 119.81C439.922 122.836 439.603 125.787 438.998 128.632C438.203 132.374 439.304 136.294 441.9 139.097C451.871 149.865 457.969 164.291 457.969 180.146C457.969 186.878 456.868 193.352 454.839 199.398C453.601 203.083 454.159 207.124 456.425 210.279C464.963 222.167 469.995 236.757 470 252.526C470.012 291.925 438.16 324.374 398.882 324.944C358.525 325.529 325.626 292.892 325.626 252.548C325.626 236.76 330.665 222.152 339.218 210.254Z" fill="#59C939"/>
<path d="M240.863 203.001C243.336 199.587 243.928 195.208 242.579 191.219C240.36 184.657 239.156 177.63 239.156 170.323C239.156 153.114 245.825 137.456 256.731 125.769C259.626 122.667 260.719 118.331 259.853 114.185C259.079 110.477 258.755 106.605 258.944 102.626C260.082 78.698 279.909 59.5039 303.968 59.01C329.845 58.4791 350.99 79.2004 350.99 104.839C350.99 108.123 350.641 111.326 349.98 114.415C349.11 118.475 350.314 122.73 353.153 125.772C364.057 137.459 370.726 153.115 370.726 170.323C370.726 177.63 369.522 184.657 367.302 191.219C365.95 195.219 366.56 199.603 369.038 203.028C378.374 215.93 383.877 231.765 383.882 248.879C383.895 291.641 349.063 326.858 306.11 327.476C261.977 328.111 226 292.69 226 248.903C225.999 231.769 231.51 215.915 240.863 203.001Z" fill="#A4E192"/>
<rect x="40" y="378" width="430" height="94" fill="#A4E192"/>
</svg>
