<svg width="512" height="512" viewBox="0 0 512 512" fill="none" xmlns="http://www.w3.org/2000/svg">
<path d="M411 210L408.169 207.059C397.017 195.474 380.846 190.209 365.032 193.016L360.952 193.74L360.428 189.942C358.211 173.882 348.116 160.003 333.54 152.977L330 151.271L331.805 147.904C339.474 133.602 339.474 116.398 331.805 102.097L330 98.73L333.541 97.023C348.117 89.997 358.212 76.118 360.429 60.058L360.953 56.26L365.033 56.984C380.847 59.791 397.018 54.526 408.17 42.941L411 40L413.831 42.941C424.983 54.526 441.154 59.791 456.968 56.984L461.048 56.26L461.572 60.058C463.789 76.118 473.884 89.997 488.46 97.023L492 98.73L490.195 102.097C482.526 116.399 482.526 133.603 490.195 147.904L492 151.27L488.459 152.977C473.883 160.003 463.788 173.882 461.571 189.942L461.047 193.74L456.967 193.016C441.153 190.209 424.982 195.474 413.83 207.059L411 210Z" fill="#FEDA50"/>
<path d="M411 180C441.376 180 466 155.376 466 125C466 94.6243 441.376 70 411 70C380.624 70 356 94.6243 356 125C356 155.376 380.624 180 411 180Z" fill="#FDCA05"/>
<path d="M291.463 472.147H108.537L130.488 441.415H269.512L291.463 472.147Z" fill="#919CB3"/>
<path d="M181.707 412.146H218.293V456.048H181.707V412.146Z" fill="#B0BED9"/>
<path d="M380 412.146H20L65.3659 178H334.634L380 412.146Z" fill="#E5EDFF"/>
<path d="M37.9268 397.512L77.5766 192.634H322.423L362.073 397.512H37.9268Z" fill="#CFDFFF"/>
<path d="M349.327 331.658L346.495 317.024H284.744L279.256 258.487H335.168L332.336 243.853H277.885L273.083 192.634H258.449L263.251 243.853H207.317V192.634H192.683V243.853H136.756L141.558 192.634H126.924L122.122 243.853H67.6633L64.8316 258.487H120.75L115.262 317.024H53.5047L50.673 331.658H113.89L107.716 397.512H122.35L128.524 331.658H192.683V397.512H207.317V331.658H271.482L277.656 397.512H292.29L286.116 331.658H349.327ZM129.896 317.024L135.384 258.487H192.683V317.024H129.896ZM207.317 317.024V258.487H264.622L270.11 317.024H207.317Z" fill="#E5EDFF"/>
</svg>
