<svg width="512" height="512" viewBox="0 0 512 512" fill="none" xmlns="http://www.w3.org/2000/svg">
<g clip-path="url(#clip0_162_11479)">
<path fill-rule="evenodd" clip-rule="evenodd" d="M197.937 211.251C205.358 215.536 205.849 228.596 195.081 247.247C180.087 273.22 151.022 309.65 143.601 305.365C136.18 301.081 153.195 257.695 168.192 231.722C178.96 213.071 190.516 206.967 197.937 211.251Z" fill="#3E8D28"/>
<path fill-rule="evenodd" clip-rule="evenodd" d="M109.422 211.251C102.001 215.536 101.51 228.596 112.278 247.247C127.272 273.22 156.337 309.65 163.758 305.365C171.179 301.081 154.164 257.695 139.167 231.722C128.399 213.071 116.842 206.967 109.422 211.251Z" fill="#3E8D28"/>
<path fill-rule="evenodd" clip-rule="evenodd" d="M153.679 182C162.249 182 169.204 193.38 169.204 215.533C169.204 246.378 162.249 293.778 153.679 293.778C145.11 293.778 138.155 246.378 138.155 215.533C138.155 193.38 145.11 182 153.679 182Z" fill="#4CAB30"/>
<path fill-rule="evenodd" clip-rule="evenodd" d="M161.681 468.745C160.032 471.617 156.974 473.39 153.664 473.396C150.351 473.399 147.289 471.636 145.631 468.77C137.006 451.618 123.217 419.165 113.315 371.402C110.126 356.017 107.276 335.431 105.118 317.242C103.727 306.608 106.984 295.893 114.06 287.829C121.133 279.769 131.339 275.148 142.064 275.148H165.295C176.019 275.148 186.225 279.769 193.298 287.829C200.375 295.893 203.632 306.608 202.241 317.242C200.083 335.431 197.279 356.026 194.044 371.402C183.987 419.168 170.257 451.599 161.681 468.745Z" fill="#F97F05"/>
</g>
<g clip-path="url(#clip1_162_11479)">
<path fill-rule="evenodd" clip-rule="evenodd" d="M384.937 127.251C392.358 131.536 392.849 144.596 382.081 163.247C367.087 189.22 338.022 225.65 330.601 221.365C323.18 217.081 340.195 173.695 355.192 147.722C365.96 129.071 377.516 122.967 384.937 127.251Z" fill="#3E8D28"/>
<path fill-rule="evenodd" clip-rule="evenodd" d="M296.422 127.251C289.001 131.536 288.51 144.596 299.278 163.247C314.272 189.22 343.337 225.65 350.758 221.365C358.179 217.081 341.164 173.695 326.167 147.722C315.399 129.071 303.842 122.967 296.422 127.251Z" fill="#3E8D28"/>
<path fill-rule="evenodd" clip-rule="evenodd" d="M340.679 98C349.249 98 356.204 109.38 356.204 131.533C356.204 162.378 349.249 209.778 340.679 209.778C332.11 209.778 325.155 162.378 325.155 131.533C325.155 109.38 332.11 98 340.679 98Z" fill="#4CAB30"/>
<path fill-rule="evenodd" clip-rule="evenodd" d="M348.681 384.745C347.032 387.617 343.974 389.39 340.664 389.396C337.351 389.399 334.289 387.636 332.631 384.77C324.006 367.618 310.217 335.165 300.315 287.402C297.126 272.017 294.276 251.431 292.118 233.242C290.727 222.608 293.984 211.893 301.06 203.829C308.133 195.769 318.339 191.148 329.064 191.148H352.295C363.019 191.148 373.225 195.769 380.298 203.829C387.375 211.893 390.632 222.608 389.241 233.242C387.083 251.431 384.279 272.026 381.044 287.402C370.987 335.168 357.257 367.599 348.681 384.745Z" fill="#F97F05"/>
</g>
<g clip-path="url(#clip2_162_11479)">
<path d="M523.978 271C514.96 271 506.31 268.472 499.932 263.973C484.532 253.106 463.645 247.001 441.866 247C420.087 247.001 399.201 253.106 383.801 263.973C378.486 267.723 372.177 270.697 365.234 272.726C358.29 274.756 350.849 275.8 343.333 275.8H336.327C328.811 275.8 321.369 274.756 314.426 272.726C307.482 270.697 301.173 267.723 295.859 263.973C280.459 253.106 259.572 247.001 237.793 247C216.014 247.001 195.128 253.106 179.728 263.973C173.35 268.472 164.7 271 155.681 271C150.397 271 145.329 272.481 141.593 275.118C137.856 277.754 135.757 281.33 135.757 285.059V295H543.903V285.059C543.903 281.33 541.804 277.754 538.067 275.118C534.331 272.481 529.263 271 523.978 271Z" fill="#9D7465"/>
<path d="M152.112 271C143.093 271 134.444 268.472 128.066 263.973C112.665 253.106 91.7789 247.001 70.0001 247C48.2212 247.001 27.3347 253.106 11.9345 263.973C6.62015 267.723 0.311127 270.697 -6.63232 272.726C-13.5758 274.756 -21.0177 275.8 -28.5332 275.8H-35.5397C-43.0551 275.8 -50.4971 274.756 -57.4405 272.726C-64.384 270.697 -70.693 267.723 -76.0074 263.973C-91.4075 253.106 -112.294 247.001 -134.073 247C-155.852 247.001 -176.738 253.106 -192.138 263.973C-198.517 268.472 -207.166 271 -216.185 271C-221.469 271 -226.537 272.481 -230.274 275.118C-234.01 277.754 -236.109 281.33 -236.109 285.059V295H172.037V285.059C172.037 281.33 169.937 277.754 166.201 275.118C162.464 272.481 157.396 271 152.112 271Z" fill="#9D7465"/>
<rect x="70" y="282" width="373" height="67" fill="#9D7465"/>
</g>
<path d="M55 337H457V415H55V337Z" fill="#F7E4A1"/>
<g clip-path="url(#clip3_162_11479)">
<path d="M106 434V314L130 290L154 314V434H106Z" fill="#F2CF5A"/>
<path d="M190 434V314L214 290L238 314V434H190Z" fill="#F2CF5A"/>
<path d="M274 434V314L298 290L322 314V434H274Z" fill="#F2CF5A"/>
<path d="M358 434V314L382 290L406 314V434H358Z" fill="#F2CF5A"/>
</g>
<path d="M124 343H136V355H124V343Z" fill="#C99F10"/>
<path d="M208 343H220V355H208V343Z" fill="#C99F10"/>
<path d="M292 343H304V355H292V343Z" fill="#C99F10"/>
<path d="M376 343H388V355H376V343Z" fill="#C99F10"/>
<defs>
<clipPath id="clip0_162_11479">
<rect width="99" height="155" fill="white" transform="translate(104 182)"/>
</clipPath>
<clipPath id="clip1_162_11479">
<rect width="99" height="208" fill="white" transform="translate(291 98)"/>
</clipPath>
<clipPath id="clip2_162_11479">
<rect width="373" height="90" fill="white" transform="translate(70 247)"/>
</clipPath>
<clipPath id="clip3_162_11479">
<rect width="300" height="125" fill="white" transform="translate(106 290)"/>
</clipPath>
</defs>
</svg>
