<svg width="512" height="512" viewBox="0 0 512 512" fill="none" xmlns="http://www.w3.org/2000/svg">
<path d="M386.865 271.606V475.747H55.1355V271.606L187.7 182.295L210.602 149.505C212.943 146.061 216.836 144 221 144C225.164 144 229.057 146.061 231.398 149.505L254.301 182.295L386.865 271.606Z" fill="#ECF2FF"/>
<path d="M221 373.677V475.747H169.965V399.194C169.965 385.101 181.389 373.677 195.482 373.677H221Z" fill="#CFDFFF"/>
<path d="M272.035 399.194V475.747H221V373.677H246.518C260.611 373.677 272.035 385.101 272.035 399.194Z" fill="#CFDFFF"/>
<path d="M221 322.641C249.186 322.641 272.035 299.792 272.035 271.606C272.035 243.42 249.186 220.57 221 220.57C192.814 220.57 169.965 243.42 169.965 271.606C169.965 299.792 192.814 322.641 221 322.641Z" fill="white"/>
<path d="M208.241 290.745C205.661 290.744 203.336 289.19 202.349 286.806C201.362 284.423 201.907 281.68 203.731 279.855L214.621 268.965V252.468C214.621 248.945 217.477 246.089 221 246.089C224.523 246.089 227.379 248.945 227.379 252.468V271.606C227.379 273.298 226.707 274.921 225.51 276.117L212.752 288.876C211.555 290.072 209.933 290.744 208.241 290.745Z" fill="#475167"/>
<path d="M112.55 386.436C123.12 386.436 131.688 395.004 131.688 405.574V431.091C131.688 434.615 128.832 437.471 125.309 437.471H99.7914C96.2681 437.471 93.412 434.615 93.412 431.091V405.574C93.412 395.004 101.98 386.436 112.55 386.436Z" fill="#CFDFFF"/>
<path d="M112.55 309.883C123.12 309.883 131.688 318.451 131.688 329.021V354.539C131.688 358.062 128.832 360.918 125.309 360.918H99.7914C96.2681 360.918 93.412 358.062 93.412 354.539V329.021C93.412 318.451 101.98 309.883 112.55 309.883Z" fill="#CFDFFF"/>
<path d="M329.45 386.436C340.02 386.436 348.588 395.004 348.588 405.574V431.091C348.588 434.615 345.732 437.471 342.209 437.471H316.691C313.168 437.471 310.312 434.615 310.312 431.091V405.574C310.312 395.004 318.88 386.436 329.45 386.436Z" fill="#CFDFFF"/>
<path d="M329.45 309.883C340.02 309.883 348.588 318.451 348.588 329.021V354.539C348.588 358.062 345.732 360.918 342.209 360.918H316.691C313.168 360.918 310.312 358.062 310.312 354.539V329.021C310.312 318.451 318.88 309.883 329.45 309.883Z" fill="#CFDFFF"/>
<path d="M221 329.021C189.291 329.021 163.585 303.315 163.585 271.606C163.585 239.897 189.291 214.191 221 214.191C252.709 214.191 278.415 239.897 278.415 271.606C278.38 303.301 252.695 328.986 221 329.021ZM221 226.95C196.337 226.95 176.344 246.943 176.344 271.606C176.344 296.269 196.337 316.262 221 316.262C245.663 316.262 265.656 296.269 265.656 271.606C265.628 246.955 245.651 226.978 221 226.95Z" fill="#B0BED9"/>
<path d="M187.7 182.295L125.309 271.607H42.3767C40.2983 271.606 38.3505 270.592 37.1569 268.891C35.9633 267.189 35.6734 265.013 36.3801 263.058L59.1546 199.2C62.794 189.05 72.4214 182.282 83.2049 182.295L187.7 182.295Z" fill="#F97F05"/>
<path d="M399.623 271.607H316.691L254.301 182.295L358.795 182.295C369.579 182.282 379.206 189.05 382.846 199.2L405.62 263.058C406.327 265.013 406.037 267.189 404.843 268.891C403.65 270.592 401.702 271.606 399.623 271.607Z" fill="#F97F05"/>
<path fill-rule="evenodd" clip-rule="evenodd" d="M278.408 476.094H265.668C265.662 475.98 265.659 475.864 265.659 475.748V399.195C265.659 388.625 257.09 380.057 246.521 380.057H195.485C184.916 380.057 176.347 388.625 176.347 399.195V475.748C176.347 475.864 176.344 475.98 176.338 476.094H163.598C163.591 475.98 163.588 475.864 163.588 475.748V399.195C163.609 381.587 177.878 367.319 195.485 367.298H246.521C264.128 367.319 278.396 381.587 278.418 399.195V475.748C278.418 475.864 278.414 475.98 278.408 476.094Z" fill="#B0BED9"/>
<rect width="11.5363" height="91.3288" rx="5.76813" transform="matrix(-1 0 0 1 445.345 385.091)" fill="#59C939"/>
<path d="M406.458 378.434C407.745 376.643 408.054 374.345 407.352 372.253C406.196 368.81 405.569 365.125 405.569 361.292C405.569 352.264 409.042 344.051 414.719 337.92C416.226 336.293 416.795 334.018 416.344 331.844C415.941 329.898 415.773 327.867 415.871 325.78C416.463 313.228 426.786 303.16 439.311 302.901C452.783 302.622 463.791 313.492 463.791 326.941C463.791 328.664 463.61 330.345 463.265 331.964C462.813 334.095 463.44 336.326 464.918 337.922C470.594 344.053 474.066 352.265 474.066 361.292C474.066 365.125 473.44 368.811 472.284 372.253C471.58 374.351 471.897 376.652 473.187 378.448C478.048 385.216 480.913 393.522 480.916 402.5C480.923 424.931 462.788 443.405 440.426 443.73C417.45 444.063 398.72 425.482 398.72 402.513C398.72 393.524 401.589 385.208 406.458 378.434Z" fill="#A4E192"/>
<rect width="15.3817" height="91.3288" rx="7.69084" transform="matrix(-1 0 0 1 394.875 384.577)" fill="#4CAB30"/>
<path d="M350.462 368.984C351.87 367.04 352.207 364.547 351.439 362.276C350.176 358.54 349.49 354.539 349.49 350.379C349.49 340.582 353.287 331.667 359.496 325.013C361.144 323.247 361.766 320.779 361.274 318.418C360.833 316.307 360.648 314.103 360.756 311.837C361.404 298.215 372.692 287.287 386.389 287.006C401.122 286.703 413.16 298.501 413.16 313.097C413.16 314.967 412.961 316.791 412.585 318.549C412.09 320.861 412.776 323.283 414.392 325.015C420.6 331.669 424.396 340.582 424.396 350.379C424.396 354.539 423.711 358.54 422.447 362.276C421.677 364.553 422.024 367.049 423.435 368.999C428.751 376.345 431.884 385.36 431.887 395.104C431.894 419.449 412.063 439.499 387.609 439.851C362.483 440.212 342 420.046 342 395.117C341.999 385.362 345.137 376.336 350.462 368.984Z" fill="#59C939"/>
</svg>
