<svg width="512" height="512" viewBox="0 0 512 512" fill="none" xmlns="http://www.w3.org/2000/svg">
<path d="M339.648 84.3301H236.474H133.3V469.773H339.648V84.3301Z" fill="#B0BED9"/>
<path d="M308.684 286.275H281.981C279.874 286.275 278.166 287.983 278.166 290.09V332.053C278.166 334.16 279.874 335.868 281.981 335.868H308.684C310.791 335.868 312.499 334.16 312.499 332.053V290.09C312.499 287.983 310.791 286.275 308.684 286.275Z" fill="#E5EDFF"/>
<path d="M190.425 286.275H163.721C161.614 286.275 159.906 287.983 159.906 290.09V332.053C159.906 334.16 161.614 335.868 163.721 335.868H190.425C192.532 335.868 194.24 334.16 194.24 332.053V290.09C194.24 287.983 192.532 286.275 190.425 286.275Z" fill="#E5EDFF"/>
<path d="M308.684 371.045H281.981C279.874 371.045 278.166 372.753 278.166 374.86V416.823C278.166 418.93 279.874 420.638 281.981 420.638H308.684C310.791 420.638 312.499 418.93 312.499 416.823V374.86C312.499 372.753 310.791 371.045 308.684 371.045Z" fill="#E5EDFF"/>
<path d="M190.425 371.045H163.721C161.614 371.045 159.906 372.753 159.906 374.86V416.823C159.906 418.93 161.614 420.638 163.721 420.638H190.425C192.532 420.638 194.24 418.93 194.24 416.823V374.86C194.24 372.753 192.532 371.045 190.425 371.045Z" fill="#E5EDFF"/>
<path d="M308.684 201.888H281.981C279.874 201.888 278.166 203.596 278.166 205.703V247.665C278.166 249.772 279.874 251.48 281.981 251.48H308.684C310.791 251.48 312.499 249.772 312.499 247.665V205.703C312.499 203.596 310.791 201.888 308.684 201.888Z" fill="#E5EDFF"/>
<path d="M249.713 201.888H223.01C220.903 201.888 219.195 203.596 219.195 205.703V247.665C219.195 249.772 220.903 251.48 223.01 251.48H249.713C251.82 251.48 253.528 249.772 253.528 247.665V205.703C253.528 203.596 251.82 201.888 249.713 201.888Z" fill="#E5EDFF"/>
<path d="M190.425 201.888H163.721C161.614 201.888 159.906 203.596 159.906 205.703V247.665C159.906 249.772 161.614 251.48 163.721 251.48H190.425C192.532 251.48 194.24 249.772 194.24 247.665V205.703C194.24 203.596 192.532 201.888 190.425 201.888Z" fill="#E5EDFF"/>
<path d="M308.684 118.394H281.981C279.874 118.394 278.166 120.102 278.166 122.208V164.171C278.166 166.278 279.874 167.986 281.981 167.986H308.684C310.791 167.986 312.499 166.278 312.499 164.171V122.208C312.499 120.102 310.791 118.394 308.684 118.394Z" fill="#E5EDFF"/>
<path d="M249.713 118.394H223.01C220.903 118.394 219.195 120.102 219.195 122.208V164.171C219.195 166.278 220.903 167.986 223.01 167.986H249.713C251.82 167.986 253.528 166.278 253.528 164.171V122.208C253.528 120.102 251.82 118.394 249.713 118.394Z" fill="#E5EDFF"/>
<path d="M190.425 118.394H163.721C161.614 118.394 159.906 120.102 159.906 122.208V164.171C159.906 166.278 161.614 167.986 163.721 167.986H190.425C192.532 167.986 194.24 166.278 194.24 164.171V122.208C194.24 120.102 192.532 118.394 190.425 118.394Z" fill="#E5EDFF"/>
<rect x="120.593" y="56.2881" width="230.691" height="29.3251" fill="#35C6A3"/>
<rect width="11.1383" height="88.1782" rx="5.56915" transform="matrix(-1 0 0 1 419.562 381.439)" fill="#A4E192"/>
<path d="M382.016 375.012C383.258 373.283 383.556 371.065 382.878 369.045C381.763 365.721 381.158 362.163 381.158 358.462C381.158 349.746 384.51 341.816 389.992 335.896C391.447 334.325 391.996 332.129 391.561 330.03C391.172 328.151 391.009 326.19 391.104 324.175C391.676 312.057 401.642 302.335 413.735 302.085C426.743 301.816 437.371 312.311 437.371 325.296C437.371 326.96 437.196 328.582 436.863 330.146C436.426 332.203 437.032 334.358 438.458 335.898C443.939 341.817 447.291 349.747 447.291 358.462C447.291 362.163 446.686 365.722 445.571 369.045C444.891 371.071 445.197 373.292 446.443 375.026C451.136 381.561 453.902 389.581 453.905 398.249C453.911 419.906 436.402 437.743 414.812 438.056C392.628 438.378 374.544 420.438 374.544 398.261C374.544 389.582 377.314 381.553 382.016 375.012Z" fill="#A4E192"/>
<rect width="14.8511" height="88.1782" rx="7.42553" transform="matrix(-1 0 0 1 370.076 381.893)" fill="#8BD974"/>
<path d="M327.196 366.836C328.555 364.96 328.881 362.552 328.139 360.36C326.92 356.752 326.258 352.89 326.258 348.874C326.258 339.414 329.924 330.807 335.919 324.383C337.51 322.678 338.11 320.294 337.635 318.015C337.209 315.977 337.031 313.848 337.135 311.661C337.76 298.508 348.659 287.958 361.884 287.686C376.108 287.394 387.731 298.785 387.731 312.878C387.731 314.683 387.539 316.444 387.176 318.141C386.698 320.373 387.36 322.712 388.92 324.384C394.914 330.808 398.58 339.415 398.58 348.874C398.58 352.89 397.918 356.752 396.698 360.36C395.954 362.558 396.29 364.968 397.652 366.851C402.784 373.943 405.809 382.647 405.812 392.055C405.819 415.56 386.672 434.919 363.061 435.258C338.802 435.608 319.026 416.137 319.026 392.068C319.025 382.65 322.055 373.935 327.196 366.836Z" fill="#8BD974"/>
<path d="M406.762 387.456H401.094C400.058 387.456 399.217 388.296 399.217 389.333V437.802C399.217 438.838 400.058 439.678 401.094 439.678H406.762C407.798 439.678 408.639 438.838 408.639 437.802V389.333C408.639 388.296 407.799 387.456 406.762 387.456Z" fill="#3E8D28"/>
<path d="M483.419 437.802V389.333C483.419 388.296 482.579 387.456 481.543 387.456H475.875C474.839 387.456 473.998 388.296 473.998 389.333V437.802C473.998 438.838 474.839 439.678 475.875 439.678H481.543C482.579 439.678 483.419 438.838 483.419 437.802Z" fill="#3E8D28"/>
<path d="M398.945 443.699H391.994C390.958 443.699 390.118 444.539 390.118 445.576V468.345C390.118 469.382 390.958 470.222 391.994 470.222H398.945C399.981 470.222 400.821 469.382 400.821 468.345V445.576C400.821 444.539 399.981 443.699 398.945 443.699Z" fill="#3E8D28"/>
<path d="M490.643 443.699H483.693C482.656 443.699 481.816 444.539 481.816 445.576V468.345C481.816 469.382 482.656 470.222 483.693 470.222H490.643C491.679 470.222 492.519 469.382 492.519 468.345V445.576C492.519 444.539 491.679 443.699 490.643 443.699Z" fill="#3E8D28"/>
<path d="M394.133 410.3H488.504C489.54 410.3 490.381 409.459 490.381 408.423V395.794C490.381 394.757 489.54 393.917 488.504 393.917H394.133C393.097 393.917 392.256 394.757 392.256 395.794V408.423C392.256 409.46 393.096 410.3 394.133 410.3Z" fill="#4CAB30"/>
<path d="M394.133 431.796H488.504C489.54 431.796 490.381 430.956 490.381 429.919V417.29C490.381 416.253 489.54 415.413 488.504 415.413H394.133C393.097 415.413 392.256 416.253 392.256 417.29V429.919C392.256 430.956 393.096 431.796 394.133 431.796Z" fill="#4CAB30"/>
<path d="M494.123 435.922H388.514C387.478 435.922 386.638 436.762 386.638 437.798V445.573C386.638 446.609 387.478 447.45 388.514 447.45H494.123C495.16 447.45 496 446.609 496 445.573V437.798C496 436.762 495.159 435.922 494.123 435.922Z" fill="#4CAB30"/>
<path d="M233.694 297.614H32.746V469.61H233.694V297.614Z" fill="#ECF2FF"/>
<path d="M32.7461 348.813C23.4978 348.813 16 341.316 16 332.067V318.425H49.4916V332.067C49.4921 341.316 41.9943 348.813 32.7461 348.813Z" fill="#D30330"/>
<path d="M66.2376 348.813C56.9893 348.813 49.4915 341.316 49.4915 332.067V318.425H82.9832V332.067C82.9836 341.316 75.4858 348.813 66.2376 348.813Z" fill="#CFDFFF"/>
<path d="M99.7293 348.813C90.481 348.813 82.9833 341.316 82.9833 332.067V318.425H116.475V332.067C116.475 341.316 108.978 348.813 99.7293 348.813Z" fill="#D30330"/>
<path d="M133.221 348.813C123.973 348.813 116.475 341.316 116.475 332.067V318.425H149.966V332.067C149.966 341.316 142.469 348.813 133.221 348.813Z" fill="#CFDFFF"/>
<path d="M166.712 348.813C157.464 348.813 149.966 341.316 149.966 332.067V318.425H183.458V332.067C183.459 341.316 175.961 348.813 166.712 348.813Z" fill="#D30330"/>
<path d="M200.204 348.813C190.956 348.813 183.458 341.316 183.458 332.067V318.425H216.95V332.067C216.95 341.316 209.453 348.813 200.204 348.813Z" fill="#CFDFFF"/>
<path d="M233.696 348.813C224.448 348.813 216.95 341.316 216.95 332.067V318.425H250.441V332.067C250.442 341.316 242.944 348.813 233.696 348.813Z" fill="#D30330"/>
<path d="M49.4916 318.424H16L32.0279 286.549H60.9403L49.4916 318.424Z" fill="#F80338"/>
<path d="M82.9831 318.424H49.4915L60.9402 286.549H89.8522L82.9831 318.424Z" fill="white"/>
<path d="M116.475 318.424H82.9833L89.8523 286.549H118.765L116.475 318.424Z" fill="#F80338"/>
<path d="M149.966 318.424H116.475L118.765 286.549H147.677L149.966 318.424Z" fill="white"/>
<path d="M183.458 318.424H149.966L147.677 286.549H176.59L183.458 318.424Z" fill="#F80338"/>
<path d="M216.95 318.424H183.458L176.589 286.549H205.501L216.95 318.424Z" fill="white"/>
<path d="M250.441 318.424H216.95L205.501 286.549H234.414L250.441 318.424Z" fill="#F80338"/>
<path d="M213.709 442.731H122.456C120.465 442.731 118.851 441.117 118.851 439.126V371.977C118.851 369.985 120.465 368.371 122.456 368.371H213.709C215.701 368.371 217.315 369.985 217.315 371.977V439.127C217.315 441.117 215.701 442.731 213.709 442.731Z" fill="#CFDFFF"/>
<path d="M101.928 469.399H46.0295V371.979C46.0295 369.986 47.6501 368.371 49.6492 368.371H98.3082C100.307 368.371 101.928 369.986 101.928 371.979V469.399Z" fill="#B0BED9"/>
<path d="M86.2866 425.297C88.6941 425.297 90.6457 423.424 90.6457 421.114V413.583C90.6457 411.272 88.6941 409.399 86.2866 409.399C83.8791 409.399 81.9276 411.272 81.9276 413.583V421.114C81.927 423.424 83.8791 425.297 86.2866 425.297Z" fill="#919CB3"/>
</svg>
