<svg width="512" height="512" viewBox="0 0 512 512" fill="none" xmlns="http://www.w3.org/2000/svg">
<path d="M445.378 166.495H339.463H233.547V473.069H445.378V166.495Z" fill="#CFDFFF"/>
<path d="M312.072 473.078V379.014C312.072 376.935 312.898 374.942 314.368 373.472C315.838 372.002 317.832 371.176 319.911 371.176H359.104C361.183 371.176 363.177 372.002 364.647 373.472C366.117 374.942 366.942 376.935 366.942 379.014V473.078H312.072Z" fill="#E5EDFF"/>
<path d="M413.974 284.478H386.539C384.375 284.478 382.62 286.232 382.62 288.397V331.509C382.62 333.674 384.375 335.428 386.539 335.428H413.974C416.139 335.428 417.894 333.674 417.894 331.509V288.397C417.894 286.232 416.139 284.478 413.974 284.478Z" fill="#E5EDFF"/>
<path d="M353.388 284.478H325.953C323.788 284.478 322.034 286.232 322.034 288.397V331.509C322.034 333.674 323.788 335.428 325.953 335.428H353.388C355.553 335.428 357.307 333.674 357.307 331.509V288.397C357.307 286.232 355.553 284.478 353.388 284.478Z" fill="#E5EDFF"/>
<path d="M292.476 284.478H265.041C262.876 284.478 261.121 286.232 261.121 288.397V331.509C261.121 333.674 262.876 335.428 265.041 335.428H292.476C294.64 335.428 296.395 333.674 296.395 331.509V288.397C296.395 286.232 294.64 284.478 292.476 284.478Z" fill="#E5EDFF"/>
<path d="M413.974 197.778H386.539C384.375 197.778 382.62 199.533 382.62 201.698V244.81C382.62 246.974 384.375 248.729 386.539 248.729H413.974C416.139 248.729 417.894 246.974 417.894 244.81V201.698C417.894 199.533 416.139 197.778 413.974 197.778Z" fill="#E5EDFF"/>
<path d="M353.388 197.778H325.953C323.788 197.778 322.034 199.533 322.034 201.698V244.81C322.034 246.974 323.788 248.729 325.953 248.729H353.388C355.553 248.729 357.307 246.974 357.307 244.81V201.698C357.307 199.533 355.553 197.778 353.388 197.778Z" fill="#E5EDFF"/>
<path d="M292.476 197.778H265.041C262.876 197.778 261.121 199.533 261.121 201.698V244.81C261.121 246.974 262.876 248.729 265.041 248.729H292.476C294.64 248.729 296.395 246.974 296.395 244.81V201.698C296.395 199.533 294.64 197.778 292.476 197.778Z" fill="#E5EDFF"/>
<rect x="221.034" y="137" width="237.092" height="29.6365" fill="#35C6A3"/>
<path d="M265.628 340.555V473.433H77.3181V340.555L171.473 260.78L265.628 340.555Z" fill="#ECF2FF"/>
<path fill-rule="evenodd" clip-rule="evenodd" d="M171.708 248.725L289.952 349.317L278.048 363.31L171.698 272.836L64.8926 363.545L53 349.542L171.708 248.725Z" fill="#EB13BE"/>
<path d="M144.038 473.647V379.584C144.038 377.505 144.864 375.511 146.334 374.041C147.804 372.571 149.798 371.745 151.877 371.745H191.07C193.149 371.745 195.142 372.571 196.612 374.041C198.082 375.511 198.908 377.505 198.908 379.584V473.647H144.038Z" fill="#B0BED9"/>
<path d="M245.94 371.745H218.505C216.34 371.745 214.585 373.5 214.585 375.664V418.777C214.585 420.941 216.34 422.696 218.505 422.696H245.94C248.104 422.696 249.859 420.941 249.859 418.777V375.664C249.859 373.5 248.104 371.745 245.94 371.745Z" fill="#CFDFFF"/>
<path d="M124.441 371.745H97.0062C94.8416 371.745 93.0869 373.5 93.0869 375.664V418.777C93.0869 420.941 94.8416 422.696 97.0062 422.696H124.441C126.606 422.696 128.361 420.941 128.361 418.777V375.664C128.361 373.5 126.606 371.745 124.441 371.745Z" fill="#CFDFFF"/>
</svg>
