<svg width="512" height="512" viewBox="0 0 512 512" fill="none" xmlns="http://www.w3.org/2000/svg">
<path d="M411.732 165.312H329.366H247V473.018H411.732V165.312Z" fill="#CFDFFF"/>
<path d="M307.831 473.078V399.987C307.831 398.372 308.472 396.823 309.615 395.68C310.757 394.538 312.306 393.896 313.922 393.896H344.376C345.991 393.896 347.541 394.538 348.683 395.68C349.825 396.823 350.467 398.372 350.467 399.987V473.078H307.831Z" fill="#E5EDFF"/>
<path d="M387.012 326.528H365.694C364.012 326.528 362.649 327.892 362.649 329.574V363.074C362.649 364.756 364.012 366.119 365.694 366.119H387.012C388.694 366.119 390.058 364.756 390.058 363.074V329.574C390.058 327.892 388.694 326.528 387.012 326.528Z" fill="#E5EDFF"/>
<path d="M339.935 326.528H318.616C316.935 326.528 315.571 327.892 315.571 329.574V363.074C315.571 364.756 316.935 366.119 318.616 366.119H339.935C341.616 366.119 342.98 364.756 342.98 363.074V329.574C342.98 327.892 341.616 326.528 339.935 326.528Z" fill="#E5EDFF"/>
<path d="M292.603 326.528H271.285C269.603 326.528 268.24 327.892 268.24 329.574V363.074C268.24 364.756 269.603 366.119 271.285 366.119H292.603C294.285 366.119 295.649 364.756 295.649 363.074V329.574C295.649 327.892 294.285 326.528 292.603 326.528Z" fill="#E5EDFF"/>
<path d="M387.012 259.16H365.694C364.012 259.16 362.649 260.524 362.649 262.206V295.705C362.649 297.387 364.012 298.751 365.694 298.751H387.012C388.694 298.751 390.058 297.387 390.058 295.705V262.206C390.058 260.524 388.694 259.16 387.012 259.16Z" fill="#E5EDFF"/>
<path d="M339.935 259.16H318.616C316.935 259.16 315.571 260.524 315.571 262.206V295.705C315.571 297.387 316.935 298.751 318.616 298.751H339.935C341.616 298.751 342.98 297.387 342.98 295.705V262.206C342.98 260.524 341.616 259.16 339.935 259.16Z" fill="#E5EDFF"/>
<path d="M292.603 259.16H271.285C269.603 259.16 268.24 260.524 268.24 262.206V295.705C268.24 297.387 269.603 298.751 271.285 298.751H292.603C294.285 298.751 295.649 297.387 295.649 295.705V262.206C295.649 260.524 294.285 259.16 292.603 259.16Z" fill="#E5EDFF"/>
<path d="M387.012 192.507H365.694C364.012 192.507 362.649 193.87 362.649 195.552V229.052C362.649 230.734 364.012 232.098 365.694 232.098H387.012C388.694 232.098 390.058 230.734 390.058 229.052V195.552C390.058 193.87 388.694 192.507 387.012 192.507Z" fill="#E5EDFF"/>
<path d="M339.935 192.507H318.616C316.935 192.507 315.571 193.87 315.571 195.552V229.052C315.571 230.734 316.935 232.098 318.616 232.098H339.935C341.616 232.098 342.98 230.734 342.98 229.052V195.552C342.98 193.87 341.616 192.507 339.935 192.507Z" fill="#E5EDFF"/>
<path d="M292.603 192.507H271.285C269.603 192.507 268.24 193.87 268.24 195.552V229.052C268.24 230.734 269.603 232.098 271.285 232.098H292.603C294.285 232.098 295.649 230.734 295.649 229.052V195.552C295.649 193.87 294.285 192.507 292.603 192.507Z" fill="#E5EDFF"/>
<rect x="247.091" y="143" width="174" height="23" fill="#35C6A3"/>
<path d="M247 90H164.5H82V473H247V90Z" fill="#B0BED9"/>
<path d="M221.955 328H106.194C104.513 328 103.149 329.363 103.149 331.045V364.545C103.149 366.227 104.513 367.591 106.194 367.591H221.955C223.637 367.591 225 366.227 225 364.545V331.045C225 329.363 223.637 328 221.955 328Z" fill="#CFDFFF"/>
<path d="M221.955 395H106.194C104.513 395 103.149 396.363 103.149 398.045V431.545C103.149 433.227 104.513 434.591 106.194 434.591H221.955C223.637 434.591 225 433.227 225 431.545V398.045C225 396.363 223.637 395 221.955 395Z" fill="#CFDFFF"/>
<path d="M221.955 261H106.194C104.513 261 103.149 262.363 103.149 264.045V297.545C103.149 299.227 104.513 300.591 106.194 300.591H221.955C223.637 300.591 225 299.227 225 297.545V264.045C225 262.363 223.637 261 221.955 261Z" fill="#CFDFFF"/>
<path d="M221.955 194H106.194C104.513 194 103.149 195.363 103.149 197.045V230.545C103.149 232.227 104.513 233.591 106.194 233.591H221.955C223.637 233.591 225 232.227 225 230.545V197.045C225 195.363 223.637 194 221.955 194Z" fill="#CFDFFF"/>
<path d="M221.955 127H106.194C104.513 127 103.149 128.363 103.149 130.045V163.545C103.149 165.227 104.513 166.591 106.194 166.591H221.955C223.637 166.591 225 165.227 225 163.545V130.045C225 128.363 223.637 127 221.955 127Z" fill="#CFDFFF"/>
<rect x="72" y="68" width="184.229" height="23.0286" fill="#137FEB"/>
</svg>
