<svg width="512" height="512" viewBox="0 0 512 512" fill="none" xmlns="http://www.w3.org/2000/svg">
<path d="M453.244 290.748V453.51H58.7557V290.748L216.399 184.54L243.634 145.546C246.418 141.451 251.048 139 256 139C260.951 139 265.582 141.451 268.366 145.546L295.601 184.54L453.244 290.748Z" fill="#ECF2FF"/>
<path d="M256 332.129V453.51H195.309V362.474C195.309 345.715 208.895 332.129 225.655 332.129H256Z" fill="#F3A6F5"/>
<path d="M316.691 362.474V453.51H256V332.129H286.345C303.104 332.129 316.691 345.715 316.691 362.474Z" fill="#F3A6F5"/>
<path d="M256 296.914C280.546 296.914 300.444 277.016 300.444 252.47C300.444 227.924 280.546 208.025 256 208.025C231.454 208.025 211.556 227.924 211.556 252.47C211.556 277.016 231.454 296.914 256 296.914Z" fill="white"/>
<path d="M244.889 269.138C242.642 269.137 240.617 267.784 239.757 265.708C238.898 263.633 239.373 261.243 240.961 259.655L250.444 250.171V235.805C250.444 232.736 252.932 230.249 256 230.249C259.068 230.249 261.556 232.736 261.556 235.805V252.471C261.555 253.945 260.97 255.357 259.928 256.399L248.817 267.51C247.775 268.552 246.362 269.138 244.889 269.138Z" fill="#C01CC3"/>
<path d="M256 302.471C228.386 302.471 206 280.085 206 252.471C206 224.856 228.386 202.471 256 202.471C283.614 202.471 306 224.856 306 252.471C305.969 280.072 283.602 302.44 256 302.471ZM256 213.582C234.522 213.582 217.111 230.993 217.111 252.471C217.111 273.948 234.522 291.36 256 291.36C277.478 291.36 294.889 273.948 294.889 252.471C294.864 231.003 277.468 213.606 256 213.582Z" fill="#C01CC3"/>
<path d="M127.033 347.301C139.602 347.301 149.792 357.49 149.792 370.06V400.405C149.792 404.595 146.395 407.991 142.205 407.991H111.86C107.67 407.991 104.274 404.595 104.274 400.405V370.06C104.274 357.49 114.463 347.301 127.033 347.301Z" fill="#F3A6F5"/>
<path d="M384.967 347.301C397.537 347.301 407.726 357.49 407.726 370.06V400.405C407.726 404.595 404.33 407.991 400.14 407.991H369.795C365.605 407.991 362.208 404.595 362.208 400.405V370.06C362.208 357.49 372.398 347.301 384.967 347.301Z" fill="#F3A6F5"/>
<path d="M216.399 184.539L142.205 290.748H43.5831C41.1114 290.746 38.7952 289.541 37.3758 287.518C35.9563 285.494 35.6116 282.906 36.452 280.582L63.5352 204.643C67.8631 192.572 79.3119 184.524 92.1356 184.539L216.399 184.539Z" fill="#E221E5"/>
<path d="M468.417 290.748H369.795L295.601 184.539L419.864 184.539C432.688 184.524 444.137 192.572 448.465 204.643L475.548 280.582C476.388 282.906 476.044 285.494 474.624 287.518C473.205 289.541 470.889 290.746 468.417 290.748Z" fill="#E221E5"/>
<path d="M286.349 324.544C307.287 324.569 324.255 341.537 324.28 362.476V453.512C324.28 453.65 324.276 453.787 324.269 453.924H309.119C309.112 453.787 309.107 453.65 309.107 453.512V362.476C309.107 349.906 298.918 339.717 286.349 339.717H225.658C213.089 339.717 202.899 349.906 202.899 362.476V453.512C202.899 453.65 202.895 453.787 202.888 453.924H187.738C187.731 453.787 187.727 453.65 187.727 453.512V362.476C187.752 341.537 204.72 324.569 225.658 324.544H286.349Z" fill="#EF85F1"/>
</svg>
