<svg width="512" height="512" viewBox="0 0 512 512" fill="none" xmlns="http://www.w3.org/2000/svg">
<path d="M453.244 210.748V453.51H58.7558V210.748H453.244Z" fill="#ECF2FF"/>
<path fill-rule="evenodd" clip-rule="evenodd" d="M340.693 104.541H419.864C432.688 104.526 444.137 112.573 448.465 124.645L475.548 200.584C476.388 202.908 476.043 205.496 474.624 207.52C473.204 209.543 470.888 210.748 468.417 210.749H258.694L258.692 210.747L43.5828 210.749C41.1112 210.748 38.7952 209.542 37.3758 207.519C35.9564 205.495 35.6116 202.907 36.4519 200.583L63.5349 124.644C67.863 112.573 79.312 104.525 92.1355 104.54L340.694 104.539L340.693 104.541Z" fill="#14EA81"/>
<path d="M286.346 262.129C303.105 262.129 316.69 275.716 316.69 292.475V453.51H195.31V292.475C195.31 275.715 208.896 262.129 225.655 262.129H286.346Z" fill="#A1F7CD"/>
<path d="M286.349 254.545C307.287 254.57 324.255 271.538 324.28 292.477V453.513C324.28 453.651 324.276 453.788 324.269 453.925H309.119C309.112 453.788 309.107 453.651 309.107 453.513V292.477C309.107 279.907 298.918 269.718 286.349 269.718H225.658C213.089 269.718 202.899 279.907 202.899 292.477V453.513C202.899 453.651 202.895 453.788 202.888 453.925H187.738C187.731 453.788 187.727 453.651 187.727 453.513V292.477C187.752 271.538 204.72 254.57 225.658 254.545H286.349Z" fill="#5AF0A7"/>
<path d="M127.033 347.302C139.602 347.302 149.792 357.491 149.792 370.061V400.406C149.792 404.596 146.395 407.992 142.205 407.992H111.86C107.67 407.992 104.274 404.596 104.274 400.406V370.061C104.274 357.491 114.463 347.302 127.033 347.302Z" fill="#7EF3BA"/>
<path d="M127.033 256.267C139.602 256.267 149.792 266.456 149.792 279.026V309.371C149.792 313.561 146.395 316.957 142.205 316.957H111.86C107.67 316.957 104.274 313.561 104.274 309.371V279.026C104.274 266.456 114.463 256.267 127.033 256.267Z" fill="#7EF3BA"/>
<path d="M384.967 347.302C397.537 347.302 407.726 357.491 407.726 370.061V400.406C407.726 404.596 404.33 407.992 400.14 407.992H369.795C365.605 407.992 362.208 404.596 362.208 400.406V370.061C362.208 357.491 372.398 347.302 384.967 347.302Z" fill="#7EF3BA"/>
<path d="M384.967 256.267C397.537 256.267 407.726 266.456 407.726 279.026V309.371C407.726 313.561 404.33 316.957 400.14 316.957H369.795C365.605 316.957 362.208 313.561 362.208 309.371V279.026C362.208 266.456 372.398 256.267 384.967 256.267Z" fill="#7EF3BA"/>
</svg>
