<svg width="512" height="512" viewBox="0 0 512 512" fill="none" xmlns="http://www.w3.org/2000/svg">
<path d="M267.789 144.688H351.759V414.577H267.789V144.688Z" fill="#CFDFFF"/>
<rect x="261" y="126" width="99" height="19" fill="#35C6A3"/>
<rect x="269" y="114" width="83" height="12" fill="#35C6A3"/>
<path d="M295.611 226.239C291.407 226.239 288 222.831 288 218.628V179.381C288 169.54 303.223 169.54 303.223 179.381V218.628C303.223 222.831 299.815 226.239 295.611 226.239Z" fill="#F3F7FF"/>
<path d="M295.611 308.239C291.407 308.239 288 304.831 288 300.628V261.381C288 251.54 303.223 251.54 303.223 261.381V300.628C303.223 304.831 299.815 308.239 295.611 308.239Z" fill="#F3F7FF"/>
<path d="M325.611 226.239C321.407 226.239 318 222.831 318 218.628V179.381C318 169.54 333.223 169.54 333.223 179.381V218.628C333.223 222.831 329.815 226.239 325.611 226.239Z" fill="#F3F7FF"/>
<path d="M325.611 308.239C321.407 308.239 318 304.831 318 300.628V261.381C318 251.54 333.223 251.54 333.223 261.381V300.628C333.223 304.831 329.815 308.239 325.611 308.239Z" fill="#F3F7FF"/>
<path d="M117.49 218.144L192.701 160.594L267.911 218.144V414.577H117.49V218.144Z" fill="#ECF2FF"/>
<path d="M267.911 218.144H117.49L192.701 160.594L267.911 218.144Z" fill="#B8EC13"/>
<path d="M192.701 300.997C188.496 300.997 185.089 297.589 185.089 293.386V254.139C185.089 244.298 200.312 244.298 200.312 254.139V293.386C200.312 297.589 196.905 300.997 192.701 300.997Z" fill="#CFDFFF"/>
<path d="M230.209 300.997C226.005 300.997 222.598 297.589 222.598 293.386V254.139C222.598 244.298 237.821 244.298 237.821 254.139V293.386C237.821 297.589 234.413 300.997 230.209 300.997Z" fill="#CFDFFF"/>
<path d="M192.701 376.056C188.496 376.056 185.089 372.648 185.089 368.444V329.197C185.089 319.356 200.312 319.356 200.312 329.197V368.444C200.312 372.648 196.905 376.056 192.701 376.056Z" fill="#CFDFFF"/>
<path d="M230.209 376.056C226.005 376.056 222.598 372.648 222.598 368.444V329.197C222.598 319.356 237.821 319.356 237.821 329.197V368.444C237.821 372.648 234.413 376.056 230.209 376.056Z" fill="#CFDFFF"/>
<path d="M155.191 300.997C150.987 300.997 147.58 297.589 147.58 293.386V254.139C147.58 244.298 162.803 244.298 162.803 254.139V293.386C162.803 297.589 159.396 300.997 155.191 300.997Z" fill="#CFDFFF"/>
<path d="M155.191 376.056C150.987 376.056 147.58 372.648 147.58 368.444V329.197C147.58 319.356 162.803 319.356 162.803 329.197V368.444C162.803 372.648 159.396 376.056 155.191 376.056Z" fill="#CFDFFF"/>
<path d="M117.675 414.577H17.1929V311.332L67.4338 259.838L117.675 311.332V414.577Z" fill="#CFDFFF"/>
<path d="M85.8556 376.873C81.651 376.873 78.2441 373.465 78.2441 369.262V347.916C78.2441 338.075 93.4671 338.075 93.4671 347.916V369.262C93.4671 373.465 90.0592 376.873 85.8556 376.873Z" fill="#F3F7FF"/>
<path d="M67.4338 311.332H17.1929L67.4338 259.838L117.675 311.332H67.4338Z" fill="#F80338"/>
<path d="M49.0119 376.873C44.8073 376.873 41.4004 373.465 41.4004 369.262V347.916C41.4004 338.075 56.6234 338.075 56.6234 347.916V369.262C56.6234 373.465 53.2165 376.873 49.0119 376.873Z" fill="#F3F7FF"/>
<rect width="11.5363" height="91.3288" rx="5.76813" transform="matrix(-1 0 0 1 439.346 324.09)" fill="#59C939"/>
<path d="M400.458 317.433C401.746 315.642 402.054 313.344 401.352 311.252C400.197 307.809 399.57 304.124 399.57 300.291C399.57 291.263 403.042 283.05 408.719 276.919C410.226 275.292 410.795 273.017 410.345 270.843C409.942 268.897 409.773 266.866 409.871 264.779C410.464 252.227 420.786 242.159 433.311 241.9C446.783 241.621 457.792 252.491 457.792 265.94C457.792 267.663 457.61 269.344 457.266 270.963C456.813 273.094 457.44 275.325 458.918 276.921C464.594 283.052 468.066 291.265 468.066 300.291C468.066 304.124 467.44 307.81 466.284 311.252C465.58 313.35 465.898 315.651 467.188 317.447C472.049 324.215 474.913 332.521 474.916 341.499C474.923 363.93 456.788 382.404 434.426 382.729C411.45 383.062 392.72 364.481 392.72 341.512C392.72 332.523 395.589 324.207 400.458 317.433Z" fill="#A4E192"/>
<rect width="15.3817" height="91.3288" rx="7.69084" transform="matrix(-1 0 0 1 388.875 323.578)" fill="#4CAB30"/>
<path d="M344.462 307.984C345.87 306.04 346.207 303.547 345.439 301.276C344.176 297.54 343.49 293.539 343.49 289.379C343.49 279.582 347.287 270.667 353.496 264.013C355.144 262.247 355.767 259.779 355.274 257.418C354.833 255.307 354.648 253.103 354.756 250.837C355.404 237.215 366.692 226.287 380.389 226.006C395.122 225.703 407.16 237.501 407.16 252.097C407.16 253.967 406.962 255.791 406.585 257.549C406.09 259.861 406.776 262.283 408.392 264.015C414.6 270.669 418.396 279.582 418.396 289.379C418.396 293.539 417.711 297.54 416.447 301.276C415.677 303.553 416.025 306.049 417.435 307.999C422.751 315.345 425.884 324.36 425.887 334.104C425.894 358.449 406.063 378.499 381.609 378.851C356.483 379.212 336 359.046 336 334.117C335.999 324.362 339.137 315.336 344.462 307.984Z" fill="#59C939"/>
</svg>
