<svg width="512" height="512" viewBox="0 0 512 512" fill="none" xmlns="http://www.w3.org/2000/svg">
<path d="M382.512 334.306C366.037 334.306 352.682 320.95 352.682 304.475V297.018H367.597V304.475C367.597 312.713 374.274 319.391 382.512 319.391C390.75 319.391 397.427 312.713 397.427 304.475C397.427 296.238 390.75 289.56 382.512 289.56C378.394 289.56 375.055 286.221 375.055 282.103V244.814H389.97V275.585C405.925 279.687 415.535 295.948 411.433 311.903C408.04 325.1 396.137 334.319 382.512 334.306Z" fill="#919CB3"/>
<path d="M472.004 118.034H39.4614C35.3429 118.036 32.0019 114.698 32 110.58C31.9991 107.882 33.4542 105.394 35.8071 104.073L155.129 36.9546C156.245 36.3281 157.503 35.9991 158.783 36H188.614C189.192 36 189.767 36.0671 190.329 36.2014L473.719 103.32C477.727 104.271 480.204 108.29 479.254 112.297C478.456 115.658 475.458 118.031 472.004 118.034ZM67.9271 103.119H408.159L187.741 50.9153H160.737L67.9271 103.119Z" fill="#919CB3"/>
<path d="M360.139 110.576H404.885V222.441H360.139V110.576Z" fill="#B0BED9"/>
<path d="M360.139 222.441H404.885V252.272H360.139V222.441Z" fill="#B0BED9"/>
<path d="M449.631 401.425H315.394C311.275 401.424 307.937 398.085 307.938 393.965C307.938 391.988 308.724 390.093 310.121 388.695L377.24 321.576C380.152 318.665 384.873 318.665 387.785 321.576L454.903 388.695C457.816 391.608 457.815 396.329 454.901 399.242C453.503 400.639 451.608 401.425 449.631 401.425ZM333.396 386.51H431.628L382.512 337.394L333.396 386.51Z" fill="#59C939"/>
<path d="M285.563 386.508H479.461V468.542H285.563V386.508Z" fill="#A4E192"/>
<path d="M472.004 103.119H196.072V43.4576C196.072 39.3392 192.732 36 188.614 36H158.783C154.665 36 151.326 39.3392 151.326 43.4576V103.119H39.4614C35.3429 103.119 32.0038 106.458 32.0038 110.576V140.407C32.0038 144.525 35.3429 147.864 39.4614 147.864H143.868V286.472L116.223 314.117C114.824 315.516 114.038 317.412 114.038 319.39V446.169C114.038 450.288 117.377 453.627 121.495 453.627H225.902C230.021 453.627 233.36 450.288 233.36 446.169V319.39C233.36 317.412 232.573 315.516 231.175 314.117L203.529 286.472V147.864H472.004C476.122 147.864 479.461 144.525 479.461 140.407V110.576C479.461 106.458 476.122 103.119 472.004 103.119ZM158.783 289.559V285.189L185.527 311.932L158.783 338.675V289.559ZM161.871 356.678L188.614 329.935V383.421L161.871 356.678ZM185.527 401.424L158.783 428.167V374.681L185.527 401.424ZM188.614 419.426V438.712H169.329L188.614 419.426ZM188.614 289.559V293.929L161.871 267.186L188.614 240.443V289.559ZM158.783 249.184V195.698L185.527 222.441L158.783 249.184ZM161.871 177.695L188.614 150.952V204.438L161.871 177.695ZM188.614 129.862L185.527 132.949H158.783V118.034H188.614V129.862ZM166.241 50.9153H181.156V103.119H166.241V50.9153ZM46.919 132.949V118.034H143.868V132.949H46.919ZM170.611 147.864L158.783 159.692V147.864H170.611ZM128.953 322.477L143.868 307.562V438.712H128.953V322.477ZM218.444 322.477V438.712H203.529V307.562L218.444 322.477ZM464.546 132.949H203.529V118.034H464.546V132.949Z" fill="#F80338"/>
<path d="M107 453H241V476H107V453Z" fill="#919CB3"/>
</svg>
