<svg width="512" height="512" viewBox="0 0 512 512" fill="none" xmlns="http://www.w3.org/2000/svg">
<path d="M440 472H60.8C36.08 472 16 458.48 16 432C16 405.52 37.52 392 64 392H72V88H440V472Z" fill="white"/>
<path d="M16 88C16 53.52 37.52 32 64 32H72V392H64C37.52 392 16 405.52 16 432V88Z" fill="#919CB3"/>
<path d="M424 472V104H88V408H56C49.36 408 43.36 410.72 39.04 415.04C34.72 419.36 32 425.36 32 432C32 445.28 42.72 456 56 456H440V472H60.8C36.08 472 16 458.48 16 432C16 405.52 37.52 392 64 392H72V88H440V472H424Z" fill="#ECF2FF"/>
<path d="M272 265.6V310.4C272 311.28 271.28 312 270.4 312H233.6C232.72 312 232 311.28 232 310.4V233.6C232 232.72 232.72 232 233.6 232H310.4C311.28 232 312 232.72 312 233.6V262.4C312 263.28 311.28 264 310.4 264H273.6C272.72 264 272 264.72 272 265.6Z" fill="#F80338"/>
<path d="M358.4 120H281.6C280.716 120 280 120.716 280 121.6V182.4C280 183.284 280.716 184 281.6 184H358.4C359.284 184 360 183.284 360 182.4V121.6C360 120.716 359.284 120 358.4 120Z" fill="#137FEB"/>
<path d="M200 201.6V230.4C200 231.28 199.28 232 198.4 232H113.6C112.72 232 112 231.28 112 230.4V121.6C112 120.72 112.72 120 113.6 120H238.4C239.28 120 240 120.72 240 121.6V198.4C240 199.28 239.28 200 238.4 200H201.6C200.72 200 200 200.72 200 201.6Z" fill="#59C939"/>
<path d="M128.08 393.92C126.88 405.84 136.32 416 148 416H208V432H149.6C130.8 432 114 418.32 112.16 399.6C110.08 378.16 126.96 360 148 360H271.12L262.32 376H149.2C138.72 376 129.2 383.52 128.08 393.92Z" fill="#919CB3"/>
<path d="M224 416H240V432H224V416Z" fill="#919CB3"/>
<path d="M198.4 272H113.6C112.716 272 112 272.716 112 273.6V310.4C112 311.284 112.716 312 113.6 312H198.4C199.284 312 200 311.284 200 310.4V273.6C200 272.716 199.284 272 198.4 272Z" fill="#5AA5F1"/>
<path d="M360 406.4V369.6C360 368.72 360.72 368 361.6 368H398.4C399.28 368 400 368.72 400 369.6V438.4C400 439.28 399.28 440 398.4 440H321.6C320.72 440 320 439.28 320 438.4V409.6C320 408.72 320.72 408 321.6 408H358.4C359.28 408 360 407.28 360 406.4Z" fill="#A4E192"/>
<path d="M326.48 345.92L276.88 373.36C275.44 374.16 273.92 372.56 274.72 371.2L302.16 321.6L466.64 157.12C473.36 150.4 484.24 150.4 491.04 157.12C497.76 163.84 497.76 174.72 491.04 181.52L326.56 346L326.48 345.92Z" fill="#ECF2FF"/>
<path d="M460.48 211.841L436.08 187.441L302 321.521L274.64 371.121C273.84 372.561 275.44 374.081 276.8 373.281L326.4 345.921L460.48 211.841Z" fill="#919CB3"/>
</svg>
