<svg width="512" height="512" viewBox="0 0 512 512" fill="none" xmlns="http://www.w3.org/2000/svg">
<path fill-rule="evenodd" clip-rule="evenodd" d="M269.18 83.7927C260.36 83.7927 251.512 83.7927 242.692 83.7927C240.845 83.7927 239.346 82.3204 239.346 80.5064V62.2952C239.346 53.3088 246.789 46 255.936 46C265.084 46 272.53 53.3088 272.53 62.2952V80.5064C272.526 82.3237 271.029 83.7927 269.18 83.7927Z" fill="#B0BED9"/>
<path fill-rule="evenodd" clip-rule="evenodd" d="M475.403 373.862C376.537 373.862 39.5288 373.862 36.4787 373.862C33.4257 373.862 30.948 371.382 30.948 368.332V104.247C30.948 91.0368 41.6968 80.2852 54.9096 80.2852H456.969C470.179 80.2852 480.93 91.034 480.93 104.247V368.332C480.93 371.385 478.453 373.862 475.4 373.862H475.403Z" fill="white"/>
<path fill-rule="evenodd" clip-rule="evenodd" d="M269.721 465.997H243.447C241.492 465.997 239.906 464.409 239.906 462.456V380.474C239.906 378.52 241.492 376.934 243.447 376.934H269.721C271.673 376.934 273.261 378.522 273.261 380.474V462.456C273.263 464.409 271.675 465.997 269.721 465.997Z" fill="#919CB3"/>
<path fill-rule="evenodd" clip-rule="evenodd" d="M343.398 465.997H317.124C315.863 465.997 314.699 465.326 314.063 464.234L266.413 382.255C264.068 378.217 270.189 374.67 272.533 378.695L273.88 381.013L292.241 380.007C292.689 376.674 297.122 375.797 298.809 378.695L346.461 460.678C347.827 463.028 346.128 465.997 343.398 465.997Z" fill="#919CB3"/>
<path fill-rule="evenodd" clip-rule="evenodd" d="M196.071 465.998H169.796C167.075 465.998 165.366 463.033 166.735 460.678L214.385 378.696C215.866 376.147 219.625 376.446 220.722 379.131H240.407C243.256 374.238 249.004 378.434 246.78 382.26L199.13 464.242C198.498 465.329 197.334 466 196.07 466L196.071 465.998Z" fill="#919CB3"/>
<path d="M433.484 210.545V313.928H286.974V210.545L360.229 148.479L433.484 210.545Z" fill="#ECF2FF"/>
<path fill-rule="evenodd" clip-rule="evenodd" d="M360.412 139.1L452.408 217.363L443.147 228.25L360.404 157.859L277.307 228.432L268.054 217.538L360.412 139.1Z" fill="#F80338"/>
<path d="M338.884 314.097V240.913C338.884 239.296 339.526 237.744 340.67 236.601C341.814 235.457 343.365 234.814 344.982 234.814H375.475C377.093 234.814 378.644 235.457 379.788 236.601C380.932 237.744 381.574 239.296 381.574 240.913V314.097H338.884Z" fill="#B0BED9"/>
<path d="M354.13 283.601H351.081C350.272 283.601 349.497 283.279 348.925 282.707C348.353 282.136 348.032 281.36 348.032 280.551C348.032 279.743 348.353 278.967 348.925 278.395C349.497 277.823 350.272 277.502 351.081 277.502H354.13C354.939 277.502 355.715 277.823 356.287 278.395C356.858 278.967 357.18 279.743 357.18 280.551C357.18 281.36 356.858 282.136 356.287 282.707C355.715 283.279 354.939 283.601 354.13 283.601Z" fill="#919CB3"/>
<path d="M418.166 234.814H396.821C395.137 234.814 393.771 236.18 393.771 237.864V271.406C393.771 273.09 395.137 274.456 396.821 274.456H418.166C419.85 274.456 421.215 273.09 421.215 271.406V237.864C421.215 236.18 419.85 234.814 418.166 234.814Z" fill="#CFDFFF"/>
<path d="M323.637 234.814H302.292C300.608 234.814 299.243 236.18 299.243 237.864V271.406C299.243 273.09 300.608 274.456 302.292 274.456H323.637C325.321 274.456 326.686 273.09 326.686 271.406V237.864C326.686 236.18 325.321 234.814 323.637 234.814Z" fill="#CFDFFF"/>
<path d="M78.0355 274.598H231.119C233.564 274.598 235.908 275.569 237.637 277.297C239.366 279.026 240.337 281.371 240.337 283.815C240.337 286.26 239.366 288.605 237.637 290.333C235.908 292.062 233.564 293.033 231.119 293.033H78.0354C75.5908 293.033 73.2463 292.062 71.5176 290.333C69.789 288.605 68.8179 286.26 68.8179 283.816C68.8179 281.371 69.789 279.026 71.5177 277.297C73.2463 275.569 75.5909 274.598 78.0355 274.598Z" fill="#475167"/>
<path d="M78.0355 219.289H231.119C233.564 219.289 235.908 220.26 237.637 221.989C239.366 223.718 240.337 226.062 240.337 228.507C240.337 230.951 239.366 233.296 237.637 235.025C235.908 236.753 233.564 237.725 231.119 237.725H78.0354C75.5908 237.725 73.2463 236.753 71.5176 235.025C69.789 233.296 68.8179 230.952 68.8179 228.507C68.8179 226.062 69.789 223.718 71.5177 221.989C73.2463 220.26 75.5909 219.289 78.0355 219.289Z" fill="#475167"/>
<path d="M78.0355 163.984H231.119C233.564 163.984 235.908 164.956 237.637 166.684C239.366 168.413 240.337 170.757 240.337 173.202C240.337 175.647 239.366 177.991 237.637 179.72C235.908 181.449 233.564 182.42 231.119 182.42H78.0354C75.5908 182.42 73.2463 181.449 71.5176 179.72C69.789 177.991 68.8179 175.647 68.8179 173.202C68.8179 170.758 69.789 168.413 71.5177 166.684C73.2463 164.956 75.5909 163.984 78.0355 163.984Z" fill="#475167"/>
<rect x="481" y="80" width="291" height="17" transform="rotate(90 481 80)" fill="#ECF2FF"/>
<rect x="47" y="80" width="291" height="16" transform="rotate(90 47 80)" fill="#ECF2FF"/>
<rect x="480" y="96" width="449" height="16" transform="rotate(-180 480 96)" fill="#ECF2FF"/>
<rect x="481" y="371" width="449" height="17" transform="rotate(-180 481 371)" fill="#ECF2FF"/>
<path fill-rule="evenodd" clip-rule="evenodd" d="M486.342 382.618H25.5307C22.4777 382.618 20 380.137 20 377.087V359.402C20 356.349 22.4777 353.871 25.5307 353.871H486.342C489.395 353.871 491.873 356.352 491.873 359.402V377.087C491.876 380.14 489.395 382.615 486.342 382.615V382.618Z" fill="#B0BED9"/>
</svg>
