<svg width="512" height="512" viewBox="0 0 512 512" fill="none" xmlns="http://www.w3.org/2000/svg">
<rect x="66" y="63" width="344" height="423" fill="#B0BED9"/>
<path fill-rule="evenodd" clip-rule="evenodd" d="M415.174 448.809H134.735C117.343 448.809 103.19 434.662 103.19 417.265V57.6204C103.19 40.2291 117.338 26.0762 134.735 26.0762H375.574C377.053 26.0762 378.472 26.6647 379.521 27.7107L445.089 93.2761C446.135 94.3221 446.724 95.739 446.724 97.2173V417.265C446.718 434.662 432.565 448.809 415.171 448.809H415.174Z" fill="white"/>
<path d="M162.213 142.953H270.135C272.601 142.953 274.966 143.933 276.71 145.676C278.454 147.42 279.433 149.785 279.433 152.251C279.433 154.717 278.453 157.082 276.71 158.825C274.966 160.569 272.601 161.548 270.135 161.548H162.213C159.747 161.548 157.382 160.569 155.638 158.825C153.895 157.082 152.915 154.717 152.915 152.251C152.915 149.785 153.895 147.42 155.638 145.676C157.382 143.933 159.747 142.953 162.213 142.953Z" fill="#475167"/>
<path d="M162.213 87.166H316.624C319.09 87.166 321.454 88.1456 323.198 89.8892C324.942 91.6329 325.921 93.9977 325.921 96.4636C325.921 98.9295 324.942 101.294 323.198 103.038C321.454 104.782 319.089 105.761 316.624 105.761H162.213C159.747 105.761 157.382 104.782 155.638 103.038C153.895 101.295 152.915 98.9297 152.915 96.4638C152.915 93.9979 153.895 91.6329 155.638 89.8892C157.382 88.1456 159.747 87.166 162.213 87.166Z" fill="#475167"/>
<path fill-rule="evenodd" clip-rule="evenodd" d="M239.597 403.288H200.119C195.618 403.288 191.965 399.632 191.965 395.135C191.965 392.966 191.965 304.824 191.965 302.659C191.965 298.158 195.618 294.506 200.119 294.506H239.597C244.098 294.506 247.751 298.158 247.751 302.659V395.135C247.751 399.636 244.098 403.288 239.597 403.288Z" fill="#137FEB"/>
<path fill-rule="evenodd" clip-rule="evenodd" d="M386.5 403.289H347.022C342.521 403.289 338.868 399.633 338.868 395.136C338.868 392.968 338.868 221.146 338.868 218.981C338.868 214.481 342.521 210.828 347.022 210.828H386.5C391.001 210.828 394.654 214.481 394.654 218.981V395.136C394.654 399.637 391.001 403.289 386.5 403.289Z" fill="#137FEB"/>
<path fill-rule="evenodd" clip-rule="evenodd" d="M200.543 403.29H161.069C156.568 403.29 152.915 399.671 152.915 395.222V280.262C152.915 275.808 156.568 272.193 161.069 272.193L200.547 272.197C205.048 272.197 208.701 275.812 208.701 280.266V395.226C208.693 399.679 205.048 403.29 200.539 403.29H200.543Z" fill="#59C939"/>
<path fill-rule="evenodd" clip-rule="evenodd" d="M347.446 403.288H307.972C303.471 403.288 299.818 399.669 299.818 395.22L299.818 301.94C299.818 297.486 303.471 293.871 307.972 293.871L347.45 293.875C351.951 293.875 355.604 297.49 355.604 301.944V395.224C355.596 399.677 351.951 403.288 347.442 403.288H347.446Z" fill="#59C939"/>
<rect x="103" y="26" width="267" height="16" fill="#ECF2FF"/>
<rect x="103" y="433" width="344" height="16" fill="#ECF2FF"/>
<rect x="119" y="26" width="423" height="16" transform="rotate(90 119 26)" fill="#ECF2FF"/>
<rect x="447" y="103" width="346" height="16" transform="rotate(90 447 103)" fill="#ECF2FF"/>
<path d="M370 26L447 103H370V26Z" fill="#B0BED9"/>
</svg>
