<svg width="402" height="396" viewBox="0 0 402 396" fill="none" xmlns="http://www.w3.org/2000/svg">
<g filter="url(#filter0_d_3405_42840)">
<rect x="18" y="12" width="352" height="352" rx="16" fill="white"/>
<path d="M88.1361 38.006V36.2H96.1721V38.006H93.1481V46H91.1601V38.006H88.1361ZM96.7642 46V38.944H98.5422V39.644C99.0042 39.168 99.6062 38.804 100.404 38.804C100.642 38.804 100.852 38.846 101.02 38.902V40.652C100.796 40.596 100.558 40.554 100.236 40.554C99.3682 40.554 98.8082 41.03 98.5422 41.478V46H96.7642ZM104.098 46.21C102.684 46.21 101.718 45.398 101.718 44.096C101.718 43.032 102.544 42.234 104.056 41.982L106.212 41.618V41.436C106.212 40.694 105.652 40.218 104.84 40.218C104.154 40.218 103.622 40.54 103.244 41.058L101.942 40.064C102.572 39.196 103.608 38.664 104.896 38.664C106.94 38.664 107.99 39.882 107.99 41.436V46H106.212V45.314C105.764 45.86 104.924 46.21 104.098 46.21ZM103.482 44.012C103.482 44.488 103.86 44.796 104.462 44.796C105.274 44.796 105.862 44.418 106.212 43.858V42.864L104.532 43.144C103.79 43.27 103.482 43.578 103.482 44.012ZM108.95 38.944H110.854L112.688 43.984L114.508 38.944H116.426L113.85 46H111.512L108.95 38.944ZM119.397 46.21C117.983 46.21 117.017 45.398 117.017 44.096C117.017 43.032 117.843 42.234 119.355 41.982L121.511 41.618V41.436C121.511 40.694 120.951 40.218 120.139 40.218C119.453 40.218 118.921 40.54 118.543 41.058L117.241 40.064C117.871 39.196 118.907 38.664 120.195 38.664C122.239 38.664 123.289 39.882 123.289 41.436V46H121.511V45.314C121.063 45.86 120.223 46.21 119.397 46.21ZM118.781 44.012C118.781 44.488 119.159 44.796 119.761 44.796C120.573 44.796 121.161 44.418 121.511 43.858V42.864L119.831 43.144C119.089 43.27 118.781 43.578 118.781 44.012ZM129.973 42.948V38.944H131.765V42.864C131.765 44.978 130.533 46.28 128.461 46.28C126.389 46.28 125.171 44.978 125.171 42.864V38.944H126.963V42.948C126.963 43.97 127.495 44.6 128.475 44.6C129.441 44.6 129.973 43.97 129.973 42.948ZM134.802 46H132.758L135.25 42.374L132.898 38.944H134.928L136.384 41.114L137.84 38.944H139.884L137.518 42.374L140.01 46H137.98L136.384 43.634L134.802 46ZM60.351 66.472C60.351 64.414 61.709 62.664 63.935 62.664C64.887 62.664 65.573 62.958 66.119 63.504V59.5H67.911V70H66.119V69.44C65.573 69.986 64.887 70.28 63.935 70.28C61.709 70.28 60.351 68.53 60.351 66.472ZM62.213 66.472C62.213 67.704 62.983 68.6 64.187 68.6C64.985 68.6 65.643 68.264 66.119 67.62V65.324C65.643 64.68 64.985 64.344 64.187 64.344C62.983 64.344 62.213 65.24 62.213 66.472ZM76.5385 68.852C75.8805 69.734 74.7885 70.28 73.4585 70.28C70.9525 70.28 69.5385 68.53 69.5385 66.472C69.5385 64.386 70.8545 62.664 73.1645 62.664C75.1245 62.664 76.4125 63.994 76.4125 65.842C76.4125 66.234 76.3565 66.598 76.3005 66.836H71.3585C71.5265 68.152 72.3385 68.684 73.4445 68.684C74.2145 68.684 74.8865 68.348 75.2645 67.844L76.5385 68.852ZM73.1225 64.12C72.2125 64.12 71.6105 64.624 71.4145 65.548H74.6625C74.6345 64.834 74.1165 64.12 73.1225 64.12ZM81.9234 70V62.944H83.7014V63.644C84.1634 63.168 84.7654 62.804 85.5634 62.804C85.8014 62.804 86.0114 62.846 86.1794 62.902V64.652C85.9554 64.596 85.7174 64.554 85.3954 64.554C84.5274 64.554 83.9674 65.03 83.7014 65.478V70H81.9234ZM93.8061 68.852C93.1481 69.734 92.0561 70.28 90.7261 70.28C88.2201 70.28 86.8061 68.53 86.8061 66.472C86.8061 64.386 88.1221 62.664 90.4321 62.664C92.3921 62.664 93.6801 63.994 93.6801 65.842C93.6801 66.234 93.6241 66.598 93.5681 66.836H88.6261C88.7941 68.152 89.6061 68.684 90.7121 68.684C91.4821 68.684 92.1541 68.348 92.5321 67.844L93.8061 68.852ZM90.3901 64.12C89.4801 64.12 88.8781 64.624 88.6821 65.548H91.9301C91.9021 64.834 91.3841 64.12 90.3901 64.12ZM98.7508 68.6C99.4508 68.6 100.011 68.278 100.347 67.788L101.733 68.852C101.075 69.72 100.039 70.28 98.7508 70.28C96.3148 70.28 94.8588 68.53 94.8588 66.472C94.8588 64.414 96.3148 62.664 98.7508 62.664C100.039 62.664 101.075 63.224 101.733 64.092L100.347 65.156C100.011 64.666 99.4508 64.344 98.7228 64.344C97.5608 64.344 96.7068 65.24 96.7068 66.472C96.7068 67.718 97.5608 68.6 98.7508 68.6ZM106.147 62.664C108.443 62.664 110.011 64.358 110.011 66.472C110.011 68.586 108.443 70.28 106.147 70.28C103.851 70.28 102.283 68.586 102.283 66.472C102.283 64.358 103.851 62.664 106.147 62.664ZM106.175 68.6C107.309 68.6 108.163 67.69 108.163 66.472C108.163 65.24 107.309 64.344 106.175 64.344C104.999 64.344 104.131 65.24 104.131 66.472C104.131 67.704 104.999 68.6 106.175 68.6ZM111.632 70V62.944H113.41V63.504C113.9 63.028 114.558 62.664 115.496 62.664C117.022 62.664 118.24 63.714 118.24 65.8V70H116.448V65.87C116.448 64.932 115.916 64.344 115.048 64.344C114.152 64.344 113.676 64.946 113.41 65.394V70H111.632ZM119.183 62.944H121.087L122.921 67.984L124.741 62.944H126.659L124.083 70H121.745L119.183 62.944ZM134.193 68.852C133.535 69.734 132.443 70.28 131.113 70.28C128.607 70.28 127.193 68.53 127.193 66.472C127.193 64.386 128.509 62.664 130.819 62.664C132.779 62.664 134.067 63.994 134.067 65.842C134.067 66.234 134.011 66.598 133.955 66.836H129.013C129.181 68.152 129.993 68.684 131.099 68.684C131.869 68.684 132.541 68.348 132.919 67.844L134.193 68.852ZM130.777 64.12C129.867 64.12 129.265 64.624 129.069 65.548H132.317C132.289 64.834 131.771 64.12 130.777 64.12ZM135.804 70V62.944H137.582V63.644C138.044 63.168 138.646 62.804 139.444 62.804C139.682 62.804 139.892 62.846 140.06 62.902V64.652C139.836 64.596 139.598 64.554 139.276 64.554C138.408 64.554 137.848 65.03 137.582 65.478V70H135.804ZM140.876 68.978L142.052 67.914C142.486 68.46 143.004 68.852 143.676 68.852C144.25 68.852 144.544 68.516 144.544 68.096C144.544 66.864 141.17 67.326 141.17 64.848C141.17 63.602 142.22 62.664 143.69 62.664C144.768 62.664 145.748 63.182 146.252 63.868L145.076 64.904C144.712 64.456 144.25 64.092 143.704 64.092C143.144 64.092 142.878 64.4 142.878 64.764C142.878 65.968 146.252 65.548 146.252 67.984C146.224 69.468 145.034 70.28 143.704 70.28C142.444 70.28 141.548 69.776 140.876 68.978ZM148.786 61.712C148.156 61.712 147.624 61.18 147.624 60.55C147.624 59.92 148.156 59.388 148.786 59.388C149.416 59.388 149.934 59.92 149.934 60.55C149.934 61.18 149.416 61.712 148.786 61.712ZM147.89 70V62.944H149.668V70H147.89ZM155.16 62.664C157.456 62.664 159.024 64.358 159.024 66.472C159.024 68.586 157.456 70.28 155.16 70.28C152.864 70.28 151.296 68.586 151.296 66.472C151.296 64.358 152.864 62.664 155.16 62.664ZM155.188 68.6C156.322 68.6 157.176 67.69 157.176 66.472C157.176 65.24 156.322 64.344 155.188 64.344C154.012 64.344 153.144 65.24 153.144 66.472C153.144 67.704 154.012 68.6 155.188 68.6ZM160.646 70V62.944H162.424V63.504C162.914 63.028 163.572 62.664 164.51 62.664C166.036 62.664 167.254 63.714 167.254 65.8V70H165.462V65.87C165.462 64.932 164.93 64.344 164.062 64.344C163.166 64.344 162.69 64.946 162.424 65.394V70H160.646Z" fill="#161616"/>
<path d="M57.022 233.865H170.979V336C170.979 338.209 169.188 340 166.979 340H61.022C58.8128 340 57.022 338.209 57.022 336V233.865Z" fill="#F80338"/>
<line x1="34" y1="233.782" x2="194" y2="233.782" stroke="#929292"/>
<path d="M225.97 46V36.2H227.958V46H225.97ZM230.46 46V38.944H232.238V39.476C232.714 39.014 233.316 38.664 234.184 38.664C235.08 38.664 235.864 39.056 236.326 39.812C236.83 39.196 237.502 38.664 238.692 38.664C240.148 38.664 241.296 39.672 241.296 41.66V46H239.504V41.73C239.504 40.876 239.042 40.344 238.244 40.344C237.474 40.344 237.054 40.876 236.774 41.352C236.788 41.45 236.788 41.548 236.788 41.66V46H234.996V41.73C234.996 40.876 234.534 40.344 233.736 40.344C232.924 40.344 232.504 40.946 232.238 41.394V46H230.46ZM243.325 49.444V38.944H245.103V39.518C245.649 38.972 246.335 38.664 247.301 38.664C249.541 38.664 250.885 40.414 250.885 42.472C250.885 44.53 249.541 46.28 247.301 46.28C246.335 46.28 245.649 45.972 245.103 45.426V49.444H243.325ZM247.049 40.344C246.223 40.344 245.551 40.708 245.103 41.366V43.578C245.579 44.25 246.237 44.6 247.049 44.6C248.253 44.6 249.037 43.704 249.037 42.472C249.037 41.24 248.253 40.344 247.049 40.344ZM254.336 46.21C252.922 46.21 251.956 45.398 251.956 44.096C251.956 43.032 252.782 42.234 254.294 41.982L256.45 41.618V41.436C256.45 40.694 255.89 40.218 255.078 40.218C254.392 40.218 253.86 40.54 253.482 41.058L252.18 40.064C252.81 39.196 253.846 38.664 255.134 38.664C257.178 38.664 258.228 39.882 258.228 41.436V46H256.45V45.314C256.002 45.86 255.162 46.21 254.336 46.21ZM253.72 44.012C253.72 44.488 254.098 44.796 254.7 44.796C255.512 44.796 256.1 44.418 256.45 43.858V42.864L254.77 43.144C254.028 43.27 253.72 43.578 253.72 44.012ZM263.652 44.6C264.352 44.6 264.912 44.278 265.248 43.788L266.634 44.852C265.976 45.72 264.94 46.28 263.652 46.28C261.216 46.28 259.76 44.53 259.76 42.472C259.76 40.414 261.216 38.664 263.652 38.664C264.94 38.664 265.976 39.224 266.634 40.092L265.248 41.156C264.912 40.666 264.352 40.344 263.624 40.344C262.462 40.344 261.608 41.24 261.608 42.472C261.608 43.718 262.462 44.6 263.652 44.6ZM268.478 43.424V40.54H267.162V38.944H268.478V37.18H270.27V38.944H272.426V40.54H270.27V43.424C270.27 44.208 270.69 44.516 271.39 44.516C271.88 44.516 272.202 44.46 272.44 44.362V45.916C272.09 46.07 271.67 46.14 271.082 46.14C269.318 46.14 268.478 45.146 268.478 43.424ZM273.402 44.978L274.578 43.914C275.012 44.46 275.53 44.852 276.202 44.852C276.776 44.852 277.07 44.516 277.07 44.096C277.07 42.864 273.696 43.326 273.696 40.848C273.696 39.602 274.746 38.664 276.216 38.664C277.294 38.664 278.274 39.182 278.778 39.868L277.602 40.904C277.238 40.456 276.776 40.092 276.23 40.092C275.67 40.092 275.404 40.4 275.404 40.764C275.404 41.968 278.778 41.548 278.778 43.984C278.75 45.468 277.56 46.28 276.23 46.28C274.97 46.28 274.074 45.776 273.402 44.978ZM283.574 44.978L284.75 43.914C285.184 44.46 285.702 44.852 286.374 44.852C286.948 44.852 287.242 44.516 287.242 44.096C287.242 42.864 283.868 43.326 283.868 40.848C283.868 39.602 284.918 38.664 286.388 38.664C287.466 38.664 288.446 39.182 288.95 39.868L287.774 40.904C287.41 40.456 286.948 40.092 286.402 40.092C285.842 40.092 285.576 40.4 285.576 40.764C285.576 41.968 288.95 41.548 288.95 43.984C288.922 45.468 287.732 46.28 286.402 46.28C285.142 46.28 284.246 45.776 283.574 44.978ZM293.921 38.664C296.217 38.664 297.785 40.358 297.785 42.472C297.785 44.586 296.217 46.28 293.921 46.28C291.625 46.28 290.057 44.586 290.057 42.472C290.057 40.358 291.625 38.664 293.921 38.664ZM293.949 44.6C295.083 44.6 295.937 43.69 295.937 42.472C295.937 41.24 295.083 40.344 293.949 40.344C292.773 40.344 291.905 41.24 291.905 42.472C291.905 43.704 292.773 44.6 293.949 44.6ZM302.863 44.6C303.563 44.6 304.123 44.278 304.459 43.788L305.845 44.852C305.187 45.72 304.151 46.28 302.863 46.28C300.427 46.28 298.971 44.53 298.971 42.472C298.971 40.414 300.427 38.664 302.863 38.664C304.151 38.664 305.187 39.224 305.845 40.092L304.459 41.156C304.123 40.666 303.563 40.344 302.835 40.344C301.673 40.344 300.819 41.24 300.819 42.472C300.819 43.718 301.673 44.6 302.863 44.6ZM308.068 37.712C307.438 37.712 306.906 37.18 306.906 36.55C306.906 35.92 307.438 35.388 308.068 35.388C308.698 35.388 309.216 35.92 309.216 36.55C309.216 37.18 308.698 37.712 308.068 37.712ZM307.172 46V38.944H308.95V46H307.172ZM314.443 38.664C316.739 38.664 318.307 40.358 318.307 42.472C318.307 44.586 316.739 46.28 314.443 46.28C312.147 46.28 310.579 44.586 310.579 42.472C310.579 40.358 312.147 38.664 314.443 38.664ZM314.471 44.6C315.605 44.6 316.459 43.69 316.459 42.472C316.459 41.24 315.605 40.344 314.471 40.344C313.295 40.344 312.427 41.24 312.427 42.472C312.427 43.704 313.295 44.6 314.471 44.6ZM319.418 41.562H323.198V43.284H319.418V41.562ZM233.878 61.824H232.17L233.626 59.5H235.558L233.878 61.824ZM236.272 68.852C235.614 69.734 234.522 70.28 233.192 70.28C230.686 70.28 229.272 68.53 229.272 66.472C229.272 64.386 230.588 62.664 232.898 62.664C234.858 62.664 236.146 63.994 236.146 65.842C236.146 66.234 236.09 66.598 236.034 66.836H231.092C231.26 68.152 232.072 68.684 233.178 68.684C233.948 68.684 234.62 68.348 234.998 67.844L236.272 68.852ZM232.856 64.12C231.946 64.12 231.344 64.624 231.148 65.548H234.396C234.368 64.834 233.85 64.12 232.856 64.12ZM241.217 68.6C241.917 68.6 242.477 68.278 242.813 67.788L244.199 68.852C243.541 69.72 242.505 70.28 241.217 70.28C238.781 70.28 237.325 68.53 237.325 66.472C237.325 64.414 238.781 62.664 241.217 62.664C242.505 62.664 243.541 63.224 244.199 64.092L242.813 65.156C242.477 64.666 241.917 64.344 241.189 64.344C240.027 64.344 239.173 65.24 239.173 66.472C239.173 67.718 240.027 68.6 241.217 68.6ZM248.612 62.664C250.908 62.664 252.476 64.358 252.476 66.472C252.476 68.586 250.908 70.28 248.612 70.28C246.316 70.28 244.748 68.586 244.748 66.472C244.748 64.358 246.316 62.664 248.612 62.664ZM248.64 68.6C249.774 68.6 250.628 67.69 250.628 66.472C250.628 65.24 249.774 64.344 248.64 64.344C247.464 64.344 246.596 65.24 246.596 66.472C246.596 67.704 247.464 68.6 248.64 68.6ZM254.098 70V62.944H255.876V63.504C256.366 63.028 257.024 62.664 257.962 62.664C259.488 62.664 260.706 63.714 260.706 65.8V70H258.914V65.87C258.914 64.932 258.382 64.344 257.514 64.344C256.618 64.344 256.142 64.946 255.876 65.394V70H254.098ZM266.085 62.664C268.381 62.664 269.949 64.358 269.949 66.472C269.949 68.586 268.381 70.28 266.085 70.28C263.789 70.28 262.221 68.586 262.221 66.472C262.221 64.358 263.789 62.664 266.085 62.664ZM266.113 68.6C267.247 68.6 268.101 67.69 268.101 66.472C268.101 65.24 267.247 64.344 266.113 64.344C264.937 64.344 264.069 65.24 264.069 66.472C264.069 67.704 264.937 68.6 266.113 68.6ZM271.571 70V62.944H273.349V63.476C273.825 63.014 274.427 62.664 275.295 62.664C276.191 62.664 276.975 63.056 277.437 63.812C277.941 63.196 278.613 62.664 279.803 62.664C281.259 62.664 282.407 63.672 282.407 65.66V70H280.615V65.73C280.615 64.876 280.153 64.344 279.355 64.344C278.585 64.344 278.165 64.876 277.885 65.352C277.899 65.45 277.899 65.548 277.899 65.66V70H276.107V65.73C276.107 64.876 275.645 64.344 274.847 64.344C274.035 64.344 273.615 64.946 273.349 65.394V70H271.571ZM285.332 61.712C284.702 61.712 284.17 61.18 284.17 60.55C284.17 59.92 284.702 59.388 285.332 59.388C285.962 59.388 286.48 59.92 286.48 60.55C286.48 61.18 285.962 61.712 285.332 61.712ZM284.436 70V62.944H286.214V70H284.436ZM287.842 66.472C287.842 64.414 289.186 62.664 291.426 62.664C292.378 62.664 293.064 62.972 293.61 63.518V62.944H295.402V73.444H293.61V69.426C293.064 69.972 292.378 70.28 291.426 70.28C289.186 70.28 287.842 68.53 287.842 66.472ZM289.69 66.472C289.69 67.704 290.46 68.6 291.664 68.6C292.49 68.6 293.176 68.236 293.61 67.592V65.352C293.134 64.694 292.462 64.344 291.664 64.344C290.46 64.344 289.69 65.24 289.69 66.472ZM302.182 66.948V62.944H303.974V66.864C303.974 68.978 302.742 70.28 300.67 70.28C298.598 70.28 297.38 68.978 297.38 66.864V62.944H299.172V66.948C299.172 67.97 299.704 68.6 300.684 68.6C301.65 68.6 302.182 67.97 302.182 66.948ZM312.438 68.852C311.78 69.734 310.688 70.28 309.358 70.28C306.852 70.28 305.438 68.53 305.438 66.472C305.438 64.386 306.754 62.664 309.064 62.664C311.024 62.664 312.312 63.994 312.312 65.842C312.312 66.234 312.256 66.598 312.2 66.836H307.258C307.426 68.152 308.238 68.684 309.344 68.684C310.114 68.684 310.786 68.348 311.164 67.844L312.438 68.852ZM309.022 64.12C308.112 64.12 307.51 64.624 307.314 65.548H310.562C310.534 64.834 310.016 64.12 309.022 64.12ZM313.338 68.978L314.514 67.914C314.948 68.46 315.466 68.852 316.138 68.852C316.712 68.852 317.006 68.516 317.006 68.096C317.006 66.864 313.632 67.326 313.632 64.848C313.632 63.602 314.682 62.664 316.152 62.664C317.23 62.664 318.21 63.182 318.714 63.868L317.538 64.904C317.174 64.456 316.712 64.092 316.166 64.092C315.606 64.092 315.34 64.4 315.34 64.764C315.34 65.968 318.714 65.548 318.714 67.984C318.686 69.468 317.496 70.28 316.166 70.28C314.906 70.28 314.01 69.776 313.338 68.978Z" fill="#161616"/>
<path d="M216.727 96C216.727 93.7909 218.518 92 220.727 92H327.273C329.482 92 331.273 93.7909 331.273 96V234.282H216.727V96Z" fill="#59C939"/>
<line y1="-0.5" x2="160" y2="-0.5" transform="matrix(1 1.30071e-06 -5.87581e-09 1 194 234.283)" stroke="#929292"/>
</g>
<defs>
<filter id="filter0_d_3405_42840" x="0" y="0" width="388" height="388" filterUnits="userSpaceOnUse" color-interpolation-filters="sRGB">
<feFlood flood-opacity="0" result="BackgroundImageFix"/>
<feColorMatrix in="SourceAlpha" type="matrix" values="0 0 0 0 0 0 0 0 0 0 0 0 0 0 0 0 0 0 127 0" result="hardAlpha"/>
<feOffset dy="6"/>
<feGaussianBlur stdDeviation="9"/>
<feColorMatrix type="matrix" values="0 0 0 0 0 0 0 0 0 0 0 0 0 0 0.0705882 0 0 0 0.16 0"/>
<feBlend mode="normal" in2="BackgroundImageFix" result="effect1_dropShadow_3405_42840"/>
<feBlend mode="normal" in="SourceGraphic" in2="effect1_dropShadow_3405_42840" result="shape"/>
</filter>
</defs>
</svg>
