<svg width="388" height="388" viewBox="0 0 388 388" fill="none" xmlns="http://www.w3.org/2000/svg">
<g filter="url(#filter0_d_3405_42819)">
<rect x="18" y="12" width="352" height="352" rx="16" fill="white"/>
<path d="M82.4244 46V36.2H86.2744C89.3824 36.2 91.4824 38.454 91.4824 41.1C91.4824 43.746 89.3824 46 86.2744 46H82.4244ZM86.3024 38.006H84.4124V44.194H86.3024C88.1224 44.194 89.4384 42.836 89.4384 41.1C89.4384 39.35 88.1224 38.006 86.3024 38.006ZM97.3047 37.824H95.5967L97.0527 35.5H98.9847L97.3047 37.824ZM99.6987 44.852C99.0407 45.734 97.9487 46.28 96.6187 46.28C94.1127 46.28 92.6987 44.53 92.6987 42.472C92.6987 40.386 94.0147 38.664 96.3247 38.664C98.2847 38.664 99.5727 39.994 99.5727 41.842C99.5727 42.234 99.5167 42.598 99.4607 42.836H94.5187C94.6867 44.152 95.4987 44.684 96.6047 44.684C97.3747 44.684 98.0467 44.348 98.4247 43.844L99.6987 44.852ZM96.2827 40.12C95.3727 40.12 94.7707 40.624 94.5747 41.548H97.8227C97.7947 40.834 97.2767 40.12 96.2827 40.12ZM101.31 49.444V38.944H103.088V39.518C103.634 38.972 104.32 38.664 105.286 38.664C107.526 38.664 108.87 40.414 108.87 42.472C108.87 44.53 107.526 46.28 105.286 46.28C104.32 46.28 103.634 45.972 103.088 45.426V49.444H101.31ZM105.034 40.344C104.208 40.344 103.536 40.708 103.088 41.366V43.578C103.564 44.25 104.222 44.6 105.034 44.6C106.238 44.6 107.022 43.704 107.022 42.472C107.022 41.24 106.238 40.344 105.034 40.344ZM117.062 44.852C116.404 45.734 115.312 46.28 113.982 46.28C111.476 46.28 110.062 44.53 110.062 42.472C110.062 40.386 111.378 38.664 113.688 38.664C115.648 38.664 116.936 39.994 116.936 41.842C116.936 42.234 116.88 42.598 116.824 42.836H111.882C112.05 44.152 112.862 44.684 113.968 44.684C114.738 44.684 115.41 44.348 115.788 43.844L117.062 44.852ZM113.646 40.12C112.736 40.12 112.134 40.624 111.938 41.548H115.186C115.158 40.834 114.64 40.12 113.646 40.12ZM118.673 46V38.944H120.451V39.504C120.941 39.028 121.599 38.664 122.537 38.664C124.063 38.664 125.281 39.714 125.281 41.8V46H123.489V41.87C123.489 40.932 122.957 40.344 122.089 40.344C121.193 40.344 120.717 40.946 120.451 41.394V46H118.673ZM126.684 44.978L127.86 43.914C128.294 44.46 128.812 44.852 129.484 44.852C130.058 44.852 130.352 44.516 130.352 44.096C130.352 42.864 126.978 43.326 126.978 40.848C126.978 39.602 128.028 38.664 129.498 38.664C130.576 38.664 131.556 39.182 132.06 39.868L130.884 40.904C130.52 40.456 130.058 40.092 129.512 40.092C128.952 40.092 128.686 40.4 128.686 40.764C128.686 41.968 132.06 41.548 132.06 43.984C132.032 45.468 130.842 46.28 129.512 46.28C128.252 46.28 127.356 45.776 126.684 44.978ZM140.167 44.852C139.509 45.734 138.417 46.28 137.087 46.28C134.581 46.28 133.167 44.53 133.167 42.472C133.167 40.386 134.483 38.664 136.793 38.664C138.753 38.664 140.041 39.994 140.041 41.842C140.041 42.234 139.985 42.598 139.929 42.836H134.987C135.155 44.152 135.967 44.684 137.073 44.684C137.843 44.684 138.515 44.348 138.893 43.844L140.167 44.852ZM136.751 40.12C135.841 40.12 135.239 40.624 135.043 41.548H138.291C138.263 40.834 137.745 40.12 136.751 40.12ZM141.067 44.978L142.243 43.914C142.677 44.46 143.195 44.852 143.867 44.852C144.441 44.852 144.735 44.516 144.735 44.096C144.735 42.864 141.361 43.326 141.361 40.848C141.361 39.602 142.411 38.664 143.881 38.664C144.959 38.664 145.939 39.182 146.443 39.868L145.267 40.904C144.903 40.456 144.441 40.092 143.895 40.092C143.335 40.092 143.069 40.4 143.069 40.764C143.069 41.968 146.443 41.548 146.443 43.984C146.415 45.468 145.225 46.28 143.895 46.28C142.635 46.28 141.739 45.776 141.067 44.978ZM60.0092 66.472C60.0092 64.414 61.3672 62.664 63.5932 62.664C64.5452 62.664 65.2312 62.958 65.7772 63.504V59.5H67.5692V70H65.7772V69.44C65.2312 69.986 64.5452 70.28 63.5932 70.28C61.3672 70.28 60.0092 68.53 60.0092 66.472ZM61.8712 66.472C61.8712 67.704 62.6412 68.6 63.8452 68.6C64.6432 68.6 65.3012 68.264 65.7772 67.62V65.324C65.3012 64.68 64.6432 64.344 63.8452 64.344C62.6412 64.344 61.8712 65.24 61.8712 66.472ZM70.6501 64.232H68.9981L70.2581 60.2H72.2741L70.6501 64.232ZM75.011 70.21C73.597 70.21 72.631 69.398 72.631 68.096C72.631 67.032 73.457 66.234 74.969 65.982L77.125 65.618V65.436C77.125 64.694 76.565 64.218 75.753 64.218C75.067 64.218 74.535 64.54 74.157 65.058L72.855 64.064C73.485 63.196 74.521 62.664 75.809 62.664C77.853 62.664 78.903 63.882 78.903 65.436V70H77.125V69.314C76.677 69.86 75.837 70.21 75.011 70.21ZM74.395 68.012C74.395 68.488 74.773 68.796 75.375 68.796C76.187 68.796 76.775 68.418 77.125 67.858V66.864L75.445 67.144C74.703 67.27 74.395 67.578 74.395 68.012ZM80.939 70V62.944H82.717V63.476C83.193 63.014 83.795 62.664 84.663 62.664C85.559 62.664 86.343 63.056 86.805 63.812C87.309 63.196 87.981 62.664 89.171 62.664C90.627 62.664 91.775 63.672 91.775 65.66V70H89.983V65.73C89.983 64.876 89.521 64.344 88.723 64.344C87.953 64.344 87.533 64.876 87.253 65.352C87.267 65.45 87.267 65.548 87.267 65.66V70H85.475V65.73C85.475 64.876 85.013 64.344 84.215 64.344C83.403 64.344 82.983 64.946 82.717 65.394V70H80.939ZM97.9062 61.824H96.1982L97.6542 59.5H99.5862L97.9062 61.824ZM100.3 68.852C99.6422 69.734 98.5502 70.28 97.2202 70.28C94.7142 70.28 93.3002 68.53 93.3002 66.472C93.3002 64.386 94.6162 62.664 96.9262 62.664C98.8862 62.664 100.174 63.994 100.174 65.842C100.174 66.234 100.118 66.598 100.062 66.836H95.1202C95.2882 68.152 96.1002 68.684 97.2062 68.684C97.9762 68.684 98.6482 68.348 99.0262 67.844L100.3 68.852ZM96.8842 64.12C95.9742 64.12 95.3722 64.624 95.1762 65.548H98.4242C98.3962 64.834 97.8782 64.12 96.8842 64.12ZM101.912 70V62.944H103.69V63.504C104.18 63.028 104.838 62.664 105.776 62.664C107.302 62.664 108.52 63.714 108.52 65.8V70H106.728V65.87C106.728 64.932 106.196 64.344 105.328 64.344C104.432 64.344 103.956 64.946 103.69 65.394V70H101.912ZM112.527 70.21C111.113 70.21 110.147 69.398 110.147 68.096C110.147 67.032 110.973 66.234 112.485 65.982L114.641 65.618V65.436C114.641 64.694 114.081 64.218 113.269 64.218C112.583 64.218 112.051 64.54 111.673 65.058L110.371 64.064C111.001 63.196 112.037 62.664 113.325 62.664C115.369 62.664 116.419 63.882 116.419 65.436V70H114.641V69.314C114.193 69.86 113.353 70.21 112.527 70.21ZM111.911 68.012C111.911 68.488 112.289 68.796 112.891 68.796C113.703 68.796 114.291 68.418 114.641 67.858V66.864L112.961 67.144C112.219 67.27 111.911 67.578 111.911 68.012ZM117.755 71.232C117.755 70.532 118.105 69.972 118.735 69.51C118.455 69.23 118.301 68.852 118.301 68.488C118.301 67.928 118.539 67.48 119.071 67.088C118.455 66.626 118.119 65.926 118.119 65.142C118.119 63.77 119.183 62.664 120.947 62.664C121.493 62.664 121.969 62.762 122.375 62.944H124.951V64.456H123.705C123.775 64.68 123.803 64.904 123.803 65.142C123.803 66.528 122.767 67.648 120.947 67.648C120.709 67.648 120.485 67.634 120.275 67.592C120.121 67.732 120.037 67.886 120.037 68.04C120.037 68.32 120.191 68.46 120.513 68.46H122.291C124.069 68.46 125.035 69.412 125.035 70.728C125.035 72.296 123.537 73.5 121.339 73.5C119.085 73.5 117.755 72.716 117.755 71.232ZM120.975 66.304C121.717 66.304 122.193 65.842 122.193 65.142C122.193 64.442 121.717 63.994 120.975 63.994C120.205 63.994 119.743 64.456 119.743 65.142C119.743 65.842 120.205 66.304 120.975 66.304ZM119.435 70.98C119.435 71.652 120.079 72.072 121.325 72.072C122.613 72.072 123.271 71.596 123.271 70.896C123.271 70.364 122.949 69.986 122.095 69.986H119.911C119.645 70.238 119.435 70.546 119.435 70.98ZM132.415 68.852C131.757 69.734 130.665 70.28 129.335 70.28C126.829 70.28 125.415 68.53 125.415 66.472C125.415 64.386 126.731 62.664 129.041 62.664C131.001 62.664 132.289 63.994 132.289 65.842C132.289 66.234 132.233 66.598 132.177 66.836H127.235C127.403 68.152 128.215 68.684 129.321 68.684C130.091 68.684 130.763 68.348 131.141 67.844L132.415 68.852ZM128.999 64.12C128.089 64.12 127.487 64.624 127.291 65.548H130.539C130.511 64.834 129.993 64.12 128.999 64.12ZM134.027 70V62.944H135.805V63.476C136.281 63.014 136.883 62.664 137.751 62.664C138.647 62.664 139.431 63.056 139.893 63.812C140.397 63.196 141.069 62.664 142.259 62.664C143.715 62.664 144.863 63.672 144.863 65.66V70H143.071V65.73C143.071 64.876 142.609 64.344 141.811 64.344C141.041 64.344 140.621 64.876 140.341 65.352C140.355 65.45 140.355 65.548 140.355 65.66V70H138.563V65.73C138.563 64.876 138.101 64.344 137.303 64.344C136.491 64.344 136.071 64.946 135.805 65.394V70H134.027ZM153.388 68.852C152.73 69.734 151.638 70.28 150.308 70.28C147.802 70.28 146.388 68.53 146.388 66.472C146.388 64.386 147.704 62.664 150.014 62.664C151.974 62.664 153.262 63.994 153.262 65.842C153.262 66.234 153.206 66.598 153.15 66.836H148.208C148.376 68.152 149.188 68.684 150.294 68.684C151.064 68.684 151.736 68.348 152.114 67.844L153.388 68.852ZM149.972 64.12C149.062 64.12 148.46 64.624 148.264 65.548H151.512C151.484 64.834 150.966 64.12 149.972 64.12ZM155 70V62.944H156.778V63.504C157.268 63.028 157.926 62.664 158.864 62.664C160.39 62.664 161.608 63.714 161.608 65.8V70H159.816V65.87C159.816 64.932 159.284 64.344 158.416 64.344C157.52 64.344 157.044 64.946 156.778 65.394V70H155ZM164.075 67.424V64.54H162.759V62.944H164.075V61.18H165.867V62.944H168.023V64.54H165.867V67.424C165.867 68.208 166.287 68.516 166.987 68.516C167.477 68.516 167.799 68.46 168.037 68.362V69.916C167.687 70.07 167.267 70.14 166.678 70.14C164.915 70.14 164.075 69.146 164.075 67.424Z" fill="#161616"/>
<path d="M57.022 233.865H170.979V336C170.979 338.209 169.188 340 166.979 340H61.022C58.8128 340 57.022 338.209 57.022 336V233.865Z" fill="#F80338"/>
<line x1="34" y1="233.782" x2="194" y2="233.782" stroke="#929292"/>
<path d="M225.97 46V36.2H227.958V46H225.97ZM230.46 46V38.944H232.238V39.476C232.714 39.014 233.316 38.664 234.184 38.664C235.08 38.664 235.864 39.056 236.326 39.812C236.83 39.196 237.502 38.664 238.692 38.664C240.148 38.664 241.296 39.672 241.296 41.66V46H239.504V41.73C239.504 40.876 239.042 40.344 238.244 40.344C237.474 40.344 237.054 40.876 236.774 41.352C236.788 41.45 236.788 41.548 236.788 41.66V46H234.996V41.73C234.996 40.876 234.534 40.344 233.736 40.344C232.924 40.344 232.504 40.946 232.238 41.394V46H230.46ZM243.325 49.444V38.944H245.103V39.518C245.649 38.972 246.335 38.664 247.301 38.664C249.541 38.664 250.885 40.414 250.885 42.472C250.885 44.53 249.541 46.28 247.301 46.28C246.335 46.28 245.649 45.972 245.103 45.426V49.444H243.325ZM247.049 40.344C246.223 40.344 245.551 40.708 245.103 41.366V43.578C245.579 44.25 246.237 44.6 247.049 44.6C248.253 44.6 249.037 43.704 249.037 42.472C249.037 41.24 248.253 40.344 247.049 40.344ZM254.336 46.21C252.922 46.21 251.956 45.398 251.956 44.096C251.956 43.032 252.782 42.234 254.294 41.982L256.45 41.618V41.436C256.45 40.694 255.89 40.218 255.078 40.218C254.392 40.218 253.86 40.54 253.482 41.058L252.18 40.064C252.81 39.196 253.846 38.664 255.134 38.664C257.178 38.664 258.228 39.882 258.228 41.436V46H256.45V45.314C256.002 45.86 255.162 46.21 254.336 46.21ZM253.72 44.012C253.72 44.488 254.098 44.796 254.7 44.796C255.512 44.796 256.1 44.418 256.45 43.858V42.864L254.77 43.144C254.028 43.27 253.72 43.578 253.72 44.012ZM263.652 44.6C264.352 44.6 264.912 44.278 265.248 43.788L266.634 44.852C265.976 45.72 264.94 46.28 263.652 46.28C261.216 46.28 259.76 44.53 259.76 42.472C259.76 40.414 261.216 38.664 263.652 38.664C264.94 38.664 265.976 39.224 266.634 40.092L265.248 41.156C264.912 40.666 264.352 40.344 263.624 40.344C262.462 40.344 261.608 41.24 261.608 42.472C261.608 43.718 262.462 44.6 263.652 44.6ZM268.478 43.424V40.54H267.162V38.944H268.478V37.18H270.27V38.944H272.426V40.54H270.27V43.424C270.27 44.208 270.69 44.516 271.39 44.516C271.88 44.516 272.202 44.46 272.44 44.362V45.916C272.09 46.07 271.67 46.14 271.082 46.14C269.318 46.14 268.478 45.146 268.478 43.424ZM273.402 44.978L274.578 43.914C275.012 44.46 275.53 44.852 276.202 44.852C276.776 44.852 277.07 44.516 277.07 44.096C277.07 42.864 273.696 43.326 273.696 40.848C273.696 39.602 274.746 38.664 276.216 38.664C277.294 38.664 278.274 39.182 278.778 39.868L277.602 40.904C277.238 40.456 276.776 40.092 276.23 40.092C275.67 40.092 275.404 40.4 275.404 40.764C275.404 41.968 278.778 41.548 278.778 43.984C278.75 45.468 277.56 46.28 276.23 46.28C274.97 46.28 274.074 45.776 273.402 44.978ZM283.574 44.978L284.75 43.914C285.184 44.46 285.702 44.852 286.374 44.852C286.948 44.852 287.242 44.516 287.242 44.096C287.242 42.864 283.868 43.326 283.868 40.848C283.868 39.602 284.918 38.664 286.388 38.664C287.466 38.664 288.446 39.182 288.95 39.868L287.774 40.904C287.41 40.456 286.948 40.092 286.402 40.092C285.842 40.092 285.576 40.4 285.576 40.764C285.576 41.968 288.95 41.548 288.95 43.984C288.922 45.468 287.732 46.28 286.402 46.28C285.142 46.28 284.246 45.776 283.574 44.978ZM293.921 38.664C296.217 38.664 297.785 40.358 297.785 42.472C297.785 44.586 296.217 46.28 293.921 46.28C291.625 46.28 290.057 44.586 290.057 42.472C290.057 40.358 291.625 38.664 293.921 38.664ZM293.949 44.6C295.083 44.6 295.937 43.69 295.937 42.472C295.937 41.24 295.083 40.344 293.949 40.344C292.773 40.344 291.905 41.24 291.905 42.472C291.905 43.704 292.773 44.6 293.949 44.6ZM302.863 44.6C303.563 44.6 304.123 44.278 304.459 43.788L305.845 44.852C305.187 45.72 304.151 46.28 302.863 46.28C300.427 46.28 298.971 44.53 298.971 42.472C298.971 40.414 300.427 38.664 302.863 38.664C304.151 38.664 305.187 39.224 305.845 40.092L304.459 41.156C304.123 40.666 303.563 40.344 302.835 40.344C301.673 40.344 300.819 41.24 300.819 42.472C300.819 43.718 301.673 44.6 302.863 44.6ZM308.068 37.712C307.438 37.712 306.906 37.18 306.906 36.55C306.906 35.92 307.438 35.388 308.068 35.388C308.698 35.388 309.216 35.92 309.216 36.55C309.216 37.18 308.698 37.712 308.068 37.712ZM307.172 46V38.944H308.95V46H307.172ZM314.443 38.664C316.739 38.664 318.307 40.358 318.307 42.472C318.307 44.586 316.739 46.28 314.443 46.28C312.147 46.28 310.579 44.586 310.579 42.472C310.579 40.358 312.147 38.664 314.443 38.664ZM314.471 44.6C315.605 44.6 316.459 43.69 316.459 42.472C316.459 41.24 315.605 40.344 314.471 40.344C313.295 40.344 312.427 41.24 312.427 42.472C312.427 43.704 313.295 44.6 314.471 44.6ZM319.418 41.562H323.198V43.284H319.418V41.562ZM233.878 61.824H232.17L233.626 59.5H235.558L233.878 61.824ZM236.272 68.852C235.614 69.734 234.522 70.28 233.192 70.28C230.686 70.28 229.272 68.53 229.272 66.472C229.272 64.386 230.588 62.664 232.898 62.664C234.858 62.664 236.146 63.994 236.146 65.842C236.146 66.234 236.09 66.598 236.034 66.836H231.092C231.26 68.152 232.072 68.684 233.178 68.684C233.948 68.684 234.62 68.348 234.998 67.844L236.272 68.852ZM232.856 64.12C231.946 64.12 231.344 64.624 231.148 65.548H234.396C234.368 64.834 233.85 64.12 232.856 64.12ZM241.217 68.6C241.917 68.6 242.477 68.278 242.813 67.788L244.199 68.852C243.541 69.72 242.505 70.28 241.217 70.28C238.781 70.28 237.325 68.53 237.325 66.472C237.325 64.414 238.781 62.664 241.217 62.664C242.505 62.664 243.541 63.224 244.199 64.092L242.813 65.156C242.477 64.666 241.917 64.344 241.189 64.344C240.027 64.344 239.173 65.24 239.173 66.472C239.173 67.718 240.027 68.6 241.217 68.6ZM248.612 62.664C250.908 62.664 252.476 64.358 252.476 66.472C252.476 68.586 250.908 70.28 248.612 70.28C246.316 70.28 244.748 68.586 244.748 66.472C244.748 64.358 246.316 62.664 248.612 62.664ZM248.64 68.6C249.774 68.6 250.628 67.69 250.628 66.472C250.628 65.24 249.774 64.344 248.64 64.344C247.464 64.344 246.596 65.24 246.596 66.472C246.596 67.704 247.464 68.6 248.64 68.6ZM254.098 70V62.944H255.876V63.504C256.366 63.028 257.024 62.664 257.962 62.664C259.488 62.664 260.706 63.714 260.706 65.8V70H258.914V65.87C258.914 64.932 258.382 64.344 257.514 64.344C256.618 64.344 256.142 64.946 255.876 65.394V70H254.098ZM266.085 62.664C268.381 62.664 269.949 64.358 269.949 66.472C269.949 68.586 268.381 70.28 266.085 70.28C263.789 70.28 262.221 68.586 262.221 66.472C262.221 64.358 263.789 62.664 266.085 62.664ZM266.113 68.6C267.247 68.6 268.101 67.69 268.101 66.472C268.101 65.24 267.247 64.344 266.113 64.344C264.937 64.344 264.069 65.24 264.069 66.472C264.069 67.704 264.937 68.6 266.113 68.6ZM271.571 70V62.944H273.349V63.476C273.825 63.014 274.427 62.664 275.295 62.664C276.191 62.664 276.975 63.056 277.437 63.812C277.941 63.196 278.613 62.664 279.803 62.664C281.259 62.664 282.407 63.672 282.407 65.66V70H280.615V65.73C280.615 64.876 280.153 64.344 279.355 64.344C278.585 64.344 278.165 64.876 277.885 65.352C277.899 65.45 277.899 65.548 277.899 65.66V70H276.107V65.73C276.107 64.876 275.645 64.344 274.847 64.344C274.035 64.344 273.615 64.946 273.349 65.394V70H271.571ZM285.332 61.712C284.702 61.712 284.17 61.18 284.17 60.55C284.17 59.92 284.702 59.388 285.332 59.388C285.962 59.388 286.48 59.92 286.48 60.55C286.48 61.18 285.962 61.712 285.332 61.712ZM284.436 70V62.944H286.214V70H284.436ZM287.842 66.472C287.842 64.414 289.186 62.664 291.426 62.664C292.378 62.664 293.064 62.972 293.61 63.518V62.944H295.402V73.444H293.61V69.426C293.064 69.972 292.378 70.28 291.426 70.28C289.186 70.28 287.842 68.53 287.842 66.472ZM289.69 66.472C289.69 67.704 290.46 68.6 291.664 68.6C292.49 68.6 293.176 68.236 293.61 67.592V65.352C293.134 64.694 292.462 64.344 291.664 64.344C290.46 64.344 289.69 65.24 289.69 66.472ZM302.182 66.948V62.944H303.974V66.864C303.974 68.978 302.742 70.28 300.67 70.28C298.598 70.28 297.38 68.978 297.38 66.864V62.944H299.172V66.948C299.172 67.97 299.704 68.6 300.684 68.6C301.65 68.6 302.182 67.97 302.182 66.948ZM312.438 68.852C311.78 69.734 310.688 70.28 309.358 70.28C306.852 70.28 305.438 68.53 305.438 66.472C305.438 64.386 306.754 62.664 309.064 62.664C311.024 62.664 312.312 63.994 312.312 65.842C312.312 66.234 312.256 66.598 312.2 66.836H307.258C307.426 68.152 308.238 68.684 309.344 68.684C310.114 68.684 310.786 68.348 311.164 67.844L312.438 68.852ZM309.022 64.12C308.112 64.12 307.51 64.624 307.314 65.548H310.562C310.534 64.834 310.016 64.12 309.022 64.12ZM313.338 68.978L314.514 67.914C314.948 68.46 315.466 68.852 316.138 68.852C316.712 68.852 317.006 68.516 317.006 68.096C317.006 66.864 313.632 67.326 313.632 64.848C313.632 63.602 314.682 62.664 316.152 62.664C317.23 62.664 318.21 63.182 318.714 63.868L317.538 64.904C317.174 64.456 316.712 64.092 316.166 64.092C315.606 64.092 315.34 64.4 315.34 64.764C315.34 65.968 318.714 65.548 318.714 67.984C318.686 69.468 317.496 70.28 316.166 70.28C314.906 70.28 314.01 69.776 313.338 68.978Z" fill="#161616"/>
<path d="M216.727 96C216.727 93.7909 218.518 92 220.727 92H327.273C329.482 92 331.273 93.7909 331.273 96V234.282H216.727V96Z" fill="#59C939"/>
<line y1="-0.5" x2="160" y2="-0.5" transform="matrix(1 1.30071e-06 -5.87581e-09 1 194 234.283)" stroke="#929292"/>
</g>
<defs>
<filter id="filter0_d_3405_42819" x="0" y="0" width="388" height="388" filterUnits="userSpaceOnUse" color-interpolation-filters="sRGB">
<feFlood flood-opacity="0" result="BackgroundImageFix"/>
<feColorMatrix in="SourceAlpha" type="matrix" values="0 0 0 0 0 0 0 0 0 0 0 0 0 0 0 0 0 0 127 0" result="hardAlpha"/>
<feOffset dy="6"/>
<feGaussianBlur stdDeviation="9"/>
<feColorMatrix type="matrix" values="0 0 0 0 0 0 0 0 0 0 0 0 0 0 0.0705882 0 0 0 0.16 0"/>
<feBlend mode="normal" in2="BackgroundImageFix" result="effect1_dropShadow_3405_42819"/>
<feBlend mode="normal" in="SourceGraphic" in2="effect1_dropShadow_3405_42819" result="shape"/>
</filter>
</defs>
</svg>
